<?xml version="1.0" encoding="utf-8"?>
<!-- Generator: Adobe Illustrator 23.0.0, SVG Export Plug-In . SVG Version: 6.00 Build 0)  -->
<svg version="1.1" id="Capa_1" xmlns="http://www.w3.org/2000/svg" xmlns:xlink="http://www.w3.org/1999/xlink" x="0px" y="0px"
	 viewBox="0 0 360 363" style="enable-background:new 0 0 360 363;" xml:space="preserve">
<style type="text/css">
	.st0{fill:#FFD084;}
	.st1{fill:none;stroke:#FFE1C0;stroke-width:0.7573;stroke-miterlimit:10;}
	.st2{fill:#FFD6A4;}
	.st3{fill:none;stroke:#FFE1C0;stroke-width:0.75;stroke-miterlimit:10;}
	.st4{fill:#FFE1C0;}
	.st5{fill:none;stroke:#FFD6A4;stroke-width:0.75;stroke-miterlimit:10;}
	.st6{fill:none;stroke:#FFEFE1;stroke-width:0.7478;stroke-miterlimit:10;}
	.st7{fill:#8F7CE5;}
	.st8{fill:#A6A6DD;}
	.st9{fill:#FFE5CC;}
	.st10{fill:none;stroke:#FFD6A4;stroke-miterlimit:10;}
	.st11{clip-path:url(#SVGID_2_);fill:#FFD8AE;}
	.st12{clip-path:url(#SVGID_4_);fill:#FFD8AE;}
	.st13{fill:none;stroke:#FFFFFF;stroke-width:16;stroke-linejoin:round;stroke-miterlimit:10;enable-background:new    ;}
	.st14{fill:#93CE93;}
	.st15{fill:url(#SVGID_5_);}
	.st16{filter:url(#Adobe_OpacityMaskFilter);}
	.st17{opacity:0.65;mask:url(#SVGID_6_);fill:#FFC794;}
	.st18{fill:url(#SVGID_7_);}
	.st19{fill:url(#SVGID_8_);}
	.st20{fill:url(#SVGID_9_);}
	.st21{fill:#E09570;}
	.st22{fill:#CCCCFF;}
	.st23{fill:#3B000B;}
	.st24{opacity:0.9;}
	.st25{opacity:0.8;fill:#FCFBD4;enable-background:new    ;}
	.st26{opacity:0.8;fill:#F2F4AE;enable-background:new    ;}
	.st27{opacity:0.82;}
	.st28{opacity:0.4;fill:#BAC7E5;enable-background:new    ;}
	.st29{opacity:0.1;fill:#3B000B;enable-background:new    ;}
</style>
<g id="fondo">
	<g>
		<g id="Rectángulo_556">
			<rect y="-0.1" class="st0" width="360" height="363.3"/>
			<rect x="0.5" y="0.4" class="st0" width="359" height="362.2"/>
		</g>
		<path class="st1" d="M228.1,258.3c0,0,43.9-35.1,59.7-104.9c15.8-69.8-12.4-91.7-12.4-91.7S254.9,35.3,242,72.3
			c0,0-11.1,37.2-24.4,18.6c0,0-4-5.6-6.5-13c-2.5-7.3-11-10.5-11-10.5s-21.4-7.3-59.4,34.8c0,0-30.9,35.9-25.5,83.1
			s10.5,56.8,10.5,56.8L228.1,258.3z"/>
		<path class="st2" d="M225.9,271.1c0,0,43.1-35.1,58.6-104.9s-12.2-91.7-12.2-91.7s-20.1-26.4-32.8,10.6c0,0-10.9,37.2-23.9,18.6
			c0,0-3.9-5.6-6.4-13c-2.5-7.3-10.8-10.5-10.8-10.5s-21-7.3-58.2,34.8c0,0-30.3,35.9-25,83.1s10.3,56.8,10.3,56.8L225.9,271.1z"/>
		<path class="st3" d="M114.9,245.6c0,0-61.2-54.4-49.7-80.4s30.9-7.5,30.9-7.5s25.7,22.6,47.9,63.9L114.9,245.6z"/>
		<path class="st2" d="M115.8,249.7c0,0-54.1-58.6-42.6-84.6s30.9-7.5,30.9-7.5s25.7,22.6,47.9,63.9L115.8,249.7z"/>
		<path class="st4" d="M206.4,265c0,0,41.3-44.5,60.9-102.7c0,0,11.1-34-2.3-60c0,0-8.2-25.8-29.3,14.8S206.3,129,206.3,129
			s-8.1-59.5-44-15.2s-22.9,140.1-22.9,140.1L206.4,265z"/>
		<path class="st5" d="M191.1,241.3c0,0,54.3-73,68-155.4"/>
		<path class="st6" d="M195.3,266c0,0,33.9-33.6,51.3-78.9c0,0,9.9-26.5,0.3-47.4c0,0-5.5-20.6-23.5,10.6s-23.4,8.4-23.4,8.4
			s-4.3-47.2-33.9-13.5s-22.8,109.6-22.8,109.6L195.3,266z"/>
		<g>
			
				<ellipse transform="matrix(1 -1.876229e-03 1.876229e-03 1 -0.526 0.338)" class="st7" cx="179.9" cy="280.5" rx="102.6" ry="21.4"/>
			<polygon class="st7" points="282.5,280.3 282.7,266.4 77.5,266.8 77.3,280.7 			"/>
			
				<ellipse transform="matrix(1 -1.876229e-03 1.876229e-03 1 -0.4999 0.3384)" class="st8" cx="180.1" cy="266.6" rx="102.6" ry="21.4"/>
		</g>
		<path class="st3" d="M239.7,220.4c0,0,41.8-19.1,39.9,9s-53,30.9-53,30.9s-15.5-0.3-14.5-10.3C213.2,240,218.5,230.9,239.7,220.4z
			"/>
		<path class="st9" d="M229.9,222.9c0,0,37.6-26.4,40.9,1.5c3.2,27.9-46.4,40.1-46.4,40.1S209,267,208.2,257
			C207.3,247,211,237.1,229.9,222.9z"/>
		<path class="st10" d="M208.2,257c0,0,44.4-19.6,65.3-41.4"/>
		<g>
			<g>
				<g>
					<g>
						<g>
							<defs>
								<path id="SVGID_1_" d="M229.9,222.9c0,0,37.6-26.4,40.9,1.5c3.2,27.9-46.4,40.1-46.4,40.1S209,267,208.2,257
									C207.3,247,211,237.1,229.9,222.9z"/>
							</defs>
							<clipPath id="SVGID_2_">
								<use xlink:href="#SVGID_1_"  style="overflow:visible;"/>
							</clipPath>
							<path class="st11" d="M240.9,211.5c0,0-27.3,46.6,4.8,50c21.5,2.3-22.9,11.5-22.9,11.5l-20.3-4.6l-1.3-29l20-22.9
								L240.9,211.5z"/>
						</g>
					</g>
				</g>
			</g>
		</g>
		<g>
			<path class="st9" d="M128.2,225.7c0,0-34.9-21.9-37.3,9.5c0,0,6.5,28.1,39.9,22.4C164.1,251.8,128.2,225.7,128.2,225.7z"/>
		</g>
		<path class="st10" d="M143,248.3c0,0-40.9-21-62.4-13.1"/>
		<g>
			<g>
				<g>
					<g>
						<g>
							<defs>
								<path id="SVGID_3_" d="M128.2,225.7c0,0-34.9-21.9-37.3,9.5c0,0,6.5,28.1,39.9,22.4C164.1,251.8,128.2,225.7,128.2,225.7z"
									/>
							</defs>
							<clipPath id="SVGID_4_">
								<use xlink:href="#SVGID_3_"  style="overflow:visible;"/>
							</clipPath>
							<path class="st12" d="M124.1,218.3h-4h-3.6c0,0,17.6,26,9.4,34.6c-8.2,8.6-9.4,6.7-9.4,6.7l19.6,1.8l15.9-7.2l1.2-14.3
								l-16-11.9L124.1,218.3z"/>
						</g>
					</g>
				</g>
			</g>
		</g>
		<path class="st3" d="M84.5,161.6c0,0,21.6,45.3,54.6,70.4"/>
		<path class="st3" d="M103.9,163.3c0,0-5.4,4-7,10.8"/>
		<path class="st3" d="M108.2,171.4c0,0-5.3,5.3-6,14.2"/>
		<path class="st3" d="M96.9,190.4c0,0-6.3-0.5-14.9,3.7"/>
		<path class="st3" d="M102.2,196.8c0,0-10.9,0.4-15.6,3.7"/>
		<path class="st2" d="M109.5,107.7c0.1,4-3.4,7.8-6.2,10.4c-1-2.4-1.9-5-2-7.6c-0.1-2,0.7-4,2.2-5.3c0.5-0.4,1-0.8,1.7-0.9
			c0.4-0.1,0.7-0.2,1.1-0.2C108,104.3,109.4,105.9,109.5,107.7z"/>
		<path class="st2" d="M81.9,123.8c-3.1,0.3-9-1.1-11.6-3.2c-2.3-1.7-2.3-2.2-3.4-4.9c-1-2.7,0.6-5.9,3.6-6.2
			c1.5-0.2,3.1,0.2,4.3,1.1C79.1,113.4,82.6,118.4,81.9,123.8z"/>
		<path class="st4" d="M105.6,142.4c-1.9,1.1-5-0.2-4.7-2.6c-0.2-2.8,4.1-3.8,5.6-1.6C107.5,139.5,106.9,141.6,105.6,142.4z"/>
		<path class="st4" d="M319.5,85.1c-2.6,1.4-6.6-0.3-6.3-3.5c-0.2-3.8,5.5-5.1,7.4-2.1C322,81.2,321.3,83.9,319.5,85.1z"/>
		<path class="st2" d="M328.9,297.3c-3.1,1.7-7.9-0.3-7.6-4.2c-0.3-4.5,6.6-6.1,8.9-2.5C331.9,292.6,331,295.9,328.9,297.3z"/>
		<path class="st4" d="M286.4,309c-2,1.1-5.2-0.2-5-2.8c-0.2-3,4.3-4,5.8-1.7C288.4,305.9,287.9,308.1,286.4,309z"/>
		<path class="st2" d="M61.9,244.7c-2.6,1.4-6.6-0.3-6.3-3.5c-0.2-3.8,5.5-5.1,7.4-2.1C64.4,240.8,63.7,243.5,61.9,244.7z"/>
		
			<ellipse transform="matrix(0.3506 -0.9365 0.9365 0.3506 -94.3859 226.7597)" class="st9" cx="116.3" cy="181.4" rx="2.7" ry="1.7"/>
		
			<ellipse transform="matrix(0.3506 -0.9365 0.9365 0.3506 -102.8036 234.9936)" class="st9" cx="118" cy="191.6" rx="2.7" ry="1.7"/>
		
			<ellipse transform="matrix(0.3506 -0.9365 0.9365 0.3506 -131.6409 232.946)" class="st0" cx="102.2" cy="211.4" rx="3" ry="1.8"/>
	</g>
</g>
<g>
	<path class="st13" d="M217.9,136.5c-0.9-1.1-1.9-2-3-2.9c-0.1-0.1-0.2-0.2-0.3-0.3c-0.3-0.3-0.7-0.5-1-0.7
		c-0.1-0.1-0.2-0.1-0.3-0.2c0,0-0.1-0.1-0.1-0.1l-0.2-0.2c0,0-0.1,0-0.1-0.1c-0.1-0.1-0.2-0.1-0.3-0.2c-0.1-0.1-0.2-0.1-0.4-0.2
		c-0.1-0.1-0.2-0.1-0.4-0.2c-0.5-0.3-1-0.5-1.4-0.7c-0.1-0.1-0.2-0.1-0.4-0.2c-0.3-0.1-0.6-0.2-0.8-0.3c-0.1,0-0.2-0.1-0.3-0.1
		c-0.4-0.1-0.7-0.3-1.1-0.4c-0.1,0-0.2-0.1-0.3-0.1c-0.1,0-0.2-0.1-0.3-0.1c-0.1,0-0.2-0.1-0.3-0.1c-0.1,0-0.2,0-0.2-0.1
		c-0.7-0.2-1.4-0.3-2.1-0.4c-0.1,0-0.2,0-0.3,0c-0.2,0-0.3,0-0.5,0c-0.1,0-0.3,0-0.4,0c-0.3,0-0.5,0-0.8,0c-0.2,0-0.3,0-0.5,0
		c-0.1,0-0.3,0-0.4,0c-0.1,0-0.2,0-0.3,0c-0.1,0-0.2,0-0.3,0c-0.5,0-1.1,0.1-1.6,0.2c-0.1,0-0.2,0-0.3,0.1c-0.1,0-0.3,0.1-0.4,0.1
		c0,0,0,0,0,0c-0.1,0-0.2,0.1-0.4,0.1c0,0,0,0-0.1,0c-0.1,0-0.2,0.1-0.3,0.1c-0.1,0-0.1,0-0.2,0.1c-0.1,0-0.2,0.1-0.3,0.1
		c-0.4,0.1-0.8,0.3-1.2,0.5c-0.1,0-0.2,0.1-0.2,0.1c-0.1,0-0.2,0.1-0.2,0.1c0,0,0,0,0,0c-0.1,0-0.2,0.1-0.3,0.1
		c-0.1,0.1-0.2,0.1-0.3,0.2c-2,1.1-4.2,2.5-4.9,4.8c-0.6,2.1,0.6,3.8,1.8,5.3c0.7,0.9,1.4,1.9,2.1,2.8h-16.1l0.3-20.4l-3.2-0.1
		l-0.3,20.5h-32l3,103.4c0.2,6.4,5.4,11.5,11.8,11.5h35.8c2.4,0,4.7-0.7,6.6-2c0.1-0.1,0.3-0.2,0.4-0.3c0.1-0.1,0.3-0.2,0.4-0.3
		c1.2-0.9,2.1-2,2.9-3.3c1-1.6,1.5-3.5,1.6-5.5L208,159c0.1,0.1,0.2,0.2,0.3,0.4c1.4,1.6,2.7,3,5,3.5c1.6,0.3,3.2,0.3,4.8-0.4
		C229.2,157.8,225,144.7,217.9,136.5z"/>
	<g>
		<g>
			<g>
				<g>
					<path class="st14" d="M197,147.1c-1.8-1.9-3.3-4.1-4.9-6.1c-1.2-1.5-2.4-3.2-1.8-5.3c0.7-2.3,2.9-3.7,4.9-4.8
						c0.1-0.1,0.2-0.1,0.3-0.2c0.1,0,0.2-0.1,0.3-0.1c0,0,0,0,0,0c0.1,0,0.2-0.1,0.2-0.1c0.1,0,0.2-0.1,0.2-0.1
						c0.4-0.2,0.8-0.3,1.2-0.5c0.1,0,0.2-0.1,0.3-0.1c0.1,0,0.1,0,0.2-0.1c0.1,0,0.2-0.1,0.3-0.1c0,0,0,0,0.1,0
						c0.1,0,0.2-0.1,0.4-0.1c0,0,0,0,0,0c0.1,0,0.3-0.1,0.4-0.1c0.1,0,0.2,0,0.3-0.1c0.5-0.1,1.1-0.2,1.6-0.2c0.1,0,0.2,0,0.3,0
						c0.1,0,0.2,0,0.3,0c0.1,0,0.3,0,0.4,0c0.2,0,0.3,0,0.5,0c0.3,0,0.5,0,0.8,0c0.1,0,0.3,0,0.4,0c0.2,0,0.3,0,0.5,0
						c0.1,0,0.2,0,0.3,0c0.7,0.1,1.4,0.2,2.1,0.4c0.1,0,0.2,0,0.2,0.1c0.1,0,0.2,0.1,0.3,0.1c0.1,0,0.2,0,0.3,0.1
						c0.1,0,0.2,0,0.3,0.1c0.4,0.1,0.7,0.2,1.1,0.4c0.1,0,0.2,0.1,0.3,0.1c0.3,0.1,0.6,0.2,0.8,0.3c0.1,0.1,0.2,0.1,0.4,0.2
						c0.5,0.2,1,0.5,1.4,0.7c0.1,0.1,0.2,0.1,0.4,0.2c0.1,0.1,0.2,0.1,0.4,0.2c0.1,0.1,0.2,0.1,0.3,0.2c0,0,0.1,0,0.1,0.1l0.2,0.2
						c0,0,0.1,0.1,0.1,0.1c0.1,0.1,0.2,0.1,0.3,0.2c0.3,0.2,0.7,0.5,1,0.7c0.1,0.1,0.2,0.2,0.3,0.3c1.1,0.8,2.1,1.8,3,2.9
						c7.1,8.2,11.3,21.3,0.1,26c-1.6,0.7-3.1,0.7-4.8,0.4c-2.2-0.5-3.5-1.9-5-3.5c-1.1-1.2-2.2-2.5-3.3-3.7
						c-0.8-0.8-1.6-1.6-2.2-2.6c-0.5-0.9-0.6-1.9-1.1-2.8c-0.5-0.9-1.4-0.8-2.2-1.3C198.5,148.6,197.7,147.9,197,147.1z"/>
					<g>
						
							<linearGradient id="SVGID_5_" gradientUnits="userSpaceOnUse" x1="810.9083" y1="-137.214" x2="847.9838" y2="-137.214" gradientTransform="matrix(-0.7071 -0.7071 0.7071 -0.7071 892.8289 633.059)">
							<stop  offset="0" style="stop-color:#FBEAA6"/>
							<stop  offset="0.4839" style="stop-color:#FCEED3"/>
							<stop  offset="0.6047" style="stop-color:#FAEACB"/>
							<stop  offset="0.7937" style="stop-color:#F6DDB5"/>
							<stop  offset="1" style="stop-color:#F0CC95"/>
						</linearGradient>
						<path class="st15" d="M215.1,160.9c-0.5,0-1-0.1-1.6-0.2c-1.6-0.3-2.6-1.4-4.1-3l-0.9-1c-0.8-0.9-1.6-1.8-2.4-2.7l-0.3-0.3
							c-0.6-0.7-1.2-1.3-1.7-2c-0.2-0.3-0.3-0.7-0.4-1.1c-0.2-0.5-0.4-1.1-0.7-1.6c-0.6-1.1-1.6-1.4-2.3-1.6
							c-0.2-0.1-0.4-0.1-0.6-0.2c-0.7-0.4-1.4-0.9-2.1-1.7c-1.2-1.3-2.3-2.7-3.4-4.2c-0.5-0.6-0.9-1.2-1.4-1.9
							c-1.3-1.6-1.9-2.7-1.5-3.9c0.5-1.7,2.3-2.9,4.2-3.9l0.7-0.3c0.1,0,0.1-0.1,0.2-0.1c0.4-0.2,0.8-0.3,1.1-0.4
							c0.1,0,0.2-0.1,0.3-0.1c0,0,0.4-0.1,0.4-0.1c0.1,0,0.2-0.1,0.3-0.1l0,0l0.1,0l0.6-0.1c0.5-0.1,1-0.2,1.5-0.2l0.5,0
							c0.1,0,0.3,0,0.4,0l0.5,0c0.2,0,0.5,0,0.7,0c0.1,0,0.2,0,0.3,0c0.2,0,0.3,0,0.5,0l0.3,0c0.6,0.1,1.3,0.2,1.9,0.3
							c0,0,0.4,0.1,0.5,0.1l0.5,0.1c0.3,0.1,0.7,0.2,1,0.3l0.2,0.1c0.3,0.1,0.5,0.2,0.8,0.3c0.1,0.1,0.2,0.1,0.3,0.1
							c0.4,0.2,0.9,0.4,1.3,0.7c0,0,0.6,0.3,0.7,0.4l0.6,0.4l0.3,0.2c0.3,0.2,0.6,0.4,0.9,0.7c0.1,0.1,0.2,0.2,0.3,0.2
							c1,0.8,1.9,1.7,2.8,2.7c4.1,4.7,7.6,11.9,6.3,17.3c-0.7,2.8-2.6,4.9-5.7,6.2C216.7,160.8,215.9,160.9,215.1,160.9z"/>
						<defs>
							<filter id="Adobe_OpacityMaskFilter" filterUnits="userSpaceOnUse" x="191.7" y="130.1" width="31.7" height="30.8">
								
									<feColorMatrix  type="matrix" values="-1 0 0 0 1  0 -1 0 0 1  0 0 -1 0 1  0 0 0 1 0" color-interpolation-filters="sRGB" result="source"/>
							</filter>
						</defs>
						<mask maskUnits="userSpaceOnUse" x="191.7" y="130.1" width="31.7" height="30.8" id="SVGID_6_">
							<g class="st16">
								<image style="overflow:visible;" width="37" height="35" xlink:href="591DD027.jpg"  transform="matrix(1 0 0 1 189 128)">
								</image>
							</g>
						</mask>
						<path class="st17" d="M215.1,160.9c-0.5,0-1-0.1-1.6-0.2c-1.6-0.3-2.6-1.4-4.1-3l-0.9-1c-0.8-0.9-1.6-1.8-2.4-2.7l-0.3-0.3
							c-0.6-0.7-1.2-1.3-1.7-2c-0.2-0.3-0.3-0.7-0.4-1.1c-0.2-0.5-0.4-1.1-0.7-1.6c-0.6-1.1-1.6-1.4-2.3-1.6
							c-0.2-0.1-0.4-0.1-0.6-0.2c-0.7-0.4-1.4-0.9-2.1-1.7c-1.2-1.3-2.3-2.7-3.4-4.2c-0.5-0.6-0.9-1.2-1.4-1.9
							c-1.3-1.6-1.9-2.7-1.5-3.9c0.5-1.7,2.3-2.9,4.2-3.9l0.7-0.3c0.1,0,0.1-0.1,0.2-0.1c0.4-0.2,0.8-0.3,1.1-0.4
							c0.1,0,0.2-0.1,0.3-0.1c0,0,0.4-0.1,0.4-0.1c0.1,0,0.2-0.1,0.3-0.1l0,0l0.1,0l0.6-0.1c0.5-0.1,1-0.2,1.5-0.2l0.5,0
							c0.1,0,0.3,0,0.4,0l0.5,0c0.2,0,0.5,0,0.7,0c0.1,0,0.2,0,0.3,0c0.2,0,0.3,0,0.5,0l0.3,0c0.6,0.1,1.3,0.2,1.9,0.3
							c0,0,0.4,0.1,0.5,0.1l0.5,0.1c0.3,0.1,0.7,0.2,1,0.3l0.2,0.1c0.3,0.1,0.5,0.2,0.8,0.3c0.1,0.1,0.2,0.1,0.3,0.1
							c0.4,0.2,0.9,0.4,1.3,0.7c0,0,0.6,0.3,0.7,0.4l0.6,0.4l0.3,0.2c0.3,0.2,0.6,0.4,0.9,0.7c0.1,0.1,0.2,0.2,0.3,0.2
							c1,0.8,1.9,1.7,2.8,2.7c4.1,4.7,7.6,11.9,6.3,17.3c-0.7,2.8-2.6,4.9-5.7,6.2C216.7,160.8,215.9,160.9,215.1,160.9z"/>
					</g>
				</g>
				<g>
					<g>
						
							<linearGradient id="SVGID_7_" gradientUnits="userSpaceOnUse" x1="830.4462" y1="-137.1744" x2="830.8397" y2="-145.487" gradientTransform="matrix(-0.7071 -0.7071 0.7071 -0.7071 892.8289 633.059)">
							<stop  offset="0" style="stop-color:#FFF7E9"/>
							<stop  offset="0.3733" style="stop-color:#FDF1DD;stop-opacity:0.6267"/>
							<stop  offset="1" style="stop-color:#F8E3BF;stop-opacity:0"/>
						</linearGradient>
						<path class="st18" d="M206.5,152.7c0,0,0.7-0.4,1-0.7c2.5-2.2,2.7-6,0.5-8.5c-2.2-2.5-6-2.8-8.5-0.6c-0.3,0.3-0.9,1-0.9,1
							L206.5,152.7z"/>
						
							<linearGradient id="SVGID_8_" gradientUnits="userSpaceOnUse" x1="1466.5884" y1="433.5703" x2="1473.8729" y2="433.5703" gradientTransform="matrix(-0.7543 0.6565 -0.6565 -0.7543 1598.5944 -491.9951)">
							<stop  offset="0.1935" style="stop-color:#E8B68B"/>
							<stop  offset="0.4474" style="stop-color:#ECC197;stop-opacity:0.6853"/>
							<stop  offset="0.9081" style="stop-color:#F6DDB8;stop-opacity:0.114"/>
							<stop  offset="1" style="stop-color:#F8E3BF;stop-opacity:0"/>
						</linearGradient>
						<path class="st19" d="M206.1,153.1c0,0,0.7-0.4,1-0.7c2.5-2.2,2.7-6,0.5-8.5c-2.2-2.5-6-2.8-8.5-0.6c-0.3,0.3-0.9,1-0.9,1
							L206.1,153.1z"/>
					</g>
					<g>
						
							<radialGradient id="SVGID_9_" cx="1326.1326" cy="482.788" r="2.1496" gradientTransform="matrix(-0.9146 0.801 -0.7594 -0.8783 1783.4758 -491.1294)" gradientUnits="userSpaceOnUse">
							<stop  offset="0" style="stop-color:#632816"/>
							<stop  offset="0.3783" style="stop-color:#5E2615"/>
							<stop  offset="0.8283" style="stop-color:#502012"/>
							<stop  offset="1" style="stop-color:#481D10"/>
						</radialGradient>
						<path class="st20" d="M201.5,146.9c-0.3-1,0.3-2.1,1.3-2.4c1-0.4,2.1,0.2,2.4,1.2c0.3,1-0.5,4.9-0.5,4.9
							S201.8,147.9,201.5,146.9z"/>
						<path class="st21" d="M203,145.3c0.2,0.3,0.5,0.4,0.8,0.5c0.4,0.3,0.5,1,0.3,1.5c-0.1,0.1,0.1,0.3,0.2,0.2
							c0.4-0.4,0.3-0.9,0.2-1.3c-0.1-0.5-0.8-1-1.3-1C203.1,145,202.9,145.1,203,145.3z"/>
					</g>
				</g>
			</g>
			<g>
				<path class="st22" d="M193.5,258.7h-35.8c-6.4,0-11.6-5.1-11.8-11.5l-3-103.4h65.5l-3,103.4
					C205.1,253.6,199.9,258.7,193.5,258.7z"/>
				<g>
					<g>
						<polygon class="st23" points="173.3,239.3 175.2,123.3 178.4,123.4 176.5,239.4 						"/>
					</g>
				</g>
				<g class="st24">
					<path class="st25" d="M149.3,148.5l1.4,79c0.3,12,10.4,21.8,22.5,21.8h4.9c12,0,22.1-9.8,22.5-21.8l1.4-79H149.3z"/>
					<path class="st26" d="M150.1,190.5l0.7,36.9c0.3,12,10.4,21.8,22.5,21.8h4.9c12,0,22.1-9.8,22.5-21.8l0.6-36.9H150.1z"/>
				</g>
				<g class="st27">
					<g>
						
							<rect x="175.3" y="172.5" transform="matrix(6.697818e-03 -1 1 6.697818e-03 1.553 366.8224)" class="st28" width="20.2" height="20.2"/>
						
							<rect x="177.4" y="202.6" transform="matrix(0.7783 -0.6278 0.6278 0.7783 -91.9722 164.8683)" class="st28" width="20.2" height="20.2"/>
						
							<rect x="157.4" y="190.4" transform="matrix(0.7783 -0.6278 0.6278 0.7783 -88.7633 149.6006)" class="st28" width="20.2" height="20.2"/>
						
							<rect x="159.6" y="157.2" transform="matrix(0.7783 -0.6278 0.6278 0.7783 -67.4546 143.6145)" class="st28" width="20.2" height="20.2"/>
						
							<rect x="162" y="220.2" transform="matrix(0.6401 -0.7683 0.7683 0.6401 -115.028 215.1215)" class="st28" width="20.2" height="20.2"/>
					</g>
				</g>
				<path class="st29" d="M195.1,143.7l-3.4,114.9h2c6.3,0,11.4-5,11.6-11.3l3-103.6L195.1,143.7L195.1,143.7z"/>
			</g>
		</g>
	</g>
</g>
</svg>
