<?xml version="1.0" encoding="utf-8"?>
<!-- Generator: Adobe Illustrator 23.0.0, SVG Export Plug-In . SVG Version: 6.00 Build 0)  -->
<svg version="1.1" id="Capa_1" xmlns="http://www.w3.org/2000/svg" xmlns:xlink="http://www.w3.org/1999/xlink" x="0px" y="0px"
	 viewBox="0 0 360 363" style="enable-background:new 0 0 360 363;" xml:space="preserve">
<style type="text/css">
	.st0{fill:#FFD084;}
	.st1{fill:none;stroke:#FFE1C0;stroke-width:0.7573;stroke-miterlimit:10;}
	.st2{fill:#FFD6A4;}
	.st3{fill:none;stroke:#FFE1C0;stroke-width:0.75;stroke-miterlimit:10;}
	.st4{fill:#FFE1C0;}
	.st5{fill:none;stroke:#FFD6A4;stroke-width:0.75;stroke-miterlimit:10;}
	.st6{fill:none;stroke:#FFEFE1;stroke-width:0.7478;stroke-miterlimit:10;}
	.st7{fill:#8F7CE5;}
	.st8{fill:#A6A6DD;}
	.st9{fill:#FFE5CC;}
	.st10{fill:none;stroke:#FFD6A4;stroke-miterlimit:10;}
	.st11{clip-path:url(#SVGID_2_);fill:#FFD8AE;}
	.st12{clip-path:url(#SVGID_4_);fill:#FFD8AE;}
	.st13{fill:none;stroke:#FFFFFF;stroke-width:16;stroke-linejoin:round;stroke-miterlimit:10;}
	.st14{fill:none;stroke:#FFFFFF;stroke-width:13;stroke-linejoin:round;stroke-miterlimit:10;}
	.st15{fill:#3D9EC1;}
	.st16{fill:#78C9E9;}
	.st17{fill:#EFEFC2;}
	.st18{fill:#E2DC8F;}
	.st19{fill:#CCCCFF;}
	.st20{fill:#E1E1FF;}
	.st21{fill:#B5B5F4;}
	.st22{fill:#9C9CE2;}
	.st23{display:none;fill:#F2DADA;}
	.st24{fill:#FFE0D4;}
	.st25{fill:#FFBEAE;}
	.st26{fill:#FFA183;}
	.st27{fill:#FF724D;}
	.st28{fill:#FFF0F1;}
	.st29{fill:#FF8630;}
</style>
<g id="fondo">
	<g>
		<g id="Rectángulo_556">
			<rect y="-0.1" class="st0" width="360" height="363.3"/>
			<rect x="0.5" y="0.4" class="st0" width="359" height="362.2"/>
		</g>
		<path class="st1" d="M228.1,258.3c0,0,43.9-35.1,59.7-104.9c15.8-69.8-12.4-91.7-12.4-91.7S254.9,35.3,242,72.3
			c0,0-11.1,37.2-24.4,18.6c0,0-4-5.6-6.5-13c-2.5-7.3-11-10.5-11-10.5s-21.4-7.3-59.4,34.8c0,0-30.9,35.9-25.5,83.1
			s10.5,56.8,10.5,56.8L228.1,258.3z"/>
		<path class="st2" d="M225.9,271.1c0,0,43.1-35.1,58.6-104.9s-12.2-91.7-12.2-91.7s-20.1-26.4-32.8,10.6c0,0-10.9,37.2-23.9,18.6
			c0,0-3.9-5.6-6.4-13c-2.5-7.3-10.8-10.5-10.8-10.5s-21-7.3-58.2,34.8c0,0-30.3,35.9-25,83.1s10.3,56.8,10.3,56.8L225.9,271.1z"/>
		<path class="st3" d="M114.9,245.6c0,0-61.2-54.4-49.7-80.4s30.9-7.5,30.9-7.5s25.7,22.6,47.9,63.9L114.9,245.6z"/>
		<path class="st2" d="M115.8,249.7c0,0-54.1-58.6-42.6-84.6s30.9-7.5,30.9-7.5s25.7,22.6,47.9,63.9L115.8,249.7z"/>
		<path class="st4" d="M206.4,265c0,0,41.3-44.5,60.9-102.7c0,0,11.1-34-2.3-60c0,0-8.2-25.8-29.3,14.8S206.3,129,206.3,129
			s-8.1-59.5-44-15.2s-22.9,140.1-22.9,140.1L206.4,265z"/>
		<path class="st5" d="M191.1,241.3c0,0,54.3-73,68-155.4"/>
		<path class="st6" d="M195.3,266c0,0,33.9-33.6,51.3-78.9c0,0,9.9-26.5,0.3-47.4c0,0-5.5-20.6-23.5,10.6s-23.4,8.4-23.4,8.4
			s-4.3-47.2-33.9-13.5s-22.8,109.6-22.8,109.6L195.3,266z"/>
		<g>
			
				<ellipse transform="matrix(1 -1.876229e-03 1.876229e-03 1 -0.526 0.338)" class="st7" cx="179.9" cy="280.5" rx="102.6" ry="21.4"/>
			<polygon class="st7" points="282.5,280.3 282.7,266.4 77.5,266.8 77.3,280.7 			"/>
			
				<ellipse transform="matrix(1 -1.876229e-03 1.876229e-03 1 -0.4999 0.3384)" class="st8" cx="180.1" cy="266.6" rx="102.6" ry="21.4"/>
		</g>
		<path class="st3" d="M239.7,220.4c0,0,41.8-19.1,39.9,9s-53,30.9-53,30.9s-15.5-0.3-14.5-10.3C213.2,240,218.5,230.9,239.7,220.4z
			"/>
		<path class="st9" d="M229.9,222.9c0,0,37.6-26.4,40.9,1.5c3.2,27.9-46.4,40.1-46.4,40.1S209,267,208.2,257
			C207.3,247,211,237.1,229.9,222.9z"/>
		<path class="st10" d="M208.2,257c0,0,44.4-19.6,65.3-41.4"/>
		<g>
			<g>
				<g>
					<g>
						<g>
							<defs>
								<path id="SVGID_1_" d="M229.9,222.9c0,0,37.6-26.4,40.9,1.5c3.2,27.9-46.4,40.1-46.4,40.1S209,267,208.2,257
									C207.3,247,211,237.1,229.9,222.9z"/>
							</defs>
							<clipPath id="SVGID_2_">
								<use xlink:href="#SVGID_1_"  style="overflow:visible;"/>
							</clipPath>
							<path class="st11" d="M240.9,211.5c0,0-27.3,46.6,4.8,50c21.5,2.3-22.9,11.5-22.9,11.5l-20.3-4.6l-1.3-29l20-22.9
								L240.9,211.5z"/>
						</g>
					</g>
				</g>
			</g>
		</g>
		<g>
			<path class="st9" d="M128.2,225.7c0,0-34.9-21.9-37.3,9.5c0,0,6.5,28.1,39.9,22.4C164.1,251.8,128.2,225.7,128.2,225.7z"/>
		</g>
		<path class="st10" d="M143,248.3c0,0-40.9-21-62.4-13.1"/>
		<g>
			<g>
				<g>
					<g>
						<g>
							<defs>
								<path id="SVGID_3_" d="M128.2,225.7c0,0-34.9-21.9-37.3,9.5c0,0,6.5,28.1,39.9,22.4C164.1,251.8,128.2,225.7,128.2,225.7z"
									/>
							</defs>
							<clipPath id="SVGID_4_">
								<use xlink:href="#SVGID_3_"  style="overflow:visible;"/>
							</clipPath>
							<path class="st12" d="M124.1,218.3h-4h-3.6c0,0,17.6,26,9.4,34.6c-8.2,8.6-9.4,6.7-9.4,6.7l19.6,1.8l15.9-7.2l1.2-14.3
								l-16-11.9L124.1,218.3z"/>
						</g>
					</g>
				</g>
			</g>
		</g>
		<path class="st3" d="M84.5,161.6c0,0,21.6,45.3,54.6,70.4"/>
		<path class="st3" d="M103.9,163.3c0,0-5.4,4-7,10.8"/>
		<path class="st3" d="M108.2,171.4c0,0-5.3,5.3-6,14.2"/>
		<path class="st3" d="M96.9,190.4c0,0-6.3-0.5-14.9,3.7"/>
		<path class="st3" d="M102.2,196.8c0,0-10.9,0.4-15.6,3.7"/>
		<path class="st2" d="M109.5,107.7c0.1,4-3.4,7.8-6.2,10.4c-1-2.4-1.9-5-2-7.6c-0.1-2,0.7-4,2.2-5.3c0.5-0.4,1-0.8,1.7-0.9
			c0.4-0.1,0.7-0.2,1.1-0.2C108,104.3,109.4,105.9,109.5,107.7z"/>
		<path class="st2" d="M81.9,123.8c-3.1,0.3-9-1.1-11.6-3.2c-2.3-1.7-2.3-2.2-3.4-4.9c-1-2.7,0.6-5.9,3.6-6.2
			c1.5-0.2,3.1,0.2,4.3,1.1C79.1,113.4,82.6,118.4,81.9,123.8z"/>
		<path class="st4" d="M105.6,142.4c-1.9,1.1-5-0.2-4.7-2.6c-0.2-2.8,4.1-3.8,5.6-1.6C107.5,139.5,106.9,141.6,105.6,142.4z"/>
		<path class="st4" d="M319.5,85.1c-2.6,1.4-6.6-0.3-6.3-3.5c-0.2-3.8,5.5-5.1,7.4-2.1C322,81.2,321.3,83.9,319.5,85.1z"/>
		<path class="st2" d="M328.9,297.3c-3.1,1.7-7.9-0.3-7.6-4.2c-0.3-4.5,6.6-6.1,8.9-2.5C331.9,292.6,331,295.9,328.9,297.3z"/>
		<path class="st4" d="M286.4,309c-2,1.1-5.2-0.2-5-2.8c-0.2-3,4.3-4,5.8-1.7C288.4,305.9,287.9,308.1,286.4,309z"/>
		<path class="st2" d="M61.9,244.7c-2.6,1.4-6.6-0.3-6.3-3.5c-0.2-3.8,5.5-5.1,7.4-2.1C64.4,240.8,63.7,243.5,61.9,244.7z"/>
		
			<ellipse transform="matrix(0.3506 -0.9365 0.9365 0.3506 -94.3859 226.7597)" class="st9" cx="116.3" cy="181.4" rx="2.7" ry="1.7"/>
		
			<ellipse transform="matrix(0.3506 -0.9365 0.9365 0.3506 -102.8036 234.9936)" class="st9" cx="118" cy="191.6" rx="2.7" ry="1.7"/>
		
			<ellipse transform="matrix(0.3506 -0.9365 0.9365 0.3506 -131.6409 232.946)" class="st0" cx="102.2" cy="211.4" rx="3" ry="1.8"/>
	</g>
</g>
<path class="st13" d="M195.5,253.5l-0.1-0.1c0,0,0,0-0.1-0.1l0,0c-1.8-1.7-5.8-3.5-10.9-4.5c0-3.1-2-5.7-4.7-6.7v-42.5
	c2.7-1,4.7-3.6,4.7-6.7c0-0.1,0-0.6,0-0.8l48.3-50.1H124.5h-2.8l49.6,51.5c-0.2-0.2-0.5-0.4-0.7-0.6c-0.1-0.1-0.3-0.3-0.4-0.4v0.1
	l-0.1-0.1c0,0.1,0,0.3,0,0.4c0,3,1.8,5.5,4.5,6.6v42.6c-2.6,1-4.5,3.6-4.5,6.5c-7.1,1.3-12.2,4.3-12.2,6.3c0,0.3,0.2,0.6,0.5,0.9
	c1.7,1.9,9.5,2.5,18.8,2.5c10.6,0,19.2-0.8,19.2-3.3C196.3,254.6,196,254,195.5,253.5z M154.2,163.9L154.2,163.9l22.9,23.7v0.1
	l-35.9-37.3L154.2,163.9z"/>
<path class="st14" d="M242.8,145.8c0-0.1,0-0.1,0-0.2c0,0,0-0.1,0-0.1c0,0,0,0,0-0.1c0,0,0-0.1,0-0.1c0,0,0-0.1,0-0.1
	c0,0,0-0.1,0-0.1c0,0,0,0,0,0c0,0,0-0.1,0-0.1c0,0,0-0.1,0-0.1c0,0,0-0.1,0-0.1c0,0,0,0,0-0.1c0,0,0,0,0,0c0,0,0-0.1,0-0.1
	c0,0,0,0,0-0.1c0,0,0,0,0,0c0,0,0-0.1,0-0.1c0,0,0,0,0,0c0,0,0,0,0,0c0,0,0,0,0,0c0,0,0,0,0,0c0-0.1-0.1-0.1-0.1-0.2
	c0,0,0-0.1-0.1-0.1c0,0,0,0,0,0c-0.1-0.1-0.2-0.2-0.3-0.3c0,0,0,0,0,0c0,0-0.1-0.1-0.1-0.1c-0.1-0.1-0.1-0.1-0.2-0.2
	c0,0-0.1-0.1-0.1-0.1c0,0-0.1-0.1-0.1-0.1c-0.1-0.1-0.1-0.1-0.2-0.2c0,0-0.1-0.1-0.1-0.1c0,0-0.1-0.1-0.1-0.1
	c-0.1,0-0.1-0.1-0.2-0.1c-0.1,0-0.1-0.1-0.2-0.1c0,0,0,0,0,0c0,0,0,0-0.1-0.1c-0.1,0-0.1-0.1-0.2-0.1c-0.1-0.1-0.2-0.1-0.2-0.2
	c-0.1,0-0.1-0.1-0.2-0.1c0,0,0,0-0.1,0c0,0,0,0-0.1,0c-0.1,0-0.2-0.1-0.2-0.1c-0.1,0-0.2-0.1-0.2-0.1c0,0-0.1,0-0.1-0.1
	c-0.1,0-0.1-0.1-0.2-0.1c-0.1-0.1-0.2-0.1-0.3-0.2c0,0-0.1-0.1-0.1-0.1c0,0-0.1-0.1-0.1-0.1c-0.1-0.1-0.3-0.1-0.4-0.2c0,0,0,0,0,0
	c0,0-0.1,0-0.1-0.1c0,0-0.1,0-0.1,0c-0.2-0.1-0.4-0.2-0.6-0.3c-1.9-1-4.6-1.3-7-1.3c0.1-0.1,0.1-0.1,0.1-0.2
	c0.1-0.1,0.2-0.2,0.3-0.3c0.1-0.1,0.2-0.2,0.2-0.3c0.1-0.1,0.1-0.2,0.2-0.2c0.1-0.1,0.1-0.2,0.2-0.2c0.1-0.1,0.2-0.2,0.2-0.3
	c0.1-0.1,0.1-0.1,0.2-0.2c0,0,0,0,0,0c0-0.1,0.1-0.1,0.1-0.2c0.1-0.1,0.2-0.2,0.2-0.4c0.1-0.1,0.1-0.2,0.2-0.4
	c0-0.1,0.1-0.1,0.1-0.2c0.1-0.1,0.1-0.2,0.2-0.3c0.1-0.2,0.2-0.3,0.2-0.5c0-0.1,0.1-0.2,0.1-0.2c0-0.1,0.1-0.1,0.1-0.2
	c0-0.1,0.1-0.1,0.1-0.2c0,0,0,0,0,0c0.1-0.1,0.1-0.3,0.2-0.4c0.2-0.5,0.4-0.9,0.6-1.4c1.3-2.9-1-8.2-1-8.2c-0.2-0.4-0.3-0.6-0.5-0.9
	c0,0,0,0,0,0c0,0-0.1-0.1-0.1-0.1c0-0.1-0.1-0.1-0.1-0.2c-0.1-0.1-0.1-0.1-0.2-0.2c0,0,0,0-0.1-0.1c0,0,0,0,0,0c0,0,0,0,0,0
	c0,0,0,0,0,0c0,0,0,0,0,0c0,0,0,0,0,0c0,0,0,0,0,0c0,0,0,0,0,0c0,0,0,0-0.1,0c0,0-0.1-0.1-0.1-0.1c-0.1,0-0.1-0.1-0.2-0.1
	c0,0-0.1,0-0.1,0c0,0-0.1,0-0.1,0c0,0,0,0-0.1,0c0,0,0,0,0,0c0,0-0.1,0-0.1,0c0,0-0.1,0-0.1,0c0,0-0.1,0-0.1,0c0,0,0,0,0,0
	c0,0,0,0,0,0c-0.1,0-0.1,0-0.2,0c0,0,0,0,0,0c0,0-0.1,0-0.1,0c0,0,0,0-0.1,0c0,0,0,0,0,0c-0.1,0-0.2,0-0.2,0.1c0,0-0.1,0-0.1,0
	c0,0,0,0,0,0c0,0,0,0,0,0c-0.1,0-0.1,0.1-0.2,0.1c-0.1,0-0.1,0-0.2,0.1c0,0,0,0,0,0c0,0,0,0,0,0c0,0,0,0,0,0c0,0,0,0,0,0
	c0,0-0.1,0-0.1,0.1c-0.1,0-0.2,0.1-0.2,0.1c0,0,0,0,0,0c0,0-0.1,0-0.1,0.1c0,0-0.1,0.1-0.1,0.1c-0.1,0-0.1,0.1-0.2,0.1c0,0,0,0,0,0
	c0,0,0,0,0,0c0,0-0.1,0.1-0.1,0.1c0,0-0.1,0.1-0.1,0.1c-0.1,0-0.1,0.1-0.2,0.1c-0.1,0-0.1,0.1-0.2,0.1c0,0,0,0-0.1,0c0,0,0,0-0.1,0
	c-0.1,0-0.1,0.1-0.2,0.1c-0.1,0.1-0.1,0.1-0.2,0.2c-0.1,0-0.1,0.1-0.2,0.1c0,0,0,0,0,0c0,0,0,0-0.1,0.1c-0.1,0.1-0.1,0.1-0.2,0.2
	c-0.1,0.1-0.1,0.1-0.2,0.2c0,0-0.1,0.1-0.1,0.1c-0.1,0.1-0.1,0.1-0.2,0.2c-0.1,0.1-0.2,0.2-0.3,0.2c0,0-0.1,0.1-0.1,0.1
	c0,0-0.1,0.1-0.1,0.1c-0.1,0.1-0.2,0.2-0.3,0.3c0,0-0.1,0.1-0.1,0.1c0,0,0,0-0.1,0.1c-0.2,0.2-0.3,0.3-0.5,0.5
	c-1,1.1-1.9,2.6-2.5,4.2c0-0.1-0.1-0.1-0.1-0.2c0,0,0,0,0,0c0-0.1-0.1-0.1-0.1-0.2c-0.1-0.1-0.2-0.3-0.2-0.4
	c-0.1-0.1-0.1-0.2-0.2-0.4c0-0.1-0.1-0.1-0.1-0.2c-0.1-0.1-0.1-0.2-0.2-0.3c-0.1-0.1-0.2-0.3-0.3-0.4c0-0.1-0.1-0.1-0.1-0.2
	c-0.1-0.1-0.1-0.1-0.2-0.2c0,0-0.1-0.1-0.1-0.1c0,0,0,0,0,0c-0.1-0.2-0.3-0.4-0.4-0.5c0,0,0,0,0,0c-0.3-0.3-0.5-0.7-0.8-1
	c-2-2.5-7.7-2.9-7.7-2.9c-0.4,0-0.7,0-1,0.1c0,0,0,0,0,0c0,0-0.1,0-0.1,0c-0.1,0-0.2,0-0.2,0.1c-0.1,0-0.2,0.1-0.3,0.1
	c0,0-0.1,0-0.1,0c0,0,0,0,0,0c0,0,0,0,0,0c0,0,0,0,0,0c0,0,0,0,0,0c0,0,0,0,0,0c0,0,0,0,0,0c0,0,0,0,0,0c0,0,0,0,0,0c0,0,0,0-0.1,0
	c0,0-0.1,0.1-0.1,0.1c0,0-0.1,0-0.1,0.1c0,0,0,0,0,0c0,0,0,0-0.1,0c0,0,0,0-0.1,0.1c0,0-0.1,0.1-0.1,0.1c0,0,0,0,0,0c0,0,0,0,0,0
	c0,0,0,0.1-0.1,0.1c0,0,0,0.1-0.1,0.1c0,0,0,0,0,0.1c0,0,0,0,0,0c0,0,0,0,0,0c0,0,0,0.1-0.1,0.1c0,0,0,0,0,0c0,0,0,0.1,0,0.1
	c0,0,0,0,0,0c0,0,0,0,0,0c0,0,0,0,0,0c0,0.1,0,0.2-0.1,0.2c0,0,0,0.1,0,0.1c0,0,0,0,0,0c0,0.1,0,0.3-0.1,0.4c0,0,0,0,0,0
	c0,0,0,0,0,0c0,0.1,0,0.1,0,0.2c0,0.1,0,0.2,0,0.3c0,0,0,0.1,0,0.1c0,0.1,0,0.1,0,0.2c0,0.1,0,0.1,0,0.2c0,0.1,0,0.1,0,0.2
	c0,0.1,0,0.1,0,0.2c0,0.1,0,0.1,0,0.2c0,0.1,0,0.1,0,0.2c0,0.1,0,0.1,0,0.2c0,0.1,0,0.1,0,0.2c0,0.1,0,0.2,0.1,0.2
	c0,0.1,0,0.1,0,0.2c0,0.1,0,0.1,0,0.2c0,0.1,0,0.2,0.1,0.2c0,0.1,0,0.2,0.1,0.2c0,0.1,0,0.1,0.1,0.2c0,0.1,0,0.1,0.1,0.2
	c0,0.1,0.1,0.2,0.1,0.3c0,0.1,0,0.1,0.1,0.2c0,0,0,0.1,0,0.1c0,0.1,0.1,0.3,0.1,0.4c0,0.1,0,0.1,0.1,0.2c0,0,0,0,0,0.1
	c0.1,0.2,0.1,0.4,0.2,0.7c0.8,2.5,3.3,5.2,5.3,6.9c-0.2,0-0.4,0-0.6,0c0,0-0.1,0-0.1,0c-0.1,0-0.2,0-0.3,0c-0.2,0-0.4,0-0.5,0
	c-0.1,0-0.2,0-0.2,0c-0.1,0-0.2,0-0.3,0.1c-0.1,0-0.3,0-0.4,0.1c-0.1,0-0.2,0.1-0.3,0.1c-0.1,0-0.2,0.1-0.3,0.1
	c-0.1,0-0.2,0.1-0.3,0.1c-0.1,0-0.2,0.1-0.4,0.1c-0.1,0-0.2,0.1-0.3,0.1c0,0,0,0-0.1,0c-0.1,0-0.2,0.1-0.2,0.1
	c-0.1,0-0.2,0.1-0.4,0.1c-0.1,0.1-0.3,0.1-0.4,0.2c-0.1,0-0.1,0.1-0.2,0.1c-0.1,0-0.2,0.1-0.3,0.1c-0.2,0.1-0.4,0.2-0.5,0.3
	c-0.1,0-0.1,0.1-0.2,0.1c-0.1,0-0.1,0.1-0.2,0.1c-0.1,0-0.1,0.1-0.2,0.1c0,0,0,0,0,0c-0.2,0.1-0.4,0.2-0.6,0.3c0,0,0,0,0,0
	c-0.4,0.2-0.7,0.4-1.1,0.6c-2.8,1.6-4,7.2-4,7.2c-0.1,0.4-0.1,0.7-0.1,1c0,0,0,0,0,0c0,0,0,0.1,0,0.1c0,0.1,0,0.2,0,0.2
	c0,0.1,0,0.2,0.1,0.3c0,0,0,0.1,0,0.1c0,0,0,0,0,0c0,0,0,0,0,0c0,0,0,0,0,0c0,0,0,0,0,0c0,0,0,0,0,0c0,0,0,0,0,0.1c0,0,0,0,0,0
	c0,0,0,0.1,0.1,0.1c0,0,0,0.1,0,0.1c0,0,0,0,0,0c0,0,0,0.1,0.1,0.1c0,0,0,0.1,0.1,0.1c0,0,0,0,0.1,0.1c0,0,0.1,0,0.1,0.1
	c0,0,0.1,0.1,0.1,0.1c0,0,0,0,0.1,0c0,0,0,0,0,0c0,0,0.1,0.1,0.1,0.1c0,0,0.1,0,0.1,0.1c0,0,0,0,0,0c0,0,0,0,0,0
	c0.1,0,0.1,0.1,0.2,0.1c0,0,0,0,0,0c0,0,0.1,0,0.1,0c0,0,0,0,0,0c0,0,0,0,0,0c0.1,0,0.1,0,0.2,0.1c0.1,0,0.1,0,0.2,0.1c0,0,0,0,0,0
	c0,0,0,0,0,0c0,0,0,0,0,0c0.1,0,0.1,0,0.2,0c0.1,0,0.1,0,0.2,0c0,0,0,0,0,0c0,0,0.1,0,0.1,0c0.1,0,0.1,0,0.2,0c0.1,0,0.1,0,0.2,0
	c0.1,0,0.1,0,0.2,0c0.1,0,0.1,0,0.2,0c0.1,0,0.1,0,0.2,0c0.1,0,0.2,0,0.2,0c0,0,0,0,0,0c0.1,0,0.1,0,0.2,0c0.1,0,0.1,0,0.2,0
	c0.1,0,0.2,0,0.2,0c0.1,0,0.1,0,0.2,0c0.1,0,0.1,0,0.2,0c0,0,0,0,0,0c0.1,0,0.2,0,0.2,0c0.1,0,0.2,0,0.3,0c0.1,0,0.1,0,0.2,0
	c0.1,0,0.1,0,0.2,0c0.1,0,0.2,0,0.3,0c0.1,0,0.1,0,0.2,0c0,0,0.1,0,0.1,0c0.1,0,0.3,0,0.4-0.1c0.1,0,0.1,0,0.2,0c0,0,0,0,0,0
	c0.2,0,0.5-0.1,0.7-0.1c2-0.3,4.1-1.6,6-2.9c0,0.1,0,0.2,0,0.3c0,0.1,0,0.3,0,0.4c0,0.1,0,0.2,0,0.3c0,0.1,0,0.2,0,0.3
	c0,0.2,0,0.3,0,0.5c0,0.1,0,0.1,0,0.2c0,0,0,0.1,0,0.1c0,0.1,0,0.1,0,0.2c0,0.2,0,0.3,0,0.5c0,0.1,0,0.2,0,0.4c0,0.1,0,0.1,0,0.2
	c0,0.2,0,0.3,0.1,0.5c0,0.1,0,0.3,0,0.4c0,0.1,0,0.1,0,0.2c0,0,0,0.1,0,0.1c0,0.1,0,0.3,0.1,0.4c0,0,0,0,0,0c0,0,0,0,0,0
	c0,0.2,0.1,0.4,0.1,0.7c0,0,0,0,0,0c0.1,0.4,0.1,0.8,0.2,1.2c0.5,3.2,5.5,6.2,5.5,6.2c0.3,0.2,0.6,0.3,0.9,0.4c0,0,0,0,0,0
	c0,0,0.1,0,0.1,0c0.1,0,0.2,0,0.2,0.1c0.1,0,0.2,0,0.3,0c0,0,0.1,0,0.1,0c0,0,0,0,0,0c0,0,0,0,0,0c0,0,0,0,0,0c0,0,0,0,0,0
	c0,0,0,0,0,0c0,0,0,0,0,0c0,0,0,0,0,0c0,0,0,0,0,0c0,0,0.1,0,0.1,0c0,0,0.1,0,0.1,0c0,0,0.1,0,0.1,0c0,0,0,0,0,0c0,0,0,0,0.1,0
	c0,0,0.1,0,0.1,0c0,0,0.1,0,0.1,0c0,0,0.1,0,0.1,0c0,0,0,0,0,0c0,0,0,0,0,0c0,0,0.1,0,0.1,0c0,0,0.1,0,0.1,0c0,0,0,0,0.1,0
	c0,0,0,0,0,0c0,0,0,0,0.1,0c0.1,0,0.1-0.1,0.2-0.1c0,0,0.1,0,0.1-0.1c0,0,0,0,0,0c0,0,0,0,0,0c0,0,0,0,0,0c0.1-0.1,0.1-0.1,0.2-0.2
	c0,0,0,0,0,0c0,0,0,0,0,0c0,0,0,0,0,0c0.1-0.1,0.1-0.2,0.2-0.3c0,0,0-0.1,0.1-0.1c0,0,0,0,0,0c0,0,0-0.1,0.1-0.1c0,0,0,0,0,0
	c0-0.1,0.1-0.2,0.1-0.3c0,0,0,0,0-0.1c0-0.1,0.1-0.1,0.1-0.2c0-0.1,0.1-0.2,0.1-0.2c0,0,0-0.1,0.1-0.1c0-0.1,0-0.1,0.1-0.2
	c0-0.1,0.1-0.1,0.1-0.2c0-0.1,0-0.1,0.1-0.2c0,0,0,0,0,0c0-0.1,0-0.1,0-0.1c0,0,0,0,0,0c0-0.1,0-0.1,0-0.2c0-0.1,0-0.1,0.1-0.2
	c0-0.1,0-0.1,0.1-0.2c0,0,0,0,0,0c0,0,0,0,0,0c0-0.1,0-0.1,0-0.2c0,0,0,0,0,0c0-0.1,0-0.1,0.1-0.2c0-0.1,0-0.2,0.1-0.3
	c0-0.1,0-0.1,0-0.2c0-0.1,0-0.1,0-0.2c0-0.1,0-0.2,0.1-0.3c0-0.1,0-0.1,0-0.2c0,0,0-0.1,0-0.1c0-0.1,0.1-0.3,0.1-0.4
	c0-0.1,0-0.1,0-0.2c0,0,0,0,0,0c0-0.2,0.1-0.5,0.1-0.7c0.4-2.1-0.2-4.7-0.8-7c0.1,0.1,0.2,0.1,0.3,0.1c0.1,0.1,0.2,0.1,0.4,0.2
	c0.1,0.1,0.2,0.1,0.3,0.1c0.1,0,0.2,0.1,0.3,0.1c0.1,0,0.2,0.1,0.3,0.1c0.1,0,0.3,0.1,0.4,0.1c0.1,0,0.2,0.1,0.3,0.1c0,0,0,0,0.1,0
	c0.1,0,0.2,0,0.2,0.1c0.1,0,0.3,0.1,0.4,0.1c0.1,0,0.3,0.1,0.4,0.1c0.1,0,0.2,0,0.2,0c0.1,0,0.2,0,0.4,0.1c0.2,0,0.3,0.1,0.5,0.1
	c0.1,0,0.2,0,0.2,0c0.1,0,0.2,0,0.3,0c0.1,0,0.1,0,0.2,0c0,0,0,0,0,0c0.2,0,0.4,0.1,0.7,0.1c0,0,0,0,0,0c0.4,0.1,0.8,0.1,1.2,0.2
	c3.2,0.4,7.5-3.3,7.5-3.3c0.3-0.3,0.5-0.5,0.7-0.8c0,0,0,0,0,0c0,0,0-0.1,0.1-0.1c0-0.1,0.1-0.1,0.1-0.2c0.1-0.1,0.1-0.2,0.1-0.3
	c0,0,0-0.1,0-0.1c0,0,0,0,0,0C242.7,145.9,242.7,145.9,242.8,145.8C242.7,145.9,242.7,145.9,242.8,145.8
	C242.7,145.9,242.7,145.9,242.8,145.8C242.7,145.9,242.7,145.9,242.8,145.8C242.7,145.9,242.7,145.8,242.8,145.8
	C242.8,145.8,242.8,145.8,242.8,145.8z"/>
<g>
	<g>
		<g>
			<polygon class="st15" points="213.1,150.4 141.2,150.4 177.2,187.7 			"/>
			<polygon class="st16" points="209.5,150.4 144.8,150.4 177.2,187.7 			"/>
			<polygon class="st17" points="154.2,163.9 177.2,187.7 200.1,163.9 			"/>
			<polygon class="st18" points="177.2,181 154.3,163.9 154.2,163.9 177.2,187.7 200.1,163.9 200,163.9 			"/>
			<path class="st19" d="M121.7,142.1l55.5,57.6l55.5-57.6H121.7z M141.2,150.4H213l-35.9,37.3L141.2,150.4z"/>
			<polygon class="st20" points="124.5,142.1 121.7,142.1 177.2,199.7 178.6,198.2 			"/>
			<path class="st21" d="M174.6,196.9V248c0,2.3,1.1,4.1,2.6,4.1c1.4,0,2.5-1.8,2.5-4.1v-51.4C178.4,197.9,176.1,198,174.6,196.9z"
				/>
			<path class="st21" d="M184.4,248.8c0,3.9-3.2,7.1-7.1,7.1c-3.9,0-7.1-3.2-7.1-7.1c0-3.9,3.2-7.1,7.1-7.1S184.4,244.9,184.4,248.8
				z"/>
			<path class="st22" d="M177.3,255.9c3.9,0,7.1-3.2,7.1-7.1c0-0.9-0.2-1.7-0.5-2.5c-2.1-0.4-4.4-0.6-6.7-0.6s-4.5,0.2-6.5,0.6
				c-0.3,0.8-0.5,1.6-0.5,2.5C170.1,252.7,173.3,255.9,177.3,255.9C177.2,255.9,177.3,255.9,177.3,255.9z"/>
			<path class="st21" d="M177.3,195.5c-2.9,0-5.5-1.1-7.1-2.9c0,0.1,0,0.3,0,0.4c0,3.9,3.2,7.1,7.1,7.1c3.9,0,7.1-3.2,7.1-7.1
				c0-0.1,0-0.6,0-0.8C182.7,194,180.2,195.5,177.3,195.5z"/>
			<path class="st22" d="M170.6,193c1,2.7,3.6,4.6,6.6,4.6c3.2,0,5.9-2.1,6.8-5c-1.6,1.6-4,2.9-6.8,2.9
				C174.6,195.5,172.2,194.5,170.6,193z"/>
			<path class="st19" d="M177.7,233.9c-0.5,0-0.9-0.4-0.9-0.9v-31.2c0-0.5,0.4-0.9,0.9-0.9l0,0c0.5,0,0.9,0.4,0.9,0.9V233
				C178.6,233.5,178.2,233.9,177.7,233.9L177.7,233.9z"/>
			<path class="st20" d="M171.5,193.8c-0.5-0.4-1-0.8-1.4-1.2c0,0.1,0,0.3,0,0.4c0,3,1.8,5.5,4.5,6.6v42.6c-2.6,1-4.5,3.6-4.5,6.6
				c0,3.1,1.9,5.7,4.6,6.7c-2.1-1.2-3.6-3.5-3.6-6.1c0-3,1.8-5.5,4.5-6.6v-44.3C173.7,197.6,172.1,195.9,171.5,193.8z"/>
			<path class="st19" d="M196.3,255c0,2.5-8.6,3.3-19.2,3.3c-10.6,0-19.2-0.8-19.2-3.3c0-2.5,8.6-6.9,19.2-6.9
				C187.8,248.1,196.3,252.5,196.3,255z"/>
			<path class="st21" d="M195.3,253.3c-2.6,1.4-9.7,1.9-18.1,1.9c-8.4,0-15.5-0.5-18.1-1.9c-0.7,0.6-1.1,1.2-1.1,1.8
				c0,2.5,8.6,3.3,19.2,3.3c10.6,0,19.2-0.8,19.2-3.3C196.3,254.5,196,253.9,195.3,253.3z"/>
			<path class="st20" d="M179.7,257.2c-10.6,0-19.2-0.8-19.2-3.3c0-1,1.4-2.4,3.9-3.6c-3.9,1.5-6.4,3.4-6.4,4.7
				c0,2.5,8.6,3.3,19.2,3.3c9.1,0,16.7-0.6,18.7-2.3C192.4,256.9,186.5,257.2,179.7,257.2z"/>
		</g>
	</g>
</g>
<polygon class="st23" points="200,163.9 201.9,162 202.5,161.3 151.7,161.3 154.2,163.9 "/>
<g>
	<g>
		<g>
			<g>
				<g>
					<g>
						<path class="st24" d="M241.7,147.3c0,0-4.4,3.8-7.5,3.3c-3.2-0.4-6.5-0.8-8.8-3.1c-2.3-2.3-3.8-5.3-3.6-6.1
							c0.3-0.8,2-1.1,3.7-1.7c1.1-0.3,8.2-1.1,12.1,0.9C241.4,142.7,244.7,144.6,241.7,147.3z"/>
						<path class="st25" d="M221.8,141.5c-0.3,0.8,1.3,3.8,3.6,6.1c2,2,4.8,2.5,7.5,2.9c-2-1.6-4-3.5-3.3-4.4
							c1.1-1.5,8.5-5.3,13.1-0.2c0.7-2-2-3.6-5.2-5.2c-3.8-2-11-1.2-12.1-0.9C223.8,140.3,222.1,140.6,221.8,141.5z"/>
						<path class="st26" d="M237.6,140.7c-3.8-2-11-1.2-12.1-0.9c-1.6,0.5-3.4,0.8-3.7,1.7c-0.3,0.8,1.3,3.8,3.6,6.1
							c1.8,1.8,4.3,2.4,6.9,2.8c-2.3-1.7-5.3-4.2-4.4-5.3c1.3-1.6,10.1-6.2,14.6,1.5C244.1,144.2,241,142.5,237.6,140.7z"/>
						<path class="st27" d="M237.6,140.7c-3.8-2-11-1.2-12.1-0.9c-1.6,0.5-3.4,0.8-3.7,1.7c-0.2,0.6,0.5,2.1,1.7,3.8
							c2.3-2.6,12.7-8.6,19.3,0.6C243.4,143.9,240.7,142.3,237.6,140.7z"/>
					</g>
					<path class="st28" d="M233.3,148.8c0,0,0.8,1.5,2.8,0.8c2-0.7,3.8-1.9,4.5-2.5C241.5,146.5,232.5,145.8,233.3,148.8z"/>
				</g>
				<path class="st27" d="M221.8,141.5c0,0.2,0,0.4,0.1,0.7c0.5,1.3,1.8,3.2,3.3,4.8c1.8,1.9,4.4,2.5,7,2.8c0.6,0.1,1.2,0.2,1.8,0.3
					c3.2,0.4,7.5-3.3,7.5-3.3c0.5-0.4,0.8-0.8,1-1.2c-0.1-0.1-0.2-0.2-0.2-0.2c-0.2,0.3-0.4,0.5-0.7,0.8c0,0-4.4,3.8-7.5,3.3
					c-0.9-0.1-1.8-0.2-2.6-0.4c-2.3-0.4-4.5-1-6.1-2.7C223.6,144.7,222.3,142.7,221.8,141.5C221.8,141.4,221.8,141.5,221.8,141.5z"
					/>
			</g>
		</g>
		<path class="st29" d="M229,148.7c1,0.3,2,0.6,3,0.7c0,0,0,0,0,0c-1-0.1-2-0.4-3-0.8c-1-0.3-2-0.8-2.8-1.4
			c-0.9-0.7-1.7-1.5-2.4-2.4c0.4,0.4,0.9,0.8,1.4,1.1c0.1,0.1,0.2,0.1,0.3,0.2c0.6,0.4,1.2,0.8,1.9,1.1c0.4,0.2,0.8,0.4,1.2,0.3
			c0,0,0,0,0,0c-0.5,0-1-0.3-1.4-0.6c0.5,0.2,1,0.4,1.5,0.6c1.2,0.5,2.5,0.7,3.8,0.9c0.6,0.1,1.1,0.1,1.7,0.1c0.6,0,1.4-0.3,2,0
			c0,0,0,0,0,0c-0.3-0.2-0.6-0.2-0.9-0.1c-0.6,0-1.3,0.1-1.9,0c-1.3-0.1-2.5-0.4-3.7-0.8c-1.1-0.4-2.2-0.9-3.3-1.4
			c-0.4-0.2-0.7-0.4-1.1-0.6c0.4,0.2,0.8,0.3,1.3,0.4c0.8,0.2,1.7,0.3,2.5,0.5c0,0,0,0,0,0c-0.5-0.2-1-0.4-1.5-0.5
			c-0.7-0.2-1.4-0.4-2-0.7c-0.5-0.2-1-0.4-1.5-0.7c0,0,0,0-0.1-0.1c-0.1-0.1-0.2-0.2-0.3-0.3c0.2,0.1,0.3,0.1,0.5,0.2
			c0.4,0.2,0.7,0.4,1.1,0.6c0,0,0,0,0,0c-0.1-0.1-0.2-0.2-0.4-0.3c0.1,0,0.1,0,0.2,0.1c0.9,0.3,1.7,0.6,2.6,0.7
			c1.9,0.3,3.8,0.1,5.7,0.1c0,0,0,0,0,0c-1.8-0.2-3.5-0.1-5.3-0.4c-1-0.2-1.8-0.5-2.7-0.8c-0.4-0.2-0.9-0.3-1.3-0.5
			c-0.1-0.1-0.2-0.1-0.4-0.2c0.1,0,0.2,0,0.3,0.1c0.5,0.1,0.9,0.3,1.4,0.4c0.9,0.3,1.8,0.3,2.7,0.3c0.9,0,1.8-0.1,2.7-0.2
			c1.1-0.2,2.2-0.5,3.3-0.2c0,0,0,0,0,0c-0.8-0.3-1.7-0.2-2.5-0.2c-1,0-1.9,0.1-2.9,0.1c-1,0-2.1-0.1-3.1-0.3
			c-0.4-0.1-0.8-0.2-1.1-0.3c0.1,0,0.1,0,0.2,0c0.1,0,0.2,0,0.2,0c0.2,0,0.5,0,0.7,0.1c0.6,0.1,1.3,0.2,1.9,0.2
			c1.3,0,2.6-0.3,3.9-0.6c1.4-0.3,2.9-0.4,4.3-0.3c0.8,0.1,1.5,0.3,2.2,0.6c0.4,0.1,0.7,0.3,1,0.5c0.2,0.2,0.4,0.3,0.6,0.3
			c0,0,0,0,0,0c-0.3-0.1-0.5-0.4-0.8-0.6c-0.2-0.2-0.6-0.3-0.9-0.4c-0.6-0.2-1.2-0.5-1.8-0.6c-1.4-0.2-2.8-0.1-4.2,0.1
			c-0.8,0.1-1.5,0.3-2.3,0.4c0.5-0.1,0.9-0.2,1.4-0.4c0.5-0.1,0.9-0.4,1.4-0.5c0.3-0.1,0.7-0.1,1-0.3c0,0,0,0,0,0
			c-0.4,0.1-0.8,0.1-1.1,0.2c-0.4,0-0.7,0.2-1.1,0.2c-0.8,0.1-1.5,0.2-2.3,0.3c-0.7,0.1-1.5,0-2.2,0c0.1,0,0.2,0,0.3,0c0,0,0,0,0,0
			c0,0,0,0,0,0c0.2,0,0.4-0.1,0.6-0.1c1.7-0.4,3.5-0.8,5.2-1c1.7-0.3,3.5-0.1,5.1,0.5c1.5,0.6,3,1.3,4.1,2.5c0,0,0,0,0,0
			c-2-2.4-5.2-3.7-8.3-3.6c-0.8,0-1.6,0.1-2.4,0.3c-0.9,0-1.9,0.1-2.8,0.2c-0.4,0.1-0.9,0.1-1.3,0.1c-0.5,0.1-1,0.2-1.5,0.3
			c-0.7,0.1-1.4,0.2-2,0.4c-0.1-0.5-0.5-0.7-0.9-0.8c0,0-0.1,0-0.1,0c0,0-0.1-0.1-0.2,0c-0.1,0-0.1,0.1-0.2,0.1
			c-0.1,0-0.2,0.1-0.2,0.1c-0.1,0.1-0.1,0.2-0.2,0.3c-0.1,0.4,0.2,1.3,0.8,2.5c0,0,0,0,0,0c1.1,1.3,2.2,2.6,3.6,3.5
			C227.1,148,228.1,148.4,229,148.7z"/>
		<g>
			<path class="st28" d="M237.6,140.7c-3.8-2-11-1.2-12.1-0.9c-1.5,0.5-3.1,0.8-3.6,1.4c0.2,0.1,0.3,0.3,0.5,0.5
				c1,1,7.2-2.3,13.9-0.7c4.7,1.2,6,3.5,6.4,4.8C243.4,143.9,240.7,142.3,237.6,140.7z"/>
		</g>
	</g>
	<g>
		<g>
			<g>
				<g>
					<g>
						<path class="st24" d="M222.9,161.7c0,0-4.9-3-5.5-6.2c-0.5-3.2-1.2-6.4,0.3-9.3c1.5-2.9,3.8-5.2,4.7-5.2c0.9,0,1.7,1.6,2.7,3
							c0.6,0.9,3.6,7.5,2.8,11.8C227.3,160.1,226.4,163.8,222.9,161.7z"/>
						<path class="st25" d="M222.5,141c-0.8,0-3.2,2.4-4.7,5.2c-1.3,2.5-1,5.3-0.5,8.1c0.9-2.4,2.1-4.8,3.2-4.4
							c1.7,0.6,7.7,6.5,4.1,12.4c2.1,0.1,2.8-3,3.4-6.5c0.7-4.3-2.2-10.9-2.8-11.8C224.2,142.6,223.3,141,222.5,141z"/>
						<path class="st26" d="M228,155.8c0.7-4.3-2.2-10.9-2.8-11.8c-1-1.4-1.8-3-2.7-3c-0.8,0-3.2,2.4-4.7,5.2
							c-1.2,2.3-1,4.9-0.6,7.4c0.9-2.7,2.4-6.3,3.7-5.8c1.9,0.7,9,7.8,3,14.3C226.5,163.1,227.3,159.7,228,155.8z"/>
						<path class="st27" d="M228,155.8c0.7-4.3-2.2-10.9-2.8-11.8c-1-1.4-1.8-3-2.7-3c-0.6,0-1.9,1.1-3.1,2.7
							c3.2,1.4,12,9.6,5.2,18.6C226.7,162.4,227.4,159.3,228,155.8z"/>
					</g>
					<path class="st28" d="M219,154.2c0,0-1.2,1.2,0.1,3c1.3,1.7,2.9,3,3.8,3.6C223.6,161.3,221.6,152.5,219,154.2z"/>
				</g>
				<path class="st27" d="M222.5,141c-0.2,0-0.4,0.1-0.7,0.3c-1.1,0.9-2.5,2.6-3.6,4.6c-1.2,2.3-1,4.9-0.6,7.5
					c0.1,0.6,0.2,1.2,0.3,1.8c0.5,3.2,5.4,6.2,5.4,6.2c0.5,0.3,1,0.5,1.4,0.6c0.1-0.1,0.1-0.2,0.2-0.3c-0.3-0.1-0.6-0.2-1-0.5
					c0,0-4.9-3-5.5-6.2c-0.1-0.9-0.3-1.8-0.4-2.6c-0.3-2.3-0.4-4.6,0.7-6.7C219.9,143.7,221.4,141.9,222.5,141
					C222.5,141,222.5,141,222.5,141z"/>
			</g>
		</g>
		<path class="st29" d="M217.8,150.1c0,1.1,0,2.1,0.3,3.1c0,0,0,0,0,0c-0.2-1-0.2-2.1-0.2-3.1c0-1.1,0.1-2.1,0.5-3.1
			c0.4-1.1,0.9-2.1,1.5-3c-0.3,0.5-0.4,1.1-0.6,1.7c0,0.1-0.1,0.2-0.1,0.4c-0.2,0.7-0.3,1.4-0.4,2.1c-0.1,0.4-0.1,0.9,0.1,1.3
			c0,0,0,0,0,0c-0.1-0.5,0-1.1,0.1-1.6c0,0.5,0,1.1-0.1,1.6c-0.1,1.3,0,2.6,0.3,3.9c0.1,0.5,0.2,1.1,0.4,1.6
			c0.2,0.6,0.7,1.3,0.6,1.9c0,0,0,0,0,0c0.1-0.3,0-0.6-0.1-0.9c-0.2-0.6-0.5-1.2-0.6-1.8c-0.3-1.2-0.4-2.5-0.3-3.8
			c0-1.2,0.2-2.4,0.3-3.5c0-0.4,0.1-0.8,0.2-1.2c0,0.4-0.1,0.9,0,1.3c0,0.9,0.2,1.7,0.3,2.6c0,0,0,0,0,0c0.1-0.5,0.1-1.1,0-1.6
			c0-0.7,0-1.4,0.1-2.2c0.1-0.5,0.1-1.1,0.2-1.6c0,0,0-0.1,0-0.1c0.1-0.1,0.1-0.2,0.2-0.4c0,0.2,0,0.3,0,0.5
			c-0.1,0.4-0.2,0.8-0.2,1.2c0,0,0,0,0,0c0.1-0.1,0.1-0.3,0.2-0.4c0,0.1,0,0.1,0,0.2c0,0.9,0,1.8,0.1,2.7c0.3,1.9,1.1,3.7,1.6,5.5
			c0,0,0,0,0,0c-0.4-1.7-1-3.4-1.2-5.2c-0.1-1-0.1-1.9,0-2.8c0-0.5,0-0.9,0.1-1.4c0-0.1,0-0.3,0-0.4c0,0.1,0,0.2,0,0.3
			c0.1,0.5,0,1,0,1.4c0,0.9,0.2,1.8,0.5,2.7c0.3,0.9,0.6,1.7,1,2.5c0.5,1,1.2,2,1.2,3.1c0,0,0,0,0,0c0.1-0.9-0.3-1.6-0.6-2.4
			c-0.3-0.9-0.7-1.8-1-2.7c-0.3-1-0.6-2-0.6-3c0-0.4,0-0.8,0-1.2c0,0.1,0.1,0.1,0.1,0.2c0,0.1,0,0.2,0.1,0.2
			c0.1,0.2,0.1,0.5,0.1,0.7c0.1,0.6,0.2,1.3,0.4,1.9c0.4,1.3,1.1,2.4,1.7,3.6c0.7,1.3,1.3,2.6,1.6,4c0.2,0.7,0.1,1.5,0.1,2.3
			c0,0.4-0.1,0.7-0.2,1.1c-0.1,0.2-0.2,0.4-0.1,0.7c0,0,0,0,0,0c0-0.4,0.2-0.6,0.3-1c0.1-0.3,0.1-0.7,0.1-1c0-0.7,0.1-1.3,0-1.9
			c-0.2-1.4-0.8-2.7-1.4-3.9c-0.3-0.7-0.7-1.4-1-2.1c0.2,0.4,0.5,0.8,0.8,1.2c0.3,0.4,0.6,0.7,0.9,1.1c0.2,0.3,0.3,0.6,0.6,0.8
			c0,0,0,0,0,0c-0.3-0.3-0.4-0.7-0.5-1c-0.2-0.3-0.4-0.6-0.5-0.9c-0.4-0.7-0.7-1.4-1-2.1c-0.3-0.7-0.5-1.4-0.7-2.1
			c0,0.1,0.1,0.2,0.1,0.2c0,0,0,0,0,0c0,0,0,0,0,0c0.1,0.2,0.2,0.3,0.3,0.5c0.9,1.5,1.8,3.1,2.6,4.7c0.8,1.6,1.2,3.3,1.1,5
			c-0.1,1.6-0.3,3.3-1.1,4.7c0,0,0,0,0,0c1.7-2.6,2-6.1,1-9c-0.3-0.8-0.6-1.5-1-2.2c-0.3-0.9-0.6-1.8-1.1-2.6
			c-0.2-0.4-0.4-0.8-0.5-1.2c-0.2-0.5-0.5-0.9-0.7-1.3c-0.3-0.6-0.6-1.2-1-1.8c0.4-0.3,0.5-0.7,0.5-1.1c0,0,0-0.1,0-0.1
			c0,0,0-0.1,0-0.2c0,0-0.1-0.1-0.1-0.1c-0.1-0.1-0.1-0.1-0.2-0.2c-0.1,0-0.2-0.1-0.3-0.1c-0.4,0-1.2,0.6-2.1,1.6c0,0,0,0,0,0
			c-0.9,1.4-1.8,2.8-2.3,4.5C217.8,148.1,217.8,149.1,217.8,150.1z"/>
		<g>
			<path class="st28" d="M228,155.8c0.7-4.3-2.2-10.9-2.8-11.8c-0.9-1.3-1.7-2.7-2.4-3c-0.1,0.2-0.2,0.4-0.3,0.6
				c-0.7,1.2,4.4,6.1,4.9,13.1c0.3,4.8-1.5,6.8-2.7,7.5C226.7,162.4,227.4,159.3,228,155.8z"/>
		</g>
	</g>
	<g>
		<g>
			<g>
				<g>
					<g>
						<path class="st24" d="M203.7,148.8c0,0,1.2-5.6,4-7.2c2.8-1.6,5.7-3.3,8.9-2.8c3.2,0.5,6.2,1.9,6.5,2.7
							c0.3,0.8-0.9,2.1-1.9,3.5c-0.6,0.9-5.9,5.9-10.2,6.6C206.7,152.4,202.9,152.8,203.7,148.8z"/>
						<path class="st25" d="M223.1,141.5c-0.3-0.8-3.3-2.2-6.5-2.7c-2.8-0.4-5.3,0.8-7.8,2.2c2.5,0.1,5.3,0.4,5.2,1.5
							c0,1.9-3.6,9.4-10.3,8c0.6,2,3.8,1.6,7.3,1c4.3-0.7,9.5-5.7,10.2-6.6C222.1,143.7,223.4,142.3,223.1,141.5z"/>
						<path class="st26" d="M211,151.7c4.3-0.7,9.5-5.7,10.2-6.6c1-1.4,2.2-2.7,1.9-3.5c-0.3-0.8-3.3-2.2-6.5-2.7
							c-2.6-0.4-4.9,0.7-7.2,1.9c2.8,0,6.8,0.2,6.7,1.6c0,2.1-4.3,11-12.5,7.6C203.6,152.7,207.1,152.3,211,151.7z"/>
						<path class="st27" d="M211,151.7c4.3-0.7,9.5-5.7,10.2-6.6c1-1.4,2.2-2.7,1.9-3.5c-0.2-0.5-1.7-1.4-3.6-2
							c-0.3,3.5-5,14.5-15.7,11.1C204.3,152.6,207.5,152.2,211,151.7z"/>
					</g>
					<path class="st28" d="M209.5,142.7c0,0-1.6-0.7-2.8,1.1c-1.2,1.8-1.9,3.8-2.1,4.7C204.3,149.4,211.9,144.5,209.5,142.7z"/>
				</g>
				<path class="st27" d="M223.1,141.5c-0.1-0.2-0.2-0.3-0.5-0.5c-1.2-0.7-3.3-1.5-5.6-1.8c-2.6-0.4-5,0.7-7.3,1.9
					c-0.5,0.3-1.1,0.6-1.6,0.9c-2.8,1.6-4,7.2-4,7.2c-0.1,0.6-0.1,1.1-0.1,1.5c0.1,0,0.2,0,0.3,0c0-0.3,0-0.7,0.1-1.1
					c0,0,1.2-5.6,4-7.2c0.8-0.4,1.5-0.9,2.3-1.3c2.1-1.1,4.2-1.9,6.5-1.5C219.7,140,221.9,140.8,223.1,141.5
					C223.1,141.5,223.1,141.5,223.1,141.5z"/>
			</g>
		</g>
		<path class="st29" d="M213,140.1c-1,0.3-2,0.7-2.8,1.3c0,0,0,0,0,0c0.9-0.6,1.9-0.9,2.9-1.2c1-0.3,2-0.6,3.1-0.6
			c1.2,0,2.3,0.2,3.3,0.5c-0.6-0.1-1.2-0.1-1.8,0c-0.1,0-0.2,0-0.4,0c-0.7,0-1.4,0.1-2.1,0.3c-0.4,0.1-0.9,0.2-1.2,0.5c0,0,0,0,0,0
			c0.4-0.3,1-0.4,1.5-0.4c-0.5,0.1-1,0.3-1.5,0.5c-1.2,0.4-2.4,0.9-3.5,1.5c-0.5,0.3-1,0.6-1.4,0.9c-0.5,0.4-0.9,1.1-1.6,1.2
			c0,0,0,0,0,0c0.3,0,0.6-0.2,0.8-0.4c0.5-0.4,1-0.8,1.5-1.2c1.1-0.7,2.2-1.2,3.4-1.6c1.1-0.4,2.3-0.6,3.4-0.9
			c0.4-0.1,0.8-0.1,1.2-0.2c-0.4,0.1-0.9,0.2-1.3,0.4c-0.8,0.3-1.5,0.8-2.3,1.1c0,0,0,0.1,0,0c0.5-0.1,1-0.3,1.5-0.5
			c0.7-0.3,1.4-0.5,2.1-0.7c0.5-0.1,1.1-0.3,1.6-0.3c0,0,0.1,0,0.1,0c0.1,0,0.3,0,0.4,0.1c-0.2,0-0.3,0.1-0.5,0.1
			c-0.4,0.1-0.8,0.1-1.2,0.2c0,0,0,0,0,0c0.2,0,0.3,0,0.5,0c-0.1,0-0.1,0.1-0.2,0.1c-0.9,0.3-1.7,0.6-2.5,1
			c-1.7,0.9-3.1,2.3-4.7,3.3c0,0,0,0,0,0c1.5-0.9,2.9-2,4.5-2.9c0.9-0.5,1.7-0.7,2.7-1c0.4-0.1,0.9-0.3,1.3-0.4
			c0.1,0,0.3-0.1,0.4-0.1c-0.1,0-0.2,0.1-0.3,0.1c-0.4,0.2-0.9,0.3-1.3,0.5c-0.8,0.3-1.6,0.8-2.3,1.4c-0.7,0.5-1.4,1.2-2,1.8
			c-0.7,0.8-1.5,1.8-2.5,2.2c0,0,0,0,0,0c0.8-0.2,1.4-0.8,2.1-1.4c0.7-0.6,1.5-1.2,2.2-1.8c0.8-0.6,1.7-1.2,2.6-1.6
			c0.4-0.2,0.7-0.3,1.1-0.4c0,0-0.1,0.1-0.2,0.1c-0.1,0.1-0.1,0.1-0.2,0.2c-0.2,0.1-0.4,0.3-0.6,0.4c-0.6,0.3-1.2,0.6-1.7,1
			c-1.1,0.8-1.9,1.8-2.8,2.8c-1,1.1-2,2.1-3.2,2.8c-0.6,0.4-1.4,0.6-2.1,0.9c-0.4,0.1-0.7,0.2-1.1,0.2c-0.2,0-0.4,0-0.7,0.1
			c0,0,0,0,0,0c0.3-0.1,0.7,0,1,0c0.3,0,0.7-0.1,1-0.2c0.6-0.2,1.2-0.3,1.8-0.7c1.2-0.6,2.3-1.6,3.3-2.6c0.5-0.5,1.1-1.1,1.6-1.7
			c-0.3,0.4-0.6,0.7-0.9,1.1c-0.3,0.4-0.5,0.8-0.8,1.2c-0.2,0.3-0.4,0.5-0.6,0.8c0,0,0,0,0,0c0.2-0.3,0.5-0.6,0.8-0.8
			c0.3-0.3,0.5-0.6,0.7-0.8c0.5-0.6,1.1-1.1,1.7-1.6c0.5-0.5,1.1-0.9,1.7-1.3c-0.1,0.1-0.1,0.1-0.2,0.2c0,0,0,0,0,0c0,0,0,0,0,0
			c-0.1,0.1-0.3,0.3-0.4,0.4c-1.2,1.3-2.3,2.7-3.5,4c-1.2,1.3-2.7,2.2-4.4,2.7c-1.5,0.4-3.2,0.8-4.8,0.5c0,0,0,0,0,0
			c3,0.7,6.4-0.2,8.8-2.1c0.6-0.5,1.2-1.1,1.8-1.7c0.7-0.6,1.4-1.2,2.1-1.9c0.3-0.3,0.6-0.6,0.9-0.9c0.4-0.4,0.7-0.8,1-1.1
			c0.5-0.5,1-1,1.4-1.5c0.4,0.3,0.8,0.3,1.2,0.1c0,0,0.1-0.1,0.1-0.1c0.1,0,0.1,0,0.2-0.1c0-0.1,0-0.1,0.1-0.2
			c0.1-0.1,0.1-0.2,0.1-0.2c0-0.1,0-0.2,0-0.3c-0.1-0.4-1-1-2.2-1.5c0,0,0,0,0,0c-1.7-0.4-3.3-0.8-5-0.7
			C214.9,139.5,213.9,139.8,213,140.1z"/>
		<g>
			<path class="st28" d="M211,151.7c4.3-0.7,9.5-5.7,10.2-6.6c0.9-1.3,2-2.5,2-3.3c-0.2,0-0.4,0-0.7-0.1c-1.4-0.2-4.3,6.2-10.7,8.9
				c-4.4,1.9-6.9,0.8-8,0C204.3,152.6,207.5,152.2,211,151.7z"/>
		</g>
	</g>
	<g>
		<g>
			<g>
				<g>
					<g>
						<path class="st24" d="M212.6,124.2c0,0,5.8,0.4,7.7,2.9c2,2.5,4.1,5.1,4.1,8.4c0,3.2-0.9,6.4-1.7,6.8
							c-0.8,0.4-2.3-0.6-3.8-1.4c-1-0.5-6.7-4.9-8-9.1C209.5,127.8,208.5,124,212.6,124.2z"/>
						<path class="st25" d="M222.7,142.3c0.7-0.4,1.7-3.6,1.7-6.8c0-2.8-1.6-5.1-3.3-7.4c0.3,2.5,0.4,5.3-0.7,5.4
							c-1.8,0.3-9.8-2.1-9.5-9c-1.9,0.9-1.1,4,0,7.4c1.3,4.1,7.1,8.6,8,9.1C220.4,141.7,221.9,142.7,222.7,142.3z"/>
						<path class="st26" d="M210.9,131.9c1.3,4.1,7.1,8.6,8,9.1c1.5,0.8,3,1.8,3.8,1.4c0.7-0.4,1.7-3.6,1.7-6.8
							c0-2.6-1.4-4.8-2.9-6.8c0.4,2.8,0.8,6.7-0.6,6.9c-2,0.3-11.6-2.6-9.4-11.3C208.7,124.7,209.7,128.1,210.9,131.9z"/>
						<path class="st27" d="M210.9,131.9c1.3,4.1,7.1,8.6,8,9.1c1.5,0.8,3,1.8,3.8,1.4c0.5-0.3,1.1-1.9,1.4-3.9
							c-3.5,0.2-15.1-2.8-13.3-13.9C208.9,125.4,209.8,128.5,210.9,131.9z"/>
					</g>
					<path class="st28" d="M219.5,129c0,0,0.5-1.6-1.5-2.6c-1.9-0.9-4-1.3-5-1.4C212.1,124.9,218.1,131.7,219.5,129z"/>
				</g>
				<path class="st27" d="M222.7,142.3c0.1-0.1,0.3-0.3,0.5-0.5c0.5-1.3,1-3.5,1-5.8c0-2.6-1.4-4.8-3-6.9c-0.4-0.5-0.7-1-1.1-1.4
					c-2-2.5-7.7-2.9-7.7-2.9c-0.6,0-1.1,0-1.5,0.2c0,0.1,0,0.2,0,0.3c0.3-0.1,0.7-0.1,1.1-0.1c0,0,5.8,0.4,7.7,2.9
					c0.5,0.7,1.1,1.4,1.6,2.1c1.4,1.9,2.5,3.9,2.5,6.2C223.7,138.7,223.2,141.1,222.7,142.3C222.7,142.3,222.7,142.3,222.7,142.3z"
					/>
			</g>
		</g>
		<path class="st29" d="M222.6,132.1c-0.5-0.9-1-1.8-1.7-2.6c0,0,0,0,0,0c0.7,0.8,1.2,1.7,1.6,2.6c0.5,1,0.9,1.9,1,3
			c0.2,1.1,0.1,2.3,0,3.4c0-0.6-0.1-1.2-0.2-1.8c0-0.1-0.1-0.2-0.1-0.4c-0.1-0.7-0.4-1.4-0.6-2.1c-0.1-0.4-0.3-0.9-0.7-1.1
			c0,0,0,0,0,0c0.3,0.4,0.5,0.9,0.6,1.4c-0.2-0.5-0.5-1-0.7-1.4c-0.5-1.2-1.3-2.3-2.1-3.3c-0.3-0.4-0.7-0.9-1.1-1.2
			c-0.5-0.4-1.2-0.8-1.5-1.4c0,0,0,0,0,0c0.1,0.3,0.3,0.5,0.6,0.7c0.5,0.4,1,0.8,1.4,1.3c0.8,1,1.5,2,2.1,3.2c0.5,1.1,1,2.2,1.4,3.3
			c0.1,0.4,0.3,0.8,0.3,1.2c-0.2-0.4-0.4-0.8-0.6-1.2c-0.4-0.7-1-1.4-1.4-2.1c0,0-0.1,0,0,0c0.2,0.5,0.4,1,0.7,1.4
			c0.4,0.6,0.7,1.3,1,1.9c0.2,0.5,0.4,1,0.6,1.5c0,0,0,0.1,0,0.1c0,0.1,0,0.3,0,0.4c-0.1-0.2-0.1-0.3-0.2-0.5
			c-0.1-0.4-0.3-0.8-0.4-1.2c0,0,0,0,0,0c0,0.2,0,0.3,0.1,0.5c0-0.1-0.1-0.1-0.1-0.2c-0.4-0.8-0.8-1.6-1.4-2.4
			c-1.2-1.5-2.7-2.7-4-4.1c0,0,0,0,0,0c1.2,1.3,2.5,2.5,3.5,4c0.6,0.8,0.9,1.6,1.4,2.5c0.2,0.4,0.4,0.8,0.6,1.3
			c0.1,0.1,0.1,0.3,0.2,0.4c-0.1-0.1-0.1-0.2-0.2-0.2c-0.3-0.4-0.5-0.8-0.7-1.3c-0.4-0.8-1-1.5-1.7-2.1c-0.6-0.6-1.4-1.2-2.1-1.7
			c-0.9-0.6-2-1.2-2.5-2.2c0,0,0,0,0,0c0.3,0.8,1,1.3,1.7,1.9c0.7,0.6,1.4,1.3,2.1,1.9c0.8,0.7,1.4,1.5,2,2.4c0.2,0.3,0.4,0.7,0.6,1
			c-0.1,0-0.1-0.1-0.2-0.1c-0.1-0.1-0.1-0.1-0.2-0.2c-0.2-0.2-0.3-0.4-0.5-0.6c-0.4-0.5-0.8-1.1-1.2-1.5c-0.9-0.9-2.1-1.6-3.2-2.3
			c-1.2-0.8-2.3-1.7-3.3-2.8c-0.5-0.6-0.8-1.2-1.2-1.9c-0.2-0.3-0.3-0.7-0.3-1.1c0-0.2-0.1-0.4-0.2-0.7c0,0,0,0,0,0
			c0.2,0.3,0.1,0.7,0.1,1c0,0.3,0.2,0.7,0.3,0.9c0.3,0.6,0.5,1.2,0.9,1.7c0.8,1.1,2,2,3.1,2.8c0.6,0.4,1.3,0.9,1.9,1.3
			c-0.4-0.3-0.8-0.5-1.2-0.7c-0.4-0.2-0.9-0.4-1.3-0.6c-0.3-0.2-0.6-0.4-0.9-0.5c0,0,0,0,0,0c0.4,0.2,0.6,0.4,1,0.7
			c0.3,0.2,0.6,0.4,0.9,0.6c0.6,0.4,1.2,0.9,1.9,1.4c0.6,0.5,1.1,1,1.6,1.5c-0.1,0-0.1-0.1-0.2-0.1c0,0,0,0,0,0c0,0,0,0,0,0
			c-0.2-0.1-0.3-0.2-0.5-0.3c-1.5-1-3-1.9-4.5-2.9c-1.4-1-2.6-2.3-3.3-3.9c-0.7-1.5-1.3-3.1-1.2-4.7c0,0,0,0,0,0
			c-0.3,3.1,1.1,6.3,3.4,8.4c0.6,0.5,1.2,1,1.9,1.5c0.7,0.6,1.4,1.3,2.2,1.8c0.4,0.3,0.7,0.5,1,0.8c0.4,0.3,0.9,0.5,1.3,0.8
			c0.6,0.4,1.1,0.8,1.7,1.2c-0.2,0.4-0.2,0.9,0.1,1.2c0,0,0.1,0.1,0.1,0.1c0,0.1,0,0.1,0.1,0.1c0.1,0,0.1,0,0.2,0
			c0.1,0,0.2,0.1,0.3,0.1c0.1,0,0.2,0,0.3-0.1c0.4-0.2,0.8-1.1,1.1-2.4c0,0,0,0,0,0c0.1-1.7,0.3-3.4-0.1-5.1
			C223.5,133.9,223,133,222.6,132.1z"/>
		<g>
			<path class="st28" d="M210.9,131.9c1.3,4.1,7.1,8.6,8,9.1c1.4,0.7,2.7,1.6,3.6,1.5c0-0.2,0-0.4,0-0.7c0-1.4-6.8-3.4-10.4-9.3
				c-2.5-4.1-1.8-6.7-1.2-7.9C208.9,125.4,209.8,128.5,210.9,131.9z"/>
		</g>
	</g>
	<g>
		<g>
			<g>
				<g>
					<g>
						<path class="st24" d="M233.2,125.1c0,0,2.3,5.3,1,8.2c-1.3,2.9-2.7,6-5.5,7.5c-2.9,1.5-6.1,2.1-6.8,1.7
							c-0.7-0.5-0.5-2.3-0.5-4c0-1.1,1.3-8.2,4.3-11.3C228.7,124,231.6,121.4,233.2,125.1z"/>
						<path class="st25" d="M221.9,142.4c0.7,0.5,4-0.2,6.8-1.7c2.5-1.3,3.8-3.8,5-6.4c-2.1,1.4-4.5,2.8-5.1,1.8
							c-1.1-1.5-2.6-9.7,3.6-12.6c-1.7-1.3-4,0.9-6.5,3.4c-3,3.1-4.3,10.2-4.3,11.3C221.4,140.1,221.1,141.9,221.9,142.4z"/>
						<path class="st26" d="M225.7,127.1c-3,3.1-4.3,10.2-4.3,11.3c0,1.7-0.2,3.5,0.5,4c0.7,0.5,4-0.2,6.8-1.7
							c2.3-1.2,3.6-3.4,4.7-5.8c-2.3,1.7-5.6,3.8-6.4,2.7c-1.2-1.7-3-11.5,5.7-13.5C231,121.9,228.4,124.3,225.7,127.1z"/>
						<path class="st27" d="M225.7,127.1c-3,3.1-4.3,10.2-4.3,11.3c0,1.7-0.2,3.5,0.5,4c0.5,0.3,2.2,0.1,4.1-0.5
							c-1.8-3-4.5-14.7,6.2-18.3C230.5,122.4,228.1,124.6,225.7,127.1z"/>
					</g>
					<g>
						<path class="st28" d="M232.2,133.5c0,0,1.7-0.3,1.6-2.5c-0.1-2.1-0.7-4.2-1.1-5.1C232.4,125,229.1,133.4,232.2,133.5z"/>
					</g>
				</g>
				<g>
					<path class="st27" d="M221.9,142.4c0.1,0.1,0.4,0.1,0.7,0.2c1.4-0.1,3.6-0.7,5.6-1.8c2.3-1.2,3.6-3.5,4.7-5.8
						c0.3-0.5,0.5-1.1,0.8-1.6c1.3-2.9-1-8.2-1-8.2c-0.3-0.6-0.5-1-0.8-1.3c-0.1,0.1-0.2,0.1-0.3,0.2c0.2,0.3,0.4,0.6,0.6,0.9
						c0,0,2.3,5.3,1,8.2c-0.4,0.8-0.7,1.6-1.1,2.4c-1,2.1-2.3,4-4.4,5.1C225.5,141.7,223.2,142.3,221.9,142.4
						C221.9,142.4,221.9,142.4,221.9,142.4z"/>
				</g>
			</g>
		</g>
		<g>
			<path class="st29" d="M230.9,137.6c0.6-0.9,1.2-1.7,1.5-2.7c0,0,0,0,0,0c-0.4,1-1,1.8-1.6,2.7c-0.6,0.9-1.3,1.7-2.2,2.3
				c-0.9,0.7-1.9,1.2-3,1.6c0.5-0.3,1-0.7,1.5-1c0.1-0.1,0.2-0.2,0.3-0.2c0.5-0.4,1.1-1,1.6-1.5c0.3-0.3,0.6-0.7,0.7-1.1
				c0,0,0,0,0,0c-0.2,0.5-0.6,0.9-1,1.2c0.3-0.4,0.7-0.9,1-1.3c0.8-1,1.4-2.1,2-3.3c0.2-0.5,0.4-1,0.6-1.6c0.1-0.6,0.1-1.5,0.6-1.9
				c0,0,0,0,0,0c-0.2,0.2-0.3,0.5-0.4,0.8c-0.2,0.6-0.3,1.2-0.5,1.8c-0.5,1.2-1.1,2.3-1.9,3.3c-0.7,0.9-1.5,1.9-2.3,2.7
				c-0.3,0.3-0.6,0.6-0.9,0.9c0.3-0.3,0.6-0.7,0.8-1.1c0.4-0.7,0.8-1.5,1.2-2.3c0,0,0-0.1,0,0c-0.4,0.4-0.7,0.8-0.9,1.3
				c-0.4,0.6-0.8,1.2-1.3,1.7c-0.3,0.4-0.7,0.8-1.1,1.2c0,0-0.1,0-0.1,0c-0.1,0-0.2,0.1-0.4,0.2c0.1-0.1,0.2-0.3,0.3-0.4
				c0.3-0.3,0.6-0.6,0.9-0.9c0,0,0,0,0,0c-0.1,0.1-0.3,0.2-0.4,0.3c0-0.1,0.1-0.1,0.1-0.2c0.5-0.8,1.1-1.5,1.4-2.3
				c0.8-1.7,1.2-3.6,1.8-5.4c0,0,0,0,0,0c-0.7,1.6-1.1,3.3-1.9,4.9c-0.4,0.9-1,1.6-1.6,2.4c-0.3,0.4-0.5,0.8-0.8,1.1
				c-0.1,0.1-0.2,0.2-0.3,0.3c0-0.1,0.1-0.2,0.1-0.3c0.2-0.4,0.5-0.8,0.8-1.2c0.5-0.8,0.8-1.6,1.1-2.5c0.3-0.9,0.4-1.7,0.5-2.6
				c0.2-1.1,0.1-2.3,0.8-3.2c0,0,0,0,0,0c-0.5,0.7-0.7,1.5-0.9,2.3c-0.2,0.9-0.5,1.9-0.7,2.8c-0.3,1-0.6,2-1.2,2.8
				c-0.2,0.3-0.4,0.7-0.6,1c0-0.1,0-0.1,0-0.2c0-0.1,0-0.1,0.1-0.2c0.1-0.2,0.2-0.4,0.3-0.7c0.3-0.6,0.6-1.2,0.8-1.8
				c0.4-1.3,0.5-2.6,0.6-3.9c0.1-1.4,0.4-2.9,0.9-4.2c0.3-0.7,0.7-1.3,1.2-1.9c0.2-0.3,0.5-0.6,0.8-0.8c0.2-0.1,0.4-0.3,0.5-0.5
				c0,0,0,0,0,0c-0.2,0.3-0.5,0.4-0.8,0.6c-0.3,0.2-0.5,0.5-0.7,0.7c-0.4,0.5-0.8,1-1.1,1.6c-0.6,1.2-0.9,2.7-1.1,4
				c-0.1,0.8-0.2,1.5-0.3,2.3c0-0.5,0.1-0.9,0-1.4c0-0.5-0.1-1-0.1-1.4c0-0.3,0.1-0.7,0-1c0,0,0,0,0,0c0,0.4-0.1,0.8-0.1,1.2
				c-0.1,0.4,0,0.7-0.1,1.1c-0.1,0.8-0.3,1.5-0.4,2.3c-0.1,0.7-0.4,1.4-0.6,2.1c0-0.1,0-0.2,0-0.3c0,0,0,0,0,0c0,0,0,0,0,0
				c0-0.2,0-0.4,0.1-0.6c0.2-1.8,0.3-3.5,0.5-5.3c0.3-1.7,0.9-3.3,2-4.7c1-1.3,2.1-2.5,3.6-3.2c0,0,0,0,0,0
				c-2.9,1.2-5.1,3.9-5.9,6.9c-0.2,0.8-0.3,1.6-0.4,2.4c-0.2,0.9-0.5,1.8-0.6,2.7c-0.1,0.4-0.2,0.9-0.2,1.3c-0.1,0.5-0.1,1-0.1,1.5
				c-0.1,0.7-0.2,1.4-0.2,2.1c-0.5,0-0.8,0.3-1,0.7c0,0,0,0.1-0.1,0.1c-0.1,0-0.1,0.1-0.1,0.2c0,0.1,0,0.1,0,0.2c0,0.1,0,0.2,0,0.3
				c0.1,0.1,0.1,0.2,0.2,0.2c0.3,0.2,1.3,0.2,2.6-0.1c0,0,0,0,0,0c1.6-0.7,3.1-1.3,4.4-2.4C229.7,139.2,230.3,138.4,230.9,137.6z"/>
		</g>
		<g>
			<path class="st28" d="M225.7,127.1c-3,3.1-4.3,10.2-4.3,11.3c0,1.6-0.2,3.2,0.3,3.8c0.2-0.1,0.4-0.2,0.6-0.4
				c1.3-0.7-0.2-7.6,3.4-13.5c2.5-4.1,5.1-4.7,6.5-4.7C230.5,122.4,228.1,124.6,225.7,127.1z"/>
		</g>
	</g>
</g>
</svg>
