<?xml version="1.0" encoding="utf-8"?>
<!-- Generator: Adobe Illustrator 23.0.0, SVG Export Plug-In . SVG Version: 6.00 Build 0)  -->
<svg version="1.1" id="Capa_1" xmlns="http://www.w3.org/2000/svg" xmlns:xlink="http://www.w3.org/1999/xlink" x="0px" y="0px"
	 viewBox="0 0 360 363" style="enable-background:new 0 0 360 363;" xml:space="preserve">
<style type="text/css">
	.st0{fill:#FFD084;}
	.st1{fill:none;stroke:#FFE1C0;stroke-width:0.7573;stroke-miterlimit:10;}
	.st2{fill:#FFD6A4;}
	.st3{fill:none;stroke:#FFE1C0;stroke-width:0.75;stroke-miterlimit:10;}
	.st4{fill:#FFE1C0;}
	.st5{fill:none;stroke:#FFD6A4;stroke-width:0.75;stroke-miterlimit:10;}
	.st6{fill:none;stroke:#FFEFE1;stroke-width:0.7478;stroke-miterlimit:10;}
	.st7{fill:#8F7CE5;}
	.st8{fill:#A6A6DD;}
	.st9{fill:#FFE5CC;}
	.st10{fill:none;stroke:#FFD6A4;stroke-miterlimit:10;}
	.st11{clip-path:url(#SVGID_2_);fill:#FFD8AE;}
	.st12{clip-path:url(#SVGID_4_);fill:#FFD8AE;}
	.st13{stroke:#FFFFFF;stroke-width:15.3643;stroke-linejoin:round;stroke-miterlimit:10;}
	.st14{fill:#FED602;}
	.st15{fill:#FFFFFF;}
	.st16{fill:#CCCCFF;}
	.st17{fill:#3B000B;}
	.st18{opacity:0.9;}
	.st19{opacity:0.8;fill:#FAE9FF;enable-background:new    ;}
	.st20{opacity:0.8;fill:#EBD0F4;enable-background:new    ;}
	.st21{opacity:0.54;}
	.st22{opacity:0.4;fill:#9EA4CC;enable-background:new    ;}
	.st23{opacity:0.1;fill:#3B000B;enable-background:new    ;}
	.st24{opacity:0.85;}
</style>
<g id="fondo">
	<g>
		<g id="Rectángulo_556">
			<rect y="-0.1" class="st0" width="360" height="363.3"/>
			<rect x="0.5" y="0.4" class="st0" width="359" height="362.2"/>
		</g>
		<path class="st1" d="M228.1,258.3c0,0,43.9-35.1,59.7-104.9c15.8-69.8-12.4-91.7-12.4-91.7S254.9,35.3,242,72.3
			c0,0-11.1,37.2-24.4,18.6c0,0-4-5.6-6.5-13c-2.5-7.3-11-10.5-11-10.5s-21.4-7.3-59.4,34.8c0,0-30.9,35.9-25.5,83.1
			s10.5,56.8,10.5,56.8L228.1,258.3z"/>
		<path class="st2" d="M225.9,271.1c0,0,43.1-35.1,58.6-104.9s-12.2-91.7-12.2-91.7s-20.1-26.4-32.8,10.6c0,0-10.9,37.2-23.9,18.6
			c0,0-3.9-5.6-6.4-13c-2.5-7.3-10.8-10.5-10.8-10.5s-21-7.3-58.2,34.8c0,0-30.3,35.9-25,83.1s10.3,56.8,10.3,56.8L225.9,271.1z"/>
		<path class="st3" d="M114.9,245.6c0,0-61.2-54.4-49.7-80.4s30.9-7.5,30.9-7.5s25.7,22.6,47.9,63.9L114.9,245.6z"/>
		<path class="st2" d="M115.8,249.7c0,0-54.1-58.6-42.6-84.6s30.9-7.5,30.9-7.5s25.7,22.6,47.9,63.9L115.8,249.7z"/>
		<path class="st4" d="M206.4,265c0,0,41.3-44.5,60.9-102.7c0,0,11.1-34-2.3-60c0,0-8.2-25.8-29.3,14.8S206.3,129,206.3,129
			s-8.1-59.5-44-15.2s-22.9,140.1-22.9,140.1L206.4,265z"/>
		<path class="st5" d="M191.1,241.3c0,0,54.3-73,68-155.4"/>
		<path class="st6" d="M195.3,266c0,0,33.9-33.6,51.3-78.9c0,0,9.9-26.5,0.3-47.4c0,0-5.5-20.6-23.5,10.6s-23.4,8.4-23.4,8.4
			s-4.3-47.2-33.9-13.5s-22.8,109.6-22.8,109.6L195.3,266z"/>
		<g>
			
				<ellipse transform="matrix(1 -1.876229e-03 1.876229e-03 1 -0.526 0.338)" class="st7" cx="179.9" cy="280.5" rx="102.6" ry="21.4"/>
			<polygon class="st7" points="282.5,280.3 282.7,266.4 77.5,266.8 77.3,280.7 			"/>
			
				<ellipse transform="matrix(1 -1.876229e-03 1.876229e-03 1 -0.4999 0.3384)" class="st8" cx="180.1" cy="266.6" rx="102.6" ry="21.4"/>
		</g>
		<path class="st3" d="M239.7,220.4c0,0,41.8-19.1,39.9,9s-53,30.9-53,30.9s-15.5-0.3-14.5-10.3C213.2,240,218.5,230.9,239.7,220.4z
			"/>
		<path class="st9" d="M229.9,222.9c0,0,37.6-26.4,40.9,1.5c3.2,27.9-46.4,40.1-46.4,40.1S209,267,208.2,257
			C207.3,247,211,237.1,229.9,222.9z"/>
		<path class="st10" d="M208.2,257c0,0,44.4-19.6,65.3-41.4"/>
		<g>
			<g>
				<g>
					<g>
						<g>
							<defs>
								<path id="SVGID_1_" d="M229.9,222.9c0,0,37.6-26.4,40.9,1.5c3.2,27.9-46.4,40.1-46.4,40.1S209,267,208.2,257
									C207.3,247,211,237.1,229.9,222.9z"/>
							</defs>
							<clipPath id="SVGID_2_">
								<use xlink:href="#SVGID_1_"  style="overflow:visible;"/>
							</clipPath>
							<path class="st11" d="M240.9,211.5c0,0-27.3,46.6,4.8,50c21.5,2.3-22.9,11.5-22.9,11.5l-20.3-4.6l-1.3-29l20-22.9
								L240.9,211.5z"/>
						</g>
					</g>
				</g>
			</g>
		</g>
		<g>
			<path class="st9" d="M128.2,225.7c0,0-34.9-21.9-37.3,9.5c0,0,6.5,28.1,39.9,22.4C164.1,251.8,128.2,225.7,128.2,225.7z"/>
		</g>
		<path class="st10" d="M143,248.3c0,0-40.9-21-62.4-13.1"/>
		<g>
			<g>
				<g>
					<g>
						<g>
							<defs>
								<path id="SVGID_3_" d="M128.2,225.7c0,0-34.9-21.9-37.3,9.5c0,0,6.5,28.1,39.9,22.4C164.1,251.8,128.2,225.7,128.2,225.7z"
									/>
							</defs>
							<clipPath id="SVGID_4_">
								<use xlink:href="#SVGID_3_"  style="overflow:visible;"/>
							</clipPath>
							<path class="st12" d="M124.1,218.3h-4h-3.6c0,0,17.6,26,9.4,34.6c-8.2,8.6-9.4,6.7-9.4,6.7l19.6,1.8l15.9-7.2l1.2-14.3
								l-16-11.9L124.1,218.3z"/>
						</g>
					</g>
				</g>
			</g>
		</g>
		<path class="st3" d="M84.5,161.6c0,0,21.6,45.3,54.6,70.4"/>
		<path class="st3" d="M103.9,163.3c0,0-5.4,4-7,10.8"/>
		<path class="st3" d="M108.2,171.4c0,0-5.3,5.3-6,14.2"/>
		<path class="st3" d="M96.9,190.4c0,0-6.3-0.5-14.9,3.7"/>
		<path class="st3" d="M102.2,196.8c0,0-10.9,0.4-15.6,3.7"/>
		<path class="st2" d="M109.5,107.7c0.1,4-3.4,7.8-6.2,10.4c-1-2.4-1.9-5-2-7.6c-0.1-2,0.7-4,2.2-5.3c0.5-0.4,1-0.8,1.7-0.9
			c0.4-0.1,0.7-0.2,1.1-0.2C108,104.3,109.4,105.9,109.5,107.7z"/>
		<path class="st2" d="M81.9,123.8c-3.1,0.3-9-1.1-11.6-3.2c-2.3-1.7-2.3-2.2-3.4-4.9c-1-2.7,0.6-5.9,3.6-6.2
			c1.5-0.2,3.1,0.2,4.3,1.1C79.1,113.4,82.6,118.4,81.9,123.8z"/>
		<path class="st4" d="M105.6,142.4c-1.9,1.1-5-0.2-4.7-2.6c-0.2-2.8,4.1-3.8,5.6-1.6C107.5,139.5,106.9,141.6,105.6,142.4z"/>
		<path class="st4" d="M319.5,85.1c-2.6,1.4-6.6-0.3-6.3-3.5c-0.2-3.8,5.5-5.1,7.4-2.1C322,81.2,321.3,83.9,319.5,85.1z"/>
		<path class="st2" d="M328.9,297.3c-3.1,1.7-7.9-0.3-7.6-4.2c-0.3-4.5,6.6-6.1,8.9-2.5C331.9,292.6,331,295.9,328.9,297.3z"/>
		<path class="st4" d="M286.4,309c-2,1.1-5.2-0.2-5-2.8c-0.2-3,4.3-4,5.8-1.7C288.4,305.9,287.9,308.1,286.4,309z"/>
		<path class="st2" d="M61.9,244.7c-2.6,1.4-6.6-0.3-6.3-3.5c-0.2-3.8,5.5-5.1,7.4-2.1C64.4,240.8,63.7,243.5,61.9,244.7z"/>
		
			<ellipse transform="matrix(0.3506 -0.9365 0.9365 0.3506 -94.3859 226.7597)" class="st9" cx="116.3" cy="181.4" rx="2.7" ry="1.7"/>
		
			<ellipse transform="matrix(0.3506 -0.9365 0.9365 0.3506 -102.8036 234.9936)" class="st9" cx="118" cy="191.6" rx="2.7" ry="1.7"/>
		
			<ellipse transform="matrix(0.3506 -0.9365 0.9365 0.3506 -131.6409 232.946)" class="st0" cx="102.2" cy="211.4" rx="3" ry="1.8"/>
	</g>
</g>
<g>
	<g>
		<path class="st13" d="M220.9,145c0-10.4-6.2-18.8-18.4-18.8c-8.2,0-14.8,7.8-15.3,17.5h-7.9l0.2-20.3l-2.6-0.1l-0.2,20.4h-26.2
			l2.5,103.4c0.2,6.4,4.4,11.5,9.6,11.5h27.9h1.5h0.2c5.1,0,9.3-5,9.5-11.3v-0.2l0,0l2-83.5C214.8,163.6,220.9,154.9,220.9,145z"/>
		<g>
			<g>
				<path class="st14" d="M221.4,145c0,10.4-7.9,18.8-17.6,18.8c-9.7,0-17.6-8.4-17.6-18.8c0-10.4,7.9-18.8,17.6-18.8
					S221.4,134.6,221.4,145z"/>
				<path class="st15" d="M218.5,145c0,8.7-6.6,15.7-14.7,15.7s-14.7-7-14.7-15.7s6.6-15.7,14.7-15.7S218.5,136.3,218.5,145z"/>
				<g>
					<g>
						<g>
							<g>
								<g>
									<g>
										<path class="st14" d="M203.8,131c-2.1,0-2.4,0.2-2.4,0.2c-0.7,0.3-1.2,1.3-0.9,2.1l2.9,8c0.3,0.9,0.7,0.9,0.9,0l2.9-8
											c0.3-0.9-0.2-1.8-0.9-2.1C206.2,131.2,205.8,131,203.8,131z"/>
									</g>
								</g>
							</g>
							<g>
								<g>
									<g>
										<path class="st14" d="M203.8,158.9c2.1,0,2.4-0.2,2.4-0.2c0.7-0.3,1.2-1.3,0.9-2.1l-2.9-8c-0.3-0.9-0.7-0.9-0.9,0l-2.9,8
											c-0.3,0.9,0.2,1.8,0.9,2.1C201.4,158.8,201.8,158.9,203.8,158.9z"/>
									</g>
								</g>
							</g>
						</g>
						<g>
							<g>
								<g>
									<g>
										<path class="st14" d="M216.9,145c0-2.2-0.2-2.6-0.2-2.6c-0.3-0.8-1.2-1.3-2-1l-7.5,3.1c-0.8,0.3-0.8,0.8,0,1l7.5,3.1
											c0.8,0.3,1.7-0.2,2-1C216.8,147.5,216.9,147.1,216.9,145z"/>
									</g>
								</g>
							</g>
							<g>
								<g>
									<g>
										<path class="st14" d="M190.7,145c0,2.2,0.2,2.6,0.2,2.6c0.3,0.8,1.2,1.3,2,1l7.5-3.1c0.8-0.3,0.8-0.7,0-1l-7.5-3.1
											c-0.8-0.3-1.7,0.2-2,1C190.9,142.4,190.7,142.8,190.7,145z"/>
									</g>
								</g>
							</g>
						</g>
					</g>
					<g>
						<g>
							<g>
								<g>
									<g>
										<path class="st14" d="M213,135.1c-1.4-1.5-1.8-1.7-1.8-1.7c-0.7-0.4-1.7,0-2.1,0.8l-3.3,7.8c-0.4,0.8-0.1,1.1,0.7,0.7
											l7.3-3.5c0.7-0.4,1.1-1.4,0.7-2.2C214.6,137,214.5,136.6,213,135.1z"/>
									</g>
								</g>
							</g>
							<g>
								<g>
									<g>
										<path class="st14" d="M194.6,154.8c1.4,1.5,1.8,1.7,1.8,1.7c0.7,0.4,1.7,0,2.1-0.8l3.3-7.8c0.4-0.8,0.1-1.1-0.7-0.7
											l-7.3,3.5c-0.7,0.4-1.1,1.4-0.7,2.2C193,152.9,193.2,153.3,194.6,154.8z"/>
									</g>
								</g>
							</g>
						</g>
						<g>
							<g>
								<g>
									<g>
										<path class="st14" d="M213,154.8c1.4-1.5,1.6-1.9,1.6-1.9c0.4-0.8,0-1.8-0.7-2.2l-7.3-3.5c-0.7-0.4-1-0.1-0.7,0.7l3.3,7.8
											c0.4,0.8,1.3,1.2,2.1,0.8C211.2,156.5,211.6,156.4,213,154.8z"/>
									</g>
								</g>
							</g>
							<g>
								<g>
									<g>
										<path class="st14" d="M194.6,135.1c-1.4,1.5-1.6,1.9-1.6,1.9c-0.4,0.8,0,1.8,0.7,2.2l7.3,3.5c0.7,0.4,1,0.1,0.7-0.7
											l-3.3-7.8c-0.4-0.8-1.3-1.2-2.1-0.8C196.4,133.4,196,133.6,194.6,135.1z"/>
									</g>
								</g>
							</g>
						</g>
					</g>
				</g>
			</g>
			<g>
				<path class="st16" d="M192,258.7h-29.2c-5.2,0-9.5-5.1-9.6-11.5l-2.5-103.4h53.5l-2.5,103.4C201.5,253.6,197.3,258.7,192,258.7z
					"/>
				<g>
					<g>
						<polygon class="st17" points="175.5,239.3 177.1,123.3 179.7,123.4 178.2,239.4 						"/>
					</g>
				</g>
				<g class="st18">
					<path class="st19" d="M155.9,148.5l1.1,79c0.2,12,8.5,21.8,18.4,21.8h4c9.8,0,18.1-9.8,18.4-21.8l1.1-79H155.9z"/>
					<path class="st20" d="M156.6,190.5l0.6,36.9c0.2,12,8.5,21.8,18.4,21.8h4c9.8,0,18.1-9.8,18.4-21.8l0.5-36.9H156.6z"/>
				</g>
				<g>
					<g class="st21">
						<polygon class="st22" points="162,184.7 172.3,167.5 189,178.2 178.6,195.3 						"/>
						<polygon class="st22" points="169.8,207.1 185,194.4 197.4,210.1 182.1,222.8 						"/>
						<polygon class="st22" points="158,230.9 170.6,215.3 185.6,228.3 173.1,243.8 						"/>
					</g>
				</g>
				<path class="st23" d="M193.4,143.7l-2.8,114.9h1.6c5.1,0,9.3-5,9.5-11.3l2.5-103.6L193.4,143.7L193.4,143.7z"/>
			</g>
		</g>
	</g>
	<g class="st24">
		<circle class="st15" cx="164.2" cy="204.2" r="1.1"/>
		<circle class="st15" cx="184.6" cy="204.1" r="1"/>
		<circle class="st15" cx="170.3" cy="212" r="0.5"/>
		<circle class="st15" cx="185.2" cy="221.2" r="0.5"/>
		<circle class="st15" cx="188.9" cy="230.8" r="1.2"/>
		<circle class="st15" cx="165.7" cy="229.2" r="0.4"/>
		<circle class="st15" cx="167.4" cy="242.1" r="1.3"/>
		<circle class="st15" cx="183.8" cy="241.8" r="0.9"/>
		<circle class="st15" cx="194.4" cy="213.3" r="0.8"/>
	</g>
</g>
</svg>
