<?xml version="1.0" encoding="utf-8"?>
<!-- Generator: Adobe Illustrator 23.0.0, SVG Export Plug-In . SVG Version: 6.00 Build 0)  -->
<svg version="1.1" id="Capa_1" xmlns="http://www.w3.org/2000/svg" xmlns:xlink="http://www.w3.org/1999/xlink" x="0px" y="0px"
	 viewBox="0 0 360 363" style="enable-background:new 0 0 360 363;" xml:space="preserve">
<style type="text/css">
	.st0{fill:#FFD084;}
	.st1{fill:none;stroke:#FFE1C0;stroke-width:0.7573;stroke-miterlimit:10;}
	.st2{fill:#FFD6A4;}
	.st3{fill:none;stroke:#FFE1C0;stroke-width:0.75;stroke-miterlimit:10;}
	.st4{fill:#FFE1C0;}
	.st5{fill:none;stroke:#FFD6A4;stroke-width:0.75;stroke-miterlimit:10;}
	.st6{fill:none;stroke:#FFEFE1;stroke-width:0.7478;stroke-miterlimit:10;}
	.st7{fill:#8F7CE5;}
	.st8{fill:#A6A6DD;}
	.st9{fill:#FFE5CC;}
	.st10{fill:none;stroke:#FFD6A4;stroke-miterlimit:10;}
	.st11{clip-path:url(#SVGID_2_);fill:#FFD8AE;}
	.st12{clip-path:url(#SVGID_4_);fill:#FFD8AE;}
	.st13{fill:none;stroke:#FFFFFF;stroke-width:12.2154;stroke-linecap:round;stroke-linejoin:round;stroke-miterlimit:10;}
	.st14{fill:#B8B8F2;}
	.st15{fill:#E9E9FF;}
	.st16{fill:#CCCCFF;}
	.st17{fill:#3D9EC1;}
	.st18{fill:#78C9E9;}
	.st19{fill:#914E20;}
	.st20{fill:#E2CFAA;}
	.st21{fill:#4AA541;}
	.st22{fill:#3B8E32;}
</style>
<g id="fondo">
	<g>
		<g id="Rectángulo_556">
			<rect y="-0.1" class="st0" width="360" height="363.3"/>
			<rect x="0.5" y="0.4" class="st0" width="359" height="362.2"/>
		</g>
		<path class="st1" d="M228.1,258.3c0,0,43.9-35.1,59.7-104.9c15.8-69.8-12.4-91.7-12.4-91.7S254.9,35.3,242,72.3
			c0,0-11.1,37.2-24.4,18.6c0,0-4-5.6-6.5-13c-2.5-7.3-11-10.5-11-10.5s-21.4-7.3-59.4,34.8c0,0-30.9,35.9-25.5,83.1
			s10.5,56.8,10.5,56.8L228.1,258.3z"/>
		<path class="st2" d="M225.9,271.1c0,0,43.1-35.1,58.6-104.9s-12.2-91.7-12.2-91.7s-20.1-26.4-32.8,10.6c0,0-10.9,37.2-23.9,18.6
			c0,0-3.9-5.6-6.4-13c-2.5-7.3-10.8-10.5-10.8-10.5s-21-7.3-58.2,34.8c0,0-30.3,35.9-25,83.1s10.3,56.8,10.3,56.8L225.9,271.1z"/>
		<path class="st3" d="M114.9,245.6c0,0-61.2-54.4-49.7-80.4s30.9-7.5,30.9-7.5s25.7,22.6,47.9,63.9L114.9,245.6z"/>
		<path class="st2" d="M115.8,249.7c0,0-54.1-58.6-42.6-84.6s30.9-7.5,30.9-7.5s25.7,22.6,47.9,63.9L115.8,249.7z"/>
		<path class="st4" d="M206.4,265c0,0,41.3-44.5,60.9-102.7c0,0,11.1-34-2.3-60c0,0-8.2-25.8-29.3,14.8S206.3,129,206.3,129
			s-8.1-59.5-44-15.2s-22.9,140.1-22.9,140.1L206.4,265z"/>
		<path class="st5" d="M191.1,241.3c0,0,54.3-73,68-155.4"/>
		<path class="st6" d="M195.3,266c0,0,33.9-33.6,51.3-78.9c0,0,9.9-26.5,0.3-47.4c0,0-5.5-20.6-23.5,10.6s-23.4,8.4-23.4,8.4
			s-4.3-47.2-33.9-13.5s-22.8,109.6-22.8,109.6L195.3,266z"/>
		<g>
			
				<ellipse transform="matrix(1 -1.876236e-03 1.876236e-03 1 -0.526 0.338)" class="st7" cx="179.9" cy="280.5" rx="102.6" ry="21.4"/>
			<polygon class="st7" points="282.5,280.3 282.7,266.4 77.5,266.8 77.3,280.7 			"/>
			
				<ellipse transform="matrix(1 -1.876236e-03 1.876236e-03 1 -0.4999 0.3384)" class="st8" cx="180.1" cy="266.6" rx="102.6" ry="21.4"/>
		</g>
		<path class="st3" d="M239.7,220.4c0,0,41.8-19.1,39.9,9s-53,30.9-53,30.9s-15.5-0.3-14.5-10.3C213.2,240,218.5,230.9,239.7,220.4z
			"/>
		<path class="st9" d="M229.9,222.9c0,0,37.6-26.4,40.9,1.5c3.2,27.9-46.4,40.1-46.4,40.1S209,267,208.2,257
			C207.3,247,211,237.1,229.9,222.9z"/>
		<path class="st10" d="M208.2,257c0,0,44.4-19.6,65.3-41.4"/>
		<g>
			<g>
				<g>
					<g>
						<defs>
							<path id="SVGID_1_" d="M229.9,222.9c0,0,37.6-26.4,40.9,1.5c3.2,27.9-46.4,40.1-46.4,40.1S209,267,208.2,257
								C207.3,247,211,237.1,229.9,222.9z"/>
						</defs>
						<clipPath id="SVGID_2_">
							<use xlink:href="#SVGID_1_"  style="overflow:visible;"/>
						</clipPath>
						<path class="st11" d="M240.9,211.5c0,0-27.3,46.6,4.8,50c21.5,2.3-22.9,11.5-22.9,11.5l-20.3-4.6l-1.3-29l20-22.9L240.9,211.5
							z"/>
					</g>
				</g>
			</g>
		</g>
		<g>
			<path class="st9" d="M128.2,225.7c0,0-34.9-21.9-37.3,9.5c0,0,6.5,28.1,39.9,22.4C164.1,251.8,128.2,225.7,128.2,225.7z"/>
		</g>
		<path class="st10" d="M143,248.3c0,0-40.9-21-62.4-13.1"/>
		<g>
			<g>
				<g>
					<g>
						<defs>
							<path id="SVGID_3_" d="M128.2,225.7c0,0-34.9-21.9-37.3,9.5c0,0,6.5,28.1,39.9,22.4C164.1,251.8,128.2,225.7,128.2,225.7z"/>
						</defs>
						<clipPath id="SVGID_4_">
							<use xlink:href="#SVGID_3_"  style="overflow:visible;"/>
						</clipPath>
						<path class="st12" d="M124.1,218.3h-4h-3.6c0,0,17.6,26,9.4,34.6c-8.2,8.6-9.4,6.7-9.4,6.7l19.6,1.8l15.9-7.2l1.2-14.3
							l-16-11.9L124.1,218.3z"/>
					</g>
				</g>
			</g>
		</g>
		<path class="st3" d="M84.5,161.6c0,0,21.6,45.3,54.6,70.4"/>
		<path class="st3" d="M103.9,163.3c0,0-5.4,4-7,10.8"/>
		<path class="st3" d="M108.2,171.4c0,0-5.3,5.3-6,14.2"/>
		<path class="st3" d="M96.9,190.4c0,0-6.3-0.5-14.9,3.7"/>
		<path class="st3" d="M102.2,196.8c0,0-10.9,0.4-15.6,3.7"/>
		<path class="st2" d="M109.5,107.7c0.1,4-3.4,7.8-6.2,10.4c-1-2.4-1.9-5-2-7.6c-0.1-2,0.7-4,2.2-5.3c0.5-0.4,1-0.8,1.7-0.9
			c0.4-0.1,0.7-0.2,1.1-0.2C108,104.3,109.4,105.9,109.5,107.7z"/>
		<path class="st2" d="M81.9,123.8c-3.1,0.3-9-1.1-11.6-3.2c-2.3-1.7-2.3-2.2-3.4-4.9c-1-2.7,0.6-5.9,3.6-6.2
			c1.5-0.2,3.1,0.2,4.3,1.1C79.1,113.4,82.6,118.4,81.9,123.8z"/>
		<path class="st4" d="M105.6,142.4c-1.9,1.1-5-0.2-4.7-2.6c-0.2-2.8,4.1-3.8,5.6-1.6C107.5,139.5,106.9,141.6,105.6,142.4z"/>
		<path class="st4" d="M319.5,85.1c-2.6,1.4-6.6-0.3-6.3-3.5c-0.2-3.8,5.5-5.1,7.4-2.1C322,81.2,321.3,83.9,319.5,85.1z"/>
		<path class="st2" d="M328.9,297.3c-3.1,1.7-7.9-0.3-7.6-4.2c-0.3-4.5,6.6-6.1,8.9-2.5C331.9,292.6,331,295.9,328.9,297.3z"/>
		<path class="st4" d="M286.4,309c-2,1.1-5.2-0.2-5-2.8c-0.2-3,4.3-4,5.8-1.7C288.4,305.9,287.9,308.1,286.4,309z"/>
		<path class="st2" d="M61.9,244.7c-2.6,1.4-6.6-0.3-6.3-3.5c-0.2-3.8,5.5-5.1,7.4-2.1C64.4,240.8,63.7,243.5,61.9,244.7z"/>
		
			<ellipse transform="matrix(0.3506 -0.9365 0.9365 0.3506 -94.4314 226.7204)" class="st9" cx="116.3" cy="181.5" rx="2.7" ry="1.7"/>
		
			<ellipse transform="matrix(0.3506 -0.9365 0.9365 0.3506 -102.7927 235.0518)" class="st9" cx="118.1" cy="191.6" rx="2.7" ry="1.7"/>
		
			<ellipse transform="matrix(0.3506 -0.9365 0.9365 0.3506 -131.656 232.9896)" class="st0" cx="102.2" cy="211.4" rx="3" ry="1.8"/>
	</g>
</g>
<g>
	<path class="st13" d="M186.1,245.2v-5.7V231c13-4.6,23.1-31,23.4-63.2h-52.9h-2C155,200,165,226.4,178.1,231v8.6v5.7
		c-8.5,1.2-15.2,5.8-16.8,7.1c0,0,0,0,0,0c-0.1,0.1-0.2,0.2-0.3,0.2c0,0,0,0,0,0c0,0-0.1,0.1-0.1,0.1s0,0,0.1,0c0,0-0.1,0.1-0.1,0.1
		s9.5,3.6,21.3,3.6c11.7,0,21.3-3.6,21.3-3.6s0,0-0.1-0.1c0,0,0.1,0,0.1,0S195.9,246.6,186.1,245.2z"/>
	<g>
		<path class="st14" d="M178.1,227.4v20.9c0,4.4,1.8,7.9,4,7.9c2.2,0,4-3.5,4-7.9v-20.9H178.1z"/>
		<path class="st15" d="M181.5,238.9c-0.9,0-1.7-0.9-1.7-2v-2c0-1.1,0.7-2,1.7-2l0,0c0.9,0,1.7,0.9,1.7,2v2
			C183.2,238,182.4,238.9,181.5,238.9L181.5,238.9z"/>
		<path class="st14" d="M186,250.5c0.1-0.7,0.2-1.4,0.2-2.2v-8.8c-1.3-0.2-2.6-0.3-4-0.3c-1.4,0-2.7,0.1-4,0.3v8.8
			c0,0.8,0.1,1.5,0.2,2.2c1.2,0,2.5,0.1,3.9,0.1C183.4,250.6,184.7,250.6,186,250.5z"/>
		<path class="st15" d="M179.3,248.4v-20.9h6.9v-0.1h-8v20.9c0,4.4,1.8,7.9,4,7.9c0.2,0,0.3,0,0.5-0.1
			C180.7,255.5,179.3,252.3,179.3,248.4z"/>
		<path class="st16" d="M203.4,252.6c0,0-9.5,3.6-21.3,3.6c-11.7,0-21.3-3.6-21.3-3.6s9.5-7.7,21.3-7.7
			C193.8,244.9,203.4,252.6,203.4,252.6z"/>
		<path class="st14" d="M182.1,253.2c-7.7,0-14.4-1.6-18.2-2.6c-2,1.2-3.1,2.1-3.1,2.1s9.5,3.6,21.3,3.6c11.7,0,21.3-3.6,21.3-3.6
			s-1.1-0.9-3.1-2.1C196.5,251.7,189.8,253.2,182.1,253.2z"/>
		<path class="st15" d="M186.1,255.7c-11.7,0-21.3-3.6-21.3-3.6s6.7-5.4,15.7-7.1c-11,0.6-19.7,7.6-19.7,7.6s9.5,3.6,21.3,3.6
			c3.5,0,6.8-0.3,9.8-0.8C190,255.6,188.1,255.7,186.1,255.7z"/>
		<path class="st17" d="M160.3,172.7c0.3,30,10,54.2,21.8,54.2c11.9,0,21.6-24.1,21.8-54.2H160.3z"/>
		<path class="st18" d="M162,172.7c0.3,30,9.1,54.2,20.1,54.2c10.9,0,19.8-24.1,20.1-54.2H162z"/>
		<path class="st19" d="M157.9,178.8c3.5,27.9,13.1,48,24.3,48c11.2,0,20.8-20,24.3-48H157.9z"/>
		<path class="st20" d="M159.4,184.9c3.3,24.4,12.2,41.9,22.7,41.9c10.5,0,19.4-17.5,22.7-41.9H159.4z"/>
		<path class="st21" d="M161.5,195.1c3,18.5,11.1,31.8,20.6,31.8c9.5,0,17.6-13.3,20.6-31.8H161.5z"/>
		<path class="st22" d="M182.1,215.2c-6.9,0-13.9-7.2-19.7-20.2c3.5,18.8,11,31.8,19.7,31.8c8.7,0,16.2-13,19.7-31.8
			C196,208,189,215.2,182.1,215.2z"/>
		<path class="st16" d="M154.7,167.8c0.4,35.5,12.5,63.9,27.4,63.9c14.9,0,27.1-28.5,27.4-63.9H154.7z M182.1,226.8
			c-11.9,0-21.6-24.1-21.8-54.2h43.7C203.7,202.7,194,226.8,182.1,226.8z"/>
		<g>
			<path class="st15" d="M156.7,167.8h-2c0.4,35.5,12.5,63.9,27.4,63.9c0.3,0,0.7,0,1,0C168.6,230.4,157,202.4,156.7,167.8z"/>
		</g>
	</g>
</g>
</svg>
