<?xml version="1.0" encoding="utf-8"?>
<!-- Generator: Adobe Illustrator 23.0.0, SVG Export Plug-In . SVG Version: 6.00 Build 0)  -->
<svg version="1.1" id="Capa_1" xmlns="http://www.w3.org/2000/svg" xmlns:xlink="http://www.w3.org/1999/xlink" x="0px" y="0px"
	 viewBox="0 0 360 363" style="enable-background:new 0 0 360 363;" xml:space="preserve">
<style type="text/css">
	.st0{fill:#FFD084;}
	.st1{fill:none;stroke:#FFE1C0;stroke-width:0.7573;stroke-miterlimit:10;}
	.st2{fill:#FFD6A4;}
	.st3{fill:none;stroke:#FFE1C0;stroke-width:0.75;stroke-miterlimit:10;}
	.st4{fill:#FFE1C0;}
	.st5{fill:none;stroke:#FFD6A4;stroke-width:0.75;stroke-miterlimit:10;}
	.st6{fill:none;stroke:#FFEFE1;stroke-width:0.7478;stroke-miterlimit:10;}
	.st7{fill:#8F7CE5;}
	.st8{fill:#A6A6DD;}
	.st9{fill:#FFE5CC;}
	.st10{fill:none;stroke:#FFD6A4;stroke-miterlimit:10;}
	.st11{clip-path:url(#SVGID_2_);fill:#FFD8AE;}
	.st12{clip-path:url(#SVGID_4_);fill:#FFD8AE;}
	.st13{fill:#EBEBFC;stroke:#FFFFFF;stroke-width:17.8589;stroke-linejoin:round;stroke-miterlimit:10;}
	.st14{fill:#FFFFFF;stroke:#FFFFFF;stroke-width:15;stroke-linejoin:round;stroke-miterlimit:10;}
	.st15{opacity:0.81;}
	.st16{fill:url(#SVGID_5_);}
	.st17{opacity:0.7;fill:url(#SVGID_6_);}
	.st18{filter:url(#Adobe_OpacityMaskFilter);}
	.st19{opacity:0.85;mask:url(#SVGID_7_);fill:#FFE566;}
	.st20{fill:#FFE252;}
	.st21{fill:#D88E09;}
	.st22{opacity:0.7;}
	.st23{fill:#FFA357;}
	.st24{filter:url(#Adobe_OpacityMaskFilter_1_);}
	.st25{fill:#FFFFFF;}
	.st26{opacity:0.6;mask:url(#SVGID_8_);}
	.st27{fill:#F67A25;}
	.st28{fill:url(#SVGID_9_);}
	.st29{fill:#3D9EC1;}
	.st30{fill:#78C9E9;}
	.st31{fill:#FFCC2C;}
	.st32{fill:#F9E491;}
	.st33{fill:#F2D86B;}
	.st34{fill:#F2C65A;}
	.st35{fill:#F4A721;}
	.st36{opacity:0.4;fill:#C5D1EF;enable-background:new    ;}
	.st37{fill:#CCCCFF;}
	.st38{fill:#C2C2F9;}
</style>
<g id="fondo">
	<g id="Rectángulo_556">
		<rect y="-0.1" class="st0" width="360" height="363.3"/>
		<rect x="0.5" y="0.4" class="st0" width="359" height="362.2"/>
	</g>
	<path class="st1" d="M228.1,263.3c0,0,44-35.1,59.7-104.9c15.8-69.8-12.4-91.7-12.4-91.7S254.9,40.3,242,77.3
		c0,0-11.1,37.2-24.4,18.6c0,0-4-5.6-6.5-13s-11-10.5-11-10.5s-21.4-7.3-59.4,34.8c0,0-30.9,35.9-25.5,83.1s10.5,56.8,10.5,56.8
		L228.1,263.3z"/>
	<path class="st2" d="M225.9,276.1c0,0,43.1-35.1,58.6-104.9s-12.2-91.7-12.2-91.7s-20.1-26.4-32.8,10.6c0,0-10.9,37.2-23.9,18.6
		c0,0-3.9-5.6-6.4-13s-10.8-10.5-10.8-10.5s-21-7.3-58.2,34.8c0,0-30.3,35.9-25,83.1s10.3,56.8,10.3,56.8L225.9,276.1z"/>
	<path class="st3" d="M114.9,250.6c0,0-61.2-54.4-49.7-80.4s30.9-7.5,30.9-7.5s25.7,22.6,47.9,63.9L114.9,250.6z"/>
	<path class="st2" d="M115.8,254.7c0,0-54.1-58.6-42.6-84.6s30.9-7.5,30.9-7.5s25.7,22.6,47.9,63.9L115.8,254.7z"/>
	<path class="st4" d="M206.4,270c0,0,41.3-44.5,60.9-102.8c0,0,11.1-34-2.3-60c0,0-8.2-25.8-29.3,14.8s-29.4,11.9-29.4,11.9
		s-8.1-59.5-44-15.2s-22.9,140.1-22.9,140.1L206.4,270z"/>
	<path class="st5" d="M191.1,246.3c0,0,54.4-73,68-155.4"/>
	<path class="st6" d="M195.3,271c0,0,33.9-33.6,51.3-78.9c0,0,9.9-26.4,0.3-47.4c0,0-5.5-20.6-23.5,10.6s-23.4,8.4-23.4,8.4
		s-4.3-47.2-33.9-13.5s-22.8,109.6-22.8,109.6L195.3,271z"/>
	<g>
		
			<ellipse transform="matrix(1 -1.876243e-03 1.876243e-03 1 -0.5354 0.338)" class="st7" cx="179.9" cy="285.5" rx="102.6" ry="21.4"/>
		<polygon class="st7" points="282.5,285.3 282.7,271.4 77.5,271.8 77.3,285.7 		"/>
		
			<ellipse transform="matrix(1 -1.876243e-03 1.876243e-03 1 -0.5093 0.3384)" class="st8" cx="180.1" cy="271.6" rx="102.6" ry="21.4"/>
	</g>
	<path class="st3" d="M239.7,225.4c0,0,41.8-19.1,39.9,8.9s-53,30.9-53,30.9s-15.5-0.3-14.5-10.3C213.1,245,218.5,235.9,239.7,225.4
		z"/>
	<path class="st9" d="M229.9,227.9c0,0,37.6-26.4,40.9,1.5c3.2,27.9-46.4,40.1-46.4,40.1S209,272,208.2,262
		C207.3,252,211,242.1,229.9,227.9z"/>
	<path class="st10" d="M208.2,262c0,0,44.4-19.6,65.3-41.4"/>
	<g>
		<g>
			<g>
				<defs>
					<path id="SVGID_1_" d="M229.9,227.9c0,0,37.6-26.4,40.9,1.5c3.2,27.9-46.4,40.1-46.4,40.1S209,272,208.2,262
						C207.3,252,211,242.1,229.9,227.9z"/>
				</defs>
				<clipPath id="SVGID_2_">
					<use xlink:href="#SVGID_1_"  style="overflow:visible;"/>
				</clipPath>
				<path class="st11" d="M240.9,216.5c0,0-27.3,46.6,4.8,50c21.5,2.3-22.9,11.5-22.9,11.5l-20.3-4.6l-1.3-29.1l20-22.9L240.9,216.5
					z"/>
			</g>
		</g>
	</g>
	<g>
		<path class="st9" d="M128.2,230.7c0,0-34.9-21.9-37.3,9.5c0,0,6.5,28.1,39.9,22.4S128.2,230.7,128.2,230.7z"/>
	</g>
	<path class="st10" d="M143,253.3c0,0-40.9-21-62.4-13.1"/>
	<g>
		<g>
			<g>
				<defs>
					<path id="SVGID_3_" d="M128.2,230.7c0,0-34.9-21.9-37.3,9.5c0,0,6.5,28.1,39.9,22.4S128.2,230.7,128.2,230.7z"/>
				</defs>
				<clipPath id="SVGID_4_">
					<use xlink:href="#SVGID_3_"  style="overflow:visible;"/>
				</clipPath>
				<path class="st12" d="M124.1,223.3h-4h-3.6c0,0,17.6,26,9.4,34.6c-8.3,8.6-9.4,6.7-9.4,6.7l19.6,1.8l15.9-7.2l1.2-14.3l-16-11.9
					L124.1,223.3z"/>
			</g>
		</g>
	</g>
	<path class="st3" d="M84.5,166.6c0,0,21.6,45.3,54.6,70.4"/>
	<path class="st3" d="M103.9,168.3c0,0-5.4,4-7,10.8"/>
	<path class="st3" d="M108.2,176.4c0,0-5.3,5.3-6,14.2"/>
	<path class="st3" d="M96.9,195.4c0,0-6.3-0.5-14.9,3.6"/>
	<path class="st3" d="M102.2,201.8c0,0-10.9,0.4-15.6,3.7"/>
	<path class="st2" d="M109.5,112.7c0.1,4-3.4,7.8-6.2,10.4c-1-2.4-1.9-5-2-7.6c-0.1-2,0.7-4,2.2-5.3c0.5-0.4,1-0.8,1.7-0.9
		c0.4-0.1,0.7-0.2,1.1-0.2C108,109.3,109.4,110.9,109.5,112.7z"/>
	<path class="st2" d="M81.9,128.8c-3.1,0.3-9-1.1-11.6-3.3c-2.3-1.7-2.3-2.2-3.4-4.9c-1-2.7,0.6-5.9,3.6-6.2
		c1.5-0.2,3.1,0.2,4.3,1.1C79.1,118.4,82.6,123.4,81.9,128.8z"/>
	<path class="st4" d="M105.6,147.4c-1.9,1.1-5-0.2-4.7-2.6c-0.2-2.8,4.1-3.8,5.6-1.6C107.5,144.5,106.9,146.6,105.6,147.4z"/>
	<path class="st4" d="M319.5,90.1c-2.6,1.4-6.6-0.3-6.3-3.5c-0.2-3.8,5.5-5.1,7.4-2.1C322,86.2,321.3,88.9,319.5,90.1z"/>
	<path class="st2" d="M328.9,302.3c-3.1,1.7-7.9-0.3-7.6-4.2c-0.3-4.5,6.6-6.1,8.9-2.5C331.9,297.6,331,300.9,328.9,302.3z"/>
	<path class="st4" d="M286.4,314c-2,1.1-5.2-0.2-5-2.8c-0.2-3,4.3-4,5.8-1.7C288.4,311,287.9,313.1,286.4,314z"/>
	<path class="st2" d="M61.9,249.7c-2.6,1.4-6.6-0.3-6.3-3.5c-0.2-3.8,5.5-5.1,7.4-2.1C64.4,245.8,63.7,248.5,61.9,249.7z"/>
	
		<ellipse transform="matrix(0.3506 -0.9365 0.9365 0.3506 -99.1709 230.0267)" class="st9" cx="116.3" cy="186.5" rx="2.7" ry="1.7"/>
	
		<ellipse transform="matrix(0.3506 -0.9365 0.9365 0.3506 -107.5766 238.2056)" class="st9" cx="118" cy="196.7" rx="2.7" ry="1.7"/>
	
		<ellipse transform="matrix(0.3506 -0.9365 0.9365 0.3506 -136.4825 236.2645)" class="st0" cx="102.1" cy="216.5" rx="3" ry="1.8"/>
</g>
<path class="st13" d="M206,146.6l4.7-21.2l-4.5-0.8l-4.9,22h-49.2h-3v111.3c0,5.2,4.2,9.3,9.3,9.3h3h39.9c5.1,0,9.3-4.2,9.3-9.3
	V146.6H206z M196.9,260h-33.8c-4.1,0-7.4-3.7-7.4-8.2v-98.1h44.1l-12.5,56.7c-0.2,1.2,0.6,2.4,1.8,2.6c1.2,0.2,2.4-0.6,2.6-1.8
	l12.5-56.8v97.3C204.2,256.4,200.9,260,196.9,260z"/>
<path class="st14" d="M167.6,137.2c-0.2-0.7-0.5-1.5-1.3-2.1c0,0-0.1-0.1-0.1-0.1c0,0,0,0.1,0.1,0.1c-0.1,0-0.1-0.1-0.1-0.1
	c0,0,0,0,0,0c-3.5-3-7.3-4.4-11.4-4.6c-4-0.2-8,0.8-11,2.8c-3.1,2.1-6.1,4.8-8.1,8c-0.2,0.3-0.4,0.7-0.7,1.1
	c-0.1,0.1-0.1,0.3-0.2,0.4c-0.3,0.5-0.5,0.9-0.7,1.4c-2.6,5.9-2.4,12.1,1.9,18.2c0.3,0.5,0.7,0.9,1,1.4c0,0,0,0,0,0
	c0.1,0.1,0.1,0.1,0.2,0.2c0,0-0.1-0.1-0.1-0.1c0,0,0.1,0.1,0.1,0.1c0.1,0.1,0.2,0.2,0.3,0.3c0,0,0.1,0.1,0.1,0.1
	c0.2,0.2,0.3,0.3,0.5,0.4c0,0,0,0,0,0c0,0,0,0,0,0c0.1,0.1,0.2,0.1,0.3,0.2c1.4,0.7,2.9,0.4,4.4-0.6c0.2-0.1,0.4-0.3,0.7-0.5l0,0
	c1.2-0.9,2.2-2.2,3.2-3.2c1.1-1.2,2.1-2.5,2.6-4.1l0,0c0.1-0.3,0.1-0.5,0.2-0.8c0-0.1,0-0.3,0.1-0.4c0-0.1,0-0.3,0-0.4
	c0-0.1,0-0.1,0-0.2c0,0,0.1-0.1,0.1-0.1c0-0.1,0-0.2,0-0.3l0,0c0-0.2,0.1-0.3,0.1-0.5l0,0c0.1-0.3,0.1-0.5,0.2-0.8l0,0
	c0-0.1,0.1-0.2,0.1-0.3c0.1-0.2,0.2-0.4,0.3-0.7l0,0c0-0.1,0.1-0.1,0.1-0.2c0.1-0.2,0.2-0.4,0.3-0.6c0,0,0-0.1,0.1-0.1
	c0.1-0.2,0.2-0.3,0.3-0.5c0,0,0,0,0,0c0.2-0.2,0.4-0.5,0.6-0.7l0,0c0.1-0.1,0.2-0.2,0.3-0.3c0.1-0.1,0.2-0.2,0.3-0.3l0,0
	c0.6-0.6,1.2-1,1.9-1.3c0,0,0,0,0,0c0.2-0.1,0.4-0.2,0.5-0.2c0,0,0.1,0,0.1,0c0.2-0.1,0.4-0.1,0.6-0.2c0,0,0.1-0.1,0.1-0.1
	c0.1,0,0.2,0,0.3-0.1c0.1,0,0.2,0,0.3,0c0.2,0,0.4-0.1,0.7-0.1c0,0,0,0,0.1,0c0.1,0,0.1,0,0.2,0c0.1,0,0.2,0,0.3,0
	c0.4,0,0.7-0.1,1.1-0.2l0,0c1.7-0.4,3.2-1.4,4.4-2.6c1.2-1.1,2.7-2.3,3.6-3.7c0,0,0.1-0.1,0.1-0.1
	C167.5,139.6,167.9,138.3,167.6,137.2z"/>
<g>
	<g>
		<g class="st15">
			
				<linearGradient id="SVGID_5_" gradientUnits="userSpaceOnUse" x1="436.2504" y1="-192.1115" x2="436.0772" y2="-170.1982" gradientTransform="matrix(0.7144 -0.6997 -0.6997 -0.7144 -291.2281 320.5155)">
				<stop  offset="0" style="stop-color:#FE830F"/>
				<stop  offset="0.5269" style="stop-color:#FFB91E"/>
				<stop  offset="1" style="stop-color:#FEB212"/>
			</linearGradient>
			<path class="st16" d="M166.1,134.9c-9.9-7-19.9-5.5-26.5,1.6c-0.1,0.1-0.2,0.2-0.2,0.3c-0.1,0.1-0.2,0.1-0.3,0.2
				c-2.1,1.9-3.9,4.3-5.1,7c-2.8,6.3-2.3,13,2.9,19.5c0.5,0.6,0.9,1,1.4,1.2c1.4,0.7,2.9,0.4,4.4-0.6c0.2-0.1,0.4-0.3,0.7-0.5l0,0
				c1.2-0.9,2.2-2.2,3.2-3.2c1.1-1.2,2.1-2.5,2.6-4.1l0,0c0.1-0.3,0.1-0.5,0.2-0.8c0-0.1,0-0.3,0.1-0.4c0-0.1,0-0.3,0-0.4
				c0-0.1,0-0.2,0-0.3l0,0c0-0.2,0-0.3,0.1-0.5c0-0.1,0-0.2,0-0.3l0,0c0-0.2,0.1-0.3,0.1-0.5l0,0c0.1-0.2,0.1-0.5,0.2-0.7l0,0
				c0-0.1,0.1-0.2,0.1-0.3c0.1-0.2,0.2-0.4,0.3-0.6l0,0c0-0.1,0.1-0.1,0.1-0.2c0.1-0.2,0.2-0.3,0.3-0.5c0,0,0-0.1,0-0.1
				c0.1-0.2,0.2-0.3,0.3-0.4c0,0,0,0,0,0c0.2-0.2,0.3-0.4,0.5-0.6l0,0c0.1-0.1,0.2-0.2,0.3-0.3c0.1-0.1,0.2-0.2,0.3-0.3l0,0
				c0.6-0.5,1.1-0.9,1.8-1.2c0,0,0,0,0,0c0.2-0.1,0.3-0.2,0.5-0.2c0,0,0.1,0,0.1,0c0.2-0.1,0.3-0.1,0.5-0.2c0,0,0,0,0.1,0
				c0.1,0,0.1,0,0.2,0l0,0c0.2-0.1,0.4-0.1,0.6-0.1c0.1,0,0.2,0,0.3,0c0.2,0,0.4-0.1,0.7-0.1c0,0,0,0,0.1,0c0.1,0,0.1,0,0.2,0
				c0.1,0,0.2,0,0.3,0c0.4,0,0.7-0.1,1.1-0.2l0,0c1.7-0.4,3.2-1.4,4.4-2.6c1.2-1.1,2.7-2.3,3.6-3.7c0,0,0.1-0.1,0.1-0.1
				c0.8-1.2,1.2-2.5,0.9-3.6C167.5,136.4,167,135.5,166.1,134.9z"/>
			
				<radialGradient id="SVGID_6_" cx="436.2749" cy="-186.0466" r="18.6055" gradientTransform="matrix(0.7144 -0.6997 -0.4277 -0.4367 -240.6271 372.1836)" gradientUnits="userSpaceOnUse">
				<stop  offset="0" style="stop-color:#FE6C0F"/>
				<stop  offset="0.3711" style="stop-color:#FE740F;stop-opacity:0.6289"/>
				<stop  offset="0.9418" style="stop-color:#FE890F;stop-opacity:5.822200e-02"/>
				<stop  offset="1" style="stop-color:#FE8C0F;stop-opacity:0"/>
			</radialGradient>
			<path class="st17" d="M166.1,134.9c-9.9-7-19.9-5.5-26.5,1.6c-0.1,0.1-0.2,0.2-0.2,0.3c-0.1,0.1-0.2,0.1-0.3,0.2
				c-2.1,1.9-3.9,4.3-5.1,7c-2.8,6.3-2.3,13,2.9,19.5c0.5,0.6,0.9,1,1.4,1.2c1.4,0.7,2.9,0.4,4.4-0.6c0.2-0.1,0.4-0.3,0.7-0.5l0,0
				c1.2-0.9,2.2-2.2,3.2-3.2c1.1-1.2,2.1-2.5,2.6-4.1l0,0c0.1-0.3,0.1-0.5,0.2-0.8c0-0.1,0-0.3,0.1-0.4c0-0.1,0-0.3,0-0.4
				c0-0.1,0-0.2,0-0.3l0,0c0-0.2,0-0.3,0.1-0.5c0-0.1,0-0.2,0-0.3l0,0c0-0.2,0.1-0.3,0.1-0.5l0,0c0.1-0.2,0.1-0.5,0.2-0.7l0,0
				c0-0.1,0.1-0.2,0.1-0.3c0.1-0.2,0.2-0.4,0.3-0.6l0,0c0-0.1,0.1-0.1,0.1-0.2c0.1-0.2,0.2-0.3,0.3-0.5c0,0,0-0.1,0-0.1
				c0.1-0.2,0.2-0.3,0.3-0.4c0,0,0,0,0,0c0.2-0.2,0.3-0.4,0.5-0.6l0,0c0.1-0.1,0.2-0.2,0.3-0.3c0.1-0.1,0.2-0.2,0.3-0.3l0,0
				c0.6-0.5,1.1-0.9,1.8-1.2c0,0,0,0,0,0c0.2-0.1,0.3-0.2,0.5-0.2c0,0,0.1,0,0.1,0c0.2-0.1,0.3-0.1,0.5-0.2c0,0,0,0,0.1,0
				c0.1,0,0.1,0,0.2,0l0,0c0.2-0.1,0.4-0.1,0.6-0.1c0.1,0,0.2,0,0.3,0c0.2,0,0.4-0.1,0.7-0.1c0,0,0,0,0.1,0c0.1,0,0.1,0,0.2,0
				c0.1,0,0.2,0,0.3,0c0.4,0,0.7-0.1,1.1-0.2l0,0c1.7-0.4,3.2-1.4,4.4-2.6c1.2-1.1,2.7-2.3,3.6-3.7c0,0,0.1-0.1,0.1-0.1
				c0.8-1.2,1.2-2.5,0.9-3.6C167.5,136.4,167,135.5,166.1,134.9z"/>
			<g>
				<path d="M166.1,134.9c-9.9-7-19.9-5.5-26.5,1.6c-0.1,0.1-0.2,0.2-0.2,0.3c-0.1,0.1-0.2,0.1-0.3,0.2c-2.1,1.9-3.9,4.3-5.1,7
					c-2.8,6.3-2.3,13,2.9,19.5c0.5,0.6,0.9,1,1.4,1.2c1.4,0.7,2.9,0.4,4.4-0.6c0.2-0.1,0.4-0.3,0.7-0.5l0,0c1.2-0.9,2.2-2.2,3.2-3.2
					c1.1-1.2,2.1-2.5,2.6-4.1l0,0c0.1-0.3,0.1-0.5,0.2-0.8c0-0.1,0-0.3,0.1-0.4c0-0.1,0-0.3,0-0.4c0-0.1,0-0.2,0-0.3l0,0
					c0-0.2,0-0.3,0.1-0.5c0-0.1,0-0.2,0-0.3l0,0c0-0.2,0.1-0.3,0.1-0.5l0,0c0.1-0.2,0.1-0.5,0.2-0.7l0,0c0-0.1,0.1-0.2,0.1-0.3
					c0.1-0.2,0.2-0.4,0.3-0.6l0,0c0-0.1,0.1-0.1,0.1-0.2c0.1-0.2,0.2-0.3,0.3-0.5c0,0,0-0.1,0-0.1c0.1-0.2,0.2-0.3,0.3-0.4
					c0,0,0,0,0,0c0.2-0.2,0.3-0.4,0.5-0.6l0,0c0.1-0.1,0.2-0.2,0.3-0.3c0.1-0.1,0.2-0.2,0.3-0.3l0,0c0.6-0.5,1.1-0.9,1.8-1.2
					c0,0,0,0,0,0c0.2-0.1,0.3-0.2,0.5-0.2c0,0,0.1,0,0.1,0c0.2-0.1,0.3-0.1,0.5-0.2c0,0,0,0,0.1,0c0.1,0,0.1,0,0.2,0l0,0
					c0.2-0.1,0.4-0.1,0.6-0.1c0.1,0,0.2,0,0.3,0c0.2,0,0.4-0.1,0.7-0.1c0,0,0,0,0.1,0c0.1,0,0.1,0,0.2,0c0.1,0,0.2,0,0.3,0
					c0.4,0,0.7-0.1,1.1-0.2l0,0c1.7-0.4,3.2-1.4,4.4-2.6c1.2-1.1,2.7-2.3,3.6-3.7c0,0,0.1-0.1,0.1-0.1c0.8-1.2,1.2-2.5,0.9-3.6
					C167.5,136.4,167,135.5,166.1,134.9z"/>
				<defs>
					<filter id="Adobe_OpacityMaskFilter" filterUnits="userSpaceOnUse" x="132.3" y="130.4" width="35.4" height="34.8">
						
							<feColorMatrix  type="matrix" values="-1 0 0 0 1  0 -1 0 0 1  0 0 -1 0 1  0 0 0 1 0" color-interpolation-filters="sRGB" result="source"/>
					</filter>
				</defs>
				<mask maskUnits="userSpaceOnUse" x="132.3" y="130.4" width="35.4" height="34.8" id="SVGID_7_">
					<g class="st18">
						<image style="overflow:visible;" width="40" height="40" xlink:href="7BEEB63A.jpg"  transform="matrix(1 0 0 1 130 128)">
						</image>
					</g>
				</mask>
				<path class="st19" d="M166.1,134.9c-9.9-7-19.9-5.5-26.5,1.6c-0.1,0.1-0.2,0.2-0.2,0.3c-0.1,0.1-0.2,0.1-0.3,0.2
					c-2.1,1.9-3.9,4.3-5.1,7c-2.8,6.3-2.3,13,2.9,19.5c0.5,0.6,0.9,1,1.4,1.2c1.4,0.7,2.9,0.4,4.4-0.6c0.2-0.1,0.4-0.3,0.7-0.5l0,0
					c1.2-0.9,2.2-2.2,3.2-3.2c1.1-1.2,2.1-2.5,2.6-4.1l0,0c0.1-0.3,0.1-0.5,0.2-0.8c0-0.1,0-0.3,0.1-0.4c0-0.1,0-0.3,0-0.4
					c0-0.1,0-0.2,0-0.3l0,0c0-0.2,0-0.3,0.1-0.5c0-0.1,0-0.2,0-0.3l0,0c0-0.2,0.1-0.3,0.1-0.5l0,0c0.1-0.2,0.1-0.5,0.2-0.7l0,0
					c0-0.1,0.1-0.2,0.1-0.3c0.1-0.2,0.2-0.4,0.3-0.6l0,0c0-0.1,0.1-0.1,0.1-0.2c0.1-0.2,0.2-0.3,0.3-0.5c0,0,0-0.1,0-0.1
					c0.1-0.2,0.2-0.3,0.3-0.4c0,0,0,0,0,0c0.2-0.2,0.3-0.4,0.5-0.6l0,0c0.1-0.1,0.2-0.2,0.3-0.3c0.1-0.1,0.2-0.2,0.3-0.3l0,0
					c0.6-0.5,1.1-0.9,1.8-1.2c0,0,0,0,0,0c0.2-0.1,0.3-0.2,0.5-0.2c0,0,0.1,0,0.1,0c0.2-0.1,0.3-0.1,0.5-0.2c0,0,0,0,0.1,0
					c0.1,0,0.1,0,0.2,0l0,0c0.2-0.1,0.4-0.1,0.6-0.1c0.1,0,0.2,0,0.3,0c0.2,0,0.4-0.1,0.7-0.1c0,0,0,0,0.1,0c0.1,0,0.1,0,0.2,0
					c0.1,0,0.2,0,0.3,0c0.4,0,0.7-0.1,1.1-0.2l0,0c1.7-0.4,3.2-1.4,4.4-2.6c1.2-1.1,2.7-2.3,3.6-3.7c0,0,0.1-0.1,0.1-0.1
					c0.8-1.2,1.2-2.5,0.9-3.6C167.5,136.4,167,135.5,166.1,134.9z"/>
			</g>
		</g>
		<g>
			<path class="st20" d="M140.4,136c-0.2,0.2-0.4,0.4-0.6,0.6c0,0-0.1,0.1-0.1,0.2l-0.1,0.1l-0.1,0.1c-0.1,0-0.1,0.1-0.2,0.1
				c-0.2,0.2-0.4,0.4-0.6,0.6c-1.9,1.8-3.4,4-4.4,6.3c-2.8,6.4-2.2,13,2.9,19.3c0.1,0.1,0.2,0.2,0.3,0.4c-4.1-6-4.9-12.8-2.4-18.7
				c1-2.3,2.6-4.6,4.5-6.4c0.2-0.2,0.4-0.4,0.6-0.6c0.1,0,0.1-0.1,0.2-0.1l0.1-0.1l0.1-0.1c0-0.1,0.1-0.1,0.1-0.2
				c0.2-0.2,0.4-0.4,0.6-0.6c7.1-6.9,16.8-7.5,25.1-1.6c-0.1-0.1-0.2-0.2-0.3-0.3c-4.4-3.7-8.6-4.8-13.5-4.6
				C148.1,130.7,143.8,132.7,140.4,136z"/>
			<path class="st21" d="M166.1,134.9c-3.5-3-7.3-4.4-11.4-4.6c-4-0.2-8,0.8-11,2.8c-4,2.6-7.7,6.4-9.7,10.9
				c-2.8,6.3-2.3,13,2.9,19.5c0.4,0.5,0.7,0.8,1.1,1.1c-5-6.4-6-13.6-3.3-19.8c1.2-2.7,3-5.1,5.1-7c0.1-0.1,0.2-0.1,0.3-0.2
				c0.1-0.1,0.1-0.2,0.2-0.3c6.6-7,17.1-9.1,26.8-1.3C166.9,135.7,166.6,135.3,166.1,134.9z"/>
		</g>
		<g>
			<g class="st22">
				<path class="st23" d="M137.9,164.3c1.4,0.7,2.9,0.4,4.4-0.6c0.2-0.1,0.4-0.3,0.7-0.5l0,0c1.2-0.9,2.2-2.2,3.2-3.2
					c1.1-1.2,2.1-2.5,2.6-4.1l0,0c0.1-0.3,0.1-0.5,0.2-0.8c0-0.1,0-0.3,0.1-0.4c0-0.1,0-0.3,0-0.4c0-0.1,0-0.2,0-0.3l0,0
					c0-0.3,0.1-0.5,0.1-0.8l0,0c0-0.2,0.1-0.3,0.1-0.5l0,0c0.1-0.2,0.1-0.5,0.2-0.7l0,0c0-0.1,0.1-0.2,0.1-0.3
					c0.1-0.2,0.2-0.4,0.3-0.6l0,0c0-0.1,0.1-0.1,0.1-0.2c0.1-0.2,0.2-0.3,0.3-0.5c0,0,0,0,0-0.1c0.1-0.2,0.2-0.3,0.3-0.4
					c0,0,0,0,0,0c0.2-0.2,0.3-0.4,0.5-0.6l0,0c0.1-0.1,0.2-0.2,0.3-0.3c0.1-0.1,0.2-0.2,0.3-0.3l0,0c0.6-0.5,1.1-0.9,1.8-1.2
					c0,0,0,0,0,0c0.2-0.1,0.3-0.2,0.5-0.2c0,0,0.1,0,0.1,0c0.2-0.1,0.4-0.1,0.6-0.2c0.1,0,0.1,0,0.2,0l0,0c0.2-0.1,0.4-0.1,0.6-0.1
					c0.1,0,0.2,0,0.3,0c0.2,0,0.4-0.1,0.7-0.1c0,0,0,0,0.1,0c0.1,0,0.1,0,0.2,0c0.1,0,0.2,0,0.3,0c0.4,0,0.7-0.1,1.1-0.2l0,0
					c1.7-0.4,3.2-1.4,4.4-2.6c1.2-1.1,2.7-2.3,3.6-3.7l0,0c0,0,0.1-0.1,0.1-0.1c0.8-1.2,1.2-2.5,0.9-3.6c-0.1-0.6-0.5-1.2-1-1.8
					c0.7,0.6,1.1,1.3,1.2,2c0.3,1.2-0.1,2.4-0.9,3.6c0,0-0.1,0.1-0.1,0.1l0,0c-1,1.4-2.4,2.5-3.6,3.7c-1.2,1.2-2.7,2.2-4.4,2.6l0,0
					c-0.3,0.1-0.7,0.1-1.1,0.2c-0.1,0-0.2,0-0.3,0c-0.1,0-0.1,0-0.2,0c0,0,0,0-0.1,0c-0.2,0-0.4,0-0.7,0.1c-0.1,0-0.2,0-0.3,0
					c-0.2,0-0.4,0.1-0.6,0.1l0,0c-0.1,0-0.1,0-0.2,0c-0.2,0.1-0.4,0.1-0.6,0.2c0,0-0.1,0-0.1,0c-0.2,0.1-0.3,0.1-0.5,0.2
					c0,0,0,0,0,0c-0.6,0.3-1.2,0.7-1.8,1.2l0,0c-0.1,0.1-0.2,0.2-0.3,0.3c-0.1,0.1-0.2,0.2-0.3,0.3l0,0c-0.2,0.2-0.4,0.4-0.5,0.6
					c0,0,0,0,0,0c-0.1,0.1-0.2,0.3-0.3,0.4c0,0,0,0,0,0.1c-0.1,0.2-0.2,0.3-0.3,0.5c0,0.1-0.1,0.1-0.1,0.2l0,0
					c-0.1,0.2-0.2,0.4-0.3,0.6c0,0.1-0.1,0.2-0.1,0.3l0,0c-0.1,0.2-0.1,0.5-0.2,0.7l0,0c0,0.1-0.1,0.3-0.1,0.5l0,0
					c0,0.3-0.1,0.5-0.1,0.8l0,0c0,0.1,0,0.2,0,0.3c0,0.1,0,0.3,0,0.4c0,0.1,0,0.3-0.1,0.4c0,0.3-0.1,0.5-0.2,0.8l0,0
					c-0.5,1.6-1.5,2.9-2.6,4.1c-1,1-2,2.3-3.2,3.2l0,0c-0.2,0.2-0.4,0.3-0.7,0.5c-1.5,1-3.1,1.3-4.4,0.6c-0.4-0.2-0.8-0.5-1.1-0.9
					C137.3,163.9,137.6,164.1,137.9,164.3z"/>
			</g>
		</g>
	</g>
	<g>
		<g>
			<defs>
				<filter id="Adobe_OpacityMaskFilter_1_" filterUnits="userSpaceOnUse" x="138.3" y="134.3" width="27" height="30">
					<feColorMatrix  type="matrix" values="1 0 0 0 0  0 1 0 0 0  0 0 1 0 0  0 0 0 1 0"/>
				</filter>
			</defs>
			<mask maskUnits="userSpaceOnUse" x="138.3" y="134.3" width="27" height="30" id="SVGID_8_">
				<g class="st24">
					<g>
						<path class="st25" d="M154.8,135.8c-1.1-0.1-2.2,0-3.2,0.3c-2.6,0.7-4.7,2.7-6.6,4.5c-1.9,1.8-3.9,3.5-5.7,5.5
							c-1.4,1.6-2.7,3.6-2.5,5.9c0.2,2,1.6,3.7,3,5c0.7,0.7,1.5,1.4,2.4,2.1c0.6,0.5,1.3,1,2.1,1.3c0.4,0.2,1,0.3,1.4,0.1
							c0.4-0.2,0.6-0.6,0.8-0.9c0.2-0.5,0.4-0.9,0.5-1.4c0.1-0.4,0.2-0.8,0.3-1.2c0.1-0.4,0.4-0.8,0.6-1.1c0.4-0.7,1-1.3,1.7-1.8
							c0-0.1,0-0.2,0-0.3c0-0.2,0.1-0.3,0.1-0.5c0.1-0.2,0.1-0.5,0.2-0.7c0-0.1,0.1-0.2,0.1-0.3c0.1-0.2,0.2-0.4,0.3-0.6
							c0-0.1,0.1-0.1,0.1-0.2c0.1-0.2,0.2-0.3,0.3-0.5c0,0,0-0.1,0-0.1c0.1-0.2,0.2-0.3,0.3-0.4c0,0,0,0,0,0
							c0.2-0.2,0.3-0.4,0.5-0.6l0,0c0.1-0.1,0.2-0.2,0.3-0.3c0.1-0.1,0.2-0.2,0.3-0.3l0,0c0.6-0.5,1.1-0.9,1.8-1.2c0,0,0,0,0,0
							c0.2-0.1,0.3-0.2,0.5-0.2c0,0,0.1,0,0.1,0c0.2-0.1,0.3-0.1,0.5-0.2c0.3-0.5,0.8-0.9,1.3-1.3c0.9-0.7,1.9-1.3,3-1.9
							c0.4-0.2,0.8,0.1,1.1-0.1c0.4-0.2,0.7-0.5,0.9-0.8c1.4-1.9-0.1-4.4-1.6-5.7C158.4,136.7,156.6,136,154.8,135.8z"/>
					</g>
				</g>
			</mask>
			<g class="st26">
				<g style="opacity:0.85;">
					
						<image style="overflow:visible;" width="27" height="30" xlink:href="7BEEB63E.png"  transform="matrix(1 0 0 1 138.3231 134.3231)">
					</image>
				</g>
				<g>
					<g>
						<path class="st27" d="M154.7,137.7c-1.2,2.2-3.5,6.8-5.9,7.5c-0.6,2.3-4.7,4.2-6.8,4.7c1.5-0.1,4.8,0.8,4.2,2.8
							c1.5,0.6,0.3,6.4,0,7.9c0.5-1.9,1.8-5,3.6-6c0-0.1,0-0.2,0-0.3l0,0c0-0.2,0.1-0.3,0.1-0.5l0,0c0.1-0.3,0.1-0.5,0.2-0.8l0,0
							c0-0.1,0.1-0.2,0.1-0.3c0.1-0.2,0.2-0.4,0.3-0.7l0,0c0-0.1,0.1-0.1,0.1-0.2c0.1-0.2,0.2-0.4,0.3-0.6c0,0,0-0.1,0.1-0.1
							c0.1-0.2,0.2-0.3,0.3-0.5c0,0,0,0,0,0c0.2-0.2,0.4-0.5,0.6-0.7l0,0c0.1-0.1,0.2-0.2,0.3-0.3c0.1-0.1,0.2-0.2,0.3-0.3l0,0
							c0.6-0.6,1.2-1,1.9-1.3c0,0,0,0,0,0c0.2-0.1,0.4-0.2,0.5-0.2c0,0,0.1,0,0.1,0c0.2-0.1,0.4-0.1,0.6-0.2
							c1.1-1.7,4.3-3.4,5.7-3.9c-1.1,0.4-6.5,1.7-6.2-0.4C152.8,144.5,154.3,138.5,154.7,137.7z"/>
					</g>
				</g>
			</g>
			<g>
				
					<linearGradient id="SVGID_9_" gradientUnits="userSpaceOnUse" x1="435.6576" y1="-181.7351" x2="435.6576" y2="-191.1436" gradientTransform="matrix(0.7144 -0.6997 -0.6997 -0.7144 -291.2281 320.5155)">
					<stop  offset="0" style="stop-color:#FDDB27"/>
					<stop  offset="0.3097" style="stop-color:#FEE03B"/>
					<stop  offset="0.94" style="stop-color:#FFEC6E"/>
					<stop  offset="1" style="stop-color:#FFED73"/>
				</linearGradient>
				<path class="st28" d="M154.5,138.6c-1.2,2-3.3,6.2-5.5,6.9c-0.6,2.1-4.3,3.9-6.3,4.4c1.4-0.1,4.3,0.7,3.8,2.5
					c1.4,0.6,0.1,5.9-0.2,7.1c0.5-1.7,1.8-4.5,3.4-5.5c0-0.1,0-0.2,0-0.3l0,0c0-0.2,0.1-0.3,0.1-0.5l0,0c0.1-0.2,0.1-0.5,0.2-0.7
					l0,0c0-0.1,0.1-0.2,0.1-0.3c0.1-0.2,0.2-0.4,0.3-0.6l0,0c0-0.1,0.1-0.1,0.1-0.2c0.1-0.2,0.2-0.3,0.3-0.5c0,0,0-0.1,0-0.1
					c0.1-0.2,0.2-0.3,0.3-0.4c0,0,0,0,0,0c0.2-0.2,0.3-0.4,0.5-0.6l0,0c0.1-0.1,0.2-0.2,0.3-0.3c0.1-0.1,0.2-0.2,0.3-0.3l0,0
					c0.6-0.5,1.1-0.9,1.8-1.2c0,0,0,0,0,0c0.2-0.1,0.3-0.2,0.5-0.2c0,0,0.1,0,0.1,0c0.2-0.1,0.3-0.1,0.5-0.2c1.1-1.6,4-3.1,5.3-3.6
					c-1,0.3-5.9,1.7-5.7-0.2C152.7,144.9,154.1,139.3,154.5,138.6z"/>
			</g>
		</g>
	</g>
</g>
<path class="st29" d="M155.7,153.8v98.1c0,4.5,3.3,8.2,7.4,8.2h33.8c4.1,0,7.4-3.7,7.4-8.2v-98.1L155.7,153.8L155.7,153.8z"/>
<path class="st30" d="M158.8,153.8v98.1c0,4.5,2.9,8.2,6.4,8.2h29.5c3.6,0,6.4-3.7,6.4-8.2v-98.1L158.8,153.8L158.8,153.8z"/>
<path class="st29" d="M201.2,153.8h-4.4L184.1,211c-0.2,1.2,0.6,2.4,1.8,2.6c1.2,0.2,2.4-0.6,2.6-1.8l12.6-57.1L201.2,153.8
	L201.2,153.8z"/>
<path class="st31" d="M206.2,124.6l-19,85.9c-0.2,1.2,0.6,2.4,1.8,2.6c1.2,0.2,2.4-0.6,2.6-1.8l19-85.9L206.2,124.6z"/>
<path class="st32" d="M155.7,173.2v27.2c0,2,3.3,3.6,7.4,3.6h33.8c4.1,0,7.4-1.6,7.4-3.6v-27.2H155.7L155.7,173.2z"/>
<path class="st33" d="M155.7,185.5v62.4c0,4.5,3.3,8.2,7.4,8.2h33.8c4.1,0,7.4-3.7,7.4-8.2v-62.4H155.7L155.7,185.5z"/>
<path class="st34" d="M155.7,213.1v34.7c0,4.5,3.3,8.2,7.4,8.2h33.8c4.1,0,7.4-3.7,7.4-8.2v-34.7H155.7L155.7,213.1z"/>
<path class="st35" d="M155.7,236.7v15.1c0,4.5,3.3,8.2,7.4,8.2h33.8c4.1,0,7.4-3.7,7.4-8.2v-15.1H155.7z"/>
<path class="st36" d="M185.4,191.1c1.1,1.1,1.1,2.8,0,3.8l-8.9,8.9c-1.1,1.1-2.8,1.1-3.8,0l-10-10c-1.1-1.1-1.1-2.8,0-3.8l8.9-8.9
	c1.1-1.1,2.8-1.1,3.8,0L185.4,191.1z"/>
<path class="st36" d="M192.8,212c-0.9,0.9-2.3,0.9-3.2,0l-7.4-7.4c-0.9-0.9-0.9-2.3,0-3.2l8.3-8.3c0.9-0.9,2.3-0.9,3.2,0l7.4,7.4
	c0.9,0.9,0.9,2.3,0,3.2L192.8,212z"/>
<path class="st36" d="M180,210.1c-0.7,0.7-1.8,0.7-2.4,0l-5.7-5.7c-0.7-0.7-0.7-1.8,0-2.4l6.4-6.4c0.7-0.7,1.8-0.7,2.4,0l5.7,5.7
	c0.7,0.7,0.7,1.8,0,2.4L180,210.1z"/>
<path class="st36" d="M172,215.1c-0.7-0.7-0.7-1.7,0-2.4l5.6-5.6c0.7-0.7,1.7-0.7,2.4,0l6.3,6.3c0.7,0.7,0.7,1.7,0,2.4l-5.6,5.6
	c-0.7,0.7-1.7,0.7-2.4,0L172,215.1z"/>
<path class="st25" d="M170,221.9c0,2.3-1.8,4.1-4.1,4.1s-4.1-1.8-4.1-4.1s1.8-4.1,4.1-4.1C168.2,217.9,170,219.7,170,221.9z"/>
<path class="st25" d="M194.8,218.9c0,1.4-1.1,2.4-2.4,2.4c-1.4,0-2.4-1.1-2.4-2.4c0-1.4,1.1-2.4,2.4-2.4
	C193.7,216.4,194.8,217.5,194.8,218.9z"/>
<path class="st25" d="M184.1,226.4c0,1.4-1.1,2.4-2.4,2.4c-1.4,0-2.4-1.1-2.4-2.4s1.1-2.4,2.4-2.4
	C182.9,224,184.1,225.1,184.1,226.4z"/>
<path class="st37" d="M149.2,146.6v111.3c0,5.2,4.2,9.3,9.3,9.3h42.9c5.1,0,9.3-4.2,9.3-9.3V146.6H149.2z M204.2,251.8
	c0,4.5-3.3,8.2-7.4,8.2H163c-4.1,0-7.4-3.7-7.4-8.2v-98.1h48.6L204.2,251.8L204.2,251.8z"/>
<g>
	<path class="st38" d="M152.2,257.9V146.6h-3v111.3c0,5.2,4.2,9.3,9.3,9.3h3C156.4,267.2,152.2,263,152.2,257.9z"/>
</g>
</svg>
