<?xml version="1.0" encoding="utf-8"?>
<!-- Generator: Adobe Illustrator 23.0.0, SVG Export Plug-In . SVG Version: 6.00 Build 0)  -->
<svg version="1.1" id="Capa_1" xmlns="http://www.w3.org/2000/svg" xmlns:xlink="http://www.w3.org/1999/xlink" x="0px" y="0px"
	 viewBox="0 0 360 363" style="enable-background:new 0 0 360 363;" xml:space="preserve">
<style type="text/css">
	.st0{fill:#FFD084;}
	.st1{fill:none;stroke:#FFE1C0;stroke-width:0.7573;stroke-miterlimit:10;}
	.st2{fill:#FFD6A4;}
	.st3{fill:none;stroke:#FFE1C0;stroke-width:0.75;stroke-miterlimit:10;}
	.st4{fill:#FFE1C0;}
	.st5{fill:none;stroke:#FFD6A4;stroke-width:0.75;stroke-miterlimit:10;}
	.st6{fill:none;stroke:#FFEFE1;stroke-width:0.7478;stroke-miterlimit:10;}
	.st7{fill:#8F7CE5;}
	.st8{fill:#A6A6DD;}
	.st9{fill:#FFE5CC;}
	.st10{fill:none;stroke:#FFD6A4;stroke-miterlimit:10;}
	.st11{clip-path:url(#SVGID_2_);fill:#FFD8AE;}
	.st12{clip-path:url(#SVGID_4_);fill:#FFD8AE;}
	.st13{fill:none;stroke:#F5F7FC;stroke-width:16;stroke-linejoin:round;stroke-miterlimit:10;}
	.st14{fill:none;stroke:#FFFFFF;stroke-width:12.4139;stroke-linejoin:round;stroke-miterlimit:10;}
	.st15{fill:#BEBEF4;}
	.st16{fill:#CCCCFF;}
	.st17{fill:#E09C6E;}
	.st18{fill:#E6FFF0;}
	.st19{display:none;}
	.st20{display:inline;}
	.st21{fill:#7D990A;}
	.st22{fill:#FAFFCE;}
	.st23{fill:#93BD03;}
	.st24{fill:#C6DA45;}
	.st25{opacity:0.3;}
	.st26{fill:#EDC3A6;}
	.st27{opacity:0.3;fill:#FFFEFF;enable-background:new    ;}
	.st28{fill:#FFCE00;}
	.st29{fill:#F2D86B;}
	.st30{opacity:0.4;fill:#F5F7FC;enable-background:new    ;}
</style>
<g id="fondo">
	<g>
		<g id="Rectángulo_556">
			<rect y="-0.1" class="st0" width="360" height="363.3"/>
			<rect x="0.5" y="0.4" class="st0" width="359" height="362.2"/>
		</g>
		<path class="st1" d="M228.1,258.3c0,0,43.9-35.1,59.7-104.9c15.8-69.8-12.4-91.7-12.4-91.7S254.9,35.3,242,72.3
			c0,0-11.1,37.2-24.4,18.6c0,0-4-5.6-6.5-13c-2.5-7.3-11-10.5-11-10.5s-21.4-7.3-59.4,34.8c0,0-30.9,35.9-25.5,83.1
			s10.5,56.8,10.5,56.8L228.1,258.3z"/>
		<path class="st2" d="M225.9,271.1c0,0,43.1-35.1,58.6-104.9s-12.2-91.7-12.2-91.7s-20.1-26.4-32.8,10.6c0,0-10.9,37.2-23.9,18.6
			c0,0-3.9-5.6-6.4-13c-2.5-7.3-10.8-10.5-10.8-10.5s-21-7.3-58.2,34.8c0,0-30.3,35.9-25,83.1s10.3,56.8,10.3,56.8L225.9,271.1z"/>
		<path class="st3" d="M114.9,245.6c0,0-61.2-54.4-49.7-80.4s30.9-7.5,30.9-7.5s25.7,22.6,47.9,63.9L114.9,245.6z"/>
		<path class="st2" d="M115.8,249.7c0,0-54.1-58.6-42.6-84.6s30.9-7.5,30.9-7.5s25.7,22.6,47.9,63.9L115.8,249.7z"/>
		<path class="st4" d="M206.4,265c0,0,41.3-44.5,60.9-102.7c0,0,11.1-34-2.3-60c0,0-8.2-25.8-29.3,14.8S206.3,129,206.3,129
			s-8.1-59.5-44-15.2s-22.9,140.1-22.9,140.1L206.4,265z"/>
		<path class="st5" d="M191.1,241.3c0,0,54.3-73,68-155.4"/>
		<path class="st6" d="M195.3,266c0,0,33.9-33.6,51.3-78.9c0,0,9.9-26.5,0.3-47.4c0,0-5.5-20.6-23.5,10.6s-23.4,8.4-23.4,8.4
			s-4.3-47.2-33.9-13.5s-22.8,109.6-22.8,109.6L195.3,266z"/>
		<g>
			
				<ellipse transform="matrix(1 -1.876208e-03 1.876208e-03 1 -0.526 0.338)" class="st7" cx="179.9" cy="280.5" rx="102.6" ry="21.4"/>
			<polygon class="st7" points="282.5,280.3 282.7,266.4 77.5,266.8 77.3,280.7 			"/>
			
				<ellipse transform="matrix(1 -1.876208e-03 1.876208e-03 1 -0.4999 0.3384)" class="st8" cx="180.1" cy="266.6" rx="102.6" ry="21.4"/>
		</g>
		<path class="st3" d="M239.7,220.4c0,0,41.8-19.1,39.9,9s-53,30.9-53,30.9s-15.5-0.3-14.5-10.3C213.2,240,218.5,230.9,239.7,220.4z
			"/>
		<path class="st9" d="M229.9,222.9c0,0,37.6-26.4,40.9,1.5c3.2,27.9-46.4,40.1-46.4,40.1S209,267,208.2,257
			C207.3,247,211,237.1,229.9,222.9z"/>
		<path class="st10" d="M208.2,257c0,0,44.4-19.6,65.3-41.4"/>
		<g>
			<g>
				<g>
					<g>
						<g>
							<g>
								<g>
									<g>
										<defs>
											<path id="SVGID_1_" d="M229.9,222.9c0,0,37.6-26.4,40.9,1.5c3.2,27.9-46.4,40.1-46.4,40.1S209,267,208.2,257
												C207.3,247,211,237.1,229.9,222.9z"/>
										</defs>
										<clipPath id="SVGID_2_">
											<use xlink:href="#SVGID_1_"  style="overflow:visible;"/>
										</clipPath>
										<path class="st11" d="M240.9,211.5c0,0-27.3,46.6,4.8,50c21.5,2.3-22.9,11.5-22.9,11.5l-20.3-4.6l-1.3-29l20-22.9
											L240.9,211.5z"/>
									</g>
								</g>
							</g>
						</g>
					</g>
				</g>
			</g>
		</g>
		<g>
			<path class="st9" d="M128.2,225.7c0,0-34.9-21.9-37.3,9.5c0,0,6.5,28.1,39.9,22.4C164.1,251.8,128.2,225.7,128.2,225.7z"/>
		</g>
		<path class="st10" d="M143,248.3c0,0-40.9-21-62.4-13.1"/>
		<g>
			<g>
				<g>
					<g>
						<g>
							<g>
								<g>
									<g>
										<defs>
											<path id="SVGID_3_" d="M128.2,225.7c0,0-34.9-21.9-37.3,9.5c0,0,6.5,28.1,39.9,22.4C164.1,251.8,128.2,225.7,128.2,225.7
												z"/>
										</defs>
										<clipPath id="SVGID_4_">
											<use xlink:href="#SVGID_3_"  style="overflow:visible;"/>
										</clipPath>
										<path class="st12" d="M124.1,218.3h-4h-3.6c0,0,17.6,26,9.4,34.6c-8.2,8.6-9.4,6.7-9.4,6.7l19.6,1.8l15.9-7.2l1.2-14.3
											l-16-11.9L124.1,218.3z"/>
									</g>
								</g>
							</g>
						</g>
					</g>
				</g>
			</g>
		</g>
		<path class="st3" d="M84.5,161.6c0,0,21.6,45.3,54.6,70.4"/>
		<path class="st3" d="M103.9,163.3c0,0-5.4,4-7,10.8"/>
		<path class="st3" d="M108.2,171.4c0,0-5.3,5.3-6,14.2"/>
		<path class="st3" d="M96.9,190.4c0,0-6.3-0.5-14.9,3.7"/>
		<path class="st3" d="M102.2,196.8c0,0-10.9,0.4-15.6,3.7"/>
		<path class="st2" d="M109.5,107.7c0.1,4-3.4,7.8-6.2,10.4c-1-2.4-1.9-5-2-7.6c-0.1-2,0.7-4,2.2-5.3c0.5-0.4,1-0.8,1.7-0.9
			c0.4-0.1,0.7-0.2,1.1-0.2C108,104.3,109.4,105.9,109.5,107.7z"/>
		<path class="st2" d="M81.9,123.8c-3.1,0.3-9-1.1-11.6-3.2c-2.3-1.7-2.3-2.2-3.4-4.9c-1-2.7,0.6-5.9,3.6-6.2
			c1.5-0.2,3.1,0.2,4.3,1.1C79.1,113.4,82.6,118.4,81.9,123.8z"/>
		<path class="st4" d="M105.6,142.4c-1.9,1.1-5-0.2-4.7-2.6c-0.2-2.8,4.1-3.8,5.6-1.6C107.5,139.5,106.9,141.6,105.6,142.4z"/>
		<path class="st4" d="M319.5,85.1c-2.6,1.4-6.6-0.3-6.3-3.5c-0.2-3.8,5.5-5.1,7.4-2.1C322,81.2,321.3,83.9,319.5,85.1z"/>
		<path class="st2" d="M328.9,297.3c-3.1,1.7-7.9-0.3-7.6-4.2c-0.3-4.5,6.6-6.1,8.9-2.5C331.9,292.6,331,295.9,328.9,297.3z"/>
		<path class="st4" d="M286.4,309c-2,1.1-5.2-0.2-5-2.8c-0.2-3,4.3-4,5.8-1.7C288.4,305.9,287.9,308.1,286.4,309z"/>
		<path class="st2" d="M61.9,244.7c-2.6,1.4-6.6-0.3-6.3-3.5c-0.2-3.8,5.5-5.1,7.4-2.1C64.4,240.8,63.7,243.5,61.9,244.7z"/>
		
			<ellipse transform="matrix(0.3506 -0.9365 0.9365 0.3506 -94.4474 226.6611)" class="st9" cx="116.2" cy="181.4" rx="2.7" ry="1.7"/>
		
			<ellipse transform="matrix(0.3506 -0.9365 0.9365 0.3506 -102.8932 235.0423)" class="st9" cx="118" cy="191.7" rx="2.7" ry="1.7"/>
		
			<ellipse transform="matrix(0.3506 -0.9365 0.9365 0.3506 -131.5779 232.9276)" class="st0" cx="102.2" cy="211.3" rx="3" ry="1.8"/>
	</g>
</g>
<path class="st13" d="M218.2,179.8c0,0-18.8-4.4-42-4.4s-42,4.4-42,4.4s4.3,54.7,12.4,78.5l1.8,0.4c18.4,3.8,37.4,3.8,55.8,0
	l1.8-0.4c8-23.8,12.4-78.5,12.4-78.5L218.2,179.8L218.2,179.8z"/>
<g>
	<g>
		<path class="st14" d="M221,161.3c-4.9-2.7-15-6.9-19.6-1.6c-2.5,2.9-1.1,9.1,0.5,11.9c2.3,4.1,9.9,12.6,15.6,10
			c2.9-1.3,3.2-6.8,1.7-9.3c-3.1-5-13.1-5.5-18-4.7c-6.3,1.1-8,4.8-7.9,10.7c0.1,6.6,5.3,14,12.1,15.3c4.2,0.8,5.7-3.8,4.1-7.3
			c-2.4-5-13.6-5.3-17.9-4.2c-5.5,1.3-6,6.1-5.3,11c-0.2-1.3,0.2-2.7,0-4c0.4,2.2,0,0.4,1.1-0.9c0.8-0.9,1.7-1.3,2.8-1.7
			c2.4-0.9,5.2-1,7.7-0.7c2.9,0.3,11.5,1.3,11.7,5.4c0-1.3,0-2.7,0-3.9c-0.7,4.1-6.2,1.7-8.3,0.5c-4.2-2.6-8.2-7.4-8.2-12.5
			c0,1.1,0,2.3,0,3.4c0.7-6.7,7.7-7.8,13.4-7.4c3.9,0.3,12.5,1.5,13.2,6.7c0-1.3,0-2.7,0-3.9c-0.3,5.9-7.6,3.2-10.4,1.3
			c-4.1-2.8-8.6-7.4-9.1-12.7c0,1.1,0,2.3,0,3.4c0.1-5,7.2-5.2,10.6-4.6c3.5,0.6,7.1,1.9,10.1,3.6C220.4,165,221.6,161.5,221,161.3
			L221,161.3z"/>
	</g>
	<g>
		<path class="st14" d="M221,161.3c-4.9-2.7-15-6.9-19.6-1.6c-2.5,2.9-1.1,9.1,0.5,11.9c2.3,4.1,9.9,12.6,15.6,10
			c2.9-1.3,3.2-6.8,1.7-9.3c-3.1-5-13.1-5.5-18-4.7c-6.3,1.1-8,4.8-7.9,10.7c0.1,6.6,5.3,14,12.1,15.3c4.2,0.8,5.7-3.8,4.1-7.3
			c-2.4-5-13.6-5.3-17.9-4.2c-5.5,1.3-6,6.1-5.3,11c-0.2-1.3,0.2-2.7,0-4c0.4,2.2,0,0.4,1.1-0.9c0.8-0.9,1.7-1.3,2.8-1.7
			c2.4-0.9,5.2-1,7.7-0.7c2.9,0.3,11.5,1.3,11.7,5.4c0-1.3,0-2.7,0-3.9c-0.7,4.1-6.2,1.7-8.3,0.5c-4.2-2.6-8.2-7.4-8.2-12.5
			c0,1.1,0,2.3,0,3.4c0.7-6.7,7.7-7.8,13.4-7.4c3.9,0.3,12.5,1.5,13.2,6.7c0-1.3,0-2.7,0-3.9c-0.3,5.9-7.6,3.2-10.4,1.3
			c-4.1-2.8-8.6-7.4-9.1-12.7c0,1.1,0,2.3,0,3.4c0.1-5,7.2-5.2,10.6-4.6c3.5,0.6,7.1,1.9,10.1,3.6C220.4,165,221.6,161.5,221,161.3
			L221,161.3z"/>
	</g>
</g>
<g>
	<g>
		<g>
			<path class="st15" d="M176.2,179.8h-42c0,0,4.3,54.7,12.4,78.5l1.8,0.4c18.4,3.8,37.4,3.8,55.8,0l1.8-0.4
				c8-23.8,12.4-78.5,12.4-78.5L176.2,179.8L176.2,179.8z"/>
			<path class="st16" d="M176.2,179.8h-35.4c0,0,3.6,50.4,10.4,72.4l1.5,0.3c15.5,3.5,31.5,3.5,47,0l1.5-0.3
				c6.8-22,10.4-72.4,10.4-72.4L176.2,179.8L176.2,179.8z"/>
			<g>
				<g>
					<path class="st17" d="M176.2,191.1h-31c0,0,3.2,40.3,9.1,57.9l1.3,0.3c13.6,2.8,27.6,2.8,41.1,0l1.3-0.3
						c5.9-17.6,9.1-57.9,9.1-57.9H176.2z"/>
				</g>
				<path class="st18" d="M192.7,242c-3.8,0-3.8,5.9,0,5.9C196.5,247.8,196.5,242,192.7,242z"/>
				<g class="st19">
					<g class="st20">
						<circle class="st21" cx="182.3" cy="233.7" r="15.3"/>
					</g>
					<g class="st20">
						<ellipse class="st22" cx="182.3" cy="233.7" rx="14.3" ry="14.3"/>
					</g>
					<g class="st20">
						<ellipse class="st23" cx="182.3" cy="233.7" rx="12.1" ry="12.1"/>
					</g>
					<g class="st20">
						<path class="st24" d="M190.6,233.7c0,4.6-3.7,8.3-8.3,8.3s-8.3-3.7-8.3-8.3s3.7-8.3,8.3-8.3S190.6,229.1,190.6,233.7z"/>
					</g>
					<g class="st20">
						<g>
							<rect x="181.3" y="220.2" class="st22" width="2" height="27.4"/>
						</g>
						<g>
							<rect x="168.6" y="232.9" class="st22" width="27.4" height="2"/>
						</g>
					</g>
					<g class="st20">
						<g>
							
								<rect x="168.6" y="232.9" transform="matrix(0.7071 -0.7071 0.7071 0.7071 -111.9964 197.4224)" class="st22" width="27.4" height="2"/>
						</g>
						<g>
							
								<rect x="181.3" y="220.2" transform="matrix(0.7071 -0.7071 0.7071 0.7071 -112.0005 197.4219)" class="st22" width="2" height="27.4"/>
						</g>
						<g class="st25">
							<circle class="st21" cx="182.3" cy="233.7" r="15.3"/>
						</g>
					</g>
				</g>
				<path class="st26" d="M207.2,191.1c0,0-13.9,3.2-31,3.2s-31-3.2-31-3.2s13.9-3.2,31-3.2S207.2,191.1,207.2,191.1z"/>
				<path class="st18" d="M187.5,197.2c-3.8,0-3.8,5.9,0,5.9C191.3,203.1,191.3,197.2,187.5,197.2z"/>
				<path class="st18" d="M154.2,197c-3.8,0-3.8,5.9,0,5.9C158,202.8,158,197,154.2,197z"/>
				<path class="st18" d="M178.1,212.5c-2.2,0-2.2,3.4,0,3.4S180.3,212.5,178.1,212.5z"/>
				<path class="st18" d="M176.2,199c-2.2,0-2.2,3.4,0,3.4S178.4,199,176.2,199z"/>
				<path class="st18" d="M161.4,242.1c-2.2,0-2.2,3.4,0,3.4C163.5,245.5,163.5,242.1,161.4,242.1z"/>
				<path class="st18" d="M154.5,212.2c-2.2,0-2.2,3.4,0,3.4C156.7,215.6,156.7,212.2,154.5,212.2z"/>
			</g>
		</g>
		<path class="st27" d="M166.5,254.9c-4.6-0.3-9.1-1-13.6-1.9c-6.2-24.6-9.5-73.2-9.5-73.2h14.2C157.6,179.8,160.7,228,166.5,254.9z
			"/>
		<path class="st27" d="M185.7,254.9c4.6-0.3,9.1-1,13.6-1.9c6.2-24.6,9.5-73.2,9.5-73.2h-14.2C194.6,179.8,191.5,228,185.7,254.9z"
			/>
		<path class="st16" d="M218.2,179.8c0,0-18.8,4.4-42,4.4s-42-4.4-42-4.4s18.8-4.4,42-4.4S218.2,179.8,218.2,179.8z"/>
		<g>
			<g>
				<g>
					<path class="st28" d="M221,161.3c-4.9-2.7-15-6.9-19.6-1.6c-2.5,2.9-1.1,9.1,0.5,11.9c2.3,4.1,9.9,12.6,15.6,10
						c2.9-1.3,3.2-6.8,1.7-9.3c-3.1-5-13.1-5.5-18-4.7c-6.3,1.1-8,4.8-7.9,10.7c0.1,6.6,5.3,14,12.1,15.3c4.2,0.8,5.7-3.8,4.1-7.3
						c-2.4-5-13.6-5.3-17.9-4.2c-5.5,1.3-6,6.1-5.3,11c-0.2-1.3,0.2-2.7,0-4c0.4,2.2,0,0.4,1.1-0.9c0.8-0.9,1.7-1.3,2.8-1.7
						c2.4-0.9,5.2-1,7.7-0.7c2.9,0.3,11.5,1.3,11.7,5.4c0-1.3,0-2.7,0-3.9c-0.7,4.1-6.2,1.7-8.3,0.5c-4.2-2.6-8.2-7.4-8.2-12.5
						c0,1.1,0,2.3,0,3.4c0.7-6.7,7.7-7.8,13.4-7.4c3.9,0.3,12.5,1.5,13.2,6.7c0-1.3,0-2.7,0-3.9c-0.3,5.9-7.6,3.2-10.4,1.3
						c-4.1-2.8-8.6-7.4-9.1-12.7c0,1.1,0,2.3,0,3.4c0.1-5,7.2-5.2,10.6-4.6c3.5,0.6,7.1,1.9,10.1,3.6
						C220.4,165,221.6,161.5,221,161.3L221,161.3z"/>
				</g>
			</g>
			<g>
				<g>
					<path class="st29" d="M221,161.3c-4.9-2.7-15-6.9-19.6-1.6c-2.5,2.9-1.1,9.1,0.5,11.9c2.3,4.1,9.9,12.6,15.6,10
						c2.9-1.3,3.2-6.8,1.7-9.3c-3.1-5-13.1-5.5-18-4.7c-6.3,1.1-8,4.8-7.9,10.7c0.1,6.6,5.3,14,12.1,15.3c4.2,0.8,5.7-3.8,4.1-7.3
						c-2.4-5-13.6-5.3-17.9-4.2c-5.5,1.3-6,6.1-5.3,11c-0.2-1.3,0.2-2.7,0-4c0.4,2.2,0,0.4,1.1-0.9c0.8-0.9,1.7-1.3,2.8-1.7
						c2.4-0.9,5.2-1,7.7-0.7c2.9,0.3,11.5,1.3,11.7,5.4c0-1.3,0-2.7,0-3.9c-0.7,4.1-6.2,1.7-8.3,0.5c-4.2-2.6-8.2-7.4-8.2-12.5
						c0,1.1,0,2.3,0,3.4c0.7-6.7,7.7-7.8,13.4-7.4c3.9,0.3,12.5,1.5,13.2,6.7c0-1.3,0-2.7,0-3.9c-0.3,5.9-7.6,3.2-10.4,1.3
						c-4.1-2.8-8.6-7.4-9.1-12.7c0,1.1,0,2.3,0,3.4c0.1-5,7.2-5.2,10.6-4.6c3.5,0.6,7.1,1.9,10.1,3.6
						C220.4,165,221.6,161.5,221,161.3L221,161.3z"/>
				</g>
			</g>
		</g>
		<g>
			<path class="st30" d="M178.8,210.3c1.2,1.2,1.2,3.1,0,4.2l-9.7,9.7c-1.2,1.2-3.1,1.2-4.2,0L154,213.3c-1.2-1.2-1.2-3.1,0-4.2
				l9.7-9.7c1.2-1.2,3.1-1.2,4.2,0L178.8,210.3z"/>
			<path class="st30" d="M186.9,233.2c-1,1-2.5,1-3.5,0l-8.1-8.1c-1-1-1-2.5,0-3.5l9.1-9.1c1-1,2.5-1,3.5,0l8.1,8.1c1,1,1,2.5,0,3.5
				L186.9,233.2z"/>
			<path class="st30" d="M172.9,231.1c-0.8,0.8-2,0.8-2.6,0l-6.2-6.2c-0.8-0.8-0.8-2,0-2.6l7-7c0.8-0.8,2-0.8,2.6,0l6.2,6.2
				c0.8,0.8,0.8,2,0,2.6L172.9,231.1z"/>
			<path class="st30" d="M164.1,236.6c-0.8-0.8-0.8-1.9,0-2.6l6.1-6.1c0.8-0.8,1.9-0.8,2.6,0l6.9,6.9c0.8,0.8,0.8,1.9,0,2.6
				l-6.1,6.1c-0.8,0.8-1.9,0.8-2.6,0L164.1,236.6z"/>
		</g>
	</g>
</g>
</svg>
