<?xml version="1.0" encoding="utf-8"?>
<!-- Generator: Adobe Illustrator 23.0.0, SVG Export Plug-In . SVG Version: 6.00 Build 0)  -->
<svg version="1.1" id="Capa_1" xmlns="http://www.w3.org/2000/svg" xmlns:xlink="http://www.w3.org/1999/xlink" x="0px" y="0px"
	 viewBox="0 0 360 363" style="enable-background:new 0 0 360 363;" xml:space="preserve">
<style type="text/css">
	.st0{fill:#FFD084;}
	.st1{fill:none;stroke:#FFE1C0;stroke-width:0.7573;stroke-miterlimit:10;}
	.st2{fill:#FFD6A4;}
	.st3{fill:none;stroke:#FFE1C0;stroke-width:0.75;stroke-miterlimit:10;}
	.st4{fill:#FFE1C0;}
	.st5{fill:none;stroke:#FFD6A4;stroke-width:0.75;stroke-miterlimit:10;}
	.st6{fill:none;stroke:#FFEFE1;stroke-width:0.7478;stroke-miterlimit:10;}
	.st7{fill:#8F7CE5;}
	.st8{fill:#A6A6DD;}
	.st9{fill:#FFE5CC;}
	.st10{fill:none;stroke:#FFD6A4;stroke-miterlimit:10;}
	.st11{clip-path:url(#SVGID_2_);fill:#FFD8AE;}
	.st12{clip-path:url(#SVGID_4_);fill:#FFD8AE;}
	.st13{stroke:#FFFFFF;stroke-width:12.9122;stroke-linejoin:round;stroke-miterlimit:10;}
	.st14{fill:none;stroke:#FFFFFF;stroke-width:16.2875;stroke-linejoin:round;stroke-miterlimit:10;}
	.st15{fill:#CCCCFF;}
	.st16{fill:#B1B1EF;}
	.st17{opacity:0.6;fill:#843528;enable-background:new    ;}
	.st18{fill:#CC5F54;}
	.st19{fill:#4F1411;}
	.st20{fill:#871D39;}
	.st21{fill:#96163D;}
	.st22{fill:#9E213F;}
	.st23{fill:#A41826;}
	.st24{fill:#8F152E;}
	.st25{opacity:0.47;fill:#991631;enable-background:new    ;}
	.st26{fill:#821329;}
	.st27{opacity:0.53;fill:#8C142C;enable-background:new    ;}
	.st28{fill:#B9274B;}
	.st29{opacity:0.7;fill:#CC2B53;enable-background:new    ;}
	.st30{fill:#CC2B53;}
	.st31{fill:#941630;}
	.st32{fill:#D93C51;}
	.st33{fill:#E33F55;}
	.st34{fill:#ED4259;}
	.st35{fill:#9E3347;}
	.st36{fill:#A8364C;}
	.st37{fill:#A43A4E;}
	.st38{fill:#AD3D52;}
	.st39{fill:#B21B3C;}
	.st40{fill:#BF1D40;}
	.st41{fill:#AB2444;}
	.st42{fill:#AF2848;}
	.st43{fill:#BA2B4D;}
	.st44{fill:#C63C50;}
	.st45{fill:#CC3E52;}
	.st46{fill:#B5304F;}
	.st47{fill:#C43456;}
	.st48{fill:#BC4C64;}
	.st49{fill:#C9516B;}
	.st50{fill:#AF0838;}
	.st51{fill:#BF093D;}
	.st52{fill:#B32A47;}
	.st53{fill:#BA3252;}
	.st54{fill:#C92C4A;}
	.st55{fill:#D42E4E;}
	.st56{fill:#BB1D33;}
	.st57{fill:#C91F37;}
	.st58{fill:#D94360;}
	.st59{fill:#E34261;}
	.st60{fill:#BD2D4E;}
	.st61{fill:#C42F51;}
	.st62{fill:#D13256;}
	.st63{fill:#C83754;}
	.st64{fill:#CF3957;}
	.st65{fill:#DB3C5C;}
	.st66{fill:#D13C5C;}
	.st67{fill:#D93E5F;}
	.st68{fill:#E04062;}
	.st69{fill:#C63B50;}
	.st70{fill:#CC3D52;}
	.st71{fill:#D43F55;}
	.st72{fill:#CB455F;}
	.st73{fill:#D44863;}
	.st74{fill:#E04C69;}
	.st75{fill:#D9325D;}
	.st76{fill:#E33461;}
	.st77{fill:#ED3665;}
	.st78{fill:#C42250;}
	.st79{fill:#D12455;}
	.st80{fill:#DA5570;}
	.st81{fill:#E35875;}
	.st82{fill:#F55F7E;}
	.st83{fill:#E64970;}
	.st84{fill:#F04C75;}
	.st85{fill:#FA4F7A;}
	.st86{fill:#DA315A;}
	.st87{fill:#C84F70;}
	.st88{fill:#D45477;}
	.st89{fill:#E35A7F;}
	.st90{fill:#EB3561;}
	.st91{fill:#CD3453;}
	.st92{fill:#D93758;}
	.st93{fill:#E83B5E;}
	.st94{fill:#FA3867;}
	.st95{fill:#C44864;}
	.st96{fill:#CC4B68;}
	.st97{fill:#D9506F;}
	.st98{fill:#E33E64;}
	.st99{fill:#F0416A;}
	.st100{fill:#FF4A74;}
	.st101{fill:#F74668;}
	.st102{fill:#FF486B;}
	.st103{fill:#FF5777;}
	.st104{opacity:0.3;fill:#FFFFFF;enable-background:new    ;}
	.st105{fill:#FFFFFF;fill-opacity:0;}
</style>
<g id="fondo">
	<g id="Rectángulo_556">
		<rect y="-0.1" class="st0" width="360" height="363.3"/>
		<rect x="0.5" y="0.4" class="st0" width="359" height="362.2"/>
	</g>
	<path class="st1" d="M228.1,263.3c0,0,44-35.1,59.7-104.9c15.8-69.8-12.4-91.7-12.4-91.7S254.9,40.3,242,77.3
		c0,0-11.1,37.2-24.4,18.6c0,0-4-5.6-6.5-13s-11-10.5-11-10.5s-21.4-7.3-59.4,34.8c0,0-30.9,35.9-25.5,83.1s10.5,56.8,10.5,56.8
		L228.1,263.3z"/>
	<path class="st2" d="M225.9,276.1c0,0,43.1-35.1,58.6-104.9s-12.2-91.7-12.2-91.7s-20.1-26.4-32.8,10.6c0,0-10.9,37.2-23.9,18.6
		c0,0-3.9-5.6-6.4-13s-10.8-10.5-10.8-10.5s-21-7.3-58.2,34.8c0,0-30.3,35.9-25,83.1s10.3,56.8,10.3,56.8L225.9,276.1z"/>
	<path class="st3" d="M114.9,250.6c0,0-61.2-54.4-49.7-80.4s30.9-7.5,30.9-7.5s25.7,22.6,47.9,63.9L114.9,250.6z"/>
	<path class="st2" d="M115.8,254.7c0,0-54.1-58.6-42.6-84.6s30.9-7.5,30.9-7.5s25.7,22.6,47.9,63.9L115.8,254.7z"/>
	<path class="st4" d="M206.4,270c0,0,41.3-44.5,60.9-102.8c0,0,11.1-34-2.3-60c0,0-8.2-25.8-29.3,14.8s-29.4,11.9-29.4,11.9
		s-8.1-59.5-44-15.2s-22.9,140.1-22.9,140.1L206.4,270z"/>
	<path class="st5" d="M191.1,246.3c0,0,54.4-73,68-155.4"/>
	<path class="st6" d="M195.3,271c0,0,33.9-33.6,51.3-78.9c0,0,9.9-26.4,0.3-47.4c0,0-5.5-20.6-23.5,10.6s-23.4,8.4-23.4,8.4
		s-4.3-47.2-33.9-13.5s-22.8,109.6-22.8,109.6L195.3,271z"/>
	<g>
		
			<ellipse transform="matrix(1 -1.876236e-03 1.876236e-03 1 -0.5353 0.338)" class="st7" cx="179.9" cy="285.5" rx="102.6" ry="21.4"/>
		<polygon class="st7" points="282.5,285.3 282.7,271.4 77.5,271.8 77.3,285.7 		"/>
		
			<ellipse transform="matrix(1 -1.876236e-03 1.876236e-03 1 -0.5093 0.3384)" class="st8" cx="180.1" cy="271.6" rx="102.6" ry="21.4"/>
	</g>
	<path class="st3" d="M239.7,225.4c0,0,41.8-19.1,39.9,8.9s-53,30.9-53,30.9s-15.5-0.3-14.5-10.3C213.1,245,218.5,235.9,239.7,225.4
		z"/>
	<path class="st9" d="M229.9,227.9c0,0,37.6-26.4,40.9,1.5c3.2,27.9-46.4,40.1-46.4,40.1S209,272,208.2,262
		C207.3,252,211,242.1,229.9,227.9z"/>
	<path class="st10" d="M208.2,262c0,0,44.4-19.6,65.3-41.4"/>
	<g>
		<g>
			<g>
				<g>
					<defs>
						<path id="SVGID_1_" d="M229.9,227.9c0,0,37.6-26.4,40.9,1.5c3.2,27.9-46.4,40.1-46.4,40.1S209,272,208.2,262
							C207.3,252,211,242.1,229.9,227.9z"/>
					</defs>
					<clipPath id="SVGID_2_">
						<use xlink:href="#SVGID_1_"  style="overflow:visible;"/>
					</clipPath>
					<path class="st11" d="M240.9,216.5c0,0-27.3,46.6,4.8,50c21.5,2.3-22.9,11.5-22.9,11.5l-20.3-4.6l-1.3-29.1l20-22.9
						L240.9,216.5z"/>
				</g>
			</g>
		</g>
	</g>
	<g>
		<path class="st9" d="M128.2,230.7c0,0-34.9-21.9-37.3,9.5c0,0,6.5,28.1,39.9,22.4S128.2,230.7,128.2,230.7z"/>
	</g>
	<path class="st10" d="M143,253.3c0,0-40.9-21-62.4-13.1"/>
	<g>
		<g>
			<g>
				<g>
					<defs>
						<path id="SVGID_3_" d="M128.2,230.7c0,0-34.9-21.9-37.3,9.5c0,0,6.5,28.1,39.9,22.4S128.2,230.7,128.2,230.7z"/>
					</defs>
					<clipPath id="SVGID_4_">
						<use xlink:href="#SVGID_3_"  style="overflow:visible;"/>
					</clipPath>
					<path class="st12" d="M124.1,223.3h-4h-3.6c0,0,17.6,26,9.4,34.6c-8.3,8.6-9.4,6.7-9.4,6.7l19.6,1.8l15.9-7.2l1.2-14.3
						l-16-11.9L124.1,223.3z"/>
				</g>
			</g>
		</g>
	</g>
	<path class="st3" d="M84.5,166.6c0,0,21.6,45.3,54.6,70.4"/>
	<path class="st3" d="M103.9,168.3c0,0-5.4,4-7,10.8"/>
	<path class="st3" d="M108.2,176.4c0,0-5.3,5.3-6,14.2"/>
	<path class="st3" d="M96.9,195.4c0,0-6.3-0.5-14.9,3.6"/>
	<path class="st3" d="M102.2,201.8c0,0-10.9,0.4-15.6,3.7"/>
	<path class="st2" d="M109.5,112.7c0.1,4-3.4,7.8-6.2,10.4c-1-2.4-1.9-5-2-7.6c-0.1-2,0.7-4,2.2-5.3c0.5-0.4,1-0.8,1.7-0.9
		c0.4-0.1,0.7-0.2,1.1-0.2C108,109.3,109.4,110.9,109.5,112.7z"/>
	<path class="st2" d="M81.9,128.8c-3.1,0.3-9-1.1-11.6-3.3c-2.3-1.7-2.3-2.2-3.4-4.9c-1-2.7,0.6-5.9,3.6-6.2
		c1.5-0.2,3.1,0.2,4.3,1.1C79.1,118.4,82.6,123.4,81.9,128.8z"/>
	<path class="st4" d="M105.6,147.4c-1.9,1.1-5-0.2-4.7-2.6c-0.2-2.8,4.1-3.8,5.6-1.6C107.5,144.5,106.9,146.6,105.6,147.4z"/>
	<path class="st4" d="M319.5,90.1c-2.6,1.4-6.6-0.3-6.3-3.5c-0.2-3.8,5.5-5.1,7.4-2.1C322,86.2,321.3,88.9,319.5,90.1z"/>
	<path class="st2" d="M328.9,302.3c-3.1,1.7-7.9-0.3-7.6-4.2c-0.3-4.5,6.6-6.1,8.9-2.5C331.9,297.6,331,300.9,328.9,302.3z"/>
	<path class="st4" d="M286.4,314c-2,1.1-5.2-0.2-5-2.8c-0.2-3,4.3-4,5.8-1.7C288.4,311,287.9,313.1,286.4,314z"/>
	<path class="st2" d="M61.9,249.7c-2.6,1.4-6.6-0.3-6.3-3.5c-0.2-3.8,5.5-5.1,7.4-2.1C64.4,245.8,63.7,248.5,61.9,249.7z"/>
	
		<ellipse transform="matrix(0.3506 -0.9365 0.9365 0.3506 -99.1611 229.9918)" class="st9" cx="116.3" cy="186.5" rx="2.7" ry="1.7"/>
	
		<ellipse transform="matrix(0.3506 -0.9365 0.9365 0.3506 -107.5473 238.2236)" class="st9" cx="118" cy="196.7" rx="2.7" ry="1.7"/>
	
		<ellipse transform="matrix(0.3506 -0.9365 0.9365 0.3506 -136.5256 236.2146)" class="st0" cx="102.1" cy="216.6" rx="3" ry="1.8"/>
</g>
<path class="st13" d="M139.2,189.7c0.2-0.1,0.3-0.1,0.5,0c3.8,2,7.7,4.1,11.8,6.3c0-0.1,0-0.2,0-0.2c0-0.3,0-0.6,0.2-0.9
	c0.2-0.3,0.6-0.5,0.9-0.6c0.3-0.1,0.8,0,1.2,0.1c0-0.1-0.1-0.3-0.1-0.3c0-0.3,0-0.5,0.1-0.8c0.4-1.5,2.8-1.5,3.4-0.3
	c0.2-0.3,0.4-0.7,0.8-0.9c0.6-0.4,1.6-0.5,2.2,0.1c0.2,0.2,0.3,0.4,0.3,0.8c0.9-0.4,2-0.4,2.8,0.1c0.5,0.3,0.9,0.8,0.9,1.4
	c0,0.3-0.1,0.6-0.3,0.9c0.3,0.3,0.7,0.5,0.9,0.9c0.3-0.1,0.5,0,0.6,0.2c0,0,0.1,0,0.1-0.1c0.4-0.2,0.9-0.1,1.4,0.2
	c0.3-0.6,0.9-0.9,1.5-1.1c0.4-0.1,0.9-0.1,1.2,0.1c0.3,0.2,0.5,0.4,0.8,0.7c0.2-0.1,0.4-0.3,0.7-0.3c0.3-0.1,0.6-0.2,0.9-0.1
	c0.3,0.1,0.7,0.4,0.9,0.8c0.2,0.3,0.3,0.8,0.3,1.2c0.1-0.1,0.3-0.1,0.3-0.2c0.3-0.1,0.5-0.2,0.7-0.2c1.5,0.1,2.2,2.2,1.2,3.2
	c0.4,0,0.8,0.2,1.1,0.4c0.6,0.5,0.9,1.5,0.5,2.2c-0.2,0.3-0.3,0.3-0.7,0.5c0.6,0.6,0.9,1.5,0.8,2.3h15.8c-3.9,4.9-7.5,9.9-10.5,15.3
	c-2.1,3.7-3.8,7.6-5.8,11.4l-25.8-26.8h1.2c-0.5-0.4-0.9-1.1-0.9-1.6c0-0.3,0-0.6,0.1-0.9c-0.1,0-0.1,0-0.2,0
	c-0.1,0-0.2-0.1-0.3-0.1c-0.3-0.3-0.6-0.8-0.6-1.2c0-0.4,0.2-0.6,0.3-0.7v-0.1c0-0.5,0.3-0.9,0.5-1.3c-0.4-0.4-0.7-1.1-0.6-1.8
	c0-0.4,0.1-0.9,0.4-1.2l0.1-0.1c-3.9-2.2-7.7-4.2-11.6-6.3C138.9,190.4,138.9,189.9,139.2,189.7z"/>
<g>
	<path class="st14" d="M210.1,195.8C210.1,195.8,210.2,195.7,210.1,195.8c0-1.7-13.6-3-30.3-3c-16.8,0-30.4,1.3-30.4,2.9v0.1l0,0
		v54.9V261c0,2.4,1.9,4.3,4.3,4.3H206c2.4,0,4.3-1.9,4.3-4.3v-10.2v-54.9L210.1,195.8L210.1,195.8z"/>
	<path class="st15" d="M147.9,195.8V261c0,2.4,2,4.3,4.5,4.3h55.2c2.5,0,4.5-1.9,4.5-4.3v-65.2H147.9z"/>
	<ellipse class="st16" cx="179.9" cy="195.7" rx="32.1" ry="2.9"/>
	<path class="st16" d="M207.6,255h-55.2c-2.5,0-4.5-1.9-4.5-4.3V261c0,2.4,2,4.3,4.5,4.3h55.2c2.5,0,4.5-1.9,4.5-4.3v-10.2
		C212.1,253.1,210.1,255,207.6,255z"/>
	<g>
		<path class="st17" d="M153.1,212.4v35.9c0,2.4,1.7,4.2,3.7,4.2h45.9c2.1,0,3.7-1.9,3.7-4.2v-35.9H153.1z"/>
		<ellipse class="st18" cx="179.7" cy="212.4" rx="26.6" ry="3.3"/>
	</g>
	<g>
		<path class="st19" d="M139.7,189.7c13,6.9,28.1,15,42.5,23.7c0.1,0.1,0.2,0.2,0.2,0.3c0,0.2-0.1,0.3-0.2,0.3
			c-0.1,0.1-0.3,0.1-0.3,0c-6.7-3.6-13.4-7.3-20-10.9c-7.4-4.1-15.1-8.4-22.7-12.5c-0.3-0.2-0.3-0.8,0-0.9
			C139.4,189.6,139.6,189.6,139.7,189.7z"/>
		<g>
			<path class="st20" d="M166.9,202.9c0.5-0.4,1.4-0.5,1.9,0c0.9,0.9-0.2,3.7-1.5,3.4c-0.6-0.1-0.9-0.7-1-1.2
				C166.1,204.3,166.2,203.3,166.9,202.9z"/>
			<path class="st21" d="M169.1,201.5c0.5-0.4,1.4-0.5,1.9,0c0.9,0.9-0.2,3.7-1.5,3.4c-0.6-0.1-0.9-0.7-1-1.2
				C168.2,203,168.4,202,169.1,201.5z"/>
			<path class="st22" d="M169.1,204.3c0.1-0.7,0.7-1.4,1.4-1.3c1.3,0.2,2.4,2.8,1.2,3.6c-0.4,0.3-1.1,0.2-1.5-0.2
				C169.4,206,168.9,205.1,169.1,204.3z"/>
			<path class="st23" d="M173.7,204c0.4,0.4,0.7,1.1,0.3,1.6c-0.7,1-3.3,0.7-3.4-0.6c0-0.5,0.4-0.9,0.9-1.1
				C172.3,203.7,173.1,203.6,173.7,204z"/>
			<path class="st24" d="M173.1,201.4c0.6,0.2,1.2,0.7,1.1,1.3c-0.2,1.1-2.6,2.1-3.3,0.9c-0.3-0.4,0-0.9,0.3-1.4
				C171.7,201.7,172.4,201.3,173.1,201.4z"/>
			<path class="st25" d="M173.2,202c0.4,0.1,0.9,0.4,0.8,0.9c-0.2,0.9-1.9,1.5-2.3,0.7c-0.2-0.3,0-0.7,0.2-0.9
				C172.2,202.2,172.7,201.9,173.2,202z"/>
			<path class="st26" d="M171.9,199.3c0.7-0.1,1.5,0.3,1.5,1c0.2,1.3-2.2,3-3.2,2.1c-0.4-0.3-0.3-1-0.2-1.5
				C170.5,200.1,171.1,199.3,171.9,199.3z"/>
			<path class="st27" d="M172.3,199.6c0.4,0,1,0.3,1.1,0.8c0.2,0.9-1.5,2.2-2.3,1.5c-0.3-0.3-0.3-0.8-0.2-1.1
				C171.1,200.2,171.6,199.7,172.3,199.6z"/>
			<path class="st28" d="M176.5,200.9c0.6,0.5,1,1.5,0.5,2.2c-0.9,1.3-4.3,0.9-4.4-0.8c0-0.7,0.5-1.2,1.1-1.5
				C174.6,200.5,175.7,200.4,176.5,200.9z"/>
			<path class="st29" d="M176.6,201.4c0.3,0.3,0.5,0.8,0.3,1.2c-0.5,0.8-2.4,0.5-2.5-0.4c-0.1-0.4,0.3-0.7,0.6-0.9
				C175.5,201.1,176.1,201,176.6,201.4z"/>
			<path class="st30" d="M175.9,201.5c0.2,0.2,0.3,0.4,0.2,0.6c-0.3,0.3-1.2,0.2-1.2-0.3c-0.1-0.2,0.1-0.3,0.3-0.4
				C175.4,201.4,175.6,201.4,175.9,201.5z"/>
			<path class="st24" d="M169.3,198.6c0.5-0.3,1.4-0.3,1.8,0.3c0.7,1.1-0.7,3.6-2.1,3.2c-0.5-0.2-0.8-0.9-0.8-1.4
				C168.1,199.8,168.5,198.9,169.3,198.6z"/>
			<path class="st31" d="M169.2,198.2c0.5-0.3,1.3-0.3,1.6,0.3c0.6,0.9-0.6,3.2-1.8,2.8c-0.4-0.2-0.7-0.7-0.7-1.2
				C168.3,199.3,168.6,198.5,169.2,198.2z"/>
			<path class="st22" d="M165.9,201.2c0.1-0.7,0.7-1.4,1.4-1.3c1.3,0.2,2.4,2.8,1.2,3.6c-0.4,0.3-1.1,0.2-1.5-0.2
				C166.2,202.8,165.7,202,165.9,201.2z"/>
			<path class="st32" d="M172.8,205.3c-0.1-0.2-0.2-0.4-0.2-0.7c0-0.3,0.2-0.7,0.3-0.9c0.7-0.9,2.1-1,3-0.3c0.9,0.7,1.4,1.9,1,3
				c-0.2,0.5-0.5,1-1,1.3C174.9,208.2,173.1,206.4,172.8,205.3z"/>
			<path class="st33" d="M173.5,205.2c-0.1-0.2-0.1-0.3-0.1-0.5c0-0.3,0.1-0.5,0.3-0.7c0.5-0.6,1.5-0.7,2.2-0.3
				c0.7,0.5,1,1.5,0.8,2.2c-0.1,0.3-0.3,0.8-0.8,0.9C175,207.3,173.7,205.9,173.5,205.2z"/>
			<path class="st34" d="M174.9,205.1c-0.1-0.1-0.1-0.2-0.1-0.3c0-0.2,0-0.3,0.1-0.3c0.3-0.3,0.7-0.3,1-0.1c0.3,0.3,0.4,0.7,0.3,1
				c-0.1,0.2-0.2,0.3-0.3,0.4C175.6,206,175,205.4,174.9,205.1z"/>
			<path class="st35" d="M166.5,211.2c-0.9,0-1.8,0.2-2.5,0.8c-0.2,0.2-0.3,0.4-0.3,0.7c0,0.3,0.3,0.4,0.5,0.5
				c0.7,0.3,1.4,0.3,2.1,0.1c0.3-0.2,0.7-0.3,0.9-0.7C167.8,211.8,167.4,211.1,166.5,211.2z"/>
			<path class="st36" d="M166.3,211.4c-0.6,0.1-1.3,0.2-1.8,0.6c-0.2,0.2-0.3,0.3-0.3,0.5c0,0.3,0.2,0.3,0.3,0.4
				c0.4,0.3,0.9,0.3,1.5,0.1c0.3-0.1,0.5-0.3,0.7-0.5C167.2,212,166.9,211.5,166.3,211.4z"/>
			<path class="st37" d="M163.6,210c-0.9-0.2-2.8,0.7-2.1,1.9c0.1,0.2,0.3,0.3,0.4,0.4c0.3,0.2,0.4,0.3,0.7,0.3
				c0.3,0.1,0.8,0,1.1-0.2c0.3-0.1,0.4-0.2,0.6-0.3C165.1,211.3,164.6,210,163.6,210z"/>
			<path class="st38" d="M163.7,210.2c-0.7-0.1-2.1,0.5-1.5,1.5c0,0.2,0.2,0.3,0.3,0.3c0.2,0.1,0.3,0.2,0.5,0.3
				c0.3,0.1,0.6,0,0.9-0.1c0.2-0.1,0.3-0.2,0.4-0.3C164.9,211.3,164.5,210.3,163.7,210.2z"/>
			<path class="st39" d="M162.1,208.4c-1.1-0.1-2.7,0.7-1.9,2c0.2,0.3,0.5,0.7,0.9,0.8s0.9-0.2,1.2-0.4
				C163.3,210.1,163.5,208.6,162.1,208.4z"/>
			<path class="st40" d="M162.1,208.4c-1-0.1-2.4,0.6-1.7,1.7c0.2,0.3,0.5,0.6,0.9,0.7c0.4,0,0.8-0.2,1.1-0.4
				C163.2,209.8,163.4,208.4,162.1,208.4z"/>
			<path class="st22" d="M159.9,206.5c-0.3,0.2-0.7,0.4-0.9,0.7c-0.3,0.3-0.4,0.7-0.3,1c0.2,0.4,0.5,0.7,0.9,0.9
				c0.1,0.1,0.2,0.2,0.3,0.2c0.2,0.1,0.3,0,0.5,0c0.5-0.1,1-0.4,1.3-0.8c0.3-0.3,0.4-0.9,0.3-1.3
				C161.7,206.7,160.6,206.3,159.9,206.5z"/>
			<path class="st41" d="M160.6,207c-0.3,0.2-0.6,0.3-0.8,0.5c-0.2,0.2-0.3,0.5-0.3,0.8c0.1,0.3,0.3,0.5,0.7,0.7
				c0.1,0,0.2,0.1,0.3,0.1c0.2,0,0.3,0,0.4,0c0.3-0.1,0.7-0.3,0.9-0.6c0.3-0.3,0.3-0.7,0.2-1C161.9,207,161.1,206.6,160.6,207z"/>
			<path class="st42" d="M160.5,204.5c-0.7-0.4-1.8-0.1-1.8,0.8c0,0.3,0,0.6,0.2,0.9c0.3,0.4,0.8,0.7,1.3,0.6
				C161.2,206.5,161.3,205.1,160.5,204.5z"/>
			<path class="st43" d="M160.6,204.8c-0.4-0.3-1.2,0-1.2,0.5c0,0.3,0,0.4,0.1,0.6c0.1,0.3,0.4,0.4,0.8,0.3
				C160.9,206.1,161,205.1,160.6,204.8z"/>
			<path class="st44" d="M169.5,210.9c-0.5-0.9-2.1-0.6-2.7,0.1c-0.3,0.4-0.4,1.1,0,1.5c0.3,0.2,0.6,0.3,0.9,0.3
				C168.7,212.7,170.2,211.9,169.5,210.9z"/>
			<path class="st45" d="M169.4,210.6c-0.4-0.8-1.6-0.5-2.2,0.1c-0.3,0.3-0.3,0.9,0,1.3c0.3,0.3,0.5,0.3,0.8,0.3
				C168.7,212.1,170,211.5,169.4,210.6z"/>
			<path class="st46" d="M166.8,209.6c-0.7-0.3-1.4,0.3-1.9,0.7c-0.3,0.2-0.6,0.4-0.7,0.8c-0.1,0.3,0.1,0.6,0.3,0.9
				c0.2,0.2,0.5,0.3,0.9,0.3c0.4,0.1,0.9,0,1.3-0.2c0.4-0.2,0.8-0.5,0.9-0.9C167.8,210.5,167.4,209.8,166.8,209.6z"/>
			<path class="st47" d="M166.9,209.7c-0.4-0.2-0.9,0.3-1.2,0.4c-0.2,0.2-0.3,0.3-0.4,0.5c-0.1,0.3,0,0.4,0.2,0.6
				c0.2,0.2,0.4,0.3,0.6,0.3c0.3,0.1,0.6,0,0.9-0.1c0.3-0.1,0.4-0.3,0.5-0.6C167.6,210.4,167.4,210,166.9,209.7z"/>
			<path class="st48" d="M164.7,208.3c-0.4,0-1.1,0.4-1.5,0.7c-0.3,0.2-0.4,0.3-0.5,0.5c-0.1,0.3,0.1,0.6,0.3,0.9
				c0.3,0.3,0.5,0.6,0.9,0.8c0.4,0.2,0.9,0,1.4-0.2c0.3-0.1,0.5-0.3,0.7-0.4c0.2-0.2,0.3-0.5,0.3-0.8c-0.1-0.3-0.3-0.6-0.5-0.8
				C165.3,208.8,165,208.3,164.7,208.3z"/>
			<path class="st49" d="M165.1,208.4c-0.3,0-0.9,0.3-1.2,0.5c-0.2,0.1-0.3,0.2-0.4,0.3c-0.1,0.3,0,0.5,0.2,0.7
				c0.2,0.3,0.4,0.5,0.7,0.6c0.3,0.2,0.8,0.1,1.1-0.1c0.2-0.1,0.3-0.2,0.5-0.3c0.1-0.2,0.2-0.3,0.2-0.6c0-0.3-0.2-0.4-0.3-0.6
				C165.6,208.7,165.4,208.4,165.1,208.4z"/>
			<path class="st50" d="M160.7,207.9c-0.1,0.1-0.1,0.3-0.1,0.3c0,0.1,0,0.2,0.1,0.3c0.3,0.6,1,1.2,1.7,1.1c0.3,0,0.5-0.1,0.7-0.2
				c0.3-0.1,0.4-0.2,0.6-0.3c0.3-0.3,0.3-0.8,0.2-1.2C163.3,206.3,161.5,206.5,160.7,207.9z"/>
			<path class="st51" d="M161.8,207.9c-0.1,0.1-0.1,0.2-0.1,0.3c0,0.1,0.1,0.1,0.1,0.2c0.3,0.5,0.8,0.9,1.3,0.9
				c0.2,0,0.3-0.1,0.5-0.2c0.2-0.1,0.3-0.2,0.4-0.3c0.2-0.3,0.2-0.6,0.1-0.9C163.6,206.6,162.2,206.8,161.8,207.9z"/>
			<path class="st52" d="M161.2,204.4c-1,0.3-1.6,1.7-1,2.5c0.3,0.3,0.7,0.4,1.1,0.4c0.4-0.1,0.9-0.3,1.2-0.4
				c0.3-0.2,0.5-0.3,0.6-0.6C163.2,205.3,162.1,204.1,161.2,204.4z"/>
			<path class="st53" d="M161.4,204.6c-0.8,0.1-1.3,1.3-0.8,2c0.3,0.3,0.6,0.3,0.9,0.3c0.3-0.1,0.6-0.2,0.9-0.3
				c0.2-0.1,0.3-0.2,0.4-0.4C163.1,205.4,162.2,204.5,161.4,204.6z"/>
			<path class="st54" d="M160.8,202.3c-0.3,0-0.7,0-0.9,0.2c-0.4,0.3-0.6,0.8-0.6,1.2c0,0.3,0.1,0.5,0.3,0.7
				c0.3,0.3,0.5,0.3,0.9,0.3c0.7,0,1.5,0.1,1.9-0.4C163.4,203.1,161.8,202.4,160.8,202.3z"/>
			<path class="st55" d="M161.2,202.6c-0.2,0-0.4,0-0.6,0.1c-0.3,0.1-0.4,0.4-0.4,0.8c0,0.2,0.1,0.3,0.2,0.5
				c0.2,0.1,0.4,0.2,0.6,0.2c0.4,0.1,0.9,0.1,1.3-0.3C163.1,203.2,161.9,202.6,161.2,202.6z"/>
			<path class="st56" d="M160.2,200.3c-0.3,0.2-0.3,0.4-0.5,0.7c-0.1,0.1-0.2,0.2-0.2,0.3c0,0.2,0.1,0.3,0.1,0.3
				c0.2,0.4,0.6,0.8,1,0.9c0.3,0,0.7-0.1,0.9-0.3c0.3-0.2,0.5-0.5,0.7-0.8c0.2-0.2,0.3-0.4,0.3-0.7c0-0.4-0.3-0.8-0.8-0.9
				C161.9,199.9,160.5,200.2,160.2,200.3z"/>
			<path class="st57" d="M160.5,200.6c-0.2,0.2-0.3,0.3-0.3,0.5c0,0.1-0.1,0.2-0.1,0.3c-0.1,0.1,0,0.2,0,0.3
				c0.2,0.3,0.4,0.6,0.8,0.6c0.3,0,0.5-0.1,0.7-0.3c0.3-0.2,0.3-0.4,0.5-0.6c0.2-0.2,0.3-0.3,0.3-0.5c0.1-0.3-0.2-0.5-0.5-0.6
				C161.8,200.2,160.7,200.4,160.5,200.6z"/>
			<path class="st58" d="M171.8,210.1c0.2-0.5,0.6-0.9,1-1.1c0.3-0.2,0.9-0.3,1.1,0.1c0.4,0.5-0.3,1.1-0.6,1.5
				c-0.2,0.3-0.4,0.5-0.7,0.6C171.8,211.4,171.6,210.7,171.8,210.1z"/>
			<path class="st59" d="M172.1,209.8c0.2-0.3,0.5-0.7,0.9-0.9c0.3-0.1,0.6-0.2,0.9,0.1c0.3,0.4-0.3,0.9-0.5,1.2
				c-0.2,0.3-0.3,0.4-0.6,0.5C172,211,171.8,210.3,172.1,209.8z"/>
			<path class="st60" d="M171.2,209.1c0.6,0.2,0.9,0.6,0.9,1.3c0,1-1,1.4-1.7,1.5c-0.3,0.1-0.7,0.1-0.9-0.1
				C168.1,210.8,170.2,208.8,171.2,209.1z"/>
			<path class="st61" d="M171.3,209.5c0.3,0.1,0.6,0.4,0.6,0.9c0,0.7-0.7,0.9-1.2,1c-0.3,0.1-0.5,0.2-0.7,0
				C169,210.7,170.5,209.3,171.3,209.5z"/>
			<path class="st62" d="M171.4,209.6c0.3,0.1,0.3,0.3,0.3,0.5c-0.1,0.4-0.4,0.5-0.7,0.6c-0.1,0.1-0.3,0.1-0.3,0
				C170.1,210.4,171,209.6,171.4,209.6z"/>
			<path class="st63" d="M168.5,207.7c-0.7,0.3-1.9,2.2-1.4,2.9c0.1,0.1,0.2,0.2,0.3,0.3c0.4,0.2,1,0.2,1.5,0c0.4-0.3,0.8-0.6,1-1.1
				C170.4,208.8,169.6,207.2,168.5,207.7z"/>
			<path class="st64" d="M168.7,208.5c-0.4,0.2-1.2,1.3-0.9,1.8c0.1,0.1,0.2,0.1,0.3,0.2c0.3,0.2,0.7,0.2,0.9,0
				c0.3-0.2,0.5-0.3,0.7-0.7C169.9,209.2,169.5,208.2,168.7,208.5z"/>
			<path class="st65" d="M168.9,208.9c-0.3,0.1-0.7,0.8-0.5,1c0,0,0,0.1,0.1,0.1c0.2,0.1,0.3,0.1,0.5,0s0.3-0.3,0.3-0.4
				C169.5,209.3,169.2,208.7,168.9,208.9z"/>
			<path class="st66" d="M165.7,206c-1.1,0.1-2.2,1.5-2.3,2.5c-0.1,0.4,0,0.9,0.3,1.3c0.2,0.2,0.4,0.3,0.6,0.3
				c0.4,0.2,0.9,0.3,1.4,0.3s0.8-0.3,1-0.4c0.5-0.3,1-0.9,1.1-1.5C168,207.5,166.9,206,165.7,206z"/>
			<path class="st67" d="M165.9,206.5c-0.8,0-1.5,1.1-1.7,1.8c-0.1,0.3,0,0.7,0.3,0.9c0.1,0.2,0.3,0.2,0.4,0.3
				c0.3,0.2,0.7,0.3,1,0.3c0.3-0.1,0.5-0.2,0.8-0.3c0.3-0.3,0.7-0.6,0.8-1C167.6,207.6,166.8,206.6,165.9,206.5z"/>
			<path class="st68" d="M166.4,207.6c-0.3,0-0.7,0.5-0.8,0.9c-0.1,0.2,0,0.3,0.1,0.4c0,0,0.1,0.1,0.2,0.1c0.1,0,0.3,0.1,0.4,0.1
				c0.1,0,0.3-0.1,0.3-0.2c0.2-0.2,0.3-0.3,0.3-0.5C167.1,208,166.8,207.5,166.4,207.6z"/>
			<path class="st69" d="M164,203.2c-2.2,0-3.7,3-1.5,4.2c0.9,0.4,1.9,0.3,2.8-0.2C167.2,206.1,166.1,203.1,164,203.2z"/>
			<path class="st70" d="M164.1,203.9c-1.5,0-2.6,2.1-1,2.9c0.6,0.3,1.4,0.3,2-0.1C166.3,205.9,165.6,203.9,164.1,203.9z"/>
			<path class="st71" d="M164.9,204.3c-1,0-1.7,1.4-0.7,1.9c0.4,0.2,0.9,0.2,1.3-0.1C166.3,205.6,165.8,204.3,164.9,204.3z"/>
			<path class="st72" d="M161.1,202.9c-0.1-0.3-0.1-0.4-0.1-0.7c0-0.2,0.1-0.4,0.3-0.6c0.2-0.3,0.3-0.4,0.4-0.6
				c0.2-0.1,0.3-0.3,0.4-0.3c0.6-0.3,1.4-0.3,1.9,0.1C166.1,202.3,162.2,205.7,161.1,202.9z"/>
			<path class="st73" d="M162,202.6c-0.1-0.2-0.1-0.3-0.1-0.4c0-0.1,0.1-0.3,0.2-0.3c0.1-0.1,0.2-0.3,0.3-0.3c0.1,0,0.2-0.1,0.3-0.2
				c0.3-0.2,0.8-0.2,1.1,0.1C165,202.4,162.6,204.5,162,202.6z"/>
			<path class="st74" d="M162.8,202.6c0-0.1,0-0.2,0-0.3s0-0.2,0.1-0.3c0.1-0.1,0.1-0.1,0.2-0.2c0.1,0,0.1-0.1,0.2-0.1
				c0.2-0.2,0.4-0.2,0.6,0C164.5,202.4,163.1,203.6,162.8,202.6z"/>
			<path class="st75" d="M162.7,197.7c-1,0.5-2.4,2.9-0.8,3.7c0.9,0.4,2.1,0,2.6-0.9C165.5,199.1,164.5,197,162.7,197.7z"/>
			<path class="st76" d="M163.3,198.5c-0.7,0.3-1.5,1.9-0.5,2.4c0.6,0.3,1.3-0.1,1.6-0.6C165,199.5,164.4,198.1,163.3,198.5z"/>
			<path class="st77" d="M164,198.9c-0.4,0.2-1,1.2-0.3,1.5c0.3,0.2,0.8,0,1-0.3C165.1,199.6,164.7,198.7,164,198.9z"/>
			<path class="st78" d="M164.1,198.3c-0.3-0.2-0.5-0.6-0.5-0.9c0-0.1,0.1-0.2,0.1-0.3c0.2-0.4,0.6-0.7,1-0.9
				C166.3,195.8,165.6,198.9,164.1,198.3z"/>
			<path class="st79" d="M164.4,198.7c-0.3-0.2-0.5-0.6-0.5-0.9c0-0.1,0.1-0.2,0.1-0.3c0.2-0.4,0.6-0.7,1-0.9
				C166.7,196.1,165.9,199.2,164.4,198.7z"/>
			<path class="st80" d="M171.9,209.2c-0.4-0.3-0.6-0.9-0.7-1.5c-0.1-0.5,0-1.2,0.3-1.6c0-0.1,0-0.1,0.1-0.2
				c0.2-0.2,0.3-0.3,0.6-0.4c0.8-0.3,1.8-0.3,2.4,0.3C176.2,207.3,173.7,210.7,171.9,209.2z"/>
			<path class="st81" d="M172.9,208.2c-0.3-0.2-0.4-0.5-0.4-0.9c0-0.3,0.1-0.7,0.3-0.9l0.1-0.1c0.1-0.1,0.3-0.2,0.3-0.3
				c0.4-0.2,1-0.2,1.4,0.2C175.5,207.2,174,209.2,172.9,208.2z"/>
			<path class="st82" d="M174,207.3c-0.1-0.1-0.2-0.3-0.2-0.3s0-0.3,0.1-0.3l0,0c0,0,0-0.1,0.1-0.1c0.2,0,0.4,0,0.5,0.1
				C174.8,207,174.2,207.6,174,207.3z"/>
			<path class="st83" d="M171.2,210.2c-1.3,0-2.8-1.5-2.5-2.8c0-0.3,0.2-0.5,0.3-0.8c0.1-0.2,0.2-0.4,0.3-0.5
				c0.1-0.2,0.3-0.2,0.4-0.3c0.4-0.2,0.9-0.3,1.4-0.3s0.9,0.2,1.2,0.5c0.2,0.2,0.3,0.4,0.3,0.7C173,207.9,172.7,210.1,171.2,210.2z"
				/>
			<path class="st84" d="M171.4,209.4c-0.9,0.1-2-1-1.8-2c0-0.3,0.1-0.4,0.2-0.6c0.1-0.1,0.2-0.3,0.3-0.3c0.1-0.1,0.3-0.2,0.3-0.2
				c0.3-0.1,0.6-0.2,0.9-0.2s0.6,0.1,0.9,0.3c0.1,0.2,0.2,0.3,0.3,0.5C172.7,207.8,172.4,209.4,171.4,209.4z"/>
			<path class="st85" d="M171.6,207.9c-0.4,0-0.9-0.5-0.9-0.9c0-0.1,0.1-0.2,0.1-0.3c0-0.1,0-0.2,0.1-0.2c0.1-0.1,0.1-0.1,0.2-0.1
				c0.1-0.1,0.3-0.1,0.4-0.1c0.2,0,0.3,0.1,0.4,0.2c0,0.1,0.1,0.2,0.1,0.3C172.1,207.2,172,208,171.6,207.9z"/>
			<path class="st86" d="M167.4,204.1c-0.9,0.3-2,0.9-1.8,2c0.2,1,0.9,1.9,1.8,2.3c0.3,0.1,0.5,0.2,0.8,0.2c0.3,0,0.6-0.2,0.9-0.3
				c0.5-0.3,1-0.5,1.2-1C170.9,205.7,169.2,203.7,167.4,204.1z"/>
			<path class="st87" d="M174.8,200.9c-0.6,0.2-1.9,0.3-2.4,0.1c-0.9-0.3-0.7-1.7-0.3-2.4c0.3-0.4,0.9-0.8,1.4-1
				c0.2-0.1,0.4-0.2,0.7-0.2C176,197.4,176.6,200.4,174.8,200.9z"/>
			<path class="st88" d="M174.9,200.4c-0.3,0.1-1.1,0.2-1.5,0.1c-0.6-0.2-0.4-1-0.2-1.5c0.3-0.3,0.5-0.5,0.9-0.7
				c0.1-0.1,0.3-0.1,0.4-0.1C175.5,198.3,176,200.2,174.9,200.4z"/>
			<path class="st89" d="M175,200.2c-0.2,0-0.5,0.1-0.7,0c-0.3-0.1-0.2-0.5-0.1-0.7c0.1-0.1,0.2-0.2,0.3-0.3c0,0,0.1,0,0.2,0
				C175.2,199.3,175.4,200.2,175,200.2z"/>
			<path class="st90" d="M168.1,204.6c-0.7,0.2-1.4,0.6-1.3,1.4c0.2,0.6,0.7,1.3,1.3,1.5c0.2,0,0.3,0.1,0.5,0.1
				c0.3,0,0.4-0.1,0.6-0.2c0.3-0.2,0.7-0.3,0.8-0.7C170.4,205.7,169.3,204.4,168.1,204.6z"/>
			<path class="st91" d="M171.5,199.7c-1.3-0.3-2.2-2.4-1.2-3.4c0.3-0.3,0.6-0.4,0.9-0.5c0.3-0.1,0.6-0.2,0.9-0.1
				c0.4,0.1,0.7,0.4,0.9,0.8C173.5,197.6,173.1,200.1,171.5,199.7z"/>
			<path class="st92" d="M171.7,199.1c-0.9-0.3-1.6-1.7-0.9-2.4c0.2-0.2,0.4-0.3,0.7-0.3c0.3-0.1,0.5-0.2,0.7-0.1
				c0.3,0.1,0.5,0.3,0.6,0.6C173.1,197.7,172.9,199.5,171.7,199.1z"/>
			<path class="st93" d="M172.2,198.8c-0.4-0.1-0.8-0.8-0.4-1.1c0.1-0.1,0.3-0.2,0.3-0.2c0.1,0,0.2,0,0.3,0s0.2,0.2,0.3,0.3
				C172.8,198.1,172.7,198.9,172.2,198.8z"/>
			<path class="st94" d="M168.6,205.1c-0.3,0.1-0.8,0.3-0.7,0.8c0.1,0.3,0.3,0.7,0.7,0.9c0.1,0.1,0.2,0.1,0.3,0.1
				c0.2,0,0.3,0,0.3-0.1c0.2-0.1,0.3-0.3,0.4-0.4C169.9,205.7,169.2,204.9,168.6,205.1z"/>
			<path class="st95" d="M167.7,199.2c-0.7-0.6-1.2-1.5-0.9-2.3c0.3-0.8,0.9-1.3,1.7-1.5c0.3-0.1,0.9-0.1,1.2,0.1
				c0.6,0.3,0.9,0.9,1.1,1.5c0.2,0.4,0.3,0.9,0.2,1.5c-0.1,0.3-0.3,0.7-0.5,1C169.8,200.6,168.5,199.9,167.7,199.2z"/>
			<path class="st96" d="M168.7,198.8c-0.4-0.3-0.8-0.9-0.6-1.5c0.1-0.4,0.6-0.8,1-0.9c0.3-0.1,0.5-0.1,0.8,0
				c0.3,0.2,0.6,0.6,0.7,0.9s0.2,0.6,0.1,0.9c-0.1,0.3-0.2,0.5-0.3,0.7C169.9,199.7,169.2,199.4,168.7,198.8z"/>
			<path class="st97" d="M169.4,198.8c-0.2-0.2-0.3-0.4-0.3-0.7c0.1-0.3,0.3-0.3,0.5-0.4c0.1-0.1,0.3-0.1,0.3,0
				c0.2,0.1,0.3,0.3,0.3,0.4c0,0.2,0,0.3,0,0.4c-0.1,0.2-0.1,0.3-0.2,0.3C169.9,199.2,169.6,199,169.4,198.8z"/>
			<path class="st98" d="M168.8,200.4c-0.8,1.6-3,0.8-4-0.3c-0.4-0.5-0.9-1.1-0.8-1.8c0-0.3,0.2-0.7,0.3-0.9c0.3-0.4,0.6-0.9,1.1-1
				c0.5-0.2,1-0.1,1.5,0.2C168.2,197.1,169.4,198.9,168.8,200.4z"/>
			<path class="st99" d="M168.3,200.2c-0.5,1.1-2.1,0.5-2.7-0.2c-0.3-0.3-0.6-0.8-0.5-1.2c0-0.2,0.2-0.4,0.3-0.6
				c0.3-0.3,0.4-0.6,0.8-0.7c0.3-0.2,0.6-0.1,0.9,0.1C167.9,198,168.7,199.2,168.3,200.2z"/>
			<path class="st100" d="M168,199.9c-0.3,0.6-1,0.3-1.4-0.1c-0.2-0.2-0.3-0.3-0.3-0.6c0.1-0.2,0.1-0.3,0.2-0.3
				c0.2-0.1,0.3-0.3,0.4-0.3c0.2,0,0.3,0,0.5,0.1C167.9,198.8,168.3,199.5,168,199.9z"/>
			<path class="st101" d="M166.2,199.9c-1.3-0.8-2.9,0.6-2.8,2c0,0.7,0.3,1.4,0.6,2c0.3,0.6,0.9,1.1,1.5,1.1c0.3,0,0.6-0.1,0.9-0.3
				c0.3-0.2,0.7-0.3,0.9-0.7C168.3,202.9,167.4,200.8,166.2,199.9z"/>
			<path class="st102" d="M166.6,201.4c-0.7-0.4-1.5,0.3-1.5,1.1c0,0.4,0.2,0.8,0.3,1.1c0.2,0.3,0.5,0.6,0.9,0.6
				c0.2,0,0.3-0.1,0.5-0.2c0.2-0.1,0.3-0.3,0.5-0.4C167.8,203,167.3,201.8,166.6,201.4z"/>
			<path class="st103" d="M166.8,202.2c-0.4-0.2-0.9,0.2-0.9,0.6c0,0.3,0.1,0.4,0.2,0.6c0.1,0.2,0.3,0.3,0.4,0.3
				c0.1,0,0.2,0,0.3-0.1c0.1,0,0.2-0.1,0.3-0.2C167.4,203.1,167.1,202.5,166.8,202.2z"/>
		</g>
		<g>
			<path class="st20" d="M157,201.9c-0.3-0.6-0.2-1.5,0.5-1.8c1.2-0.6,3.5,1.1,2.9,2.4c-0.3,0.5-0.9,0.6-1.5,0.6
				C158.2,203.1,157.4,202.6,157,201.9z"/>
			<path class="st21" d="M156.3,199.5c-0.3-0.6-0.2-1.5,0.5-1.8c1.2-0.6,3.5,1.1,2.9,2.4c-0.3,0.5-0.9,0.6-1.5,0.6
				C157.5,200.6,156.7,200.2,156.3,199.5z"/>
			<path class="st22" d="M159.1,200.2c-0.6-0.3-1.1-1-0.9-1.7c0.4-1.2,3.4-1.5,3.8-0.2c0.2,0.6-0.2,1.1-0.6,1.5
				C160.8,200.2,159.9,200.5,159.1,200.2z"/>
			<path class="st23" d="M160.2,195.7c0.4-0.3,1.2-0.4,1.6,0.1c0.7,0.9-0.3,3.3-1.5,3c-0.5-0.1-0.8-0.6-0.9-1.1
				C159.3,196.9,159.4,196,160.2,195.7z"/>
			<path class="st24" d="M157.5,195.4c0.3-0.5,0.9-0.9,1.5-0.7c1,0.4,1.2,3,0,3.4c-0.5,0.1-1-0.2-1.3-0.6
				C157.3,197,157,196.1,157.5,195.4z"/>
			<path class="st25" d="M158.1,195.5c0.2-0.4,0.6-0.7,1-0.5c0.8,0.3,0.9,2.2,0,2.4c-0.3,0.1-0.7-0.2-0.9-0.4
				C157.9,196.5,157.7,196,158.1,195.5z"/>
			<path class="st26" d="M155.1,196c0.1-0.6,0.7-1.3,1.4-1.2c1.3,0.2,2.3,2.8,1.1,3.6c-0.5,0.3-1.1,0.1-1.5-0.3
				C155.3,197.7,154.8,196.8,155.1,196z"/>
			<path class="st27" d="M155.4,195.8c0.1-0.5,0.5-1,1-0.9c1,0.1,1.8,2.2,0.9,2.7c-0.3,0.3-0.8,0.1-1.1-0.2
				C155.7,197.1,155.3,196.5,155.4,195.8z"/>
			<path class="st28" d="M158,192.1c0.6-0.4,1.6-0.6,2.2,0.1c0.9,1.2-0.3,4.3-2,4c-0.7-0.2-1-0.9-1.1-1.5
				C156.9,193.7,157.1,192.7,158,192.1z"/>
			<path class="st29" d="M158.2,192.1c0.4-0.3,0.9-0.3,1.3,0.1c0.6,0.7-0.2,2.5-1.1,2.3c-0.3-0.1-0.5-0.5-0.6-0.9
				C157.7,193.1,157.8,192.5,158.2,192.1z"/>
			<path class="st30" d="M158.2,192.8c0.2-0.2,0.4-0.2,0.6,0c0.3,0.3-0.1,1.2-0.5,1.1c-0.2-0.1-0.3-0.3-0.3-0.4
				C158,193.3,158.1,193,158.2,192.8z"/>
			<path class="st24" d="M153.6,198.4c-0.2-0.7,0.1-1.5,0.8-1.7c1.3-0.4,3.3,1.6,2.5,2.8c-0.3,0.5-1,0.5-1.5,0.4
				C154.4,199.8,153.7,199.2,153.6,198.4z"/>
			<path class="st31" d="M153.2,198.3c-0.2-0.5,0.1-1.3,0.7-1.5c1.1-0.3,2.8,1.5,2.2,2.5c-0.3,0.4-0.9,0.4-1.3,0.3
				C154,199.5,153.3,198.9,153.2,198.3z"/>
			<path class="st22" d="M155.1,202.4c-0.6-0.3-1.1-1-0.9-1.7c0.4-1.2,3.4-1.5,3.8-0.2c0.2,0.6-0.2,1.1-0.6,1.5
				C156.9,202.5,155.9,202.7,155.1,202.4z"/>
			<path class="st32" d="M161,196.9c-0.3,0-0.4,0-0.7-0.1c-0.3-0.1-0.6-0.3-0.8-0.6c-0.6-0.9-0.3-2.3,0.5-3c0.9-0.8,2.2-0.8,3.2-0.2
				c0.4,0.3,0.9,0.8,0.9,1.4C164.3,195.7,162.1,196.8,161,196.9z"/>
			<path class="st33" d="M161.2,196.1c-0.2,0-0.3,0-0.5-0.1c-0.3-0.1-0.4-0.3-0.6-0.4c-0.5-0.7-0.3-1.7,0.3-2.2
				c0.7-0.5,1.6-0.5,2.3-0.1c0.3,0.3,0.6,0.6,0.7,1C163.6,195.2,161.9,196.1,161.2,196.1z"/>
			<path class="st34" d="M161.4,194.7c-0.1,0-0.2,0-0.3,0s-0.2-0.1-0.3-0.2c-0.2-0.3-0.1-0.8,0.2-1c0.3-0.3,0.7-0.3,1-0.1
				c0.2,0.1,0.3,0.3,0.3,0.4C162.5,194.3,161.8,194.7,161.4,194.7z"/>
			<path class="st35" d="M164.8,204.5c-0.2,0.9-0.3,1.8,0.1,2.7c0.1,0.3,0.3,0.5,0.5,0.5c0.3,0.1,0.5-0.2,0.7-0.3
				c0.5-0.6,0.7-1.3,0.7-2c0-0.4-0.1-0.8-0.3-1.1C165.8,203.4,165,203.7,164.8,204.5z"/>
			<path class="st36" d="M165.1,204.7c-0.2,0.6-0.3,1.3,0,1.9c0.1,0.3,0.3,0.4,0.4,0.4c0.3,0,0.4-0.1,0.5-0.3
				c0.3-0.3,0.5-0.9,0.5-1.4c0-0.3-0.1-0.5-0.3-0.8C165.9,204.1,165.4,204.2,165.1,204.7z"/>
			<path class="st37" d="M162.9,206.9c-0.3,0.9-0.1,2.8,1.3,2.5c0.2,0,0.3-0.2,0.5-0.3c0.2-0.1,0.4-0.3,0.5-0.5
				c0.2-0.3,0.3-0.7,0.2-1.1c0-0.2-0.1-0.4-0.2-0.6C164.8,205.9,163.3,206,162.9,206.9z"/>
			<path class="st38" d="M163.2,207c-0.3,0.7-0.1,2.2,0.9,1.9c0.2,0,0.3-0.1,0.4-0.2c0.2-0.2,0.3-0.3,0.4-0.4
				c0.1-0.3,0.1-0.6,0.1-0.9c0-0.2,0-0.3-0.1-0.5C164.7,206.2,163.6,206.2,163.2,207z"/>
			<path class="st39" d="M161.1,208.1c-0.3,1-0.1,2.7,1.4,2.3c0.4-0.1,0.9-0.3,1-0.7c0.2-0.4,0.1-0.9-0.1-1.3
				C163,207.3,161.6,206.7,161.1,208.1z"/>
			<path class="st40" d="M161.1,207.9c-0.3,0.9-0.1,2.5,1.2,2.2c0.3-0.1,0.7-0.3,0.9-0.6c0.2-0.4,0.1-0.9-0.1-1.2
				C162.7,207.3,161.4,206.7,161.1,207.9z"/>
			<path class="st22" d="M158.8,209.5c0.1,0.4,0.2,0.8,0.3,1.1c0.2,0.3,0.5,0.6,0.9,0.6c0.4,0,0.8-0.3,1.1-0.6
				c0-0.1,0.1-0.2,0.2-0.3c0.1-0.2,0.2-0.3,0.2-0.5c0.1-0.4-0.1-0.9-0.3-1.4c-0.3-0.4-0.8-0.6-1.2-0.6
				C159.4,207.9,158.6,208.8,158.8,209.5z"/>
			<path class="st41" d="M159.2,208.9c0,0.3,0.1,0.6,0.3,0.9c0.2,0.3,0.4,0.5,0.7,0.5c0.3,0,0.6-0.3,0.9-0.5c0.1,0,0.1-0.1,0.2-0.2
				c0.1-0.1,0.1-0.2,0.1-0.3c0.1-0.4,0-0.8-0.3-1.1c-0.3-0.3-0.6-0.4-0.9-0.4C159.6,207.8,159,208.5,159.2,208.9z"/>
			<path class="st42" d="M156.9,208.3c-0.6,0.5-0.5,1.7,0.3,2c0.3,0.1,0.6,0.2,0.9,0.1c0.5-0.1,0.9-0.5,0.9-1
				C159,208.3,157.6,207.8,156.9,208.3z"/>
			<path class="st43" d="M157,208.5c-0.3,0.3-0.3,1.1,0.2,1.3c0.2,0.1,0.4,0.1,0.6,0.1c0.3-0.1,0.6-0.3,0.6-0.7
				C158.5,208.5,157.6,208.1,157,208.5z"/>
			<path class="st44" d="M165.6,201.4c-1.1,0.3-1.2,1.8-0.7,2.6c0.3,0.5,0.9,0.8,1.5,0.5c0.3-0.2,0.4-0.4,0.5-0.8
				C167,202.8,166.7,201.2,165.6,201.4z"/>
			<path class="st45" d="M165.2,201.5c-0.9,0.2-0.9,1.5-0.5,2.1c0.3,0.3,0.8,0.6,1.2,0.3c0.3-0.2,0.3-0.4,0.4-0.7
				C166.5,202.6,166.2,201.3,165.2,201.5z"/>
			<path class="st46" d="M163.5,203.9c-0.4,0.6,0,1.4,0.2,2c0.1,0.3,0.2,0.7,0.5,0.9c0.3,0.2,0.7,0.1,0.9-0.1
				c0.3-0.2,0.4-0.5,0.6-0.8c0.2-0.4,0.3-0.8,0.2-1.3c-0.1-0.5-0.3-0.9-0.7-1.1C164.7,203.1,163.8,203.3,163.5,203.9z"/>
			<path class="st47" d="M163.7,203.8c-0.3,0.3,0,0.9,0.1,1.3c0,0.2,0.2,0.4,0.3,0.5c0.2,0.1,0.4,0,0.6-0.1c0.2-0.2,0.3-0.3,0.4-0.5
				c0.2-0.3,0.3-0.6,0.2-0.9c0-0.3-0.2-0.5-0.4-0.7C164.5,203.3,164,203.3,163.7,203.8z"/>
			<path class="st48" d="M161.7,205.5c-0.1,0.4,0.2,1.2,0.3,1.6c0.1,0.3,0.2,0.4,0.3,0.6c0.3,0.2,0.6,0.1,0.9,0
				c0.3-0.1,0.7-0.3,0.9-0.6c0.3-0.3,0.3-0.9,0.3-1.4c0-0.3-0.1-0.5-0.3-0.8c-0.2-0.2-0.4-0.4-0.7-0.4c-0.3,0-0.6,0.1-0.9,0.3
				C162.3,205,161.8,205.1,161.7,205.5z"/>
			<path class="st49" d="M161.9,205.2c-0.2,0.3,0.1,0.9,0.2,1.3c0.1,0.2,0.1,0.4,0.3,0.5s0.4,0.1,0.7,0c0.3-0.2,0.6-0.3,0.8-0.5
				c0.2-0.3,0.3-0.8,0.2-1.1c0-0.2-0.1-0.4-0.2-0.6c-0.1-0.2-0.3-0.3-0.5-0.3c-0.3-0.1-0.5,0.1-0.7,0.2
				C162.3,204.7,161.9,204.8,161.9,205.2z"/>
			<path class="st50" d="M160.2,209c0.1,0.1,0.3,0.2,0.3,0.2c0.1,0,0.2,0,0.3,0c0.7-0.2,1.4-0.7,1.5-1.4c0.1-0.3,0-0.4,0-0.7
				c0-0.2-0.1-0.4-0.2-0.6c-0.3-0.3-0.7-0.5-1.1-0.5C159.4,206.2,159,208,160.2,209z"/>
			<path class="st51" d="M160.5,208.2c0.1,0.1,0.2,0.2,0.3,0.2c0,0,0.1,0,0.2,0c0.5-0.1,1.1-0.5,1.2-1c0-0.2,0-0.3,0-0.5
				c-0.1-0.2-0.1-0.3-0.2-0.5c-0.2-0.3-0.5-0.3-0.9-0.3C159.7,206,159.5,207.4,160.5,208.2z"/>
			<path class="st52" d="M156.9,207.7c-0.1,1,1.1,2,2.1,1.6c0.4-0.2,0.7-0.5,0.8-0.9s0-0.9-0.1-1.3c0-0.3-0.1-0.5-0.3-0.7
				C158.4,206,156.9,206.8,156.9,207.7z"/>
			<path class="st53" d="M157.2,207.5c-0.1,0.9,0.9,1.6,1.7,1.4c0.3-0.1,0.5-0.4,0.6-0.8c0.1-0.3,0.1-0.7,0-1
				c-0.1-0.3-0.2-0.5-0.3-0.6C158.5,206.1,157.3,206.8,157.2,207.5z"/>
			<path class="st54" d="M154.8,207.4c-0.1,0.3-0.2,0.6-0.1,0.9c0.1,0.5,0.5,0.8,0.9,0.9c0.3,0.1,0.5,0.1,0.8,0
				c0.3-0.2,0.4-0.5,0.5-0.8c0.3-0.6,0.5-1.3,0.2-1.9C156.3,205.2,155.1,206.6,154.8,207.4z"/>
			<path class="st55" d="M155.2,207.1c-0.1,0.2-0.2,0.4-0.1,0.6c0.1,0.3,0.3,0.5,0.7,0.6c0.2,0.1,0.3,0.1,0.5,0s0.3-0.3,0.3-0.5
				c0.2-0.4,0.3-0.9,0.1-1.3C156.3,205.7,155.5,206.5,155.2,207.1z"/>
			<path class="st56" d="M152.8,207.5c0.1,0.3,0.3,0.5,0.5,0.7c0.1,0.1,0.3,0.2,0.3,0.3c0.2,0,0.3,0,0.3,0c0.5,0,0.9-0.3,1.1-0.7
				c0.1-0.3,0.1-0.7-0.1-1c-0.2-0.3-0.3-0.6-0.6-0.9c-0.2-0.3-0.3-0.4-0.6-0.5c-0.4-0.1-0.9,0.2-1,0.5
				C152.8,205.8,152.6,207.2,152.8,207.5z"/>
			<path class="st57" d="M153.1,207.2c0.1,0.2,0.3,0.3,0.4,0.5c0.1,0.1,0.2,0.2,0.3,0.2c0.1,0,0.2,0,0.3,0c0.3,0,0.7-0.2,0.8-0.5
				c0.2-0.3,0.1-0.5,0-0.8c-0.1-0.2-0.3-0.4-0.4-0.6c-0.1-0.2-0.3-0.3-0.4-0.3c-0.3-0.1-0.6,0.1-0.8,0.3
				C153.2,206,153,207,153.1,207.2z"/>
			<path class="st58" d="M165.5,199.2c-0.4-0.3-0.7-0.8-0.8-1.3c-0.1-0.3,0-0.9,0.3-1c0.6-0.3,0.9,0.5,1.2,0.9
				c0.2,0.3,0.3,0.5,0.3,0.9C166.7,199.5,165.9,199.6,165.5,199.2z"/>
			<path class="st59" d="M165.1,198.9c-0.3-0.2-0.5-0.6-0.6-1c0-0.3,0-0.7,0.3-0.9c0.5-0.3,0.8,0.4,1,0.8c0.2,0.2,0.3,0.4,0.3,0.7
				C166.2,199.1,165.6,199.2,165.1,198.9z"/>
			<path class="st60" d="M164.3,199.4c0.3-0.5,0.9-0.8,1.5-0.5c0.9,0.3,0.9,1.3,0.9,2.1c0,0.3-0.1,0.6-0.3,0.9
				C165,202.9,163.7,200.2,164.3,199.4z"/>
			<path class="st61" d="M164.6,199.5c0.3-0.3,0.6-0.5,1-0.3c0.7,0.3,0.7,0.9,0.7,1.5c0,0.2,0,0.4-0.2,0.6
				C165.2,202,164.3,200.2,164.6,199.5z"/>
			<path class="st62" d="M165,199.5c0.1-0.2,0.3-0.3,0.5-0.2c0.3,0.1,0.3,0.5,0.3,0.8c0,0.2,0,0.3-0.1,0.3
				C165.2,200.8,164.7,199.8,165,199.5z"/>
			<path class="st63" d="M162.2,201.6c0.1,0.8,1.5,2.4,2.4,2.2c0.1-0.1,0.3-0.2,0.3-0.3c0.3-0.3,0.5-0.9,0.4-1.4
				c-0.1-0.5-0.3-0.9-0.8-1.3C163.7,200.1,162,200.4,162.2,201.6z"/>
			<path class="st64" d="M163,201.6c0.1,0.5,0.9,1.5,1.5,1.4c0.1-0.1,0.2-0.1,0.3-0.2c0.2-0.2,0.3-0.5,0.3-0.9
				c-0.1-0.3-0.3-0.6-0.5-0.9C163.9,200.6,162.8,200.8,163,201.6z"/>
			<path class="st65" d="M163.3,201.6c0,0.3,0.5,0.9,0.9,0.8c0.1,0,0.2-0.1,0.2-0.1c0.2-0.2,0.2-0.3,0.2-0.5s-0.1-0.3-0.3-0.4
				C163.9,201.1,163.3,201.2,163.3,201.6z"/>
			<path class="st66" d="M159.7,203.8c-0.3,1,0.9,2.5,1.7,2.9c0.4,0.2,0.9,0.3,1.4,0c0.2-0.2,0.3-0.3,0.4-0.5
				c0.3-0.3,0.6-0.8,0.7-1.2c0.1-0.3,0-0.7-0.1-1c-0.2-0.6-0.5-1.2-1-1.5C161.8,202,160,202.6,159.7,203.8z"/>
			<path class="st67" d="M160.3,203.8c-0.2,0.8,0.7,1.8,1.3,2.2c0.3,0.2,0.8,0.2,1,0c0.2-0.1,0.3-0.2,0.3-0.3
				c0.3-0.3,0.4-0.5,0.5-0.9c0.1-0.3,0-0.5-0.1-0.8c-0.1-0.5-0.3-0.9-0.8-1.1C161.9,202.5,160.6,202.9,160.3,203.8z"/>
			<path class="st68" d="M161.3,203.6c-0.1,0.3,0.3,0.9,0.6,1c0.1,0.1,0.3,0.1,0.4,0c0.1-0.1,0.1-0.1,0.2-0.2
				c0.1-0.2,0.3-0.3,0.3-0.4c0-0.1-0.1-0.3-0.1-0.3c0-0.2-0.2-0.4-0.3-0.5C162,203,161.4,203.3,161.3,203.6z"/>
			<path class="st69" d="M156.5,204.7c-0.5,2.1,1.9,4.4,3.7,2.6c0.7-0.7,0.9-1.8,0.6-2.8C160.2,202.5,157,202.6,156.5,204.7z"/>
			<path class="st70" d="M157.2,204.8c-0.3,1.5,1.3,3.1,2.6,1.8c0.4-0.5,0.6-1.2,0.4-1.9C159.9,203.3,157.6,203.3,157.2,204.8z"/>
			<path class="st71" d="M157.9,204.1c-0.3,0.9,0.9,2.1,1.6,1.2c0.3-0.3,0.3-0.8,0.3-1.2C159.5,203.2,158.1,203.3,157.9,204.1z"/>
			<path class="st72" d="M155.5,207.5c-0.3,0-0.5,0-0.7-0.1c-0.2-0.1-0.3-0.3-0.5-0.4c-0.2-0.2-0.3-0.4-0.4-0.6
				c-0.1-0.2-0.2-0.3-0.3-0.5c-0.2-0.7,0.1-1.4,0.6-1.8C156.3,202.4,158.4,207.1,155.5,207.5z"/>
			<path class="st73" d="M155.7,206.4c-0.2,0-0.3,0-0.4-0.1c-0.2,0-0.3-0.2-0.3-0.3c-0.1-0.1-0.2-0.3-0.3-0.3
				c-0.1-0.1-0.2-0.2-0.2-0.3c-0.1-0.3,0-0.8,0.3-1C156.1,203.5,157.4,206.4,155.7,206.4z"/>
			<path class="st74" d="M155.7,205.7c-0.1,0-0.2,0-0.3,0c-0.1-0.1-0.1-0.1-0.2-0.2c-0.1,0-0.2-0.1-0.2-0.2c0-0.1-0.1-0.1-0.1-0.2
				c-0.1-0.2,0-0.4,0.2-0.6C156,203.9,156.7,205.6,155.7,205.7z"/>
			<path class="st75" d="M150.9,204.3c0.1,1.2,2.1,3.2,3.3,1.8c0.8-0.8,0.6-1.9-0.1-2.7C153.1,202.2,150.7,202.5,150.9,204.3z"/>
			<path class="st76" d="M151.9,204c0.1,0.7,1.4,2,2.2,1.1c0.4-0.5,0.3-1.2-0.1-1.7C153.2,202.6,151.7,202.9,151.9,204z"/>
			<path class="st77" d="M152.6,203.5c0,0.5,0.9,1.4,1.4,0.8c0.3-0.3,0.2-0.8-0.1-1.1C153.4,202.6,152.4,202.7,152.6,203.5z"/>
			<path class="st78" d="M152,203.2c-0.3,0.3-0.7,0.3-1,0.3c-0.1,0-0.2,0-0.3-0.1c-0.4-0.3-0.6-0.8-0.6-1.2
				C150.1,200.3,152.8,202,152,203.2z"/>
			<path class="st79" d="M152.4,202.9c-0.3,0.3-0.7,0.3-1,0.3c-0.1,0-0.2,0-0.3-0.1c-0.4-0.3-0.6-0.8-0.6-1.2
				C150.5,200.2,153.2,201.7,152.4,202.9z"/>
			<path class="st80" d="M164.3,198.8c-0.4,0.3-1,0.3-1.6,0.3c-0.5-0.2-1.1-0.4-1.5-0.9c0-0.1-0.1-0.1-0.1-0.2
				c-0.1-0.2-0.2-0.4-0.2-0.7c-0.1-0.9,0.2-1.8,0.9-2.2C163.9,194.1,166.5,197.4,164.3,198.8z"/>
			<path class="st81" d="M163.9,197.6c-0.3,0.3-0.6,0.3-0.9,0.2c-0.3-0.1-0.7-0.3-0.9-0.5c-0.1,0-0.1-0.1-0.1-0.1
				c0-0.2-0.1-0.3-0.1-0.4c-0.1-0.5,0.1-1,0.5-1.3C163.6,194.8,165,196.8,163.9,197.6z"/>
			<path class="st82" d="M163.2,196.3c-0.1,0.1-0.3,0.1-0.3,0.1s-0.2-0.1-0.3-0.2l0,0c0-0.1,0-0.1,0-0.2c0-0.2,0-0.3,0.2-0.4
				C163.2,195.4,163.7,196,163.2,196.3z"/>
			<path class="st83" d="M165.3,199.8c-0.3,1.3-2.2,2.2-3.4,1.6c-0.3-0.2-0.5-0.3-0.7-0.5c-0.1-0.2-0.3-0.3-0.3-0.5
				s-0.1-0.3-0.1-0.5c-0.1-0.4-0.1-0.9,0.1-1.4s0.4-0.9,0.9-1c0.3-0.2,0.5-0.2,0.8-0.2C163.7,197.3,165.7,198.3,165.3,199.8z"/>
			<path class="st84" d="M164.6,199.3c-0.3,0.9-1.5,1.6-2.4,1.2c-0.2-0.1-0.3-0.2-0.5-0.3c-0.1-0.1-0.2-0.2-0.3-0.3
				c-0.1-0.1-0.1-0.3-0.1-0.3c0-0.3,0-0.6,0.1-0.9c0.1-0.3,0.3-0.6,0.6-0.8c0.2-0.1,0.3-0.1,0.5-0.1
				C163.4,197.6,164.9,198.3,164.6,199.3z"/>
			<path class="st85" d="M163.2,198.9c-0.1,0.4-0.7,0.7-1.1,0.5c-0.1-0.1-0.2-0.1-0.3-0.2c0-0.1-0.1-0.1-0.1-0.2c0-0.1,0-0.1,0-0.2
				c-0.1-0.1-0.1-0.3,0-0.4c0-0.2,0.1-0.3,0.3-0.3c0.1-0.1,0.2-0.1,0.3-0.1C162.7,198,163.4,198.3,163.2,198.9z"/>
			<path class="st86" d="M158.5,201.6c-0.1,1,0.3,2.2,1.4,2.3c1,0.1,2.1-0.3,2.8-1.1c0.2-0.2,0.3-0.4,0.3-0.7c0.1-0.3,0.1-0.6,0-0.9
				c-0.2-0.6-0.3-1.1-0.7-1.5C160.9,198.8,158.5,199.8,158.5,201.6z"/>
			<path class="st87" d="M157.5,193.8c0,0.6-0.3,1.9-0.6,2.3c-0.6,0.9-1.9,0.2-2.4-0.4c-0.4-0.5-0.6-1-0.7-1.6c0-0.3,0-0.5,0.1-0.8
				C154.4,191.5,157.4,191.8,157.5,193.8z"/>
			<path class="st88" d="M157,193.4c0,0.3-0.2,1.2-0.3,1.5c-0.3,0.5-1.1,0.1-1.5-0.3c-0.3-0.3-0.4-0.6-0.4-0.9
				c-0.1-0.1-0.1-0.3,0-0.4C155.1,192.2,156.9,192.3,157,193.4z"/>
			<path class="st89" d="M156.9,193.4c0,0.2-0.1,0.5-0.2,0.6c-0.2,0.3-0.5,0.1-0.7-0.1c-0.1-0.1-0.2-0.3-0.2-0.4c0,0,0-0.1,0-0.2
				C156,192.8,156.8,192.9,156.9,193.4z"/>
			<path class="st90" d="M159,201.2c-0.1,0.7,0.2,1.5,0.9,1.5c0.7,0.1,1.5-0.3,1.9-0.8c0.1-0.1,0.3-0.3,0.3-0.4c0.1-0.2,0-0.4,0-0.6
				c-0.1-0.3-0.2-0.7-0.4-0.9C160.7,199.3,159.1,200,159,201.2z"/>
			<path class="st91" d="M155.3,196.7c-0.6,1-2.9,1.5-3.5,0.2c-0.2-0.3-0.3-0.8-0.3-1.1c0-0.3,0-0.6,0.2-0.9
				c0.2-0.3,0.6-0.5,0.9-0.6C153.8,194,156.1,195.1,155.3,196.7z"/>
			<path class="st92" d="M154.9,196.3c-0.5,0.8-2.2,1.1-2.6,0.2c-0.1-0.3-0.2-0.5-0.2-0.8c0-0.3,0-0.5,0.1-0.7
				c0.1-0.3,0.4-0.3,0.7-0.4C153.8,194.4,155.5,195.1,154.9,196.3z"/>
			<path class="st93" d="M154.4,195.6c-0.2,0.3-0.9,0.5-1.1,0.1c-0.1-0.1-0.1-0.3-0.1-0.3c0-0.1,0-0.2,0.1-0.3
				c0.1-0.1,0.3-0.2,0.3-0.2C154.1,194.8,154.9,195.2,154.4,195.6z"/>
			<path class="st94" d="M159.6,200.8c0,0.3,0.1,0.8,0.5,0.9c0.3,0.1,0.8-0.2,1-0.4c0.1-0.1,0.2-0.2,0.2-0.3c0-0.1,0-0.3,0-0.3
				c-0.1-0.2-0.1-0.4-0.3-0.5C160.6,199.7,159.6,200.2,159.6,200.8z"/>
			<path class="st95" d="M153.7,199.9c-0.8,0.4-1.7,0.7-2.5,0.3c-0.6-0.3-0.9-1.2-0.9-2c0.1-0.4,0.2-0.9,0.4-1.2
				c0.4-0.4,1.1-0.6,1.7-0.6c0.5,0,1,0,1.5,0.3c0.3,0.2,0.6,0.5,0.9,0.8C155.7,198.4,154.7,199.5,153.7,199.9z"/>
			<path class="st96" d="M153.8,199c-0.4,0.3-1.1,0.4-1.5,0.2c-0.4-0.3-0.6-0.8-0.6-1.3c0-0.3,0.1-0.6,0.3-0.8
				c0.3-0.3,0.6-0.4,1-0.4c0.3,0,0.7,0,0.9,0.2c0.2,0.2,0.3,0.3,0.5,0.5C154.9,198,154.3,198.7,153.8,199z"/>
			<path class="st97" d="M153.8,198.3c-0.3,0.2-0.5,0.3-0.8,0.1c-0.2-0.1-0.3-0.3-0.3-0.6c0-0.1,0-0.3,0.1-0.3
				c0.2-0.1,0.3-0.2,0.5-0.2c0.2,0,0.3,0,0.4,0.1c0.1,0.1,0.2,0.2,0.3,0.3C154.4,197.8,154.1,198.2,153.8,198.3z"/>
			<path class="st98" d="M155.1,199.4c1.5,1.2-0.1,3.1-1.3,3.7c-0.6,0.3-1.3,0.5-1.9,0.3c-0.3-0.1-0.5-0.3-0.8-0.6
				c-0.3-0.4-0.7-0.9-0.7-1.4s0.3-1,0.6-1.4C151.9,198.9,154,198.3,155.1,199.4z"/>
			<path class="st99" d="M154.9,199.7c0.9,0.8,0,2.1-0.9,2.5c-0.4,0.2-0.9,0.3-1.3,0.2c-0.2-0.1-0.3-0.3-0.5-0.4
				c-0.3-0.3-0.5-0.6-0.5-0.9c-0.1-0.3,0.1-0.6,0.3-0.9C152.6,199.5,154.1,199,154.9,199.7z"/>
			<path class="st100" d="M154.5,200c0.5,0.4,0,1.1-0.4,1.3c-0.3,0.1-0.4,0.2-0.7,0.1c-0.1-0.1-0.2-0.2-0.3-0.3
				c-0.2-0.2-0.3-0.3-0.3-0.5c0-0.3,0.1-0.3,0.2-0.5C153.4,199.7,154.2,199.5,154.5,200z"/>
			<path class="st101" d="M154.1,201.8c-1.1,1-0.3,2.9,1.1,3.3c0.7,0.2,1.4,0.1,2.1-0.1c0.7-0.2,1.4-0.6,1.5-1.2
				c0.1-0.3,0.1-0.7,0-1c-0.1-0.4-0.2-0.8-0.4-1.1C157.5,200.5,155.1,200.8,154.1,201.8z"/>
			<path class="st102" d="M155.6,201.7c-0.6,0.5-0.2,1.6,0.6,1.8c0.4,0.1,0.9,0.1,1.2,0c0.3-0.1,0.8-0.3,0.9-0.7
				c0.1-0.3,0-0.4,0-0.6c-0.1-0.2-0.1-0.4-0.3-0.6C157.4,201,156.1,201.2,155.6,201.7z"/>
			<path class="st103" d="M156.5,201.8c-0.3,0.3-0.1,0.9,0.3,0.9c0.2,0.1,0.4,0.1,0.6,0c0.2-0.1,0.3-0.2,0.4-0.3c0-0.1,0-0.2,0-0.3
				c-0.1-0.2-0.1-0.3-0.2-0.3C157.5,201.4,156.8,201.5,156.5,201.8z"/>
		</g>
	</g>
	<g>
		<path class="st104" d="M175.4,245.8c-0.4,0.8-1.4,1.1-2.3,0.7l-14.4-7.8c-0.8-0.4-1.1-1.4-0.7-2.3l7.8-14.4
			c0.4-0.8,1.4-1.1,2.3-0.7l14.4,7.8c0.8,0.4,1.1,1.4,0.7,2.3L175.4,245.8z"/>
		<path class="st104" d="M201.2,232.9c0.2,0.9-0.3,1.8-1.2,2l-15.9,4.1c-0.9,0.2-1.8-0.3-2-1.2L178,222c-0.2-0.9,0.3-1.8,1.2-2
			l15.9-4.1c0.9-0.2,1.8,0.3,2,1.2L201.2,232.9z"/>
	</g>
	<path class="st105" d="M206.3,217.4c-0.3,1.6-12.1,2.9-26.6,2.9s-26.3-1.3-26.6-2.9l0,0v31.4c0,2.1,1.7,3.7,3.7,3.7h45.9
		c2.1,0,3.7-1.7,3.7-3.7L206.3,217.4L206.3,217.4z"/>
	<polygon class="st104" points="157.4,197.8 156.5,252.7 161.4,252.7 164.2,198.4 	"/>
</g>
</svg>
