<?xml version="1.0" encoding="utf-8"?>
<!-- Generator: Adobe Illustrator 23.0.0, SVG Export Plug-In . SVG Version: 6.00 Build 0)  -->
<svg version="1.1" id="Capa_1" xmlns="http://www.w3.org/2000/svg" xmlns:xlink="http://www.w3.org/1999/xlink" x="0px" y="0px"
	 viewBox="0 0 360 363" style="enable-background:new 0 0 360 363;" xml:space="preserve">
<style type="text/css">
	.st0{fill:#FFD084;}
	.st1{fill:none;stroke:#FFE1C0;stroke-width:0.7573;stroke-miterlimit:10;}
	.st2{fill:#FFD6A4;}
	.st3{fill:none;stroke:#FFE1C0;stroke-width:0.75;stroke-miterlimit:10;}
	.st4{fill:#FFE1C0;}
	.st5{fill:none;stroke:#FFD6A4;stroke-width:0.75;stroke-miterlimit:10;}
	.st6{fill:none;stroke:#FFEFE1;stroke-width:0.7478;stroke-miterlimit:10;}
	.st7{fill:#8F7CE5;}
	.st8{fill:#A6A6DD;}
	.st9{fill:#FFE5CC;}
	.st10{fill:none;stroke:#FFD6A4;stroke-miterlimit:10;}
	.st11{clip-path:url(#SVGID_4_);fill:#FFD8AE;}
	.st12{clip-path:url(#SVGID_6_);fill:#FFD8AE;}
	.st13{fill:#EBEBFC;stroke:#FFFFFF;stroke-width:17.8589;stroke-linejoin:round;stroke-miterlimit:10;}
	.st14{fill:#FF462C;stroke:#FFFFFF;stroke-width:14;stroke-linejoin:round;stroke-miterlimit:10;}
	.st15{fill:#3C7F0E;}
	.st16{clip-path:url(#SVGID_8_);}
	.st17{fill:#488C14;}
	.st18{clip-path:url(#SVGID_10_);}
	.st19{fill:#326D05;}
	.st20{clip-path:url(#SVGID_12_);}
	.st21{clip-path:url(#SVGID_14_);}
	.st22{clip-path:url(#SVGID_16_);}
	.st23{clip-path:url(#SVGID_18_);}
	.st24{clip-path:url(#SVGID_20_);}
	.st25{clip-path:url(#SVGID_22_);}
	.st26{fill:#FF462C;}
	.st27{clip-path:url(#SVGID_24_);}
	.st28{fill:#FF5E48;}
	.st29{opacity:0.44;clip-path:url(#SVGID_26_);}
	.st30{fill:#FC1A1A;}
	.st31{opacity:0.3;}
	.st32{fill:#6DAF27;}
	.st33{fill:#FFFFFF;}
	.st34{opacity:0.31;}
	.st35{opacity:0.26;clip-path:url(#SVGID_28_);fill:#FF462C;enable-background:new    ;}
	.st36{opacity:0.13;clip-path:url(#SVGID_30_);fill:#FF462C;enable-background:new    ;}
	.st37{opacity:0.13;clip-path:url(#SVGID_32_);fill:#FF462C;enable-background:new    ;}
	.st38{opacity:0.35;fill:#FF462C;enable-background:new    ;}
	.st39{opacity:0.52;fill:#D2251F;enable-background:new    ;}
	.st40{opacity:0.6;fill:#F2740C;enable-background:new    ;}
	.st41{opacity:0.15;fill:#FFFFFF;enable-background:new    ;}
	.st42{fill:#3D9EC1;}
	.st43{fill:#78C9E9;}
	.st44{fill:#FFCC2C;}
	.st45{fill:#FF8980;enable-background:new    ;}
	.st46{fill:#FF6757;enable-background:new    ;}
	.st47{fill:#FF462C;enable-background:new    ;}
	.st48{opacity:0.4;fill:#FFFFFF;enable-background:new    ;}
	.st49{fill:#FC908B;enable-background:new    ;}
	.st50{fill:#CCCCFF;}
	.st51{fill:#C2C2F9;}
</style>
<g id="fondo">
	<g id="Rectángulo_556">
		<rect y="-0.1" class="st0" width="360" height="363.3"/>
		<rect x="0.5" y="0.4" class="st0" width="359" height="362.2"/>
	</g>
	<path class="st1" d="M228.1,263.3c0,0,44-35.1,59.7-104.9c15.8-69.8-12.4-91.7-12.4-91.7s-20.5-26.4-33.4,10.6
		c0,0-11.1,37.2-24.4,18.6c0,0-4-5.6-6.5-13s-11-10.5-11-10.5s-21.4-7.3-59.4,34.8c0,0-30.9,35.9-25.5,83.1s10.5,56.8,10.5,56.8
		L228.1,263.3z"/>
	<path class="st2" d="M225.9,276.1c0,0,43.1-35.1,58.6-104.9s-12.2-91.7-12.2-91.7s-20.1-26.4-32.8,10.6c0,0-10.9,37.2-23.9,18.6
		c0,0-3.9-5.6-6.4-13s-10.8-10.5-10.8-10.5s-21-7.3-58.2,34.8c0,0-30.3,35.9-25,83.1c5.3,47.2,10.3,56.8,10.3,56.8L225.9,276.1z"/>
	<path class="st3" d="M114.9,250.6c0,0-61.2-54.4-49.7-80.4s30.9-7.5,30.9-7.5s25.7,22.6,47.9,63.9L114.9,250.6z"/>
	<path class="st2" d="M115.8,254.7c0,0-54.1-58.6-42.6-84.6s30.9-7.5,30.9-7.5s25.7,22.6,47.9,63.9L115.8,254.7z"/>
	<path class="st4" d="M206.4,270c0,0,41.3-44.5,60.9-102.8c0,0,11.1-34-2.3-60c0,0-8.2-25.8-29.3,14.8s-29.4,11.9-29.4,11.9
		s-8.1-59.5-44-15.2s-22.9,140.1-22.9,140.1L206.4,270z"/>
	<path class="st5" d="M191.1,246.3c0,0,54.4-73,68-155.4"/>
	<path class="st6" d="M195.3,271c0,0,33.9-33.6,51.3-78.9c0,0,9.9-26.4,0.3-47.4c0,0-5.5-20.6-23.5,10.6s-23.4,8.4-23.4,8.4
		s-4.3-47.2-33.9-13.5s-22.8,109.6-22.8,109.6L195.3,271z"/>
	<g>
		
			<ellipse transform="matrix(1 -1.876250e-03 1.876250e-03 1 -0.5354 0.338)" class="st7" cx="179.9" cy="285.5" rx="102.6" ry="21.4"/>
		<polygon class="st7" points="282.5,285.3 282.7,271.4 77.5,271.8 77.3,285.7 		"/>
		
			<ellipse transform="matrix(1 -1.876250e-03 1.876250e-03 1 -0.5092 0.3384)" class="st8" cx="180.1" cy="271.6" rx="102.6" ry="21.4"/>
	</g>
	<path class="st3" d="M239.7,225.4c0,0,41.8-19.1,39.9,8.9s-53,30.9-53,30.9s-15.5-0.3-14.5-10.3C213.1,245,218.5,235.9,239.7,225.4
		z"/>
	<path class="st9" d="M229.9,227.9c0,0,37.6-26.4,40.9,1.5c3.2,27.9-46.4,40.1-46.4,40.1S209,272,208.2,262
		C207.3,252,211,242.1,229.9,227.9z"/>
	<path class="st10" d="M208.2,262c0,0,44.4-19.6,65.3-41.4"/>
	<g>
		<g>
			<defs>
				<path id="SVGID_3_" d="M229.9,227.9c0,0,37.6-26.4,40.9,1.5c3.2,27.9-46.4,40.1-46.4,40.1S209,272,208.2,262
					C207.3,252,211,242.1,229.9,227.9z"/>
			</defs>
			<clipPath id="SVGID_4_">
				<use xlink:href="#SVGID_3_"  style="overflow:visible;"/>
			</clipPath>
			<path class="st11" d="M240.9,216.5c0,0-27.3,46.6,4.8,50c21.5,2.3-22.9,11.5-22.9,11.5l-20.3-4.6l-1.3-29.1l20-22.9L240.9,216.5z
				"/>
		</g>
	</g>
	<g>
		<path class="st9" d="M128.2,230.7c0,0-34.9-21.9-37.3,9.5c0,0,6.5,28.1,39.9,22.4S128.2,230.7,128.2,230.7z"/>
	</g>
	<path class="st10" d="M143,253.3c0,0-40.9-21-62.4-13.1"/>
	<g>
		<g>
			<defs>
				<path id="SVGID_5_" d="M128.2,230.7c0,0-34.9-21.9-37.3,9.5c0,0,6.5,28.1,39.9,22.4S128.2,230.7,128.2,230.7z"/>
			</defs>
			<clipPath id="SVGID_6_">
				<use xlink:href="#SVGID_5_"  style="overflow:visible;"/>
			</clipPath>
			<path class="st12" d="M124.1,223.3h-4h-3.6c0,0,17.6,26,9.4,34.6c-8.3,8.6-9.4,6.7-9.4,6.7l19.6,1.8l15.9-7.2l1.2-14.3l-16-11.9
				L124.1,223.3z"/>
		</g>
	</g>
	<path class="st3" d="M84.5,166.6c0,0,21.6,45.3,54.6,70.4"/>
	<path class="st3" d="M103.9,168.3c0,0-5.4,4-7,10.8"/>
	<path class="st3" d="M108.2,176.4c0,0-5.3,5.3-6,14.2"/>
	<path class="st3" d="M96.9,195.4c0,0-6.3-0.5-14.9,3.6"/>
	<path class="st3" d="M102.2,201.8c0,0-10.9,0.4-15.6,3.7"/>
	<path class="st2" d="M109.5,112.7c0.1,4-3.4,7.8-6.2,10.4c-1-2.4-1.9-5-2-7.6c-0.1-2,0.7-4,2.2-5.3c0.5-0.4,1-0.8,1.7-0.9
		c0.4-0.1,0.7-0.2,1.1-0.2C108,109.3,109.4,110.9,109.5,112.7z"/>
	<path class="st2" d="M81.9,128.8c-3.1,0.3-9-1.1-11.6-3.3c-2.3-1.7-2.3-2.2-3.4-4.9c-1-2.7,0.6-5.9,3.6-6.2
		c1.5-0.2,3.1,0.2,4.3,1.1C79.1,118.4,82.6,123.4,81.9,128.8z"/>
	<path class="st4" d="M105.6,147.4c-1.9,1.1-5-0.2-4.7-2.6c-0.2-2.8,4.1-3.8,5.6-1.6C107.5,144.5,106.9,146.6,105.6,147.4z"/>
	<path class="st4" d="M319.5,90.1c-2.6,1.4-6.6-0.3-6.3-3.5c-0.2-3.8,5.5-5.1,7.4-2.1C322,86.2,321.3,88.9,319.5,90.1z"/>
	<path class="st2" d="M328.9,302.3c-3.1,1.7-7.9-0.3-7.6-4.2c-0.3-4.5,6.6-6.1,8.9-2.5C331.9,297.6,331,300.9,328.9,302.3z"/>
	<path class="st4" d="M286.4,314c-2,1.1-5.2-0.2-5-2.8c-0.2-3,4.3-4,5.8-1.7C288.4,311,287.9,313.1,286.4,314z"/>
	<path class="st2" d="M61.9,249.7c-2.6,1.4-6.6-0.3-6.3-3.5c-0.2-3.8,5.5-5.1,7.4-2.1C64.4,245.8,63.7,248.5,61.9,249.7z"/>
	
		<ellipse transform="matrix(0.3506 -0.9365 0.9365 0.3506 -99.1506 230.0512)" class="st9" cx="116.3" cy="186.5" rx="2.7" ry="1.7"/>
	
		<ellipse transform="matrix(0.3506 -0.9365 0.9365 0.3506 -107.5106 238.2528)" class="st9" cx="118" cy="196.6" rx="2.7" ry="1.7"/>
	<ellipse transform="matrix(0.3506 -0.9365 0.9365 0.3506 -136.425 236.2583)" class="st0" cx="102.1" cy="216.5" rx="3" ry="1.8"/>
</g>
<path class="st13" d="M206,146.6l4.7-21.2l-4.5-0.8l-4.9,22h-49.2h-3v111.3c0,5.2,4.2,9.3,9.3,9.3h3h39.9c5.1,0,9.3-4.2,9.3-9.3
	V146.6H206z M196.9,260h-33.8c-4.1,0-7.4-3.7-7.4-8.2v-98.1h44.1l-12.5,56.7c-0.2,1.2,0.6,2.4,1.8,2.6c1.2,0.2,2.4-0.6,2.6-1.8
	l12.5-56.8v97.3C204.2,256.4,200.9,260,196.9,260z"/>
<path class="st14" d="M156.2,141c-0.4-2.6-2.5-6.8-3.2-7.7c-1-1.2-2.2-2.1-3.6-2.6c-1.1-0.4-2.4-0.4-3.5-0.2c-2.5,0.2-5,1-7,2.2
	c-0.1,0.1-0.2,0.2-0.3,0.2c0,0-0.1,0-0.1,0c0.6-0.5,1.2-0.7,1.7-1.5c0.2-0.4,0.5-0.9,0.7-1.4c0.4-0.7,0.6-1.9,0.5-2.9
	c-1.1,0.1-2,0.6-2.6,1.5c-1,1.1-1.7,2.3-1.9,3.8c-0.9-2-0.8-4.6,0.2-6.3c-0.4-0.1-0.7-0.4-1.1-0.6c-1.4,2.2-1.2,5.6,0.4,8.1
	c-0.5-1-1.4-1.5-2.4-1.9c-1.5-0.7-3.1-0.5-4.7-0.4c0.7,0.6,1.4,1.6,2.1,2.1c1.1,0.9,2.5,1.1,3.7,1.4c-1.1-0.1-2.4,0.2-3.2,0.9
	c-1.1,0.6-2.4,2.6-2.2,2.6c0.4-0.1,0.6,0.5,1.6,0.4c0.8-0.1,1.4-0.2,1.8-0.4c-0.8,1.1-1.4,2.3-1.5,3.7c-0.2,2.1,0.5,4.6,2,6.5
	c0.6,0.9,1.5,1.6,2.4,2.2c3.1,2.2,6.7,3.2,10.3,3.7c2.6,0.4,5.5,0.4,7.5-1c1.5-1.1,2.4-2.9,2.7-4.9C157,146.6,156.9,144.8,156.2,141
	z M137.3,133.1c-0.1-0.1-0.1-0.2-0.2-0.3C137.2,132.8,137.3,132.9,137.3,133.1z"/>
<g>
	<g>
		<g>
			<path id="SVGID_2_" class="st15" d="M141.6,127.2C141.6,127.2,141.7,127.2,141.6,127.2C141.6,127.1,141.6,127.1,141.6,127.2
				c-1.1,0.1-2,0.6-2.6,1.5c-1,1.1-1.7,2.4-1.9,3.9c0.1,0.1,0.1,0.2,0.2,0.5c-1.1-2.1-1.1-5,0-6.8c-0.4-0.1-0.7-0.4-1.1-0.6
				c-1.4,2.2-1.2,5.6,0.4,8.1c-0.5-1-1.4-1.5-2.4-1.9c-1.5-0.7-3.1-0.5-4.7-0.4c0.7,0.6,1.4,1.6,2.1,2.1c1.1,0.9,2.5,1.1,3.7,1.4
				c-1.1-0.1-2.4,0.2-3.2,0.9c-1.1,0.6-2.4,2.6-2.2,2.6c0.4-0.1,0.6,0.5,1.6,0.4c1.9-0.1,2.4-0.7,3.4-1.5c-0.2,0.1-0.2,0.4-0.2,0.6
				c-0.1,0.5-0.2,0.9-0.4,1.4c-0.1,0.6-0.4,1.2-0.4,1.9s0.2,1.4,0.7,1.9c0.7-0.1,1.2-0.9,1.7-1.5c0.6-0.7,1.2-1.6,1.6-2.7
				c0.4-1,0.5-2.1,0.1-3.2c0.4,0.1,0.6,0.5,1.1,0.5c0.9,0.1,1.7,0.1,2.5-0.1c0.5-0.2,0.9-0.5,1.2-0.9c0.5-0.4,1-0.7,1.4-1.1
				c0.1,0,0.1-0.1,0.1-0.2c0,0.1,0.1,0,0.1-0.1c-0.2-0.1-0.6-0.2-1-0.4s-0.7-0.2-1.1-0.4c-0.4-0.1-0.7-0.2-1.1-0.2
				c-1-0.1-1.9,0.1-2.7,0.4c0.6-0.5,1.2-0.7,1.7-1.5c0.2-0.4,0.5-0.9,0.7-1.4C141.4,129.3,141.7,128.2,141.6,127.2z"/>
		</g>
		<g>
			<defs>
				<path id="SVGID_7_" d="M141.6,127.2C141.6,127.2,141.7,127.2,141.6,127.2C141.6,127.1,141.6,127.1,141.6,127.2
					c-1.1,0.1-2,0.6-2.6,1.5c-1,1.1-1.7,2.4-1.9,3.9c0.1,0.1,0.1,0.2,0.2,0.5c-1.1-2.1-1.1-5,0-6.8c-0.4-0.1-0.7-0.4-1.1-0.6
					c-1.4,2.2-1.2,5.6,0.4,8.1c-0.5-1-1.4-1.5-2.4-1.9c-1.5-0.7-3.1-0.5-4.7-0.4c0.7,0.6,1.4,1.6,2.1,2.1c1.1,0.9,2.5,1.1,3.7,1.4
					c-1.1-0.1-2.4,0.2-3.2,0.9c-1.1,0.6-2.4,2.6-2.2,2.6c0.4-0.1,0.6,0.5,1.6,0.4c1.9-0.1,2.4-0.7,3.4-1.5c-0.2,0.1-0.2,0.4-0.2,0.6
					c-0.1,0.5-0.2,0.9-0.4,1.4c-0.1,0.6-0.4,1.2-0.4,1.9s0.2,1.4,0.7,1.9c0.7-0.1,1.2-0.9,1.7-1.5c0.6-0.7,1.2-1.6,1.6-2.7
					c0.4-1,0.5-2.1,0.1-3.2c0.4,0.1,0.6,0.5,1.1,0.5c0.9,0.1,1.7,0.1,2.5-0.1c0.5-0.2,0.9-0.5,1.2-0.9c0.5-0.4,1-0.7,1.4-1.1
					c0.1,0,0.1-0.1,0.1-0.2c0,0.1,0.1,0,0.1-0.1c-0.2-0.1-0.6-0.2-1-0.4s-0.7-0.2-1.1-0.4c-0.4-0.1-0.7-0.2-1.1-0.2
					c-1-0.1-1.9,0.1-2.7,0.4c0.6-0.5,1.2-0.7,1.7-1.5c0.2-0.4,0.5-0.9,0.7-1.4C141.4,129.3,141.7,128.2,141.6,127.2z"/>
			</defs>
			<clipPath id="SVGID_8_">
				<use xlink:href="#SVGID_7_"  style="overflow:visible;"/>
			</clipPath>
			<g class="st16">
				<g>
					<path class="st17" d="M137,129.3c0.1-0.6,0.2-1.1,0.5-1.7c0.2-0.5,0.5-0.9,0.5-1.4c0-0.2-0.2-0.4-0.4-0.2
						c-1,0.6-1.4,2.6-1.4,3.9c0,0.9,0,2.6,1.1,3C137.3,132.9,136.7,130.5,137,129.3z"/>
				</g>
			</g>
		</g>
		<g>
			<defs>
				<path id="SVGID_9_" d="M141.6,127.2C141.6,127.2,141.7,127.2,141.6,127.2C141.6,127.1,141.6,127.1,141.6,127.2
					c-1.1,0.1-2,0.6-2.6,1.5c-1,1.1-1.7,2.4-1.9,3.9c0.1,0.1,0.1,0.2,0.2,0.5c-1.1-2.1-1.1-5,0-6.8c-0.4-0.1-0.7-0.4-1.1-0.6
					c-1.4,2.2-1.2,5.6,0.4,8.1c-0.5-1-1.4-1.5-2.4-1.9c-1.5-0.7-3.1-0.5-4.7-0.4c0.7,0.6,1.4,1.6,2.1,2.1c1.1,0.9,2.5,1.1,3.7,1.4
					c-1.1-0.1-2.4,0.2-3.2,0.9c-1.1,0.6-2.4,2.6-2.2,2.6c0.4-0.1,0.6,0.5,1.6,0.4c1.9-0.1,2.4-0.7,3.4-1.5c-0.2,0.1-0.2,0.4-0.2,0.6
					c-0.1,0.5-0.2,0.9-0.4,1.4c-0.1,0.6-0.4,1.2-0.4,1.9s0.2,1.4,0.7,1.9c0.7-0.1,1.2-0.9,1.7-1.5c0.6-0.7,1.2-1.6,1.6-2.7
					c0.4-1,0.5-2.1,0.1-3.2c0.4,0.1,0.6,0.5,1.1,0.5c0.9,0.1,1.7,0.1,2.5-0.1c0.5-0.2,0.9-0.5,1.2-0.9c0.5-0.4,1-0.7,1.4-1.1
					c0.1,0,0.1-0.1,0.1-0.2c0,0.1,0.1,0,0.1-0.1c-0.2-0.1-0.6-0.2-1-0.4s-0.7-0.2-1.1-0.4c-0.4-0.1-0.7-0.2-1.1-0.2
					c-1-0.1-1.9,0.1-2.7,0.4c0.6-0.5,1.2-0.7,1.7-1.5c0.2-0.4,0.5-0.9,0.7-1.4C141.4,129.3,141.7,128.2,141.6,127.2z"/>
			</defs>
			<clipPath id="SVGID_10_">
				<use xlink:href="#SVGID_9_"  style="overflow:visible;"/>
			</clipPath>
			<g class="st18">
				<g>
					<path class="st19" d="M136.5,133.2c-0.1-0.5-0.4-0.9-0.5-1.4c-0.2-0.7-0.4-1.6-0.4-2.4c0-1.5,0.5-2.7,1.4-3.9
						c0.2-0.4-0.4-1-0.6-0.6c-0.9,1.1-1.4,2.5-1.4,4.1c0,1.2,0.1,1.9,1,3.5c0,0.1,0.6,1,0.6,0.9L136.5,133.2z"/>
				</g>
			</g>
		</g>
		<g>
			<defs>
				<path id="SVGID_11_" d="M141.6,127.2C141.6,127.2,141.7,127.2,141.6,127.2C141.6,127.1,141.6,127.1,141.6,127.2
					c-1.1,0.1-2,0.6-2.6,1.5c-1,1.1-1.7,2.4-1.9,3.9c0.1,0.1,0.1,0.2,0.2,0.5c-1.1-2.1-1.1-5,0-6.8c-0.4-0.1-0.7-0.4-1.1-0.6
					c-1.4,2.2-1.2,5.6,0.4,8.1c-0.5-1-1.4-1.5-2.4-1.9c-1.5-0.7-3.1-0.5-4.7-0.4c0.7,0.6,1.4,1.6,2.1,2.1c1.1,0.9,2.5,1.1,3.7,1.4
					c-1.1-0.1-2.4,0.2-3.2,0.9c-1.1,0.6-2.4,2.6-2.2,2.6c0.4-0.1,0.6,0.5,1.6,0.4c1.9-0.1,2.4-0.7,3.4-1.5c-0.2,0.1-0.2,0.4-0.2,0.6
					c-0.1,0.5-0.2,0.9-0.4,1.4c-0.1,0.6-0.4,1.2-0.4,1.9s0.2,1.4,0.7,1.9c0.7-0.1,1.2-0.9,1.7-1.5c0.6-0.7,1.2-1.6,1.6-2.7
					c0.4-1,0.5-2.1,0.1-3.2c0.4,0.1,0.6,0.5,1.1,0.5c0.9,0.1,1.7,0.1,2.5-0.1c0.5-0.2,0.9-0.5,1.2-0.9c0.5-0.4,1-0.7,1.4-1.1
					c0.1,0,0.1-0.1,0.1-0.2c0,0.1,0.1,0,0.1-0.1c-0.2-0.1-0.6-0.2-1-0.4s-0.7-0.2-1.1-0.4c-0.4-0.1-0.7-0.2-1.1-0.2
					c-1-0.1-1.9,0.1-2.7,0.4c0.6-0.5,1.2-0.7,1.7-1.5c0.2-0.4,0.5-0.9,0.7-1.4C141.4,129.3,141.7,128.2,141.6,127.2z"/>
			</defs>
			<clipPath id="SVGID_12_">
				<use xlink:href="#SVGID_11_"  style="overflow:visible;"/>
			</clipPath>
			<g class="st20">
				<g>
					<path class="st17" d="M137.9,133.4c1.4-0.4,2.4-1.2,3.1-2.5c0.6-1,1.4-2.7,0.9-4c-0.1-0.2-0.5-0.4-0.6-0.1
						c-0.2,0.5-0.1,1.1-0.4,1.7c-0.1,0.6-0.4,1.2-0.7,1.9c-0.6,1.1-1.4,2-2.2,2.9C137.9,133.3,137.8,133.4,137.9,133.4L137.9,133.4z
						"/>
				</g>
			</g>
		</g>
		<g>
			<defs>
				<path id="SVGID_13_" d="M141.6,127.2C141.6,127.2,141.7,127.2,141.6,127.2C141.6,127.1,141.6,127.1,141.6,127.2
					c-1.1,0.1-2,0.6-2.6,1.5c-1,1.1-1.7,2.4-1.9,3.9c0.1,0.1,0.1,0.2,0.2,0.5c-1.1-2.1-1.1-5,0-6.8c-0.4-0.1-0.7-0.4-1.1-0.6
					c-1.4,2.2-1.2,5.6,0.4,8.1c-0.5-1-1.4-1.5-2.4-1.9c-1.5-0.7-3.1-0.5-4.7-0.4c0.7,0.6,1.4,1.6,2.1,2.1c1.1,0.9,2.5,1.1,3.7,1.4
					c-1.1-0.1-2.4,0.2-3.2,0.9c-1.1,0.6-2.4,2.6-2.2,2.6c0.4-0.1,0.6,0.5,1.6,0.4c1.9-0.1,2.4-0.7,3.4-1.5c-0.2,0.1-0.2,0.4-0.2,0.6
					c-0.1,0.5-0.2,0.9-0.4,1.4c-0.1,0.6-0.4,1.2-0.4,1.9s0.2,1.4,0.7,1.9c0.7-0.1,1.2-0.9,1.7-1.5c0.6-0.7,1.2-1.6,1.6-2.7
					c0.4-1,0.5-2.1,0.1-3.2c0.4,0.1,0.6,0.5,1.1,0.5c0.9,0.1,1.7,0.1,2.5-0.1c0.5-0.2,0.9-0.5,1.2-0.9c0.5-0.4,1-0.7,1.4-1.1
					c0.1,0,0.1-0.1,0.1-0.2c0,0.1,0.1,0,0.1-0.1c-0.2-0.1-0.6-0.2-1-0.4s-0.7-0.2-1.1-0.4c-0.4-0.1-0.7-0.2-1.1-0.2
					c-1-0.1-1.9,0.1-2.7,0.4c0.6-0.5,1.2-0.7,1.7-1.5c0.2-0.4,0.5-0.9,0.7-1.4C141.4,129.3,141.7,128.2,141.6,127.2z"/>
			</defs>
			<clipPath id="SVGID_14_">
				<use xlink:href="#SVGID_13_"  style="overflow:visible;"/>
			</clipPath>
			<g class="st21">
				<g>
					<path class="st19" d="M137.5,132.8c0.1-1.2,0.7-2.6,1.5-3.5c0.4-0.5,0.9-0.9,1.4-1.2c0.5-0.2,1-0.4,1.4-0.9
						c0.1-0.1,0-0.4-0.1-0.5c-1.4-0.2-2.9,1.4-3.5,2.2c-0.6,1-1.5,2.5-0.7,3.7C137.3,132.8,137.5,132.8,137.5,132.8L137.5,132.8z"/>
				</g>
			</g>
		</g>
		<g>
			<defs>
				<path id="SVGID_15_" d="M141.6,127.2C141.6,127.2,141.7,127.2,141.6,127.2C141.6,127.1,141.6,127.1,141.6,127.2
					c-1.1,0.1-2,0.6-2.6,1.5c-1,1.1-1.7,2.4-1.9,3.9c0.1,0.1,0.1,0.2,0.2,0.5c-1.1-2.1-1.1-5,0-6.8c-0.4-0.1-0.7-0.4-1.1-0.6
					c-1.4,2.2-1.2,5.6,0.4,8.1c-0.5-1-1.4-1.5-2.4-1.9c-1.5-0.7-3.1-0.5-4.7-0.4c0.7,0.6,1.4,1.6,2.1,2.1c1.1,0.9,2.5,1.1,3.7,1.4
					c-1.1-0.1-2.4,0.2-3.2,0.9c-1.1,0.6-2.4,2.6-2.2,2.6c0.4-0.1,0.6,0.5,1.6,0.4c1.9-0.1,2.4-0.7,3.4-1.5c-0.2,0.1-0.2,0.4-0.2,0.6
					c-0.1,0.5-0.2,0.9-0.4,1.4c-0.1,0.6-0.4,1.2-0.4,1.9s0.2,1.4,0.7,1.9c0.7-0.1,1.2-0.9,1.7-1.5c0.6-0.7,1.2-1.6,1.6-2.7
					c0.4-1,0.5-2.1,0.1-3.2c0.4,0.1,0.6,0.5,1.1,0.5c0.9,0.1,1.7,0.1,2.5-0.1c0.5-0.2,0.9-0.5,1.2-0.9c0.5-0.4,1-0.7,1.4-1.1
					c0.1,0,0.1-0.1,0.1-0.2c0,0.1,0.1,0,0.1-0.1c-0.2-0.1-0.6-0.2-1-0.4s-0.7-0.2-1.1-0.4c-0.4-0.1-0.7-0.2-1.1-0.2
					c-1-0.1-1.9,0.1-2.7,0.4c0.6-0.5,1.2-0.7,1.7-1.5c0.2-0.4,0.5-0.9,0.7-1.4C141.4,129.3,141.7,128.2,141.6,127.2z"/>
			</defs>
			<clipPath id="SVGID_16_">
				<use xlink:href="#SVGID_15_"  style="overflow:visible;"/>
			</clipPath>
			<g class="st22">
				<g>
					<path class="st17" d="M129.2,131.8c1.2,0.2,2.4,0,3.6,0.1c0.7,0.1,1.5,0.2,2.1,0.6c0.5,0.2,1.1,0.7,1.6,0.7
						c0.1,0-0.2-0.2-0.2-0.4c-0.9-1.2-1.9-1.7-2.9-1.9c-1.4-0.2-3.1-0.2-4.1,0.4C129.1,131.6,129.1,131.7,129.2,131.8L129.2,131.8z"
						/>
				</g>
			</g>
		</g>
		<g>
			<defs>
				<path id="SVGID_17_" d="M141.6,127.2C141.6,127.2,141.7,127.2,141.6,127.2C141.6,127.1,141.6,127.1,141.6,127.2
					c-1.1,0.1-2,0.6-2.6,1.5c-1,1.1-1.7,2.4-1.9,3.9c0.1,0.1,0.1,0.2,0.2,0.5c-1.1-2.1-1.1-5,0-6.8c-0.4-0.1-0.7-0.4-1.1-0.6
					c-1.4,2.2-1.2,5.6,0.4,8.1c-0.5-1-1.4-1.5-2.4-1.9c-1.5-0.7-3.1-0.5-4.7-0.4c0.7,0.6,1.4,1.6,2.1,2.1c1.1,0.9,2.5,1.1,3.7,1.4
					c-1.1-0.1-2.4,0.2-3.2,0.9c-1.1,0.6-2.4,2.6-2.2,2.6c0.4-0.1,0.6,0.5,1.6,0.4c1.9-0.1,2.4-0.7,3.4-1.5c-0.2,0.1-0.2,0.4-0.2,0.6
					c-0.1,0.5-0.2,0.9-0.4,1.4c-0.1,0.6-0.4,1.2-0.4,1.9s0.2,1.4,0.7,1.9c0.7-0.1,1.2-0.9,1.7-1.5c0.6-0.7,1.2-1.6,1.6-2.7
					c0.4-1,0.5-2.1,0.1-3.2c0.4,0.1,0.6,0.5,1.1,0.5c0.9,0.1,1.7,0.1,2.5-0.1c0.5-0.2,0.9-0.5,1.2-0.9c0.5-0.4,1-0.7,1.4-1.1
					c0.1,0,0.1-0.1,0.1-0.2c0,0.1,0.1,0,0.1-0.1c-0.2-0.1-0.6-0.2-1-0.4s-0.7-0.2-1.1-0.4c-0.4-0.1-0.7-0.2-1.1-0.2
					c-1-0.1-1.9,0.1-2.7,0.4c0.6-0.5,1.2-0.7,1.7-1.5c0.2-0.4,0.5-0.9,0.7-1.4C141.4,129.3,141.7,128.2,141.6,127.2z"/>
			</defs>
			<clipPath id="SVGID_18_">
				<use xlink:href="#SVGID_17_"  style="overflow:visible;"/>
			</clipPath>
			<g class="st23">
				<g>
					<path class="st17" d="M136,134.8c-1.4-0.4-2.9,0.2-3.9,0.9c-1,0.6-2.2,1.4-2.6,2.6c-0.1,0.5,0.6,0.9,0.9,0.5
						c0.7-0.9,1.5-1.6,2.5-2.2c1-0.6,2.2-0.9,3.1-1.5C136.2,134.9,136.1,134.8,136,134.8L136,134.8z"/>
				</g>
			</g>
		</g>
		<g>
			<defs>
				<path id="SVGID_19_" d="M141.6,127.2C141.6,127.2,141.7,127.2,141.6,127.2C141.6,127.1,141.6,127.1,141.6,127.2
					c-1.1,0.1-2,0.6-2.6,1.5c-1,1.1-1.7,2.4-1.9,3.9c0.1,0.1,0.1,0.2,0.2,0.5c-1.1-2.1-1.1-5,0-6.8c-0.4-0.1-0.7-0.4-1.1-0.6
					c-1.4,2.2-1.2,5.6,0.4,8.1c-0.5-1-1.4-1.5-2.4-1.9c-1.5-0.7-3.1-0.5-4.7-0.4c0.7,0.6,1.4,1.6,2.1,2.1c1.1,0.9,2.5,1.1,3.7,1.4
					c-1.1-0.1-2.4,0.2-3.2,0.9c-1.1,0.6-2.4,2.6-2.2,2.6c0.4-0.1,0.6,0.5,1.6,0.4c1.9-0.1,2.4-0.7,3.4-1.5c-0.2,0.1-0.2,0.4-0.2,0.6
					c-0.1,0.5-0.2,0.9-0.4,1.4c-0.1,0.6-0.4,1.2-0.4,1.9s0.2,1.4,0.7,1.9c0.7-0.1,1.2-0.9,1.7-1.5c0.6-0.7,1.2-1.6,1.6-2.7
					c0.4-1,0.5-2.1,0.1-3.2c0.4,0.1,0.6,0.5,1.1,0.5c0.9,0.1,1.7,0.1,2.5-0.1c0.5-0.2,0.9-0.5,1.2-0.9c0.5-0.4,1-0.7,1.4-1.1
					c0.1,0,0.1-0.1,0.1-0.2c0,0.1,0.1,0,0.1-0.1c-0.2-0.1-0.6-0.2-1-0.4s-0.7-0.2-1.1-0.4c-0.4-0.1-0.7-0.2-1.1-0.2
					c-1-0.1-1.9,0.1-2.7,0.4c0.6-0.5,1.2-0.7,1.7-1.5c0.2-0.4,0.5-0.9,0.7-1.4C141.4,129.3,141.7,128.2,141.6,127.2z"/>
			</defs>
			<clipPath id="SVGID_20_">
				<use xlink:href="#SVGID_19_"  style="overflow:visible;"/>
			</clipPath>
			<g class="st24">
				<g>
					<path class="st19" d="M129.5,131.5c0.4,1,1.9,2.1,2.7,2.7c0.7,0.5,1.9,0.5,2.7,0.7c0.5,0.1,1.5,0.2,1.2,0
						c-0.4-0.4-1.6-0.7-2.1-0.9c-0.6-0.2-1.2-0.5-1.7-0.9C131.5,132.4,130.5,131.6,129.5,131.5C129.5,131.3,129.5,131.5,129.5,131.5
						L129.5,131.5z"/>
				</g>
			</g>
		</g>
		<g>
			<defs>
				<path id="SVGID_21_" d="M141.6,127.2C141.6,127.2,141.7,127.2,141.6,127.2C141.6,127.1,141.6,127.1,141.6,127.2
					c-1.1,0.1-2,0.6-2.6,1.5c-1,1.1-1.7,2.4-1.9,3.9c0.1,0.1,0.1,0.2,0.2,0.5c-1.1-2.1-1.1-5,0-6.8c-0.4-0.1-0.7-0.4-1.1-0.6
					c-1.4,2.2-1.2,5.6,0.4,8.1c-0.5-1-1.4-1.5-2.4-1.9c-1.5-0.7-3.1-0.5-4.7-0.4c0.7,0.6,1.4,1.6,2.1,2.1c1.1,0.9,2.5,1.1,3.7,1.4
					c-1.1-0.1-2.4,0.2-3.2,0.9c-1.1,0.6-2.4,2.6-2.2,2.6c0.4-0.1,0.6,0.5,1.6,0.4c1.9-0.1,2.4-0.7,3.4-1.5c-0.2,0.1-0.2,0.4-0.2,0.6
					c-0.1,0.5-0.2,0.9-0.4,1.4c-0.1,0.6-0.4,1.2-0.4,1.9s0.2,1.4,0.7,1.9c0.7-0.1,1.2-0.9,1.7-1.5c0.6-0.7,1.2-1.6,1.6-2.7
					c0.4-1,0.5-2.1,0.1-3.2c0.4,0.1,0.6,0.5,1.1,0.5c0.9,0.1,1.7,0.1,2.5-0.1c0.5-0.2,0.9-0.5,1.2-0.9c0.5-0.4,1-0.7,1.4-1.1
					c0.1,0,0.1-0.1,0.1-0.2c0,0.1,0.1,0,0.1-0.1c-0.2-0.1-0.6-0.2-1-0.4s-0.7-0.2-1.1-0.4c-0.4-0.1-0.7-0.2-1.1-0.2
					c-1-0.1-1.9,0.1-2.7,0.4c0.6-0.5,1.2-0.7,1.7-1.5c0.2-0.4,0.5-0.9,0.7-1.4C141.4,129.3,141.7,128.2,141.6,127.2z"/>
			</defs>
			<clipPath id="SVGID_22_">
				<use xlink:href="#SVGID_21_"  style="overflow:visible;"/>
			</clipPath>
			<g class="st25">
				<g>
					<path class="st19" d="M130,138.2c0.5,0.9,1.7,0.7,2.4,0.6c1.1-0.1,2.4-0.5,2.6-1.6c0-0.1-0.1-0.2-0.2-0.2
						c-0.9,0.1-1.4,0.7-2.2,0.9C131.9,138,130.9,138.3,130,138.2C130,138,130,138.2,130,138.2L130,138.2z"/>
				</g>
			</g>
		</g>
	</g>
	<g>
		<g>
			<path id="SVGID_1_" class="st26" d="M131.9,142c-0.2,2.1,0.5,4.6,2,6.5c0.6,0.9,1.5,1.6,2.4,2.2c3.1,2.2,6.7,3.2,10.3,3.7
				c2.6,0.4,5.5,0.4,7.5-1c1.5-1.1,2.4-2.9,2.7-4.9c0.2-2,0.1-3.9-0.5-7.6c-0.4-2.6-2.5-6.8-3.2-7.7c-1-1.2-2.2-2.1-3.6-2.6
				c-1.1-0.4-2.4-0.4-3.5-0.2c-2.5,0.2-5,1-7,2.2c-0.7,0.5-1.4,1.2-2,1.9c-1,1-2.1,1.9-3,3C132.8,138.8,132,140.3,131.9,142z"/>
		</g>
		<g>
			<defs>
				<path id="SVGID_23_" d="M131.9,142c-0.2,2.1,0.5,4.6,2,6.5c0.6,0.9,1.5,1.6,2.4,2.2c3.1,2.2,6.7,3.2,10.3,3.7
					c2.6,0.4,5.5,0.4,7.5-1c1.5-1.1,2.4-2.9,2.7-4.9c0.2-2,0.1-3.9-0.5-7.6c-0.4-2.6-2.5-6.8-3.2-7.7c-1-1.2-2.2-2.1-3.6-2.6
					c-1.1-0.4-2.4-0.4-3.5-0.2c-2.5,0.2-5,1-7,2.2c-0.7,0.5-1.4,1.2-2,1.9c-1,1-2.1,1.9-3,3C132.8,138.8,132,140.3,131.9,142z"/>
			</defs>
			<clipPath id="SVGID_24_">
				<use xlink:href="#SVGID_23_"  style="overflow:visible;"/>
			</clipPath>
			<g class="st27">
				<g>
					<path class="st28" d="M135.6,135.1c1.4,0.1,1.4-0.5,3.7-1.2c1.5-0.5,3-0.7,4.6-1c2.5-0.4,5.6,0.5,7.5,2.9
						c2.1,2.7,2.6,6.2,2.9,9.3c0.1,1.6,0,3.1-0.1,4.7c-0.2,1.5-0.5,3-0.9,4.7c-0.1,0.5,1.9,0.6,2.2,0.4c2.6-1.1,3.2-4.7,3.2-7.5
						c0.1-3.1-0.6-6.6-1.7-9.6s-3.2-6.1-6.3-7.5c-2.7-1.2-5.6-1.2-8.1-0.5c-1.6,0.4-3.1,1-4.6,1.7c-1.1,0.5-3,1.7-2.9,3.2
						C135.3,134.9,135.5,135.1,135.6,135.1L135.6,135.1z"/>
				</g>
			</g>
		</g>
		<g>
			<defs>
				<path id="SVGID_25_" d="M131.9,142c-0.2,2.1,0.5,4.6,2,6.5c0.6,0.9,1.5,1.6,2.4,2.2c3.1,2.2,6.7,3.2,10.3,3.7
					c2.6,0.4,5.5,0.4,7.5-1c1.5-1.1,2.4-2.9,2.7-4.9c0.2-2,0.1-3.9-0.5-7.6c-0.4-2.6-2.5-6.8-3.2-7.7c-1-1.2-2.2-2.1-3.6-2.6
					c-1.1-0.4-2.4-0.4-3.5-0.2c-2.5,0.2-5,1-7,2.2c-0.7,0.5-1.4,1.2-2,1.9c-1,1-2.1,1.9-3,3C132.8,138.8,132,140.3,131.9,142z"/>
			</defs>
			<clipPath id="SVGID_26_">
				<use xlink:href="#SVGID_25_"  style="overflow:visible;"/>
			</clipPath>
			<g class="st29">
				<g>
					<path class="st30" d="M134.2,135.7c-1.4-0.4-2.4,1-2.9,1.9c-0.6,1.2-0.9,2.9-0.7,4.4c0.1,3.2,1.4,7.3,4.2,9.7
						c2.5,2,5.3,3.6,8.3,4.7c1.4,0.5,2.9,0.9,4.4,1.1c1.7,0.2,3.4,0.5,4.6-0.7c0.5-0.5,2.7-3,1.9-3c-1.2,0-4.7-0.5-6.1-0.7
						c-1.1-0.1-2.2-0.5-3.4-0.7c-2.1-0.7-4.4-1.7-6.2-3.2c-1-0.7-1.9-1.4-2.4-2.5c-0.6-1.2-1.1-2.6-1.4-3.9
						c-0.2-1.2-0.2-2.5-0.1-3.6c0.1-0.9,1.9-3.2,1.6-4.2C135.8,134.7,134.5,135.8,134.2,135.7L134.2,135.7z"/>
				</g>
			</g>
		</g>
	</g>
	<g class="st31">
		<path class="st32" d="M138.1,132.2c0.9,0.4,1.5-0.4,2-1c0.5-0.6,1.1-1.5,1-2.4c0-0.4-0.5-0.6-0.7-0.4c-0.6,0.4-0.7,1.4-1.2,2
			c-0.4,0.5-1.1,1-1.1,1.6L138.1,132.2L138.1,132.2z"/>
	</g>
	<g class="st31">
		<path class="st32" d="M131.4,131.9c0.1,0.5,0.9,0.6,1.2,0.9c0.6,0.2,1.2,0.5,1.7,0.9c0.4,0.2,0.9,0.2,1.2,0l0.1-0.1
			c0.1-0.4,0-0.9-0.4-1.1c-0.7-0.4-1.6-0.7-2.5-0.9c-0.4,0-0.7,0-1.1,0.1C131.5,131.7,131.2,131.8,131.4,131.9L131.4,131.9z"/>
	</g>
	<g class="st31">
		<path class="st32" d="M131.9,137.9c0.7-0.2,1.4-0.9,2.1-1.2c0.6-0.4-0.1-1.5-0.7-1.1c-0.7,0.4-1.6,0.9-2,1.7
			C130.9,137.7,131.5,138,131.9,137.9L131.9,137.9z"/>
	</g>
	<g class="st31">
		<path class="st32" d="M136,129.1c0.2-0.4,0.2-1,0.4-1.5c0.1-0.2,0.1-0.6,0.2-0.9c0.1-0.2,0.2-0.4,0.2-0.6l-0.1-0.1
			c-0.5,0-0.6,0.7-0.7,1.1c-0.1,0.5-0.2,1.2-0.1,1.9C135.8,129.2,136,129.2,136,129.1L136,129.1z"/>
	</g>
	<g>
		<path class="st33" d="M138.8,130.1c0.5-0.1,0.9-0.5,1.1-0.9c0.4-0.4,1-0.6,1.1-1.1c0,0,0-0.1-0.1-0.1c-0.6,0-1,0.4-1.4,0.7
			C139.3,129.1,138.8,129.6,138.8,130.1C138.7,130.1,138.8,130.1,138.8,130.1L138.8,130.1z"/>
	</g>
	<g class="st34">
		<path class="st33" d="M135.3,133.1c0.1,0.1,0.2,0.2,0.4,0.4c0.1,0.1,0.2,0.2,0.4,0.4h0.1c0-0.2,0-0.4-0.2-0.5
			c-0.1-0.1-0.4-0.2-0.6-0.4C135.3,132.7,135.2,132.9,135.3,133.1L135.3,133.1z"/>
	</g>
	<g>
		<g>
			<defs>
				<path id="SVGID_27_" d="M131.9,142c-0.2,2.1,0.5,4.6,2,6.5c0.6,0.9,1.5,1.6,2.4,2.2c3.1,2.2,6.7,3.2,10.3,3.7
					c2.6,0.4,5.5,0.4,7.5-1c1.5-1.1,2.4-2.9,2.7-4.9c0.2-2,0.1-3.9-0.5-7.6c-0.4-2.6-2.5-6.8-3.2-7.7c-1-1.2-2.2-2.1-3.6-2.6
					c-1.1-0.4-2.4-0.4-3.5-0.2c-2.5,0.2-5,1-7,2.2c-0.7,0.5-1.4,1.2-2,1.9c-1,1-2.1,1.9-3,3C132.8,138.8,132,140.3,131.9,142z"/>
			</defs>
			<clipPath id="SVGID_28_">
				<use xlink:href="#SVGID_27_"  style="overflow:visible;"/>
			</clipPath>
			<path class="st35" d="M158.8,139.5c0-0.1,0-0.1,0-0.2c0.1-1.1-0.5-1.9-1.4-2.1c0-0.2,0.1-0.5,0.1-0.9c0-0.7-0.4-1.6-1.1-2
				c-0.6-0.4-1.6-0.4-2.1,0.2c-2.2,3.6-6.1,5.8-10.4,6.6c-1.9,0.2-4,0.1-5.8-0.9c-0.6-0.4-1.6-1.4-2.1-2c-0.5-0.7-0.5-2.5-0.1-2.9
				c0.6-0.7-0.5-2-1.4-1.5c-0.5,0.2-0.9,0.6-1.2,1c-0.9,0-1.6,0.4-1.7,1.2c-0.1,1.1-0.1,2.4-0.1,3.6c-0.7,0.2-1.4,0.9-1.2,1.7
				c0.6,3.4,2.4,7,5.3,9.2c1.1,0.9,2.2,1.4,3.5,1.7c0.1,0.4,0.4,0.7,0.7,1.1c1.6,1.4,3.2,2.4,5.2,2.7c2,0.4,4,0.5,5.8,0.1
				c1.9-0.4,3.5-1.2,5-2.4c0.7-0.5,1.4-1.1,2.1-1.9c0.7-0.7,1-1.6,1.4-2.6c0.1-0.2,0.1-0.5,0-0.7c1-2.1,1.4-4.6,1.9-7
				C161.5,140.7,160.1,139.5,158.8,139.5z"/>
		</g>
		<g>
			<defs>
				<path id="SVGID_29_" d="M131.9,142c-0.2,2.1,0.5,4.6,2,6.5c0.6,0.9,1.5,1.6,2.4,2.2c3.1,2.2,6.7,3.2,10.3,3.7
					c2.6,0.4,5.5,0.4,7.5-1c1.5-1.1,2.4-2.9,2.7-4.9c0.2-2,0.1-3.9-0.5-7.6c-0.4-2.6-2.5-6.8-3.2-7.7c-1-1.2-2.2-2.1-3.6-2.6
					c-1.1-0.4-2.4-0.4-3.5-0.2c-2.5,0.2-5,1-7,2.2c-0.7,0.5-1.4,1.2-2,1.9c-1,1-2.1,1.9-3,3C132.8,138.8,132,140.3,131.9,142z"/>
			</defs>
			<clipPath id="SVGID_30_">
				<use xlink:href="#SVGID_29_"  style="overflow:visible;"/>
			</clipPath>
			<path class="st36" d="M159,145.9c0-0.1,0-0.1,0-0.2c0.1-1.1-0.5-1.9-1.4-2.1c0-0.2,0.1-0.5,0.1-0.9c0-0.7,0-4.2-0.7-4.7
				c-0.6-0.4-2,2.4-2.4,2.9c-2.2,3.6-6.1,5.8-10.4,6.6c-1.9,0.2-4,0.1-5.8-0.9c-0.6-0.4-2.4-2.2-2.9-2.7c-1.4-1.7-1.9-5.7-2.7-5.2
				c-0.5,0.2-0.5,0.6-0.7,1.1c-0.9,0,0,2-0.1,2.9c-0.1,1.1-0.1,2.4-0.1,3.6c-0.7,0.2-1.4,0.9-1.2,1.7c0.6,3.4,2.4,7,5.3,9.2
				c1.1,0.9,2.2,1.4,3.5,1.7c0.1,0.4,0.4,0.7,0.7,1.1c1.6,1.4,3.2,2.4,5.2,2.7c2,0.4,4,0.5,5.8,0.1c1.9-0.4,3.5-1.2,5-2.4
				c0.7-0.5,1.4-1.1,2.1-1.9c0.7-0.7,1-1.6,1.4-2.6c0.1-0.2,0.1-0.5,0-0.7c1-2.1,1.4-4.6,1.9-7C161.5,147,160.1,145.9,159,145.9z"/>
		</g>
		<g>
			<defs>
				<path id="SVGID_31_" d="M131.9,142c-0.2,2.1,0.5,4.6,2,6.5c0.6,0.9,1.5,1.6,2.4,2.2c3.1,2.2,6.7,3.2,10.3,3.7
					c2.6,0.4,5.5,0.4,7.5-1c1.5-1.1,2.4-2.9,2.7-4.9c0.2-2,0.1-3.9-0.5-7.6c-0.4-2.6-2.5-6.8-3.2-7.7c-1-1.2-2.2-2.1-3.6-2.6
					c-1.1-0.4-2.4-0.4-3.5-0.2c-2.5,0.2-5,1-7,2.2c-0.7,0.5-1.4,1.2-2,1.9c-1,1-2.1,1.9-3,3C132.8,138.8,132,140.3,131.9,142z"/>
			</defs>
			<clipPath id="SVGID_32_">
				<use xlink:href="#SVGID_31_"  style="overflow:visible;"/>
			</clipPath>
			<path class="st37" d="M161,149.4c0-0.1,0-0.1,0-0.2c0-1.1-0.6-1.9-1.5-2.1c0-0.2,0-0.6,0-0.9c0-0.7-0.2-4.4-1.1-4.7
				c-0.6-0.4-1.9,2.5-2.1,3.1c-2,3.9-5.6,5.6-9.8,6.6c-1.9,0.5-4.4,0.1-6.3-0.9c-0.6-0.2-3.2-1.1-4.6-2.5c-1.6-1.5-3.7-4.9-4.6-4.2
				c-0.5,0.4,0.5,2.2,0.5,3.1c0,1.1,2.5,3.5,2.7,4.7c-0.7,0.2-1.4,1-1.1,1.9c0.9,3.4,2.7,6.8,6,9c1.1,0.7,2.4,1.2,3.6,1.5
				c0.1,0.4,0.4,0.7,0.9,1c1.7,1.2,3.4,2.2,5.3,2.4c2,0.2,4,0.2,5.7-0.4c1.7-0.5,3.4-1.5,4.7-2.7c0.6-0.6,1.4-1.2,1.9-2
				c0.6-0.7,0.9-1.7,1.1-2.7c0.1-0.2,0.1-0.5,0-0.7c0.7-2.2,1-4.9,1.2-7.2C163.5,150.2,162.1,149.4,161,149.4z"/>
		</g>
	</g>
	<path class="st38" d="M137.3,140.2c-0.1,1.5,0.4,3.2,1.5,4.6c0.5,0.6,1.1,1.1,1.7,1.6c2.2,1.6,4.9,2.4,7.3,2.7
		c1.9,0.2,3.9,0.2,5.3-0.7c1.1-0.7,1.7-2.1,1.9-3.5c0.2-1.4,0.1-2.7-0.4-5.5c-0.2-1.9-1.7-4.9-2.4-5.5c-0.6-0.9-1.6-1.5-2.6-1.9
		c-0.9-0.2-1.7-0.2-2.5-0.1c-1.7,0.2-3.6,0.7-5,1.6c-0.5,0.4-1,0.9-1.5,1.4c-0.7,0.7-1.5,1.4-2.1,2.1
		C138.1,137.9,137.5,138.9,137.3,140.2z"/>
	<path class="st38" d="M138.9,139.3c-0.1,1.1,0.2,2.2,1,3.2c0.4,0.4,0.7,0.7,1.1,1.1c1.5,1.1,3.4,1.6,5.1,1.9
		c1.4,0.1,2.7,0.2,3.7-0.5c0.7-0.5,1.1-1.5,1.4-2.4c0.1-1,0.1-1.9-0.2-3.7c-0.2-1.4-1.2-3.4-1.6-3.9c-0.5-0.6-1.1-1.1-1.7-1.2
		s-1.1-0.1-1.7-0.1c-1.2,0.1-2.5,0.5-3.5,1.1c-0.4,0.2-0.6,0.6-1,0.9c-0.5,0.5-1,1-1.5,1.5C139.4,137.8,138.9,138.5,138.9,139.3z"/>
	<path class="st38" d="M142.1,137.7c-0.1,0.6,0.1,1.2,0.6,1.9c0.2,0.2,0.4,0.5,0.6,0.6c0.9,0.6,1.9,0.9,2.9,1.1
		c0.7,0.1,1.5,0.1,2.1-0.2c0.4-0.2,0.6-0.9,0.7-1.4c0.1-0.5,0-1.1-0.1-2.1c-0.1-0.7-0.7-1.9-0.9-2.1c-0.2-0.4-0.6-0.6-1-0.7
		c-0.4-0.1-0.6-0.1-1-0.1c-0.7,0.1-1.4,0.2-2,0.6c-0.2,0.1-0.4,0.4-0.6,0.5c-0.2,0.2-0.6,0.5-0.9,0.9
		C142.3,136.7,142.2,137.2,142.1,137.7z"/>
	<g>
		<path class="st39" d="M150,152.3c-0.4-0.4-0.5-1-0.1-1.4c0.4-0.4,0.9-0.4,1.4,0.1c0.4,0.4,0.6,1.9,0.6,1.9S150.4,152.8,150,152.3z
			"/>
		<path class="st40" d="M150.3,152.2c-0.2-0.2-0.2-0.5-0.1-0.7c0.1-0.2,0.5-0.1,0.7,0c0.2,0.2,0.4,1,0.4,1S150.5,152.3,150.3,152.2z
			"/>
		<path class="st41" d="M150.6,152c-0.1-0.1-0.1-0.2,0-0.2c0.1-0.1,0.1-0.1,0.2,0c0.1,0.1,0.1,0.4,0.1,0.4L150.6,152z"/>
	</g>
	<g>
		<path class="st39" d="M151.3,148c-0.1-0.5,0.1-1,0.6-1.1c0.5-0.1,1,0.2,1.2,0.7c0.1,0.5-0.4,1.7-0.4,1.7S151.5,148.5,151.3,148z"
			/>
		<path class="st40" d="M151.8,148c-0.1-0.2,0-0.5,0.4-0.6c0.2,0,0.5,0.1,0.6,0.4c0.1,0.2-0.2,0.9-0.2,0.9S151.8,148.2,151.8,148z"
			/>
		<path class="st41" d="M152.1,148c0-0.1,0-0.2,0.1-0.2s0.2,0,0.2,0.1c0,0.1-0.1,0.4-0.1,0.4S152.3,148.1,152.1,148z"/>
	</g>
	<g>
		<path class="st39" d="M146,149c-0.4-0.4-0.5-1-0.2-1.4c0.4-0.4,0.9-0.4,1.4,0c0.4,0.4,0.7,1.7,0.7,1.7S146.5,149.4,146,149z"/>
		<path class="st40" d="M146.4,148.7c-0.2-0.2-0.2-0.5-0.1-0.7c0.1-0.2,0.5-0.1,0.7,0c0.2,0.2,0.4,1,0.4,1S146.7,149,146.4,148.7z"
			/>
		<path class="st41" d="M146.7,148.5c-0.1-0.1-0.1-0.2,0-0.2c0-0.1,0.1-0.1,0.2,0c0.1,0.1,0.1,0.4,0.1,0.4S146.8,148.6,146.7,148.5z
			"/>
	</g>
	<g>
		<path class="st39" d="M145.3,153c-0.5-0.2-0.9-0.7-0.7-1.2c0.1-0.5,0.6-0.7,1.1-0.5c0.5,0.2,1.4,1.5,1.4,1.5
			S145.8,153.1,145.3,153z"/>
		<path class="st40" d="M145.4,152.6c-0.2-0.1-0.5-0.4-0.4-0.6c0-0.2,0.4-0.4,0.6-0.2c0.2,0.1,0.7,0.7,0.7,0.7
			S145.7,152.7,145.4,152.6z"/>
		<path class="st41" d="M145.5,152.1c-0.1,0-0.1-0.1-0.1-0.2c0-0.1,0.1-0.1,0.2-0.1c0.1,0,0.2,0.2,0.2,0.2S145.7,152.2,145.5,152.1z
			"/>
	</g>
	<g>
		<path class="st39" d="M140.8,149.1c-0.5-0.2-0.7-0.7-0.6-1.2c0.1-0.5,0.6-0.6,1.1-0.5c0.5,0.2,1.2,1.5,1.2,1.5
			S141.3,149.4,140.8,149.1z"/>
		<path class="st40" d="M140.9,148.9c-0.2-0.1-0.4-0.4-0.4-0.6c0.1-0.2,0.4-0.4,0.6-0.2c0.2,0.1,0.6,0.9,0.6,0.9
			S141.3,149,140.9,148.9z"/>
		<path class="st41" d="M141.2,148.5c-0.1,0-0.1-0.1-0.1-0.2c0-0.1,0.1-0.1,0.2-0.1s0.2,0.2,0.2,0.2S141.3,148.5,141.2,148.5z"/>
	</g>
	<g>
		<path class="st39" d="M147,144.3c-0.2-0.5,0-1,0.4-1.2c0.5-0.1,1,0.1,1.2,0.6c0.2,0.5-0.1,1.7-0.1,1.7S147.3,144.8,147,144.3z"/>
		<path class="st40" d="M147.5,144.3c-0.1-0.2,0-0.5,0.2-0.6c0.2-0.1,0.5,0.1,0.7,0.4c0.1,0.2-0.1,1-0.1,1S147.7,144.5,147.5,144.3z
			"/>
		<path class="st41" d="M147.9,144.1c0-0.1,0-0.2,0.1-0.2s0.2,0,0.2,0.1s0,0.4,0,0.4S147.9,144.3,147.9,144.1z"/>
	</g>
	<g>
		<path class="st39" d="M142.9,139c-0.4-0.4-0.4-1,0-1.4c0.4-0.2,1-0.1,1.4,0.2c0.4,0.4,0.4,1.9,0.4,1.9S143.3,139.4,142.9,139z"/>
		<path class="st40" d="M143.3,138.9c-0.2-0.2-0.2-0.5,0-0.7c0.2-0.1,0.5-0.1,0.7,0.1c0.2,0.2,0.2,1,0.2,1S143.4,139,143.3,138.9z"
			/>
		<path class="st41" d="M143.7,138.7c-0.1-0.1-0.1-0.2,0-0.2c0.1,0,0.2,0,0.2,0c0.1,0.1,0.1,0.4,0.1,0.4S143.7,138.8,143.7,138.7z"
			/>
	</g>
	<g>
		<path class="st39" d="M140.8,133.6c-0.4,0-0.9-0.2-1-0.7c-0.1-0.5,0.1-0.9,0.5-0.9c0.4,0,1.5,0.6,1.5,0.6S141.2,133.6,140.8,133.6
			z"/>
		<path class="st40" d="M140.7,133.2c-0.2,0-0.5-0.1-0.5-0.4c-0.1-0.2,0-0.5,0.2-0.5c0.2,0,0.9,0.4,0.9,0.4S140.9,133.2,140.7,133.2
			z"/>
		<path class="st41" d="M140.7,132.8c-0.1,0-0.1,0-0.2-0.1c0-0.1,0-0.1,0.1-0.1s0.2,0.1,0.2,0.1S140.8,132.8,140.7,132.8z"/>
	</g>
	<g>
		<path class="st39" d="M137.6,137.3c-0.4-0.4-0.4-1,0-1.4c0.4-0.2,1-0.1,1.4,0.2c0.4,0.4,0.4,1.9,0.4,1.9S137.9,137.7,137.6,137.3z
			"/>
		<path class="st40" d="M137.9,137c-0.2-0.2-0.2-0.5,0-0.7c0.2-0.1,0.5-0.1,0.7,0.1s0.2,1,0.2,1S138.2,137.3,137.9,137z"/>
		<path class="st41" d="M138.3,136.9c-0.1-0.1-0.1-0.2,0-0.2s0.2,0,0.2,0c0.1,0.1,0.1,0.4,0.1,0.4S138.4,136.9,138.3,136.9z"/>
	</g>
	<g>
		<path class="st39" d="M153.2,140.5c-0.2-0.5,0-1,0.4-1.2c0.5-0.1,1,0.1,1.2,0.6c0.2,0.5-0.1,1.7-0.1,1.7S153.5,141,153.2,140.5z"
			/>
		<path class="st40" d="M153.7,140.4c-0.1-0.2,0-0.5,0.2-0.6c0.2-0.1,0.5,0.1,0.7,0.4c0.1,0.2-0.1,1-0.1,1S153.9,140.8,153.7,140.4z
			"/>
		<path class="st41" d="M154.1,140.4c0-0.1,0-0.2,0.1-0.2c0.1,0,0.2,0,0.2,0.1s0,0.4,0,0.4S154.2,140.4,154.1,140.4z"/>
	</g>
	<g>
		<path class="st39" d="M147.9,139.3c-0.2-0.5,0-1,0.4-1.2c0.4-0.2,1,0.1,1.2,0.6c0.2,0.5-0.1,1.7-0.1,1.7S148.1,139.8,147.9,139.3z
			"/>
		<path class="st40" d="M148.3,139.3c-0.1-0.2,0-0.5,0.2-0.6c0.2-0.1,0.5,0.1,0.7,0.4c0.1,0.2-0.1,1-0.1,1S148.4,139.5,148.3,139.3z
			"/>
		<path class="st41" d="M148.8,139.2c0-0.1,0-0.2,0.1-0.2s0.2,0,0.2,0.1s0,0.4,0,0.4S148.8,139.3,148.8,139.2z"/>
	</g>
	<g>
		<path class="st39" d="M149.9,135.2c-0.4-0.4-0.5-1-0.2-1.4c0.4-0.4,0.9-0.4,1.4,0c0.4,0.4,0.7,1.7,0.7,1.7
			S150.3,135.6,149.9,135.2z"/>
		<path class="st40" d="M150.1,134.9c-0.2-0.2-0.2-0.5-0.1-0.7c0.1-0.2,0.5-0.1,0.7,0c0.2,0.2,0.4,1,0.4,1S150.4,135.2,150.1,134.9z
			"/>
		<path class="st41" d="M150.5,134.7c-0.1-0.1-0.1-0.2,0-0.2c0-0.1,0.1-0.1,0.2,0c0.1,0.1,0.1,0.4,0.1,0.4L150.5,134.7z"/>
	</g>
	<g>
		<path class="st39" d="M144.8,134.7c-0.5-0.4-0.6-1-0.2-1.4c0.2-0.4,0.9-0.4,1.2-0.1c0.5,0.4,0.9,1.7,0.9,1.7
			S145.2,135.1,144.8,134.7z"/>
		<path class="st40" d="M145,134.4c-0.2-0.2-0.4-0.5-0.1-0.7c0.1-0.2,0.5-0.2,0.7,0c0.2,0.2,0.5,1,0.5,1S145.3,134.6,145,134.4z"/>
		<path class="st41" d="M145.3,134.1c-0.1-0.1-0.1-0.1,0-0.2c0-0.1,0.1-0.1,0.2,0c0.1,0.1,0.1,0.4,0.1,0.4S145.4,134.2,145.3,134.1z
			"/>
	</g>
	<g>
		<path class="st39" d="M142.3,143.9c-0.4-0.5-0.4-1,0-1.4c0.4-0.2,1-0.1,1.4,0.2c0.4,0.5,0.4,1.9,0.4,1.9S142.7,144.3,142.3,143.9z
			"/>
		<path class="st40" d="M142.7,143.8c-0.2-0.2-0.1-0.5,0-0.7c0.2-0.1,0.5-0.1,0.7,0.1c0.2,0.2,0.2,1,0.2,1S142.9,144,142.7,143.8z"
			/>
		<path class="st41" d="M143,143.5c-0.1-0.1-0.1-0.2,0-0.2s0.2,0,0.2,0c0.1,0.1,0.1,0.4,0.1,0.4S143.2,143.6,143,143.5z"/>
	</g>
	<g>
		<path class="st39" d="M137.1,143.1c-0.4-0.5-0.4-1,0-1.4c0.4-0.2,1-0.1,1.4,0.2c0.4,0.5,0.4,1.9,0.4,1.9S137.5,143.6,137.1,143.1z
			"/>
		<path class="st40" d="M137.5,143c-0.2-0.2-0.1-0.5,0-0.7c0.2-0.1,0.5-0.1,0.7,0.1c0.2,0.2,0.2,1,0.2,1S137.7,143.3,137.5,143z"/>
		<path class="st41" d="M137.8,142.9c-0.1-0.1-0.1-0.2,0-0.2s0.2,0,0.2,0c0.1,0.1,0.1,0.4,0.1,0.4S137.9,142.9,137.8,142.9z"/>
	</g>
	<g>
		<path class="st39" d="M132.4,144.1c-0.2-0.5,0-1.1,0.4-1.1c0.4-0.1,0.9,0.4,1.1,0.9c0.2,0.5-0.1,1.9-0.1,1.9
			S132.5,144.6,132.4,144.1z"/>
		<path class="st40" d="M132.6,144.1c-0.1-0.2,0-0.6,0.2-0.6c0.2,0,0.5,0.1,0.6,0.5c0.1,0.2,0,1,0,1S132.7,144.4,132.6,144.1z"/>
		<path class="st41" d="M133,144.1c0-0.1,0-0.2,0.1-0.2s0.1,0,0.2,0.1c0,0.1,0,0.4,0,0.4S133.1,144.3,133,144.1z"/>
	</g>
	<g>
		<path class="st39" d="M133.5,139c-0.1-0.5,0.2-0.9,0.7-0.9c0.5,0,0.9,0.4,1,0.9c0.1,0.5-0.6,1.4-0.6,1.4S133.5,139.5,133.5,139z"
			/>
		<path class="st40" d="M133.8,139.2c0-0.2,0.1-0.5,0.4-0.5c0.2,0,0.5,0.2,0.5,0.5c0,0.2-0.4,0.7-0.4,0.7S133.8,139.4,133.8,139.2z"
			/>
		<path class="st41" d="M134.2,139.2c0-0.1,0-0.1,0.1-0.1s0.1,0.1,0.2,0.1c0,0.1-0.1,0.2-0.1,0.2S134.2,139.3,134.2,139.2z"/>
	</g>
	<g>
		<path class="st39" d="M135.8,148.5c-0.4-0.4-0.5-1-0.1-1.4c0.4-0.4,0.9-0.4,1.4,0c0.4,0.4,0.7,1.9,0.7,1.9
			S136.3,148.9,135.8,148.5z"/>
		<path class="st40" d="M136.2,148.2c-0.2-0.2-0.2-0.5-0.1-0.7c0.1-0.2,0.5-0.1,0.7,0c0.2,0.2,0.4,1,0.4,1S136.5,148.5,136.2,148.2z
			"/>
		<path class="st41" d="M136.5,148c-0.1-0.1-0.1-0.2,0-0.2c0-0.1,0.1-0.1,0.2,0s0.1,0.4,0.1,0.4S136.6,148.1,136.5,148z"/>
	</g>
	<g>
		<path class="st39" d="M154.4,145.5c-0.1-0.5,0.1-1,0.7-1c0.5,0,1,0.4,1.1,0.9c0.1,0.5-0.5,1.6-0.5,1.6S154.5,146,154.4,145.5z"/>
		<path class="st40" d="M154.9,145.5c-0.1-0.2,0.1-0.5,0.4-0.5c0.2,0,0.5,0.2,0.6,0.5c0.1,0.2-0.2,0.9-0.2,0.9
			S154.9,145.8,154.9,145.5z"/>
		<path class="st41" d="M155.4,145.5c0-0.1,0-0.2,0.1-0.2s0.2,0.1,0.2,0.1c0,0.1-0.1,0.4-0.1,0.4S155.4,145.6,155.4,145.5z"/>
	</g>
	<g>
		<path class="st39" d="M150.3,142.6c-0.1-0.5,0.1-1,0.7-1c0.5,0,1,0.4,1.1,0.9c0.1,0.5-0.5,1.6-0.5,1.6S150.4,143.1,150.3,142.6z"
			/>
		<path class="st40" d="M150.8,142.6c-0.1-0.2,0.1-0.5,0.4-0.5c0.2,0,0.5,0.2,0.6,0.5c0.1,0.2-0.2,0.9-0.2,0.9
			S150.8,142.9,150.8,142.6z"/>
		<path class="st41" d="M151.1,142.6c0-0.1,0-0.2,0.1-0.2c0.1,0,0.2,0.1,0.2,0.1c0,0.1-0.1,0.4-0.1,0.4S151.1,142.8,151.1,142.6z"/>
	</g>
	<g>
		<path class="st33" d="M143,132.8c1.4-0.2,2.9-0.5,4.1,0.7c1.1,1.1,2.4-0.4,1.2-1.5c-0.9-1-2.2-1.4-3.4-1.2s-2.2,0.5-2.4,1.6
			C142.8,132.7,142.9,132.8,143,132.8L143,132.8z"/>
	</g>
	<g>
		<path class="st33" d="M147.9,135.4c0.1,0.4,0.7,0.6,1,0.4c0.1-0.1,0.1-0.4,0-0.5c-0.1-0.2-0.4-0.2-0.5-0.2h-0.1c0,0,0,0,0.1,0h0.1
			c0,0,0.1,0.1,0.1,0c-0.1-0.1-0.4-0.1-0.5-0.1C147.9,135.1,147.9,135.3,147.9,135.4L147.9,135.4z"/>
	</g>
</g>
<path class="st42" d="M155.7,153.8v98.1c0,4.5,3.3,8.2,7.4,8.2h33.8c4.1,0,7.4-3.7,7.4-8.2v-98.1H155.7z"/>
<path class="st43" d="M158.8,153.8v98.1c0,4.5,2.9,8.2,6.4,8.2h29.5c3.6,0,6.4-3.7,6.4-8.2v-98.1H158.8z"/>
<path class="st42" d="M201.2,153.8h-4.4L184.1,211c-0.2,1.2,0.6,2.4,1.8,2.6c1.2,0.2,2.4-0.6,2.6-1.8l12.6-57.1L201.2,153.8
	L201.2,153.8z"/>
<path class="st44" d="M206.2,124.6l-19,85.9c-0.2,1.2,0.6,2.4,1.8,2.6c1.2,0.2,2.4-0.6,2.6-1.8l19-85.9L206.2,124.6z"/>
<path class="st45" d="M155.7,189.5v62.4c0,4.5,3.3,8.2,7.4,8.2h33.8c4.1,0,7.4-3.7,7.4-8.2v-62.4L155.7,189.5L155.7,189.5z"/>
<path class="st46" d="M155.7,217.1v34.7c0,4.5,3.3,8.2,7.4,8.2h33.8c4.1,0,7.4-3.7,7.4-8.2v-34.7L155.7,217.1L155.7,217.1z"/>
<path class="st47" d="M155.7,236.7v15.1c0,4.5,3.3,8.2,7.4,8.2h33.8c4.1,0,7.4-3.7,7.4-8.2v-15.1H155.7z"/>
<path class="st48" d="M185.4,195.1c1.1,1.1,1.1,2.8,0,3.8l-8.9,8.9c-1.1,1.1-2.8,1.1-3.8,0l-10-10c-1.1-1.1-1.1-2.8,0-3.8l8.9-8.9
	c1.1-1.1,2.8-1.1,3.8,0L185.4,195.1z"/>
<path class="st48" d="M192.8,216c-0.9,0.9-2.3,0.9-3.2,0l-7.4-7.4c-0.9-0.9-0.9-2.3,0-3.2l8.3-8.3c0.9-0.9,2.3-0.9,3.2,0l7.4,7.4
	c0.9,0.9,0.9,2.3,0,3.2L192.8,216z"/>
<path class="st48" d="M180,214.1c-0.7,0.7-1.8,0.7-2.4,0l-5.7-5.7c-0.7-0.7-0.7-1.8,0-2.4l6.4-6.4c0.7-0.7,1.8-0.7,2.4,0l5.7,5.7
	c0.7,0.7,0.7,1.8,0,2.4L180,214.1z"/>
<path class="st48" d="M172,219.1c-0.7-0.7-0.7-1.7,0-2.4l5.6-5.6c0.7-0.7,1.7-0.7,2.4,0l6.3,6.3c0.7,0.7,0.7,1.7,0,2.4l-5.6,5.6
	c-0.7,0.7-1.7,0.7-2.4,0L172,219.1z"/>
<path class="st49" d="M170,225.9c0,2.3-1.8,4.1-4.1,4.1s-4.1-1.8-4.1-4.1s1.8-4.1,4.1-4.1C168.2,221.9,170,223.7,170,225.9z"/>
<path class="st49" d="M194.8,222.9c0,1.4-1.1,2.4-2.4,2.4c-1.4,0-2.4-1.1-2.4-2.4c0-1.4,1.1-2.4,2.4-2.4
	C193.7,220.4,194.8,221.5,194.8,222.9z"/>
<path class="st49" d="M184.1,230.4c0,1.4-1.1,2.4-2.4,2.4c-1.4,0-2.4-1.1-2.4-2.4s1.1-2.4,2.4-2.4
	C182.9,228,184.1,229.1,184.1,230.4z"/>
<path class="st50" d="M149.2,146.6v111.3c0,5.2,4.2,9.3,9.3,9.3h42.9c5.1,0,9.3-4.2,9.3-9.3V146.6H149.2z M204.2,251.8
	c0,4.5-3.3,8.2-7.4,8.2h-33.8c-4.1,0-7.4-3.7-7.4-8.2v-98.1h48.6L204.2,251.8L204.2,251.8z"/>
<g>
	<path class="st51" d="M152.2,257.9V146.6h-3v111.3c0,5.2,4.2,9.3,9.3,9.3h3C156.4,267.2,152.2,263,152.2,257.9z"/>
</g>
</svg>
