<?xml version="1.0" encoding="utf-8"?>
<!-- Generator: Adobe Illustrator 23.0.0, SVG Export Plug-In . SVG Version: 6.00 Build 0)  -->
<svg version="1.1" id="Capa_1" xmlns="http://www.w3.org/2000/svg" xmlns:xlink="http://www.w3.org/1999/xlink" x="0px" y="0px"
	 viewBox="0 0 360 363" style="enable-background:new 0 0 360 363;" xml:space="preserve">
<style type="text/css">
	.st0{fill:#FFD084;}
	.st1{fill:none;stroke:#FFE1C0;stroke-width:0.7573;stroke-miterlimit:10;}
	.st2{fill:#FFD6A4;}
	.st3{fill:none;stroke:#FFE1C0;stroke-width:0.75;stroke-miterlimit:10;}
	.st4{fill:#FFE1C0;}
	.st5{fill:none;stroke:#FFD6A4;stroke-width:0.75;stroke-miterlimit:10;}
	.st6{fill:none;stroke:#FFEFE1;stroke-width:0.7478;stroke-miterlimit:10;}
	.st7{fill:#8F7CE5;}
	.st8{fill:#A6A6DD;}
	.st9{fill:#FFE5CC;}
	.st10{fill:none;stroke:#FFD6A4;stroke-miterlimit:10;}
	.st11{clip-path:url(#SVGID_2_);fill:#FFD8AE;}
	.st12{clip-path:url(#SVGID_4_);fill:#FFD8AE;}
	.st13{fill:none;stroke:#FFFFFF;stroke-width:15;stroke-linejoin:round;stroke-miterlimit:10;}
	.st14{fill:none;stroke:#FFFFFF;stroke-width:16;stroke-linejoin:round;stroke-miterlimit:10;}
	.st15{fill:#C7FF00;}
	.st16{fill:#FFFEFA;}
	.st17{fill:#FFF700;}
	.st18{fill:#CCCCFF;}
	.st19{opacity:0.9;fill:#DD624E;enable-background:new    ;}
	.st20{opacity:0.1;fill:#3B000B;enable-background:new    ;}
	.st21{fill:#FFFFFF;}
	.st22{opacity:0.87;fill:#FFFFFF;enable-background:new    ;}
</style>
<g id="fondo">
	<g>
		<g id="Rectángulo_556">
			<rect y="-0.1" class="st0" width="360" height="363.3"/>
			<rect x="0.5" y="0.4" class="st0" width="359" height="362.2"/>
		</g>
		<path class="st1" d="M228.1,258.3c0,0,43.9-35.1,59.7-104.9c15.8-69.8-12.4-91.7-12.4-91.7S254.9,35.3,242,72.3
			c0,0-11.1,37.2-24.4,18.6c0,0-4-5.6-6.5-13c-2.5-7.3-11-10.5-11-10.5s-21.4-7.3-59.4,34.8c0,0-30.9,35.9-25.5,83.1
			s10.5,56.8,10.5,56.8L228.1,258.3z"/>
		<path class="st2" d="M225.9,271.1c0,0,43.1-35.1,58.6-104.9s-12.2-91.7-12.2-91.7s-20.1-26.4-32.8,10.6c0,0-10.9,37.2-23.9,18.6
			c0,0-3.9-5.6-6.4-13c-2.5-7.3-10.8-10.5-10.8-10.5s-21-7.3-58.2,34.8c0,0-30.3,35.9-25,83.1s10.3,56.8,10.3,56.8L225.9,271.1z"/>
		<path class="st3" d="M114.9,245.6c0,0-61.2-54.4-49.7-80.4s30.9-7.5,30.9-7.5s25.7,22.6,47.9,63.9L114.9,245.6z"/>
		<path class="st2" d="M115.8,249.7c0,0-54.1-58.6-42.6-84.6s30.9-7.5,30.9-7.5s25.7,22.6,47.9,63.9L115.8,249.7z"/>
		<path class="st4" d="M206.4,265c0,0,41.3-44.5,60.9-102.7c0,0,11.1-34-2.3-60c0,0-8.2-25.8-29.3,14.8S206.3,129,206.3,129
			s-8.1-59.5-44-15.2s-22.9,140.1-22.9,140.1L206.4,265z"/>
		<path class="st5" d="M191.1,241.3c0,0,54.3-73,68-155.4"/>
		<path class="st6" d="M195.3,266c0,0,33.9-33.6,51.3-78.9c0,0,9.9-26.5,0.3-47.4c0,0-5.5-20.6-23.5,10.6s-23.4,8.4-23.4,8.4
			s-4.3-47.2-33.9-13.5s-22.8,109.6-22.8,109.6L195.3,266z"/>
		<g>
			
				<ellipse transform="matrix(1 -1.876229e-03 1.876229e-03 1 -0.526 0.338)" class="st7" cx="179.9" cy="280.5" rx="102.6" ry="21.4"/>
			<polygon class="st7" points="282.5,280.3 282.7,266.4 77.5,266.8 77.3,280.7 			"/>
			
				<ellipse transform="matrix(1 -1.876229e-03 1.876229e-03 1 -0.4999 0.3384)" class="st8" cx="180.1" cy="266.6" rx="102.6" ry="21.4"/>
		</g>
		<path class="st3" d="M239.7,220.4c0,0,41.8-19.1,39.9,9s-53,30.9-53,30.9s-15.5-0.3-14.5-10.3C213.2,240,218.5,230.9,239.7,220.4z
			"/>
		<path class="st9" d="M229.9,222.9c0,0,37.6-26.4,40.9,1.5c3.2,27.9-46.4,40.1-46.4,40.1S209,267,208.2,257
			C207.3,247,211,237.1,229.9,222.9z"/>
		<path class="st10" d="M208.2,257c0,0,44.4-19.6,65.3-41.4"/>
		<g>
			<g>
				<g>
					<g>
						<g>
							<defs>
								<path id="SVGID_1_" d="M229.9,222.9c0,0,37.6-26.4,40.9,1.5c3.2,27.9-46.4,40.1-46.4,40.1S209,267,208.2,257
									C207.3,247,211,237.1,229.9,222.9z"/>
							</defs>
							<clipPath id="SVGID_2_">
								<use xlink:href="#SVGID_1_"  style="overflow:visible;"/>
							</clipPath>
							<path class="st11" d="M240.9,211.5c0,0-27.3,46.6,4.8,50c21.5,2.3-22.9,11.5-22.9,11.5l-20.3-4.6l-1.3-29l20-22.9
								L240.9,211.5z"/>
						</g>
					</g>
				</g>
			</g>
		</g>
		<g>
			<path class="st9" d="M128.2,225.7c0,0-34.9-21.9-37.3,9.5c0,0,6.5,28.1,39.9,22.4C164.1,251.8,128.2,225.7,128.2,225.7z"/>
		</g>
		<path class="st10" d="M143,248.3c0,0-40.9-21-62.4-13.1"/>
		<g>
			<g>
				<g>
					<g>
						<g>
							<defs>
								<path id="SVGID_3_" d="M128.2,225.7c0,0-34.9-21.9-37.3,9.5c0,0,6.5,28.1,39.9,22.4C164.1,251.8,128.2,225.7,128.2,225.7z"
									/>
							</defs>
							<clipPath id="SVGID_4_">
								<use xlink:href="#SVGID_3_"  style="overflow:visible;"/>
							</clipPath>
							<path class="st12" d="M124.1,218.3h-4h-3.6c0,0,17.6,26,9.4,34.6c-8.2,8.6-9.4,6.7-9.4,6.7l19.6,1.8l15.9-7.2l1.2-14.3
								l-16-11.9L124.1,218.3z"/>
						</g>
					</g>
				</g>
			</g>
		</g>
		<path class="st3" d="M84.5,161.6c0,0,21.6,45.3,54.6,70.4"/>
		<path class="st3" d="M103.9,163.3c0,0-5.4,4-7,10.8"/>
		<path class="st3" d="M108.2,171.4c0,0-5.3,5.3-6,14.2"/>
		<path class="st3" d="M96.9,190.4c0,0-6.3-0.5-14.9,3.7"/>
		<path class="st3" d="M102.2,196.8c0,0-10.9,0.4-15.6,3.7"/>
		<path class="st2" d="M109.5,107.7c0.1,4-3.4,7.8-6.2,10.4c-1-2.4-1.9-5-2-7.6c-0.1-2,0.7-4,2.2-5.3c0.5-0.4,1-0.8,1.7-0.9
			c0.4-0.1,0.7-0.2,1.1-0.2C108,104.3,109.4,105.9,109.5,107.7z"/>
		<path class="st2" d="M81.9,123.8c-3.1,0.3-9-1.1-11.6-3.2c-2.3-1.7-2.3-2.2-3.4-4.9c-1-2.7,0.6-5.9,3.6-6.2
			c1.5-0.2,3.1,0.2,4.3,1.1C79.1,113.4,82.6,118.4,81.9,123.8z"/>
		<path class="st4" d="M105.6,142.4c-1.9,1.1-5-0.2-4.7-2.6c-0.2-2.8,4.1-3.8,5.6-1.6C107.5,139.5,106.9,141.6,105.6,142.4z"/>
		<path class="st4" d="M319.5,85.1c-2.6,1.4-6.6-0.3-6.3-3.5c-0.2-3.8,5.5-5.1,7.4-2.1C322,81.2,321.3,83.9,319.5,85.1z"/>
		<path class="st2" d="M328.9,297.3c-3.1,1.7-7.9-0.3-7.6-4.2c-0.3-4.5,6.6-6.1,8.9-2.5C331.9,292.6,331,295.9,328.9,297.3z"/>
		<path class="st4" d="M286.4,309c-2,1.1-5.2-0.2-5-2.8c-0.2-3,4.3-4,5.8-1.7C288.4,305.9,287.9,308.1,286.4,309z"/>
		<path class="st2" d="M61.9,244.7c-2.6,1.4-6.6-0.3-6.3-3.5c-0.2-3.8,5.5-5.1,7.4-2.1C64.4,240.8,63.7,243.5,61.9,244.7z"/>
		
			<ellipse transform="matrix(0.3506 -0.9365 0.9365 0.3506 -94.3859 226.7597)" class="st9" cx="116.3" cy="181.4" rx="2.7" ry="1.7"/>
		
			<ellipse transform="matrix(0.3506 -0.9365 0.9365 0.3506 -102.8036 234.9936)" class="st9" cx="118" cy="191.6" rx="2.7" ry="1.7"/>
		
			<ellipse transform="matrix(0.3506 -0.9365 0.9365 0.3506 -131.6409 232.946)" class="st0" cx="102.2" cy="211.4" rx="3" ry="1.8"/>
	</g>
</g>
<g>
	<path class="st13" d="M234.5,134.4c-7.1-10.8-21.8-13.8-32.6-6.6l-0.1,0.1l1.3,2l0,0l23.3,35.2l0,0l1.3,2l0.1-0.1
		C238.7,159.8,241.7,145.2,234.5,134.4z"/>
	<path class="st14" d="M221,144.4h-13.3l0,0H137c0.4,12.6,9.9,23.4,23.7,28.6c1.7,5.7,5.9,10.2,11.3,12.4c1.6,1.6,2.8,3.4,2.8,5.2
		v52c0,0-1.7,12.5-16,12.5v3.6H179h20.3V255c-14.3,0-16-12.5-16-12.5l-0.1-51.9c0-1.7,1.2-3.6,2.8-5.2c1-0.4,2-0.9,2.9-1.5
		c4-2.5,7-6.3,8.4-10.9c4.3-1.6,8.2-3.8,11.5-6.4c1.3-1,2.6-2.2,3.7-3.3c1.7-1.8,3.2-3.7,4.4-5.7c1.6-2.7,2.8-5.6,3.5-8.6
		c0.2-0.8,0.3-1.5,0.4-2.3S221,145.2,221,144.4L221,144.4L221,144.4z"/>
	<g>
		<path class="st15" d="M201.9,127.8L201.9,127.8c10.9-7.3,25.5-4.3,32.6,6.5c7.2,10.8,4.2,25.5-6.6,32.6l-0.1,0.1L201.9,127.8z"/>
		<path class="st16" d="M203.2,129.8L203.2,129.8c9.8-6.5,22.9-3.9,29.3,5.8s3.8,22.8-5.9,29.3l-0.1,0.1L203.2,129.8z"/>
		<g>
			<path class="st17" d="M204.9,130.9c5.7-3.5,12.4-3.7,18.1-1.1l-8.1,15.5L204.9,130.9z"/>
			<path class="st17" d="M224.1,130.4c2.7,1.5,5.1,3.6,6.9,6.3c1.8,2.7,2.8,5.7,3.1,8.8l-17.5,0.7L224.1,130.4z"/>
			<path class="st17" d="M216.8,148.2l17.4-1.5c0.2,6.3-2.7,12.3-8.1,16.2L216.8,148.2z"/>
		</g>
	</g>
	<g>
		<path class="st18" d="M183.2,190.6c0-1.7,1.2-3.6,2.8-5.2c5.4-2.2,9.6-6.7,11.3-12.4c13.8-5.2,23.3-16,23.7-28.6h-84
			c0.4,12.6,9.9,23.4,23.7,28.6c1.7,5.7,5.9,10.2,11.3,12.4c1.6,1.6,2.8,3.4,2.8,5.2v52c0,0-1.7,12.5-16,12.5v3.6H179l0,0h20.3V255
			c-14.3,0-16-12.5-16-12.5L183.2,190.6L183.2,190.6z"/>
		<path class="st19" d="M213.4,148.2h-68.8c0.3,10.3,8.1,19.2,19.4,23.5c1.9,6.5,7.9,11.2,15,11.2s13.1-4.8,15-11.2
			C205.3,167.4,213.1,158.5,213.4,148.2z"/>
		<path class="st20" d="M221,144.4h-13.3c-0.4,6.2-3,18.4-16.4,25.2c0,0,2.3,8.6-5.3,15.8c5.4-2.2,9.6-6.7,11.3-12.4
			C211.1,167.8,220.6,157,221,144.4z"/>
		<path class="st21" d="M151,150.3c0,0,1,1.3,2.4,3.2c0.7,0.9,1.5,2,2.5,3c0.5,0.5,1,1.1,1.5,1.6s1.1,1,1.6,1.5
			c1.1,0.9,2.4,1.8,3.6,2.4c0.6,0.3,1.3,0.6,1.9,0.8c0.6,0.2,1.3,0.4,1.9,0.6c0.6,0.2,1.2,0.2,1.7,0.4c0.5,0.1,1,0.2,1.4,0.2
			c0.8,0.1,1.3,0.1,1.3,0.1s-0.5,0.2-1.4,0.5c-0.4,0.1-1,0.3-1.6,0.4c-0.6,0.1-1.3,0.3-2.1,0.3c-0.8,0.1-1.6,0.1-2.4,0
			c-0.8-0.1-1.7-0.2-2.5-0.5c-0.4-0.1-0.8-0.3-1.2-0.4c-0.2-0.1-0.4-0.2-0.6-0.3l-0.6-0.3c-0.8-0.4-1.5-0.9-2.2-1.5
			c-0.6-0.6-1.3-1.2-1.8-1.8s-1-1.3-1.4-2c-0.8-1.4-1.3-2.7-1.6-4c-0.3-1.2-0.4-2.3-0.5-3.1C150.9,150.8,151,150.3,151,150.3z"/>
		<circle class="st22" cx="163.2" cy="155.4" r="1.1"/>
		<circle class="st22" cx="176.5" cy="155.4" r="1.1"/>
		<circle class="st22" cx="186.3" cy="155.3" r="0.9"/>
		<circle class="st22" cx="180.5" cy="162.1" r="0.5"/>
		<circle class="st22" cx="192.5" cy="156.6" r="0.7"/>
		<circle class="st22" cx="199.3" cy="152.7" r="0.6"/>
		<circle class="st22" cx="186.9" cy="163.3" r="0.6"/>
		<circle class="st22" cx="181.3" cy="170.6" r="0.8"/>
		<circle class="st22" cx="175.7" cy="175.8" r="0.3"/>
		<circle class="st22" cx="173.4" cy="167.6" r="0.6"/>
		<circle class="st22" cx="172.2" cy="160.5" r="0.6"/>
		<circle class="st22" cx="185.3" cy="176.5" r="0.7"/>
	</g>
</g>
</svg>
