<?xml version="1.0" encoding="utf-8"?>
<!-- Generator: Adobe Illustrator 23.0.0, SVG Export Plug-In . SVG Version: 6.00 Build 0)  -->
<svg version="1.1" id="Capa_1" xmlns="http://www.w3.org/2000/svg" xmlns:xlink="http://www.w3.org/1999/xlink" x="0px" y="0px"
	 viewBox="0 0 360 363" style="enable-background:new 0 0 360 363;" xml:space="preserve">
<style type="text/css">
	.st0{fill:#FFD084;}
	.st1{fill:none;stroke:#FFE1C0;stroke-width:0.7573;stroke-miterlimit:10;}
	.st2{fill:#FFD6A4;}
	.st3{fill:none;stroke:#FFE1C0;stroke-width:0.75;stroke-miterlimit:10;}
	.st4{fill:#FFE1C0;}
	.st5{fill:none;stroke:#FFD6A4;stroke-width:0.75;stroke-miterlimit:10;}
	.st6{fill:none;stroke:#FFEFE1;stroke-width:0.7478;stroke-miterlimit:10;}
	.st7{fill:#8F7CE5;}
	.st8{fill:#A6A6DD;}
	.st9{fill:#FFE5CC;}
	.st10{fill:none;stroke:#FFD6A4;stroke-miterlimit:10;}
	.st11{clip-path:url(#SVGID_2_);fill:#FFD8AE;}
	.st12{clip-path:url(#SVGID_4_);fill:#FFD8AE;}
	.st13{fill:none;stroke:#FFFFFF;stroke-width:13.7786;stroke-linejoin:round;stroke-miterlimit:10;}
	.st14{fill:none;stroke:#FFFFFF;stroke-width:14.6972;stroke-linecap:round;stroke-linejoin:round;stroke-miterlimit:10;}
	.st15{fill:#B8B8F2;}
	.st16{fill:#E9E9FF;}
	.st17{fill:#D5F3FF;}
	.st18{fill:#CCCCFF;}
	.st19{fill:#3D9EC1;}
	.st20{fill:#78C9E9;}
	.st21{fill:#C68D30;}
	.st22{fill:#DD9328;}
	.st23{opacity:0.64;}
	.st24{opacity:0.4;fill:#FFFFFF;enable-background:new    ;}
	.st25{fill:#C7FF00;}
	.st26{fill:#FFFEFA;}
	.st27{fill:#FFF700;}
	.st28{fill:#FC9A1A;}
</style>
<g id="fondo">
	<g>
		<g id="Rectángulo_556">
			<rect y="-0.1" class="st0" width="360" height="363.3"/>
			<rect x="0.5" y="0.4" class="st0" width="359" height="362.2"/>
		</g>
		<path class="st1" d="M228.1,258.3c0,0,43.9-35.1,59.7-104.9c15.8-69.8-12.4-91.7-12.4-91.7S254.9,35.3,242,72.3
			c0,0-11.1,37.2-24.4,18.6c0,0-4-5.6-6.5-13c-2.5-7.3-11-10.5-11-10.5s-21.4-7.3-59.4,34.8c0,0-30.9,35.9-25.5,83.1
			s10.5,56.8,10.5,56.8L228.1,258.3z"/>
		<path class="st2" d="M225.9,271.1c0,0,43.1-35.1,58.6-104.9s-12.2-91.7-12.2-91.7s-20.1-26.4-32.8,10.6c0,0-10.9,37.2-23.9,18.6
			c0,0-3.9-5.6-6.4-13c-2.5-7.3-10.8-10.5-10.8-10.5s-21-7.3-58.2,34.8c0,0-30.3,35.9-25,83.1s10.3,56.8,10.3,56.8L225.9,271.1z"/>
		<path class="st3" d="M114.9,245.6c0,0-61.2-54.4-49.7-80.4s30.9-7.5,30.9-7.5s25.7,22.6,47.9,63.9L114.9,245.6z"/>
		<path class="st2" d="M115.8,249.7c0,0-54.1-58.6-42.6-84.6s30.9-7.5,30.9-7.5s25.7,22.6,47.9,63.9L115.8,249.7z"/>
		<path class="st4" d="M206.4,265c0,0,41.3-44.5,60.9-102.7c0,0,11.1-34-2.3-60c0,0-8.2-25.8-29.3,14.8S206.3,129,206.3,129
			s-8.1-59.5-44-15.2s-22.9,140.1-22.9,140.1L206.4,265z"/>
		<path class="st5" d="M191.1,241.3c0,0,54.3-73,68-155.4"/>
		<path class="st6" d="M195.3,266c0,0,33.9-33.6,51.3-78.9c0,0,9.9-26.5,0.3-47.4c0,0-5.5-20.6-23.5,10.6s-23.4,8.4-23.4,8.4
			s-4.3-47.2-33.9-13.5s-22.8,109.6-22.8,109.6L195.3,266z"/>
		<g>
			
				<ellipse transform="matrix(1 -1.876236e-03 1.876236e-03 1 -0.526 0.338)" class="st7" cx="179.9" cy="280.5" rx="102.6" ry="21.4"/>
			<polygon class="st7" points="282.5,280.3 282.7,266.4 77.5,266.8 77.3,280.7 			"/>
			
				<ellipse transform="matrix(1 -1.876236e-03 1.876236e-03 1 -0.4999 0.3384)" class="st8" cx="180.1" cy="266.6" rx="102.6" ry="21.4"/>
		</g>
		<path class="st3" d="M239.7,220.4c0,0,41.8-19.1,39.9,9s-53,30.9-53,30.9s-15.5-0.3-14.5-10.3C213.2,240,218.5,230.9,239.7,220.4z
			"/>
		<path class="st9" d="M229.9,222.9c0,0,37.6-26.4,40.9,1.5c3.2,27.9-46.4,40.1-46.4,40.1S209,267,208.2,257
			C207.3,247,211,237.1,229.9,222.9z"/>
		<path class="st10" d="M208.2,257c0,0,44.4-19.6,65.3-41.4"/>
		<g>
			<g>
				<g>
					<g>
						<defs>
							<path id="SVGID_1_" d="M229.9,222.9c0,0,37.6-26.4,40.9,1.5c3.2,27.9-46.4,40.1-46.4,40.1S209,267,208.2,257
								C207.3,247,211,237.1,229.9,222.9z"/>
						</defs>
						<clipPath id="SVGID_2_">
							<use xlink:href="#SVGID_1_"  style="overflow:visible;"/>
						</clipPath>
						<path class="st11" d="M240.9,211.5c0,0-27.3,46.6,4.8,50c21.5,2.3-22.9,11.5-22.9,11.5l-20.3-4.6l-1.3-29l20-22.9L240.9,211.5
							z"/>
					</g>
				</g>
			</g>
		</g>
		<g>
			<path class="st9" d="M128.2,225.7c0,0-34.9-21.9-37.3,9.5c0,0,6.5,28.1,39.9,22.4C164.1,251.8,128.2,225.7,128.2,225.7z"/>
		</g>
		<path class="st10" d="M143,248.3c0,0-40.9-21-62.4-13.1"/>
		<g>
			<g>
				<g>
					<g>
						<defs>
							<path id="SVGID_3_" d="M128.2,225.7c0,0-34.9-21.9-37.3,9.5c0,0,6.5,28.1,39.9,22.4C164.1,251.8,128.2,225.7,128.2,225.7z"/>
						</defs>
						<clipPath id="SVGID_4_">
							<use xlink:href="#SVGID_3_"  style="overflow:visible;"/>
						</clipPath>
						<path class="st12" d="M124.1,218.3h-4h-3.6c0,0,17.6,26,9.4,34.6c-8.2,8.6-9.4,6.7-9.4,6.7l19.6,1.8l15.9-7.2l1.2-14.3
							l-16-11.9L124.1,218.3z"/>
					</g>
				</g>
			</g>
		</g>
		<path class="st3" d="M84.5,161.6c0,0,21.6,45.3,54.6,70.4"/>
		<path class="st3" d="M103.9,163.3c0,0-5.4,4-7,10.8"/>
		<path class="st3" d="M108.2,171.4c0,0-5.3,5.3-6,14.2"/>
		<path class="st3" d="M96.9,190.4c0,0-6.3-0.5-14.9,3.7"/>
		<path class="st3" d="M102.2,196.8c0,0-10.9,0.4-15.6,3.7"/>
		<path class="st2" d="M109.5,107.7c0.1,4-3.4,7.8-6.2,10.4c-1-2.4-1.9-5-2-7.6c-0.1-2,0.7-4,2.2-5.3c0.5-0.4,1-0.8,1.7-0.9
			c0.4-0.1,0.7-0.2,1.1-0.2C108,104.3,109.4,105.9,109.5,107.7z"/>
		<path class="st2" d="M81.9,123.8c-3.1,0.3-9-1.1-11.6-3.2c-2.3-1.7-2.3-2.2-3.4-4.9c-1-2.7,0.6-5.9,3.6-6.2
			c1.5-0.2,3.1,0.2,4.3,1.1C79.1,113.4,82.6,118.4,81.9,123.8z"/>
		<path class="st4" d="M105.6,142.4c-1.9,1.1-5-0.2-4.7-2.6c-0.2-2.8,4.1-3.8,5.6-1.6C107.5,139.5,106.9,141.6,105.6,142.4z"/>
		<path class="st4" d="M319.5,85.1c-2.6,1.4-6.6-0.3-6.3-3.5c-0.2-3.8,5.5-5.1,7.4-2.1C322,81.2,321.3,83.9,319.5,85.1z"/>
		<path class="st2" d="M328.9,297.3c-3.1,1.7-7.9-0.3-7.6-4.2c-0.3-4.5,6.6-6.1,8.9-2.5C331.9,292.6,331,295.9,328.9,297.3z"/>
		<path class="st4" d="M286.4,309c-2,1.1-5.2-0.2-5-2.8c-0.2-3,4.3-4,5.8-1.7C288.4,305.9,287.9,308.1,286.4,309z"/>
		<path class="st2" d="M61.9,244.7c-2.6,1.4-6.6-0.3-6.3-3.5c-0.2-3.8,5.5-5.1,7.4-2.1C64.4,240.8,63.7,243.5,61.9,244.7z"/>
		
			<ellipse transform="matrix(0.3506 -0.9365 0.9365 0.3506 -94.4314 226.7204)" class="st9" cx="116.3" cy="181.5" rx="2.7" ry="1.7"/>
		
			<ellipse transform="matrix(0.3506 -0.9365 0.9365 0.3506 -102.7927 235.0518)" class="st9" cx="118.1" cy="191.6" rx="2.7" ry="1.7"/>
		
			<ellipse transform="matrix(0.3506 -0.9365 0.9365 0.3506 -131.656 232.9896)" class="st0" cx="102.2" cy="211.4" rx="3" ry="1.8"/>
	</g>
</g>
<g>
	<path class="st13" d="M218.5,133.9c-6-9.2-18.5-11.7-27.7-5.6l-0.1,0.1l1.1,1.7l0,0l19.8,29.9l0,0l1.1,1.7l0.1-0.1
		C222.1,155.5,224.6,143.1,218.5,133.9z"/>
	<path class="st14" d="M187.1,220.9c13.3-3.1,23.3-16.3,23.3-31.9c0-7.6-2.8-14.3-6.3-20.2c-2.8-4.9-7.2-18.5,4.7-28.1h-27.9h-24
		h-3.9c4.4,3.7,6.5,7.8,7.3,11.8c0.5,2.4,0.5,4.8,0.2,7c-0.1,0.7-0.2,1.5-0.4,2.1c-0.2,0.6-0.3,1.4-0.5,2c-0.1,0.3-0.2,0.6-0.3,0.9
		c-1.1,3.3-2.4,5.6-2.8,6.2c-3.2,5.2-5.1,11.5-5.1,18.3c0,6.7,1.8,13,5.1,18.2c0.3,0.5,0.6,0.8,0.8,1.3c0.6,0.8,1.2,1.7,1.8,2.4
		s1.3,1.5,2,2.2c1.4,1.4,2.9,2.7,4.5,3.8c0.4,0.3,0.8,0.6,1.2,0.8c1.3,0.7,2.6,1.4,3.9,1.9c1,0.4,2,0.7,3,1c0.2,1.5,0.8,2.8,1.7,3.8
		l0.1,0.1c0.2,0.2,0.4,0.4,0.6,0.6c0.1,0.1,0.2,0.1,0.3,0.2c0.2,0.1,0.4,0.3,0.6,0.4l0.1,0.1c0.3,0.2,0.6,0.3,0.8,0.4v17.8
		c-2.1,0.8-3.8,2.8-4.2,5.1l0,0c-0.1,0.4-0.1,0.7-0.1,1.1l0,0l0,0c-4.8,0.9-8.5,2.6-10.2,4.1c0,0,0,0-0.1,0c-0.6,0.6-0.9,1.1-1,1.5
		l0,0c0,0.1,0,0.1,0,0.2l0,0c0,0,0,0,0,0.1c0,2.4,8.1,3,18,3c0.6,0,1.1,0,1.6,0c7.5-0.1,13.7-0.6,15.7-1.9c0.1-0.1,0.2-0.1,0.3-0.2
		c0,0,0,0-0.1,0c0.4-0.3,0.6-0.6,0.6-0.9c0,0,0,0,0-0.1l0,0c0-0.5-0.4-1-1-1.7c0,0,0,0-0.1,0c-1.7-1.6-5.5-3.3-10.2-4.1
		c0-0.4,0-0.7-0.1-1.1l0,0c-0.4-2.4-2-4.3-4.2-5.1v-17.8C185,225.3,186.7,223.3,187.1,220.9z M196.2,157.1L196.2,157.1
		c0-0.3,0-0.5,0-0.7C196.2,156.7,196.2,156.9,196.2,157.1z M196.7,210.7c5.4-5.1,8.9-12.8,9-21.3C205.6,198,202.2,205.6,196.7,210.7
		z M205.7,189.1L205.7,189.1C205.7,189,205.7,189,205.7,189.1C205.7,189,205.7,189,205.7,189.1z M180.8,145.3h18.1v0.1H197
		L180.8,145.3l-16.3,0.1h-1.9v-0.1H180.8z"/>
	<g>
		<g>
			<path class="st15" d="M182.8,249.5c0,2.1-1.1,3.9-2.4,3.9l0,0c-1.3,0-2.4-1.7-2.4-3.9v-31.9c0-2.1,1.1-3.9,2.4-3.9l0,0
				c1.3,0,2.4,1.7,2.4,3.9V249.5z"/>
			<path class="st15" d="M187.2,250.2c0,3.7-3,6.7-6.7,6.7c-3.7,0-6.7-3-6.7-6.7s3-6.7,6.7-6.7C184.2,243.5,187.2,246.5,187.2,250.2
				z"/>
			<path class="st16" d="M187.2,250.2c0-0.4,0-0.7-0.1-1.1c-2-0.4-4.3-0.6-6.7-0.6c-2.3,0-4.5,0.2-6.5,0.6c-0.1,0.4-0.1,0.7-0.1,1.1
				c0,3.7,3,6.7,6.7,6.7C184.2,256.8,187.2,253.9,187.2,250.2z"/>
			<path class="st15" d="M187.2,219.9c0,3.7-3,6.7-6.7,6.7c-3.7,0-6.7-3-6.7-6.7c0-3.7,3-6.7,6.7-6.7
				C184.2,213.2,187.2,216.2,187.2,219.9z"/>
			<path class="st17" d="M180.9,236.1c-0.5,0-0.8-0.4-0.8-0.8v-7.2c0-0.5,0.4-0.8,0.8-0.8l0,0c0.5,0,0.8,0.4,0.8,0.8v7.2
				C181.7,235.9,181.4,236.1,180.9,236.1L180.9,236.1z"/>
			<path class="st16" d="M174.8,250.6c0-2.8,1.7-5.2,4.2-6.2v-19.6c-2.5-1-4.2-3.4-4.2-6.2c0-3.7,3-5.1,6.7-5.1
				c0.8,0,1.6,0.2,2.3,0.5c-1-0.6-2.1-0.9-3.3-0.9c-3.7,0-6.7,3-6.7,6.7c0,2.8,1.7,5.2,4.2,6.2V244c-2.5,1-4.2,3.4-4.2,6.2
				c0,2.8,1.8,5.3,4.4,6.2C176.2,255.2,174.8,253.1,174.8,250.6z"/>
			<path class="st18" d="M198.5,256.1c0,2.4-8.1,3-18,3s-18-0.7-18-3c0-2.4,8.1-6.5,18-6.5S198.5,253.7,198.5,256.1z"/>
			<path class="st15" d="M197.4,254.3c-2.5,1.4-9.2,1.7-17,1.7c-7.9,0-14.5-0.5-17-1.7c-0.6,0.6-1,1.2-1,1.7c0,2.4,8.1,3,18,3
				s18-0.7,18-3C198.5,255.5,198.1,255,197.4,254.3z"/>
			<path class="st16" d="M182.8,258.1c-9.9,0-18-0.7-18-3c0-1,1.4-2.2,3.7-3.4c-3.7,1.4-6.1,3.1-6.1,4.4c0,2.4,8.1,3,18,3
				c8.5,0,15.6-0.6,17.5-2.1C194.8,257.7,189.2,258.1,182.8,258.1z"/>
			<path class="st19" d="M200,171.2c-3.1-5.3-6.2-16.1-1.1-25.8h-18.1h-18.2c5.1,10.1,1.7,21.6-2.1,27.8c-2.8,4.7-4.4,10.2-4.4,15.9
				c0,15.4,11.1,28,24.8,28s24.8-12.6,24.8-28C205.8,183.4,204,177.7,200,171.2z"/>
			<path class="st20" d="M198,171.2c-2.8-5.3-5.6-16.1-1-25.8h-16.2h-16.3c4.6,10.1,1.5,21.6-1.9,27.8c-2.6,4.7-3.9,10.2-3.9,15.9
				c0,15.4,9.9,28,22.2,28c12.2,0,22.2-12.6,22.2-28C203.1,183.4,201.6,177.7,198,171.2z"/>
			<path class="st21" d="M164.3,157.1c-0.2,0.3-3.7,15.7-3.8,16c-2.8,4.7-4.4,10.2-4.4,15.9c0,15.4,11.1,28,24.8,28
				s24.8-12.6,24.8-28c0-5.3-4.4-25.7-7.9-31.9h-32H164.3z"/>
			<path class="st22" d="M201.4,173.7c1.7,4.2,2.5,8.1,2.5,11.9c0,15.4-10.3,28-23,28s-23-12.6-23-28c0-4.1,0.7-8.1,2.1-11.8
				c-2.6,4.6-4,9.7-4,15.2c0,15.4,11.1,28,24.8,28s24.8-12.6,24.8-28C205.8,184.1,204.3,179.2,201.4,173.7z"/>
			<g class="st23">
				
					<rect x="173.6" y="163.5" transform="matrix(0.5276 -0.8495 0.8495 0.5276 -59.1937 232.8105)" class="st24" width="12.3" height="12.3"/>
				
					<rect x="178.5" y="180" transform="matrix(0.7783 -0.6278 0.6278 0.7783 -75.9179 157.2071)" class="st24" width="12.3" height="12.3"/>
				
					<rect x="171.2" y="192.8" transform="matrix(0.6401 -0.7683 0.7683 0.6401 -89.0539 207.8546)" class="st24" width="12.3" height="12.3"/>
			</g>
			<g>
				<path class="st25" d="M190.8,128.4L190.8,128.4c9.2-6.2,21.7-3.6,27.7,5.5c6.1,9.2,3.6,21.6-5.6,27.7l-0.1,0.1L190.8,128.4z"/>
				<path class="st26" d="M191.9,130L191.9,130c8.3-5.5,19.4-3.3,24.9,4.9c5.5,8.2,3.2,19.4-5,24.9l-0.1,0.1L191.9,130z"/>
				<g>
					<path class="st27" d="M193.3,131c4.8-3,10.6-3.1,15.4-0.9l-6.9,13.2L193.3,131z"/>
					<path class="st27" d="M209.7,130.6c2.3,1.2,4.3,3.1,5.9,5.4c1.5,2.3,2.4,4.9,2.6,7.5l-14.8,0.6L209.7,130.6z"/>
					<path class="st27" d="M203.5,145.7l14.8-1.2c0.1,5.3-2.3,10.5-6.8,13.8L203.5,145.7z"/>
				</g>
			</g>
			<path class="st28" d="M171.2,202.7c0,1.2-1,2.2-2.2,2.2s-2.2-1-2.2-2.2c0-1.2,1-2.2,2.2-2.2C170.3,200.5,171.2,201.4,171.2,202.7
				z"/>
			<path class="st28" d="M186.9,207.1c0,1.2-1,2.2-2.2,2.2s-2.2-1-2.2-2.2c0-1.2,1-2.2,2.2-2.2C185.9,204.9,186.9,205.8,186.9,207.1
				z"/>
			<path class="st28" d="M176.8,207.8c0,0.8-0.7,1.6-1.6,1.6s-1.6-0.7-1.6-1.6c0-0.8,0.7-1.6,1.6-1.6S176.8,206.8,176.8,207.8z"/>
			<path class="st28" d="M193.8,203.1c0,0.8-0.7,1.6-1.6,1.6s-1.6-0.7-1.6-1.6s0.7-1.6,1.6-1.6C193,201.5,193.8,202.1,193.8,203.1z"
				/>
			<path class="st28" d="M165.8,194.7c0,0.8-0.7,1.6-1.6,1.6s-1.6-0.7-1.6-1.6s0.7-1.6,1.6-1.6S165.8,193.8,165.8,194.7z"/>
			<path class="st28" d="M180.4,199.9c0,0.8-0.7,1.6-1.6,1.6c-0.8,0-1.6-0.7-1.6-1.6c0-0.8,0.7-1.6,1.6-1.6
				C179.7,198.4,180.4,199,180.4,199.9z"/>
			<path class="st28" d="M189.8,194.7c0,0.6-0.5,1.1-1.1,1.1c-0.6,0-1.1-0.5-1.1-1.1c0-0.6,0.5-1.1,1.1-1.1
				C189.4,193.6,189.8,194.1,189.8,194.7z"/>
			<path class="st28" d="M179.1,194.2c0,0.6-0.5,1.1-1.1,1.1c-0.6,0-1.1-0.5-1.1-1.1c0-0.6,0.5-1.1,1.1-1.1
				C178.6,193.1,179.1,193.6,179.1,194.2z"/>
			<path class="st28" d="M169,187.4c0,0.5-0.4,0.8-0.8,0.8s-0.8-0.4-0.8-0.8s0.4-0.8,0.8-0.8S169,186.9,169,187.4z"/>
			<path class="st28" d="M185.4,199.1c0,0.5-0.4,0.8-0.8,0.8s-0.8-0.4-0.8-0.8c0-0.5,0.4-0.8,0.8-0.8
				C185,198.4,185.4,198.7,185.4,199.1z"/>
			<path class="st28" d="M196.2,195.4c0,0.5-0.4,0.8-0.8,0.8s-0.8-0.4-0.8-0.8c0-0.5,0.4-0.8,0.8-0.8
				C195.9,194.5,196.2,194.9,196.2,195.4z"/>
			<path class="st28" d="M191.5,189c0,0.5-0.4,0.8-0.8,0.8s-0.8-0.4-0.8-0.8c0-0.5,0.4-0.8,0.8-0.8
				C191.1,188.2,191.5,188.6,191.5,189z"/>
			<path class="st28" d="M173,195.4c0,0.5-0.4,0.8-0.8,0.8s-0.8-0.4-0.8-0.8c0-0.5,0.4-0.8,0.8-0.8C172.6,194.5,173,194.9,173,195.4
				z"/>
			<path class="st28" d="M180.4,186.5c0,0.5-0.4,0.8-0.8,0.8c-0.5,0-0.8-0.4-0.8-0.8s0.4-0.8,0.8-0.8
				C180.1,185.7,180.4,186.1,180.4,186.5z"/>
			<path class="st18" d="M204.1,168.8c-2.8-4.9-7.2-18.5,4.7-28.1h-27.9h-27.9c14.2,11.7,4.5,28.6,3.6,30
				c-3.2,5.2-5.1,11.5-5.1,18.3c0,18,13.2,32.6,29.5,32.6s29.5-14.6,29.5-32.6C210.4,181.4,207.5,174.7,204.1,168.8z M180.9,217
				c-13.7,0-24.8-12.6-24.8-28c0-5.7,1.6-11.2,4.4-15.9c3.8-6.2,7.3-17.7,2.1-27.8h18.2h18.1c-5.1,9.8-2,20.6,1.1,25.8
				c3.9,6.6,5.7,12.3,5.7,17.9C205.8,204.5,194.7,217,180.9,217z"/>
			<path class="st16" d="M153.7,188.5c0-6.9,1.8-13.3,5.1-18.6c0.9-1.5,9.8-17.4-1.9-29.1h-3.9c14.2,11.7,4.5,28.6,3.6,30
				c-3.2,5.2-5.1,11.5-5.1,18.3c0,18,13.2,32.6,29.5,32.6c0.4,0,0.7,0,1.1,0C166.3,221,153.7,206.4,153.7,188.5z"/>
		</g>
	</g>
</g>
</svg>
