<?xml version="1.0" encoding="utf-8"?>
<!-- Generator: Adobe Illustrator 23.0.0, SVG Export Plug-In . SVG Version: 6.00 Build 0)  -->
<svg version="1.1" id="Capa_1" xmlns="http://www.w3.org/2000/svg" xmlns:xlink="http://www.w3.org/1999/xlink" x="0px" y="0px"
	 viewBox="0 0 360 363" style="enable-background:new 0 0 360 363;" xml:space="preserve">
<style type="text/css">
	.st0{fill:#FFD084;}
	.st1{fill:none;stroke:#FFE1C0;stroke-width:0.7573;stroke-miterlimit:10;}
	.st2{fill:#FFD6A4;}
	.st3{fill:none;stroke:#FFE1C0;stroke-width:0.75;stroke-miterlimit:10;}
	.st4{fill:#FFE1C0;}
	.st5{fill:none;stroke:#FFD6A4;stroke-width:0.75;stroke-miterlimit:10;}
	.st6{fill:none;stroke:#FFEFE1;stroke-width:0.7478;stroke-miterlimit:10;}
	.st7{fill:#8F7CE5;}
	.st8{fill:#A6A6DD;}
	.st9{fill:#FFE5CC;}
	.st10{fill:none;stroke:#FFD6A4;stroke-miterlimit:10;}
	.st11{clip-path:url(#SVGID_2_);fill:#FFD8AE;}
	.st12{clip-path:url(#SVGID_4_);fill:#FFD8AE;}
	.st13{stroke:#FFFFFF;stroke-width:17;stroke-linejoin:round;stroke-miterlimit:10;}
	.st14{fill:#FEC276;}
	.st15{fill:#FFFFFF;}
	.st16{fill:#CCCCFF;}
	.st17{fill:#3B000B;}
	.st18{opacity:0.9;}
	.st19{fill:#F2C27C;}
	.st20{fill:#EFA67D;}
	.st21{display:none;opacity:0.5;}
	.st22{display:inline;}
	.st23{fill:#FCBC06;}
	.st24{fill:#3C7F0E;}
	.st25{clip-path:url(#SVGID_6_);}
	.st26{fill:#488C14;}
	.st27{clip-path:url(#SVGID_8_);}
	.st28{fill:#326D05;}
	.st29{clip-path:url(#SVGID_10_);}
	.st30{clip-path:url(#SVGID_14_);}
	.st31{clip-path:url(#SVGID_16_);}
	.st32{clip-path:url(#SVGID_18_);}
	.st33{clip-path:url(#SVGID_20_);}
	.st34{clip-path:url(#SVGID_22_);}
	.st35{fill:#FF462C;}
	.st36{clip-path:url(#SVGID_24_);}
	.st37{fill:#FF5E48;}
	.st38{opacity:0.44;clip-path:url(#SVGID_26_);}
	.st39{fill:#FC1A1A;}
	.st40{opacity:0.3;}
	.st41{fill:#6DAF27;}
	.st42{opacity:0.31;}
	.st43{opacity:0.26;clip-path:url(#SVGID_28_);fill:#FF462C;enable-background:new    ;}
	.st44{opacity:0.13;clip-path:url(#SVGID_30_);fill:#FF462C;enable-background:new    ;}
	.st45{opacity:0.13;clip-path:url(#SVGID_32_);fill:#FF462C;enable-background:new    ;}
	.st46{opacity:0.35;fill:#FF462C;enable-background:new    ;}
	.st47{opacity:0.52;fill:#D2251F;enable-background:new    ;}
	.st48{opacity:0.6;fill:#F2740C;enable-background:new    ;}
	.st49{opacity:0.15;fill:#FFFFFF;enable-background:new    ;}
	.st50{opacity:0.4;fill:#FFFFFF;enable-background:new    ;}
	.st51{opacity:0.1;fill:#3B000B;enable-background:new    ;}
</style>
<g id="fondo">
	<g>
		<g id="Rectángulo_556">
			<rect y="-0.1" class="st0" width="360" height="363.3"/>
			<rect x="0.5" y="0.4" class="st0" width="359" height="362.2"/>
		</g>
		<path class="st1" d="M228.1,258.3c0,0,43.9-35.1,59.7-104.9c15.8-69.8-12.4-91.7-12.4-91.7S254.9,35.3,242,72.3
			c0,0-11.1,37.2-24.4,18.6c0,0-4-5.6-6.5-13c-2.5-7.3-11-10.5-11-10.5s-21.4-7.3-59.4,34.8c0,0-30.9,35.9-25.5,83.1
			s10.5,56.8,10.5,56.8L228.1,258.3z"/>
		<path class="st2" d="M225.9,271.1c0,0,43.1-35.1,58.6-104.9s-12.2-91.7-12.2-91.7s-20.1-26.4-32.8,10.6c0,0-10.9,37.2-23.9,18.6
			c0,0-3.9-5.6-6.4-13c-2.5-7.3-10.8-10.5-10.8-10.5s-21-7.3-58.2,34.8c0,0-30.3,35.9-25,83.1s10.3,56.8,10.3,56.8L225.9,271.1z"/>
		<path class="st3" d="M114.9,245.6c0,0-61.2-54.4-49.7-80.4s30.9-7.5,30.9-7.5s25.7,22.6,47.9,63.9L114.9,245.6z"/>
		<path class="st2" d="M115.8,249.7c0,0-54.1-58.6-42.6-84.6s30.9-7.5,30.9-7.5s25.7,22.6,47.9,63.9L115.8,249.7z"/>
		<path class="st4" d="M206.4,265c0,0,41.3-44.5,60.9-102.7c0,0,11.1-34-2.3-60c0,0-8.2-25.8-29.3,14.8S206.3,129,206.3,129
			s-8.1-59.5-44-15.2s-22.9,140.1-22.9,140.1L206.4,265z"/>
		<path class="st5" d="M191.1,241.3c0,0,54.3-73,68-155.4"/>
		<path class="st6" d="M195.3,266c0,0,33.9-33.6,51.3-78.9c0,0,9.9-26.5,0.3-47.4c0,0-5.5-20.6-23.5,10.6s-23.4,8.4-23.4,8.4
			s-4.3-47.2-33.9-13.5s-22.8,109.6-22.8,109.6L195.3,266z"/>
		<g>
			
				<ellipse transform="matrix(1 -1.876229e-03 1.876229e-03 1 -0.526 0.338)" class="st7" cx="179.9" cy="280.5" rx="102.6" ry="21.4"/>
			<polygon class="st7" points="282.5,280.3 282.7,266.4 77.5,266.8 77.3,280.7 			"/>
			
				<ellipse transform="matrix(1 -1.876229e-03 1.876229e-03 1 -0.4999 0.3384)" class="st8" cx="180.1" cy="266.6" rx="102.6" ry="21.4"/>
		</g>
		<path class="st3" d="M239.7,220.4c0,0,41.8-19.1,39.9,9s-53,30.9-53,30.9s-15.5-0.3-14.5-10.3C213.2,240,218.5,230.9,239.7,220.4z
			"/>
		<path class="st9" d="M229.9,222.9c0,0,37.6-26.4,40.9,1.5c3.2,27.9-46.4,40.1-46.4,40.1S209,267,208.2,257
			C207.3,247,211,237.1,229.9,222.9z"/>
		<path class="st10" d="M208.2,257c0,0,44.4-19.6,65.3-41.4"/>
		<g>
			<g>
				<g>
					<g>
						<g>
							<defs>
								<path id="SVGID_1_" d="M229.9,222.9c0,0,37.6-26.4,40.9,1.5c3.2,27.9-46.4,40.1-46.4,40.1S209,267,208.2,257
									C207.3,247,211,237.1,229.9,222.9z"/>
							</defs>
							<clipPath id="SVGID_2_">
								<use xlink:href="#SVGID_1_"  style="overflow:visible;"/>
							</clipPath>
							<path class="st11" d="M240.9,211.5c0,0-27.3,46.6,4.8,50c21.5,2.3-22.9,11.5-22.9,11.5l-20.3-4.6l-1.3-29l20-22.9
								L240.9,211.5z"/>
						</g>
					</g>
				</g>
			</g>
		</g>
		<g>
			<path class="st9" d="M128.2,225.7c0,0-34.9-21.9-37.3,9.5c0,0,6.5,28.1,39.9,22.4C164.1,251.8,128.2,225.7,128.2,225.7z"/>
		</g>
		<path class="st10" d="M143,248.3c0,0-40.9-21-62.4-13.1"/>
		<g>
			<g>
				<g>
					<g>
						<g>
							<defs>
								<path id="SVGID_3_" d="M128.2,225.7c0,0-34.9-21.9-37.3,9.5c0,0,6.5,28.1,39.9,22.4C164.1,251.8,128.2,225.7,128.2,225.7z"
									/>
							</defs>
							<clipPath id="SVGID_4_">
								<use xlink:href="#SVGID_3_"  style="overflow:visible;"/>
							</clipPath>
							<path class="st12" d="M124.1,218.3h-4h-3.6c0,0,17.6,26,9.4,34.6c-8.2,8.6-9.4,6.7-9.4,6.7l19.6,1.8l15.9-7.2l1.2-14.3
								l-16-11.9L124.1,218.3z"/>
						</g>
					</g>
				</g>
			</g>
		</g>
		<path class="st3" d="M84.5,161.6c0,0,21.6,45.3,54.6,70.4"/>
		<path class="st3" d="M103.9,163.3c0,0-5.4,4-7,10.8"/>
		<path class="st3" d="M108.2,171.4c0,0-5.3,5.3-6,14.2"/>
		<path class="st3" d="M96.9,190.4c0,0-6.3-0.5-14.9,3.7"/>
		<path class="st3" d="M102.2,196.8c0,0-10.9,0.4-15.6,3.7"/>
		<path class="st2" d="M109.5,107.7c0.1,4-3.4,7.8-6.2,10.4c-1-2.4-1.9-5-2-7.6c-0.1-2,0.7-4,2.2-5.3c0.5-0.4,1-0.8,1.7-0.9
			c0.4-0.1,0.7-0.2,1.1-0.2C108,104.3,109.4,105.9,109.5,107.7z"/>
		<path class="st2" d="M81.9,123.8c-3.1,0.3-9-1.1-11.6-3.2c-2.3-1.7-2.3-2.2-3.4-4.9c-1-2.7,0.6-5.9,3.6-6.2
			c1.5-0.2,3.1,0.2,4.3,1.1C79.1,113.4,82.6,118.4,81.9,123.8z"/>
		<path class="st4" d="M105.6,142.4c-1.9,1.1-5-0.2-4.7-2.6c-0.2-2.8,4.1-3.8,5.6-1.6C107.5,139.5,106.9,141.6,105.6,142.4z"/>
		<path class="st4" d="M319.5,85.1c-2.6,1.4-6.6-0.3-6.3-3.5c-0.2-3.8,5.5-5.1,7.4-2.1C322,81.2,321.3,83.9,319.5,85.1z"/>
		<path class="st2" d="M328.9,297.3c-3.1,1.7-7.9-0.3-7.6-4.2c-0.3-4.5,6.6-6.1,8.9-2.5C331.9,292.6,331,295.9,328.9,297.3z"/>
		<path class="st4" d="M286.4,309c-2,1.1-5.2-0.2-5-2.8c-0.2-3,4.3-4,5.8-1.7C288.4,305.9,287.9,308.1,286.4,309z"/>
		<path class="st2" d="M61.9,244.7c-2.6,1.4-6.6-0.3-6.3-3.5c-0.2-3.8,5.5-5.1,7.4-2.1C64.4,240.8,63.7,243.5,61.9,244.7z"/>
		
			<ellipse transform="matrix(0.3506 -0.9365 0.9365 0.3506 -94.3859 226.7597)" class="st9" cx="116.3" cy="181.4" rx="2.7" ry="1.7"/>
		
			<ellipse transform="matrix(0.3506 -0.9365 0.9365 0.3506 -102.8036 234.9936)" class="st9" cx="118" cy="191.6" rx="2.7" ry="1.7"/>
		
			<ellipse transform="matrix(0.3506 -0.9365 0.9365 0.3506 -131.6409 232.946)" class="st0" cx="102.2" cy="211.4" rx="3" ry="1.8"/>
	</g>
</g>
<g>
	<path class="st13" d="M225.2,145c0-10.4-8.4-18.8-18.8-18.8c-10,0-18.1,7.8-18.7,17.5H178l0.3-20.3l-3.2-0.1l-0.3,20.4h-32.1
		l3,103.4c0.2,6.4,5.4,11.5,11.8,11.5h34.1h1.8h0.2c6.3,0,11.4-5,11.6-11.3v-0.2l0,0l2.4-83.5C217.5,163,225.2,154.9,225.2,145z"/>
	<g>
		<g>
			<path class="st14" d="M225.2,145c0,10.4-8.4,18.8-18.8,18.8c-10.4,0-18.8-8.4-18.8-18.8c0-10.4,8.4-18.8,18.8-18.8
				C216.7,126.2,225.2,134.6,225.2,145z"/>
			<path class="st15" d="M222.1,145c0,8.7-7,15.7-15.7,15.7s-15.7-7-15.7-15.7s7-15.7,15.7-15.7S222.1,136.3,222.1,145z"/>
			<g>
				<g>
					<g>
						<g>
							<g>
								<g>
									<path class="st14" d="M206.4,131c-2.2,0-2.6,0.2-2.6,0.2c-0.8,0.3-1.3,1.3-1,2.1l3.1,8c0.3,0.9,0.7,0.9,1,0l3.1-8
										c0.3-0.9-0.2-1.8-1-2.1C208.9,131.2,208.5,131,206.4,131z"/>
								</g>
							</g>
						</g>
						<g>
							<g>
								<g>
									<path class="st14" d="M206.4,158.9c2.2,0,2.6-0.2,2.6-0.2c0.8-0.3,1.3-1.3,1-2.1l-3.1-8c-0.3-0.9-0.8-0.9-1,0l-3.1,8
										c-0.3,0.9,0.2,1.8,1,2.1C203.8,158.8,204.2,158.9,206.4,158.9z"/>
								</g>
							</g>
						</g>
					</g>
					<g>
						<g>
							<g>
								<g>
									<path class="st14" d="M220.3,145c0-2.2-0.2-2.6-0.2-2.6c-0.3-0.8-1.3-1.3-2.1-1l-8,3.1c-0.9,0.3-0.9,0.8,0,1l8,3.1
										c0.9,0.3,1.8-0.2,2.1-1C220.2,147.5,220.3,147.1,220.3,145z"/>
								</g>
							</g>
						</g>
						<g>
							<g>
								<g>
									<path class="st14" d="M192.4,145c0,2.2,0.2,2.6,0.2,2.6c0.3,0.8,1.3,1.3,2.1,1l8-3.1c0.9-0.3,0.9-0.7,0-1l-8-3.1
										c-0.9-0.3-1.8,0.2-2.1,1C192.6,142.4,192.4,142.8,192.4,145z"/>
								</g>
							</g>
						</g>
					</g>
				</g>
				<g>
					<g>
						<g>
							<g>
								<g>
									<path class="st14" d="M216.2,135.1c-1.5-1.5-1.9-1.7-1.9-1.7c-0.8-0.4-1.8,0-2.2,0.8l-3.5,7.8c-0.4,0.8-0.1,1.1,0.7,0.7
										l7.8-3.5c0.8-0.4,1.2-1.4,0.8-2.2C217.9,137,217.8,136.6,216.2,135.1z"/>
								</g>
							</g>
						</g>
						<g>
							<g>
								<g>
									<path class="st14" d="M196.5,154.8c1.5,1.5,1.9,1.7,1.9,1.7c0.8,0.4,1.8,0,2.2-0.8l3.5-7.8c0.4-0.8,0.1-1.1-0.7-0.7
										l-7.8,3.5c-0.8,0.4-1.2,1.4-0.8,2.2C194.8,152.9,195,153.3,196.5,154.8z"/>
								</g>
							</g>
						</g>
					</g>
					<g>
						<g>
							<g>
								<g>
									<path class="st14" d="M216.2,154.8c1.5-1.5,1.7-1.9,1.7-1.9c0.4-0.8,0-1.8-0.8-2.2l-7.8-3.5c-0.8-0.4-1.1-0.1-0.7,0.7
										l3.5,7.8c0.4,0.8,1.4,1.2,2.2,0.8C214.3,156.5,214.7,156.4,216.2,154.8z"/>
								</g>
							</g>
						</g>
						<g>
							<g>
								<g>
									<path class="st14" d="M196.5,135.1c-1.5,1.5-1.7,1.9-1.7,1.9c-0.4,0.8,0,1.8,0.8,2.2l7.8,3.5c0.8,0.4,1.1,0.1,0.7-0.7
										l-3.5-7.8c-0.4-0.8-1.4-1.2-2.2-0.8C198.4,133.4,198,133.6,196.5,135.1z"/>
								</g>
							</g>
						</g>
					</g>
				</g>
			</g>
		</g>
		<g>
			<path class="st16" d="M193.5,258.7h-35.8c-6.4,0-11.6-5.1-11.8-11.5l-3-103.4h65.5l-3,103.4C205.1,253.6,199.9,258.7,193.5,258.7
				z"/>
			<g>
				<g>
					<polygon class="st17" points="173.3,239.3 175.2,123.3 178.4,123.4 176.5,239.4 					"/>
				</g>
			</g>
			<g class="st18">
				<path class="st19" d="M149.3,148.5l1.4,79c0.3,12,10.4,21.8,22.5,21.8h4.9c12,0,22.1-9.8,22.5-21.8l1.4-79H149.3z"/>
				<path class="st20" d="M150.1,190.5l0.7,36.9c0.3,12,10.4,21.8,22.5,21.8h4.9c12,0,22.1-9.8,22.5-21.8l0.6-36.9H150.1z"/>
			</g>
			<g>
				<g class="st21">
					<g class="st22">
						<g>
							<path class="st23" d="M177.7,248.1l21.6-24.1c-6.6-6-16.9-5.4-22.8,1.2C170.5,232,171,242.2,177.7,248.1z"/>
							<path class="st15" d="M179.4,246.2l18-20.1c-5.6-5-14.1-4.5-19.1,1C173.4,232.6,173.9,241.2,179.4,246.2z"/>
						</g>
						<path class="st23" d="M179.5,228.1c-1.2,1.4-1.4,1.7-1.4,1.7c-0.3,0.7,0.1,1.6,0.8,1.9l6.9,2.6c0.7,0.3,1,0,0.6-0.7l-3.4-6.5
							c-0.4-0.7-1.3-0.9-2-0.6C181.1,226.6,180.8,226.7,179.5,228.1z"/>
						<path class="st23" d="M176.5,236.8c0.1,1.9,0.3,2.2,0.3,2.2c0.3,0.7,1.2,1.1,1.9,0.8l6.7-3c0.7-0.3,0.7-0.7,0-0.9l-7-2.2
							c-0.7-0.2-1.6,0.2-1.8,1C176.5,234.6,176.4,234.9,176.5,236.8z"/>
						<path class="st23" d="M187.8,224.1c-1.9,0.1-2.2,0.3-2.2,0.3c-0.7,0.3-1,1.2-0.8,1.9l3,6.7c0.3,0.7,0.7,0.7,0.9,0l2.2-7
							c0.2-0.7-0.2-1.6-1-1.8C190,224.1,189.7,224,187.8,224.1z"/>
						<path class="st23" d="M178.9,243.5c0,0,0.2,0.3,1.6,1.6l6.3-7c-0.1-0.1-0.4-0.1-0.7,0.1l-6.5,3.4
							C178.8,241.9,178.5,242.8,178.9,243.5z"/>
						<path class="st23" d="M192.9,226.6l-2.6,6.9c-0.2,0.4-0.2,0.6,0,0.7l6.3-7c-1.4-1.2-1.7-1.4-1.7-1.4
							C194,225.5,193.2,225.9,192.9,226.6z"/>
					</g>
					<g class="st22">
						<g>
							<path class="st23" d="M193.4,174.4l-20.1,25.3c7,5.5,17.1,4.4,22.7-2.6C201.6,190.1,200.4,179.9,193.4,174.4z"/>
							<path class="st15" d="M191.8,176.4L175,197.6c5.8,4.6,14.4,3.7,19-2.2C198.6,189.6,197.6,181.1,191.8,176.4z"/>
						</g>
						<path class="st23" d="M192.8,194.5c1.2-1.5,1.3-1.8,1.3-1.8c0.2-0.7-0.2-1.6-0.9-1.8l-7-2.2c-0.7-0.3-1,0-0.6,0.7l3.8,6.3
							c0.4,0.6,1.3,0.9,2,0.5C191.3,196.1,191.6,195.9,192.8,194.5z"/>
						<path class="st23" d="M195.3,185.7c-0.2-1.8-0.4-2.2-0.4-2.2c-0.4-0.7-1.2-1-1.9-0.7l-6.5,3.4c-0.7,0.3-0.7,0.7,0.1,0.9
							l7.1,1.8c0.8,0.2,1.5-0.3,1.7-1.1C195.4,187.9,195.5,187.5,195.3,185.7z"/>
						<path class="st23" d="M184.8,198.9c1.8-0.2,2.2-0.4,2.2-0.4c0.7-0.4,1-1.2,0.7-1.9l-3.4-6.5c-0.3-0.7-0.7-0.7-0.9,0.1
							l-1.8,7.1c-0.2,0.8,0.3,1.5,1.1,1.7C182.6,199.1,182.9,199.2,184.8,198.9z"/>
						<path class="st23" d="M192.5,179.1c0,0-0.2-0.3-1.6-1.5L185,185c0.1,0.1,0.4,0.1,0.7-0.2l6.3-3.8
							C192.7,180.7,192.9,179.8,192.5,179.1z"/>
						<path class="st23" d="M179.6,196.8l2.2-7c0.1-0.4,0.1-0.6,0-0.7l-5.8,7.4c1.5,1.2,1.8,1.3,1.8,1.3
							C178.5,197.9,179.3,197.5,179.6,196.8z"/>
					</g>
					<g class="st22">
						<g>
							<g>
								<path id="SVGID_11_" class="st24" d="M165,198.5C164.9,198.6,165,198.6,165,198.5L165,198.5c-0.8-0.3-1.7-0.2-2.4,0.2
									c-1.1,0.5-2,1.1-2.6,2.2c0,0.1,0,0.3,0,0.4c-0.1-2,0.8-4,2.3-5c-0.2-0.2-0.4-0.5-0.6-0.8c-1.7,1.2-2.7,3.7-2.4,6.1
									c-0.1-0.9-0.5-1.5-1.1-2.2c-0.9-1-2.1-1.5-3.3-1.8c0.3,0.7,0.5,1.6,0.8,2.3c0.5,1,1.4,1.7,2.3,2.3c-0.8-0.5-1.8-0.6-2.7-0.5
									c-1,0.1-2.6,1.2-2.5,1.1c0.3,0.1,0.3,0.5,1,0.8c1.4,0.6,2,0.2,2.9,0c-0.2,0-0.3,0.2-0.4,0.4c-0.3,0.3-0.5,0.5-0.8,0.8
									c-0.3,0.4-0.7,0.8-0.9,1.3s-0.3,1.1-0.1,1.6c0.6,0.2,1.2-0.3,1.7-0.6c0.7-0.4,1.4-0.8,2-1.4c0.6-0.6,1.1-1.4,1.2-2.3
									c0.2,0.3,0.3,0.6,0.6,0.7c0.6,0.3,1.2,0.7,1.9,0.7c0.4,0,0.8-0.1,1.2-0.2c0.5-0.1,0.9-0.2,1.4-0.4c0.1,0,0.2,0,0.2-0.1
									c0,0.1,0.1,0.1,0.1,0c-0.2-0.2-0.4-0.4-0.6-0.6c-0.2-0.2-0.5-0.4-0.7-0.7c-0.2-0.2-0.5-0.4-0.7-0.6
									c-0.6-0.4-1.4-0.5-2.1-0.6c0.6-0.1,1.2-0.2,1.8-0.5c0.4-0.2,0.7-0.5,1-0.7C164.2,200,164.7,199.3,165,198.5z"/>
							</g>
							<g>
								<g>
									<defs>
										<path id="SVGID_5_" d="M165,198.5C164.9,198.6,165,198.6,165,198.5L165,198.5c-0.8-0.3-1.7-0.2-2.4,0.2
											c-1.1,0.5-2,1.1-2.6,2.2c0,0.1,0,0.3,0,0.4c-0.1-2,0.8-4,2.3-5c-0.2-0.2-0.4-0.5-0.6-0.8c-1.7,1.2-2.7,3.7-2.4,6.1
											c-0.1-0.9-0.5-1.5-1.1-2.2c-0.9-1-2.1-1.5-3.3-1.8c0.3,0.7,0.5,1.6,0.8,2.3c0.5,1,1.4,1.7,2.3,2.3
											c-0.8-0.5-1.8-0.6-2.7-0.5c-1,0.1-2.6,1.2-2.5,1.1c0.3,0.1,0.3,0.5,1,0.8c1.4,0.6,2,0.2,2.9,0c-0.2,0-0.3,0.2-0.4,0.4
											c-0.3,0.3-0.5,0.5-0.8,0.8c-0.3,0.4-0.7,0.8-0.9,1.3s-0.3,1.1-0.1,1.6c0.6,0.2,1.2-0.3,1.7-0.6c0.7-0.4,1.4-0.8,2-1.4
											c0.6-0.6,1.1-1.4,1.2-2.3c0.2,0.3,0.3,0.6,0.6,0.7c0.6,0.3,1.2,0.7,1.9,0.7c0.4,0,0.8-0.1,1.2-0.2
											c0.5-0.1,0.9-0.2,1.4-0.4c0.1,0,0.2,0,0.2-0.1c0,0.1,0.1,0.1,0.1,0c-0.2-0.2-0.4-0.4-0.6-0.6c-0.2-0.2-0.5-0.4-0.7-0.7
											c-0.2-0.2-0.5-0.4-0.7-0.6c-0.6-0.4-1.4-0.5-2.1-0.6c0.6-0.1,1.2-0.2,1.8-0.5c0.4-0.2,0.7-0.5,1-0.7
											C164.2,200,164.7,199.3,165,198.5z"/>
									</defs>
									<clipPath id="SVGID_6_">
										<use xlink:href="#SVGID_5_"  style="overflow:visible;"/>
									</clipPath>
									<g class="st25">
										<g>
											<path class="st26" d="M160.9,198.5c0.3-0.4,0.6-0.8,0.9-1.1c0.3-0.3,0.6-0.4,0.8-0.8c0.1-0.1,0-0.4-0.2-0.3
												c-1,0.1-1.9,1.5-2.3,2.4c-0.3,0.7-0.9,1.9-0.2,2.6C160,201.3,160.3,199.3,160.9,198.5z"/>
										</g>
									</g>
								</g>
							</g>
							<g>
								<g>
									<defs>
										<path id="SVGID_7_" d="M165,198.5C164.9,198.6,165,198.6,165,198.5L165,198.5c-0.8-0.3-1.7-0.2-2.4,0.2
											c-1.1,0.5-2,1.1-2.6,2.2c0,0.1,0,0.3,0,0.4c-0.1-2,0.8-4,2.3-5c-0.2-0.2-0.4-0.5-0.6-0.8c-1.7,1.2-2.7,3.7-2.4,6.1
											c-0.1-0.9-0.5-1.5-1.1-2.2c-0.9-1-2.1-1.5-3.3-1.8c0.3,0.7,0.5,1.6,0.8,2.3c0.5,1,1.4,1.7,2.3,2.3
											c-0.8-0.5-1.8-0.6-2.7-0.5c-1,0.1-2.6,1.2-2.5,1.1c0.3,0.1,0.3,0.5,1,0.8c1.4,0.6,2,0.2,2.9,0c-0.2,0-0.3,0.2-0.4,0.4
											c-0.3,0.3-0.5,0.5-0.8,0.8c-0.3,0.4-0.7,0.8-0.9,1.3s-0.3,1.1-0.1,1.6c0.6,0.2,1.2-0.3,1.7-0.6c0.7-0.4,1.4-0.8,2-1.4
											c0.6-0.6,1.1-1.4,1.2-2.3c0.2,0.3,0.3,0.6,0.6,0.7c0.6,0.3,1.2,0.7,1.9,0.7c0.4,0,0.8-0.1,1.2-0.2
											c0.5-0.1,0.9-0.2,1.4-0.4c0.1,0,0.2,0,0.2-0.1c0,0.1,0.1,0.1,0.1,0c-0.2-0.2-0.4-0.4-0.6-0.6c-0.2-0.2-0.5-0.4-0.7-0.7
											c-0.2-0.2-0.5-0.4-0.7-0.6c-0.6-0.4-1.4-0.5-2.1-0.6c0.6-0.1,1.2-0.2,1.8-0.5c0.4-0.2,0.7-0.5,1-0.7
											C164.2,200,164.7,199.3,165,198.5z"/>
									</defs>
									<clipPath id="SVGID_8_">
										<use xlink:href="#SVGID_7_"  style="overflow:visible;"/>
									</clipPath>
									<g class="st27">
										<g>
											<path class="st28" d="M159.2,201.2c0.1-0.4,0-0.7,0.1-1.2c0.1-0.7,0.2-1.3,0.5-1.9c0.5-1.1,1.3-1.9,2.3-2.4
												c0.3-0.2,0.1-0.8-0.3-0.6c-1,0.5-1.8,1.4-2.3,2.5c-0.4,0.9-0.5,1.5-0.4,2.9c0,0.1,0.1,0.9,0.1,0.8L159.2,201.2z"/>
										</g>
									</g>
								</g>
							</g>
							<g>
								<g>
									<defs>
										<path id="SVGID_9_" d="M165,198.5C164.9,198.6,165,198.6,165,198.5L165,198.5c-0.8-0.3-1.7-0.2-2.4,0.2
											c-1.1,0.5-2,1.1-2.6,2.2c0,0.1,0,0.3,0,0.4c-0.1-2,0.8-4,2.3-5c-0.2-0.2-0.4-0.5-0.6-0.8c-1.7,1.2-2.7,3.7-2.4,6.1
											c-0.1-0.9-0.5-1.5-1.1-2.2c-0.9-1-2.1-1.5-3.3-1.8c0.3,0.7,0.5,1.6,0.8,2.3c0.5,1,1.4,1.7,2.3,2.3
											c-0.8-0.5-1.8-0.6-2.7-0.5c-1,0.1-2.6,1.2-2.5,1.1c0.3,0.1,0.3,0.5,1,0.8c1.4,0.6,2,0.2,2.9,0c-0.2,0-0.3,0.2-0.4,0.4
											c-0.3,0.3-0.5,0.5-0.8,0.8c-0.3,0.4-0.7,0.8-0.9,1.3s-0.3,1.1-0.1,1.6c0.6,0.2,1.2-0.3,1.7-0.6c0.7-0.4,1.4-0.8,2-1.4
											c0.6-0.6,1.1-1.4,1.2-2.3c0.2,0.3,0.3,0.6,0.6,0.7c0.6,0.3,1.2,0.7,1.9,0.7c0.4,0,0.8-0.1,1.2-0.2
											c0.5-0.1,0.9-0.2,1.4-0.4c0.1,0,0.2,0,0.2-0.1c0,0.1,0.1,0.1,0.1,0c-0.2-0.2-0.4-0.4-0.6-0.6c-0.2-0.2-0.5-0.4-0.7-0.7
											c-0.2-0.2-0.5-0.4-0.7-0.6c-0.6-0.4-1.4-0.5-2.1-0.6c0.6-0.1,1.2-0.2,1.8-0.5c0.4-0.2,0.7-0.5,1-0.7
											C164.2,200,164.7,199.3,165,198.5z"/>
									</defs>
									<clipPath id="SVGID_10_">
										<use xlink:href="#SVGID_9_"  style="overflow:visible;"/>
									</clipPath>
									<g class="st29">
										<g>
											<path class="st26" d="M160.2,201.8c1.1,0.2,2.2-0.2,3-0.8c0.8-0.5,1.9-1.5,2-2.6c0-0.2-0.2-0.4-0.4-0.3
												c-0.3,0.3-0.5,0.8-0.8,1.2s-0.7,0.8-1.1,1.1c-0.8,0.6-1.6,1-2.6,1.3C160.3,201.8,160.1,201.8,160.2,201.8L160.2,201.8z"
												/>
										</g>
									</g>
								</g>
							</g>
							<g>
								<g>
									<defs>
										<path id="SVGID_12_" d="M165,198.5C164.9,198.6,165,198.6,165,198.5L165,198.5c-0.8-0.3-1.7-0.2-2.4,0.2
											c-1.1,0.5-2,1.1-2.6,2.2c0,0.1,0,0.3,0,0.4c-0.1-2,0.8-4,2.3-5c-0.2-0.2-0.4-0.5-0.6-0.8c-1.7,1.2-2.7,3.7-2.4,6.1
											c-0.1-0.9-0.5-1.5-1.1-2.2c-0.9-1-2.1-1.5-3.3-1.8c0.3,0.7,0.5,1.6,0.8,2.3c0.5,1,1.4,1.7,2.3,2.3
											c-0.8-0.5-1.8-0.6-2.7-0.5c-1,0.1-2.6,1.2-2.5,1.1c0.3,0.1,0.3,0.5,1,0.8c1.4,0.6,2,0.2,2.9,0c-0.2,0-0.3,0.2-0.4,0.4
											c-0.3,0.3-0.5,0.5-0.8,0.8c-0.3,0.4-0.7,0.8-0.9,1.3s-0.3,1.1-0.1,1.6c0.6,0.2,1.2-0.3,1.7-0.6c0.7-0.4,1.4-0.8,2-1.4
											c0.6-0.6,1.1-1.4,1.2-2.3c0.2,0.3,0.3,0.6,0.6,0.7c0.6,0.3,1.2,0.7,1.9,0.7c0.4,0,0.8-0.1,1.2-0.2
											c0.5-0.1,0.9-0.2,1.4-0.4c0.1,0,0.2,0,0.2-0.1c0,0.1,0.1,0.1,0.1,0c-0.2-0.2-0.4-0.4-0.6-0.6c-0.2-0.2-0.5-0.4-0.7-0.7
											c-0.2-0.2-0.5-0.4-0.7-0.6c-0.6-0.4-1.4-0.5-2.1-0.6c0.6-0.1,1.2-0.2,1.8-0.5c0.4-0.2,0.7-0.5,1-0.7
											C164.2,200,164.7,199.3,165,198.5z"/>
									</defs>
									<clipPath id="SVGID_14_">
										<use xlink:href="#SVGID_12_"  style="overflow:visible;"/>
									</clipPath>
									<g class="st30">
										<g>
											<path class="st28" d="M160.1,201.2c0.5-0.9,1.4-1.6,2.3-2.1c0.5-0.2,0.9-0.4,1.4-0.4c0.4-0.1,0.9,0,1.3-0.2
												c0.1-0.1,0.2-0.3,0-0.4c-0.9-0.6-2.5,0.1-3.3,0.5c-0.8,0.5-1.9,1.3-1.8,2.5C159.9,201.2,160,201.3,160.1,201.2
												L160.1,201.2z"/>
										</g>
									</g>
								</g>
							</g>
							<g>
								<g>
									<defs>
										<path id="SVGID_15_" d="M165,198.5C164.9,198.6,165,198.6,165,198.5L165,198.5c-0.8-0.3-1.7-0.2-2.4,0.2
											c-1.1,0.5-2,1.1-2.6,2.2c0,0.1,0,0.3,0,0.4c-0.1-2,0.8-4,2.3-5c-0.2-0.2-0.4-0.5-0.6-0.8c-1.7,1.2-2.7,3.7-2.4,6.1
											c-0.1-0.9-0.5-1.5-1.1-2.2c-0.9-1-2.1-1.5-3.3-1.8c0.3,0.7,0.5,1.6,0.8,2.3c0.5,1,1.4,1.7,2.3,2.3
											c-0.8-0.5-1.8-0.6-2.7-0.5c-1,0.1-2.6,1.2-2.5,1.1c0.3,0.1,0.3,0.5,1,0.8c1.4,0.6,2,0.2,2.9,0c-0.2,0-0.3,0.2-0.4,0.4
											c-0.3,0.3-0.5,0.5-0.8,0.8c-0.3,0.4-0.7,0.8-0.9,1.3s-0.3,1.1-0.1,1.6c0.6,0.2,1.2-0.3,1.7-0.6c0.7-0.4,1.4-0.8,2-1.4
											c0.6-0.6,1.1-1.4,1.2-2.3c0.2,0.3,0.3,0.6,0.6,0.7c0.6,0.3,1.2,0.7,1.9,0.7c0.4,0,0.8-0.1,1.2-0.2
											c0.5-0.1,0.9-0.2,1.4-0.4c0.1,0,0.2,0,0.2-0.1c0,0.1,0.1,0.1,0.1,0c-0.2-0.2-0.4-0.4-0.6-0.6c-0.2-0.2-0.5-0.4-0.7-0.7
											c-0.2-0.2-0.5-0.4-0.7-0.6c-0.6-0.4-1.4-0.5-2.1-0.6c0.6-0.1,1.2-0.2,1.8-0.5c0.4-0.2,0.7-0.5,1-0.7
											C164.2,200,164.7,199.3,165,198.5z"/>
									</defs>
									<clipPath id="SVGID_16_">
										<use xlink:href="#SVGID_15_"  style="overflow:visible;"/>
									</clipPath>
									<g class="st31">
										<g>
											<path class="st26" d="M154.5,197.8c0.8,0.6,1.7,0.8,2.6,1.3c0.5,0.3,1,0.7,1.3,1.2c0.2,0.3,0.5,0.9,0.9,1.1
												c0.1,0-0.1-0.3-0.1-0.4c-0.2-1.2-0.8-1.9-1.5-2.3c-0.9-0.6-2.2-1.2-3.2-1.1C154.4,197.6,154.4,197.7,154.5,197.8
												L154.5,197.8z"/>
										</g>
									</g>
								</g>
							</g>
							<g>
								<g>
									<defs>
										<path id="SVGID_17_" d="M165,198.5C164.9,198.6,165,198.6,165,198.5L165,198.5c-0.8-0.3-1.7-0.2-2.4,0.2
											c-1.1,0.5-2,1.1-2.6,2.2c0,0.1,0,0.3,0,0.4c-0.1-2,0.8-4,2.3-5c-0.2-0.2-0.4-0.5-0.6-0.8c-1.7,1.2-2.7,3.7-2.4,6.1
											c-0.1-0.9-0.5-1.5-1.1-2.2c-0.9-1-2.1-1.5-3.3-1.8c0.3,0.7,0.5,1.6,0.8,2.3c0.5,1,1.4,1.7,2.3,2.3
											c-0.8-0.5-1.8-0.6-2.7-0.5c-1,0.1-2.6,1.2-2.5,1.1c0.3,0.1,0.3,0.5,1,0.8c1.4,0.6,2,0.2,2.9,0c-0.2,0-0.3,0.2-0.4,0.4
											c-0.3,0.3-0.5,0.5-0.8,0.8c-0.3,0.4-0.7,0.8-0.9,1.3s-0.3,1.1-0.1,1.6c0.6,0.2,1.2-0.3,1.7-0.6c0.7-0.4,1.4-0.8,2-1.4
											c0.6-0.6,1.1-1.4,1.2-2.3c0.2,0.3,0.3,0.6,0.6,0.7c0.6,0.3,1.2,0.7,1.9,0.7c0.4,0,0.8-0.1,1.2-0.2
											c0.5-0.1,0.9-0.2,1.4-0.4c0.1,0,0.2,0,0.2-0.1c0,0.1,0.1,0.1,0.1,0c-0.2-0.2-0.4-0.4-0.6-0.6c-0.2-0.2-0.5-0.4-0.7-0.7
											c-0.2-0.2-0.5-0.4-0.7-0.6c-0.6-0.4-1.4-0.5-2.1-0.6c0.6-0.1,1.2-0.2,1.8-0.5c0.4-0.2,0.7-0.5,1-0.7
											C164.2,200,164.7,199.3,165,198.5z"/>
									</defs>
									<clipPath id="SVGID_18_">
										<use xlink:href="#SVGID_17_"  style="overflow:visible;"/>
									</clipPath>
									<g class="st32">
										<g>
											<path class="st26" d="M158.4,202.2c-0.9-0.7-2.2-0.7-3.1-0.6c-0.9,0.1-2.1,0.3-2.8,1.1c-0.2,0.3,0.2,0.8,0.5,0.7
												c0.8-0.4,1.6-0.7,2.6-0.8c0.9-0.1,1.9,0.2,2.8-0.1C158.4,202.4,158.5,202.3,158.4,202.2L158.4,202.2z"/>
										</g>
									</g>
								</g>
							</g>
							<g>
								<g>
									<defs>
										<path id="SVGID_19_" d="M165,198.5C164.9,198.6,165,198.6,165,198.5L165,198.5c-0.8-0.3-1.7-0.2-2.4,0.2
											c-1.1,0.5-2,1.1-2.6,2.2c0,0.1,0,0.3,0,0.4c-0.1-2,0.8-4,2.3-5c-0.2-0.2-0.4-0.5-0.6-0.8c-1.7,1.2-2.7,3.7-2.4,6.1
											c-0.1-0.9-0.5-1.5-1.1-2.2c-0.9-1-2.1-1.5-3.3-1.8c0.3,0.7,0.5,1.6,0.8,2.3c0.5,1,1.4,1.7,2.3,2.3
											c-0.8-0.5-1.8-0.6-2.7-0.5c-1,0.1-2.6,1.2-2.5,1.1c0.3,0.1,0.3,0.5,1,0.8c1.4,0.6,2,0.2,2.9,0c-0.2,0-0.3,0.2-0.4,0.4
											c-0.3,0.3-0.5,0.5-0.8,0.8c-0.3,0.4-0.7,0.8-0.9,1.3s-0.3,1.1-0.1,1.6c0.6,0.2,1.2-0.3,1.7-0.6c0.7-0.4,1.4-0.8,2-1.4
											c0.6-0.6,1.1-1.4,1.2-2.3c0.2,0.3,0.3,0.6,0.6,0.7c0.6,0.3,1.2,0.7,1.9,0.7c0.4,0,0.8-0.1,1.2-0.2
											c0.5-0.1,0.9-0.2,1.4-0.4c0.1,0,0.2,0,0.2-0.1c0,0.1,0.1,0.1,0.1,0c-0.2-0.2-0.4-0.4-0.6-0.6c-0.2-0.2-0.5-0.4-0.7-0.7
											c-0.2-0.2-0.5-0.4-0.7-0.6c-0.6-0.4-1.4-0.5-2.1-0.6c0.6-0.1,1.2-0.2,1.8-0.5c0.4-0.2,0.7-0.5,1-0.7
											C164.2,200,164.7,199.3,165,198.5z"/>
									</defs>
									<clipPath id="SVGID_20_">
										<use xlink:href="#SVGID_19_"  style="overflow:visible;"/>
									</clipPath>
									<g class="st33">
										<g>
											<path class="st28" d="M154.7,197.6c0,0.9,0.6,2.1,1.1,2.9c0.4,0.6,1.2,1,1.7,1.4c0.3,0.2,1,0.7,0.9,0.4
												c-0.1-0.4-1-1.1-1.3-1.4c-0.4-0.4-0.7-0.7-1-1.2C155.8,199,155.4,198,154.7,197.6L154.7,197.6L154.7,197.6z"/>
										</g>
									</g>
								</g>
							</g>
							<g>
								<g>
									<defs>
										<path id="SVGID_21_" d="M165,198.5C164.9,198.6,165,198.6,165,198.5L165,198.5c-0.8-0.3-1.7-0.2-2.4,0.2
											c-1.1,0.5-2,1.1-2.6,2.2c0,0.1,0,0.3,0,0.4c-0.1-2,0.8-4,2.3-5c-0.2-0.2-0.4-0.5-0.6-0.8c-1.7,1.2-2.7,3.7-2.4,6.1
											c-0.1-0.9-0.5-1.5-1.1-2.2c-0.9-1-2.1-1.5-3.3-1.8c0.3,0.7,0.5,1.6,0.8,2.3c0.5,1,1.4,1.7,2.3,2.3
											c-0.8-0.5-1.8-0.6-2.7-0.5c-1,0.1-2.6,1.2-2.5,1.1c0.3,0.1,0.3,0.5,1,0.8c1.4,0.6,2,0.2,2.9,0c-0.2,0-0.3,0.2-0.4,0.4
											c-0.3,0.3-0.5,0.5-0.8,0.8c-0.3,0.4-0.7,0.8-0.9,1.3s-0.3,1.1-0.1,1.6c0.6,0.2,1.2-0.3,1.7-0.6c0.7-0.4,1.4-0.8,2-1.4
											c0.6-0.6,1.1-1.4,1.2-2.3c0.2,0.3,0.3,0.6,0.6,0.7c0.6,0.3,1.2,0.7,1.9,0.7c0.4,0,0.8-0.1,1.2-0.2
											c0.5-0.1,0.9-0.2,1.4-0.4c0.1,0,0.2,0,0.2-0.1c0,0.1,0.1,0.1,0.1,0c-0.2-0.2-0.4-0.4-0.6-0.6c-0.2-0.2-0.5-0.4-0.7-0.7
											c-0.2-0.2-0.5-0.4-0.7-0.6c-0.6-0.4-1.4-0.5-2.1-0.6c0.6-0.1,1.2-0.2,1.8-0.5c0.4-0.2,0.7-0.5,1-0.7
											C164.2,200,164.7,199.3,165,198.5z"/>
									</defs>
									<clipPath id="SVGID_22_">
										<use xlink:href="#SVGID_21_"  style="overflow:visible;"/>
									</clipPath>
									<g class="st34">
										<g>
											<path class="st28" d="M152.8,202.7c0,0.8,1,1.1,1.5,1.3c0.8,0.3,1.9,0.4,2.4-0.3c0.1-0.1,0-0.2-0.1-0.3
												c-0.6-0.2-1.2,0.1-1.9-0.1c-0.6-0.1-1.3-0.3-1.9-0.7C152.9,202.7,152.8,202.7,152.8,202.7L152.8,202.7z"/>
										</g>
									</g>
								</g>
							</g>
						</g>
						<g>
							<g>
								<path id="SVGID_13_" class="st35" d="M152.9,206.1c-0.9,1.5-1.2,3.5-0.7,5.4c0.2,0.8,0.6,1.7,1,2.4c1.5,2.7,3.8,4.7,6.3,6.2
									c1.8,1.2,3.9,2.1,5.8,1.8c1.5-0.3,2.7-1.3,3.6-2.7c0.9-1.3,1.4-2.8,2.2-5.7c0.6-2.1,0.4-5.8,0.2-6.8
									c-0.3-1.2-0.9-2.3-1.8-3.1c-0.7-0.7-1.6-1-2.5-1.3c-1.9-0.6-4-0.9-5.9-0.7c-0.7,0.1-1.4,0.4-2.1,0.7
									c-1.1,0.4-2.2,0.7-3.2,1.2C154.7,204.1,153.6,204.9,152.9,206.1z"/>
							</g>
							<g>
								<g>
									<defs>
										<path id="SVGID_23_" d="M152.9,206.1c-0.9,1.5-1.2,3.5-0.7,5.4c0.2,0.8,0.6,1.7,1,2.4c1.5,2.7,3.8,4.7,6.3,6.2
											c1.8,1.2,3.9,2.1,5.8,1.8c1.5-0.3,2.7-1.3,3.6-2.7c0.9-1.3,1.4-2.8,2.2-5.7c0.6-2.1,0.4-5.8,0.2-6.8
											c-0.3-1.2-0.9-2.3-1.8-3.1c-0.7-0.7-1.6-1-2.5-1.3c-1.9-0.6-4-0.9-5.9-0.7c-0.7,0.1-1.4,0.4-2.1,0.7
											c-1.1,0.4-2.2,0.7-3.2,1.2C154.7,204.1,153.6,204.9,152.9,206.1z"/>
									</defs>
									<clipPath id="SVGID_24_">
										<use xlink:href="#SVGID_23_"  style="overflow:visible;"/>
									</clipPath>
									<g class="st36">
										<g>
											<path class="st37" d="M158,202.3c1,0.6,1.2,0.1,3.2,0.3c1.2,0.1,2.5,0.5,3.7,0.8c1.9,0.5,4,2.3,4.5,4.6
												c0.6,2.7-0.2,5.4-1,7.8c-0.4,1.3-1,2.3-1.7,3.4c-0.7,1-1.3,2-2.2,3.2c-0.2,0.3,1.2,1,1.5,1c2.3,0,3.9-2.4,4.9-4.4
												c1.1-2.2,1.8-5,2-7.6s-0.3-5.5-2.1-7.6c-1.6-1.8-3.7-2.7-5.8-3.1c-1.3-0.2-2.6-0.3-3.9-0.3c-1,0-2.8,0.2-3.1,1.4
												C157.9,202.1,157.9,202.2,158,202.3L158,202.3z"/>
										</g>
									</g>
								</g>
							</g>
							<g>
								<g>
									<defs>
										<path id="SVGID_25_" d="M152.9,206.1c-0.9,1.5-1.2,3.5-0.7,5.4c0.2,0.8,0.6,1.7,1,2.4c1.5,2.7,3.8,4.7,6.3,6.2
											c1.8,1.2,3.9,2.1,5.8,1.8c1.5-0.3,2.7-1.3,3.6-2.7c0.9-1.3,1.4-2.8,2.2-5.7c0.6-2.1,0.4-5.8,0.2-6.8
											c-0.3-1.2-0.9-2.3-1.8-3.1c-0.7-0.7-1.6-1-2.5-1.3c-1.9-0.6-4-0.9-5.9-0.7c-0.7,0.1-1.4,0.4-2.1,0.7
											c-1.1,0.4-2.2,0.7-3.2,1.2C154.7,204.1,153.6,204.9,152.9,206.1z"/>
									</defs>
									<clipPath id="SVGID_26_">
										<use xlink:href="#SVGID_25_"  style="overflow:visible;"/>
									</clipPath>
									<g class="st38">
										<g>
											<path class="st39" d="M156.7,202.3c-0.8-0.8-2.1-0.1-2.8,0.4c-0.9,0.7-1.5,1.8-2,2.9c-1,2.5-1.5,5.8-0.1,8.5
												c1.2,2.3,2.7,4.4,4.5,6.2c0.9,0.8,1.8,1.6,2.8,2.2c1.2,0.8,2.3,1.5,3.6,1c0.6-0.2,3-1.3,2.3-1.6
												c-0.9-0.4-3.3-1.9-4.3-2.6c-0.8-0.5-1.5-1.1-2.2-1.7c-1.4-1.2-2.6-2.7-3.5-4.4c-0.5-0.8-0.9-1.7-1-2.6
												c0-1.1,0-2.2,0.3-3.3c0.2-1,0.6-1.9,1.1-2.7c0.4-0.6,2.5-1.8,2.6-2.6C158.3,202.1,156.9,202.4,156.7,202.3L156.7,202.3z"
												/>
										</g>
									</g>
								</g>
							</g>
						</g>
						<g class="st40">
							<path class="st41" d="M160.8,201c0.5,0.5,1.3,0.2,1.7-0.1c0.5-0.3,1.4-0.7,1.5-1.4c0.1-0.3-0.1-0.6-0.4-0.5
								c-0.6,0.1-1,0.7-1.5,1c-0.4,0.2-1.1,0.3-1.4,0.8C160.7,200.9,160.7,201,160.8,201L160.8,201z"/>
						</g>
						<g class="st40">
							<path class="st41" d="M155.9,198.6c-0.1,0.4,0.4,0.8,0.6,1c0.4,0.4,0.7,0.8,1,1.3c0.2,0.4,0.5,0.5,0.9,0.4l0.1-0.1
								c0.3-0.2,0.3-0.7,0.1-1c-0.4-0.5-1-1.1-1.5-1.5c-0.3-0.2-0.6-0.3-0.8-0.2C156.1,198.5,155.9,198.5,155.9,198.6L155.9,198.6z"
								/>
						</g>
						<g class="st40">
							<path class="st41" d="M154.2,203.1c0.6,0,1.3-0.1,1.9-0.2c0.6-0.1,0.4-1.1-0.2-1.1c-0.7,0-1.5,0.1-2.1,0.6
								C153.6,202.6,153.9,203.1,154.2,203.1L154.2,203.1z"/>
						</g>
						<g class="st40">
							<path class="st41" d="M160.2,198.1c0.3-0.2,0.5-0.7,0.7-1c0.1-0.2,0.3-0.4,0.5-0.5s0.3-0.2,0.3-0.4c0-0.1,0-0.1-0.1-0.1
								c-0.4-0.2-0.7,0.3-0.9,0.6C160.6,197,160.2,197.5,160.2,198.1L160.2,198.1L160.2,198.1z"/>
						</g>
						<g>
							<path class="st15" d="M162,199.7c0.4,0,0.8-0.1,1.1-0.2c0.4-0.1,0.9-0.1,1.2-0.4V199c-0.4-0.2-0.9,0-1.3,0.1
								C162.7,199.2,162.2,199.3,162,199.7C161.9,199.7,161.9,199.7,162,199.7L162,199.7z"/>
						</g>
						<g class="st42">
							<path class="st15" d="M158.5,200.8c0.1,0.1,0.1,0.3,0.1,0.4c0,0.2,0.1,0.3,0.2,0.4h0.1c0.1-0.1,0.1-0.3,0-0.5
								s-0.2-0.3-0.3-0.5C158.6,200.5,158.4,200.6,158.5,200.8L158.5,200.8z"/>
						</g>
						<g>
							<g>
								<g>
									<defs>
										<path id="SVGID_27_" d="M152.9,206.1c-0.9,1.5-1.2,3.5-0.7,5.4c0.2,0.8,0.6,1.7,1,2.4c1.5,2.7,3.8,4.7,6.3,6.2
											c1.8,1.2,3.9,2.1,5.8,1.8c1.5-0.3,2.7-1.3,3.6-2.7c0.9-1.3,1.4-2.8,2.2-5.7c0.6-2.1,0.4-5.8,0.2-6.8
											c-0.3-1.2-0.9-2.3-1.8-3.1c-0.7-0.7-1.6-1-2.5-1.3c-1.9-0.6-4-0.9-5.9-0.7c-0.7,0.1-1.4,0.4-2.1,0.7
											c-1.1,0.4-2.2,0.7-3.2,1.2C154.7,204.1,153.6,204.9,152.9,206.1z"/>
									</defs>
									<clipPath id="SVGID_28_">
										<use xlink:href="#SVGID_27_"  style="overflow:visible;"/>
									</clipPath>
									<path class="st43" d="M173.5,213.3c0-0.1,0.1-0.1,0.1-0.2c0.4-0.7,0.2-1.5-0.2-2c0.1-0.2,0.2-0.4,0.3-0.6
										c0.3-0.5,0.3-1.3-0.1-1.8c-0.4-0.5-1.1-0.8-1.6-0.5c-2.9,1.9-6.4,2.3-9.9,1.3c-1.5-0.4-3-1.2-4-2.6
										c-0.3-0.4-0.8-1.6-0.9-2.1c-0.1-0.7,0.5-2,0.8-2.2c0.7-0.3,0.3-1.6-0.5-1.6c-0.5,0-0.9,0.2-1.2,0.4
										c-0.6-0.3-1.3-0.3-1.7,0.4c-0.4,0.8-0.9,1.7-1.3,2.6c-0.6-0.1-1.3,0.2-1.5,0.9c-0.6,2.7-0.6,5.8,0.8,8.5
										c0.5,1,1.2,1.8,2,2.5c0,0.3,0,0.7,0.2,1c0.7,1.5,1.6,2.8,2.9,3.8c1.3,0.9,2.7,1.7,4.2,2s3,0.3,4.4-0.1
										c0.7-0.2,1.4-0.4,2.1-0.6c0.8-0.3,1.3-0.9,1.9-1.5c0.1-0.1,0.2-0.3,0.3-0.5c1.4-1.3,2.6-2.9,3.7-4.5
										C175,215,174.4,213.7,173.5,213.3z"/>
								</g>
							</g>
							<g>
								<g>
									<defs>
										<path id="SVGID_29_" d="M152.9,206.1c-0.9,1.5-1.2,3.5-0.7,5.4c0.2,0.8,0.6,1.7,1,2.4c1.5,2.7,3.8,4.7,6.3,6.2
											c1.8,1.2,3.9,2.1,5.8,1.8c1.5-0.3,2.7-1.3,3.6-2.7c0.9-1.3,1.4-2.8,2.2-5.7c0.6-2.1,0.4-5.8,0.2-6.8
											c-0.3-1.2-0.9-2.3-1.8-3.1c-0.7-0.7-1.6-1-2.5-1.3c-1.9-0.6-4-0.9-5.9-0.7c-0.7,0.1-1.4,0.4-2.1,0.7
											c-1.1,0.4-2.2,0.7-3.2,1.2C154.7,204.1,153.6,204.9,152.9,206.1z"/>
									</defs>
									<clipPath id="SVGID_30_">
										<use xlink:href="#SVGID_29_"  style="overflow:visible;"/>
									</clipPath>
									<path class="st44" d="M171.4,218c0-0.1,0.1-0.1,0.1-0.2c0.4-0.7,0.2-1.5-0.2-2c0.1-0.2,0.2-0.4,0.3-0.6
										c0.3-0.5,1.4-3.1,1-3.7c-0.4-0.5-2.3,1-2.7,1.3c-2.9,1.9-6.4,2.3-9.9,1.3c-1.5-0.4-3-1.2-4-2.6c-0.3-0.4-1-2.4-1.2-3
										c-0.4-1.7,0.5-4.8-0.3-4.7c-0.5,0-0.6,0.3-0.9,0.5c-0.6-0.3-0.7,1.4-1,2c-0.4,0.8-0.9,1.7-1.3,2.6
										c-0.6-0.1-1.3,0.2-1.5,0.9c-0.6,2.7-0.6,5.8,0.8,8.5c0.5,1,1.2,1.8,2,2.5c0,0.3,0,0.7,0.2,1c0.7,1.5,1.6,2.8,2.9,3.8
										c1.3,0.9,2.7,1.7,4.2,2s3,0.3,4.4-0.1c0.7-0.2,1.4-0.4,2.1-0.6c0.8-0.3,1.3-0.9,1.9-1.5c0.1-0.1,0.2-0.3,0.3-0.5
										c1.4-1.3,2.6-2.9,3.7-4.5C172.9,219.6,172.3,218.4,171.4,218z"/>
								</g>
							</g>
							<g>
								<g>
									<defs>
										<path id="SVGID_31_" d="M152.9,206.1c-0.9,1.5-1.2,3.5-0.7,5.4c0.2,0.8,0.6,1.7,1,2.4c1.5,2.7,3.8,4.7,6.3,6.2
											c1.8,1.2,3.9,2.1,5.8,1.8c1.5-0.3,2.7-1.3,3.6-2.7c0.9-1.3,1.4-2.8,2.2-5.7c0.6-2.1,0.4-5.8,0.2-6.8
											c-0.3-1.2-0.9-2.3-1.8-3.1c-0.7-0.7-1.6-1-2.5-1.3c-1.9-0.6-4-0.9-5.9-0.7c-0.7,0.1-1.4,0.4-2.1,0.7
											c-1.1,0.4-2.2,0.7-3.2,1.2C154.7,204.1,153.6,204.9,152.9,206.1z"/>
									</defs>
									<clipPath id="SVGID_32_">
										<use xlink:href="#SVGID_31_"  style="overflow:visible;"/>
									</clipPath>
									<path class="st45" d="M171.7,221.2c0-0.1,0.1-0.1,0.1-0.2c0.4-0.8,0.1-1.6-0.4-2c0.1-0.2,0.2-0.4,0.3-0.6
										c0.3-0.6,1.2-3.3,0.8-3.8s-2.2,1.2-2.6,1.6c-2.7,2.1-6,2.2-9.4,1.6c-1.5-0.3-3.3-1.4-4.4-2.7c-0.4-0.4-2-1.9-2.6-3.3
										c-0.7-1.7-1.2-4.8-1.9-4.7c-0.5,0.1-0.4,1.8-0.7,2.5c-0.4,0.8,0.7,3.4,0.4,4.4c-0.6-0.1-1.3,0.3-1.4,1
										c-0.5,2.8-0.2,5.9,1.4,8.5c0.6,0.9,1.3,1.7,2.1,2.3c0,0.3,0,0.7,0.2,1c0.8,1.5,1.7,2.7,3.1,3.5c1.4,0.8,2.8,1.4,4.3,1.7
										c1.5,0.2,3,0,4.3-0.4c0.7-0.2,1.4-0.5,2-0.8c0.7-0.4,1.2-1,1.8-1.6c0.1-0.2,0.2-0.3,0.2-0.5c1.3-1.4,2.4-3.2,3.3-4.9
										C173.3,222.7,172.6,221.5,171.7,221.2z"/>
								</g>
							</g>
						</g>
						<path class="st46" d="M157.6,206.6c-0.6,1.1-0.8,2.5-0.5,3.9c0.2,0.6,0.4,1.2,0.7,1.7c1.1,1.9,2.7,3.3,4.5,4.4
							c1.3,0.8,2.8,1.5,4.1,1.2c1.1-0.2,1.9-1,2.5-1.9s1-2,1.6-4.1c0.4-1.5,0.3-4.1,0.1-4.8c-0.2-0.8-0.7-1.7-1.3-2.2
							c-0.5-0.5-1.2-0.7-1.8-1c-1.3-0.4-2.8-0.7-4.2-0.5c-0.5,0.1-1,0.3-1.5,0.5c-0.8,0.3-1.5,0.5-2.3,0.9
							C158.8,205.2,158.1,205.7,157.6,206.6z"/>
						<path class="st46" d="M159,206.5c-0.4,0.7-0.6,1.7-0.3,2.7c0.1,0.4,0.3,0.8,0.5,1.2c0.7,1.3,1.9,2.3,3.1,3.1
							c0.9,0.6,1.9,1,2.9,0.9c0.7-0.1,1.3-0.7,1.8-1.3c0.4-0.7,0.7-1.4,1.1-2.8c0.3-1,0.2-2.9,0.1-3.3c-0.2-0.6-0.5-1.1-0.9-1.5
							c-0.4-0.3-0.8-0.5-1.2-0.7c-0.9-0.3-2-0.5-2.9-0.3c-0.4,0-0.7,0.2-1,0.3c-0.5,0.2-1.1,0.4-1.6,0.6
							C159.9,205.5,159.3,205.9,159,206.5z"/>
						<path class="st46" d="M161.9,206.3c-0.3,0.4-0.3,1-0.2,1.5c0.1,0.2,0.2,0.5,0.3,0.7c0.4,0.7,1.1,1.3,1.8,1.7
							c0.5,0.3,1.1,0.6,1.6,0.5c0.4-0.1,0.8-0.4,1-0.7c0.2-0.4,0.4-0.8,0.6-1.6c0.2-0.6,0.1-1.6,0-1.9c-0.1-0.3-0.3-0.7-0.5-0.9
							s-0.5-0.3-0.7-0.4c-0.5-0.2-1.1-0.3-1.6-0.2c-0.2,0-0.4,0.1-0.6,0.2c-0.3,0.1-0.6,0.2-0.9,0.3
							C162.4,205.8,162.1,206,161.9,206.3z"/>
						<g>
							<path class="st47" d="M162.7,219.8c-0.2-0.4,0-0.9,0.3-1c0.4-0.2,0.8,0.1,0.9,0.5c0.2,0.4-0.1,1.5-0.1,1.5
								S162.9,220.2,162.7,219.8z"/>
							<path class="st48" d="M163,219.7c-0.1-0.2,0-0.5,0.2-0.6s0.4,0,0.5,0.3c0.1,0.2-0.1,0.8-0.1,0.8S163.1,219.9,163,219.7z"/>
							<path class="st49" d="M163.4,219.6c0-0.1,0-0.2,0.1-0.2s0.2,0,0.2,0.1s0,0.3,0,0.3S163.4,219.7,163.4,219.6z"/>
						</g>
						<g>
							<path class="st47" d="M165.2,217c0-0.4,0.4-0.7,0.8-0.6c0.4,0.1,0.7,0.5,0.6,1c0,0.4-0.8,1.1-0.8,1.1S165.1,217.4,165.2,217z
								"/>
							<path class="st48" d="M165.5,217.1c0-0.2,0.2-0.4,0.4-0.3c0.2,0.1,0.4,0.3,0.3,0.5c0,0.2-0.5,0.6-0.5,0.6
								S165.4,217.4,165.5,217.1z"/>
							<path class="st49" d="M165.8,217.3c0-0.1,0.1-0.1,0.2-0.1c0.1,0,0.1,0.1,0.1,0.2c0,0.1-0.2,0.2-0.2,0.2
								S165.8,217.4,165.8,217.3z"/>
						</g>
						<g>
							<path class="st47" d="M161,216c-0.2-0.4,0-0.9,0.3-1c0.3-0.2,0.8,0.1,1,0.5s-0.1,1.6-0.1,1.6S161.2,216.4,161,216z"/>
							<path class="st48" d="M161.3,215.9c-0.1-0.2,0-0.5,0.2-0.6s0.4,0,0.5,0.3c0.1,0.2,0,0.8,0,0.8S161.4,216.1,161.3,215.9z"/>
							<path class="st49" d="M161.6,215.8c0-0.1,0-0.2,0.1-0.2s0.2,0,0.2,0.1s0,0.3,0,0.3S161.7,215.9,161.6,215.8z"/>
						</g>
						<g>
							<path class="st47" d="M159.1,218.6c-0.3-0.3-0.4-0.8-0.1-1.1c0.2-0.3,0.7-0.3,1,0s0.5,1.5,0.5,1.5S159.4,218.9,159.1,218.6z"
								/>
							<path class="st48" d="M159.3,218.4c-0.2-0.2-0.2-0.4-0.1-0.6c0.1-0.2,0.4-0.2,0.5,0c0.2,0.2,0.3,0.8,0.3,0.8
								S159.5,218.5,159.3,218.4z"/>
							<path class="st49" d="M159.6,218.1c-0.1-0.1-0.1-0.2,0-0.2s0.1-0.1,0.2,0c0.1,0.1,0.1,0.3,0.1,0.3S159.7,218.2,159.6,218.1z"
								/>
						</g>
						<g>
							<path class="st47" d="M157.1,214.3c-0.3-0.3-0.3-0.8-0.1-1.1c0.3-0.3,0.7-0.3,1,0.1c0.3,0.3,0.4,1.5,0.4,1.5
								S157.4,214.7,157.1,214.3z"/>
							<path class="st48" d="M157.3,214.2c-0.2-0.2-0.2-0.5,0-0.6c0.1-0.2,0.4-0.1,0.5,0c0.2,0.2,0.2,0.8,0.2,0.8
								S157.5,214.3,157.3,214.2z"/>
							<path class="st49" d="M157.6,213.9c-0.1-0.1-0.1-0.2,0-0.2c0.1-0.1,0.1-0.1,0.2,0c0.1,0.1,0.1,0.3,0.1,0.3
								S157.7,214,157.6,213.9z"/>
						</g>
						<g>
							<path class="st47" d="M163.3,212.8c0-0.4,0.3-0.8,0.7-0.7c0.4,0,0.7,0.4,0.7,0.9c0,0.4-0.7,1.3-0.7,1.3
								S163.3,213.3,163.3,212.8z"/>
							<path class="st48" d="M163.6,212.9c0-0.2,0.2-0.4,0.4-0.4s0.4,0.2,0.4,0.5c0,0.2-0.4,0.7-0.4,0.7S163.6,213.2,163.6,212.9z"
								/>
							<path class="st49" d="M164,213c0-0.1,0.1-0.2,0.1-0.1c0.1,0,0.1,0.1,0.1,0.2c0,0.1-0.1,0.2-0.1,0.2S164,213.1,164,213z"/>
						</g>
						<g>
							<path class="st47" d="M162,207.6c-0.1-0.4,0.1-0.9,0.4-1c0.4-0.1,0.8,0.2,0.9,0.6c0.1,0.4-0.3,1.5-0.3,1.5
								S162.1,208.1,162,207.6z"/>
							<path class="st48" d="M162.3,207.6c-0.1-0.2,0-0.5,0.2-0.5s0.4,0.1,0.5,0.3s-0.2,0.8-0.2,0.8S162.4,207.9,162.3,207.6z"/>
							<path class="st49" d="M162.7,207.6c0-0.1,0-0.2,0.1-0.2s0.2,0,0.2,0.1s-0.1,0.3-0.1,0.3S162.7,207.7,162.7,207.6z"/>
						</g>
						<g>
							<path class="st47" d="M162.3,202.9c-0.3-0.1-0.6-0.5-0.5-0.9s0.4-0.6,0.7-0.5s0.9,1,0.9,1S162.6,203,162.3,202.9z"/>
							<path class="st48" d="M162.3,202.6c-0.2-0.1-0.3-0.3-0.3-0.5s0.2-0.3,0.4-0.3c0.2,0.1,0.5,0.5,0.5,0.5
								S162.5,202.7,162.3,202.6z"/>
							<path class="st49" d="M162.4,202.3c-0.1,0-0.1-0.1-0.1-0.2c0-0.1,0.1-0.1,0.1-0.1c0.1,0,0.2,0.2,0.2,0.2
								S162.5,202.3,162.4,202.3z"/>
						</g>
						<g>
							<path class="st47" d="M158.7,204.6c-0.1-0.4,0.1-0.9,0.4-1c0.4-0.1,0.8,0.2,0.9,0.6c0.1,0.4-0.3,1.5-0.3,1.5
								S158.8,205,158.7,204.6z"/>
							<path class="st48" d="M159,204.6c-0.1-0.2,0-0.5,0.2-0.5s0.4,0.1,0.5,0.3s-0.2,0.8-0.2,0.8S159.1,204.8,159,204.6z"/>
							<path class="st49" d="M159.4,204.5c0-0.1,0-0.2,0.1-0.2s0.2,0,0.2,0.1s-0.1,0.3-0.1,0.3S159.4,204.6,159.4,204.5z"/>
						</g>
						<g>
							<path class="st47" d="M169.1,212.1c0-0.4,0.3-0.8,0.7-0.7c0.4,0,0.7,0.4,0.7,0.9c0,0.4-0.7,1.3-0.7,1.3
								S169.1,212.6,169.1,212.1z"/>
							<path class="st48" d="M169.4,212.3c0-0.2,0.2-0.4,0.4-0.4s0.4,0.2,0.4,0.5c0,0.2-0.4,0.7-0.4,0.7S169.4,212.5,169.4,212.3z"
								/>
							<path class="st49" d="M169.8,212.3c0-0.1,0.1-0.2,0.1-0.1c0.1,0,0.1,0.1,0.1,0.2c0,0.1-0.1,0.2-0.1,0.2
								S169.8,212.4,169.8,212.3z"/>
						</g>
						<g>
							<path class="st47" d="M165.6,209.5c0-0.4,0.3-0.8,0.7-0.7c0.4,0,0.7,0.4,0.7,0.9c0,0.4-0.7,1.3-0.7,1.3
								S165.6,209.9,165.6,209.5z"/>
							<path class="st48" d="M165.9,209.6c0-0.2,0.2-0.4,0.4-0.4s0.4,0.2,0.4,0.5c0,0.2-0.4,0.7-0.4,0.7S165.9,209.8,165.9,209.6z"
								/>
							<path class="st49" d="M166.2,209.6c0-0.1,0.1-0.2,0.1-0.1c0.1,0,0.1,0.1,0.1,0.2c0,0.1-0.1,0.2-0.1,0.2
								S166.2,209.7,166.2,209.6z"/>
						</g>
						<g>
							<path class="st47" d="M168.4,207.1c-0.2-0.4,0-0.9,0.3-1c0.3-0.2,0.8,0.1,1,0.5s-0.1,1.6-0.1,1.6S168.5,207.5,168.4,207.1z"
								/>
							<path class="st48" d="M168.7,207c-0.1-0.2,0-0.5,0.2-0.6s0.4,0,0.5,0.3c0.1,0.2,0,0.8,0,0.8S168.8,207.2,168.7,207z"/>
							<path class="st49" d="M169,206.9c0-0.1,0-0.2,0.1-0.2s0.2,0,0.2,0.1s0,0.3,0,0.3S169,207,169,206.9z"/>
						</g>
						<g>
							<path class="st47" d="M164.8,205c-0.2-0.4-0.1-0.9,0.2-1.1c0.3-0.2,0.8,0,1,0.4s0,1.6,0,1.6S165,205.4,164.8,205z"/>
							<path class="st48" d="M165.1,204.9c-0.1-0.2-0.1-0.5,0.1-0.6c0.2-0.1,0.4,0,0.5,0.2s0,0.8,0,0.8S165.2,205.2,165.1,204.9z"/>
							<path class="st49" d="M165.4,204.8c0-0.1,0-0.2,0-0.2c0.1,0,0.2,0,0.2,0.1s0,0.3,0,0.3S165.5,204.9,165.4,204.8z"/>
						</g>
						<g>
							<path class="st47" d="M160,211c-0.1-0.4,0.1-0.9,0.5-0.9c0.4-0.1,0.8,0.2,0.9,0.7c0.1,0.4-0.3,1.5-0.3,1.5
								S160.1,211.4,160,211z"/>
							<path class="st48" d="M160.3,211c-0.1-0.2,0.1-0.5,0.3-0.5s0.4,0.1,0.5,0.4c0.1,0.2-0.2,0.8-0.2,0.8S160.4,211.2,160.3,211z"
								/>
							<path class="st49" d="M160.7,211c0-0.1,0-0.2,0.1-0.2s0.2,0,0.2,0.1s-0.1,0.3-0.1,0.3S160.7,211.1,160.7,211z"/>
						</g>
						<g>
							<path class="st47" d="M156.4,208.7c-0.1-0.4,0.1-0.9,0.5-0.9c0.4-0.1,0.8,0.2,0.9,0.7c0.1,0.4-0.3,1.5-0.3,1.5
								S156.5,209.2,156.4,208.7z"/>
							<path class="st48" d="M156.7,208.8c-0.1-0.2,0.1-0.5,0.3-0.5s0.4,0.1,0.5,0.4c0.1,0.2-0.2,0.8-0.2,0.8S156.8,209,156.7,208.8
								z"/>
							<path class="st49" d="M157.1,208.7c0-0.1,0-0.2,0.1-0.2s0.2,0,0.2,0.1s-0.1,0.3-0.1,0.3S157.1,208.8,157.1,208.7z"/>
						</g>
						<g>
							<path class="st47" d="M152.6,207.8c0-0.5,0.3-0.8,0.6-0.7s0.5,0.5,0.5,1s-0.7,1.3-0.7,1.3S152.5,208.3,152.6,207.8z"/>
							<path class="st48" d="M152.8,207.9c0-0.3,0.2-0.4,0.3-0.4c0.2,0,0.3,0.3,0.3,0.5c0,0.3-0.4,0.7-0.4,0.7
								S152.8,208.2,152.8,207.9z"/>
							<path class="st49" d="M153.1,208.1c0-0.1,0.1-0.2,0.1-0.1c0.1,0,0.1,0.1,0.1,0.2c0,0.1-0.1,0.3-0.1,0.3
								S153.1,208.2,153.1,208.1z"/>
						</g>
						<g>
							<path class="st47" d="M155.1,204.5c0.1-0.4,0.5-0.5,0.8-0.4c0.3,0.2,0.5,0.6,0.4,1s-1,0.8-1,0.8S154.9,204.8,155.1,204.5z"/>
							<path class="st48" d="M155.3,204.7c0.1-0.2,0.3-0.3,0.4-0.2c0.2,0.1,0.3,0.3,0.2,0.5s-0.5,0.4-0.5,0.4
								S155.3,204.9,155.3,204.7z"/>
							<path class="st49" d="M155.6,204.9c0-0.1,0.1-0.1,0.2-0.1c0.1,0,0.1,0.1,0.1,0.2c0,0.1-0.2,0.2-0.2,0.2L155.6,204.9z"/>
						</g>
						<g>
							<path class="st47" d="M153.7,212.2c-0.2-0.4,0-0.9,0.3-1c0.3-0.2,0.8,0.1,1,0.5s-0.1,1.5-0.1,1.5S153.9,212.6,153.7,212.2z"
								/>
							<path class="st48" d="M154,212.1c-0.1-0.2,0-0.5,0.2-0.6s0.4,0,0.5,0.3c0.1,0.2-0.1,0.8-0.1,0.8S154.1,212.4,154,212.1z"/>
							<path class="st49" d="M154.3,212.1c0-0.1,0-0.2,0.1-0.2s0.2,0,0.2,0.1s0,0.3,0,0.3S154.4,212.1,154.3,212.1z"/>
						</g>
						<g>
							<path class="st47" d="M168.3,216.2c0.1-0.4,0.5-0.7,0.8-0.5c0.4,0.1,0.6,0.6,0.5,1s-0.9,1-0.9,1S168.2,216.6,168.3,216.2z"/>
							<path class="st48" d="M168.6,216.3c0-0.2,0.2-0.4,0.5-0.3c0.2,0.1,0.3,0.3,0.3,0.6c0,0.2-0.5,0.6-0.5,0.6
								S168.5,216.6,168.6,216.3z"/>
							<path class="st49" d="M168.9,216.5c0-0.1,0.1-0.1,0.2-0.1c0.1,0,0.1,0.1,0.1,0.2c0,0.1-0.2,0.2-0.2,0.2
								S168.9,216.6,168.9,216.5z"/>
						</g>
						<g>
							<path class="st47" d="M166.2,212.7c0.1-0.4,0.5-0.7,0.8-0.5c0.4,0.1,0.6,0.6,0.5,1s-0.9,1-0.9,1S166.1,213.1,166.2,212.7z"/>
							<path class="st48" d="M166.5,212.9c0-0.2,0.2-0.4,0.5-0.3c0.2,0.1,0.3,0.3,0.3,0.6c0,0.2-0.5,0.6-0.5,0.6
								S166.5,213.1,166.5,212.9z"/>
							<path class="st49" d="M166.8,213c0-0.1,0.1-0.1,0.2-0.1s0.1,0.1,0.1,0.2c0,0.1-0.2,0.2-0.2,0.2S166.8,213.1,166.8,213z"/>
						</g>
						<g>
							<path class="st15" d="M164.2,203.1c1.1,0.3,2.2,0.6,2.7,1.9c0.4,1.1,1.8,0.5,1.4-0.7c-0.4-1-1.2-1.7-2-2s-1.8-0.4-2.2,0.4
								C164,202.9,164.1,203.1,164.2,203.1L164.2,203.1z"/>
						</g>
						<g>
							<path class="st15" d="M166.9,206.7c0,0.4,0.3,0.7,0.6,0.6c0.1-0.1,0.2-0.2,0.2-0.4s-0.2-0.3-0.3-0.4h-0.1c-0.1,0,0,0,0.1,0
								c0,0,0.1,0,0.1,0.1c0,0,0.1,0.1,0,0c0-0.1-0.2-0.2-0.3-0.2C167,206.4,166.9,206.5,166.9,206.7L166.9,206.7z"/>
						</g>
					</g>
				</g>
				<g>
					
						<rect x="164" y="171.3" transform="matrix(0.5276 -0.8495 0.8495 0.5276 -71.8835 233.6206)" class="st50" width="20.2" height="20.2"/>
					
						<rect x="172.4" y="198.5" transform="matrix(0.7783 -0.6278 0.6278 0.7783 -90.5031 160.8065)" class="st50" width="20.2" height="20.2"/>
					
						<rect x="160.3" y="219.5" transform="matrix(0.6401 -0.7683 0.7683 0.6401 -115.043 213.5489)" class="st50" width="20.2" height="20.2"/>
				</g>
			</g>
			<path class="st51" d="M195.1,143.7l-3.4,114.9h2c6.3,0,11.4-5,11.6-11.3l3-103.6L195.1,143.7L195.1,143.7z"/>
		</g>
	</g>
</g>
</svg>
