<?xml version="1.0" encoding="utf-8"?>
<!-- Generator: Adobe Illustrator 23.0.0, SVG Export Plug-In . SVG Version: 6.00 Build 0)  -->
<svg version="1.1" id="Capa_1" xmlns="http://www.w3.org/2000/svg" xmlns:xlink="http://www.w3.org/1999/xlink" x="0px" y="0px"
	 viewBox="0 0 360 363" style="enable-background:new 0 0 360 363;" xml:space="preserve">
<style type="text/css">
	.st0{fill:#FFD084;}
	.st1{fill:none;stroke:#FFE1C0;stroke-width:0.7573;stroke-miterlimit:10;}
	.st2{fill:#FFD6A4;}
	.st3{fill:none;stroke:#FFE1C0;stroke-width:0.75;stroke-miterlimit:10;}
	.st4{fill:#FFE1C0;}
	.st5{fill:none;stroke:#FFD6A4;stroke-width:0.75;stroke-miterlimit:10;}
	.st6{fill:none;stroke:#FFEFE1;stroke-width:0.7478;stroke-miterlimit:10;}
	.st7{fill:#8F7CE5;}
	.st8{fill:#A6A6DD;}
	.st9{fill:#FFE5CC;}
	.st10{fill:none;stroke:#FFD6A4;stroke-miterlimit:10;}
	.st11{clip-path:url(#SVGID_2_);fill:#FFD8AE;}
	.st12{clip-path:url(#SVGID_4_);fill:#FFD8AE;}
	.st13{fill:none;stroke:#FFFFFF;stroke-width:17.3607;stroke-linejoin:round;stroke-miterlimit:10;}
	.st14{fill:#A4A4E0;}
	.st15{fill:#CCCCFF;}
	.st16{fill:#E1E1FF;}
	.st17{fill:#F9A253;}
	.st18{opacity:0.2;fill:#EEDCB9;}
	.st19{fill:#FAE7CC;}
	.st20{fill:#EFECC5;}
</style>
<g id="fondo">
	<g>
		<g id="Rectángulo_556">
			<rect y="-0.1" class="st0" width="360" height="363.3"/>
			<rect x="0.5" y="0.4" class="st0" width="359" height="362.2"/>
		</g>
		<path class="st1" d="M228.1,258.3c0,0,43.9-35.1,59.7-104.9c15.8-69.8-12.4-91.7-12.4-91.7S254.9,35.3,242,72.3
			c0,0-11.1,37.2-24.4,18.6c0,0-4-5.6-6.5-13c-2.5-7.3-11-10.5-11-10.5s-21.4-7.3-59.4,34.8c0,0-30.9,35.9-25.5,83.1
			s10.5,56.8,10.5,56.8L228.1,258.3z"/>
		<path class="st2" d="M225.9,271.1c0,0,43.1-35.1,58.6-104.9s-12.2-91.7-12.2-91.7s-20.1-26.4-32.8,10.6c0,0-10.9,37.2-23.9,18.6
			c0,0-3.9-5.6-6.4-13c-2.5-7.3-10.8-10.5-10.8-10.5s-21-7.3-58.2,34.8c0,0-30.3,35.9-25,83.1s10.3,56.8,10.3,56.8L225.9,271.1z"/>
		<path class="st3" d="M114.9,245.6c0,0-61.2-54.4-49.7-80.4s30.9-7.5,30.9-7.5s25.7,22.6,47.9,63.9L114.9,245.6z"/>
		<path class="st2" d="M115.8,249.7c0,0-54.1-58.6-42.6-84.6s30.9-7.5,30.9-7.5s25.7,22.6,47.9,63.9L115.8,249.7z"/>
		<path class="st4" d="M206.4,265c0,0,41.3-44.5,60.9-102.7c0,0,11.1-34-2.3-60c0,0-8.2-25.8-29.3,14.8S206.3,129,206.3,129
			s-8.1-59.5-44-15.2s-22.9,140.1-22.9,140.1L206.4,265z"/>
		<path class="st5" d="M191.1,241.3c0,0,54.3-73,68-155.4"/>
		<path class="st6" d="M195.3,266c0,0,33.9-33.6,51.3-78.9c0,0,9.9-26.5,0.3-47.4c0,0-5.5-20.6-23.5,10.6s-23.4,8.4-23.4,8.4
			s-4.3-47.2-33.9-13.5s-22.8,109.6-22.8,109.6L195.3,266z"/>
		<g>
			
				<ellipse transform="matrix(1 -1.876222e-03 1.876222e-03 1 -0.526 0.338)" class="st7" cx="179.9" cy="280.5" rx="102.6" ry="21.4"/>
			<polygon class="st7" points="282.5,280.3 282.7,266.4 77.5,266.8 77.3,280.7 			"/>
			
				<ellipse transform="matrix(1 -1.876222e-03 1.876222e-03 1 -0.4999 0.3384)" class="st8" cx="180.1" cy="266.6" rx="102.6" ry="21.4"/>
		</g>
		<path class="st3" d="M239.7,220.4c0,0,41.8-19.1,39.9,9s-53,30.9-53,30.9s-15.5-0.3-14.5-10.3C213.2,240,218.5,230.9,239.7,220.4z
			"/>
		<path class="st9" d="M229.9,222.9c0,0,37.6-26.4,40.9,1.5c3.2,27.9-46.4,40.1-46.4,40.1S209,267,208.2,257
			C207.3,247,211,237.1,229.9,222.9z"/>
		<path class="st10" d="M208.2,257c0,0,44.4-19.6,65.3-41.4"/>
		<g>
			<g>
				<g>
					<g>
						<g>
							<g>
								<defs>
									<path id="SVGID_1_" d="M229.9,222.9c0,0,37.6-26.4,40.9,1.5c3.2,27.9-46.4,40.1-46.4,40.1S209,267,208.2,257
										C207.3,247,211,237.1,229.9,222.9z"/>
								</defs>
								<clipPath id="SVGID_2_">
									<use xlink:href="#SVGID_1_"  style="overflow:visible;"/>
								</clipPath>
								<path class="st11" d="M240.9,211.5c0,0-27.3,46.6,4.8,50c21.5,2.3-22.9,11.5-22.9,11.5l-20.3-4.6l-1.3-29l20-22.9
									L240.9,211.5z"/>
							</g>
						</g>
					</g>
				</g>
			</g>
		</g>
		<g>
			<path class="st9" d="M128.2,225.7c0,0-34.9-21.9-37.3,9.5c0,0,6.5,28.1,39.9,22.4C164.1,251.8,128.2,225.7,128.2,225.7z"/>
		</g>
		<path class="st10" d="M143,248.3c0,0-40.9-21-62.4-13.1"/>
		<g>
			<g>
				<g>
					<g>
						<g>
							<g>
								<defs>
									<path id="SVGID_3_" d="M128.2,225.7c0,0-34.9-21.9-37.3,9.5c0,0,6.5,28.1,39.9,22.4C164.1,251.8,128.2,225.7,128.2,225.7z"
										/>
								</defs>
								<clipPath id="SVGID_4_">
									<use xlink:href="#SVGID_3_"  style="overflow:visible;"/>
								</clipPath>
								<path class="st12" d="M124.1,218.3h-4h-3.6c0,0,17.6,26,9.4,34.6c-8.2,8.6-9.4,6.7-9.4,6.7l19.6,1.8l15.9-7.2l1.2-14.3
									l-16-11.9L124.1,218.3z"/>
							</g>
						</g>
					</g>
				</g>
			</g>
		</g>
		<path class="st3" d="M84.5,161.6c0,0,21.6,45.3,54.6,70.4"/>
		<path class="st3" d="M103.9,163.3c0,0-5.4,4-7,10.8"/>
		<path class="st3" d="M108.2,171.4c0,0-5.3,5.3-6,14.2"/>
		<path class="st3" d="M96.9,190.4c0,0-6.3-0.5-14.9,3.7"/>
		<path class="st3" d="M102.2,196.8c0,0-10.9,0.4-15.6,3.7"/>
		<path class="st2" d="M109.5,107.7c0.1,4-3.4,7.8-6.2,10.4c-1-2.4-1.9-5-2-7.6c-0.1-2,0.7-4,2.2-5.3c0.5-0.4,1-0.8,1.7-0.9
			c0.4-0.1,0.7-0.2,1.1-0.2C108,104.3,109.4,105.9,109.5,107.7z"/>
		<path class="st2" d="M81.9,123.8c-3.1,0.3-9-1.1-11.6-3.2c-2.3-1.7-2.3-2.2-3.4-4.9c-1-2.7,0.6-5.9,3.6-6.2
			c1.5-0.2,3.1,0.2,4.3,1.1C79.1,113.4,82.6,118.4,81.9,123.8z"/>
		<path class="st4" d="M105.6,142.4c-1.9,1.1-5-0.2-4.7-2.6c-0.2-2.8,4.1-3.8,5.6-1.6C107.5,139.5,106.9,141.6,105.6,142.4z"/>
		<path class="st4" d="M319.5,85.1c-2.6,1.4-6.6-0.3-6.3-3.5c-0.2-3.8,5.5-5.1,7.4-2.1C322,81.2,321.3,83.9,319.5,85.1z"/>
		<path class="st2" d="M328.9,297.3c-3.1,1.7-7.9-0.3-7.6-4.2c-0.3-4.5,6.6-6.1,8.9-2.5C331.9,292.6,331,295.9,328.9,297.3z"/>
		<path class="st4" d="M286.4,309c-2,1.1-5.2-0.2-5-2.8c-0.2-3,4.3-4,5.8-1.7C288.4,305.9,287.9,308.1,286.4,309z"/>
		<path class="st2" d="M61.9,244.7c-2.6,1.4-6.6-0.3-6.3-3.5c-0.2-3.8,5.5-5.1,7.4-2.1C64.4,240.8,63.7,243.5,61.9,244.7z"/>
		
			<ellipse transform="matrix(0.3506 -0.9365 0.9365 0.3506 -94.4212 226.7174)" class="st9" cx="116.3" cy="181.4" rx="2.7" ry="1.7"/>
		
			<ellipse transform="matrix(0.3506 -0.9365 0.9365 0.3506 -102.8667 234.9736)" class="st9" cx="118" cy="191.7" rx="2.7" ry="1.7"/>
		
			<ellipse transform="matrix(0.3506 -0.9365 0.9365 0.3506 -131.5903 232.9318)" class="st0" cx="102.2" cy="211.4" rx="3" ry="1.8"/>
	</g>
</g>
<g>
	<path class="st13" d="M234.2,151.1c0-6.5-4.3-11.9-10.2-13.6c1.8-1.3,2.8-3.5,2.6-6c-0.4-3.1-3-5.6-6.2-5.8
		c-2.2-0.1-4.1,0.8-5.4,2.4c-2.8-2.7-6.7-4.3-10.9-4.3c-1.7,0-3.2,0.3-4.7,0.7c-0.6-5.6-5.4-10-11.1-10c-6.2,0-11.2,5-11.2,11.2
		c0,0.3,0,0.6,0,0.9c-1.7-1.4-3.8-2.2-6-2.2c-5.9,0-10.8,5.6-10.8,12.6c0,0,0,0,0,0c0,0,0,0-0.1,0c-3.2,0-5.9,2.6-6.5,6.1
		c-0.4,0-0.7-0.1-1.1-0.1c-6.1,0-11.1,5-11.1,11.1c0,5,3.2,9.1,7.7,10.6c-0.3,0.6-0.7,1.3-0.9,2h-4c-11.3,0-20.5,9.2-20.5,20.5v34
		c0,11.3,9.2,20.5,20.5,20.5h6.2c2.2,3.2,5.1,5.9,8.6,7.8h-3.5c-2.7,0-4.9,2.2-4.9,4.9v0c0,2.7,2.2,4.9,4.9,4.9h60.5
		c2.7,0,4.9-2.2,4.9-4.9v0c0-2.7-2.2-4.9-4.9-4.9h-3.5c7.5-4.1,12.7-12.1,12.7-21.3v-52.1c0-4-1-7.8-2.7-11.2
		C229.2,163.9,234.2,158.1,234.2,151.1z M144.3,231c-5.4,0-9.8-4.4-9.8-9.8v-34c0-5.4,4.4-9.8,9.8-9.8h2.1v50.8
		c0,0.9,0.1,1.8,0.2,2.7H144.3z"/>
	<g>
		<g>
			<path class="st14" d="M163.6,241.8h-19.3c-11.3,0-20.5-9.2-20.5-20.5v-34c0-11.3,9.2-20.5,20.5-20.5h19.3v10.8h-19.3
				c-5.4,0-9.8,4.4-9.8,9.8v34c0,5.4,4.4,9.8,9.8,9.8h19.3V241.8z"/>
		</g>
		<path class="st14" d="M155.6,249.6h60.5c2.7,0,4.9,2.2,4.9,4.9v0c0,2.7-2.2,4.9-4.9,4.9h-60.5c-2.7,0-4.9-2.2-4.9-4.9v0
			C150.7,251.8,152.9,249.6,155.6,249.6z"/>
		<path class="st15" d="M170.7,252.6H201c13.4,0,24.3-10.9,24.3-24.3v-52.1c0-13.4-10.9-24.3-24.3-24.3h-30.3
			c-13.4,0-24.3,10.9-24.3,24.3v52.1C146.4,241.7,157.3,252.6,170.7,252.6z"/>
		<path class="st16" d="M175,247.1h21.6c13.4,0,24.3-10.9,24.3-24.3v-54.4c0-6-4.9-10.9-10.9-10.9h-49.3c-5.5,0-10,4.5-10,10v55.3
			C150.7,236.2,161.6,247.1,175,247.1z"/>
		<path class="st17" d="M176.9,244.6h17.8c13.4,0,24.3-10.9,24.3-24.3v-49.5c0-6-4.9-10.9-10.9-10.9h-45.4c-5.5,0-10,4.5-10,10v50.3
			C152.6,233.7,163.5,244.6,176.9,244.6z"/>
		<path class="st18" d="M170.9,169.2L170.9,169.2c-2.9,0-5.3,2.4-5.3,5.3v60.1c0,2.9,2.4,5.3,5.3,5.3l0,0c2.9,0,5.3-2.4,5.3-5.3
			v-60.1C176.2,171.6,173.8,169.2,170.9,169.2z"/>
		<path class="st18" d="M201,169.2L201,169.2c-2.9,0-5.3,2.4-5.3,5.3v60.1c0,2.9,2.4,5.3,5.3,5.3l0,0c2.9,0,5.3-2.4,5.3-5.3v-60.1
			C206.4,171.6,204,169.2,201,169.2z"/>
		<path class="st19" d="M209,222L209,222c2.7,0,4.8-2.2,4.8-4.8v-44.4c0-2.7-2.2-4.8-4.8-4.8l0,0c-2.7,0-4.8,2.2-4.8,4.8v44.4
			C204.1,219.8,206.3,222,209,222z"/>
		<path class="st19" d="M204.1,231.6c0-2.7,2.2-4.8,4.8-4.8s4.8,2.2,4.8,4.8c0,2.7-2.2,4.8-4.8,4.8S204.1,234.2,204.1,231.6z"/>
		<path class="st20" d="M141.5,154.2c0-6.1,5-11.1,11.1-11.1c0.4,0,0.7,0,1.1,0.1c0.7-3.5,3.3-6.1,6.5-6.1c0,0,0,0,0.1,0
			c0,0,0,0,0,0c0-7,4.8-12.6,10.8-12.6c2.2,0,4.3,0.8,6,2.2c0-0.3,0-0.6,0-0.9c0-6.2,5-11.2,11.2-11.2c5.8,0,10.5,4.4,11.1,10
			c1.5-0.5,3.1-0.7,4.7-0.7c4.2,0,8,1.6,10.9,4.3c1.3-1.5,3.2-2.5,5.4-2.4c3.2,0.2,5.8,2.7,6.2,5.8c0.3,2.4-0.8,4.6-2.6,6
			c5.9,1.7,10.2,7.2,10.2,13.6c0,7.7-6.2,14-13.9,14.2c0,0,0,0,0,0h-14.8c-4,0-7.2,3.2-7.2,7.2v8.8c0,3.6-2.9,6.6-6.6,6.6l0,0
			c-3.6,0-6.6-2.9-6.6-6.6v-12.1c0-2.1-1.7-3.9-3.9-3.9h0c-2.2,0-3.9,1.8-3.9,3.9c0,7.7,0.1,24.2,0.1,24.2c0,3.8-3.2,6.8-7,6.6
			c-3.5-0.2-6.1-3.3-6.1-6.8c0,0,0-12.8,0.1-21.1c0-3.8-3-6.8-6.8-6.8h-6.1c0,0,0,0,0-0.1C145.9,164.7,141.5,160,141.5,154.2z"/>
	</g>
</g>
</svg>
