<?xml version="1.0" encoding="utf-8"?>
<!-- Generator: Adobe Illustrator 23.0.0, SVG Export Plug-In . SVG Version: 6.00 Build 0)  -->
<svg version="1.1" id="Capa_1" xmlns="http://www.w3.org/2000/svg" xmlns:xlink="http://www.w3.org/1999/xlink" x="0px" y="0px"
	 viewBox="0 0 360 363" style="enable-background:new 0 0 360 363;" xml:space="preserve">
<style type="text/css">
	.st0{fill:#FFD084;}
	.st1{fill:none;stroke:#FFE1C0;stroke-width:0.7573;stroke-miterlimit:10;}
	.st2{fill:#FFD6A4;}
	.st3{fill:none;stroke:#FFE1C0;stroke-width:0.75;stroke-miterlimit:10;}
	.st4{fill:#FFE1C0;}
	.st5{fill:none;stroke:#FFD6A4;stroke-width:0.75;stroke-miterlimit:10;}
	.st6{fill:none;stroke:#FFEFE1;stroke-width:0.7478;stroke-miterlimit:10;}
	.st7{fill:#8F7CE5;}
	.st8{fill:#A6A6DD;}
	.st9{fill:#FFE5CC;}
	.st10{fill:none;stroke:#FFD6A4;stroke-miterlimit:10;}
	.st11{clip-path:url(#SVGID_2_);fill:#FFD8AE;}
	.st12{clip-path:url(#SVGID_4_);fill:#FFD8AE;}
	.st13{fill:none;stroke:#FFFFFF;stroke-width:16.2875;stroke-linejoin:round;stroke-miterlimit:10;}
	.st14{fill:none;stroke:#FFFFFF;stroke-width:15;stroke-linejoin:round;stroke-miterlimit:10;}
	.st15{fill:#0EAD8E;}
	.st16{fill:#45CEB3;}
	.st17{fill:#20BA9C;}
	.st18{fill:#51DBC4;}
	.st19{fill:#496D31;}
	.st20{fill:#AF1E3B;}
	.st21{clip-path:url(#SVGID_6_);fill:#9B1334;}
	.st22{clip-path:url(#SVGID_8_);fill:#B52D4E;}
	.st23{opacity:0.21;clip-path:url(#SVGID_10_);fill:#AF1E3B;enable-background:new    ;}
	.st24{opacity:0.15;clip-path:url(#SVGID_12_);fill:#AF1E3B;enable-background:new    ;}
	.st25{opacity:0.15;clip-path:url(#SVGID_14_);fill:#AF1E3B;enable-background:new    ;}
	.st26{opacity:0.1;fill:#FFFFFF;enable-background:new    ;}
	.st27{opacity:0.13;fill:#FFFFFF;enable-background:new    ;}
	.st28{fill:#FFFFFF;}
	.st29{fill:#A04C13;}
	.st30{fill:#BC5B19;}
	.st31{fill:#C66524;}
	.st32{fill:#CCCCFF;}
	.st33{fill:#B1B1EF;}
	.st34{opacity:0.6;fill:#9E523E;enable-background:new    ;}
	.st35{fill:#C98F67;}
	.st36{opacity:0.3;fill:#FFFFFF;enable-background:new    ;}
	.st37{fill:#FFFFFF;fill-opacity:0;}
</style>
<g id="fondo">
	<g id="Rectángulo_556">
		<rect y="-0.1" class="st0" width="360" height="363.3"/>
		<rect x="0.5" y="0.4" class="st0" width="359" height="362.2"/>
	</g>
	<path class="st1" d="M228.1,263.3c0,0,44-35.1,59.7-104.9c15.8-69.8-12.4-91.7-12.4-91.7S254.9,40.3,242,77.3
		c0,0-11.1,37.2-24.4,18.6c0,0-4-5.6-6.5-13s-11-10.5-11-10.5s-21.4-7.3-59.4,34.8c0,0-30.9,35.9-25.5,83.1s10.5,56.8,10.5,56.8
		L228.1,263.3z"/>
	<path class="st2" d="M225.9,276.1c0,0,43.1-35.1,58.6-104.9s-12.2-91.7-12.2-91.7s-20.1-26.4-32.8,10.6c0,0-10.9,37.2-23.9,18.6
		c0,0-3.9-5.6-6.4-13s-10.8-10.5-10.8-10.5s-21-7.3-58.2,34.8c0,0-30.3,35.9-25,83.1s10.3,56.8,10.3,56.8L225.9,276.1z"/>
	<path class="st3" d="M114.9,250.6c0,0-61.2-54.4-49.7-80.4s30.9-7.5,30.9-7.5s25.7,22.6,47.9,63.9L114.9,250.6z"/>
	<path class="st2" d="M115.8,254.7c0,0-54.1-58.6-42.6-84.6s30.9-7.5,30.9-7.5s25.7,22.6,47.9,63.9L115.8,254.7z"/>
	<path class="st4" d="M206.4,270c0,0,41.3-44.5,60.9-102.8c0,0,11.1-34-2.3-60c0,0-8.2-25.8-29.3,14.8s-29.4,11.9-29.4,11.9
		s-8.1-59.5-44-15.2s-22.9,140.1-22.9,140.1L206.4,270z"/>
	<path class="st5" d="M191.1,246.3c0,0,54.4-73,68-155.4"/>
	<path class="st6" d="M195.3,271c0,0,33.9-33.6,51.3-78.9c0,0,9.9-26.4,0.3-47.4c0,0-5.5-20.6-23.5,10.6s-23.4,8.4-23.4,8.4
		s-4.3-47.2-33.9-13.5s-22.8,109.6-22.8,109.6L195.3,271z"/>
	<g>
		
			<ellipse transform="matrix(1 -1.876229e-03 1.876229e-03 1 -0.5353 0.338)" class="st7" cx="179.9" cy="285.5" rx="102.6" ry="21.4"/>
		<polygon class="st7" points="282.5,285.3 282.7,271.4 77.5,271.8 77.3,285.7 		"/>
		
			<ellipse transform="matrix(1 -1.876229e-03 1.876229e-03 1 -0.5093 0.3384)" class="st8" cx="180.1" cy="271.6" rx="102.6" ry="21.4"/>
	</g>
	<path class="st3" d="M239.7,225.4c0,0,41.8-19.1,39.9,8.9s-53,30.9-53,30.9s-15.5-0.3-14.5-10.3C213.1,245,218.5,235.9,239.7,225.4
		z"/>
	<path class="st9" d="M229.9,227.9c0,0,37.6-26.4,40.9,1.5c3.2,27.9-46.4,40.1-46.4,40.1S209,272,208.2,262
		C207.3,252,211,242.1,229.9,227.9z"/>
	<path class="st10" d="M208.2,262c0,0,44.4-19.6,65.3-41.4"/>
	<g>
		<g>
			<g>
				<g>
					<g>
						<defs>
							<path id="SVGID_1_" d="M229.9,227.9c0,0,37.6-26.4,40.9,1.5c3.2,27.9-46.4,40.1-46.4,40.1S209,272,208.2,262
								C207.3,252,211,242.1,229.9,227.9z"/>
						</defs>
						<clipPath id="SVGID_2_">
							<use xlink:href="#SVGID_1_"  style="overflow:visible;"/>
						</clipPath>
						<path class="st11" d="M240.9,216.5c0,0-27.3,46.6,4.8,50c21.5,2.3-22.9,11.5-22.9,11.5l-20.3-4.6l-1.3-29.1l20-22.9
							L240.9,216.5z"/>
					</g>
				</g>
			</g>
		</g>
	</g>
	<g>
		<path class="st9" d="M128.2,230.7c0,0-34.9-21.9-37.3,9.5c0,0,6.5,28.1,39.9,22.4S128.2,230.7,128.2,230.7z"/>
	</g>
	<path class="st10" d="M143,253.3c0,0-40.9-21-62.4-13.1"/>
	<g>
		<g>
			<g>
				<g>
					<g>
						<defs>
							<path id="SVGID_3_" d="M128.2,230.7c0,0-34.9-21.9-37.3,9.5c0,0,6.5,28.1,39.9,22.4S128.2,230.7,128.2,230.7z"/>
						</defs>
						<clipPath id="SVGID_4_">
							<use xlink:href="#SVGID_3_"  style="overflow:visible;"/>
						</clipPath>
						<path class="st12" d="M124.1,223.3h-4h-3.6c0,0,17.6,26,9.4,34.6c-8.3,8.6-9.4,6.7-9.4,6.7l19.6,1.8l15.9-7.2l1.2-14.3
							l-16-11.9L124.1,223.3z"/>
					</g>
				</g>
			</g>
		</g>
	</g>
	<path class="st3" d="M84.5,166.6c0,0,21.6,45.3,54.6,70.4"/>
	<path class="st3" d="M103.9,168.3c0,0-5.4,4-7,10.8"/>
	<path class="st3" d="M108.2,176.4c0,0-5.3,5.3-6,14.2"/>
	<path class="st3" d="M96.9,195.4c0,0-6.3-0.5-14.9,3.6"/>
	<path class="st3" d="M102.2,201.8c0,0-10.9,0.4-15.6,3.7"/>
	<path class="st2" d="M109.5,112.7c0.1,4-3.4,7.8-6.2,10.4c-1-2.4-1.9-5-2-7.6c-0.1-2,0.7-4,2.2-5.3c0.5-0.4,1-0.8,1.7-0.9
		c0.4-0.1,0.7-0.2,1.1-0.2C108,109.3,109.4,110.9,109.5,112.7z"/>
	<path class="st2" d="M81.9,128.8c-3.1,0.3-9-1.1-11.6-3.3c-2.3-1.7-2.3-2.2-3.4-4.9c-1-2.7,0.6-5.9,3.6-6.2
		c1.5-0.2,3.1,0.2,4.3,1.1C79.1,118.4,82.6,123.4,81.9,128.8z"/>
	<path class="st4" d="M105.6,147.4c-1.9,1.1-5-0.2-4.7-2.6c-0.2-2.8,4.1-3.8,5.6-1.6C107.5,144.5,106.9,146.6,105.6,147.4z"/>
	<path class="st4" d="M319.5,90.1c-2.6,1.4-6.6-0.3-6.3-3.5c-0.2-3.8,5.5-5.1,7.4-2.1C322,86.2,321.3,88.9,319.5,90.1z"/>
	<path class="st2" d="M328.9,302.3c-3.1,1.7-7.9-0.3-7.6-4.2c-0.3-4.5,6.6-6.1,8.9-2.5C331.9,297.6,331,300.9,328.9,302.3z"/>
	<path class="st4" d="M286.4,314c-2,1.1-5.2-0.2-5-2.8c-0.2-3,4.3-4,5.8-1.7C288.4,311,287.9,313.1,286.4,314z"/>
	<path class="st2" d="M61.9,249.7c-2.6,1.4-6.6-0.3-6.3-3.5c-0.2-3.8,5.5-5.1,7.4-2.1C64.4,245.8,63.7,248.5,61.9,249.7z"/>
	
		<ellipse transform="matrix(0.3506 -0.9365 0.9365 0.3506 -99.1221 229.9783)" class="st9" cx="116.3" cy="186.5" rx="2.7" ry="1.7"/>
	
		<ellipse transform="matrix(0.3506 -0.9365 0.9365 0.3506 -107.5452 238.2627)" class="st9" cx="118" cy="196.7" rx="2.7" ry="1.7"/>
	
		<ellipse transform="matrix(0.3506 -0.9365 0.9365 0.3506 -136.4789 236.2523)" class="st0" cx="102.1" cy="216.5" rx="3" ry="1.8"/>
</g>
<path class="st13" d="M210.1,195.8C210.1,195.8,210.2,195.7,210.1,195.8c0-1.7-13.6-3-30.3-3c-16.8,0-30.4,1.3-30.4,2.9v0.1l0,0
	v54.9V261c0,2.4,1.9,4.3,4.3,4.3H206c2.4,0,4.3-1.9,4.3-4.3v-10.2v-54.9L210.1,195.8L210.1,195.8z"/>
<path class="st14" d="M220.7,169.5c-0.3-1.1-0.6-2.1-1-3c-0.4-0.9-0.7-1.7-1.1-2.4c-0.3-0.7-0.7-1.2-0.9-1.6
	c-0.1-0.2-0.2-0.3-0.3-0.4c-0.1-0.1-0.1-0.2-0.1-0.2s-0.1,0.1-0.2,0.1c-0.1,0-0.3,0.1-0.5,0.2c-0.3,0.2-1,0.5-1.6,0.9
	c-0.7,0.3-1.4,0.8-2.2,1.4s-1.6,1.3-2.4,2c-1.6,1.5-3.2,3.3-4.5,5.4c-0.9,1.4-1.7,2.9-2.3,4.5c-0.3-0.4-0.6-0.9-0.9-1.3
	c-1.4-2-3.2-3.7-4.9-5.1c-0.9-0.7-1.8-1.3-2.6-1.8s-1.6-1-2.3-1.3c-0.7-0.3-1.3-0.5-1.7-0.7c-0.2-0.1-0.4-0.2-0.5-0.2
	c-0.1-0.1-0.2-0.1-0.2-0.1s0,0.1-0.1,0.2c-0.1,0.2-0.2,0.3-0.3,0.5c-0.2,0.4-0.5,1-0.8,1.7c-0.3,0.7-0.6,1.6-0.9,2.5s-0.6,1.9-0.8,3
	c-0.4,2.2-0.6,4.6-0.4,7.1c0.2,2.4,0.7,4.9,1.6,7.3c0.8,2.4,2,4.6,3.5,6.6c1.4,2,3.2,3.7,4.9,5.1c0.9,0.7,1.8,1.3,2.6,1.8
	c0.8,0.5,1.6,1,2.3,1.3s1.3,0.5,1.7,0.7c0.2,0.1,0.4,0.2,0.5,0.2c0.1,0.1,0.2,0.1,0.2,0.1s0,0,0.1-0.2c0.1-0.2,0.2-0.3,0.3-0.5
	c0.2-0.4,0.5-1,0.8-1.7c0.1-0.3,0.2-0.6,0.4-1c0,0.1,0,0.1,0,0.1s0.1,0,0.1-0.1c0.1,0,0.3-0.1,0.5-0.2c0.3-0.2,1-0.5,1.6-0.9
	c0.7-0.3,1.4-0.8,2.2-1.4c0.8-0.6,1.6-1.3,2.4-2c1.6-1.5,3.2-3.3,4.5-5.4c1.4-2,2.4-4.4,3.1-6.8c0.7-2.4,1.1-4.9,1.1-7.4
	S221.3,171.6,220.7,169.5z"/>
<g>
	<g>
		<path class="st15" d="M204.5,204c0,0-0.1,0-0.2-0.1c-0.1,0-0.3-0.1-0.5-0.2c-0.4-0.2-1-0.4-1.7-0.7s-1.5-0.8-2.3-1.3
			s-1.7-1.1-2.6-1.8c-1.7-1.4-3.5-3.1-4.9-5.1c-1.5-2-2.7-4.2-3.5-6.6c-0.9-2.4-1.4-4.9-1.6-7.3c-0.2-2.5,0-4.9,0.4-7.1
			c0.2-1.1,0.5-2.1,0.8-3c0.3-0.9,0.6-1.8,0.9-2.5c0.3-0.7,0.6-1.3,0.8-1.7c0.1-0.2,0.2-0.3,0.3-0.5c0.1-0.1,0.1-0.2,0.1-0.2
			s0.1,0,0.2,0.1c0.1,0,0.3,0.1,0.5,0.2c0.4,0.2,1,0.4,1.7,0.7c0.7,0.3,1.5,0.8,2.3,1.3s1.7,1.1,2.6,1.8c1.7,1.4,3.5,3.1,4.9,5.1
			c1.5,2,2.7,4.2,3.5,6.6c0.9,2.4,1.4,4.9,1.6,7.3c0.2,2.5,0,4.9-0.4,7.1c-0.2,1.1-0.5,2.1-0.8,3s-0.6,1.8-0.9,2.5
			c-0.3,0.7-0.6,1.3-0.8,1.7c-0.1,0.2-0.2,0.3-0.3,0.5C204.5,204,204.5,204,204.5,204z"/>
		<path class="st16" d="M191.5,168.6c0,0,0.3,0.5,0.8,1.3s1.1,2,1.8,3.5c1.4,2.9,3.1,6.8,4.6,10.8s2.8,8.1,3.5,11.2
			c0.4,1.6,0.7,2.9,0.9,3.8c0.2,0.9,0.3,1.5,0.3,1.5s-0.3-0.5-0.8-1.3s-1.1-2-1.8-3.5c-1.4-2.9-3.1-6.8-4.6-10.8s-2.7-8.1-3.5-11.2
			c-0.4-1.6-0.7-2.9-0.9-3.8C191.5,169.2,191.5,168.6,191.5,168.6z"/>
	</g>
	<g>
		<path class="st17" d="M206.1,200.7c0,0,0,0-0.1-0.2c-0.1-0.1-0.2-0.2-0.3-0.4c-0.2-0.4-0.6-0.9-0.9-1.6c-0.4-0.7-0.7-1.5-1.1-2.4
			c-0.4-0.9-0.7-1.9-1-3c-0.6-2.1-0.9-4.5-0.9-7s0.4-5,1-7.4c0.7-2.4,1.7-4.8,3.1-6.8c1.3-2.1,2.9-3.9,4.5-5.4
			c0.8-0.7,1.6-1.4,2.4-2c0.8-0.6,1.5-1.1,2.2-1.4c0.6-0.4,1.3-0.7,1.6-0.9c0.2-0.1,0.4-0.2,0.5-0.2s0.2-0.1,0.2-0.1s0,0.1,0.1,0.2
			c0.1,0.1,0.2,0.2,0.3,0.4c0.2,0.4,0.6,0.9,0.9,1.6c0.4,0.7,0.7,1.5,1.1,2.4c0.4,0.9,0.7,1.9,1,3c0.6,2.1,0.9,4.5,0.9,7
			s-0.4,5-1.1,7.4c-0.7,2.4-1.7,4.8-3.1,6.8c-1.3,2.1-2.9,3.9-4.5,5.4c-0.8,0.7-1.6,1.4-2.4,2c-0.8,0.6-1.5,1.1-2.2,1.4
			c-0.6,0.4-1.3,0.7-1.6,0.9c-0.2,0.1-0.4,0.2-0.5,0.2C206.2,200.7,206.1,200.7,206.1,200.7z"/>
		<path class="st18" d="M216.6,164.5c0,0,0,0.5-0.2,1.5c-0.1,0.9-0.3,2.3-0.6,3.9c-0.6,3.2-1.6,7.3-2.7,11.4
			c-1.2,4.1-2.6,8.2-3.8,11.1c-0.6,1.5-1.2,2.7-1.6,3.6c-0.4,0.9-0.7,1.3-0.7,1.3s0-0.5,0.2-1.5c0.1-0.9,0.3-2.3,0.6-3.9
			c0.6-3.2,1.6-7.3,2.7-11.4c1.2-4.1,2.6-8.2,3.8-11.1c0.6-1.5,1.2-2.7,1.6-3.6C216.3,165,216.6,164.5,216.6,164.5z"/>
	</g>
</g>
<g>
	<path class="st19" d="M212.3,153.4c-0.5,0.3-1,0.6-1.5,0.9c-0.2,0.1-0.7,0.3-0.9,0.4c0.1,0,0.2-0.1,0.3-0.1
		c-6,5.5-9.4,13.7-8.9,21.9c0.1,0.9,0.2,1.9,0.3,2.8c0.2,1.4,0.3,2.8,0.3,4.1h0.6c0-1.4-0.2-2.8-0.3-4.2c-0.1-0.9-0.2-1.8-0.3-2.8
		c-0.5-8.6,3.3-17.3,10.1-22.6l1.3-1C213,153,212.6,153.2,212.3,153.4z"/>
	<path class="st20" d="M193.6,182.9c-0.9,0.9-1.3,2.3-1.5,3.6c-0.4,3.2,0.3,6.5,2.1,9.1s4.8,4.5,8,4.6c1.3,0,2.5-0.2,3.6-0.8
		c1.3-0.8,3.1-1.7,4-3c1.7-2.4,2.4-5.2,2.8-8.1c0.5-3.3-0.9-7.1-4.3-8.2c-3.1-1-5.7,0.1-8.6,0.7
		C197.8,181.3,195.1,181.4,193.6,182.9z"/>
	<g>
		<g>
			<g>
				<g>
					<defs>
						<path id="SVGID_5_" d="M193.6,182.9c-0.9,0.9-1.3,2.3-1.5,3.6c-0.4,3.2,0.3,6.5,2.1,9.1s4.8,4.5,8,4.6c1.3,0,2.5-0.2,3.6-0.8
							c1.3-0.8,3.1-1.7,4-3c1.7-2.4,2.4-5.2,2.8-8.1c0.5-3.3-0.9-7.1-4.3-8.2c-3.1-1-5.7,0.1-8.6,0.7
							C197.8,181.3,195.1,181.4,193.6,182.9z"/>
					</defs>
					<clipPath id="SVGID_6_">
						<use xlink:href="#SVGID_5_"  style="overflow:visible;"/>
					</clipPath>
					<path class="st21" d="M201.1,179.5c-3.1-1.4-6.4-0.3-8.3,2.5c-2,3-2,7.1-1.1,10.5c0.9,3.1,2.7,5.9,5.4,7.8
						c2.7,1.8,6.7,2.7,9.6,0.9c1.3-0.8,0.9-3.1-0.8-3c-2.3,0.2-4.4,0.2-6.4-1c-1.8-1.1-3.1-3.1-3.7-5.1c-0.7-2.2-0.9-4.8,0-6.9
						c0.8-1.8,2.7-3.4,4.7-3.3C201.7,182,202.3,180,201.1,179.5L201.1,179.5z"/>
				</g>
			</g>
		</g>
		<g>
			<g>
				<g>
					<defs>
						<path id="SVGID_7_" d="M193.6,182.9c-0.9,0.9-1.3,2.3-1.5,3.6c-0.4,3.2,0.3,6.5,2.1,9.1s4.8,4.5,8,4.6c1.3,0,2.5-0.2,3.6-0.8
							c1.3-0.8,3.1-1.7,4-3c1.7-2.4,2.4-5.2,2.8-8.1c0.5-3.3-0.9-7.1-4.3-8.2c-3.1-1-5.7,0.1-8.6,0.7
							C197.8,181.3,195.1,181.4,193.6,182.9z"/>
					</defs>
					<clipPath id="SVGID_8_">
						<use xlink:href="#SVGID_7_"  style="overflow:visible;"/>
					</clipPath>
					<path class="st22" d="M203.6,181.6c1.6-0.2,3.8,0.1,5.2,1.1c1.5,1,2.1,2.9,2.3,4.6c0.2,2.1,0.1,4.3-0.4,6.4
						c-0.2,1.1-0.6,2.2-1.2,3.1c-0.6,1-1.6,1.6-2.1,2.6s0.1,2.2,1.3,2.2c3.2,0.1,5-3.9,5.7-6.6c0.7-2.8,0.9-6,0.5-8.9
						c-0.4-2.8-1.7-5.3-4-6.8c-2.5-1.6-5.3-1.8-7.8-0.2C201.9,179.7,202.2,181.8,203.6,181.6L203.6,181.6z"/>
				</g>
			</g>
		</g>
		<g>
			<g>
				<g>
					<defs>
						<path id="SVGID_9_" d="M193.6,182.9c-0.9,0.9-1.3,2.3-1.5,3.6c-0.4,3.2,0.3,6.5,2.1,9.1s4.8,4.5,8,4.6c1.3,0,2.5-0.2,3.6-0.8
							c1.3-0.8,3.1-1.7,4-3c1.7-2.4,2.4-5.2,2.8-8.1c0.5-3.3-0.9-7.1-4.3-8.2c-3.1-1-5.7,0.1-8.6,0.7
							C197.8,181.3,195.1,181.4,193.6,182.9z"/>
					</defs>
					<clipPath id="SVGID_10_">
						<use xlink:href="#SVGID_9_"  style="overflow:visible;"/>
					</clipPath>
					<path class="st23" d="M215.6,188.1c-0.1-1.3,0.8-2.2-0.5-2.3c-1.2-0.1-1.9,0.4-3.8,1.5c-0.8,0.5-3.4,1.7-4.3,2
						c-1.7,0.4-2.7,0.4-4.5,0.2c-2-0.2-3.7-0.9-5.1-2.5c-1.6-1.8-0.1-4.6,0.6-6.3c1-2.5-2.6-4.2-4.3-2.5c-1.3,1.3-2,3.1-2.4,4.9
						c-0.3,1.6-0.7,3.4-0.7,5c0,1.4,0.3,2.8,0.9,4l0,0c-0.4,2.9,1.4,5.9,4,7.2c1.3,0.6,2.6,1.1,4.1,1.1c0.9,0.2,1.9,0.5,2.8,0.5
						c0.5,0,2.7-0.7,3.3-0.7c1.1,0,1.7-0.6,1.8-1.4c0.4-0.2,0.9-0.5,1.3-0.8c2.1-1.4,4.2-2.8,5.1-5.2c0.1-0.3,0.1-0.6,0.1-0.9
						C215.1,190.8,215.7,189.6,215.6,188.1z"/>
				</g>
			</g>
		</g>
		<g>
			<g>
				<g>
					<defs>
						<path id="SVGID_11_" d="M193.6,182.9c-0.9,0.9-1.3,2.3-1.5,3.6c-0.4,3.2,0.3,6.5,2.1,9.1s4.8,4.5,8,4.6c1.3,0,2.5-0.2,3.6-0.8
							c1.3-0.8,3.1-1.7,4-3c1.7-2.4,2.4-5.2,2.8-8.1c0.5-3.3-0.9-7.1-4.3-8.2c-3.1-1-5.7,0.1-8.6,0.7
							C197.8,181.3,195.1,181.4,193.6,182.9z"/>
					</defs>
					<clipPath id="SVGID_12_">
						<use xlink:href="#SVGID_11_"  style="overflow:visible;"/>
					</clipPath>
					<path class="st24" d="M219.9,191.9c-0.3-1.3,0.8-2.2-1.1-2.4c-1.7-0.2-2.7,0.3-5.1,1.3c-1,0.5-4.5,1.6-5.7,1.8
						c-2.3,0.3-4.1,0.3-6.6,0c-2.9-0.3-4.4-0.7-6.6-2.3c-2.5-1.9-1.4-5.2-0.7-7c1-2.5-4.3-4.4-6.5-2.8c-1.7,1.3-2.4,3.1-2.7,4.9
						c-0.2,1.6-0.5,3.4-0.3,5.1c0.2,1.5,0.8,2.8,1.8,4.1l0,0c-0.1,2.9,2.8,6.2,6.7,7.5c1.9,0.7,3.9,1.2,5.9,1.4
						c1.2,0.2,2.7,0.7,4,0.7c0.8,0,3.7-0.6,4.6-0.6c1.5,0.1,2.3-0.5,2.4-1.3c0.6-0.2,1.2-0.5,1.7-0.8c2.7-1.4,5.5-2.6,6.4-5.1
						c0.1-0.3,0.1-0.6,0-0.9C219.6,194.6,220.3,193.4,219.9,191.9z"/>
				</g>
			</g>
		</g>
		<g>
			<g>
				<g>
					<defs>
						<path id="SVGID_13_" d="M193.6,182.9c-0.9,0.9-1.3,2.3-1.5,3.6c-0.4,3.2,0.3,6.5,2.1,9.1s4.8,4.5,8,4.6c1.3,0,2.5-0.2,3.6-0.8
							c1.3-0.8,3.1-1.7,4-3c1.7-2.4,2.4-5.2,2.8-8.1c0.5-3.3-0.9-7.1-4.3-8.2c-3.1-1-5.7,0.1-8.6,0.7
							C197.8,181.3,195.1,181.4,193.6,182.9z"/>
					</defs>
					<clipPath id="SVGID_14_">
						<use xlink:href="#SVGID_13_"  style="overflow:visible;"/>
					</clipPath>
					<path class="st25" d="M218.2,193.7c-0.5-1.3,0.5-2.3-1.4-2.3c-1.7,0-2.6,0.6-4.9,1.9c-1,0.6-3.9,2.6-5.1,2.9
						c-2.3,0.6-4.1,1-6.6,1c-2.9,0-5.1-1-7.4-2.4c-2.7-1.7-1.7-5-1.2-6.8c0.7-2.6-4.8-3.9-6.7-2.1c-1.5,1.5-2.1,3.3-2.1,5.2
						c-0.1,1.6-0.1,3.4,0.3,5.1c0.3,1.4,1.1,2.7,2.3,3.9l0,0c0.3,2.9,3.5,5.8,7.4,6.8c2,0.5,4,0.8,6,0.7c1.3,0.1,2.8,0.4,4.1,0.2
						c0.7-0.1,3.7-1,4.5-1.1c1.5-0.1,2.2-0.8,2.2-1.6c0.6-0.3,1.1-0.6,1.6-1c2.5-1.6,5.2-3.2,5.8-5.7c0.1-0.3,0-0.6-0.1-0.9
						C218.2,196.5,218.8,195.2,218.2,193.7z"/>
				</g>
			</g>
		</g>
	</g>
	<path class="st26" d="M204,184.9c-0.6-0.2-0.3-0.1,0,0.2c0.2,0.2,0.3,0.3,0.5,0.5c0.2,0.3,0.5,0.7,0.6,1.1c0.3,0.7,0.4,1.5,0.3,2.2
		c-0.2,2-2,3.4-1.7,5.5c0.1,0.5,0.6,1,1.1,1.1c3.9,0.6,5.4-5,5-7.9c-0.2-1.7-1-3.3-2.5-4.3c-1.2-0.8-3-1.1-3.8,0.3
		C203.1,184.1,203.5,184.7,204,184.9L204,184.9z"/>
	<path class="st27" d="M209.6,182c-1.1-1.2-3-1.5-4.5-1.1c-0.7,0.2-1.3,0.7-1.7,1.2c-0.7,0.4-1.3,1.1-1.5,2c-1,3.2,2.5,5.6,5.4,5
		C210.4,188.4,212,184.4,209.6,182z"/>
	<path class="st28" d="M206.3,183.5c0.4,0.6,1,1,1.4,1.6c0.5,0.6,0.7,1.2,0.9,2c0.1,0.6,0.2,2.2,1.2,1.4s0.7-2.5,0.2-3.5
		c-0.6-1.2-1.8-2.5-3.2-2.5C206.3,182.7,206,183.2,206.3,183.5L206.3,183.5z"/>
	<path class="st29" d="M210.4,153.3c1.4-1.1,2.9-2.2,4.6-2.8c0.1,0,0.2-0.1,0.3-0.1s0.2,0.1,0.3,0.2c0.4,0.5,0.7,1,0.9,1.6
		c-0.1-0.2-3.6,1.6-3.9,1.8c-0.5,0.3-1.2,1-1.8,0.7C210.2,154.6,209.9,153.7,210.4,153.3z"/>
	<path class="st30" d="M210.9,154.1c1.4-1.1,2.9-2.2,4.6-2.8c0.1,0,0.2-0.1,0.3-0.1s0.2,0.1,0.3,0.2c0.4,0.5,0.7,1,0.9,1.6
		c-0.1-0.2-3.6,1.6-3.9,1.8c-0.5,0.3-1.2,1-1.8,0.7C210.7,155.4,210.3,154.5,210.9,154.1z"/>
	<path class="st31" d="M212.9,153.1c0.9-0.5,1.7-0.9,2.6-1.1c0.1,0,0.1,0,0.2,0l0.1,0.1c0,0.3,0,0.6,0,1c0-0.1-1.9,0.5-2.1,0.6
		c-0.3,0.1-0.7,0.4-0.9,0.2C212.5,153.8,212.6,153.3,212.9,153.1z"/>
</g>
<path class="st32" d="M147.9,195.8V261c0,2.4,2,4.3,4.5,4.3h55.2c2.5,0,4.5-1.9,4.5-4.3v-65.2H147.9z"/>
<ellipse class="st33" cx="179.9" cy="195.7" rx="32.1" ry="2.9"/>
<path class="st33" d="M207.6,255h-55.2c-2.5,0-4.5-1.9-4.5-4.3V261c0,2.4,2,4.3,4.5,4.3h55.2c2.5,0,4.5-1.9,4.5-4.3v-10.2
	C212.1,253.1,210.1,255,207.6,255z"/>
<g>
	<path class="st34" d="M153.1,217.4v31.4c0,2.1,1.7,3.7,3.7,3.7h45.9c2.1,0,3.7-1.7,3.7-3.7v-31.4H153.1z"/>
	<ellipse class="st35" cx="179.7" cy="217.4" rx="26.6" ry="2.9"/>
</g>
<g>
	<path class="st36" d="M175.4,251.8c-0.4,0.8-1.4,1.1-2.3,0.7l-14.4-7.8c-0.8-0.4-1.1-1.4-0.7-2.3l7.8-14.4c0.4-0.8,1.4-1.1,2.3-0.7
		l14.4,7.8c0.8,0.4,1.1,1.4,0.7,2.3L175.4,251.8z"/>
	<path class="st36" d="M201.2,238.9c0.2,0.9-0.3,1.8-1.2,2l-15.9,4.1c-0.9,0.2-1.8-0.3-2-1.2L178,228c-0.2-0.9,0.3-1.8,1.2-2
		l15.9-4.1c0.9-0.2,1.8,0.3,2,1.2L201.2,238.9z"/>
</g>
<path class="st37" d="M206.6,217.4c-0.3,1.6-12.1,2.9-26.6,2.9s-26.3-1.3-26.6-2.9l0,0v31.4c0,2.1,1.7,3.7,3.7,3.7h45.9
	c2.1,0,3.7-1.7,3.7-3.7L206.6,217.4L206.6,217.4z"/>
<g>
	<g>
		<path class="st35" d="M184.4,214.5c0.1,0.3,0.2,0.6,0.1,0.9c0.2,0.4,0.2,0.9-0.2,1.4c-2,2.2-6.4,2.2-7.9-0.4h-0.1
			c-0.7-0.5-1.3-1.1-1.7-1.8c-12.2,0.3-21.4,1.5-21.4,2.9c0,1.6,11.9,2.9,26.6,2.9s26.6-1.3,26.6-2.9
			C206.3,215.9,196.8,214.7,184.4,214.5z"/>
	</g>
</g>
<polygon class="st36" points="157.4,197.8 156.5,252.7 161.4,252.7 164.2,198.4 "/>
</svg>
