<?xml version="1.0" encoding="utf-8"?>
<!-- Generator: Adobe Illustrator 23.0.0, SVG Export Plug-In . SVG Version: 6.00 Build 0)  -->
<svg version="1.1" id="Capa_1" xmlns="http://www.w3.org/2000/svg" xmlns:xlink="http://www.w3.org/1999/xlink" x="0px" y="0px"
	 viewBox="0 0 360 363" style="enable-background:new 0 0 360 363;" xml:space="preserve">
<style type="text/css">
	.st0{fill:#FFD084;}
	.st1{fill:none;stroke:#FFE1C0;stroke-width:0.7573;stroke-miterlimit:10;}
	.st2{fill:#FFD6A4;}
	.st3{fill:none;stroke:#FFE1C0;stroke-width:0.75;stroke-miterlimit:10;}
	.st4{fill:#FFE1C0;}
	.st5{fill:none;stroke:#FFD6A4;stroke-width:0.75;stroke-miterlimit:10;}
	.st6{fill:none;stroke:#FFEFE1;stroke-width:0.7478;stroke-miterlimit:10;}
	.st7{fill:#8F7CE5;}
	.st8{fill:#A6A6DD;}
	.st9{fill:#FFE5CC;}
	.st10{fill:none;stroke:#FFD6A4;stroke-miterlimit:10;}
	.st11{clip-path:url(#SVGID_2_);fill:#FFD8AE;}
	.st12{clip-path:url(#SVGID_4_);fill:#FFD8AE;}
	.st13{stroke:#FFFFFF;stroke-width:17;stroke-linejoin:round;stroke-miterlimit:10;}
	.st14{fill:#4F1411;}
	.st15{fill:#871D39;}
	.st16{fill:#96163D;}
	.st17{fill:#9E213F;}
	.st18{fill:#A41826;}
	.st19{fill:#8F152E;}
	.st20{opacity:0.47;fill:#991631;}
	.st21{fill:#821329;}
	.st22{opacity:0.53;fill:#8C142C;}
	.st23{fill:#B9274B;}
	.st24{opacity:0.7;fill:#CC2B53;}
	.st25{fill:#CC2B53;}
	.st26{fill:#941630;}
	.st27{fill:#D93C51;}
	.st28{fill:#E33F55;}
	.st29{fill:#ED4259;}
	.st30{fill:#9E3347;}
	.st31{fill:#A8364C;}
	.st32{fill:#A43A4E;}
	.st33{fill:#AD3D52;}
	.st34{fill:#B21B3C;}
	.st35{fill:#BF1D40;}
	.st36{fill:#AB2444;}
	.st37{fill:#AF2848;}
	.st38{fill:#BA2B4D;}
	.st39{fill:#C63C50;}
	.st40{fill:#CC3E52;}
	.st41{fill:#B5304F;}
	.st42{fill:#C43456;}
	.st43{fill:#BC4C64;}
	.st44{fill:#C9516B;}
	.st45{fill:#AF0838;}
	.st46{fill:#BF093D;}
	.st47{fill:#B32A47;}
	.st48{fill:#BA3252;}
	.st49{fill:#C92C4A;}
	.st50{fill:#D42E4E;}
	.st51{fill:#BB1D33;}
	.st52{fill:#C91F37;}
	.st53{fill:#D94360;}
	.st54{fill:#E34261;}
	.st55{fill:#BD2D4E;}
	.st56{fill:#C42F51;}
	.st57{fill:#D13256;}
	.st58{fill:#C83754;}
	.st59{fill:#CF3957;}
	.st60{fill:#DB3C5C;}
	.st61{fill:#D13C5C;}
	.st62{fill:#D93E5F;}
	.st63{fill:#E04062;}
	.st64{fill:#C63B50;}
	.st65{fill:#CC3D52;}
	.st66{fill:#D43F55;}
	.st67{fill:#CB455F;}
	.st68{fill:#D44863;}
	.st69{fill:#E04C69;}
	.st70{fill:#D9325D;}
	.st71{fill:#E33461;}
	.st72{fill:#ED3665;}
	.st73{fill:#C42250;}
	.st74{fill:#D12455;}
	.st75{fill:#DA5570;}
	.st76{fill:#E35875;}
	.st77{fill:#F55F7E;}
	.st78{fill:#E64970;}
	.st79{fill:#F04C75;}
	.st80{fill:#FA4F7A;}
	.st81{fill:#DA315A;}
	.st82{fill:#C84F70;}
	.st83{fill:#D45477;}
	.st84{fill:#E35A7F;}
	.st85{fill:#EB3561;}
	.st86{fill:#CD3453;}
	.st87{fill:#D93758;}
	.st88{fill:#E83B5E;}
	.st89{fill:#FA3867;}
	.st90{fill:#C44864;}
	.st91{fill:#CC4B68;}
	.st92{fill:#D9506F;}
	.st93{fill:#E33E64;}
	.st94{fill:#F0416A;}
	.st95{fill:#FF4A74;}
	.st96{fill:#F74668;}
	.st97{fill:#FF486B;}
	.st98{fill:#FF5777;}
	.st99{fill:#3D9EC1;}
	.st100{fill:#78C9E9;}
	.st101{fill:#E29F9F;}
	.st102{fill:#D88282;}
	.st103{fill:#CCCCFF;}
	.st104{fill:#E1E1FF;}
	.st105{fill:#B5B5F4;}
	.st106{fill:#9C9CE2;}
	.st107{fill:#F2DADA;}
</style>
<g id="fondo">
	<g>
		<g id="Rectángulo_556">
			<rect y="-0.1" class="st0" width="360" height="363.3"/>
			<rect x="0.5" y="0.4" class="st0" width="359" height="362.2"/>
		</g>
		<path class="st1" d="M228.1,258.3c0,0,43.9-35.1,59.7-104.9c15.8-69.8-12.4-91.7-12.4-91.7S254.9,35.3,242,72.3
			c0,0-11.1,37.2-24.4,18.6c0,0-4-5.6-6.5-13c-2.5-7.3-11-10.5-11-10.5s-21.4-7.3-59.4,34.8c0,0-30.9,35.9-25.5,83.1
			s10.5,56.8,10.5,56.8L228.1,258.3z"/>
		<path class="st2" d="M225.9,271.1c0,0,43.1-35.1,58.6-104.9s-12.2-91.7-12.2-91.7s-20.1-26.4-32.8,10.6c0,0-10.9,37.2-23.9,18.6
			c0,0-3.9-5.6-6.4-13c-2.5-7.3-10.8-10.5-10.8-10.5s-21-7.3-58.2,34.8c0,0-30.3,35.9-25,83.1s10.3,56.8,10.3,56.8L225.9,271.1z"/>
		<path class="st3" d="M114.9,245.6c0,0-61.2-54.4-49.7-80.4s30.9-7.5,30.9-7.5s25.7,22.6,47.9,63.9L114.9,245.6z"/>
		<path class="st2" d="M115.8,249.7c0,0-54.1-58.6-42.6-84.6s30.9-7.5,30.9-7.5s25.7,22.6,47.9,63.9L115.8,249.7z"/>
		<path class="st4" d="M206.4,265c0,0,41.3-44.5,60.9-102.7c0,0,11.1-34-2.3-60c0,0-8.2-25.8-29.3,14.8S206.3,129,206.3,129
			s-8.1-59.5-44-15.2s-22.9,140.1-22.9,140.1L206.4,265z"/>
		<path class="st5" d="M191.1,241.3c0,0,54.3-73,68-155.4"/>
		<path class="st6" d="M195.3,266c0,0,33.9-33.6,51.3-78.9c0,0,9.9-26.5,0.3-47.4c0,0-5.5-20.6-23.5,10.6s-23.4,8.4-23.4,8.4
			s-4.3-47.2-33.9-13.5s-22.8,109.6-22.8,109.6L195.3,266z"/>
		<g>
			
				<ellipse transform="matrix(1 -1.876243e-03 1.876243e-03 1 -0.526 0.338)" class="st7" cx="179.9" cy="280.5" rx="102.6" ry="21.4"/>
			<polygon class="st7" points="282.5,280.3 282.7,266.4 77.5,266.8 77.3,280.7 			"/>
			
				<ellipse transform="matrix(1 -1.876243e-03 1.876243e-03 1 -0.4999 0.3384)" class="st8" cx="180.1" cy="266.6" rx="102.6" ry="21.4"/>
		</g>
		<path class="st3" d="M239.7,220.4c0,0,41.8-19.1,39.9,9s-53,30.9-53,30.9s-15.5-0.3-14.5-10.3C213.2,240,218.5,230.9,239.7,220.4z
			"/>
		<path class="st9" d="M229.9,222.9c0,0,37.6-26.4,40.9,1.5c3.2,27.9-46.4,40.1-46.4,40.1S209,267,208.2,257
			C207.3,247,211,237.1,229.9,222.9z"/>
		<path class="st10" d="M208.2,257c0,0,44.4-19.6,65.3-41.4"/>
		<g>
			<g>
				<g>
					<defs>
						<path id="SVGID_1_" d="M229.9,222.9c0,0,37.6-26.4,40.9,1.5c3.2,27.9-46.4,40.1-46.4,40.1S209,267,208.2,257
							C207.3,247,211,237.1,229.9,222.9z"/>
					</defs>
					<clipPath id="SVGID_2_">
						<use xlink:href="#SVGID_1_"  style="overflow:visible;"/>
					</clipPath>
					<path class="st11" d="M240.9,211.5c0,0-27.3,46.6,4.8,50c21.5,2.3-22.9,11.5-22.9,11.5l-20.3-4.6l-1.3-29l20-22.9L240.9,211.5z
						"/>
				</g>
			</g>
		</g>
		<g>
			<path class="st9" d="M128.2,225.7c0,0-34.9-21.9-37.3,9.5c0,0,6.5,28.1,39.9,22.4C164.1,251.8,128.2,225.7,128.2,225.7z"/>
		</g>
		<path class="st10" d="M143,248.3c0,0-40.9-21-62.4-13.1"/>
		<g>
			<g>
				<g>
					<defs>
						<path id="SVGID_3_" d="M128.2,225.7c0,0-34.9-21.9-37.3,9.5c0,0,6.5,28.1,39.9,22.4C164.1,251.8,128.2,225.7,128.2,225.7z"/>
					</defs>
					<clipPath id="SVGID_4_">
						<use xlink:href="#SVGID_3_"  style="overflow:visible;"/>
					</clipPath>
					<path class="st12" d="M124.1,218.3h-4h-3.6c0,0,17.6,26,9.4,34.6c-8.2,8.6-9.4,6.7-9.4,6.7l19.6,1.8l15.9-7.2l1.2-14.3
						l-16-11.9L124.1,218.3z"/>
				</g>
			</g>
		</g>
		<path class="st3" d="M84.5,161.6c0,0,21.6,45.3,54.6,70.4"/>
		<path class="st3" d="M103.9,163.3c0,0-5.4,4-7,10.8"/>
		<path class="st3" d="M108.2,171.4c0,0-5.3,5.3-6,14.2"/>
		<path class="st3" d="M96.9,190.4c0,0-6.3-0.5-14.9,3.7"/>
		<path class="st3" d="M102.2,196.8c0,0-10.9,0.4-15.6,3.7"/>
		<path class="st2" d="M109.5,107.7c0.1,4-3.4,7.8-6.2,10.4c-1-2.4-1.9-5-2-7.6c-0.1-2,0.7-4,2.2-5.3c0.5-0.4,1-0.8,1.7-0.9
			c0.4-0.1,0.7-0.2,1.1-0.2C108,104.3,109.4,105.9,109.5,107.7z"/>
		<path class="st2" d="M81.9,123.8c-3.1,0.3-9-1.1-11.6-3.2c-2.3-1.7-2.3-2.2-3.4-4.9c-1-2.7,0.6-5.9,3.6-6.2
			c1.5-0.2,3.1,0.2,4.3,1.1C79.1,113.4,82.6,118.4,81.9,123.8z"/>
		<path class="st4" d="M105.6,142.4c-1.9,1.1-5-0.2-4.7-2.6c-0.2-2.8,4.1-3.8,5.6-1.6C107.5,139.5,106.9,141.6,105.6,142.4z"/>
		<path class="st4" d="M319.5,85.1c-2.6,1.4-6.6-0.3-6.3-3.5c-0.2-3.8,5.5-5.1,7.4-2.1C322,81.2,321.3,83.9,319.5,85.1z"/>
		<path class="st2" d="M328.9,297.3c-3.1,1.7-7.9-0.3-7.6-4.2c-0.3-4.5,6.6-6.1,8.9-2.5C331.9,292.6,331,295.9,328.9,297.3z"/>
		<path class="st4" d="M286.4,309c-2,1.1-5.2-0.2-5-2.8c-0.2-3,4.3-4,5.8-1.7C288.4,305.9,287.9,308.1,286.4,309z"/>
		<path class="st2" d="M61.9,244.7c-2.6,1.4-6.6-0.3-6.3-3.5c-0.2-3.8,5.5-5.1,7.4-2.1C64.4,240.8,63.7,243.5,61.9,244.7z"/>
		
			<ellipse transform="matrix(0.3506 -0.9365 0.9365 0.3506 -94.4825 226.7335)" class="st9" cx="116.3" cy="181.5" rx="2.7" ry="1.7"/>
		
			<ellipse transform="matrix(0.3506 -0.9365 0.9365 0.3506 -102.8389 235.0379)" class="st9" cx="118.1" cy="191.7" rx="2.7" ry="1.7"/>
		
			<ellipse transform="matrix(0.3506 -0.9365 0.9365 0.3506 -131.6321 233.0223)" class="st0" cx="102.2" cy="211.4" rx="3" ry="1.8"/>
	</g>
</g>
<path class="st13" d="M246.1,123.2c-0.2-0.1-0.4-0.1-0.6,0c-4.4,2.3-9,4.8-13.7,7.3c0-0.1,0-0.2,0-0.2c0-0.4,0-0.7-0.2-1
	c-0.2-0.4-0.7-0.6-1.1-0.7c-0.4-0.1-0.9,0-1.4,0.1c0-0.1,0.1-0.3,0.1-0.4c0-0.3,0-0.6-0.1-0.9c-0.5-1.7-3.2-1.7-4-0.3
	c-0.2-0.4-0.5-0.8-0.9-1.1c-0.7-0.5-1.9-0.6-2.5,0.1c-0.2,0.2-0.3,0.5-0.4,0.9c-1-0.5-2.3-0.5-3.2,0.1c-0.6,0.4-1.1,0.9-1.1,1.6
	c0,0.4,0.1,0.7,0.3,1.1c-0.4,0.3-0.8,0.6-1,1.1c-0.4-0.1-0.6,0-0.7,0.2c0,0-0.1,0-0.1-0.1c-0.5-0.2-1.1-0.1-1.6,0.2
	c-0.3-0.7-1.1-1.1-1.8-1.3c-0.5-0.1-1-0.1-1.4,0.1c-0.4,0.2-0.6,0.5-0.9,0.8c-0.2-0.1-0.5-0.3-0.8-0.4c-0.3-0.1-0.7-0.2-1-0.1
	c-0.4,0.1-0.8,0.5-1,0.9c-0.2,0.4-0.3,0.9-0.3,1.4c-0.1-0.1-0.3-0.1-0.4-0.2c-0.3-0.1-0.6-0.2-0.8-0.2c-1.8,0.1-2.6,2.6-1.4,3.7
	c-0.5,0-0.9,0.2-1.3,0.5c-0.7,0.6-1.1,1.7-0.6,2.5c0.2,0.3,0.4,0.4,0.8,0.6c-0.7,0.7-1,1.7-0.9,2.7h-77.6h-2.8l49.6,51.5
	c-0.2-0.2-0.5-0.4-0.7-0.6c-0.1-0.1-0.3-0.3-0.4-0.4c0,0,0,0.1,0,0.1c0,0-0.1-0.1-0.1-0.1c0,0.1,0,0.3,0,0.4c0,3,1.8,5.5,4.5,6.6
	v42.6c-2.6,1-4.5,3.6-4.5,6.5c-7.1,1.3-12.2,4.3-12.2,6.3c0,0.3,0.2,0.6,0.5,0.9c1.7,1.9,9.5,2.5,18.8,2.5c10.6,0,19.2-0.8,19.2-3.3
	c-0.1-0.5-0.4-1.1-0.9-1.6c0,0-0.1-0.1-0.1-0.1c0,0,0,0-0.1-0.1c0,0,0,0,0,0c-1.8-1.7-5.8-3.5-10.9-4.5c0-3.1-2-5.7-4.7-6.7v-42.5
	c2.7-1,4.7-3.6,4.7-6.7c0-0.1,0-0.6,0-0.8l48.3-50.1h-1.4c0.6-0.5,1.1-1.3,1.1-1.9c0-0.4,0-0.7-0.1-1c0.1,0,0.1,0,0.2,0
	c0.1,0,0.2-0.1,0.3-0.1c0.4-0.3,0.7-0.9,0.7-1.4c0-0.5-0.2-0.7-0.4-0.8c0,0,0-0.1,0-0.1c0-0.6-0.3-1.1-0.6-1.5
	c0.5-0.5,0.8-1.3,0.7-2.1c0-0.5-0.1-1-0.5-1.4c0,0-0.1-0.1-0.1-0.1c4.5-2.5,9-4.9,13.5-7.3C246.5,124.1,246.5,123.5,246.1,123.2z
	 M206.5,136.5C206.5,136.5,206.4,136.5,206.5,136.5C206.4,136.5,206.4,136.5,206.5,136.5C206.5,136.5,206.5,136.5,206.5,136.5z
	 M225.2,129.6C225.2,129.6,225.2,129.6,225.2,129.6C225.2,129.6,225.2,129.6,225.2,129.6C225.2,129.6,225.2,129.6,225.2,129.6z
	 M154.2,163.9L154.2,163.9l22.9,23.7l0,0.1l-35.9-37.3L154.2,163.9z"/>
<path class="st14" d="M246.1,123.2c0.4,0.2,0.4,0.9,0,1.1c-8.9,4.7-17.8,9.7-26.4,14.5c-7.6,4.2-15.4,8.5-23.2,12.7
	c-0.1,0.1-0.3,0.1-0.4,0c-0.1-0.1-0.2-0.2-0.2-0.4c0-0.2,0.1-0.3,0.2-0.4c16.8-10.1,34.3-19.5,49.4-27.5
	C245.7,123.1,245.9,123.1,246.1,123.2z"/>
<g>
	<path class="st15" d="M214.7,141.2c-0.1,0.6-0.5,1.3-1.2,1.4c-1.6,0.3-2.8-2.9-1.8-4c0.6-0.6,1.6-0.5,2.2,0
		C214.8,139.1,214.9,140.2,214.7,141.2z"/>
	<path class="st16" d="M212.2,139.6c-0.1,0.6-0.5,1.3-1.2,1.4c-1.6,0.3-2.8-2.9-1.8-4c0.6-0.6,1.6-0.5,2.2,0
		C212.2,137.6,212.4,138.7,212.2,139.6z"/>
	<path class="st17" d="M210.2,142.7c-0.5,0.4-1.3,0.6-1.8,0.2c-1.4-0.9-0.1-4,1.4-4.2c0.8-0.1,1.5,0.7,1.6,1.5
		C211.6,141.2,211,142.2,210.2,142.7z"/>
	<path class="st18" d="M208.5,139.8c0.5,0.2,1,0.7,1,1.3c-0.1,1.5-3.1,1.9-3.9,0.7c-0.4-0.6-0.1-1.4,0.4-1.9
		C206.7,139.4,207.7,139.5,208.5,139.8z"/>
	<path class="st19" d="M208.9,137.9c0.3,0.5,0.6,1.1,0.3,1.6c-0.8,1.3-3.6,0.2-3.8-1.1c-0.1-0.7,0.6-1.3,1.3-1.5
		C207.6,136.7,208.4,137.2,208.9,137.9z"/>
	<path class="st20" d="M208.2,138.3c0.2,0.3,0.4,0.8,0.2,1.1c-0.5,0.9-2.5,0.2-2.7-0.8c-0.1-0.5,0.4-0.9,0.9-1
		C207.2,137.4,207.8,137.8,208.2,138.3z"/>
	<path class="st21" d="M210.2,136.2c0.2,0.6,0.3,1.4-0.2,1.8c-1.2,1.1-3.9-0.9-3.7-2.4c0.1-0.8,1-1.3,1.8-1.2
		C209.1,134.4,209.8,135.3,210.2,136.2z"/>
	<path class="st22" d="M209.3,136.2c0.2,0.4,0.2,1-0.2,1.3c-0.9,0.8-2.9-0.7-2.7-1.8c0.1-0.6,0.8-0.9,1.3-0.9
		C208.5,134.9,209.1,135.5,209.3,136.2z"/>
	<path class="st23" d="M206,136.2c0.7,0.3,1.3,0.9,1.3,1.7c-0.1,1.9-4,2.4-5.1,0.9c-0.6-0.8-0.1-1.9,0.6-2.5
		C203.7,135.7,205,135.8,206,136.2z"/>
	<path class="st24" d="M204.6,136.7c0.4,0.2,0.8,0.5,0.7,1c-0.1,1.1-2.3,1.4-2.9,0.5c-0.3-0.5-0.1-1.1,0.3-1.4
		C203.3,136.4,204,136.5,204.6,136.7z"/>
	<path class="st25" d="M204.4,136.9c0.2,0.1,0.4,0.3,0.3,0.5c0,0.5-1.1,0.7-1.4,0.3c-0.2-0.2,0-0.5,0.2-0.7
		C203.8,136.8,204.1,136.8,204.4,136.9z"/>
	<path class="st19" d="M212.4,136c0,0.6-0.3,1.4-0.9,1.6c-1.6,0.5-3.2-2.4-2.4-3.7c0.5-0.7,1.5-0.7,2.1-0.3
		C212.1,134,212.5,135,212.4,136z"/>
	<path class="st26" d="M212.3,135.2c0,0.6-0.3,1.2-0.8,1.4c-1.4,0.5-2.8-2.1-2.1-3.2c0.4-0.6,1.3-0.6,1.9-0.3
		C212,133.5,212.3,134.4,212.3,135.2z"/>
	<path class="st17" d="M213.9,139.1c-0.5,0.4-1.3,0.6-1.8,0.2c-1.4-0.9-0.1-4,1.4-4.2c0.8-0.1,1.5,0.7,1.6,1.5
		C215.3,137.6,214.7,138.5,213.9,139.1z"/>
	<path class="st27" d="M203.4,144.1c-0.6-0.3-1-0.9-1.2-1.5c-0.4-1.3,0.1-2.7,1.2-3.5s2.7-0.6,3.5,0.4c0.2,0.3,0.4,0.7,0.4,1.1
		c0,0.3-0.1,0.6-0.2,0.8C206.7,142.6,204.7,144.7,203.4,144.1z"/>
	<path class="st28" d="M203.5,143.3c-0.5-0.2-0.8-0.7-0.9-1.1c-0.3-0.9,0.1-2,0.9-2.6c0.8-0.5,2-0.4,2.6,0.3
		c0.2,0.2,0.3,0.5,0.3,0.8c0,0.2,0,0.4-0.1,0.6C206,142.1,204.5,143.7,203.5,143.3z"/>
	<path class="st29" d="M203.4,142c-0.2-0.1-0.3-0.3-0.4-0.5c-0.1-0.4,0-0.9,0.4-1.2c0.4-0.2,0.9-0.2,1.2,0.1
		c0.1,0.1,0.1,0.2,0.1,0.4c0,0.1,0,0.2-0.1,0.3C204.5,141.5,203.8,142.2,203.4,142z"/>
	<path class="st30" d="M213.6,149.8c0.3,0.4,0.7,0.6,1.1,0.8c0.8,0.3,1.6,0.2,2.4-0.1c0.3-0.1,0.6-0.3,0.6-0.6
		c0-0.3-0.2-0.6-0.4-0.8c-0.8-0.7-1.9-0.9-2.9-0.9C213.4,148.1,212.9,148.9,213.6,149.8z"/>
	<path class="st31" d="M214.1,149.8c0.2,0.3,0.5,0.5,0.8,0.6c0.6,0.2,1.2,0.2,1.7-0.1c0.2-0.1,0.4-0.2,0.4-0.5
		c0-0.2-0.1-0.4-0.3-0.6c-0.6-0.5-1.4-0.6-2.1-0.7C213.9,148.6,213.6,149.2,214.1,149.8z"/>
	<path class="st32" d="M216.9,149.3c0.2,0.2,0.4,0.3,0.7,0.4c0.4,0.2,0.9,0.3,1.3,0.2c0.3-0.1,0.5-0.2,0.8-0.4
		c0.2-0.1,0.4-0.3,0.5-0.5c0.8-1.4-1.3-2.4-2.4-2.2C216.6,146.8,216,148.4,216.9,149.3z"/>
	<path class="st33" d="M217,149.1c0.1,0.1,0.3,0.2,0.5,0.3c0.3,0.1,0.7,0.2,1,0.1c0.2-0.1,0.4-0.2,0.6-0.3c0.1-0.1,0.3-0.2,0.3-0.4
		c0.6-1.1-1-1.8-1.8-1.7C216.7,147.2,216.3,148.4,217,149.1z"/>
	<path class="st34" d="M219.2,147.7c0.4,0.3,0.9,0.6,1.4,0.5c0.5-0.1,0.9-0.5,1.1-0.9c0.9-1.5-0.9-2.4-2.2-2.3
		C217.9,145.2,218.1,146.9,219.2,147.7z"/>
	<path class="st35" d="M219.2,147.3c0.4,0.3,0.8,0.5,1.3,0.5c0.4-0.1,0.8-0.4,1-0.8c0.8-1.3-0.8-2.1-2-2
		C218,145,218.2,146.6,219.2,147.3z"/>
	<path class="st17" d="M219.8,143.7c-0.2,0.5-0.1,1.1,0.3,1.5c0.3,0.4,0.9,0.8,1.5,0.9c0.2,0,0.4,0.1,0.6,0c0.1,0,0.2-0.1,0.3-0.2
		c0.5-0.3,0.9-0.6,1.1-1.1c0.1-0.4-0.1-0.8-0.4-1.2c-0.3-0.3-0.7-0.6-1.1-0.8C221.2,142.5,220,143,219.8,143.7z"/>
	<path class="st36" d="M219.6,143.8c-0.1,0.4-0.1,0.8,0.2,1.2c0.3,0.4,0.7,0.6,1.1,0.7c0.2,0,0.3,0,0.5,0c0.1,0,0.2-0.1,0.3-0.1
		c0.4-0.2,0.7-0.5,0.8-0.8c0.1-0.3-0.1-0.7-0.3-0.9c-0.2-0.3-0.6-0.4-0.9-0.6C220.7,142.9,219.8,143.3,219.6,143.8z"/>
	<path class="st37" d="M221.8,143.1c0.6,0.1,1.2-0.2,1.5-0.7c0.2-0.3,0.2-0.7,0.2-1c0-1-1.3-1.4-2.1-0.9
		C220.4,141.2,220.6,142.8,221.8,143.1z"/>
	<path class="st38" d="M221.7,142.5c0.4,0.1,0.8-0.1,0.9-0.4c0.1-0.2,0.1-0.4,0.1-0.7c0-0.6-0.9-0.9-1.4-0.6
		C220.8,141.2,220.9,142.3,221.7,142.5z"/>
	<path class="st39" d="M212.9,150.1c0.4,0,0.8-0.1,1.1-0.3c0.5-0.5,0.4-1.3,0-1.8c-0.7-0.8-2.5-1.2-3.1-0.1
		C210.1,149.1,211.9,150,212.9,150.1z"/>
	<path class="st40" d="M212.6,149.4c0.3,0,0.6,0,0.9-0.3c0.4-0.4,0.3-1.1,0-1.5c-0.6-0.7-2-1-2.5-0.1
		C210.3,148.6,211.8,149.3,212.6,149.4z"/>
	<path class="st41" d="M213.1,148.2c0.1,0.5,0.5,0.9,1,1.1c0.5,0.2,1,0.3,1.5,0.2c0.4-0.1,0.8-0.2,1-0.4c0.3-0.3,0.5-0.7,0.4-1
		c-0.1-0.4-0.4-0.7-0.8-0.9c-0.6-0.4-1.4-1.1-2.2-0.8C213.4,146.6,212.9,147.4,213.1,148.2z"/>
	<path class="st42" d="M213.3,147.8c0.1,0.3,0.3,0.6,0.6,0.7c0.3,0.1,0.7,0.2,1,0.1c0.2,0,0.5-0.1,0.7-0.3c0.2-0.2,0.3-0.4,0.2-0.7
		c-0.1-0.3-0.3-0.4-0.5-0.6c-0.4-0.2-0.9-0.7-1.4-0.5C213.4,146.8,213.1,147.3,213.3,147.8z"/>
	<path class="st43" d="M215.4,145.7c-0.2,0.2-0.5,0.5-0.6,0.9c-0.1,0.3,0.1,0.7,0.3,0.9c0.2,0.2,0.5,0.4,0.8,0.5
		c0.5,0.2,1.1,0.4,1.6,0.2c0.4-0.2,0.7-0.5,1-0.9c0.2-0.3,0.4-0.7,0.3-1c-0.1-0.3-0.3-0.4-0.6-0.6c-0.4-0.3-1.2-0.8-1.7-0.8
		C216.1,144.9,215.8,145.4,215.4,145.7z"/>
	<path class="st44" d="M215.2,145.6c-0.2,0.2-0.4,0.4-0.4,0.7c0,0.3,0.1,0.5,0.2,0.7c0.2,0.2,0.4,0.3,0.6,0.4
		c0.4,0.2,0.9,0.3,1.3,0.1c0.3-0.1,0.6-0.4,0.8-0.7c0.2-0.2,0.3-0.5,0.2-0.8c-0.1-0.2-0.3-0.3-0.5-0.4c-0.3-0.2-1-0.6-1.4-0.6
		C215.7,145,215.5,145.3,215.2,145.6z"/>
	<path class="st45" d="M217.4,144.4c-0.2,0.5-0.1,1,0.2,1.4c0.2,0.2,0.4,0.3,0.7,0.4c0.2,0.1,0.5,0.2,0.8,0.2c0.8,0.1,1.6-0.6,2-1.3
		c0.1-0.1,0.1-0.2,0.1-0.3c0-0.1,0-0.3-0.1-0.4C220.2,142.8,218.1,142.5,217.4,144.4z"/>
	<path class="st46" d="M217.2,144.3c-0.1,0.4-0.1,0.8,0.1,1.1c0.1,0.1,0.3,0.2,0.5,0.3c0.2,0.1,0.4,0.2,0.6,0.2
		c0.6,0.1,1.2-0.4,1.5-1c0-0.1,0.1-0.1,0.1-0.2c0-0.1,0-0.2-0.1-0.3C219.4,143.1,217.8,142.9,217.2,144.3z"/>
	<path class="st47" d="M218.4,142.5c0.1,0.3,0.4,0.5,0.7,0.7c0.4,0.2,0.9,0.4,1.4,0.5c0.5,0,1-0.1,1.3-0.5c0.7-0.9,0-2.6-1.2-2.9
		C219.5,140,218.2,141.4,218.4,142.5z"/>
	<path class="st48" d="M218.5,142.4c0.1,0.3,0.3,0.4,0.5,0.5c0.4,0.2,0.7,0.3,1.1,0.4c0.4,0,0.8-0.1,1.1-0.4c0.6-0.8,0-2.2-0.9-2.3
		C219.4,140.4,218.3,141.5,218.5,142.4z"/>
	<path class="st49" d="M219.3,140.2c0.5,0.6,1.4,0.5,2.2,0.5c0.4,0,0.7-0.1,1-0.4c0.2-0.2,0.3-0.5,0.3-0.8c0-0.5-0.2-1.1-0.7-1.4
		c-0.3-0.2-0.7-0.2-1.1-0.2C219.9,138,218,138.8,219.3,140.2z"/>
	<path class="st50" d="M219.3,139.8c0.4,0.4,1,0.4,1.5,0.3c0.2,0,0.5-0.1,0.7-0.2c0.1-0.2,0.2-0.4,0.2-0.6c0-0.4-0.2-0.8-0.5-0.9
		c-0.2-0.1-0.5-0.1-0.7-0.1C219.7,138.3,218.4,138.9,219.3,139.8z"/>
	<path class="st51" d="M219.8,135.1c-0.5,0.1-0.9,0.5-0.9,1c0,0.3,0.2,0.6,0.4,0.8c0.2,0.3,0.5,0.7,0.8,0.9c0.3,0.3,0.7,0.4,1.1,0.4
		c0.5-0.1,1-0.5,1.2-1c0-0.1,0.1-0.2,0.1-0.4c0-0.2-0.1-0.3-0.2-0.4c-0.2-0.3-0.3-0.6-0.6-0.8C221.4,135.4,219.8,135.1,219.8,135.1z
		"/>
	<path class="st52" d="M219.9,135.5c-0.4,0.1-0.7,0.4-0.6,0.7c0,0.2,0.1,0.4,0.3,0.6c0.2,0.2,0.3,0.5,0.6,0.7
		c0.2,0.2,0.5,0.3,0.8,0.3c0.4,0,0.7-0.4,0.9-0.7c0-0.1,0.1-0.2,0-0.3c0-0.1-0.1-0.2-0.1-0.3c-0.1-0.2-0.2-0.4-0.4-0.6
		C221.1,135.7,219.9,135.5,219.9,135.5z"/>
	<path class="st53" d="M207.3,148.2c-0.3-0.1-0.6-0.4-0.8-0.7c-0.4-0.4-1.2-1.1-0.7-1.7c0.3-0.4,0.9-0.3,1.3-0.1
		c0.5,0.2,1,0.7,1.2,1.3C208.5,147.7,208.2,148.5,207.3,148.2z"/>
	<path class="st54" d="M207.2,147.7c-0.3-0.1-0.5-0.3-0.7-0.6c-0.3-0.4-1-0.9-0.6-1.4c0.3-0.3,0.7-0.2,1-0.1c0.4,0.2,0.8,0.6,1,1
		C208.2,147.2,208,148,207.2,147.7z"/>
	<path class="st55" d="M210.9,149c-0.3,0.2-0.7,0.2-1.1,0.1c-0.8-0.2-2-0.6-2-1.8c0-0.8,0.4-1.3,1.1-1.5
		C210.1,145.5,212.5,147.8,210.9,149z"/>
	<path class="st56" d="M210.3,148.5c-0.2,0.2-0.5,0.1-0.8,0c-0.6-0.2-1.4-0.4-1.4-1.2c0-0.5,0.3-0.9,0.7-1
		C209.8,146,211.5,147.7,210.3,148.5z"/>
	<path class="st57" d="M209.5,147.7c-0.1,0.1-0.3,0.1-0.4,0c-0.3-0.1-0.7-0.2-0.8-0.7c0-0.3,0.1-0.5,0.4-0.6
		C209.2,146.4,210.2,147.3,209.5,147.7z"/>
	<path class="st58" d="M210.4,146.6c0.3,0.6,0.7,1,1.2,1.3c0.5,0.2,1.2,0.2,1.7,0c0.2-0.1,0.3-0.2,0.4-0.3c0.6-0.9-0.8-3-1.6-3.4
		C210.8,143.6,209.9,145.5,210.4,146.6z"/>
	<path class="st59" d="M210.7,146.6c0.2,0.4,0.4,0.6,0.8,0.8c0.3,0.2,0.8,0.2,1.1,0c0.1-0.1,0.2-0.1,0.3-0.2c0.4-0.6-0.5-1.9-1-2.1
		C210.9,144.7,210.4,145.9,210.7,146.6z"/>
	<path class="st60" d="M211.1,146.4c0.1,0.2,0.2,0.4,0.4,0.5c0.2,0.1,0.4,0.1,0.6,0c0.1,0,0.1-0.1,0.1-0.1c0.2-0.3-0.3-1.1-0.6-1.2
		C211.3,145.3,210.9,146,211.1,146.4z"/>
	<path class="st61" d="M212.8,145.1c0.1,0.7,0.7,1.3,1.3,1.7c0.3,0.2,0.7,0.4,1.2,0.5c0.5,0.1,1.1-0.1,1.6-0.3
		c0.2-0.1,0.5-0.2,0.7-0.4c0.4-0.4,0.5-1,0.4-1.5c-0.2-1.1-1.4-2.8-2.7-2.9C213.9,142.2,212.6,143.9,212.8,145.1z"/>
	<path class="st62" d="M213.3,145c0.1,0.5,0.5,0.9,0.9,1.2c0.3,0.2,0.5,0.3,0.9,0.4c0.4,0,0.8-0.1,1.2-0.3c0.2-0.1,0.4-0.1,0.5-0.3
		c0.3-0.3,0.4-0.7,0.3-1.1c-0.2-0.8-1.1-2.1-2-2.1C214.1,142.9,213.1,144.1,213.3,145z"/>
	<path class="st63" d="M213.8,144.9c0,0.2,0.2,0.4,0.4,0.6c0.1,0.1,0.3,0.2,0.4,0.2c0.2,0,0.4-0.1,0.5-0.1c0.1,0,0.2-0.1,0.2-0.1
		c0.1-0.1,0.2-0.3,0.1-0.5c-0.1-0.4-0.5-1-0.9-1C214.1,143.9,213.7,144.5,213.8,144.9z"/>
	<path class="st64" d="M215.8,143.6c1,0.6,2.2,0.7,3.2,0.2c2.6-1.4,0.8-4.9-1.7-4.9C214.9,138.8,213.6,142.3,215.8,143.6z"/>
	<path class="st65" d="M216.1,143c0.7,0.4,1.6,0.5,2.3,0.1c1.8-1,0.6-3.4-1.2-3.4C215.5,139.7,214.6,142.1,216.1,143z"/>
	<path class="st66" d="M215.6,142.3c0.4,0.3,1,0.3,1.5,0.1c1.2-0.6,0.4-2.2-0.8-2.2C215.2,140.2,214.6,141.7,215.6,142.3z"/>
	<path class="st67" d="M217.3,136.1c0.6-0.5,1.5-0.5,2.2-0.1c0.2,0.1,0.3,0.3,0.5,0.4c0.2,0.2,0.3,0.4,0.5,0.7
		c0.2,0.2,0.3,0.5,0.3,0.7c0,0.3,0,0.5-0.1,0.8C219.4,141.8,214.9,137.9,217.3,136.1z"/>
	<path class="st68" d="M217.6,136.9c0.4-0.3,0.9-0.3,1.3-0.1c0.1,0.1,0.2,0.2,0.3,0.2c0.1,0.1,0.2,0.3,0.3,0.4
		c0.1,0.1,0.2,0.3,0.2,0.4c0,0.2,0,0.3-0.1,0.5C218.9,140.4,216.1,138,217.6,136.9z"/>
	<path class="st69" d="M217.5,137.4c0.2-0.2,0.5-0.2,0.7,0c0.1,0,0.1,0.1,0.2,0.1c0.1,0.1,0.1,0.1,0.2,0.2c0.1,0.1,0.1,0.2,0.1,0.3
		c0,0.1,0,0.2,0,0.3C218.3,139.4,216.7,138,217.5,137.4z"/>
	<path class="st70" d="M216.7,135.8c0.6,1,1.9,1.5,3,1c1.9-0.9,0.3-3.7-0.9-4.3C216.7,131.7,215.6,134.2,216.7,135.8z"/>
	<path class="st71" d="M216.8,135.6c0.4,0.6,1.2,1,1.9,0.7c1.2-0.6,0.2-2.4-0.6-2.8C216.8,133,216.1,134.6,216.8,135.6z"/>
	<path class="st72" d="M216.5,135.4c0.3,0.4,0.8,0.6,1.2,0.4c0.8-0.4,0.1-1.6-0.4-1.8C216.5,133.7,216,134.7,216.5,135.4z"/>
	<path class="st73" d="M216.5,130.9c0.5,0.2,1,0.5,1.2,1c0,0.1,0.1,0.2,0.1,0.3c0,0.4-0.2,0.9-0.6,1.1
		C215.5,133.9,214.6,130.3,216.5,130.9z"/>
	<path class="st74" d="M216.1,131.3c0.5,0.2,1,0.5,1.2,1c0,0.1,0.1,0.2,0.1,0.3c0,0.4-0.2,0.9-0.6,1.1
		C215.1,134.3,214.2,130.7,216.1,131.3z"/>
	<path class="st75" d="M204.9,141.8c0.7-0.7,1.9-0.7,2.8-0.3c0.3,0.1,0.5,0.3,0.7,0.5c0.1,0.1,0.1,0.1,0.1,0.2
		c0.4,0.5,0.5,1.3,0.4,1.9c-0.1,0.7-0.3,1.4-0.8,1.8C206,147.6,203.1,143.7,204.9,141.8z"/>
	<path class="st76" d="M205.1,142.5c0.4-0.4,1.1-0.4,1.6-0.2c0.1,0.1,0.3,0.2,0.4,0.3c0,0,0.1,0.1,0.1,0.1c0.2,0.3,0.3,0.7,0.3,1.1
		c0,0.4-0.2,0.8-0.5,1C205.7,145.9,204,143.6,205.1,142.5z"/>
	<path class="st77" d="M205.1,142.9c0.1-0.1,0.4-0.1,0.6-0.1c0.1,0,0.1,0.1,0.1,0.1c0,0,0,0,0,0c0.1,0.1,0.1,0.3,0.1,0.4
		c0,0.1-0.1,0.3-0.2,0.4C205.4,144.1,204.8,143.3,205.1,142.9z"/>
	<path class="st78" d="M207.2,143.1c0.1-0.3,0.2-0.6,0.4-0.8c0.4-0.4,0.9-0.6,1.4-0.6c0.5,0,1.1,0.1,1.6,0.3
		c0.2,0.1,0.4,0.1,0.5,0.3c0.2,0.1,0.3,0.4,0.4,0.6c0.1,0.3,0.3,0.6,0.3,0.9c0.3,1.5-1.4,3.3-2.9,3.3
		C207.2,147,206.8,144.4,207.2,143.1z"/>
	<path class="st79" d="M207.5,143.3c0.1-0.2,0.2-0.4,0.3-0.6c0.3-0.3,0.6-0.4,1-0.4c0.4,0,0.8,0.1,1.1,0.2c0.1,0,0.3,0.1,0.4,0.2
		c0.1,0.1,0.2,0.3,0.3,0.4c0.1,0.2,0.2,0.4,0.2,0.7c0.2,1.1-1,2.4-2.1,2.3C207.5,146.1,207.2,144.3,207.5,143.3z"/>
	<path class="st80" d="M208,143.1c0-0.1,0.1-0.2,0.1-0.3c0.1-0.1,0.3-0.2,0.5-0.2c0.2,0,0.4,0,0.5,0.1c0.1,0,0.1,0,0.2,0.1
		c0.1,0,0.1,0.1,0.1,0.2c0,0.1,0.1,0.2,0.1,0.3c0.1,0.5-0.5,1.1-1,1.1C208,144.5,207.9,143.6,208,143.1z"/>
	<path class="st81" d="M210,143.7c0.2,0.6,0.8,0.9,1.4,1.2c0.3,0.1,0.6,0.3,1,0.3c0.3,0,0.6-0.1,0.9-0.2c1.1-0.5,1.9-1.5,2.1-2.7
		c0.2-1.3-1-2-2.1-2.3C211.3,139.5,209.3,141.9,210,143.7z"/>
	<path class="st82" d="M205.5,132.2c0.3,0,0.6,0.1,0.8,0.2c0.6,0.3,1.2,0.7,1.6,1.2c0.5,0.8,0.8,2.4-0.3,2.8
		c-0.6,0.2-2.1,0.1-2.8-0.1C202.7,135.7,203.4,132.2,205.5,132.2z"/>
	<path class="st83" d="M205.1,133.2c0.2,0,0.4,0,0.5,0.1c0.4,0.2,0.7,0.4,1,0.8c0.3,0.5,0.5,1.5-0.2,1.7c-0.4,0.1-1.3,0-1.7-0.1
		C203.4,135.4,203.9,133.3,205.1,133.2z"/>
	<path class="st84" d="M204.8,134.4c0.1,0,0.2,0,0.2,0c0.2,0.1,0.3,0.2,0.4,0.3c0.1,0.2,0.2,0.7-0.1,0.8c-0.2,0.1-0.6,0-0.8,0
		C204.1,135.4,204.3,134.4,204.8,134.4z"/>
	<path class="st85" d="M210.3,143.1c0.1,0.4,0.6,0.6,0.9,0.8c0.2,0.1,0.4,0.2,0.7,0.2c0.2,0,0.4-0.1,0.6-0.1
		c0.7-0.3,1.3-1.1,1.5-1.8c0.1-0.9-0.7-1.4-1.5-1.6C211.2,140.3,209.9,141.9,210.3,143.1z"/>
	<path class="st86" d="M206.9,131.2c0.2-0.4,0.5-0.8,1-0.9c0.3-0.1,0.7,0,1,0.1c0.4,0.1,0.8,0.3,1.1,0.6c1.2,1.1,0.1,3.5-1.4,3.9
		C206.7,135.3,206.3,132.4,206.9,131.2z"/>
	<path class="st87" d="M207.1,131.6c0.1-0.3,0.4-0.6,0.7-0.7c0.2-0.1,0.5,0,0.8,0.1c0.3,0.1,0.6,0.2,0.8,0.4c0.9,0.8,0,2.5-1,2.8
		C207,134.6,206.7,132.5,207.1,131.6z"/>
	<path class="st88" d="M207.3,132.6c0.1-0.1,0.2-0.3,0.3-0.3c0.1,0,0.2,0,0.3,0c0.1,0,0.3,0.1,0.4,0.2c0.4,0.4,0,1.2-0.5,1.3
		C207.2,133.9,207.1,133,207.3,132.6z"/>
	<path class="st89" d="M210.8,142.5c0.1,0.2,0.3,0.4,0.5,0.5c0.1,0.1,0.2,0.1,0.4,0.1c0.1,0,0.2,0,0.3-0.1c0.4-0.2,0.7-0.6,0.8-1
		c0.1-0.5-0.4-0.8-0.8-0.9C211.3,140.9,210.5,141.8,210.8,142.5z"/>
	<path class="st90" d="M209.8,134.6c-0.2-0.4-0.5-0.8-0.6-1.2c-0.1-0.6,0-1.2,0.2-1.7c0.2-0.7,0.6-1.4,1.3-1.7
		c0.4-0.2,1-0.2,1.4-0.1c0.9,0.2,1.7,0.8,2,1.7c0.3,1-0.3,2-1.1,2.7C212.1,135.1,210.6,135.9,209.8,134.6z"/>
	<path class="st91" d="M209.9,134.1c-0.2-0.2-0.3-0.5-0.4-0.8c-0.1-0.4,0-0.7,0.1-1.1c0.1-0.4,0.4-0.9,0.8-1.1
		c0.3-0.1,0.6-0.1,0.9,0c0.5,0.1,1.1,0.5,1.2,1c0.2,0.6-0.2,1.3-0.7,1.7C211.3,134.5,210.4,134.9,209.9,134.1z"/>
	<path class="st92" d="M210.1,133.9c-0.1-0.1-0.1-0.2-0.2-0.4c0-0.2,0-0.3,0-0.5c0.1-0.2,0.2-0.4,0.4-0.5c0.1-0.1,0.3-0.1,0.4,0
		c0.3,0.1,0.5,0.2,0.6,0.5c0.1,0.3-0.1,0.6-0.3,0.8C210.8,134.1,210.4,134.3,210.1,133.9z"/>
	<path class="st93" d="M213.8,131.2c0.5-0.3,1.1-0.4,1.7-0.2c0.6,0.2,1,0.7,1.3,1.2c0.2,0.3,0.4,0.7,0.4,1.1
		c0.1,0.8-0.4,1.5-0.9,2.1c-1.1,1.2-3.7,2.2-4.6,0.3C211,134,212.4,131.9,213.8,131.2z"/>
	<path class="st94" d="M213.7,132.4c0.4-0.2,0.8-0.3,1.1-0.1c0.4,0.1,0.6,0.5,0.9,0.8c0.1,0.2,0.3,0.5,0.3,0.7
		c0.1,0.5-0.2,1-0.6,1.4c-0.7,0.8-2.5,1.5-3.1,0.2C211.8,134.3,212.8,132.9,213.7,132.4z"/>
	<path class="st95" d="M213.3,133.6c0.2-0.1,0.4-0.1,0.6-0.1c0.2,0.1,0.3,0.3,0.5,0.4c0.1,0.1,0.1,0.2,0.2,0.4
		c0,0.3-0.1,0.5-0.3,0.7c-0.4,0.4-1.3,0.8-1.6,0.1C212.3,134.6,212.8,133.8,213.3,133.6z"/>
	<path class="st96" d="M213.3,139.9c0.3,0.4,0.7,0.6,1.1,0.8c0.4,0.2,0.7,0.3,1.1,0.3c0.7,0,1.4-0.6,1.8-1.3
		c0.4-0.7,0.7-1.5,0.7-2.3c0.1-1.6-1.8-3.2-3.3-2.3C213.4,136.1,212.3,138.6,213.3,139.9z"/>
	<path class="st97" d="M213.5,139.5c0.2,0.2,0.4,0.4,0.6,0.5c0.2,0.1,0.4,0.2,0.6,0.2c0.4,0,0.8-0.4,1-0.7c0.2-0.4,0.4-0.8,0.4-1.3
		c0-0.9-1-1.8-1.8-1.3C213.5,137.3,212.9,138.7,213.5,139.5z"/>
	<path class="st98" d="M213.7,139.3c0.1,0.1,0.2,0.2,0.3,0.2c0.1,0.1,0.2,0.1,0.3,0.1c0.2,0,0.4-0.2,0.5-0.4
		c0.1-0.2,0.2-0.4,0.2-0.7c0-0.5-0.5-0.9-1-0.7C213.7,138.1,213.4,138.8,213.7,139.3z"/>
</g>
<g>
	<path class="st15" d="M223.1,138.8c-0.6,0-1.4-0.1-1.7-0.7c-0.7-1.5,2-3.5,3.4-2.8c0.8,0.4,0.9,1.4,0.6,2.1
		C225,138.3,224,138.8,223.1,138.8z"/>
	<path class="st16" d="M223.9,136c-0.6,0-1.4-0.1-1.7-0.7c-0.7-1.5,2-3.5,3.4-2.8c0.8,0.4,0.9,1.4,0.6,2.1
		C225.8,135.4,224.8,135.9,223.9,136z"/>
	<path class="st17" d="M220.3,134.9c-0.5-0.4-0.9-1-0.7-1.7c0.5-1.6,3.9-1.2,4.4,0.2c0.3,0.8-0.3,1.6-1,2
		C222.1,135.8,221,135.5,220.3,134.9z"/>
	<path class="st18" d="M222.6,132.5c-0.1,0.6-0.4,1.2-1,1.3c-1.5,0.3-2.6-2.5-1.8-3.5c0.5-0.6,1.4-0.5,1.9-0.1
		C222.6,130.6,222.8,131.6,222.6,132.5z"/>
	<path class="st19" d="M224.6,132.3c-0.3,0.5-0.9,0.8-1.5,0.7c-1.4-0.4-1.2-3.4,0-3.9c0.7-0.3,1.4,0.2,1.8,0.8
		C225.4,130.7,225.1,131.7,224.6,132.3z"/>
	<path class="st20" d="M224,131.7c-0.2,0.3-0.6,0.6-1,0.5c-1-0.3-0.9-2.4,0-2.8c0.5-0.2,1,0.1,1.2,0.6
		C224.6,130.6,224.4,131.2,224,131.7z"/>
	<path class="st21" d="M226.6,133.1c-0.5,0.4-1.2,0.6-1.8,0.3c-1.4-0.9-0.2-4,1.3-4.2c0.8-0.1,1.5,0.7,1.6,1.4
		C228,131.5,227.4,132.5,226.6,133.1z"/>
	<path class="st22" d="M226.4,132.2c-0.4,0.3-0.9,0.5-1.3,0.2c-1.1-0.6-0.2-3,1-3.1c0.6-0.1,1.1,0.5,1.2,1.1
		C227.4,131.1,226.9,131.8,226.4,132.2z"/>
	<path class="st23" d="M225.4,129c-0.1,0.7-0.5,1.5-1.3,1.7c-1.9,0.4-3.4-3.2-2.3-4.6c0.6-0.8,1.8-0.6,2.5-0.1
		C225.3,126.7,225.6,127.9,225.4,129z"/>
	<path class="st24" d="M224.5,127.9c-0.1,0.4-0.3,0.9-0.7,1c-1.1,0.2-2-1.9-1.3-2.7c0.4-0.4,1-0.4,1.5-0.1
		C224.5,126.5,224.6,127.2,224.5,127.9z"/>
	<path class="st25" d="M224.3,127.7c0,0.2-0.1,0.4-0.3,0.5c-0.5,0.1-0.9-0.9-0.6-1.3c0.2-0.2,0.5-0.2,0.7,0
		C224.2,127.1,224.3,127.4,224.3,127.7z"/>
	<path class="st19" d="M227.4,135.2c-0.6,0.1-1.4,0.1-1.8-0.5c-0.9-1.4,1.4-3.8,2.9-3.3c0.8,0.2,1.1,1.2,0.9,2
		C229.3,134.3,228.4,135,227.4,135.2z"/>
	<path class="st26" d="M228.1,134.8c-0.5,0.1-1.2,0.1-1.5-0.4c-0.8-1.2,1.2-3.3,2.5-2.9c0.7,0.2,1,1.1,0.8,1.7
		C229.7,134,228.9,134.6,228.1,134.8z"/>
	<path class="st17" d="M224.9,137.5c-0.5-0.4-0.9-1-0.7-1.7c0.5-1.6,3.9-1.2,4.4,0.2c0.3,0.8-0.3,1.6-1,2
		C226.7,138.4,225.6,138.1,224.9,137.5z"/>
	<path class="st27" d="M217.1,128.7c0.1-0.7,0.6-1.2,1.1-1.6c1.1-0.7,2.6-0.7,3.7,0.2c1,0.8,1.3,2.4,0.6,3.5
		c-0.2,0.3-0.6,0.6-0.9,0.7c-0.3,0.1-0.5,0.1-0.8,0.1C219.5,131.5,216.9,130.2,217.1,128.7z"/>
	<path class="st28" d="M218,128.6c0.1-0.5,0.4-0.9,0.8-1.2c0.8-0.5,1.9-0.5,2.7,0.1c0.7,0.6,1,1.8,0.4,2.6c-0.2,0.2-0.4,0.4-0.7,0.5
		c-0.2,0.1-0.4,0.1-0.6,0.1C219.7,130.7,217.8,129.7,218,128.6z"/>
	<path class="st29" d="M219.1,128.1c0-0.2,0.2-0.4,0.4-0.5c0.4-0.2,0.9-0.2,1.2,0.1c0.3,0.3,0.4,0.8,0.2,1.2
		c-0.1,0.1-0.2,0.2-0.3,0.2c-0.1,0-0.2,0-0.3,0C219.9,129.1,219.1,128.6,219.1,128.1z"/>
	<path class="st30" d="M214.5,140.1c-0.3,0.4-0.4,0.8-0.4,1.3c0,0.8,0.2,1.6,0.8,2.3c0.2,0.2,0.5,0.5,0.8,0.4c0.3,0,0.5-0.3,0.6-0.6
		c0.4-1,0.3-2.1,0.1-3.1C216.1,139.5,215.2,139.2,214.5,140.1z"/>
	<path class="st31" d="M214.6,140.6c-0.2,0.3-0.3,0.6-0.3,0.9c0,0.6,0.2,1.2,0.6,1.6c0.1,0.2,0.3,0.3,0.6,0.3c0.2,0,0.4-0.2,0.5-0.5
		c0.3-0.7,0.2-1.5,0-2.2C215.7,140.1,215.1,140,214.6,140.6z"/>
	<path class="st32" d="M215.9,143.2c-0.1,0.2-0.2,0.5-0.2,0.7c-0.1,0.5,0,0.9,0.2,1.3c0.1,0.3,0.4,0.5,0.6,0.6
		c0.2,0.1,0.4,0.3,0.6,0.3c1.6,0.4,1.9-1.9,1.5-2.9C218.1,142.2,216.4,142.1,215.9,143.2z"/>
	<path class="st33" d="M216.1,143.2c-0.1,0.2-0.1,0.4-0.1,0.6c0,0.3,0,0.7,0.1,1c0.1,0.2,0.3,0.3,0.5,0.5c0.1,0.1,0.3,0.2,0.5,0.2
		c1.2,0.3,1.4-1.4,1.1-2.2C217.8,142.4,216.5,142.4,216.1,143.2z"/>
	<path class="st34" d="M218,145c-0.2,0.5-0.3,1-0.1,1.5c0.2,0.4,0.7,0.7,1.2,0.8c1.7,0.4,2-1.5,1.6-2.7
		C220.1,143,218.5,143.7,218,145z"/>
	<path class="st35" d="M218.4,144.8c-0.2,0.4-0.3,0.9-0.1,1.4c0.2,0.4,0.6,0.6,1,0.7c1.5,0.4,1.8-1.4,1.4-2.5
		C220.3,143,218.8,143.7,218.4,144.8z"/>
	<path class="st17" d="M222.1,144.3c-0.5,0-1,0.2-1.4,0.7c-0.3,0.5-0.5,1.1-0.4,1.6c0,0.2,0.1,0.4,0.2,0.6c0.1,0.1,0.2,0.2,0.2,0.3
		c0.4,0.4,0.8,0.7,1.3,0.7c0.4,0,0.8-0.3,1-0.7c0.2-0.4,0.3-0.8,0.4-1.3C223.6,145.4,222.7,144.4,222.1,144.3z"/>
	<path class="st36" d="M221.9,144.2c-0.4,0-0.8,0.2-1.1,0.5c-0.3,0.4-0.4,0.8-0.3,1.3c0,0.2,0,0.3,0.1,0.4c0.1,0.1,0.1,0.2,0.2,0.2
		c0.3,0.3,0.6,0.6,1,0.6c0.3,0,0.6-0.3,0.8-0.6c0.2-0.3,0.3-0.7,0.3-1C223.1,145.1,222.4,144.3,221.9,144.2z"/>
	<path class="st37" d="M223.2,146.1c0,0.6,0.5,1.1,1.1,1.2c0.3,0.1,0.7,0,1-0.1c0.9-0.3,1-1.7,0.3-2.3
		C224.7,144.3,223.1,144.9,223.2,146.1z"/>
	<path class="st38" d="M223.8,145.9c0,0.4,0.3,0.7,0.7,0.8c0.2,0,0.5,0,0.7-0.1c0.6-0.2,0.6-1.1,0.2-1.5
		C224.7,144.6,223.7,145.1,223.8,145.9z"/>
	<path class="st39" d="M214,139.5c0.1,0.4,0.3,0.7,0.6,0.9c0.6,0.3,1.4,0,1.7-0.6c0.6-0.9,0.5-2.7-0.8-3
		C214.2,136.6,213.8,138.5,214,139.5z"/>
	<path class="st40" d="M214.6,139c0.1,0.3,0.2,0.6,0.5,0.8c0.5,0.3,1.1,0,1.4-0.4c0.5-0.7,0.4-2.2-0.6-2.4
		C214.7,136.7,214.4,138.3,214.6,139z"/>
	<path class="st41" d="M215.9,139.2c-0.4,0.3-0.7,0.7-0.8,1.3s0,1,0.2,1.5c0.2,0.3,0.4,0.7,0.7,0.9c0.3,0.2,0.8,0.3,1.1,0.1
		c0.4-0.2,0.5-0.6,0.6-1c0.2-0.7,0.7-1.6,0.2-2.3C217.5,139,216.5,138.8,215.9,139.2z"/>
	<path class="st42" d="M216.3,139.2c-0.3,0.2-0.5,0.5-0.5,0.8c-0.1,0.3,0,0.7,0.2,1c0.1,0.2,0.3,0.4,0.5,0.6
		c0.2,0.1,0.5,0.2,0.7,0.1c0.2-0.1,0.4-0.4,0.4-0.6c0.1-0.5,0.4-1.1,0.1-1.5C217.3,139.1,216.7,139,216.3,139.2z"/>
	<path class="st43" d="M218.9,140.8c-0.3-0.2-0.6-0.3-1-0.3c-0.3,0-0.6,0.3-0.8,0.5c-0.2,0.3-0.3,0.6-0.3,0.9
		c-0.1,0.6-0.1,1.2,0.3,1.6c0.3,0.4,0.7,0.6,1.1,0.7c0.4,0.1,0.8,0.2,1.1,0c0.2-0.2,0.3-0.4,0.4-0.7c0.1-0.5,0.4-1.4,0.3-1.9
		C219.9,141.1,219.3,141,218.9,140.8z"/>
	<path class="st44" d="M218.9,140.6c-0.2-0.1-0.5-0.3-0.8-0.2c-0.3,0-0.5,0.2-0.6,0.4c-0.1,0.2-0.2,0.5-0.2,0.7
		c-0.1,0.4,0,0.9,0.2,1.3c0.2,0.3,0.6,0.4,0.9,0.6c0.3,0.1,0.6,0.1,0.8,0c0.2-0.1,0.2-0.4,0.3-0.6c0.1-0.4,0.4-1.1,0.2-1.5
		C219.7,140.8,219.3,140.7,218.9,140.6z"/>
	<path class="st45" d="M220.7,142.2c-0.5,0-1,0.2-1.3,0.6c-0.1,0.2-0.2,0.5-0.2,0.7c0,0.3-0.1,0.5,0,0.8c0.2,0.8,1,1.4,1.8,1.6
		c0.1,0,0.2,0,0.3,0c0.1,0,0.3-0.1,0.4-0.2C223.1,144.5,222.7,142.4,220.7,142.2z"/>
	<path class="st46" d="M220.7,142.1c-0.4,0-0.8,0.1-1,0.4c-0.1,0.2-0.1,0.4-0.2,0.6c0,0.2,0,0.4,0,0.6c0.1,0.6,0.8,1.1,1.4,1.2
		c0.1,0,0.2,0,0.2,0c0.1,0,0.2-0.1,0.3-0.2C222.5,143.8,222.3,142.2,220.7,142.1z"/>
	<path class="st47" d="M222.8,142.7c-0.3,0.2-0.4,0.5-0.4,0.8c-0.1,0.5-0.2,1-0.1,1.5s0.4,0.9,0.9,1.1c1.1,0.4,2.5-0.7,2.4-1.9
		C225.5,143.1,223.8,142.2,222.8,142.7z"/>
	<path class="st48" d="M222.9,142.7c-0.2,0.1-0.3,0.4-0.4,0.7c-0.1,0.4-0.1,0.8,0,1.2c0.1,0.4,0.3,0.8,0.7,0.9
		c0.9,0.3,2.1-0.6,2-1.6C225.1,143.1,223.7,142.3,222.9,142.7z"/>
	<path class="st49" d="M225.3,142.9c-0.4,0.7-0.1,1.5,0.2,2.2c0.1,0.3,0.3,0.7,0.6,0.9c0.3,0.1,0.6,0.1,0.9,0c0.5-0.2,1-0.5,1.1-1.1
		c0.1-0.4,0-0.7-0.1-1.1C227.6,142.9,226.3,141.3,225.3,142.9z"/>
	<path class="st50" d="M225.7,142.8c-0.3,0.5-0.1,1,0.1,1.5c0.1,0.2,0.2,0.5,0.4,0.6c0.2,0.1,0.4,0.1,0.6,0c0.4-0.1,0.7-0.4,0.8-0.7
		c0.1-0.2,0-0.5-0.1-0.7C227.2,142.8,226.3,141.8,225.7,142.8z"/>
	<path class="st51" d="M230.3,142c-0.2-0.4-0.7-0.7-1.2-0.6c-0.3,0.1-0.5,0.3-0.7,0.6c-0.3,0.3-0.5,0.6-0.7,1
		c-0.2,0.4-0.2,0.8-0.1,1.2c0.2,0.5,0.7,0.8,1.3,0.8c0.1,0,0.2,0,0.4,0c0.1-0.1,0.3-0.2,0.4-0.3c0.2-0.2,0.5-0.5,0.6-0.8
		C230.5,143.6,230.3,142,230.3,142z"/>
	<path class="st52" d="M229.9,142.2c-0.2-0.3-0.5-0.5-0.9-0.4c-0.2,0.1-0.4,0.2-0.5,0.4c-0.2,0.2-0.4,0.5-0.5,0.7
		c-0.1,0.3-0.2,0.6,0,0.9c0.1,0.4,0.5,0.6,0.9,0.6c0.1,0,0.2,0,0.3,0c0.1,0,0.2-0.1,0.3-0.2c0.2-0.2,0.4-0.4,0.5-0.6
		C230.1,143.4,229.9,142.2,229.9,142.2z"/>
	<path class="st53" d="M214.3,133.7c0-0.4,0.2-0.7,0.4-1c0.3-0.5,0.7-1.5,1.4-1.1c0.4,0.2,0.5,0.8,0.4,1.2c-0.1,0.6-0.4,1.2-0.9,1.5
		C215.1,134.7,214.2,134.6,214.3,133.7z"/>
	<path class="st54" d="M214.7,133.4c0-0.3,0.2-0.6,0.4-0.8c0.3-0.4,0.6-1.2,1.2-0.9c0.4,0.2,0.4,0.6,0.4,1c-0.1,0.5-0.3,1-0.7,1.2
		C215.4,134.3,214.7,134.2,214.7,133.4z"/>
	<path class="st55" d="M214.5,137.3c-0.3-0.3-0.4-0.7-0.4-1c0-0.9,0-2.1,1.1-2.4c0.7-0.3,1.4,0,1.7,0.6
		C217.7,135.5,216.1,138.6,214.5,137.3z"/>
	<path class="st56" d="M214.8,136.6c-0.2-0.2-0.2-0.5-0.2-0.7c0-0.6,0-1.4,0.8-1.7c0.5-0.2,0.9,0,1.2,0.4
		C217,135.4,215.9,137.5,214.8,136.6z"/>
	<path class="st57" d="M215.3,135.7c-0.1-0.1-0.1-0.2-0.1-0.4c0-0.3,0-0.8,0.4-0.9c0.3-0.1,0.5,0,0.6,0.2
		C216.5,135,215.9,136.1,215.3,135.7z"/>
	<path class="st58" d="M216.6,136.2c-0.5,0.4-0.8,0.9-0.9,1.5c-0.1,0.6,0.1,1.2,0.5,1.6c0.1,0.1,0.3,0.2,0.4,0.3
		c1,0.3,2.7-1.6,2.8-2.5C219.6,135.7,217.6,135.3,216.6,136.2z"/>
	<path class="st59" d="M216.7,136.5c-0.3,0.3-0.5,0.6-0.6,1c-0.1,0.4,0.1,0.8,0.3,1c0.1,0.1,0.2,0.1,0.3,0.2c0.7,0.2,1.7-1,1.8-1.6
		C218.7,136.2,217.4,135.9,216.7,136.5z"/>
	<path class="st60" d="M217,136.8c-0.2,0.1-0.3,0.3-0.3,0.5c0,0.2,0,0.4,0.2,0.6c0,0,0.1,0.1,0.2,0.1c0.4,0.1,1-0.6,1-0.9
		C218.1,136.6,217.4,136.5,217,136.8z"/>
	<path class="st61" d="M218.7,138.1c-0.6,0.3-1,1-1.2,1.7c-0.1,0.4-0.2,0.8-0.1,1.2c0.1,0.5,0.4,1,0.8,1.4c0.2,0.2,0.3,0.4,0.5,0.6
		c0.5,0.3,1.1,0.2,1.6,0c1-0.5,2.3-2.2,2-3.4C221.9,138.3,219.9,137.6,218.7,138.1z"/>
	<path class="st62" d="M218.9,138.5c-0.5,0.2-0.8,0.7-0.9,1.3c-0.1,0.3-0.2,0.6-0.1,0.9c0.1,0.4,0.3,0.7,0.6,1
		c0.1,0.2,0.2,0.3,0.4,0.4c0.3,0.2,0.8,0.2,1.2,0c0.7-0.4,1.7-1.6,1.5-2.5C221.3,138.6,219.8,138.1,218.9,138.5z"/>
	<path class="st63" d="M219.2,138.9c-0.2,0.1-0.4,0.4-0.4,0.6c0,0.1-0.1,0.3-0.1,0.4c0,0.2,0.2,0.3,0.3,0.5c0.1,0.1,0.1,0.1,0.2,0.2
		c0.2,0.1,0.4,0.1,0.5,0c0.3-0.2,0.8-0.8,0.7-1.2C220.3,139,219.6,138.7,219.2,138.9z"/>
	<path class="st64" d="M221,140.5c-0.3,1.1-0.1,2.4,0.7,3.2c2.1,2.1,4.9-0.6,4.3-3C225.4,138.3,221.7,138.1,221,140.5z"/>
	<path class="st65" d="M221.7,140.7c-0.2,0.8,0,1.6,0.5,2.2c1.5,1.5,3.4-0.4,3-2.1C224.7,139.1,222.1,139,221.7,140.7z"/>
	<path class="st66" d="M222.2,140c-0.1,0.5,0,1.1,0.3,1.4c0.9,1,2.2-0.3,1.9-1.4C224.2,139,222.5,138.9,222.2,140z"/>
	<path class="st67" d="M228.7,139.9c0.6,0.5,0.9,1.3,0.7,2.1c-0.1,0.2-0.2,0.4-0.3,0.6c-0.1,0.2-0.3,0.5-0.5,0.7
		c-0.2,0.2-0.4,0.4-0.6,0.5c-0.2,0.1-0.5,0.1-0.8,0.1C223.8,143.5,226.2,138,228.7,139.9z"/>
	<path class="st68" d="M227.9,140.4c0.4,0.3,0.5,0.8,0.4,1.2c0,0.1-0.1,0.2-0.2,0.3c-0.1,0.1-0.2,0.3-0.3,0.4
		c-0.1,0.1-0.2,0.3-0.4,0.3c-0.1,0.1-0.3,0.1-0.5,0.1C225,142.6,226.5,139.3,227.9,140.4z"/>
	<path class="st69" d="M227.5,140.5c0.2,0.2,0.3,0.5,0.2,0.7c0,0.1-0.1,0.1-0.1,0.2c0,0.1-0.1,0.2-0.2,0.2c-0.1,0.1-0.1,0.1-0.2,0.2
		c-0.1,0-0.2,0-0.3,0C225.8,141.7,226.6,139.8,227.5,140.5z"/>
	<path class="st70" d="M228.8,139.2c-0.8,0.9-1,2.2-0.1,3.1c1.4,1.6,3.7-0.7,3.8-2.1C232.7,138.1,230,137.8,228.8,139.2z"/>
	<path class="st71" d="M229,139.2c-0.5,0.6-0.6,1.4-0.1,2c0.9,1,2.4-0.5,2.5-1.3C231.6,138.6,229.8,138.3,229,139.2z"/>
	<path class="st72" d="M229.1,138.9c-0.3,0.4-0.4,0.9-0.1,1.3c0.6,0.7,1.6-0.3,1.6-0.9C230.8,138.4,229.6,138.3,229.1,138.9z"/>
	<path class="st73" d="M233.5,137.7c0,0.5-0.2,1.1-0.7,1.4c-0.1,0.1-0.2,0.1-0.3,0.1c-0.4,0.1-0.9,0.1-1.2-0.3
		C230.3,137.5,233.5,135.6,233.5,137.7z"/>
	<path class="st74" d="M233,137.4c0,0.5-0.2,1.1-0.7,1.4c-0.1,0.1-0.2,0.1-0.3,0.1c-0.4,0.1-0.9,0.1-1.2-0.3
		C229.8,137.2,233,135.4,233,137.4z"/>
	<path class="st75" d="M219.7,129.5c0.9,0.5,1.2,1.6,1.1,2.6c0,0.3-0.1,0.6-0.2,0.8c0,0.1-0.1,0.1-0.1,0.2c-0.4,0.5-1.1,0.8-1.7,1
		c-0.7,0.1-1.4,0.1-1.9-0.3C214.4,132.2,217.4,128.4,219.7,129.5z"/>
	<path class="st76" d="M219.1,129.9c0.5,0.3,0.7,0.9,0.6,1.5c0,0.2-0.1,0.3-0.1,0.5c0,0,0,0.1-0.1,0.1c-0.2,0.3-0.6,0.5-1,0.6
		c-0.4,0.1-0.8,0.1-1.1-0.2C216.1,131.5,217.8,129.2,219.1,129.9z"/>
	<path class="st77" d="M218.7,130.1c0.2,0.1,0.2,0.3,0.2,0.5c0,0.1,0,0.1,0,0.2c0,0,0,0,0,0c-0.1,0.1-0.2,0.2-0.3,0.2
		c-0.1,0-0.3,0-0.4-0.1C217.7,130.6,218.2,129.9,218.7,130.1z"/>
	<path class="st78" d="M219.1,132.1c0.3,0,0.6,0,0.9,0.2c0.5,0.2,0.8,0.7,1,1.2c0.2,0.5,0.2,1.1,0.1,1.6c0,0.2,0,0.4-0.1,0.6
		c-0.1,0.2-0.3,0.4-0.4,0.6c-0.2,0.2-0.5,0.4-0.8,0.6c-1.4,0.7-3.6-0.4-4-1.9C215.3,133.2,217.7,132.1,219.1,132.1z"/>
	<path class="st79" d="M219,132.5c0.2,0,0.4,0,0.6,0.1c0.3,0.2,0.6,0.5,0.7,0.9c0.1,0.4,0.1,0.7,0.1,1.1c0,0.1,0,0.3-0.1,0.4
		c-0.1,0.2-0.2,0.3-0.3,0.4c-0.2,0.2-0.4,0.3-0.6,0.4c-1,0.5-2.5-0.3-2.8-1.4C216.3,133.2,218,132.4,219,132.5z"/>
	<path class="st80" d="M219.3,132.9c0.1,0,0.2,0,0.3,0.1c0.2,0.1,0.3,0.2,0.3,0.4c0.1,0.2,0.1,0.4,0,0.5c0,0.1,0,0.1,0,0.2
		c0,0.1-0.1,0.1-0.1,0.2c-0.1,0.1-0.2,0.1-0.3,0.2c-0.5,0.2-1.2-0.1-1.3-0.6C218,133.3,218.8,132.9,219.3,132.9z"/>
	<path class="st81" d="M219.3,135c-0.5,0.4-0.6,1-0.8,1.7c-0.1,0.3-0.1,0.7,0,1c0.1,0.3,0.2,0.6,0.4,0.8c0.8,0.9,2,1.4,3.2,1.3
		c1.3-0.2,1.7-1.5,1.6-2.7C223.7,135,220.9,133.8,219.3,135z"/>
	<path class="st82" d="M229.1,127.4c0.1,0.3,0.1,0.6,0.1,0.9c-0.1,0.7-0.3,1.3-0.8,1.9c-0.6,0.7-2.1,1.5-2.8,0.5
		c-0.4-0.5-0.7-2-0.7-2.7C225,125.7,228.5,125.4,229.1,127.4z"/>
	<path class="st83" d="M228,127.4c0.1,0.2,0.1,0.4,0,0.5c0,0.4-0.2,0.8-0.5,1.1c-0.4,0.4-1.3,0.9-1.7,0.3c-0.2-0.3-0.4-1.3-0.4-1.7
		C225.5,126.3,227.6,126.2,228,127.4z"/>
	<path class="st84" d="M226.8,127.4c0,0.1,0,0.2,0,0.2c0,0.2-0.1,0.4-0.2,0.5c-0.2,0.2-0.6,0.4-0.8,0.1c-0.1-0.1-0.2-0.5-0.2-0.7
		C225.7,127,226.6,126.9,226.8,127.4z"/>
	<path class="st85" d="M220,135.2c-0.3,0.3-0.4,0.7-0.5,1.1c0,0.2-0.1,0.5,0,0.7c0,0.2,0.2,0.4,0.3,0.5c0.5,0.6,1.4,1,2.2,0.9
		c0.9-0.1,1.2-1,1.1-1.8C223,135.2,221.1,134.4,220,135.2z"/>
	<path class="st86" d="M230.5,128.6c0.4,0.1,0.9,0.3,1.1,0.7c0.2,0.3,0.2,0.7,0.2,1c0,0.4-0.1,0.9-0.3,1.3c-0.7,1.5-3.4,1-4.1-0.2
		C226.5,129.5,229.1,128.3,230.5,128.6z"/>
	<path class="st87" d="M230.2,128.9c0.3,0.1,0.7,0.2,0.8,0.5c0.1,0.2,0.1,0.5,0.1,0.8c0,0.3-0.1,0.6-0.2,0.9c-0.5,1.1-2.4,0.7-3-0.2
		C227.2,129.5,229.2,128.7,230.2,128.9z"/>
	<path class="st88" d="M229.3,129.3c0.1,0,0.3,0.1,0.4,0.2c0.1,0.1,0.1,0.2,0.1,0.3c0,0.1,0,0.3-0.1,0.4c-0.2,0.5-1.1,0.3-1.3-0.1
		C227.9,129.6,228.8,129.2,229.3,129.3z"/>
	<path class="st89" d="M220.7,135.4c-0.2,0.1-0.2,0.4-0.3,0.6c0,0.1,0,0.3,0,0.4c0,0.1,0.1,0.2,0.2,0.3c0.3,0.3,0.8,0.6,1.2,0.5
		c0.5-0.1,0.6-0.6,0.6-1C222.4,135.4,221.3,134.9,220.7,135.4z"/>
	<path class="st90" d="M228,132.2c0.3-0.3,0.6-0.7,1-0.9c0.5-0.3,1.1-0.3,1.7-0.3c0.7,0,1.5,0.2,2,0.7c0.3,0.4,0.4,0.9,0.5,1.4
		c0,0.9-0.3,1.9-1,2.3c-0.9,0.5-2,0.2-2.9-0.3C228.1,134.6,227,133.4,228,132.2z"/>
	<path class="st91" d="M228.5,132.2c0.2-0.2,0.4-0.4,0.6-0.6c0.3-0.2,0.7-0.2,1.1-0.2c0.5,0,0.9,0.1,1.2,0.5
		c0.2,0.2,0.3,0.6,0.3,0.9c0,0.6-0.2,1.2-0.7,1.5c-0.5,0.3-1.3,0.2-1.8-0.2C228.6,133.7,227.9,132.9,228.5,132.2z"/>
	<path class="st92" d="M228.8,132.4c0.1-0.1,0.2-0.2,0.3-0.3c0.2-0.1,0.3-0.1,0.5-0.1c0.2,0,0.4,0.1,0.6,0.2
		c0.1,0.1,0.1,0.3,0.1,0.4c0,0.3-0.1,0.6-0.3,0.7c-0.3,0.2-0.6,0.1-0.9-0.1C228.8,133.1,228.5,132.7,228.8,132.4z"/>
	<path class="st93" d="M232.4,135.2c0.4,0.4,0.7,1,0.7,1.6c0,0.6-0.4,1.1-0.8,1.6c-0.3,0.3-0.6,0.6-0.9,0.7
		c-0.7,0.3-1.5,0.1-2.2-0.3c-1.4-0.7-3.2-2.9-1.5-4.3C228.9,133.3,231.4,134,232.4,135.2z"/>
	<path class="st94" d="M231.2,135.4c0.3,0.3,0.5,0.7,0.4,1c0,0.4-0.3,0.8-0.6,1.1c-0.2,0.2-0.4,0.4-0.6,0.5c-0.5,0.2-1,0-1.5-0.2
		c-1-0.5-2.1-2-1-2.9C228.8,134.1,230.5,134.6,231.2,135.4z"/>
	<path class="st95" d="M230,135.3c0.1,0.2,0.2,0.3,0.2,0.6c0,0.2-0.1,0.4-0.3,0.6c-0.1,0.1-0.2,0.2-0.3,0.3c-0.3,0.1-0.5,0-0.8-0.1
		c-0.5-0.2-1.1-1-0.5-1.5C228.7,134.6,229.6,134.9,230,135.3z"/>
	<path class="st96" d="M223.8,137.1c-0.3,0.4-0.4,0.8-0.5,1.3c-0.1,0.4-0.1,0.8,0,1.2c0.2,0.7,1,1.2,1.8,1.4
		c0.8,0.2,1.6,0.3,2.4,0.1c1.6-0.4,2.6-2.6,1.3-3.8C227.6,136.1,224.9,135.8,223.8,137.1z"/>
	<path class="st97" d="M224.3,137.1c-0.2,0.2-0.2,0.5-0.3,0.7c0,0.2-0.1,0.4,0,0.7c0.1,0.4,0.6,0.7,1,0.8c0.4,0.1,0.9,0.1,1.4,0
		c0.9-0.2,1.4-1.5,0.7-2.1C226.5,136.6,225,136.4,224.3,137.1z"/>
	<path class="st98" d="M224.6,137.3c-0.1,0.1-0.1,0.2-0.2,0.4c0,0.1,0,0.2,0,0.3c0.1,0.2,0.3,0.3,0.5,0.4c0.2,0.1,0.5,0.1,0.7,0
		c0.5-0.1,0.8-0.8,0.4-1.1C225.7,137,224.9,136.9,224.6,137.3z"/>
</g>
<g>
	<g>
		<g>
			<polygon class="st99" points="213.1,150.4 141.2,150.4 177.2,187.7 			"/>
			<polygon class="st100" points="209.5,150.4 144.8,150.4 177.2,187.7 			"/>
			<polygon class="st101" points="154.2,163.9 177.2,187.7 200.1,163.9 			"/>
			<polygon class="st102" points="177.2,181 154.3,163.9 154.2,163.9 177.2,187.7 200.1,163.9 200,163.9 			"/>
			<path class="st103" d="M121.7,142.1l55.5,57.6l55.5-57.6H121.7z M141.2,150.4H213l-35.9,37.3L141.2,150.4z"/>
			<polygon class="st104" points="124.5,142.1 121.7,142.1 177.2,199.7 178.6,198.2 			"/>
			<path class="st105" d="M174.6,196.9V248c0,2.3,1.1,4.1,2.6,4.1c1.4,0,2.5-1.8,2.5-4.1v-51.4C178.4,197.9,176.1,198,174.6,196.9z"
				/>
			<path class="st105" d="M184.4,248.8c0,3.9-3.2,7.1-7.1,7.1c-3.9,0-7.1-3.2-7.1-7.1c0-3.9,3.2-7.1,7.1-7.1
				S184.4,244.9,184.4,248.8z"/>
			<path class="st106" d="M177.3,255.9c3.9,0,7.1-3.2,7.1-7.1c0-0.9-0.2-1.7-0.5-2.5c-2.1-0.4-4.4-0.6-6.7-0.6s-4.5,0.2-6.5,0.6
				c-0.3,0.8-0.5,1.6-0.5,2.5C170.1,252.7,173.3,255.9,177.3,255.9C177.2,255.9,177.3,255.9,177.3,255.9z"/>
			<path class="st105" d="M177.3,195.5c-2.9,0-5.5-1.1-7.1-2.9c0,0.1,0,0.3,0,0.4c0,3.9,3.2,7.1,7.1,7.1c3.9,0,7.1-3.2,7.1-7.1
				c0-0.1,0-0.6,0-0.8C182.7,194,180.2,195.5,177.3,195.5z"/>
			<path class="st106" d="M170.6,193c1,2.7,3.6,4.6,6.6,4.6c3.2,0,5.9-2.1,6.8-5c-1.6,1.6-4,2.9-6.8,2.9
				C174.6,195.5,172.2,194.5,170.6,193z"/>
			<path class="st103" d="M177.7,233.9c-0.5,0-0.9-0.4-0.9-0.9v-31.2c0-0.5,0.4-0.9,0.9-0.9l0,0c0.5,0,0.9,0.4,0.9,0.9V233
				C178.6,233.5,178.2,233.9,177.7,233.9L177.7,233.9z"/>
			<path class="st104" d="M171.5,193.8c-0.5-0.4-1-0.8-1.4-1.2c0,0.1,0,0.3,0,0.4c0,3,1.8,5.5,4.5,6.6v42.6c-2.6,1-4.5,3.6-4.5,6.6
				c0,3.1,1.9,5.7,4.6,6.7c-2.1-1.2-3.6-3.5-3.6-6.1c0-3,1.8-5.5,4.5-6.6v-44.3C173.7,197.6,172.1,195.9,171.5,193.8z"/>
			<path class="st103" d="M196.3,255c0,2.5-8.6,3.3-19.2,3.3c-10.6,0-19.2-0.8-19.2-3.3c0-2.5,8.6-6.9,19.2-6.9
				C187.8,248.1,196.3,252.5,196.3,255z"/>
			<path class="st105" d="M195.3,253.3c-2.6,1.4-9.7,1.9-18.1,1.9c-8.4,0-15.5-0.5-18.1-1.9c-0.7,0.6-1.1,1.2-1.1,1.8
				c0,2.5,8.6,3.3,19.2,3.3c10.6,0,19.2-0.8,19.2-3.3C196.3,254.5,196,253.9,195.3,253.3z"/>
			<path class="st104" d="M179.7,257.2c-10.6,0-19.2-0.8-19.2-3.3c0-1,1.4-2.4,3.9-3.6c-3.9,1.5-6.4,3.4-6.4,4.7
				c0,2.5,8.6,3.3,19.2,3.3c9.1,0,16.7-0.6,18.7-2.3C192.4,256.9,186.5,257.2,179.7,257.2z"/>
		</g>
	</g>
</g>
<polygon class="st107" points="200,163.9 201.9,162 202.5,161.3 151.7,161.3 154.2,163.9 "/>
</svg>
