<?xml version="1.0" encoding="utf-8"?>
<!-- Generator: Adobe Illustrator 23.0.0, SVG Export Plug-In . SVG Version: 6.00 Build 0)  -->
<svg version="1.1" xmlns="http://www.w3.org/2000/svg" xmlns:xlink="http://www.w3.org/1999/xlink" x="0px" y="0px"
	 viewBox="0 0 360 363" style="enable-background:new 0 0 360 363;" xml:space="preserve">
<style type="text/css">
	.st0{fill:#FFD084;}
	.st1{fill:none;stroke:#FFE1C0;stroke-width:0.7573;stroke-miterlimit:10;}
	.st2{fill:#FFD6A4;}
	.st3{fill:none;stroke:#FFE1C0;stroke-width:0.75;stroke-miterlimit:10;}
	.st4{fill:#FFE1C0;}
	.st5{fill:none;stroke:#FFD6A4;stroke-width:0.75;stroke-miterlimit:10;}
	.st6{fill:none;stroke:#FFEFE1;stroke-width:0.7478;stroke-miterlimit:10;}
	.st7{fill:#8F7CE5;}
	.st8{fill:#A6A6DD;}
	.st9{fill:#FFE5CC;}
	.st10{fill:none;stroke:#FFD6A4;stroke-miterlimit:10;}
	.st11{clip-path:url(#SVGID_2_);fill:#FFD8AE;}
	.st12{clip-path:url(#SVGID_4_);fill:#FFD8AE;}
	.st13{fill:#EBEBFC;stroke:#FFFFFF;stroke-width:17.9885;stroke-linejoin:round;stroke-miterlimit:10;}
	.st14{fill:#FFC700;stroke:#FFFFFF;stroke-width:17.9885;stroke-miterlimit:10;}
	.st15{fill:#FFE385;}
	.st16{fill:#FFA600;}
	.st17{fill:#3D9EC1;}
	.st18{fill:#78C9E9;}
	.st19{fill:#FFCC2C;}
	.st20{fill:#F9D564;}
	.st21{fill:#FFC700;}
	.st22{opacity:0.4;fill:#FFFFFF;}
	.st23{fill:#CCCCFF;}
	.st24{fill:#C2C2F9;}
</style>
<g id="fondo">
	<g id="Rectángulo_556">
		<rect y="-0.14" class="st0" width="360" height="363.28"/>
		<rect x="0.5" y="0.4" class="st0" width="359" height="362.19"/>
	</g>
	<path class="st1" d="M228.09,263.29c0,0,43.95-35.13,59.71-104.93c15.76-69.8-12.42-91.67-12.42-91.67s-20.54-26.38-33.44,10.62
		c0,0-11.15,37.16-24.36,18.58c0,0-3.98-5.62-6.53-12.96c-2.55-7.34-10.99-10.46-10.99-10.46s-21.42-7.34-59.39,34.82
		c0,0-30.89,35.91-25.48,83.07c5.41,47.16,10.51,56.84,10.51,56.84L228.09,263.29z"/>
	<path class="st2" d="M225.9,276.06c0,0,43.1-35.13,58.56-104.93s-12.18-91.67-12.18-91.67s-20.14-26.38-32.79,10.62
		c0,0-10.93,37.16-23.89,18.58c0,0-3.9-5.62-6.4-12.96c-2.5-7.34-10.77-10.46-10.77-10.46s-21-7.34-58.24,34.82
		c0,0-30.29,35.91-24.98,83.07c5.31,47.16,10.31,56.84,10.31,56.84L225.9,276.06z"/>
	<path class="st3" d="M114.92,250.56c0,0-61.21-54.38-49.73-80.38s30.92-7.5,30.92-7.5s25.74,22.64,47.94,63.87L114.92,250.56z"/>
	<path class="st2" d="M115.82,254.74c0,0-54.11-58.56-42.63-84.56s30.92-7.5,30.92-7.5s25.74,22.64,47.94,63.87L115.82,254.74z"/>
	<path class="st4" d="M206.38,269.97c0,0,41.28-44.47,60.9-102.75c0,0,11.09-34.04-2.26-60.04c0,0-8.2-25.76-29.28,14.76
		s-29.36,11.95-29.36,11.95s-8.12-59.49-43.96-15.22s-22.88,140.07-22.88,140.07L206.38,269.97z"/>
	<path class="st5" d="M191.09,246.3c0,0,54.35-73,68.03-155.44"/>
	<path class="st6" d="M195.3,270.97c0,0,33.9-33.63,51.3-78.9c0,0,9.87-26.45,0.31-47.41c0,0-5.53-20.59-23.46,10.62
		s-23.42,8.4-23.42,8.4s-4.3-47.18-33.92-13.52S143.31,259.8,143.31,259.8L195.3,270.97z"/>
	<g>
		
			<ellipse transform="matrix(1 -1.876257e-03 1.876257e-03 1 -0.5354 0.338)" class="st7" cx="179.88" cy="285.51" rx="102.63" ry="21.37"/>
		<polygon class="st7" points="282.51,285.31 282.74,271.39 77.49,271.78 77.26,285.7 		"/>
		
			<ellipse transform="matrix(1 -1.876257e-03 1.876257e-03 1 -0.5092 0.3384)" class="st8" cx="180.12" cy="271.58" rx="102.63" ry="21.37"/>
	</g>
	<path class="st3" d="M239.72,225.43c0,0,41.81-19.06,39.89,8.95s-52.97,30.93-52.97,30.93s-15.52-0.28-14.51-10.31
		C213.15,244.99,218.53,235.95,239.72,225.43z"/>
	<path class="st9" d="M229.87,227.88c0,0,37.63-26.37,40.86,1.51c3.23,27.89-46.43,40.09-46.43,40.09s-15.31,2.56-16.14-7.48
		C207.32,251.96,210.96,242.09,229.87,227.88z"/>
	<path class="st10" d="M208.16,262c0,0,44.37-19.59,65.33-41.4"/>
	<g>
		<defs>
			<path id="SVGID_1_" d="M229.87,227.88c0,0,37.63-26.37,40.86,1.51c3.23,27.89-46.43,40.09-46.43,40.09s-15.31,2.56-16.14-7.48
				C207.32,251.96,210.96,242.09,229.87,227.88z"/>
		</defs>
		<clipPath id="SVGID_2_">
			<use xlink:href="#SVGID_1_"  style="overflow:visible;"/>
		</clipPath>
		<path class="st11" d="M240.93,216.47c0,0-27.33,46.61,4.77,50.04c21.51,2.3-22.88,11.47-22.88,11.47l-20.33-4.59l-1.26-29.05
			l20.04-22.86L240.93,216.47z"/>
	</g>
	<g>
		<path class="st9" d="M128.22,230.7c0,0-34.92-21.87-37.3,9.46c0,0,6.53,28.07,39.88,22.37S128.22,230.7,128.22,230.7z"/>
	</g>
	<path class="st10" d="M142.99,253.29c0,0-40.86-21.01-62.36-13.12"/>
	<g>
		<defs>
			<path id="SVGID_3_" d="M128.22,230.7c0,0-34.92-21.87-37.3,9.46c0,0,6.53,28.07,39.88,22.37S128.22,230.7,128.22,230.7z"/>
		</defs>
		<clipPath id="SVGID_4_">
			<use xlink:href="#SVGID_3_"  style="overflow:visible;"/>
		</clipPath>
		<path class="st12" d="M124.11,223.27h-3.96h-3.6c0,0,17.64,25.99,9.36,34.63c-8.28,8.64-9.36,6.66-9.36,6.66l19.62,1.8l15.87-7.2
			l1.23-14.34l-16-11.87L124.11,223.27z"/>
	</g>
	<path class="st3" d="M84.49,166.62c0,0,21.56,45.33,54.64,70.39"/>
	<path class="st3" d="M103.9,168.26c0,0-5.38,4.01-7.03,10.8"/>
	<path class="st3" d="M108.15,176.42c0,0-5.28,5.28-6,14.16"/>
	<path class="st3" d="M96.87,195.38c0,0-6.26-0.51-14.88,3.65"/>
	<path class="st3" d="M102.15,201.82c0,0-10.93,0.42-15.6,3.7"/>
	<path class="st2" d="M109.46,112.71c0.11,4.02-3.42,7.77-6.2,10.45c-0.99-2.43-1.86-5.01-1.96-7.63c-0.08-1.99,0.66-3.98,2.15-5.31
		c0.48-0.42,1.02-0.76,1.68-0.9c0.36-0.14,0.73-0.18,1.09-0.15C108.03,109.31,109.42,110.9,109.46,112.71z"/>
	<path class="st2" d="M81.91,128.79c-3.13,0.34-9.01-1.11-11.62-3.25c-2.28-1.66-2.35-2.23-3.36-4.91
		c-1.04-2.74,0.64-5.88,3.55-6.22c1.5-0.17,3.06,0.17,4.32,1.09C79.06,118.44,82.58,123.4,81.91,128.79z"/>
	<path class="st4" d="M105.58,147.42c-1.93,1.07-4.96-0.2-4.73-2.63c-0.17-2.84,4.14-3.82,5.55-1.58
		C107.46,144.5,106.93,146.55,105.58,147.42z"/>
	<path class="st4" d="M319.47,90.09c-2.57,1.42-6.63-0.27-6.32-3.51c-0.23-3.8,5.53-5.1,7.42-2.11
		C321.98,86.2,321.27,88.93,319.47,90.09z"/>
	<path class="st2" d="M328.87,302.27c-3.08,1.7-7.93-0.33-7.56-4.2c-0.28-4.55,6.62-6.11,8.88-2.52
		C331.87,297.61,331.02,300.88,328.87,302.27z"/>
	<path class="st4" d="M286.44,314.01c-2.02,1.12-5.2-0.21-4.96-2.75c-0.18-2.98,4.34-4.01,5.83-1.66
		C288.41,310.95,287.85,313.1,286.44,314.01z"/>
	<path class="st2" d="M61.9,249.68c-2.57,1.42-6.63-0.27-6.32-3.51c-0.23-3.8,5.53-5.1,7.42-2.11
		C64.41,245.78,63.71,248.52,61.9,249.68z"/>
	
		<ellipse transform="matrix(0.3506 -0.9365 0.9365 0.3506 -99.1579 230.057)" class="st9" cx="116.32" cy="186.53" rx="2.74" ry="1.69"/>
	
		<ellipse transform="matrix(0.3506 -0.9365 0.9365 0.3506 -107.5172 238.2546)" class="st9" cx="118.05" cy="196.66" rx="2.74" ry="1.69"/>
	
		<ellipse transform="matrix(0.3506 -0.9365 0.9365 0.3506 -136.4276 236.2571)" class="st0" cx="102.15" cy="216.51" rx="2.97" ry="1.83"/>
</g>
<g id="Capa_3">
	<g>
		<g>
			<path class="st13" d="M206.15,145.71l4.71-21.34l-4.51-0.82l-4.89,22.15h-49.52h-3.01v112.12c0,5.19,4.21,9.4,9.4,9.4h3.01h40.18
				c5.19,0,9.4-4.21,9.4-9.4V145.71H206.15z M196.97,259.99h-34.08c-4.1,0-7.42-3.71-7.42-8.28v-98.76h44.39l-12.61,57.1
				c-0.22,1.24,0.6,2.44,1.85,2.66c1.24,0.23,2.44-0.6,2.66-1.84l12.62-57.17v98.01C204.38,256.29,201.06,259.99,196.97,259.99z"/>
			<g>
				<path class="st14" d="M171.32,145.71c0,11.67-9.46,21.12-21.12,21.12c-11.67,0-21.12-9.46-21.12-21.12
					c0-11.67,9.46-21.12,21.12-21.12C161.87,124.59,171.32,134.05,171.32,145.71z"/>
				<path class="st15" d="M169.16,145.71c0,10.47-8.49,18.96-18.96,18.96c-10.47,0-18.96-8.49-18.96-18.96
					c0-10.47,8.49-18.96,18.96-18.96C160.67,126.75,169.16,135.24,169.16,145.71z"/>
				<g>
					<path class="st16" d="M167.46,145.14c-0.2-5.95-3.39-11.13-8.13-14.09l-7.56,13.76L167.46,145.14z"/>
					<path class="st16" d="M150.2,143.9l8.14-13.44c-2.43-1.3-5.2-2.04-8.14-2.04c-2.94,0-5.71,0.74-8.14,2.04L150.2,143.9z"/>
					<path class="st16" d="M151.77,146.62l7.56,13.76c4.74-2.96,7.93-8.14,8.13-14.09L151.77,146.62z"/>
					<path class="st16" d="M141.07,131.05c-4.74,2.96-7.93,8.14-8.13,14.09l15.69-0.33L141.07,131.05z"/>
					<path class="st16" d="M150.2,147.53l-8.14,13.44c2.43,1.3,5.2,2.04,8.14,2.04c2.94,0,5.71-0.74,8.14-2.04L150.2,147.53z"/>
					<path class="st16" d="M132.94,146.29c0.2,5.95,3.39,11.13,8.13,14.09l7.56-13.76L132.94,146.29z"/>
				</g>
			</g>
			<path class="st17" d="M155.47,152.95v98.76c0,4.57,3.32,8.28,7.42,8.28h34.08c4.09,0,7.42-3.71,7.42-8.28v-98.76H155.47z"/>
			<path class="st18" d="M158.58,152.95v98.76c0,4.57,2.9,8.28,6.47,8.28h29.74c3.57,0,6.48-3.71,6.48-8.28v-98.76H158.58z"/>
			<path class="st17" d="M201.28,152.95h-4.46l-12.74,57.68c-0.22,1.25,0.6,2.44,1.85,2.66c1.24,0.23,2.44-0.6,2.66-1.84
				l12.69-57.49V152.95z"/>
			<path class="st19" d="M206.35,123.56l-19.1,86.49c-0.22,1.24,0.6,2.44,1.85,2.66c1.24,0.23,2.44-0.6,2.66-1.84l19.1-86.49
				L206.35,123.56z"/>
			<path class="st20" d="M155.47,188.9v62.81c0,4.57,3.32,8.28,7.42,8.28h34.08c4.09,0,7.42-3.71,7.42-8.28V188.9H155.47z"/>
			<path class="st21" d="M155.47,216.73v34.98c0,4.57,3.32,8.28,7.42,8.28h34.08c4.09,0,7.42-3.71,7.42-8.28v-34.98H155.47z"/>
			<path class="st16" d="M155.47,236.48v15.23c0,4.57,3.32,8.28,7.42,8.28h34.08c4.09,0,7.42-3.71,7.42-8.28v-15.23H155.47z"/>
			<path class="st22" d="M185.44,194.52c1.06,1.06,1.06,2.79,0,3.85l-9,9c-1.06,1.06-2.79,1.06-3.85,0l-10.09-10.09
				c-1.06-1.07-1.06-2.79,0-3.85l9-9c1.06-1.06,2.79-1.06,3.85,0L185.44,194.52z"/>
			<path class="st22" d="M192.9,215.6c-0.88,0.88-2.31,0.88-3.19,0l-7.47-7.47c-0.88-0.88-0.88-2.31,0-3.19l8.37-8.37
				c0.88-0.88,2.31-0.88,3.19,0l7.47,7.47c0.88,0.88,0.88,2.31,0,3.2L192.9,215.6z"/>
			<path class="st22" d="M179.99,213.76c-0.67,0.67-1.77,0.67-2.45,0l-5.71-5.72c-0.68-0.67-0.68-1.77,0-2.44l6.41-6.41
				c0.68-0.68,1.77-0.68,2.44,0l5.72,5.71c0.68,0.67,0.67,1.77,0,2.44L179.99,213.76z"/>
			<path class="st22" d="M171.88,218.76c-0.67-0.67-0.67-1.76,0-2.43l5.67-5.67c0.67-0.67,1.76-0.67,2.43,0l6.36,6.36
				c0.67,0.67,0.67,1.76,0,2.43l-5.67,5.68c-0.67,0.67-1.76,0.67-2.43,0L171.88,218.76z"/>
			<path class="st16" d="M169.9,225.63c0,2.27-1.84,4.11-4.1,4.11c-2.27,0-4.1-1.84-4.1-4.11c0-2.27,1.84-4.1,4.1-4.1
				C168.06,221.52,169.9,223.36,169.9,225.63z"/>
			<path class="st16" d="M194.89,222.54c0,1.36-1.1,2.46-2.46,2.46c-1.36,0-2.46-1.1-2.46-2.46c0-1.36,1.1-2.46,2.46-2.46
				C193.79,220.08,194.89,221.18,194.89,222.54z"/>
			<path class="st16" d="M184.04,230.14c0,1.36-1.1,2.46-2.46,2.46c-1.36,0-2.46-1.1-2.46-2.46c0-1.36,1.1-2.46,2.46-2.46
				C182.94,227.67,184.04,228.78,184.04,230.14z"/>
			<g>
				<path class="st21" d="M171.32,145.71c0,11.67-9.46,21.12-21.12,21.12c-11.67,0-21.12-9.46-21.12-21.12
					c0-11.67,9.46-21.12,21.12-21.12C161.87,124.59,171.32,134.05,171.32,145.71z"/>
				<path class="st15" d="M169.16,145.71c0,10.47-8.49,18.96-18.96,18.96c-10.47,0-18.96-8.49-18.96-18.96
					c0-10.47,8.49-18.96,18.96-18.96C160.67,126.75,169.16,135.24,169.16,145.71z"/>
				<g>
					<path class="st16" d="M167.46,145.14c-0.2-5.95-3.39-11.13-8.13-14.09l-7.56,13.76L167.46,145.14z"/>
					<path class="st16" d="M150.2,143.9l8.14-13.44c-2.43-1.3-5.2-2.04-8.14-2.04c-2.94,0-5.71,0.74-8.14,2.04L150.2,143.9z"/>
					<path class="st16" d="M151.77,146.62l7.56,13.76c4.74-2.96,7.93-8.14,8.13-14.09L151.77,146.62z"/>
					<path class="st16" d="M141.07,131.05c-4.74,2.96-7.93,8.14-8.13,14.09l15.69-0.33L141.07,131.05z"/>
					<path class="st16" d="M150.2,147.53l-8.14,13.44c2.43,1.3,5.2,2.04,8.14,2.04c2.94,0,5.71-0.74,8.14-2.04L150.2,147.53z"/>
					<path class="st16" d="M132.94,146.29c0.2,5.95,3.39,11.13,8.13,14.09l7.56-13.76L132.94,146.29z"/>
				</g>
			</g>
			<path class="st23" d="M148.94,145.71v112.12c0,5.19,4.21,9.4,9.4,9.4h43.18c5.19,0,9.4-4.21,9.4-9.4V145.71H148.94z
				 M204.38,251.71c0,4.57-3.32,8.28-7.42,8.28h-34.08c-4.1,0-7.42-3.71-7.42-8.28v-98.76h48.91V251.71z"/>
			<g>
				<path class="st24" d="M151.94,257.83V145.71h-3.01v112.12c0,5.19,4.21,9.4,9.4,9.4h3.01
					C156.15,267.23,151.94,263.02,151.94,257.83z"/>
			</g>
		</g>
	</g>
</g>
</svg>
