<?xml version="1.0" encoding="utf-8"?>
<!-- Generator: Adobe Illustrator 23.0.0, SVG Export Plug-In . SVG Version: 6.00 Build 0)  -->
<svg version="1.1" id="Capa_1" xmlns="http://www.w3.org/2000/svg" xmlns:xlink="http://www.w3.org/1999/xlink" x="0px" y="0px"
	 viewBox="0 0 360 363" style="enable-background:new 0 0 360 363;" xml:space="preserve">
<style type="text/css">
	.st0{fill:#FFD084;}
	.st1{fill:none;stroke:#FFE1C0;stroke-width:0.7573;stroke-miterlimit:10;}
	.st2{fill:#FFD6A4;}
	.st3{fill:none;stroke:#FFE1C0;stroke-width:0.75;stroke-miterlimit:10;}
	.st4{fill:#FFE1C0;}
	.st5{fill:none;stroke:#FFD6A4;stroke-width:0.75;stroke-miterlimit:10;}
	.st6{fill:none;stroke:#FFEFE1;stroke-width:0.7478;stroke-miterlimit:10;}
	.st7{fill:#8F7CE5;}
	.st8{fill:#A6A6DD;}
	.st9{fill:#FFE5CC;}
	.st10{fill:none;stroke:#FFD6A4;stroke-miterlimit:10;}
	.st11{clip-path:url(#SVGID_2_);fill:#FFD8AE;}
	.st12{clip-path:url(#SVGID_4_);fill:#FFD8AE;}
	.st13{fill:none;stroke:#FFFFFF;stroke-width:15;stroke-linecap:round;stroke-linejoin:round;stroke-miterlimit:10;}
	.st14{fill:none;stroke:#FFFFFF;stroke-width:12.4139;stroke-linejoin:round;stroke-miterlimit:10;}
	.st15{fill:#F4A519;}
	.st16{fill:#EFAB3C;}
	.st17{fill:#CCCCFF;}
	.st18{fill:#3B000B;}
	.st19{opacity:0.9;}
	.st20{opacity:0.8;fill:#CC9156;enable-background:new    ;}
	.st21{opacity:0.8;fill:#BC7240;enable-background:new    ;}
	.st22{opacity:0.45;}
	.st23{display:none;opacity:0.5;}
	.st24{display:inline;}
	.st25{fill:#FCBC06;}
	.st26{fill:#FFFFFF;}
	.st27{opacity:0.4;fill:#FFFFFF;enable-background:new    ;}
	.st28{opacity:0.1;fill:#3B000B;enable-background:new    ;}
</style>
<g id="fondo">
	<g>
		<g id="Rectángulo_556">
			<rect y="-0.1" class="st0" width="360" height="363.3"/>
			<rect x="0.5" y="0.4" class="st0" width="359" height="362.2"/>
		</g>
		<path class="st1" d="M228.1,258.3c0,0,43.9-35.1,59.7-104.9c15.8-69.8-12.4-91.7-12.4-91.7S254.9,35.3,242,72.3
			c0,0-11.1,37.2-24.4,18.6c0,0-4-5.6-6.5-13c-2.5-7.3-11-10.5-11-10.5s-21.4-7.3-59.4,34.8c0,0-30.9,35.9-25.5,83.1
			s10.5,56.8,10.5,56.8L228.1,258.3z"/>
		<path class="st2" d="M225.9,271.1c0,0,43.1-35.1,58.6-104.9s-12.2-91.7-12.2-91.7s-20.1-26.4-32.8,10.6c0,0-10.9,37.2-23.9,18.6
			c0,0-3.9-5.6-6.4-13c-2.5-7.3-10.8-10.5-10.8-10.5s-21-7.3-58.2,34.8c0,0-30.3,35.9-25,83.1s10.3,56.8,10.3,56.8L225.9,271.1z"/>
		<path class="st3" d="M114.9,245.6c0,0-61.2-54.4-49.7-80.4s30.9-7.5,30.9-7.5s25.7,22.6,47.9,63.9L114.9,245.6z"/>
		<path class="st2" d="M115.8,249.7c0,0-54.1-58.6-42.6-84.6s30.9-7.5,30.9-7.5s25.7,22.6,47.9,63.9L115.8,249.7z"/>
		<path class="st4" d="M206.4,265c0,0,41.3-44.5,60.9-102.7c0,0,11.1-34-2.3-60c0,0-8.2-25.8-29.3,14.8S206.3,129,206.3,129
			s-8.1-59.5-44-15.2s-22.9,140.1-22.9,140.1L206.4,265z"/>
		<path class="st5" d="M191.1,241.3c0,0,54.3-73,68-155.4"/>
		<path class="st6" d="M195.3,266c0,0,33.9-33.6,51.3-78.9c0,0,9.9-26.5,0.3-47.4c0,0-5.5-20.6-23.5,10.6s-23.4,8.4-23.4,8.4
			s-4.3-47.2-33.9-13.5s-22.8,109.6-22.8,109.6L195.3,266z"/>
		<g>
			
				<ellipse transform="matrix(1 -1.876229e-03 1.876229e-03 1 -0.526 0.338)" class="st7" cx="179.9" cy="280.5" rx="102.6" ry="21.4"/>
			<polygon class="st7" points="282.5,280.3 282.7,266.4 77.5,266.8 77.3,280.7 			"/>
			
				<ellipse transform="matrix(1 -1.876229e-03 1.876229e-03 1 -0.4999 0.3384)" class="st8" cx="180.1" cy="266.6" rx="102.6" ry="21.4"/>
		</g>
		<path class="st3" d="M239.7,220.4c0,0,41.8-19.1,39.9,9s-53,30.9-53,30.9s-15.5-0.3-14.5-10.3C213.2,240,218.5,230.9,239.7,220.4z
			"/>
		<path class="st9" d="M229.9,222.9c0,0,37.6-26.4,40.9,1.5c3.2,27.9-46.4,40.1-46.4,40.1S209,267,208.2,257
			C207.3,247,211,237.1,229.9,222.9z"/>
		<path class="st10" d="M208.2,257c0,0,44.4-19.6,65.3-41.4"/>
		<g>
			<g>
				<g>
					<g>
						<g>
							<defs>
								<path id="SVGID_1_" d="M229.9,222.9c0,0,37.6-26.4,40.9,1.5c3.2,27.9-46.4,40.1-46.4,40.1S209,267,208.2,257
									C207.3,247,211,237.1,229.9,222.9z"/>
							</defs>
							<clipPath id="SVGID_2_">
								<use xlink:href="#SVGID_1_"  style="overflow:visible;"/>
							</clipPath>
							<path class="st11" d="M240.9,211.5c0,0-27.3,46.6,4.8,50c21.5,2.3-22.9,11.5-22.9,11.5l-20.3-4.6l-1.3-29l20-22.9
								L240.9,211.5z"/>
						</g>
					</g>
				</g>
			</g>
		</g>
		<g>
			<path class="st9" d="M128.2,225.7c0,0-34.9-21.9-37.3,9.5c0,0,6.5,28.1,39.9,22.4C164.1,251.8,128.2,225.7,128.2,225.7z"/>
		</g>
		<path class="st10" d="M143,248.3c0,0-40.9-21-62.4-13.1"/>
		<g>
			<g>
				<g>
					<g>
						<g>
							<defs>
								<path id="SVGID_3_" d="M128.2,225.7c0,0-34.9-21.9-37.3,9.5c0,0,6.5,28.1,39.9,22.4C164.1,251.8,128.2,225.7,128.2,225.7z"
									/>
							</defs>
							<clipPath id="SVGID_4_">
								<use xlink:href="#SVGID_3_"  style="overflow:visible;"/>
							</clipPath>
							<path class="st12" d="M124.1,218.3h-4h-3.6c0,0,17.6,26,9.4,34.6c-8.2,8.6-9.4,6.7-9.4,6.7l19.6,1.8l15.9-7.2l1.2-14.3
								l-16-11.9L124.1,218.3z"/>
						</g>
					</g>
				</g>
			</g>
		</g>
		<path class="st3" d="M84.5,161.6c0,0,21.6,45.3,54.6,70.4"/>
		<path class="st3" d="M103.9,163.3c0,0-5.4,4-7,10.8"/>
		<path class="st3" d="M108.2,171.4c0,0-5.3,5.3-6,14.2"/>
		<path class="st3" d="M96.9,190.4c0,0-6.3-0.5-14.9,3.7"/>
		<path class="st3" d="M102.2,196.8c0,0-10.9,0.4-15.6,3.7"/>
		<path class="st2" d="M109.5,107.7c0.1,4-3.4,7.8-6.2,10.4c-1-2.4-1.9-5-2-7.6c-0.1-2,0.7-4,2.2-5.3c0.5-0.4,1-0.8,1.7-0.9
			c0.4-0.1,0.7-0.2,1.1-0.2C108,104.3,109.4,105.9,109.5,107.7z"/>
		<path class="st2" d="M81.9,123.8c-3.1,0.3-9-1.1-11.6-3.2c-2.3-1.7-2.3-2.2-3.4-4.9c-1-2.7,0.6-5.9,3.6-6.2
			c1.5-0.2,3.1,0.2,4.3,1.1C79.1,113.4,82.6,118.4,81.9,123.8z"/>
		<path class="st4" d="M105.6,142.4c-1.9,1.1-5-0.2-4.7-2.6c-0.2-2.8,4.1-3.8,5.6-1.6C107.5,139.5,106.9,141.6,105.6,142.4z"/>
		<path class="st4" d="M319.5,85.1c-2.6,1.4-6.6-0.3-6.3-3.5c-0.2-3.8,5.5-5.1,7.4-2.1C322,81.2,321.3,83.9,319.5,85.1z"/>
		<path class="st2" d="M328.9,297.3c-3.1,1.7-7.9-0.3-7.6-4.2c-0.3-4.5,6.6-6.1,8.9-2.5C331.9,292.6,331,295.9,328.9,297.3z"/>
		<path class="st4" d="M286.4,309c-2,1.1-5.2-0.2-5-2.8c-0.2-3,4.3-4,5.8-1.7C288.4,305.9,287.9,308.1,286.4,309z"/>
		<path class="st2" d="M61.9,244.7c-2.6,1.4-6.6-0.3-6.3-3.5c-0.2-3.8,5.5-5.1,7.4-2.1C64.4,240.8,63.7,243.5,61.9,244.7z"/>
		
			<ellipse transform="matrix(0.3506 -0.9365 0.9365 0.3506 -94.3859 226.7597)" class="st9" cx="116.3" cy="181.4" rx="2.7" ry="1.7"/>
		
			<ellipse transform="matrix(0.3506 -0.9365 0.9365 0.3506 -102.8036 234.9936)" class="st9" cx="118" cy="191.6" rx="2.7" ry="1.7"/>
		
			<ellipse transform="matrix(0.3506 -0.9365 0.9365 0.3506 -131.6409 232.946)" class="st0" cx="102.2" cy="211.4" rx="3" ry="1.8"/>
	</g>
</g>
<path class="st13" d="M208.4,143.8h-0.1H208.4l-13.3-0.1v0.1h-17l0.3-20.4l-3.2-0.1l-0.3,20.5h-32l3,103.4
	c0.2,6.4,5.4,11.5,11.8,11.5h35.8c2.4,0,4.7-0.7,6.6-2c0.1-0.1,0.3-0.2,0.4-0.3c0.1-0.1,0.3-0.2,0.4-0.3c1.2-0.9,2.1-2,2.9-3.3
	c1-1.6,1.5-3.5,1.6-5.5L208.4,143.8z"/>
<g>
	<g>
		<path class="st14" d="M213.2,119.9c-4.9-2.7-15-6.9-19.6-1.6c-2.5,2.9-1.1,9.1,0.5,11.9c2.3,4.1,9.9,12.6,15.6,10
			c2.9-1.3,3.2-6.8,1.7-9.3c-3.1-5-13.1-5.5-18-4.7c-6.3,1.1-8,4.8-7.9,10.7c0.1,6.6,5.3,14,12.1,15.3c4.2,0.8,5.7-3.8,4.1-7.3
			c-2.4-5-13.6-5.3-17.9-4.2c-5.5,1.3-6,6.1-5.3,11c-0.2-1.3,0.2-2.7,0-4c0.4,2.2,0,0.4,1.1-0.9c0.8-0.9,1.7-1.3,2.8-1.7
			c2.4-0.9,5.2-1,7.7-0.7c2.9,0.3,11.5,1.3,11.7,5.4c0-1.3,0-2.7,0-3.9c-0.7,4.1-6.2,1.7-8.3,0.5c-4.2-2.6-8.2-7.4-8.2-12.5
			c0,1.1,0,2.3,0,3.4c0.7-6.7,7.7-7.8,13.4-7.4c3.9,0.3,12.5,1.5,13.2,6.7c0-1.3,0-2.7,0-3.9c-0.3,5.9-7.6,3.2-10.4,1.3
			c-4.1-2.8-8.6-7.4-9.1-12.7c0,1.1,0,2.3,0,3.4c0.1-5,7.2-5.2,10.6-4.6c3.5,0.6,7.1,1.9,10.1,3.6
			C212.6,123.6,213.8,120.1,213.2,119.9L213.2,119.9z"/>
	</g>
	<g>
		<path class="st14" d="M213.2,119.9c-4.9-2.7-15-6.9-19.6-1.6c-2.5,2.9-1.1,9.1,0.5,11.9c2.3,4.1,9.9,12.6,15.6,10
			c2.9-1.3,3.2-6.8,1.7-9.3c-3.1-5-13.1-5.5-18-4.7c-6.3,1.1-8,4.8-7.9,10.7c0.1,6.6,5.3,14,12.1,15.3c4.2,0.8,5.7-3.8,4.1-7.3
			c-2.4-5-13.6-5.3-17.9-4.2c-5.5,1.3-6,6.1-5.3,11c-0.2-1.3,0.2-2.7,0-4c0.4,2.2,0,0.4,1.1-0.9c0.8-0.9,1.7-1.3,2.8-1.7
			c2.4-0.9,5.2-1,7.7-0.7c2.9,0.3,11.5,1.3,11.7,5.4c0-1.3,0-2.7,0-3.9c-0.7,4.1-6.2,1.7-8.3,0.5c-4.2-2.6-8.2-7.4-8.2-12.5
			c0,1.1,0,2.3,0,3.4c0.7-6.7,7.7-7.8,13.4-7.4c3.9,0.3,12.5,1.5,13.2,6.7c0-1.3,0-2.7,0-3.9c-0.3,5.9-7.6,3.2-10.4,1.3
			c-4.1-2.8-8.6-7.4-9.1-12.7c0,1.1,0,2.3,0,3.4c0.1-5,7.2-5.2,10.6-4.6c3.5,0.6,7.1,1.9,10.1,3.6
			C212.6,123.6,213.8,120.1,213.2,119.9L213.2,119.9z"/>
	</g>
</g>
<g>
	<g>
		<g>
			<g>
				<g>
					<g>
						<path class="st15" d="M213.2,119.9c-4.9-2.7-15-6.9-19.6-1.6c-2.5,2.9-1.1,9.1,0.5,11.9c2.3,4.1,9.9,12.6,15.6,10
							c2.9-1.3,3.2-6.8,1.7-9.3c-3.1-5-13.1-5.5-18-4.7c-6.3,1.1-8,4.8-7.9,10.7c0.1,6.6,5.3,14,12.1,15.3c4.2,0.8,5.7-3.8,4.1-7.3
							c-2.4-5-13.6-5.3-17.9-4.2c-5.5,1.3-6,6.1-5.3,11c-0.2-1.3,0.2-2.7,0-4c0.4,2.2,0,0.4,1.1-0.9c0.8-0.9,1.7-1.3,2.8-1.7
							c2.4-0.9,5.2-1,7.7-0.7c2.9,0.3,11.5,1.3,11.7,5.4c0-1.3,0-2.7,0-3.9c-0.7,4.1-6.2,1.7-8.3,0.5c-4.2-2.6-8.2-7.4-8.2-12.5
							c0,1.1,0,2.3,0,3.4c0.7-6.7,7.7-7.8,13.4-7.4c3.9,0.3,12.5,1.5,13.2,6.7c0-1.3,0-2.7,0-3.9c-0.3,5.9-7.6,3.2-10.4,1.3
							c-4.1-2.8-8.6-7.4-9.1-12.7c0,1.1,0,2.3,0,3.4c0.1-5,7.2-5.2,10.6-4.6c3.5,0.6,7.1,1.9,10.1,3.6
							C212.6,123.6,213.8,120.1,213.2,119.9L213.2,119.9z"/>
					</g>
				</g>
				<g>
					<g>
						<path class="st16" d="M213.2,119.9c-4.9-2.7-15-6.9-19.6-1.6c-2.5,2.9-1.1,9.1,0.5,11.9c2.3,4.1,9.9,12.6,15.6,10
							c2.9-1.3,3.2-6.8,1.7-9.3c-3.1-5-13.1-5.5-18-4.7c-6.3,1.1-8,4.8-7.9,10.7c0.1,6.6,5.3,14,12.1,15.3c4.2,0.8,5.7-3.8,4.1-7.3
							c-2.4-5-13.6-5.3-17.9-4.2c-5.5,1.3-6,6.1-5.3,11c-0.2-1.3,0.2-2.7,0-4c0.4,2.2,0,0.4,1.1-0.9c0.8-0.9,1.7-1.3,2.8-1.7
							c2.4-0.9,5.2-1,7.7-0.7c2.9,0.3,11.5,1.3,11.7,5.4c0-1.3,0-2.7,0-3.9c-0.7,4.1-6.2,1.7-8.3,0.5c-4.2-2.6-8.2-7.4-8.2-12.5
							c0,1.1,0,2.3,0,3.4c0.7-6.7,7.7-7.8,13.4-7.4c3.9,0.3,12.5,1.5,13.2,6.7c0-1.3,0-2.7,0-3.9c-0.3,5.9-7.6,3.2-10.4,1.3
							c-4.1-2.8-8.6-7.4-9.1-12.7c0,1.1,0,2.3,0,3.4c0.1-5,7.2-5.2,10.6-4.6c3.5,0.6,7.1,1.9,10.1,3.6
							C212.6,123.6,213.8,120.1,213.2,119.9L213.2,119.9z"/>
					</g>
				</g>
			</g>
			<path class="st17" d="M193.5,258.7h-35.8c-6.4,0-11.6-5.1-11.8-11.5l-3-103.4h65.5l-3,103.4C205.1,253.6,199.9,258.7,193.5,258.7
				z"/>
			<g>
				<g>
					<polygon class="st18" points="173.3,239.3 175.2,123.3 178.4,123.4 176.5,239.4 					"/>
				</g>
			</g>
			<g class="st19">
				<path class="st20" d="M149.3,148.5l1.4,79c0.3,12,10.4,21.8,22.5,21.8h4.9c12,0,22.1-9.8,22.5-21.8l1.4-79H149.3z"/>
				<path class="st21" d="M150.1,190.5l0.7,36.9c0.3,12,10.4,21.8,22.5,21.8h4.9c12,0,22.1-9.8,22.5-21.8l0.6-36.9H150.1z"/>
			</g>
			<g class="st22">
				<g class="st23">
					<g class="st24">
						<g>
							<path class="st25" d="M179.5,248.8l21.6-24.1c-6.6-6-16.9-5.4-22.8,1.2C172.3,232.7,172.8,242.9,179.5,248.8z"/>
							<path class="st26" d="M181.2,246.9l18-20.1c-5.6-5-14.1-4.5-19.1,1C175.2,233.3,175.7,241.9,181.2,246.9z"/>
						</g>
						<path class="st25" d="M181.3,228.8c-1.2,1.4-1.4,1.7-1.4,1.7c-0.3,0.7,0.1,1.6,0.8,1.9l6.9,2.6c0.7,0.3,1,0,0.6-0.7l-3.4-6.5
							c-0.4-0.7-1.3-0.9-2-0.6C182.9,227.3,182.6,227.4,181.3,228.8z"/>
						<path class="st25" d="M178.3,237.5c0.1,1.9,0.3,2.2,0.3,2.2c0.3,0.7,1.2,1.1,1.9,0.8l6.7-3c0.7-0.3,0.7-0.7,0-0.9l-7-2.2
							c-0.7-0.2-1.6,0.2-1.8,1C178.3,235.3,178.2,235.6,178.3,237.5z"/>
						<path class="st25" d="M189.6,224.8c-1.9,0.1-2.2,0.3-2.2,0.3c-0.7,0.3-1,1.2-0.8,1.9l3,6.7c0.3,0.7,0.7,0.7,0.9,0l2.2-7
							c0.2-0.7-0.2-1.6-1-1.8C191.8,224.8,191.5,224.7,189.6,224.8z"/>
						<path class="st25" d="M180.7,244.2c0,0,0.2,0.3,1.6,1.6l6.3-7c-0.1-0.1-0.4-0.1-0.7,0.1l-6.5,3.4
							C180.6,242.6,180.3,243.5,180.7,244.2z"/>
						<path class="st25" d="M194.7,227.3l-2.6,6.9c-0.2,0.4-0.2,0.6,0,0.7l6.3-7c-1.4-1.2-1.7-1.4-1.7-1.4
							C195.8,226.2,195,226.6,194.7,227.3z"/>
					</g>
					<g class="st24">
						<g>
							<path class="st25" d="M153.3,199.2l16.2,27.9c7.7-4.5,10.3-14.4,5.8-22.1C170.9,197.3,161.1,194.7,153.3,199.2z"/>
							<path class="st26" d="M154.7,201.5l13.6,23.4c6.5-3.8,8.6-12,4.9-18.5C169.4,199.9,161.1,197.7,154.7,201.5z"/>
						</g>
						<path class="st25" d="M171.8,207.1c-0.9-1.6-1.2-1.8-1.2-1.8c-0.6-0.5-1.5-0.4-2,0.2l-4.6,5.7c-0.5,0.6-0.3,0.9,0.4,0.8
							l7.3-1.2c0.8-0.2,1.3-0.9,1.2-1.7C172.8,209.1,172.8,208.8,171.8,207.1z"/>
						<path class="st25" d="M164.5,201.6c-1.8-0.5-2.2-0.4-2.2-0.4c-0.8,0.1-1.4,0.8-1.3,1.6l0.8,7.3c0.1,0.8,0.4,0.9,0.9,0.2l4.3-6
							c0.4-0.6,0.3-1.5-0.4-2C166.6,202.3,166.3,202.1,164.5,201.6z"/>
						<path class="st25" d="M173.1,216.2c0.5-1.8,0.4-2.2,0.4-2.2c-0.1-0.8-0.8-1.4-1.6-1.3l-7.3,0.8c-0.8,0-0.9,0.4-0.2,0.9l6,4.3
							c0.6,0.4,1.5,0.3,2-0.4C172.4,218.3,172.6,218,173.1,216.2z"/>
						<path class="st25" d="M157.4,201.8c0,0-0.4,0.1-2,1l4.7,8.1c0.1-0.1,0.2-0.3,0.1-0.7l-1.2-7.3
							C158.9,202.2,158.2,201.7,157.4,201.8z"/>
						<path class="st25" d="M169.2,220.3l-5.7-4.6c-0.3-0.3-0.5-0.3-0.7-0.3l4.7,8.1c1.6-0.9,1.8-1.2,1.8-1.2
							C169.8,221.7,169.7,220.8,169.2,220.3z"/>
					</g>
					<g class="st24">
						<g>
							<path class="st25" d="M195.2,175.1l-20.1,25.3c7,5.5,17.1,4.4,22.7-2.6C203.4,190.8,202.2,180.6,195.2,175.1z"/>
							<path class="st26" d="M193.6,177.1l-16.8,21.2c5.8,4.6,14.4,3.7,19-2.2C200.4,190.3,199.4,181.8,193.6,177.1z"/>
						</g>
						<path class="st25" d="M194.6,195.2c1.2-1.5,1.3-1.8,1.3-1.8c0.2-0.7-0.2-1.6-0.9-1.8l-7-2.2c-0.7-0.3-1,0-0.6,0.7l3.8,6.3
							c0.4,0.6,1.3,0.9,2,0.5C193.1,196.8,193.4,196.6,194.6,195.2z"/>
						<path class="st25" d="M197.1,186.4c-0.2-1.8-0.4-2.2-0.4-2.2c-0.4-0.7-1.2-1-1.9-0.7l-6.5,3.4c-0.7,0.3-0.7,0.7,0.1,0.9
							l7.1,1.8c0.8,0.2,1.5-0.3,1.7-1.1C197.2,188.6,197.3,188.2,197.1,186.4z"/>
						<path class="st25" d="M186.6,199.6c1.8-0.2,2.2-0.4,2.2-0.4c0.7-0.4,1-1.2,0.7-1.9l-3.4-6.5c-0.3-0.7-0.7-0.7-0.9,0.1
							l-1.8,7.1c-0.2,0.8,0.3,1.5,1.1,1.7C184.4,199.8,184.7,199.9,186.6,199.6z"/>
						<path class="st25" d="M194.3,179.8c0,0-0.2-0.3-1.6-1.5l-5.9,7.4c0.1,0.1,0.4,0.1,0.7-0.2l6.3-3.8
							C194.5,181.4,194.7,180.5,194.3,179.8z"/>
						<path class="st25" d="M181.4,197.5l2.2-7c0.1-0.4,0.1-0.6,0-0.7l-5.8,7.4c1.5,1.2,1.8,1.3,1.8,1.3
							C180.3,198.6,181.1,198.2,181.4,197.5z"/>
					</g>
				</g>
				<g>
					
						<rect x="175.3" y="172.5" transform="matrix(6.697818e-03 -1 1 6.697818e-03 1.553 366.8224)" class="st27" width="20.2" height="20.2"/>
					
						<rect x="177.4" y="202.6" transform="matrix(0.7783 -0.6278 0.6278 0.7783 -91.9722 164.8683)" class="st27" width="20.2" height="20.2"/>
					
						<rect x="157.4" y="190.4" transform="matrix(0.7783 -0.6278 0.6278 0.7783 -88.7633 149.6006)" class="st27" width="20.2" height="20.2"/>
					
						<rect x="159.6" y="157.2" transform="matrix(0.7783 -0.6278 0.6278 0.7783 -67.4546 143.6145)" class="st27" width="20.2" height="20.2"/>
					
						<rect x="162" y="220.2" transform="matrix(0.6401 -0.7683 0.7683 0.6401 -115.028 215.1215)" class="st27" width="20.2" height="20.2"/>
				</g>
			</g>
			<path class="st28" d="M195.1,143.7l-3.4,114.9h2c6.3,0,11.4-5,11.6-11.3l3-103.6L195.1,143.7L195.1,143.7z"/>
		</g>
	</g>
</g>
</svg>
