<?xml version="1.0" encoding="utf-8"?>
<!-- Generator: Adobe Illustrator 23.0.0, SVG Export Plug-In . SVG Version: 6.00 Build 0)  -->
<svg version="1.1" xmlns="http://www.w3.org/2000/svg" xmlns:xlink="http://www.w3.org/1999/xlink" x="0px" y="0px"
	 viewBox="0 0 360 363" style="enable-background:new 0 0 360 363;" xml:space="preserve">
<style type="text/css">
	.st0{fill:#FFD084;}
	.st1{fill:none;stroke:#FFE1C0;stroke-width:0.7573;stroke-miterlimit:10;}
	.st2{fill:#FFD6A4;}
	.st3{fill:none;stroke:#FFE1C0;stroke-width:0.75;stroke-miterlimit:10;}
	.st4{fill:#FFE1C0;}
	.st5{fill:none;stroke:#FFD6A4;stroke-width:0.75;stroke-miterlimit:10;}
	.st6{fill:none;stroke:#FFEFE1;stroke-width:0.7478;stroke-miterlimit:10;}
	.st7{fill:#8F7CE5;}
	.st8{fill:#A6A6DD;}
	.st9{fill:#FFE5CC;}
	.st10{fill:none;stroke:#FFD6A4;stroke-miterlimit:10;}
	.st11{clip-path:url(#SVGID_2_);fill:#FFD8AE;}
	.st12{clip-path:url(#SVGID_4_);fill:#FFD8AE;}
	.st13{fill:none;stroke:#FFFFFF;stroke-width:17.4135;stroke-linejoin:round;stroke-miterlimit:10;}
	.st14{fill:#3D9EC1;}
	.st15{fill:#78C9E9;}
	.st16{fill:#E5D3BD;}
	.st17{fill:#A36133;}
	.st18{fill:#834012;}
	.st19{fill:#642D08;}
	.st20{opacity:0.4;fill:#FFFFFF;}
	.st21{fill:#CCCCFF;}
	.st22{fill:#DBDBFC;}
	.st23{fill:#9B5729;}
</style>
<g id="fondo">
	<g id="Rectángulo_556">
		<rect y="-0.14" class="st0" width="360" height="363.28"/>
		<rect x="0.5" y="0.4" class="st0" width="359" height="362.19"/>
	</g>
	<path class="st1" d="M228.09,263.29c0,0,43.95-35.13,59.71-104.93c15.76-69.8-12.42-91.67-12.42-91.67s-20.54-26.38-33.44,10.62
		c0,0-11.15,37.16-24.36,18.58c0,0-3.98-5.62-6.53-12.96c-2.55-7.34-10.99-10.46-10.99-10.46s-21.42-7.34-59.39,34.82
		c0,0-30.89,35.91-25.48,83.07c5.41,47.16,10.51,56.84,10.51,56.84L228.09,263.29z"/>
	<path class="st2" d="M225.9,276.06c0,0,43.1-35.13,58.56-104.93s-12.18-91.67-12.18-91.67s-20.14-26.38-32.79,10.62
		c0,0-10.93,37.16-23.89,18.58c0,0-3.9-5.62-6.4-12.96c-2.5-7.34-10.77-10.46-10.77-10.46s-21-7.34-58.24,34.82
		c0,0-30.29,35.91-24.98,83.07c5.31,47.16,10.31,56.84,10.31,56.84L225.9,276.06z"/>
	<path class="st3" d="M114.92,250.56c0,0-61.21-54.38-49.73-80.38s30.92-7.5,30.92-7.5s25.74,22.64,47.94,63.87L114.92,250.56z"/>
	<path class="st2" d="M115.82,254.74c0,0-54.11-58.56-42.63-84.56s30.92-7.5,30.92-7.5s25.74,22.64,47.94,63.87L115.82,254.74z"/>
	<path class="st4" d="M206.38,269.97c0,0,41.28-44.47,60.9-102.75c0,0,11.09-34.04-2.26-60.04c0,0-8.2-25.76-29.28,14.76
		s-29.36,11.95-29.36,11.95s-8.12-59.49-43.96-15.22s-22.88,140.07-22.88,140.07L206.38,269.97z"/>
	<path class="st5" d="M191.09,246.3c0,0,54.35-73,68.03-155.44"/>
	<path class="st6" d="M195.3,270.97c0,0,33.9-33.63,51.3-78.9c0,0,9.87-26.45,0.31-47.41c0,0-5.53-20.59-23.46,10.62
		s-23.42,8.4-23.42,8.4s-4.3-47.18-33.92-13.52S143.31,259.8,143.31,259.8L195.3,270.97z"/>
	<g>
		
			<ellipse transform="matrix(1 -1.876257e-03 1.876257e-03 1 -0.5354 0.338)" class="st7" cx="179.88" cy="285.51" rx="102.63" ry="21.37"/>
		<polygon class="st7" points="282.51,285.31 282.74,271.39 77.49,271.78 77.26,285.7 		"/>
		
			<ellipse transform="matrix(1 -1.876257e-03 1.876257e-03 1 -0.5092 0.3384)" class="st8" cx="180.12" cy="271.58" rx="102.63" ry="21.37"/>
	</g>
	<path class="st3" d="M239.72,225.43c0,0,41.81-19.06,39.89,8.95s-52.97,30.93-52.97,30.93s-15.52-0.28-14.51-10.31
		C213.15,244.99,218.53,235.95,239.72,225.43z"/>
	<path class="st9" d="M229.87,227.88c0,0,37.63-26.37,40.86,1.51c3.23,27.89-46.43,40.09-46.43,40.09s-15.31,2.56-16.14-7.48
		C207.32,251.96,210.96,242.09,229.87,227.88z"/>
	<path class="st10" d="M208.16,262c0,0,44.37-19.59,65.33-41.4"/>
	<g>
		<defs>
			<path id="SVGID_1_" d="M229.87,227.88c0,0,37.63-26.37,40.86,1.51c3.23,27.89-46.43,40.09-46.43,40.09s-15.31,2.56-16.14-7.48
				C207.32,251.96,210.96,242.09,229.87,227.88z"/>
		</defs>
		<clipPath id="SVGID_2_">
			<use xlink:href="#SVGID_1_"  style="overflow:visible;"/>
		</clipPath>
		<path class="st11" d="M240.93,216.47c0,0-27.33,46.61,4.77,50.04c21.51,2.3-22.88,11.47-22.88,11.47l-20.33-4.59l-1.26-29.05
			l20.04-22.86L240.93,216.47z"/>
	</g>
	<g>
		<path class="st9" d="M128.22,230.7c0,0-34.92-21.87-37.3,9.46c0,0,6.53,28.07,39.88,22.37S128.22,230.7,128.22,230.7z"/>
	</g>
	<path class="st10" d="M142.99,253.29c0,0-40.86-21.01-62.36-13.12"/>
	<g>
		<defs>
			<path id="SVGID_3_" d="M128.22,230.7c0,0-34.92-21.87-37.3,9.46c0,0,6.53,28.07,39.88,22.37S128.22,230.7,128.22,230.7z"/>
		</defs>
		<clipPath id="SVGID_4_">
			<use xlink:href="#SVGID_3_"  style="overflow:visible;"/>
		</clipPath>
		<path class="st12" d="M124.11,223.27h-3.96h-3.6c0,0,17.64,25.99,9.36,34.63c-8.28,8.64-9.36,6.66-9.36,6.66l19.62,1.8l15.87-7.2
			l1.23-14.34l-16-11.87L124.11,223.27z"/>
	</g>
	<path class="st3" d="M84.49,166.62c0,0,21.56,45.33,54.64,70.39"/>
	<path class="st3" d="M103.9,168.26c0,0-5.38,4.01-7.03,10.8"/>
	<path class="st3" d="M108.15,176.42c0,0-5.28,5.28-6,14.16"/>
	<path class="st3" d="M96.87,195.38c0,0-6.26-0.51-14.88,3.65"/>
	<path class="st3" d="M102.15,201.82c0,0-10.93,0.42-15.6,3.7"/>
	<path class="st2" d="M109.46,112.71c0.11,4.02-3.42,7.77-6.2,10.45c-0.99-2.43-1.86-5.01-1.96-7.63c-0.08-1.99,0.66-3.98,2.15-5.31
		c0.48-0.42,1.02-0.76,1.68-0.9c0.36-0.14,0.73-0.18,1.09-0.15C108.03,109.31,109.42,110.9,109.46,112.71z"/>
	<path class="st2" d="M81.91,128.79c-3.13,0.34-9.01-1.11-11.62-3.25c-2.28-1.66-2.35-2.23-3.36-4.91
		c-1.04-2.74,0.64-5.88,3.55-6.22c1.5-0.17,3.06,0.17,4.32,1.09C79.06,118.44,82.58,123.4,81.91,128.79z"/>
	<path class="st4" d="M105.58,147.42c-1.93,1.07-4.96-0.2-4.73-2.63c-0.17-2.84,4.14-3.82,5.55-1.58
		C107.46,144.5,106.93,146.55,105.58,147.42z"/>
	<path class="st4" d="M319.47,90.09c-2.57,1.42-6.63-0.27-6.32-3.51c-0.23-3.8,5.53-5.1,7.42-2.11
		C321.98,86.2,321.27,88.93,319.47,90.09z"/>
	<path class="st2" d="M328.87,302.27c-3.08,1.7-7.93-0.33-7.56-4.2c-0.28-4.55,6.62-6.11,8.88-2.52
		C331.87,297.61,331.02,300.88,328.87,302.27z"/>
	<path class="st4" d="M286.44,314.01c-2.02,1.12-5.2-0.21-4.96-2.75c-0.18-2.98,4.34-4.01,5.83-1.66
		C288.41,310.95,287.85,313.1,286.44,314.01z"/>
	<path class="st2" d="M61.9,249.68c-2.57,1.42-6.63-0.27-6.32-3.51c-0.23-3.8,5.53-5.1,7.42-2.11
		C64.41,245.78,63.71,248.52,61.9,249.68z"/>
	
		<ellipse transform="matrix(0.3506 -0.9365 0.9365 0.3506 -99.1579 230.057)" class="st9" cx="116.32" cy="186.53" rx="2.74" ry="1.69"/>
	
		<ellipse transform="matrix(0.3506 -0.9365 0.9365 0.3506 -107.5172 238.2546)" class="st9" cx="118.05" cy="196.66" rx="2.74" ry="1.69"/>
	
		<ellipse transform="matrix(0.3506 -0.9365 0.9365 0.3506 -136.4276 236.2571)" class="st0" cx="102.15" cy="216.51" rx="2.97" ry="1.83"/>
</g>
<g id="Capa_4">
	<g>
		<path class="st13" d="M147.12,163.01h-3.01l8.2,93.61c0.56,6.34,4.48,11.28,8.78,11.28h2.22h33.6c4.31,0,8.23-4.95,8.79-11.28
			l8.2-93.61H147.12z M200.6,248.79c-0.41,5.89-3.56,10.5-7.06,10.5h-29.09c-3.5,0-6.65-4.61-7.06-10.5l-4.9-76.09l53.01,0
			L200.6,248.79z"/>
		<path class="st14" d="M150.38,172.17l5.63,78.25c0.46,6.22,3.83,11.09,7.54,11.09h30.88c3.71,0,7.08-4.86,7.54-11.09l5.63-78.25
			L150.38,172.17z"/>
		<path class="st15" d="M154.02,172.17l4.92,78.25c0.4,6.22,3.34,11.09,6.58,11.09h26.96c3.24,0,6.18-4.86,6.59-11.09l4.92-78.25
			L154.02,172.17z"/>
		<path class="st16" d="M151.37,185.83c-0.66-4.96,1.43,19.51,1.4,19.51l3.24,45.07c0.46,6.22,3.83,11.09,7.54,11.09h30.88
			c3.71,0,7.08-4.86,7.54-11.09l5.13-64.58H151.37z"/>
		<path class="st17" d="M152.85,205.35c-0.03,0-0.05-0.01-0.08-0.01l3.24,45.07c0.46,6.22,3.83,11.09,7.54,11.09h30.88
			c3.71,0,7.08-4.86,7.54-11.09l3.24-45.06H152.85z"/>
		<path class="st18" d="M153.52,216.68l2.49,33.74c0.46,6.22,3.83,11.09,7.54,11.09h30.88c3.71,0,7.08-4.86,7.54-11.09l2.49-33.74
			H153.52z"/>
		<path class="st19" d="M155.29,240.65l0.72,9.77c0.46,6.22,3.83,11.09,7.54,11.09h30.88c3.71,0,7.08-4.86,7.54-11.09l0.72-9.77
			H155.29z"/>
		<path class="st19" d="M152.85,205.35c-0.03,0-0.05-0.01-0.08-0.01C152.8,205.35,152.82,205.35,152.85,205.35l52.38,0l-8.09,41.67
			c-0.87,4.41-3.77,7.69-6.55,7.69h-23.17c-2.79,0-5.69-3.28-6.56-7.69l-8.09-41.68l3.24,45.07c0.46,6.22,3.83,11.09,7.54,11.09
			h30.88c3.71,0,7.08-4.86,7.54-11.09l3.24-45.06H152.85z"/>
		<path class="st20" d="M183.61,208.9c1.07,1.24,1.07,3.24,0,4.48l-9.05,10.47c-1.07,1.24-2.8,1.24-3.87,0l-10.15-11.74
			c-1.07-1.24-1.07-3.24,0-4.48l9.06-10.47c1.07-1.24,2.8-1.24,3.87,0L183.61,208.9z"/>
		<path class="st20" d="M181.44,191.86c1.02,1.18,1.02,3.08,0,4.26l-8.61,9.96c-1.02,1.18-2.67,1.18-3.68,0l-9.65-11.16
			c-1.02-1.18-1.02-3.08,0-4.26l8.61-9.96c1.02-1.18,2.66-1.18,3.68,0L181.44,191.86z"/>
		<path class="st20" d="M188.91,214.22c-1.14,1.32-2.99,1.32-4.13,0l-9.65-11.16c-1.14-1.32-1.14-3.46,0-4.77l10.82-12.52
			c1.14-1.32,2.99-1.32,4.13,0l9.65,11.16c1.14,1.32,1.14,3.46,0,4.78L188.91,214.22z"/>
		<path class="st21" d="M144.11,163.01l8.2,93.61c0.56,6.34,4.48,11.28,8.78,11.28h35.82c4.31,0,8.23-4.95,8.79-11.28l8.2-93.61
			H144.11z M200.6,248.79c-0.41,5.89-3.56,10.5-7.06,10.5h-29.09c-3.5,0-6.65-4.61-7.06-10.5l-4.9-76.09l53.01,0L200.6,248.79z"/>
		<g>
			<path class="st22" d="M154.61,256.61l-7.49-93.61h-3.01l8.2,93.61c0.56,6.34,4.48,11.28,8.78,11.28h2.22
				C159.01,267.9,155.12,262.95,154.61,256.61z"/>
		</g>
		<ellipse class="st23" cx="190.82" cy="233.97" rx="1.72" ry="1.99"/>
		<ellipse class="st17" cx="168.98" cy="229.45" rx="2.19" ry="2.53"/>
		<ellipse class="st18" cx="177.68" cy="247.65" rx="2.19" ry="2.53"/>
	</g>
</g>
</svg>
