<?xml version="1.0" encoding="utf-8"?>
<!-- Generator: Adobe Illustrator 23.0.0, SVG Export Plug-In . SVG Version: 6.00 Build 0)  -->
<svg version="1.1" xmlns="http://www.w3.org/2000/svg" xmlns:xlink="http://www.w3.org/1999/xlink" x="0px" y="0px"
	 viewBox="0 0 360 363" style="enable-background:new 0 0 360 363;" xml:space="preserve">
<style type="text/css">
	.st0{fill:#FFD084;}
	.st1{fill:none;stroke:#FFE1C0;stroke-width:0.7573;stroke-miterlimit:10;}
	.st2{fill:#FFD6A4;}
	.st3{fill:none;stroke:#FFE1C0;stroke-width:0.75;stroke-miterlimit:10;}
	.st4{fill:#FFE1C0;}
	.st5{fill:none;stroke:#FFD6A4;stroke-width:0.75;stroke-miterlimit:10;}
	.st6{fill:none;stroke:#FFEFE1;stroke-width:0.7478;stroke-miterlimit:10;}
	.st7{fill:#8F7CE5;}
	.st8{fill:#A6A6DD;}
	.st9{fill:#FFE5CC;}
	.st10{fill:none;stroke:#FFD6A4;stroke-miterlimit:10;}
	.st11{clip-path:url(#SVGID_2_);fill:#FFD8AE;}
	.st12{clip-path:url(#SVGID_4_);fill:#FFD8AE;}
	.st13{fill:none;stroke:#FFFFFF;stroke-width:9.903;stroke-linecap:round;stroke-linejoin:round;stroke-miterlimit:10;}
	.st14{fill:none;stroke:#FFFFFF;stroke-width:15;stroke-linejoin:round;stroke-miterlimit:10;}
	.st15{fill:#F2D86B;}
	.st16{fill:#CCCCFF;}
	.st17{fill:#F9EB98;}
	.st18{fill:#F9EEC0;}
	.st19{fill:#F9ECAF;}
	.st20{fill:#F7EFCD;}
	.st21{opacity:0.1;fill:#3B000B;}
	.st22{fill:#FFFFFF;}
</style>
<g id="fondo">
	<g>
		<g id="Rectángulo_556">
			<rect y="-0.1" class="st0" width="360" height="363.3"/>
			<rect x="0.5" y="0.4" class="st0" width="359" height="362.2"/>
		</g>
		<path class="st1" d="M228.1,258.3c0,0,43.9-35.1,59.7-104.9c15.8-69.8-12.4-91.7-12.4-91.7s-20.5-26.4-33.4,10.6
			c0,0-11.1,37.2-24.4,18.6c0,0-4-5.6-6.5-13c-2.5-7.3-11-10.5-11-10.5s-21.4-7.3-59.4,34.8c0,0-30.9,35.9-25.5,83.1
			c5.4,47.2,10.5,56.8,10.5,56.8L228.1,258.3z"/>
		<path class="st2" d="M225.9,271.1c0,0,43.1-35.1,58.6-104.9s-12.2-91.7-12.2-91.7s-20.1-26.4-32.8,10.6c0,0-10.9,37.2-23.9,18.6
			c0,0-3.9-5.6-6.4-13c-2.5-7.3-10.8-10.5-10.8-10.5s-21-7.3-58.2,34.8c0,0-30.3,35.9-25,83.1c5.3,47.2,10.3,56.8,10.3,56.8
			L225.9,271.1z"/>
		<path class="st3" d="M114.9,245.6c0,0-61.2-54.4-49.7-80.4s30.9-7.5,30.9-7.5s25.7,22.6,47.9,63.9L114.9,245.6z"/>
		<path class="st2" d="M115.8,249.7c0,0-54.1-58.6-42.6-84.6s30.9-7.5,30.9-7.5s25.7,22.6,47.9,63.9L115.8,249.7z"/>
		<path class="st4" d="M206.4,265c0,0,41.3-44.5,60.9-102.7c0,0,11.1-34-2.3-60c0,0-8.2-25.8-29.3,14.8s-29.4,11.9-29.4,11.9
			s-8.1-59.5-44-15.2s-22.9,140.1-22.9,140.1L206.4,265z"/>
		<path class="st5" d="M191.1,241.3c0,0,54.3-73,68-155.4"/>
		<path class="st6" d="M195.3,266c0,0,33.9-33.6,51.3-78.9c0,0,9.9-26.5,0.3-47.4c0,0-5.5-20.6-23.5,10.6s-23.4,8.4-23.4,8.4
			s-4.3-47.2-33.9-13.5s-22.8,109.6-22.8,109.6L195.3,266z"/>
		<g>
			
				<ellipse transform="matrix(1 -1.876257e-03 1.876257e-03 1 -0.526 0.338)" class="st7" cx="179.9" cy="280.5" rx="102.6" ry="21.4"/>
			<polygon class="st7" points="282.5,280.3 282.7,266.4 77.5,266.8 77.3,280.7 			"/>
			
				<ellipse transform="matrix(1 -1.876257e-03 1.876257e-03 1 -0.4999 0.3384)" class="st8" cx="180.1" cy="266.6" rx="102.6" ry="21.4"/>
		</g>
		<path class="st3" d="M239.7,220.4c0,0,41.8-19.1,39.9,9s-53,30.9-53,30.9s-15.5-0.3-14.5-10.3C213.2,240,218.5,230.9,239.7,220.4z
			"/>
		<path class="st9" d="M229.9,222.9c0,0,37.6-26.4,40.9,1.5c3.2,27.9-46.4,40.1-46.4,40.1S209,267,208.2,257
			C207.3,247,211,237.1,229.9,222.9z"/>
		<path class="st10" d="M208.2,257c0,0,44.4-19.6,65.3-41.4"/>
		<g>
			<defs>
				<path id="SVGID_1_" d="M229.9,222.9c0,0,37.6-26.4,40.9,1.5c3.2,27.9-46.4,40.1-46.4,40.1S209,267,208.2,257
					C207.3,247,211,237.1,229.9,222.9z"/>
			</defs>
			<clipPath id="SVGID_2_">
				<use xlink:href="#SVGID_1_"  style="overflow:visible;"/>
			</clipPath>
			<path class="st11" d="M240.9,211.5c0,0-27.3,46.6,4.8,50c21.5,2.3-22.9,11.5-22.9,11.5l-20.3-4.6l-1.3-29l20-22.9L240.9,211.5z"
				/>
		</g>
		<g>
			<path class="st9" d="M128.2,225.7c0,0-34.9-21.9-37.3,9.5c0,0,6.5,28.1,39.9,22.4C164.1,251.8,128.2,225.7,128.2,225.7z"/>
		</g>
		<path class="st10" d="M143,248.3c0,0-40.9-21-62.4-13.1"/>
		<g>
			<defs>
				<path id="SVGID_3_" d="M128.2,225.7c0,0-34.9-21.9-37.3,9.5c0,0,6.5,28.1,39.9,22.4C164.1,251.8,128.2,225.7,128.2,225.7z"/>
			</defs>
			<clipPath id="SVGID_4_">
				<use xlink:href="#SVGID_3_"  style="overflow:visible;"/>
			</clipPath>
			<path class="st12" d="M124.1,218.3h-4h-3.6c0,0,17.6,26,9.4,34.6s-9.4,6.7-9.4,6.7l19.6,1.8l15.9-7.2l1.2-14.3l-16-11.9
				L124.1,218.3z"/>
		</g>
		<path class="st3" d="M84.5,161.6c0,0,21.6,45.3,54.6,70.4"/>
		<path class="st3" d="M103.9,163.3c0,0-5.4,4-7,10.8"/>
		<path class="st3" d="M108.2,171.4c0,0-5.3,5.3-6,14.2"/>
		<path class="st3" d="M96.9,190.4c0,0-6.3-0.5-14.9,3.7"/>
		<path class="st3" d="M102.2,196.8c0,0-10.9,0.4-15.6,3.7"/>
		<path class="st2" d="M109.5,107.7c0.1,4-3.4,7.8-6.2,10.4c-1-2.4-1.9-5-2-7.6c-0.1-2,0.7-4,2.2-5.3c0.5-0.4,1-0.8,1.7-0.9
			c0.4-0.1,0.7-0.2,1.1-0.2C108,104.3,109.4,105.9,109.5,107.7z"/>
		<path class="st2" d="M81.9,123.8c-3.1,0.3-9-1.1-11.6-3.2c-2.3-1.7-2.3-2.2-3.4-4.9c-1-2.7,0.6-5.9,3.6-6.2
			c1.5-0.2,3.1,0.2,4.3,1.1C79.1,113.4,82.6,118.4,81.9,123.8z"/>
		<path class="st4" d="M105.6,142.4c-1.9,1.1-5-0.2-4.7-2.6c-0.2-2.8,4.1-3.8,5.6-1.6C107.5,139.5,106.9,141.6,105.6,142.4z"/>
		<path class="st4" d="M319.5,85.1c-2.6,1.4-6.6-0.3-6.3-3.5c-0.2-3.8,5.5-5.1,7.4-2.1C322,81.2,321.3,83.9,319.5,85.1z"/>
		<path class="st2" d="M328.9,297.3c-3.1,1.7-7.9-0.3-7.6-4.2c-0.3-4.5,6.6-6.1,8.9-2.5C331.9,292.6,331,295.9,328.9,297.3z"/>
		<path class="st4" d="M286.4,309c-2,1.1-5.2-0.2-5-2.8c-0.2-3,4.3-4,5.8-1.7C288.4,305.9,287.9,308.1,286.4,309z"/>
		<path class="st2" d="M61.9,244.7c-2.6,1.4-6.6-0.3-6.3-3.5c-0.2-3.8,5.5-5.1,7.4-2.1C64.4,240.8,63.7,243.5,61.9,244.7z"/>
		
			<ellipse transform="matrix(0.3506 -0.9365 0.9365 0.3506 -94.4753 226.8102)" class="st9" cx="116.3" cy="181.5" rx="2.7" ry="1.7"/>
		
			<ellipse transform="matrix(0.3506 -0.9365 0.9365 0.3506 -102.8346 235.0078)" class="st9" cx="118" cy="191.7" rx="2.7" ry="1.7"/>
		
			<ellipse transform="matrix(0.3506 -0.9365 0.9365 0.3506 -131.7451 233.0103)" class="st0" cx="102.2" cy="211.5" rx="3" ry="1.8"/>
	</g>
</g>
<g id="Capa_2">
	<g>
		<g>
			<g>
				<path class="st13" d="M211.1,121.1c-2.6-2.8-8.3-7.7-12.4-5.2c-2.2,1.3-2.7,5.7-2.2,7.9c0.6,3.2,3.8,10.3,8,9.8
					c2.1-0.3,3.6-3.7,3.1-5.7c-0.9-3.9-7.3-6.4-10.8-6.9c-4.3-0.7-6.2,1.4-7.4,5.3c-1.3,4.3,0.4,10.2,4.7,12.5
					c2.6,1.4,4.5-1.3,4.2-3.9c-0.5-3.7-7.7-6.3-10.7-6.5c-3.9-0.3-5.2,2.7-5.7,6c0.2-0.9,0.7-1.7,0.9-2.6c-0.2,1.5-0.1,0.2,0.9-0.3
					c0.7-0.4,1.4-0.5,2.2-0.5c1.7-0.1,3.6,0.5,5.2,1.2c1.8,0.8,7.2,3.3,6.5,6c0.3-0.9,0.6-1.7,0.8-2.5c-1.3,2.5-4.4-0.2-5.5-1.5
					c-2.2-2.6-3.8-6.5-2.7-9.9c-0.2,0.7-0.5,1.5-0.7,2.2c1.9-4.2,6.7-3.5,10.3-2c2.5,1,7.8,3.6,7.2,7.1c0.3-0.9,0.6-1.7,0.8-2.5
					c-1.4,3.8-5.7,0.5-7.1-1.3c-2.1-2.7-4-6.7-3.2-10.2c-0.2,0.7-0.5,1.5-0.7,2.2c1.1-3.2,5.8-1.8,7.9-0.7c2.2,1.1,4.2,2.7,5.8,4.5
					C210,123.4,211.4,121.4,211.1,121.1L211.1,121.1z"/>
			</g>
		</g>
		<path class="st14" d="M181.7,244.8v-33.1c35.4-5.4,18.2-79.2,18.2-79.2H155c0,0-17.2,73.8,18.2,79.2v33.1c0,0-1.7,12.5-16.1,12.5
			v3.6h40.7v-3.6C183.4,257.3,181.7,244.8,181.7,244.8z"/>
		<g>
			<g>
				<g>
					<path class="st15" d="M211.1,121.1c-2.6-2.8-8.3-7.7-12.4-5.2c-2.2,1.3-2.7,5.7-2.2,7.9c0.6,3.2,3.8,10.3,8,9.8
						c2.1-0.3,3.6-3.7,3.1-5.7c-0.9-3.9-7.3-6.4-10.8-6.9c-4.3-0.7-6.2,1.4-7.4,5.3c-1.3,4.3,0.4,10.2,4.7,12.5
						c2.6,1.4,4.5-1.3,4.2-3.9c-0.5-3.7-7.7-6.3-10.7-6.5c-3.9-0.3-5.2,2.7-5.7,6c0.2-0.9,0.7-1.7,0.9-2.6c-0.2,1.5-0.1,0.2,0.9-0.3
						c0.7-0.4,1.4-0.5,2.2-0.5c1.7-0.1,3.6,0.5,5.2,1.2c1.8,0.8,7.2,3.3,6.5,6c0.3-0.9,0.6-1.7,0.8-2.5c-1.3,2.5-4.4-0.2-5.5-1.5
						c-2.2-2.6-3.8-6.5-2.7-9.9c-0.2,0.7-0.5,1.5-0.7,2.2c1.9-4.2,6.7-3.5,10.3-2c2.5,1,7.8,3.6,7.2,7.1c0.3-0.9,0.6-1.7,0.8-2.5
						c-1.4,3.8-5.7,0.5-7.1-1.3c-2.1-2.7-4-6.7-3.2-10.2c-0.2,0.7-0.5,1.5-0.7,2.2c1.1-3.2,5.8-1.8,7.9-0.7c2.2,1.1,4.2,2.7,5.8,4.5
						C210,123.4,211.4,121.4,211.1,121.1L211.1,121.1z"/>
				</g>
			</g>
		</g>
		<path class="st16" d="M197.8,257.3v3.6h-40.7v-3.6c14.4,0,16.1-12.5,16.1-12.5v-33.1c0,0,3.6-0.5,8.5,0v33.1
			C181.7,244.8,183.4,257.3,197.8,257.3z"/>
		<path class="st16" d="M181.7,211.6c-4.6,0.4-8.5,0-8.5,0c-35.4-5.4-18.2-79.2-18.2-79.2h44.8C199.9,132.4,217.1,206.2,181.7,211.6
			z"/>
		<path class="st17" d="M159.3,192.2c3.1,7.7,8.7,13.1,18.2,13.1c0,0,0,0,0,0c9.5,0,15-5.4,18.2-13.1H159.3z"/>
		<path class="st18" d="M199.1,166.7c-0.3-14.9-3.4-28.4-3.4-28.4h-18.3h0h-18.3c0,0-3.1,13.5-3.4,28.4H199.1z"/>
		<path class="st19" d="M195.6,192.2c3-7.3,3.8-16.7,3.6-25.6h-43.4c-0.2,8.9,0.6,18.3,3.6,25.6H195.6z"/>
		<path class="st20" d="M198.4,154.9c-1-9.5-2.6-16.6-2.6-16.6h-18.3h0h-18.3c0,0-1.6,7.1-2.6,16.6H198.4z"/>
		<path class="st21" d="M199.9,132.4h-9.4c3.2,15.1,11.9,64.8-8.1,79.1C216.9,205.3,199.9,132.4,199.9,132.4z"/>
		<g>
			<path class="st22" d="M170.9,187.2c0,1.2-0.9,2.1-2.1,2.1c-1.2,0-2.1-0.9-2.1-2.1c0-1.2,0.9-2.1,2.1-2.1
				C170,185.2,170.9,186.1,170.9,187.2z"/>
			<path class="st22" d="M185.2,197.2c0,1.2-0.9,2.1-2.1,2.1c-1.2,0-2.1-0.9-2.1-2.1c0-1.2,0.9-2.1,2.1-2.1
				C184.2,195.1,185.2,196.1,185.2,197.2z"/>
			<path class="st22" d="M174.8,197.2c0,0.8-0.7,1.5-1.5,1.5c-0.8,0-1.5-0.7-1.5-1.5c0-0.8,0.7-1.5,1.5-1.5
				C174.2,195.7,174.8,196.4,174.8,197.2z"/>
			<path class="st22" d="M191,188.1c0,0.8-0.7,1.5-1.5,1.5c-0.8,0-1.5-0.7-1.5-1.5s0.7-1.5,1.5-1.5C190.3,186.6,191,187.3,191,188.1
				z"/>
			<path class="st22" d="M164.5,177.8c0,0.8-0.7,1.5-1.5,1.5c-0.8,0-1.5-0.7-1.5-1.5c0-0.8,0.7-1.5,1.5-1.5
				C163.8,176.4,164.5,177,164.5,177.8z"/>
			<path class="st22" d="M179.8,185.1c0,0.8-0.7,1.5-1.5,1.5c-0.8,0-1.5-0.7-1.5-1.5c0-0.8,0.7-1.5,1.5-1.5
				C179.1,183.7,179.8,184.3,179.8,185.1z"/>
			<path class="st22" d="M187.3,177.8c0,0.6-0.5,1-1,1c-0.6,0-1-0.5-1-1c0-0.6,0.5-1,1-1C186.8,176.8,187.3,177.3,187.3,177.8z"/>
			<path class="st22" d="M177,177.4c0,0.6-0.5,1-1,1c-0.6,0-1-0.5-1-1c0-0.6,0.4-1,1-1C176.6,176.4,177,176.8,177,177.4z"/>
			<path class="st22" d="M167.5,170.9c0,0.4-0.3,0.8-0.8,0.8c-0.4,0-0.8-0.3-0.8-0.8c0-0.4,0.3-0.8,0.8-0.8
				C167.1,170.1,167.5,170.5,167.5,170.9z"/>
			<path class="st22" d="M162.3,152.4c0,0.4-0.3,0.8-0.8,0.8c-0.4,0-0.8-0.3-0.8-0.8c0-0.4,0.3-0.8,0.8-0.8
				C161.9,151.7,162.3,152,162.3,152.4z"/>
			<path class="st22" d="M183.1,182.1c0,0.4-0.3,0.8-0.8,0.8c-0.4,0-0.8-0.3-0.8-0.8c0-0.4,0.3-0.8,0.8-0.8
				C182.7,181.3,183.1,181.7,183.1,182.1z"/>
			<path class="st22" d="M193.4,178.5c0,0.4-0.3,0.8-0.8,0.8c-0.4,0-0.8-0.3-0.8-0.8c0-0.4,0.3-0.8,0.8-0.8
				C193,177.7,193.4,178.1,193.4,178.5z"/>
			<path class="st22" d="M188.8,172.5c0,0.4-0.3,0.8-0.8,0.8c-0.4,0-0.8-0.3-0.8-0.8c0-0.4,0.3-0.8,0.8-0.8
				C188.4,171.7,188.8,172.1,188.8,172.5z"/>
			<path class="st22" d="M186,162.3c0,0.4-0.3,0.8-0.8,0.8c-0.4,0-0.8-0.3-0.8-0.8c0-0.4,0.3-0.8,0.8-0.8
				C185.7,161.5,186,161.9,186,162.3z"/>
			<path class="st22" d="M171.3,178.5c0,0.4-0.3,0.8-0.8,0.8c-0.4,0-0.8-0.3-0.8-0.8c0-0.4,0.3-0.8,0.8-0.8
				C171,177.7,171.3,178.1,171.3,178.5z"/>
			<path class="st22" d="M178.3,170.1c0,0.4-0.3,0.8-0.8,0.8c-0.4,0-0.8-0.3-0.8-0.8c0-0.4,0.3-0.8,0.8-0.8
				C178,169.4,178.3,169.7,178.3,170.1z"/>
			<path class="st22" d="M179,150.2c0,0.4-0.3,0.8-0.8,0.8c-0.4,0-0.8-0.3-0.8-0.8c0-0.4,0.3-0.8,0.8-0.8
				C178.7,149.5,179,149.8,179,150.2z"/>
			<path class="st22" d="M171.7,160.8c0,0.4-0.3,0.8-0.8,0.8c-0.4,0-0.8-0.3-0.8-0.8c0-0.4,0.3-0.8,0.8-0.8
				C171.3,160,171.7,160.3,171.7,160.8z"/>
		</g>
	</g>
</g>
<g id="Capa_3">
</g>
</svg>
