<?xml version="1.0" encoding="utf-8"?>
<!-- Generator: Adobe Illustrator 23.0.0, SVG Export Plug-In . SVG Version: 6.00 Build 0)  -->
<svg version="1.1" id="Capa_1" xmlns="http://www.w3.org/2000/svg" xmlns:xlink="http://www.w3.org/1999/xlink" x="0px" y="0px"
	 viewBox="0 0 360 363" style="enable-background:new 0 0 360 363;" xml:space="preserve">
<style type="text/css">
	.st0{fill:#FFD084;}
	.st1{fill:none;stroke:#FFE1C0;stroke-width:0.7573;stroke-miterlimit:10;}
	.st2{fill:#FFD6A4;}
	.st3{fill:none;stroke:#FFE1C0;stroke-width:0.75;stroke-miterlimit:10;}
	.st4{fill:#FFE1C0;}
	.st5{fill:none;stroke:#FFD6A4;stroke-width:0.75;stroke-miterlimit:10;}
	.st6{fill:none;stroke:#FFEFE1;stroke-width:0.7478;stroke-miterlimit:10;}
	.st7{fill:#8F7CE5;}
	.st8{fill:#A6A6DD;}
	.st9{fill:#FFE5CC;}
	.st10{fill:none;stroke:#FFD6A4;stroke-miterlimit:10;}
	.st11{clip-path:url(#SVGID_2_);fill:#FFD8AE;}
	.st12{clip-path:url(#SVGID_4_);fill:#FFD8AE;}
	.st13{fill:none;stroke:#FFFFFF;stroke-width:16.2875;stroke-linejoin:round;stroke-miterlimit:10;}
	.st14{fill:none;stroke:#FFFFFF;stroke-width:16;stroke-miterlimit:10;}
	.st15{fill:#FE9307;}
	.st16{fill:#FFFFFF;}
	.st17{fill:#CCCCFF;}
	.st18{fill:#B1B1EF;}
	.st19{fill:#E28947;}
	.st20{fill:#FFDCA4;}
	.st21{opacity:0.3;fill:#FFFFFF;enable-background:new    ;}
	.st22{fill:#FFFFFF;fill-opacity:0;}
</style>
<g id="fondo">
	<g id="Rectángulo_556">
		<rect y="-0.1" class="st0" width="360" height="363.3"/>
		<rect x="0.5" y="0.4" class="st0" width="359" height="362.2"/>
	</g>
	<path class="st1" d="M228.1,263.3c0,0,44-35.1,59.7-104.9c15.8-69.8-12.4-91.7-12.4-91.7S254.9,40.3,242,77.3
		c0,0-11.1,37.2-24.4,18.6c0,0-4-5.6-6.5-13s-11-10.5-11-10.5s-21.4-7.3-59.4,34.8c0,0-30.9,35.9-25.5,83.1s10.5,56.8,10.5,56.8
		L228.1,263.3z"/>
	<path class="st2" d="M225.9,276.1c0,0,43.1-35.1,58.6-104.9s-12.2-91.7-12.2-91.7s-20.1-26.4-32.8,10.6c0,0-10.9,37.2-23.9,18.6
		c0,0-3.9-5.6-6.4-13s-10.8-10.5-10.8-10.5s-21-7.3-58.2,34.8c0,0-30.3,35.9-25,83.1s10.3,56.8,10.3,56.8L225.9,276.1z"/>
	<path class="st3" d="M114.9,250.6c0,0-61.2-54.4-49.7-80.4s30.9-7.5,30.9-7.5s25.7,22.6,47.9,63.9L114.9,250.6z"/>
	<path class="st2" d="M115.8,254.7c0,0-54.1-58.6-42.6-84.6s30.9-7.5,30.9-7.5s25.7,22.6,47.9,63.9L115.8,254.7z"/>
	<path class="st4" d="M206.4,270c0,0,41.3-44.5,60.9-102.8c0,0,11.1-34-2.3-60c0,0-8.2-25.8-29.3,14.8s-29.4,11.9-29.4,11.9
		s-8.1-59.5-44-15.2s-22.9,140.1-22.9,140.1L206.4,270z"/>
	<path class="st5" d="M191.1,246.3c0,0,54.4-73,68-155.4"/>
	<path class="st6" d="M195.3,271c0,0,33.9-33.6,51.3-78.9c0,0,9.9-26.4,0.3-47.4c0,0-5.5-20.6-23.5,10.6s-23.4,8.4-23.4,8.4
		s-4.3-47.2-33.9-13.5s-22.8,109.6-22.8,109.6L195.3,271z"/>
	<g>
		
			<ellipse transform="matrix(1 -1.876236e-03 1.876236e-03 1 -0.5353 0.338)" class="st7" cx="179.9" cy="285.5" rx="102.6" ry="21.4"/>
		<polygon class="st7" points="282.5,285.3 282.7,271.4 77.5,271.8 77.3,285.7 		"/>
		
			<ellipse transform="matrix(1 -1.876236e-03 1.876236e-03 1 -0.5093 0.3384)" class="st8" cx="180.1" cy="271.6" rx="102.6" ry="21.4"/>
	</g>
	<path class="st3" d="M239.7,225.4c0,0,41.8-19.1,39.9,8.9s-53,30.9-53,30.9s-15.5-0.3-14.5-10.3C213.1,245,218.5,235.9,239.7,225.4
		z"/>
	<path class="st9" d="M229.9,227.9c0,0,37.6-26.4,40.9,1.5c3.2,27.9-46.4,40.1-46.4,40.1S209,272,208.2,262
		C207.3,252,211,242.1,229.9,227.9z"/>
	<path class="st10" d="M208.2,262c0,0,44.4-19.6,65.3-41.4"/>
	<g>
		<g>
			<g>
				<g>
					<defs>
						<path id="SVGID_1_" d="M229.9,227.9c0,0,37.6-26.4,40.9,1.5c3.2,27.9-46.4,40.1-46.4,40.1S209,272,208.2,262
							C207.3,252,211,242.1,229.9,227.9z"/>
					</defs>
					<clipPath id="SVGID_2_">
						<use xlink:href="#SVGID_1_"  style="overflow:visible;"/>
					</clipPath>
					<path class="st11" d="M240.9,216.5c0,0-27.3,46.6,4.8,50c21.5,2.3-22.9,11.5-22.9,11.5l-20.3-4.6l-1.3-29.1l20-22.9
						L240.9,216.5z"/>
				</g>
			</g>
		</g>
	</g>
	<g>
		<path class="st9" d="M128.2,230.7c0,0-34.9-21.9-37.3,9.5c0,0,6.5,28.1,39.9,22.4S128.2,230.7,128.2,230.7z"/>
	</g>
	<path class="st10" d="M143,253.3c0,0-40.9-21-62.4-13.1"/>
	<g>
		<g>
			<g>
				<g>
					<defs>
						<path id="SVGID_3_" d="M128.2,230.7c0,0-34.9-21.9-37.3,9.5c0,0,6.5,28.1,39.9,22.4S128.2,230.7,128.2,230.7z"/>
					</defs>
					<clipPath id="SVGID_4_">
						<use xlink:href="#SVGID_3_"  style="overflow:visible;"/>
					</clipPath>
					<path class="st12" d="M124.1,223.3h-4h-3.6c0,0,17.6,26,9.4,34.6c-8.3,8.6-9.4,6.7-9.4,6.7l19.6,1.8l15.9-7.2l1.2-14.3
						l-16-11.9L124.1,223.3z"/>
				</g>
			</g>
		</g>
	</g>
	<path class="st3" d="M84.5,166.6c0,0,21.6,45.3,54.6,70.4"/>
	<path class="st3" d="M103.9,168.3c0,0-5.4,4-7,10.8"/>
	<path class="st3" d="M108.2,176.4c0,0-5.3,5.3-6,14.2"/>
	<path class="st3" d="M96.9,195.4c0,0-6.3-0.5-14.9,3.6"/>
	<path class="st3" d="M102.2,201.8c0,0-10.9,0.4-15.6,3.7"/>
	<path class="st2" d="M109.5,112.7c0.1,4-3.4,7.8-6.2,10.4c-1-2.4-1.9-5-2-7.6c-0.1-2,0.7-4,2.2-5.3c0.5-0.4,1-0.8,1.7-0.9
		c0.4-0.1,0.7-0.2,1.1-0.2C108,109.3,109.4,110.9,109.5,112.7z"/>
	<path class="st2" d="M81.9,128.8c-3.1,0.3-9-1.1-11.6-3.3c-2.3-1.7-2.3-2.2-3.4-4.9c-1-2.7,0.6-5.9,3.6-6.2
		c1.5-0.2,3.1,0.2,4.3,1.1C79.1,118.4,82.6,123.4,81.9,128.8z"/>
	<path class="st4" d="M105.6,147.4c-1.9,1.1-5-0.2-4.7-2.6c-0.2-2.8,4.1-3.8,5.6-1.6C107.5,144.5,106.9,146.6,105.6,147.4z"/>
	<path class="st4" d="M319.5,90.1c-2.6,1.4-6.6-0.3-6.3-3.5c-0.2-3.8,5.5-5.1,7.4-2.1C322,86.2,321.3,88.9,319.5,90.1z"/>
	<path class="st2" d="M328.9,302.3c-3.1,1.7-7.9-0.3-7.6-4.2c-0.3-4.5,6.6-6.1,8.9-2.5C331.9,297.6,331,300.9,328.9,302.3z"/>
	<path class="st4" d="M286.4,314c-2,1.1-5.2-0.2-5-2.8c-0.2-3,4.3-4,5.8-1.7C288.4,311,287.9,313.1,286.4,314z"/>
	<path class="st2" d="M61.9,249.7c-2.6,1.4-6.6-0.3-6.3-3.5c-0.2-3.8,5.5-5.1,7.4-2.1C64.4,245.8,63.7,248.5,61.9,249.7z"/>
	
		<ellipse transform="matrix(0.3506 -0.9365 0.9365 0.3506 -99.1611 229.9918)" class="st9" cx="116.3" cy="186.5" rx="2.7" ry="1.7"/>
	
		<ellipse transform="matrix(0.3506 -0.9365 0.9365 0.3506 -107.5473 238.2236)" class="st9" cx="118" cy="196.7" rx="2.7" ry="1.7"/>
	
		<ellipse transform="matrix(0.3506 -0.9365 0.9365 0.3506 -136.5256 236.2146)" class="st0" cx="102.1" cy="216.6" rx="3" ry="1.8"/>
</g>
<g>
	<path class="st13" d="M210.1,195.8C210.1,195.8,210.2,195.7,210.1,195.8c0-1.7-13.6-3-30.3-3c-16.8,0-30.4,1.3-30.4,2.9v0.1l0,0
		v54.9V261c0,2.4,1.9,4.3,4.3,4.3H206c2.4,0,4.3-1.9,4.3-4.3v-10.2v-54.9L210.1,195.8L210.1,195.8z"/>
	<ellipse class="st14" cx="148.4" cy="194.8" rx="18.8" ry="16.3"/>
	<g>
		<path class="st15" d="M167.2,194.8c0,9-8.4,16.3-18.8,16.3c-10.4,0-18.8-7.3-18.8-16.3s8.4-16.3,18.8-16.3
			C158.7,178.5,167.2,185.7,167.2,194.8z"/>
		<path class="st16" d="M164.1,194.8c0,7.5-7,13.6-15.7,13.6s-15.7-6.1-15.7-13.6s7-13.6,15.7-13.6S164.1,187.2,164.1,194.8z"/>
		<g>
			<g>
				<g>
					<g>
						<g>
							<g>
								<path class="st15" d="M148.4,182.6c-2.2,0-2.6,0.2-2.6,0.2c-0.8,0.3-1.3,1.1-1,1.8l3.1,6.9c0.3,0.8,0.7,0.8,1,0l3.1-6.9
									c0.3-0.8-0.2-1.6-1-1.8C150.9,182.8,150.5,182.6,148.4,182.6z"/>
							</g>
						</g>
					</g>
					<g>
						<g>
							<g>
								<path class="st15" d="M148.4,206.8c2.2,0,2.6-0.2,2.6-0.2c0.8-0.3,1.3-1.1,1-1.8l-3.1-6.9c-0.3-0.8-0.8-0.8-1,0l-3.1,6.9
									c-0.3,0.8,0.2,1.6,1,1.8C145.8,206.7,146.2,206.8,148.4,206.8z"/>
							</g>
						</g>
					</g>
				</g>
				<g>
					<g>
						<g>
							<g>
								<path class="st15" d="M162.3,194.8c0-1.9-0.2-2.3-0.2-2.3c-0.3-0.7-1.3-1.1-2.1-0.9l-8,2.7c-0.9,0.3-0.9,0.7,0,0.9l8,2.7
									c0.9,0.3,1.8-0.2,2.1-0.9C162.2,196.9,162.3,196.6,162.3,194.8z"/>
							</g>
						</g>
					</g>
					<g>
						<g>
							<g>
								<path class="st15" d="M134.4,194.8c0,1.9,0.2,2.3,0.2,2.3c0.3,0.7,1.3,1.1,2.1,0.9l8-2.7c0.9-0.3,0.9-0.6,0-0.9l-8-2.7
									c-0.9-0.3-1.8,0.2-2.1,0.9C134.6,192.5,134.4,192.9,134.4,194.8z"/>
							</g>
						</g>
					</g>
				</g>
			</g>
			<g>
				<g>
					<g>
						<g>
							<g>
								<path class="st15" d="M158.2,186.2c-1.5-1.3-1.9-1.5-1.9-1.5c-0.8-0.3-1.8,0-2.2,0.7l-3.5,6.8c-0.4,0.7-0.1,1,0.7,0.6l7.8-3
									c0.8-0.3,1.2-1.2,0.8-1.9C159.9,187.8,159.8,187.5,158.2,186.2z"/>
							</g>
						</g>
					</g>
					<g>
						<g>
							<g>
								<path class="st15" d="M138.5,203.3c1.5,1.3,1.9,1.5,1.9,1.5c0.8,0.3,1.8,0,2.2-0.7l3.5-6.8c0.4-0.7,0.1-1-0.7-0.6l-7.8,3
									c-0.8,0.3-1.2,1.2-0.8,1.9C136.8,201.6,137,202,138.5,203.3z"/>
							</g>
						</g>
					</g>
				</g>
				<g>
					<g>
						<g>
							<g>
								<path class="st15" d="M158.2,203.3c1.5-1.3,1.7-1.6,1.7-1.6c0.4-0.7,0-1.6-0.8-1.9l-7.8-3c-0.8-0.3-1.1-0.1-0.7,0.6l3.5,6.8
									c0.4,0.7,1.4,1,2.2,0.7C156.3,204.7,156.7,204.6,158.2,203.3z"/>
							</g>
						</g>
					</g>
					<g>
						<g>
							<g>
								<path class="st15" d="M138.5,186.2c-1.5,1.3-1.7,1.6-1.7,1.6c-0.4,0.7,0,1.6,0.8,1.9l7.8,3c0.8,0.3,1.1,0.1,0.7-0.6
									l-3.5-6.8c-0.4-0.7-1.4-1-2.2-0.7C140.4,184.7,140,184.9,138.5,186.2z"/>
							</g>
						</g>
					</g>
				</g>
			</g>
		</g>
	</g>
	<path class="st17" d="M147.9,195.8V261c0,2.4,2,4.3,4.5,4.3h55.2c2.5,0,4.5-1.9,4.5-4.3v-65.2H147.9z"/>
	<ellipse class="st18" cx="179.9" cy="195.7" rx="32.1" ry="2.9"/>
	<path class="st18" d="M207.6,255h-55.2c-2.5,0-4.5-1.9-4.5-4.3V261c0,2.4,2,4.3,4.5,4.3h55.2c2.5,0,4.5-1.9,4.5-4.3v-10.2
		C212.1,253.1,210.1,255,207.6,255z"/>
	<g>
		<path class="st19" d="M153.1,217.4v31.4c0,2.1,1.7,3.7,3.7,3.7h45.9c2.1,0,3.7-1.7,3.7-3.7v-31.4H153.1z"/>
		<ellipse class="st20" cx="179.7" cy="217.4" rx="26.6" ry="2.9"/>
	</g>
	<g>
		<path class="st21" d="M175.4,251.8c-0.4,0.8-1.4,1.1-2.3,0.7l-14.4-7.8c-0.8-0.4-1.1-1.4-0.7-2.3l7.8-14.4
			c0.4-0.8,1.4-1.1,2.3-0.7l14.4,7.8c0.8,0.4,1.1,1.4,0.7,2.3L175.4,251.8z"/>
		<path class="st21" d="M201.2,238.9c0.2,0.9-0.3,1.8-1.2,2l-15.9,4.1c-0.9,0.2-1.8-0.3-2-1.2L178,228c-0.2-0.9,0.3-1.8,1.2-2
			l15.9-4.1c0.9-0.2,1.8,0.3,2,1.2L201.2,238.9z"/>
	</g>
	<path class="st22" d="M206.3,217.4c-0.3,1.6-12.1,2.9-26.6,2.9s-26.3-1.3-26.6-2.9l0,0v31.4c0,2.1,1.7,3.7,3.7,3.7h45.9
		c2.1,0,3.7-1.7,3.7-3.7L206.3,217.4L206.3,217.4z"/>
	<g>
		<path class="st20" d="M184.4,214.5c0.1,0.3,0.2,0.6,0.1,0.9c0.2,0.4,0.2,0.9-0.2,1.4c-2,2.2-6.4,2.2-7.9-0.4h-0.1
			c-0.7-0.5-1.3-1.1-1.7-1.8c-12.2,0.3-21.4,1.5-21.4,2.9c0,1.6,11.9,2.9,26.6,2.9s26.6-1.3,26.6-2.9
			C206.3,215.9,196.8,214.7,184.4,214.5z"/>
	</g>
	<polygon class="st21" points="157.4,197.8 156.5,252.7 161.4,252.7 164.2,198.4 	"/>
</g>
</svg>
