<?xml version="1.0" encoding="utf-8"?>
<!-- Generator: Adobe Illustrator 23.0.0, SVG Export Plug-In . SVG Version: 6.00 Build 0)  -->
<svg version="1.1" id="Capa_1" xmlns="http://www.w3.org/2000/svg" xmlns:xlink="http://www.w3.org/1999/xlink" x="0px" y="0px"
	 viewBox="0 0 360 363" style="enable-background:new 0 0 360 363;" xml:space="preserve">
<style type="text/css">
	.st0{fill:#FFD084;}
	.st1{fill:none;stroke:#FFE1C0;stroke-width:0.7573;stroke-miterlimit:10;}
	.st2{fill:#FFD6A4;}
	.st3{fill:none;stroke:#FFE1C0;stroke-width:0.75;stroke-miterlimit:10;}
	.st4{fill:#FFE1C0;}
	.st5{fill:none;stroke:#FFD6A4;stroke-width:0.75;stroke-miterlimit:10;}
	.st6{fill:none;stroke:#FFEFE1;stroke-width:0.7478;stroke-miterlimit:10;}
	.st7{fill:#8F7CE5;}
	.st8{fill:#A6A6DD;}
	.st9{fill:#FFE5CC;}
	.st10{fill:none;stroke:#FFD6A4;stroke-miterlimit:10;}
	.st11{clip-path:url(#SVGID_2_);fill:#FFD8AE;}
	.st12{clip-path:url(#SVGID_4_);fill:#FFD8AE;}
	.st13{fill:none;stroke:#FFFFFF;stroke-width:15;stroke-linejoin:round;stroke-miterlimit:10;}
	.st14{fill:#B8B8F2;}
	.st15{fill:#E9E9FF;}
	.st16{fill:#CCCCFF;}
	.st17{fill:#3D9EC1;}
	.st18{fill:#78C9E9;}
	.st19{fill:#FFCC2C;}
	.st20{fill:#834012;}
	.st21{fill:#642D08;}
</style>
<g id="fondo">
	<g>
		<g id="Rectángulo_556">
			<rect y="-0.1" class="st0" width="360" height="363.3"/>
			<rect x="0.5" y="0.4" class="st0" width="359" height="362.2"/>
		</g>
		<path class="st1" d="M228.1,258.3c0,0,43.9-35.1,59.7-104.9c15.8-69.8-12.4-91.7-12.4-91.7S254.9,35.3,242,72.3
			c0,0-11.1,37.2-24.4,18.6c0,0-4-5.6-6.5-13c-2.5-7.3-11-10.5-11-10.5s-21.4-7.3-59.4,34.8c0,0-30.9,35.9-25.5,83.1
			s10.5,56.8,10.5,56.8L228.1,258.3z"/>
		<path class="st2" d="M225.9,271.1c0,0,43.1-35.1,58.6-104.9s-12.2-91.7-12.2-91.7s-20.1-26.4-32.8,10.6c0,0-10.9,37.2-23.9,18.6
			c0,0-3.9-5.6-6.4-13c-2.5-7.3-10.8-10.5-10.8-10.5s-21-7.3-58.2,34.8c0,0-30.3,35.9-25,83.1s10.3,56.8,10.3,56.8L225.9,271.1z"/>
		<path class="st3" d="M114.9,245.6c0,0-61.2-54.4-49.7-80.4s30.9-7.5,30.9-7.5s25.7,22.6,47.9,63.9L114.9,245.6z"/>
		<path class="st2" d="M115.8,249.7c0,0-54.1-58.6-42.6-84.6s30.9-7.5,30.9-7.5s25.7,22.6,47.9,63.9L115.8,249.7z"/>
		<path class="st4" d="M206.4,265c0,0,41.3-44.5,60.9-102.7c0,0,11.1-34-2.3-60c0,0-8.2-25.8-29.3,14.8S206.3,129,206.3,129
			s-8.1-59.5-44-15.2s-22.9,140.1-22.9,140.1L206.4,265z"/>
		<path class="st5" d="M191.1,241.3c0,0,54.3-73,68-155.4"/>
		<path class="st6" d="M195.3,266c0,0,33.9-33.6,51.3-78.9c0,0,9.9-26.5,0.3-47.4c0,0-5.5-20.6-23.5,10.6s-23.4,8.4-23.4,8.4
			s-4.3-47.2-33.9-13.5s-22.8,109.6-22.8,109.6L195.3,266z"/>
		<g>
			
				<ellipse transform="matrix(1 -1.876229e-03 1.876229e-03 1 -0.526 0.338)" class="st7" cx="179.9" cy="280.5" rx="102.6" ry="21.4"/>
			<polygon class="st7" points="282.5,280.3 282.7,266.4 77.5,266.8 77.3,280.7 			"/>
			
				<ellipse transform="matrix(1 -1.876229e-03 1.876229e-03 1 -0.4999 0.3384)" class="st8" cx="180.1" cy="266.6" rx="102.6" ry="21.4"/>
		</g>
		<path class="st3" d="M239.7,220.4c0,0,41.8-19.1,39.9,9s-53,30.9-53,30.9s-15.5-0.3-14.5-10.3C213.2,240,218.5,230.9,239.7,220.4z
			"/>
		<path class="st9" d="M229.9,222.9c0,0,37.6-26.4,40.9,1.5c3.2,27.9-46.4,40.1-46.4,40.1S209,267,208.2,257
			C207.3,247,211,237.1,229.9,222.9z"/>
		<path class="st10" d="M208.2,257c0,0,44.4-19.6,65.3-41.4"/>
		<g>
			<g>
				<g>
					<g>
						<g>
							<defs>
								<path id="SVGID_1_" d="M229.9,222.9c0,0,37.6-26.4,40.9,1.5c3.2,27.9-46.4,40.1-46.4,40.1S209,267,208.2,257
									C207.3,247,211,237.1,229.9,222.9z"/>
							</defs>
							<clipPath id="SVGID_2_">
								<use xlink:href="#SVGID_1_"  style="overflow:visible;"/>
							</clipPath>
							<path class="st11" d="M240.9,211.5c0,0-27.3,46.6,4.8,50c21.5,2.3-22.9,11.5-22.9,11.5l-20.3-4.6l-1.3-29l20-22.9
								L240.9,211.5z"/>
						</g>
					</g>
				</g>
			</g>
		</g>
		<g>
			<path class="st9" d="M128.2,225.7c0,0-34.9-21.9-37.3,9.5c0,0,6.5,28.1,39.9,22.4C164.1,251.8,128.2,225.7,128.2,225.7z"/>
		</g>
		<path class="st10" d="M143,248.3c0,0-40.9-21-62.4-13.1"/>
		<g>
			<g>
				<g>
					<g>
						<g>
							<defs>
								<path id="SVGID_3_" d="M128.2,225.7c0,0-34.9-21.9-37.3,9.5c0,0,6.5,28.1,39.9,22.4C164.1,251.8,128.2,225.7,128.2,225.7z"
									/>
							</defs>
							<clipPath id="SVGID_4_">
								<use xlink:href="#SVGID_3_"  style="overflow:visible;"/>
							</clipPath>
							<path class="st12" d="M124.1,218.3h-4h-3.6c0,0,17.6,26,9.4,34.6c-8.2,8.6-9.4,6.7-9.4,6.7l19.6,1.8l15.9-7.2l1.2-14.3
								l-16-11.9L124.1,218.3z"/>
						</g>
					</g>
				</g>
			</g>
		</g>
		<path class="st3" d="M84.5,161.6c0,0,21.6,45.3,54.6,70.4"/>
		<path class="st3" d="M103.9,163.3c0,0-5.4,4-7,10.8"/>
		<path class="st3" d="M108.2,171.4c0,0-5.3,5.3-6,14.2"/>
		<path class="st3" d="M96.9,190.4c0,0-6.3-0.5-14.9,3.7"/>
		<path class="st3" d="M102.2,196.8c0,0-10.9,0.4-15.6,3.7"/>
		<path class="st2" d="M109.5,107.7c0.1,4-3.4,7.8-6.2,10.4c-1-2.4-1.9-5-2-7.6c-0.1-2,0.7-4,2.2-5.3c0.5-0.4,1-0.8,1.7-0.9
			c0.4-0.1,0.7-0.2,1.1-0.2C108,104.3,109.4,105.9,109.5,107.7z"/>
		<path class="st2" d="M81.9,123.8c-3.1,0.3-9-1.1-11.6-3.2c-2.3-1.7-2.3-2.2-3.4-4.9c-1-2.7,0.6-5.9,3.6-6.2
			c1.5-0.2,3.1,0.2,4.3,1.1C79.1,113.4,82.6,118.4,81.9,123.8z"/>
		<path class="st4" d="M105.6,142.4c-1.9,1.1-5-0.2-4.7-2.6c-0.2-2.8,4.1-3.8,5.6-1.6C107.5,139.5,106.9,141.6,105.6,142.4z"/>
		<path class="st4" d="M319.5,85.1c-2.6,1.4-6.6-0.3-6.3-3.5c-0.2-3.8,5.5-5.1,7.4-2.1C322,81.2,321.3,83.9,319.5,85.1z"/>
		<path class="st2" d="M328.9,297.3c-3.1,1.7-7.9-0.3-7.6-4.2c-0.3-4.5,6.6-6.1,8.9-2.5C331.9,292.6,331,295.9,328.9,297.3z"/>
		<path class="st4" d="M286.4,309c-2,1.1-5.2-0.2-5-2.8c-0.2-3,4.3-4,5.8-1.7C288.4,305.9,287.9,308.1,286.4,309z"/>
		<path class="st2" d="M61.9,244.7c-2.6,1.4-6.6-0.3-6.3-3.5c-0.2-3.8,5.5-5.1,7.4-2.1C64.4,240.8,63.7,243.5,61.9,244.7z"/>
		
			<ellipse transform="matrix(0.3506 -0.9365 0.9365 0.3506 -94.3859 226.7597)" class="st9" cx="116.3" cy="181.4" rx="2.7" ry="1.7"/>
		
			<ellipse transform="matrix(0.3506 -0.9365 0.9365 0.3506 -102.8036 234.9936)" class="st9" cx="118" cy="191.6" rx="2.7" ry="1.7"/>
		
			<ellipse transform="matrix(0.3506 -0.9365 0.9365 0.3506 -131.6409 232.946)" class="st0" cx="102.2" cy="211.4" rx="3" ry="1.8"/>
	</g>
</g>
<path class="st13" d="M184.1,243v-5.7v-8.7c13.2-4.6,23.3-31.4,23.7-63.9h-5.9l2.7-12.2l-2.9-0.5l-2.8,12.7h-3.2l1.3-13.1l-2.9-0.2
	l-1.3,13.3h-38.4h-2c0.3,32.6,10.5,59.3,23.7,63.9v8.7v5.7c-0.4,0.1-0.7,0.1-1.1,0.2c-0.3,0-0.5,0.1-0.8,0.1
	c-0.4,0.1-0.8,0.2-1.2,0.3c-0.2,0.1-0.5,0.1-0.7,0.2c-0.4,0.1-0.8,0.2-1.2,0.3c-0.2,0.1-0.4,0.1-0.7,0.2c-0.4,0.1-0.8,0.3-1.1,0.4
	c-0.2,0.1-0.4,0.2-0.6,0.2c-0.4,0.1-0.7,0.3-1.1,0.4c-0.2,0.1-0.4,0.2-0.6,0.2c-0.3,0.1-0.7,0.3-1,0.5c-0.2,0.1-0.3,0.2-0.5,0.2
	c-0.3,0.2-0.6,0.3-0.9,0.5c-0.2,0.1-0.3,0.2-0.5,0.2c-0.3,0.2-0.6,0.3-0.9,0.5c-0.1,0.1-0.3,0.2-0.4,0.2c-0.3,0.2-0.5,0.3-0.8,0.4
	c-0.1,0.1-0.2,0.1-0.4,0.2c-0.2,0.1-0.5,0.3-0.7,0.4c-0.1,0.1-0.2,0.1-0.3,0.2c-0.2,0.1-0.4,0.2-0.5,0.4c-0.1,0.1-0.2,0.1-0.3,0.2
	c-0.2,0.1-0.3,0.2-0.4,0.3c-0.1,0.1-0.1,0.1-0.2,0.1c-0.1,0.1-0.2,0.2-0.3,0.2c-0.1,0-0.1,0.1-0.2,0.1c-0.1,0-0.1,0.1-0.2,0.1
	c-0.1,0.1-0.1,0.1-0.1,0.1s0,0,0.1,0c0,0-0.1,0.1-0.1,0.1s9.6,3.7,21.5,3.7c11.9,0,21.5-3.7,21.5-3.7s0,0-0.1-0.1c0,0,0.1,0,0.1,0
	S194,244.4,184.1,243z"/>
<g>
	<g>
		<path class="st14" d="M175.9,225v21.1c0,4.4,1.8,8,4.1,8c2.2,0,4.1-3.6,4.1-8V225H175.9z"/>
		<path class="st15" d="M179.4,236.6c-0.9,0-1.7-0.9-1.7-2v-2c0-1.1,0.7-2,1.7-2l0,0c0.9,0,1.7,0.9,1.7,2v2
			C181.1,235.7,180.3,236.6,179.4,236.6L179.4,236.6z"/>
		<path class="st14" d="M183.9,248.4c0.1-0.7,0.2-1.5,0.2-2.2v-8.8c-1.3-0.2-2.7-0.3-4.1-0.3c-1.4,0-2.8,0.1-4.1,0.3v8.8
			c0,0.8,0.1,1.5,0.2,2.2c1.3,0,2.6,0.1,3.9,0.1C181.3,248.4,182.6,248.4,183.9,248.4z"/>
		<path class="st15" d="M177.1,246.2v-21.1h6.9V225h-8.1v21.1c0,4.4,1.8,8,4.1,8c0.2,0,0.3,0,0.5-0.1
			C178.6,253.4,177.1,250.2,177.1,246.2z"/>
		<path class="st16" d="M201.5,250.5c0,0-9.6,3.7-21.5,3.7c-11.9,0-21.5-3.7-21.5-3.7s9.6-7.8,21.5-7.8
			C191.9,242.7,201.5,250.5,201.5,250.5z"/>
		<path class="st14" d="M180,251.1c-7.8,0-14.6-1.6-18.4-2.7c-2,1.2-3.1,2.1-3.1,2.1s9.6,3.7,21.5,3.7c11.9,0,21.5-3.7,21.5-3.7
			s-1.1-0.9-3.1-2.1C194.6,249.5,187.8,251.1,180,251.1z"/>
		<path class="st15" d="M184.1,253.6c-11.9,0-21.5-3.7-21.5-3.7s6.7-5.4,15.9-7.2c-11.2,0.6-20,7.7-20,7.7s9.6,3.7,21.5,3.7
			c3.6,0,6.9-0.3,9.9-0.8C188,253.5,186.1,253.6,184.1,253.6z"/>
		<path class="st17" d="M157.9,169.6c0.3,30.4,10.1,54.7,22.1,54.7c12,0,21.8-24.4,22.1-54.7H157.9z"/>
		<path class="st18" d="M159.7,169.6c0.3,30.4,9.2,54.7,20.3,54.7c11,0,20-24.4,20.3-54.7H159.7z"/>
		<path class="st17" d="M195.3,169.6l-4.8,21.9l2.2-21.9h-3l-3.9,38.3c-0.1,0.8,0.6,1.5,1.4,1.6c0.4,0,0.7-0.1,1-0.3
			c0.8,0.1,1.5-0.4,1.6-1.2l8.5-38.4H195.3z"/>
		<path class="st19" d="M201.6,151.9l-12.3,55.5c-0.1,0.8,0.4,1.6,1.2,1.7c0.8,0.1,1.6-0.4,1.7-1.2l12.3-55.5L201.6,151.9z"/>
		<path class="st19" d="M194,151.4l-5.7,56.6c-0.1,0.8,0.6,1.5,1.4,1.6c0.8,0.1,1.5-0.6,1.6-1.4l5.7-56.6L194,151.4z"/>
		<path class="st20" d="M159.2,186.8c3,21.9,11.2,37.6,20.8,37.6c9.6,0,17.8-15.7,20.8-37.6H159.2z"/>
		<path class="st21" d="M180,212.7c-7,0-14.1-7.3-20-20.4c3.5,19,11.1,32.1,20,32.1c8.8,0,16.4-13.1,20-32.1
			C194.1,205.4,187,212.7,180,212.7z"/>
		<path class="st16" d="M152.3,164.7c0.4,35.8,12.6,64.6,27.7,64.6c15.1,0,27.4-28.8,27.7-64.6H152.3z M180,224.4
			c-12,0-21.8-24.4-22.1-54.7h44.2C201.8,200,192,224.4,180,224.4z"/>
		<g>
			<path class="st15" d="M154.3,164.7h-2c0.4,35.8,12.6,64.6,27.7,64.6c0.3,0,0.7,0,1,0C166.4,228,154.7,199.7,154.3,164.7z"/>
		</g>
	</g>
</g>
</svg>
