<?xml version="1.0" encoding="utf-8"?>
<!-- Generator: Adobe Illustrator 23.0.0, SVG Export Plug-In . SVG Version: 6.00 Build 0)  -->
<svg version="1.1" id="Capa_1" xmlns="http://www.w3.org/2000/svg" xmlns:xlink="http://www.w3.org/1999/xlink" x="0px" y="0px"
	 viewBox="0 0 360 363" style="enable-background:new 0 0 360 363;" xml:space="preserve">
<style type="text/css">
	.st0{fill:#FFD084;}
	.st1{fill:none;stroke:#FFE1C0;stroke-width:0.7573;stroke-miterlimit:10;}
	.st2{fill:#FFD6A4;}
	.st3{fill:none;stroke:#FFE1C0;stroke-width:0.75;stroke-miterlimit:10;}
	.st4{fill:#FFE1C0;}
	.st5{fill:none;stroke:#FFD6A4;stroke-width:0.75;stroke-miterlimit:10;}
	.st6{fill:none;stroke:#FFEFE1;stroke-width:0.7478;stroke-miterlimit:10;}
	.st7{fill:#8F7CE5;}
	.st8{fill:#A6A6DD;}
	.st9{fill:#FFE5CC;}
	.st10{fill:none;stroke:#FFD6A4;stroke-miterlimit:10;}
	.st11{clip-path:url(#SVGID_2_);fill:#FFD8AE;}
	.st12{clip-path:url(#SVGID_4_);fill:#FFD8AE;}
	.st13{fill:none;stroke:#FFFFFF;stroke-width:16;stroke-linejoin:round;stroke-miterlimit:10;}
	.st14{fill:none;stroke:#FFFFFF;stroke-width:13.3375;stroke-linecap:round;stroke-linejoin:round;stroke-miterlimit:10;}
	.st15{fill:#FFC973;}
	.st16{fill:#3D9EC1;}
	.st17{fill:#78C9E9;}
	.st18{fill:#D84545;}
	.st19{fill:#496D31;}
	.st20{fill:#AF1E3B;}
	.st21{clip-path:url(#SVGID_6_);fill:#9B1334;}
	.st22{clip-path:url(#SVGID_8_);fill:#B52D4E;}
	.st23{opacity:0.21;clip-path:url(#SVGID_10_);fill:#AF1E3B;enable-background:new    ;}
	.st24{opacity:0.15;clip-path:url(#SVGID_12_);fill:#AF1E3B;enable-background:new    ;}
	.st25{opacity:0.15;clip-path:url(#SVGID_14_);fill:#AF1E3B;enable-background:new    ;}
	.st26{opacity:0.1;fill:#FFFFFF;enable-background:new    ;}
	.st27{opacity:0.13;fill:#FFFFFF;enable-background:new    ;}
	.st28{fill:#FFFFFF;}
	.st29{fill:#A04C13;}
	.st30{fill:#BC5B19;}
	.st31{fill:#C66524;}
	.st32{fill:#9B4040;}
	.st33{fill:#CCCCFF;}
	.st34{fill:#E1E1FF;}
	.st35{fill:#B5B5F4;}
	.st36{fill:#9C9CE2;}
	.st37{display:none;fill:#F2DADA;}
</style>
<g id="fondo">
	<g>
		<g id="Rectángulo_556">
			<rect y="-0.1" class="st0" width="360" height="363.3"/>
			<rect x="0.5" y="0.4" class="st0" width="359" height="362.2"/>
		</g>
		<path class="st1" d="M228.1,258.3c0,0,43.9-35.1,59.7-104.9c15.8-69.8-12.4-91.7-12.4-91.7S254.9,35.3,242,72.3
			c0,0-11.1,37.2-24.4,18.6c0,0-4-5.6-6.5-13c-2.5-7.3-11-10.5-11-10.5s-21.4-7.3-59.4,34.8c0,0-30.9,35.9-25.5,83.1
			s10.5,56.8,10.5,56.8L228.1,258.3z"/>
		<path class="st2" d="M225.9,271.1c0,0,43.1-35.1,58.6-104.9s-12.2-91.7-12.2-91.7s-20.1-26.4-32.8,10.6c0,0-10.9,37.2-23.9,18.6
			c0,0-3.9-5.6-6.4-13c-2.5-7.3-10.8-10.5-10.8-10.5s-21-7.3-58.2,34.8c0,0-30.3,35.9-25,83.1s10.3,56.8,10.3,56.8L225.9,271.1z"/>
		<path class="st3" d="M114.9,245.6c0,0-61.2-54.4-49.7-80.4s30.9-7.5,30.9-7.5s25.7,22.6,47.9,63.9L114.9,245.6z"/>
		<path class="st2" d="M115.8,249.7c0,0-54.1-58.6-42.6-84.6s30.9-7.5,30.9-7.5s25.7,22.6,47.9,63.9L115.8,249.7z"/>
		<path class="st4" d="M206.4,265c0,0,41.3-44.5,60.9-102.7c0,0,11.1-34-2.3-60c0,0-8.2-25.8-29.3,14.8S206.3,129,206.3,129
			s-8.1-59.5-44-15.2s-22.9,140.1-22.9,140.1L206.4,265z"/>
		<path class="st5" d="M191.1,241.3c0,0,54.3-73,68-155.4"/>
		<path class="st6" d="M195.3,266c0,0,33.9-33.6,51.3-78.9c0,0,9.9-26.5,0.3-47.4c0,0-5.5-20.6-23.5,10.6s-23.4,8.4-23.4,8.4
			s-4.3-47.2-33.9-13.5s-22.8,109.6-22.8,109.6L195.3,266z"/>
		<g>
			
				<ellipse transform="matrix(1 -1.876222e-03 1.876222e-03 1 -0.526 0.338)" class="st7" cx="179.9" cy="280.5" rx="102.6" ry="21.4"/>
			<polygon class="st7" points="282.5,280.3 282.7,266.4 77.5,266.8 77.3,280.7 			"/>
			
				<ellipse transform="matrix(1 -1.876222e-03 1.876222e-03 1 -0.4999 0.3384)" class="st8" cx="180.1" cy="266.6" rx="102.6" ry="21.4"/>
		</g>
		<path class="st3" d="M239.7,220.4c0,0,41.8-19.1,39.9,9s-53,30.9-53,30.9s-15.5-0.3-14.5-10.3C213.2,240,218.5,230.9,239.7,220.4z
			"/>
		<path class="st9" d="M229.9,222.9c0,0,37.6-26.4,40.9,1.5c3.2,27.9-46.4,40.1-46.4,40.1S209,267,208.2,257
			C207.3,247,211,237.1,229.9,222.9z"/>
		<path class="st10" d="M208.2,257c0,0,44.4-19.6,65.3-41.4"/>
		<g>
			<g>
				<g>
					<g>
						<g>
							<g>
								<defs>
									<path id="SVGID_1_" d="M229.9,222.9c0,0,37.6-26.4,40.9,1.5c3.2,27.9-46.4,40.1-46.4,40.1S209,267,208.2,257
										C207.3,247,211,237.1,229.9,222.9z"/>
								</defs>
								<clipPath id="SVGID_2_">
									<use xlink:href="#SVGID_1_"  style="overflow:visible;"/>
								</clipPath>
								<path class="st11" d="M240.9,211.5c0,0-27.3,46.6,4.8,50c21.5,2.3-22.9,11.5-22.9,11.5l-20.3-4.6l-1.3-29l20-22.9
									L240.9,211.5z"/>
							</g>
						</g>
					</g>
				</g>
			</g>
		</g>
		<g>
			<path class="st9" d="M128.2,225.7c0,0-34.9-21.9-37.3,9.5c0,0,6.5,28.1,39.9,22.4C164.1,251.8,128.2,225.7,128.2,225.7z"/>
		</g>
		<path class="st10" d="M143,248.3c0,0-40.9-21-62.4-13.1"/>
		<g>
			<g>
				<g>
					<g>
						<g>
							<g>
								<defs>
									<path id="SVGID_3_" d="M128.2,225.7c0,0-34.9-21.9-37.3,9.5c0,0,6.5,28.1,39.9,22.4C164.1,251.8,128.2,225.7,128.2,225.7z"
										/>
								</defs>
								<clipPath id="SVGID_4_">
									<use xlink:href="#SVGID_3_"  style="overflow:visible;"/>
								</clipPath>
								<path class="st12" d="M124.1,218.3h-4h-3.6c0,0,17.6,26,9.4,34.6c-8.2,8.6-9.4,6.7-9.4,6.7l19.6,1.8l15.9-7.2l1.2-14.3
									l-16-11.9L124.1,218.3z"/>
							</g>
						</g>
					</g>
				</g>
			</g>
		</g>
		<path class="st3" d="M84.5,161.6c0,0,21.6,45.3,54.6,70.4"/>
		<path class="st3" d="M103.9,163.3c0,0-5.4,4-7,10.8"/>
		<path class="st3" d="M108.2,171.4c0,0-5.3,5.3-6,14.2"/>
		<path class="st3" d="M96.9,190.4c0,0-6.3-0.5-14.9,3.7"/>
		<path class="st3" d="M102.2,196.8c0,0-10.9,0.4-15.6,3.7"/>
		<path class="st2" d="M109.5,107.7c0.1,4-3.4,7.8-6.2,10.4c-1-2.4-1.9-5-2-7.6c-0.1-2,0.7-4,2.2-5.3c0.5-0.4,1-0.8,1.7-0.9
			c0.4-0.1,0.7-0.2,1.1-0.2C108,104.3,109.4,105.9,109.5,107.7z"/>
		<path class="st2" d="M81.9,123.8c-3.1,0.3-9-1.1-11.6-3.2c-2.3-1.7-2.3-2.2-3.4-4.9c-1-2.7,0.6-5.9,3.6-6.2
			c1.5-0.2,3.1,0.2,4.3,1.1C79.1,113.4,82.6,118.4,81.9,123.8z"/>
		<path class="st4" d="M105.6,142.4c-1.9,1.1-5-0.2-4.7-2.6c-0.2-2.8,4.1-3.8,5.6-1.6C107.5,139.5,106.9,141.6,105.6,142.4z"/>
		<path class="st4" d="M319.5,85.1c-2.6,1.4-6.6-0.3-6.3-3.5c-0.2-3.8,5.5-5.1,7.4-2.1C322,81.2,321.3,83.9,319.5,85.1z"/>
		<path class="st2" d="M328.9,297.3c-3.1,1.7-7.9-0.3-7.6-4.2c-0.3-4.5,6.6-6.1,8.9-2.5C331.9,292.6,331,295.9,328.9,297.3z"/>
		<path class="st4" d="M286.4,309c-2,1.1-5.2-0.2-5-2.8c-0.2-3,4.3-4,5.8-1.7C288.4,305.9,287.9,308.1,286.4,309z"/>
		<path class="st2" d="M61.9,244.7c-2.6,1.4-6.6-0.3-6.3-3.5c-0.2-3.8,5.5-5.1,7.4-2.1C64.4,240.8,63.7,243.5,61.9,244.7z"/>
		
			<ellipse transform="matrix(0.3506 -0.9365 0.9365 0.3506 -94.4212 226.7174)" class="st9" cx="116.3" cy="181.4" rx="2.7" ry="1.7"/>
		
			<ellipse transform="matrix(0.3506 -0.9365 0.9365 0.3506 -102.8667 234.9736)" class="st9" cx="118" cy="191.7" rx="2.7" ry="1.7"/>
		
			<ellipse transform="matrix(0.3506 -0.9365 0.9365 0.3506 -131.5903 232.9318)" class="st0" cx="102.2" cy="211.4" rx="3" ry="1.8"/>
	</g>
</g>
<path class="st13" d="M195.5,253.5l-0.1-0.1c0,0,0,0-0.1-0.1l0,0c-1.8-1.7-5.8-3.5-10.9-4.5c0-3.1-2-5.7-4.7-6.7v-42.5
	c2.7-1,4.7-3.6,4.7-6.7c0-0.1,0-0.6,0-0.8l48.3-50.1H124.5h-2.8l49.6,51.5c-0.2-0.2-0.5-0.4-0.7-0.6c-0.1-0.1-0.3-0.3-0.4-0.4v0.1
	l-0.1-0.1c0,0.1,0,0.3,0,0.4c0,3,1.8,5.5,4.5,6.6v42.6c-2.6,1-4.5,3.6-4.5,6.5c-7.1,1.3-12.2,4.3-12.2,6.3c0,0.3,0.2,0.6,0.5,0.9
	c1.7,1.9,9.5,2.5,18.8,2.5c10.6,0,19.2-0.8,19.2-3.3C196.3,254.6,196,254,195.5,253.5z M154.2,163.9L154.2,163.9l22.9,23.7v0.1
	l-35.9-37.3L154.2,163.9z"/>
<g>
	<g>
		<path class="st14" d="M243,125c-3.5-3.7-11.2-10.3-16.9-6.9c-3,1.7-3.7,7.6-3,10.6c0.8,4.3,5.1,13.9,10.8,13.2
			c2.9-0.4,4.9-5,4.2-7.7c-1.2-5.3-9.8-8.6-14.5-9.3c-5.8-1-8.4,1.8-10,7.1c-1.8,5.8,0.5,13.7,6.3,16.8c3.5,1.8,6.1-1.8,5.7-5.3
			c-0.7-5-10.4-8.5-14.4-8.8c-5.3-0.4-7,3.7-7.7,8.1c0.3-1.2,0.9-2.3,1.2-3.5c-0.3,2-0.1,0.3,1.2-0.4c1-0.6,1.9-0.7,3-0.7
			c2.3-0.2,4.8,0.7,7,1.6c2.5,1.1,9.7,4.5,8.8,8.1c0.4-1.2,0.8-2.3,1.1-3.4c-1.7,3.4-5.9-0.2-7.4-2c-2.9-3.5-5.1-8.7-3.6-13.3
			c-0.2,1-0.6,2.1-0.9,3c2.6-5.7,9.1-4.7,13.9-2.7c3.4,1.4,10.5,4.9,9.7,9.6c0.4-1.2,0.8-2.3,1.1-3.4c-1.9,5.1-7.7,0.6-9.6-1.8
			c-2.8-3.6-5.4-9-4.3-13.7c-0.2,1-0.6,2.1-0.9,3c1.4-4.3,7.8-2.4,10.6-0.9c3,1.5,5.6,3.7,7.8,6.1C241.5,128.1,243.4,125.4,243,125
			L243,125z"/>
	</g>
</g>
<g>
	<g>
		<g>
			<g>
				<path class="st15" d="M243,125c-3.5-3.7-11.2-10.3-16.9-6.9c-3,1.7-3.7,7.6-3,10.6c0.8,4.3,5.1,13.9,10.8,13.2
					c2.9-0.4,4.9-5,4.2-7.7c-1.2-5.3-9.8-8.6-14.5-9.3c-5.8-1-8.4,1.8-10,7.1c-1.8,5.8,0.5,13.7,6.3,16.8c3.5,1.8,6.1-1.8,5.7-5.3
					c-0.7-5-10.4-8.5-14.4-8.8c-5.3-0.4-7,3.7-7.7,8.1c0.3-1.2,0.9-2.3,1.2-3.5c-0.3,2-0.1,0.3,1.2-0.4c1-0.6,1.9-0.7,3-0.7
					c2.3-0.2,4.8,0.7,7,1.6c2.5,1.1,9.7,4.5,8.8,8.1c0.4-1.2,0.8-2.3,1.1-3.4c-1.7,3.4-5.9-0.2-7.4-2c-2.9-3.5-5.1-8.7-3.6-13.3
					c-0.2,1-0.6,2.1-0.9,3c2.6-5.7,9.1-4.7,13.9-2.7c3.4,1.4,10.5,4.9,9.7,9.6c0.4-1.2,0.8-2.3,1.1-3.4c-1.9,5.1-7.7,0.6-9.6-1.8
					c-2.8-3.6-5.4-9-4.3-13.7c-0.2,1-0.6,2.1-0.9,3c1.4-4.3,7.8-2.4,10.6-0.9c3,1.5,5.6,3.7,7.8,6.1
					C241.5,128.1,243.4,125.4,243,125L243,125z"/>
			</g>
		</g>
	</g>
</g>
<g>
	<g>
		<g>
			<polygon class="st16" points="213.1,150.4 141.2,150.4 177.2,187.7 			"/>
			<polygon class="st17" points="209.5,150.4 144.8,150.4 177.2,187.7 			"/>
			<polygon class="st18" points="149.1,158.6 177.2,187.7 205.2,158.6 			"/>
			<g>
				<path class="st19" d="M202.3,153.3c-0.5-0.1-0.9-0.2-1.4-0.3c-0.2-0.1-0.6-0.2-0.7-0.3c0.1,0.1,0.2,0.1,0.2,0.1
					c-6.5-0.2-12.9,2.6-17.2,7.6c-0.4,0.6-0.9,1.2-1.4,1.8c-0.7,0.9-1.4,1.8-2.1,2.5l0.3,0.3c0.8-0.8,1.4-1.7,2.1-2.6
					c0.4-0.6,0.9-1.1,1.4-1.8c4.5-5.2,11.4-8,18.2-7.3l1.3,0.1C202.9,153.4,202.5,153.3,202.3,153.3z"/>
				<path class="st20" d="M175.3,159.8c-1,0-2,0.6-2.8,1.2c-2,1.6-3.4,3.9-3.8,6.3c-0.4,2.5,0.3,5.2,2,7c0.7,0.7,1.5,1.3,2.5,1.5
					c1.2,0.3,2.7,0.7,3.9,0.5c2.3-0.4,4.2-1.6,6.1-3.1c2.1-1.6,3.4-4.5,2.1-7c-1.2-2.3-3.3-3.1-5.3-4.3
					C178.6,161.2,177,159.7,175.3,159.8z"/>
				<g>
					<g>
						<g>
							<g>
								<g>
									<defs>
										<path id="SVGID_5_" d="M175.3,159.8c-1,0-2,0.6-2.8,1.2c-2,1.6-3.4,3.9-3.8,6.3c-0.4,2.5,0.3,5.2,2,7
											c0.7,0.7,1.5,1.3,2.5,1.5c1.2,0.3,2.7,0.7,3.9,0.5c2.3-0.4,4.2-1.6,6.1-3.1c2.1-1.6,3.4-4.5,2.1-7
											c-1.2-2.3-3.3-3.1-5.3-4.3C178.6,161.2,177,159.7,175.3,159.8z"/>
									</defs>
									<clipPath id="SVGID_6_">
										<use xlink:href="#SVGID_5_"  style="overflow:visible;"/>
									</clipPath>
									<path class="st21" d="M181.5,162c-1-2.5-3.5-3.7-6.1-3.2c-2.8,0.6-5.1,2.9-6.4,5.4c-1.2,2.3-1.7,4.9-1.2,7.4s2.3,5.2,5,5.8
										c1.2,0.3,2.2-1.3,1.2-2.2c-1.4-1.2-2.6-2.3-3.1-4.1c-0.4-1.6-0.1-3.5,0.7-4.9c0.8-1.6,2.1-3.2,3.8-3.9
										c1.4-0.6,3.4-0.4,4.5,0.7C180.4,163.7,181.9,162.9,181.5,162L181.5,162z"/>
								</g>
							</g>
						</g>
					</g>
					<g>
						<g>
							<g>
								<g>
									<defs>
										<path id="SVGID_7_" d="M175.3,159.8c-1,0-2,0.6-2.8,1.2c-2,1.6-3.4,3.9-3.8,6.3c-0.4,2.5,0.3,5.2,2,7
											c0.7,0.7,1.5,1.3,2.5,1.5c1.2,0.3,2.7,0.7,3.9,0.5c2.3-0.4,4.2-1.6,6.1-3.1c2.1-1.6,3.4-4.5,2.1-7
											c-1.2-2.3-3.3-3.1-5.3-4.3C178.6,161.2,177,159.7,175.3,159.8z"/>
									</defs>
									<clipPath id="SVGID_8_">
										<use xlink:href="#SVGID_7_"  style="overflow:visible;"/>
									</clipPath>
									<path class="st22" d="M181.7,164.5c1,0.8,2.1,2.2,2.4,3.5c0.3,1.4-0.4,2.8-1.2,3.9c-1,1.3-2.3,2.5-3.8,3.4
										c-0.7,0.5-1.6,0.9-2.4,1.1c-0.9,0.2-1.8,0-2.6,0.3s-1.2,1.3-0.5,2c1.8,1.8,5,0.5,6.9-0.6c1.9-1.2,3.8-2.9,5.2-4.8
										c1.3-1.8,2-4,1.5-6.1c-0.5-2.3-2-4-4.3-4.4C181.8,162.5,180.8,163.9,181.7,164.5L181.7,164.5z"/>
								</g>
							</g>
						</g>
					</g>
					<g>
						<g>
							<g>
								<g>
									<defs>
										<path id="SVGID_9_" d="M175.3,159.8c-1,0-2,0.6-2.8,1.2c-2,1.6-3.4,3.9-3.8,6.3c-0.4,2.5,0.3,5.2,2,7
											c0.7,0.7,1.5,1.3,2.5,1.5c1.2,0.3,2.7,0.7,3.9,0.5c2.3-0.4,4.2-1.6,6.1-3.1c2.1-1.6,3.4-4.5,2.1-7
											c-1.2-2.3-3.3-3.1-5.3-4.3C178.6,161.2,177,159.7,175.3,159.8z"/>
									</defs>
									<clipPath id="SVGID_10_">
										<use xlink:href="#SVGID_9_"  style="overflow:visible;"/>
									</clipPath>
									<path class="st23" d="M185,174.9c0.7-0.8,1.7-0.8,1-1.6c-0.6-0.7-1.3-0.8-3-1.2c-0.7-0.2-2.9-0.9-3.6-1.2
										c-1.2-0.7-1.8-1.3-2.7-2.4c-1-1.2-1.6-2.6-1.5-4.2c0.1-1.9,2.5-2.7,3.8-3.3c1.9-0.9,0.8-3.8-1.1-3.8
										c-1.5,0-2.9,0.7-4.1,1.5c-1.1,0.7-2.3,1.6-3.2,2.5c-0.8,0.8-1.4,1.8-1.7,2.8l0,0c-1.8,1.4-2.5,4.1-1.7,6.3
										c0.4,1.1,0.9,2.1,1.7,2.9c0.4,0.6,0.8,1.3,1.3,1.8c0.3,0.3,1.9,1.1,2.3,1.4c0.6,0.6,1.3,0.6,1.8,0.2
										c0.3,0.1,0.8,0.2,1.2,0.3c2,0.4,3.9,0.7,5.8-0.1c0.2-0.1,0.4-0.3,0.6-0.5C183.2,176.1,184.2,175.8,185,174.9z"/>
								</g>
							</g>
						</g>
					</g>
					<g>
						<g>
							<g>
								<g>
									<defs>
										<path id="SVGID_11_" d="M175.3,159.8c-1,0-2,0.6-2.8,1.2c-2,1.6-3.4,3.9-3.8,6.3c-0.4,2.5,0.3,5.2,2,7
											c0.7,0.7,1.5,1.3,2.5,1.5c1.2,0.3,2.7,0.7,3.9,0.5c2.3-0.4,4.2-1.6,6.1-3.1c2.1-1.6,3.4-4.5,2.1-7
											c-1.2-2.3-3.3-3.1-5.3-4.3C178.6,161.2,177,159.7,175.3,159.8z"/>
									</defs>
									<clipPath id="SVGID_12_">
										<use xlink:href="#SVGID_11_"  style="overflow:visible;"/>
									</clipPath>
									<path class="st24" d="M185.3,179.4c0.5-0.9,1.7-0.8,0.7-2c-0.9-1.1-1.7-1.3-3.6-2.1c-0.8-0.3-3.4-1.6-4.2-2.1
										c-1.5-1.1-2.5-2.1-3.8-3.6c-1.5-1.8-2.1-2.8-2.5-5c-0.4-2.5,2.1-3.7,3.5-4.4c1.9-0.9,0-4.9-2.2-5.2
										c-1.7-0.2-3.1,0.4-4.2,1.3c-1,0.8-2.2,1.7-3,2.7c-0.7,1-1.1,2-1.2,3.3l0,0c-1.7,1.6-1.8,5.1-0.3,8c0.7,1.4,1.6,2.8,2.6,4.1
										c0.6,0.8,1.2,1.9,1.9,2.6c0.5,0.4,2.4,1.7,3,2.2c0.8,0.9,1.6,1,2.1,0.6c0.5,0.2,1,0.4,1.4,0.5c2.3,0.7,4.6,1.6,6.5,0.6
										c0.2-0.1,0.4-0.3,0.5-0.5C183.7,180.8,184.7,180.5,185.3,179.4z"/>
								</g>
							</g>
						</g>
					</g>
					<g>
						<g>
							<g>
								<g>
									<defs>
										<path id="SVGID_13_" d="M175.3,159.8c-1,0-2,0.6-2.8,1.2c-2,1.6-3.4,3.9-3.8,6.3c-0.4,2.5,0.3,5.2,2,7
											c0.7,0.7,1.5,1.3,2.5,1.5c1.2,0.3,2.7,0.7,3.9,0.5c2.3-0.4,4.2-1.6,6.1-3.1c2.1-1.6,3.4-4.5,2.1-7
											c-1.2-2.3-3.3-3.1-5.3-4.3C178.6,161.2,177,159.7,175.3,159.8z"/>
									</defs>
									<clipPath id="SVGID_14_">
										<use xlink:href="#SVGID_13_"  style="overflow:visible;"/>
									</clipPath>
									<path class="st25" d="M183.4,179.5c0.4-1,1.6-1,0.5-2.1c-1-0.9-1.8-1.1-3.8-1.6c-0.9-0.2-3.7-0.7-4.5-1.2
										c-1.6-0.9-2.9-1.7-4.3-3.1c-1.7-1.6-2.4-3.4-2.9-5.5c-0.6-2.5,1.8-3.8,3.1-4.5c1.8-1.1-0.6-4.9-2.7-4.9
										c-1.7,0-3,0.7-4.1,1.8c-0.9,0.9-1.9,1.9-2.6,3.1c-0.6,1-0.9,2.1-0.8,3.5l0,0c-1.4,1.8-1.2,5.2,0.5,8c0.9,1.4,1.8,2.7,3,3.7
										c0.7,0.8,1.4,1.8,2.2,2.4c0.5,0.3,2.7,1.5,3.2,1.9c0.9,0.8,1.7,0.8,2.1,0.3c0.5,0.2,1,0.3,1.5,0.3c2.3,0.5,4.7,1,6.5,0
										c0.2-0.1,0.3-0.3,0.4-0.6C181.8,181.1,182.9,180.7,183.4,179.5z"/>
								</g>
							</g>
						</g>
					</g>
				</g>
				<path class="st26" d="M180.1,166.6c-0.2-0.4-0.1-0.2-0.1,0.1c0,0.2,0,0.3,0,0.6c-0.1,0.3-0.1,0.7-0.3,1c-0.2,0.6-0.6,1.1-1,1.4
					c-1.2,1-3,0.8-4,2.2c-0.2,0.3-0.2,0.9,0,1.2c1.9,2.5,5.8,0.1,7.2-1.7c0.8-1.1,1.3-2.4,0.9-3.8c-0.2-1.1-1.1-2.3-2.3-1.9
					C180.1,165.7,180,166.2,180.1,166.6L180.1,166.6z"/>
				<path class="st27" d="M184.9,168.1c0-1.3-0.9-2.5-2-3.1c-0.5-0.3-1.1-0.3-1.6-0.3c-0.6-0.2-1.3-0.1-2,0.3
					c-2.3,1.3-1.7,4.6,0.3,5.8C181.9,172.2,185,170.8,184.9,168.1z"/>
				<path class="st28" d="M182.2,167.1c-0.1,0.6,0,1.1-0.1,1.7c0,0.6-0.3,1.1-0.6,1.6c-0.3,0.4-1.1,1.4-0.1,1.5s1.8-1,2-1.9
					c0.3-1,0.4-2.4-0.4-3.2C182.7,166.6,182.2,166.8,182.2,167.1L182.2,167.1z"/>
				<path class="st29" d="M201.2,152.1c1.4,0.1,2.9,0.3,4.2,0.9c0.1,0.1,0.2,0.1,0.2,0.1s0.1,0.2,0.1,0.3c0,0.5-0.2,1-0.4,1.4
					c0.1-0.2-2.9-1.1-3.2-1.1c-0.5-0.1-1.2-0.1-1.4-0.6C200.4,152.8,200.7,152.1,201.2,152.1z"/>
				<path class="st30" d="M201.1,152.9c1.4,0.1,2.9,0.3,4.2,0.9c0.1,0.1,0.2,0.1,0.2,0.1c0.1,0.1,0.1,0.2,0.1,0.3
					c0,0.5-0.2,1-0.4,1.4c0.1-0.2-2.9-1.1-3.2-1.1c-0.5-0.1-1.2-0.1-1.4-0.6C200.2,153.5,200.5,152.8,201.1,152.9z"/>
				<path class="st31" d="M202.8,153.4c0.8,0.2,1.5,0.4,2.1,0.8c0.1,0.1,0.1,0.1,0.1,0.1v0.1c-0.2,0.2-0.3,0.3-0.6,0.6
					c0.1-0.1-1.4-0.8-1.5-0.8c-0.2-0.1-0.6-0.2-0.6-0.4C202.2,153.6,202.5,153.4,202.8,153.4z"/>
			</g>
			<polygon class="st32" points="177.2,181 154.3,163.9 154.2,163.9 177.2,187.7 200.1,163.9 200,163.9 			"/>
			<path class="st33" d="M121.7,142.1l55.5,57.6l55.5-57.6H121.7z M141.2,150.4H213l-35.9,37.3L141.2,150.4z"/>
			<polygon class="st34" points="124.5,142.1 121.7,142.1 177.2,199.7 178.6,198.2 			"/>
			<path class="st35" d="M174.6,196.9V248c0,2.3,1.1,4.1,2.6,4.1c1.4,0,2.5-1.8,2.5-4.1v-51.4C178.4,197.9,176.1,198,174.6,196.9z"
				/>
			<path class="st35" d="M184.4,248.8c0,3.9-3.2,7.1-7.1,7.1c-3.9,0-7.1-3.2-7.1-7.1c0-3.9,3.2-7.1,7.1-7.1S184.4,244.9,184.4,248.8
				z"/>
			<path class="st36" d="M177.3,255.9c3.9,0,7.1-3.2,7.1-7.1c0-0.9-0.2-1.7-0.5-2.5c-2.1-0.4-4.4-0.6-6.7-0.6s-4.5,0.2-6.5,0.6
				c-0.3,0.8-0.5,1.6-0.5,2.5C170.1,252.7,173.3,255.9,177.3,255.9C177.2,255.9,177.3,255.9,177.3,255.9z"/>
			<path class="st35" d="M177.3,195.5c-2.9,0-5.5-1.1-7.1-2.9c0,0.1,0,0.3,0,0.4c0,3.9,3.2,7.1,7.1,7.1c3.9,0,7.1-3.2,7.1-7.1
				c0-0.1,0-0.6,0-0.8C182.7,194,180.2,195.5,177.3,195.5z"/>
			<path class="st36" d="M170.6,193c1,2.7,3.6,4.6,6.6,4.6c3.2,0,5.9-2.1,6.8-5c-1.6,1.6-4,2.9-6.8,2.9
				C174.6,195.5,172.2,194.5,170.6,193z"/>
			<path class="st33" d="M177.7,233.9c-0.5,0-0.9-0.4-0.9-0.9v-31.2c0-0.5,0.4-0.9,0.9-0.9l0,0c0.5,0,0.9,0.4,0.9,0.9V233
				C178.6,233.5,178.2,233.9,177.7,233.9L177.7,233.9z"/>
			<path class="st34" d="M171.5,193.8c-0.5-0.4-1-0.8-1.4-1.2c0,0.1,0,0.3,0,0.4c0,3,1.8,5.5,4.5,6.6v42.6c-2.6,1-4.5,3.6-4.5,6.6
				c0,3.1,1.9,5.7,4.6,6.7c-2.1-1.2-3.6-3.5-3.6-6.1c0-3,1.8-5.5,4.5-6.6v-44.3C173.7,197.6,172.1,195.9,171.5,193.8z"/>
			<path class="st33" d="M196.3,255c0,2.5-8.6,3.3-19.2,3.3c-10.6,0-19.2-0.8-19.2-3.3c0-2.5,8.6-6.9,19.2-6.9
				C187.8,248.1,196.3,252.5,196.3,255z"/>
			<path class="st35" d="M195.3,253.3c-2.6,1.4-9.7,1.9-18.1,1.9c-8.4,0-15.5-0.5-18.1-1.9c-0.7,0.6-1.1,1.2-1.1,1.8
				c0,2.5,8.6,3.3,19.2,3.3c10.6,0,19.2-0.8,19.2-3.3C196.3,254.5,196,253.9,195.3,253.3z"/>
			<path class="st34" d="M179.7,257.2c-10.6,0-19.2-0.8-19.2-3.3c0-1,1.4-2.4,3.9-3.6c-3.9,1.5-6.4,3.4-6.4,4.7
				c0,2.5,8.6,3.3,19.2,3.3c9.1,0,16.7-0.6,18.7-2.3C192.4,256.9,186.5,257.2,179.7,257.2z"/>
		</g>
	</g>
</g>
<polygon class="st37" points="200,163.9 201.9,162 202.5,161.3 151.7,161.3 154.2,163.9 "/>
</svg>
