<?xml version="1.0" encoding="utf-8"?>
<!-- Generator: Adobe Illustrator 23.0.0, SVG Export Plug-In . SVG Version: 6.00 Build 0)  -->
<svg version="1.1" id="Capa_1" xmlns="http://www.w3.org/2000/svg" xmlns:xlink="http://www.w3.org/1999/xlink" x="0px" y="0px"
	 viewBox="0 0 360 363" style="enable-background:new 0 0 360 363;" xml:space="preserve">
<style type="text/css">
	.st0{fill:#FFD084;}
	.st1{fill:none;stroke:#FFE1C0;stroke-width:0.7573;stroke-miterlimit:10;}
	.st2{fill:#FFD6A4;}
	.st3{fill:none;stroke:#FFE1C0;stroke-width:0.75;stroke-miterlimit:10;}
	.st4{fill:#FFE1C0;}
	.st5{fill:none;stroke:#FFD6A4;stroke-width:0.75;stroke-miterlimit:10;}
	.st6{fill:none;stroke:#FFEFE1;stroke-width:0.7478;stroke-miterlimit:10;}
	.st7{fill:#8F7CE5;}
	.st8{fill:#A6A6DD;}
	.st9{fill:#FFE5CC;}
	.st10{fill:none;stroke:#FFD6A4;stroke-miterlimit:10;}
	.st11{clip-path:url(#SVGID_2_);fill:#FFD8AE;}
	.st12{clip-path:url(#SVGID_4_);fill:#FFD8AE;}
	.st13{fill:none;stroke:#FFFFFF;stroke-width:16;stroke-linejoin:round;stroke-miterlimit:10;}
	.st14{fill:#2A8455;}
	.st15{fill:url(#SVGID_5_);}
	.st16{fill:url(#SVGID_6_);}
	.st17{fill:url(#SVGID_7_);}
	.st18{fill:#16151C;}
	.st19{fill:#54535B;}
	.st20{display:none;opacity:0.3;}
	.st21{display:inline;fill:url(#SVGID_8_);}
	.st22{display:inline;fill:url(#SVGID_9_);}
	.st23{fill:#3D9EC1;}
	.st24{fill:#78C9E9;}
	.st25{opacity:0.47;fill:#3D9EC1;enable-background:new    ;}
	.st26{fill:#ED918C;}
	.st27{fill:#E25F59;}
	.st28{fill:#D83E2A;}
	.st29{fill:#CCCCFF;}
	.st30{fill:#E1E1FF;}
	.st31{fill:#B5B5F4;}
	.st32{fill:#9C9CE2;}
</style>
<g id="fondo">
	<g>
		<g id="Rectángulo_556">
			<rect y="-0.1" class="st0" width="360" height="363.3"/>
			<rect x="0.5" y="0.4" class="st0" width="359" height="362.2"/>
		</g>
		<path class="st1" d="M228.1,258.3c0,0,43.9-35.1,59.7-104.9c15.8-69.8-12.4-91.7-12.4-91.7S254.9,35.3,242,72.3
			c0,0-11.1,37.2-24.4,18.6c0,0-4-5.6-6.5-13c-2.5-7.3-11-10.5-11-10.5s-21.4-7.3-59.4,34.8c0,0-30.9,35.9-25.5,83.1
			s10.5,56.8,10.5,56.8L228.1,258.3z"/>
		<path class="st2" d="M225.9,271.1c0,0,43.1-35.1,58.6-104.9s-12.2-91.7-12.2-91.7s-20.1-26.4-32.8,10.6c0,0-10.9,37.2-23.9,18.6
			c0,0-3.9-5.6-6.4-13c-2.5-7.3-10.8-10.5-10.8-10.5s-21-7.3-58.2,34.8c0,0-30.3,35.9-25,83.1s10.3,56.8,10.3,56.8L225.9,271.1z"/>
		<path class="st3" d="M114.9,245.6c0,0-61.2-54.4-49.7-80.4s30.9-7.5,30.9-7.5s25.7,22.6,47.9,63.9L114.9,245.6z"/>
		<path class="st2" d="M115.8,249.7c0,0-54.1-58.6-42.6-84.6s30.9-7.5,30.9-7.5s25.7,22.6,47.9,63.9L115.8,249.7z"/>
		<path class="st4" d="M206.4,265c0,0,41.3-44.5,60.9-102.7c0,0,11.1-34-2.3-60c0,0-8.2-25.8-29.3,14.8S206.3,129,206.3,129
			s-8.1-59.5-44-15.2s-22.9,140.1-22.9,140.1L206.4,265z"/>
		<path class="st5" d="M191.1,241.3c0,0,54.3-73,68-155.4"/>
		<path class="st6" d="M195.3,266c0,0,33.9-33.6,51.3-78.9c0,0,9.9-26.5,0.3-47.4c0,0-5.5-20.6-23.5,10.6s-23.4,8.4-23.4,8.4
			s-4.3-47.2-33.9-13.5s-22.8,109.6-22.8,109.6L195.3,266z"/>
		<g>
			
				<ellipse transform="matrix(1 -1.876222e-03 1.876222e-03 1 -0.526 0.338)" class="st7" cx="179.9" cy="280.5" rx="102.6" ry="21.4"/>
			<polygon class="st7" points="282.5,280.3 282.7,266.4 77.5,266.8 77.3,280.7 			"/>
			
				<ellipse transform="matrix(1 -1.876222e-03 1.876222e-03 1 -0.4999 0.3384)" class="st8" cx="180.1" cy="266.6" rx="102.6" ry="21.4"/>
		</g>
		<path class="st3" d="M239.7,220.4c0,0,41.8-19.1,39.9,9s-53,30.9-53,30.9s-15.5-0.3-14.5-10.3C213.2,240,218.5,230.9,239.7,220.4z
			"/>
		<path class="st9" d="M229.9,222.9c0,0,37.6-26.4,40.9,1.5c3.2,27.9-46.4,40.1-46.4,40.1S209,267,208.2,257
			C207.3,247,211,237.1,229.9,222.9z"/>
		<path class="st10" d="M208.2,257c0,0,44.4-19.6,65.3-41.4"/>
		<g>
			<g>
				<g>
					<g>
						<g>
							<g>
								<defs>
									<path id="SVGID_1_" d="M229.9,222.9c0,0,37.6-26.4,40.9,1.5c3.2,27.9-46.4,40.1-46.4,40.1S209,267,208.2,257
										C207.3,247,211,237.1,229.9,222.9z"/>
								</defs>
								<clipPath id="SVGID_2_">
									<use xlink:href="#SVGID_1_"  style="overflow:visible;"/>
								</clipPath>
								<path class="st11" d="M240.9,211.5c0,0-27.3,46.6,4.8,50c21.5,2.3-22.9,11.5-22.9,11.5l-20.3-4.6l-1.3-29l20-22.9
									L240.9,211.5z"/>
							</g>
						</g>
					</g>
				</g>
			</g>
		</g>
		<g>
			<path class="st9" d="M128.2,225.7c0,0-34.9-21.9-37.3,9.5c0,0,6.5,28.1,39.9,22.4C164.1,251.8,128.2,225.7,128.2,225.7z"/>
		</g>
		<path class="st10" d="M143,248.3c0,0-40.9-21-62.4-13.1"/>
		<g>
			<g>
				<g>
					<g>
						<g>
							<g>
								<defs>
									<path id="SVGID_3_" d="M128.2,225.7c0,0-34.9-21.9-37.3,9.5c0,0,6.5,28.1,39.9,22.4C164.1,251.8,128.2,225.7,128.2,225.7z"
										/>
								</defs>
								<clipPath id="SVGID_4_">
									<use xlink:href="#SVGID_3_"  style="overflow:visible;"/>
								</clipPath>
								<path class="st12" d="M124.1,218.3h-4h-3.6c0,0,17.6,26,9.4,34.6c-8.2,8.6-9.4,6.7-9.4,6.7l19.6,1.8l15.9-7.2l1.2-14.3
									l-16-11.9L124.1,218.3z"/>
							</g>
						</g>
					</g>
				</g>
			</g>
		</g>
		<path class="st3" d="M84.5,161.6c0,0,21.6,45.3,54.6,70.4"/>
		<path class="st3" d="M103.9,163.3c0,0-5.4,4-7,10.8"/>
		<path class="st3" d="M108.2,171.4c0,0-5.3,5.3-6,14.2"/>
		<path class="st3" d="M96.9,190.4c0,0-6.3-0.5-14.9,3.7"/>
		<path class="st3" d="M102.2,196.8c0,0-10.9,0.4-15.6,3.7"/>
		<path class="st2" d="M109.5,107.7c0.1,4-3.4,7.8-6.2,10.4c-1-2.4-1.9-5-2-7.6c-0.1-2,0.7-4,2.2-5.3c0.5-0.4,1-0.8,1.7-0.9
			c0.4-0.1,0.7-0.2,1.1-0.2C108,104.3,109.4,105.9,109.5,107.7z"/>
		<path class="st2" d="M81.9,123.8c-3.1,0.3-9-1.1-11.6-3.2c-2.3-1.7-2.3-2.2-3.4-4.9c-1-2.7,0.6-5.9,3.6-6.2
			c1.5-0.2,3.1,0.2,4.3,1.1C79.1,113.4,82.6,118.4,81.9,123.8z"/>
		<path class="st4" d="M105.6,142.4c-1.9,1.1-5-0.2-4.7-2.6c-0.2-2.8,4.1-3.8,5.6-1.6C107.5,139.5,106.9,141.6,105.6,142.4z"/>
		<path class="st4" d="M319.5,85.1c-2.6,1.4-6.6-0.3-6.3-3.5c-0.2-3.8,5.5-5.1,7.4-2.1C322,81.2,321.3,83.9,319.5,85.1z"/>
		<path class="st2" d="M328.9,297.3c-3.1,1.7-7.9-0.3-7.6-4.2c-0.3-4.5,6.6-6.1,8.9-2.5C331.9,292.6,331,295.9,328.9,297.3z"/>
		<path class="st4" d="M286.4,309c-2,1.1-5.2-0.2-5-2.8c-0.2-3,4.3-4,5.8-1.7C288.4,305.9,287.9,308.1,286.4,309z"/>
		<path class="st2" d="M61.9,244.7c-2.6,1.4-6.6-0.3-6.3-3.5c-0.2-3.8,5.5-5.1,7.4-2.1C64.4,240.8,63.7,243.5,61.9,244.7z"/>
		
			<ellipse transform="matrix(0.3506 -0.9365 0.9365 0.3506 -94.4212 226.7174)" class="st9" cx="116.3" cy="181.4" rx="2.7" ry="1.7"/>
		
			<ellipse transform="matrix(0.3506 -0.9365 0.9365 0.3506 -102.8667 234.9736)" class="st9" cx="118" cy="191.7" rx="2.7" ry="1.7"/>
		
			<ellipse transform="matrix(0.3506 -0.9365 0.9365 0.3506 -131.5903 232.9318)" class="st0" cx="102.2" cy="211.4" rx="3" ry="1.8"/>
	</g>
</g>
<path class="st13" d="M243.4,133.5c-3.5-4.8-9-7.7-15.5-8.1l-0.6,1.8l-0.2,1.8c-1.1,4.8-2.1,9.6-2.7,13h-99.9h-2.8l49.6,51.5
	c-0.2-0.2-0.5-0.4-0.7-0.6c-0.1-0.1-0.3-0.3-0.4-0.4c0,0,0,0.1,0,0.1c0,0-0.1-0.1-0.1-0.1c0,0.1,0,0.3,0,0.4c0,3,1.8,5.5,4.5,6.6
	v42.6c-2.6,1-4.5,3.6-4.5,6.5c-7.1,1.3-12.2,4.3-12.2,6.3c0,0.3,0.2,0.6,0.5,0.9c1.7,1.9,9.5,2.5,18.8,2.5c10.6,0,19.2-0.8,19.2-3.3
	c-0.1-0.5-0.4-1.1-0.9-1.6c0,0-0.1-0.1-0.1-0.1c0,0,0,0-0.1-0.1c0,0,0,0,0,0c-1.8-1.7-5.8-3.5-10.9-4.5c0-3.1-2-5.7-4.7-6.7v-42.5
	c2.7-1,4.7-3.6,4.7-6.7c0-0.1,0-0.6,0-0.8l43.7-45.4c3.9,0.6,9.7,1.3,15.2,1.9l1.7,0.2C246.6,143.4,246.8,138.1,243.4,133.5z
	 M149.1,158.6L149.1,158.6l5.1,5.3h0l22.9,23.7l0,0.1l-35.9-37.3L149.1,158.6z"/>
<g>
	<g>
		<g>
			<g>
				<path class="st14" d="M227.4,127.3l-1.9,14.4c0.2,0,0.4,0.1,0.6,0.1c-0.1,1.6,0.8,2.2,2.2,1.3c0.1,0.1,0.2,0.2,0.3,0.4
					c0.1,0.1,0.1,0.2,0.2,0.3c-1.3,1.1-1,2.1,0.6,2.5c0,0.1,0,0.2,0,0.3l14,2.3l1.7,0.2c1.6-5.5,1.8-10.8-1.6-15.4
					c-3.5-4.8-9-7.7-15.5-8.1L227.4,127.3z"/>
				<g>
					
						<linearGradient id="SVGID_5_" gradientUnits="userSpaceOnUse" x1="552.7622" y1="-108.908" x2="552.7622" y2="-128.2275" gradientTransform="matrix(-0.5915 -0.8063 0.8063 -0.5915 654.3466 516.1719)">
						<stop  offset="0.1398" style="stop-color:#161F00"/>
						<stop  offset="0.1765" style="stop-color:#28280A"/>
						<stop  offset="0.283" style="stop-color:#573E24"/>
						<stop  offset="0.393" style="stop-color:#80523A"/>
						<stop  offset="0.5049" style="stop-color:#A1624C"/>
						<stop  offset="0.6193" style="stop-color:#BA6E5A"/>
						<stop  offset="0.7373" style="stop-color:#CD7764"/>
						<stop  offset="0.8611" style="stop-color:#D77C6A"/>
						<stop  offset="1" style="stop-color:#DB7E6C"/>
					</linearGradient>
					<path class="st15" d="M240.1,135.6c3.1,4.2,3.4,8.9,3.2,13.2c-8.2-0.9-17-2-19.4-2.6c0-2.4,1.8-11.1,3.7-19
						c4.6,1.1,8.7,3.8,11.8,7.5C239.6,135,239.9,135.3,240.1,135.6z"/>
					<g>
						
							<radialGradient id="SVGID_6_" cx="552.7675" cy="-119.6276" r="11.2997" gradientTransform="matrix(-0.5915 -0.8063 0.8417 -0.6174 658.5831 513.0642)" gradientUnits="userSpaceOnUse">
							<stop  offset="0.2473" style="stop-color:#FF4642"/>
							<stop  offset="0.501" style="stop-color:#FC4440"/>
							<stop  offset="0.6852" style="stop-color:#F33E38"/>
							<stop  offset="0.8468" style="stop-color:#E3342C"/>
							<stop  offset="0.9955" style="stop-color:#CD261B"/>
							<stop  offset="1" style="stop-color:#CC261A"/>
						</radialGradient>
						<path class="st16" d="M239.7,135.8c2.9,4,3.3,8.2,3.1,12.4c-7.6-0.8-15.8-1.9-18.5-2.5c0.2-2.7,1.8-10.7,3.6-18.1
							c4.3,1.2,8.2,3.7,11.1,7.3C239.3,135.3,239.5,135.6,239.7,135.8z"/>
						
							<linearGradient id="SVGID_7_" gradientUnits="userSpaceOnUse" x1="552.9253" y1="-116.6007" x2="554.0539" y2="-134.3356" gradientTransform="matrix(-0.5915 -0.8063 0.8063 -0.5915 654.3466 516.1719)">
							<stop  offset="0.1075" style="stop-color:#FF4642;stop-opacity:0"/>
							<stop  offset="0.4532" style="stop-color:#FF6F6C;stop-opacity:0.4434"/>
							<stop  offset="0.7246" style="stop-color:#FF8885;stop-opacity:0.7916"/>
							<stop  offset="0.8871" style="stop-color:#FF918F"/>
						</linearGradient>
						<path class="st17" d="M239.7,135.8c2.9,4,3.3,8.2,3.1,12.4c-7.6-0.8-15.8-1.9-18.5-2.5c0.2-2.7,1.8-10.7,3.6-18.1
							c4.3,1.2,8.2,3.7,11.1,7.3C239.3,135.3,239.5,135.6,239.7,135.8z"/>
					</g>
				</g>
			</g>
			<g>
				<g>
					<path class="st18" d="M231.3,140.4c0.4-0.3,0.8-0.2,1,0c0.2,0.3,0.1,0.7-0.3,1c-0.4,0.3-1.7,0.4-1.7,0.4
						S230.9,140.6,231.3,140.4z"/>
					<path class="st19" d="M231.9,140.9c-0.1,0.2-0.3,0.2-0.4,0.3c-0.1,0.1,0,0.1,0.1,0.1c0.2-0.1,0.7-0.3,0.5-0.6c0,0-0.1,0-0.1,0
						C231.9,140.8,231.9,140.9,231.9,140.9z"/>
				</g>
				<g>
					<path class="st18" d="M229.1,143.5c0.4-0.1,0.8,0,1,0.4c0.1,0.3-0.1,0.7-0.6,0.8c-0.4,0.1-1.7-0.1-1.7-0.1
						S228.6,143.6,229.1,143.5z"/>
					<path class="st19" d="M229.5,144.2c-0.1,0.1-0.3,0.1-0.5,0.2c-0.1,0-0.1,0.1,0,0.1c0.3,0,0.7-0.1,0.7-0.4c0,0-0.1-0.1-0.1-0.1
						C229.5,144.1,229.5,144.2,229.5,144.2z"/>
				</g>
				<g>
					<path class="st18" d="M232.4,144.2c0.4-0.1,0.8,0,1,0.4c0.1,0.3-0.1,0.7-0.6,0.8c-0.4,0.1-1.7-0.1-1.7-0.1
						S232,144.3,232.4,144.2z"/>
					<path class="st19" d="M232.9,145c-0.1,0.1-0.3,0.1-0.5,0.2c-0.1,0-0.1,0.1,0,0.1c0.3,0,0.7-0.1,0.7-0.4c0,0-0.1-0.1-0.1-0.1
						C232.9,144.8,232.9,144.9,232.9,145z"/>
				</g>
				<g>
					<path class="st18" d="M227.7,136.7c0.2-0.4,0.7-0.5,1-0.3c0.3,0.2,0.3,0.6,0.1,1c-0.2,0.4-1.4,1-1.4,1S227.5,137.1,227.7,136.7
						z"/>
					<path class="st19" d="M228.5,137c0,0.2-0.2,0.3-0.2,0.4c0,0.1,0,0.1,0.1,0.1c0.2-0.2,0.5-0.5,0.3-0.8c0,0-0.1,0-0.1,0
						C228.5,136.9,228.5,136.9,228.5,137z"/>
				</g>
				<g>
					<path class="st18" d="M226.1,143.4c0.2-0.2,0.4-0.3,0.6-0.2c0.2,0.1,0.2,0.4,0.1,0.7c-0.2,0.2-0.9,0.6-0.9,0.6
						S226,143.6,226.1,143.4z"/>
					<path class="st19" d="M226.7,143.6c0,0.1-0.1,0.2-0.2,0.3c0,0,0,0.1,0.1,0.1c0.1-0.1,0.3-0.3,0.2-0.5c0,0-0.1,0-0.1,0
						C226.6,143.5,226.7,143.5,226.7,143.6z"/>
				</g>
				<g>
					<path class="st18" d="M227.7,140.3c0.3-0.3,0.7-0.5,1-0.2c0.3,0.2,0.3,0.7,0,1c-0.3,0.3-1.5,0.9-1.5,0.9
						S227.4,140.7,227.7,140.3z"/>
					<path class="st19" d="M228.5,140.7c0,0.2-0.2,0.3-0.3,0.4c0,0.1,0,0.1,0.1,0.1c0.2-0.1,0.6-0.5,0.3-0.7c0,0-0.1,0-0.1,0
						C228.4,140.6,228.5,140.7,228.5,140.7z"/>
				</g>
			</g>
		</g>
		<g class="st20">
			
				<radialGradient id="SVGID_8_" cx="552.7399" cy="-115.5348" r="12.4876" gradientTransform="matrix(-0.5915 -0.8063 0.8417 -0.6174 658.4382 513.1705)" gradientUnits="userSpaceOnUse">
				<stop  offset="0.2473" style="stop-color:#FF4642"/>
				<stop  offset="0.501" style="stop-color:#FC4440"/>
				<stop  offset="0.6852" style="stop-color:#F33E38"/>
				<stop  offset="0.8468" style="stop-color:#E3342C"/>
				<stop  offset="0.9955" style="stop-color:#CD261B"/>
				<stop  offset="1" style="stop-color:#CC261A"/>
			</radialGradient>
			<path class="st21" d="M228.2,125.3c6.5,0.4,11.9,3.3,15.5,8.1c3.3,4.6,3.2,9.8,1.6,15.4l-0.4,0c0.4-2.7-0.2-5.6-1.9-7.9
				c-3.7-5-11.1-5.8-16.5-1.8c-0.5,0.4-1,0.8-1.5,1.2c0.6-3.2,1.5-7.3,2.4-11.3l0.2-1.8L228.2,125.3z"/>
			
				<linearGradient id="SVGID_9_" gradientUnits="userSpaceOnUse" x1="552.735" y1="-112.4729" x2="553.9341" y2="-131.3159" gradientTransform="matrix(-0.5915 -0.8063 0.8063 -0.5915 654.3466 516.1719)">
				<stop  offset="0.1075" style="stop-color:#FF4642;stop-opacity:0"/>
				<stop  offset="0.4532" style="stop-color:#FF6F6C;stop-opacity:0.4434"/>
				<stop  offset="0.7246" style="stop-color:#FF8885;stop-opacity:0.7916"/>
				<stop  offset="0.8871" style="stop-color:#FF918F"/>
			</linearGradient>
			<path class="st22" d="M228.2,125.3c6.5,0.4,11.9,3.3,15.5,8.1c3.3,4.6,3.2,9.8,1.6,15.4l-0.4,0c0.4-2.7-0.2-5.6-1.9-7.9
				c-3.7-5-11.1-5.8-16.5-1.8c-0.5,0.4-1,0.8-1.5,1.2c0.6-3.2,1.5-7.3,2.4-11.3l0.2-1.8L228.2,125.3z"/>
		</g>
	</g>
	<polygon class="st23" points="213.1,150.4 141.2,150.4 177.2,187.7 	"/>
	<polygon class="st24" points="209.5,150.4 144.8,150.4 177.2,187.7 	"/>
	<path class="st25" d="M200.4,163.6l12.7-13.2h-24.6C191,156.2,195.2,160.7,200.4,163.6z"/>
	<polygon class="st26" points="149.1,158.6 177.2,187.7 205.2,158.6 	"/>
	<polygon class="st27" points="157.5,167.3 177.2,187.7 196.9,167.3 	"/>
	<polygon class="st28" points="177.2,181 154.3,163.9 154.2,163.9 177.2,187.7 200.1,163.9 200,163.9 	"/>
	<path class="st29" d="M121.7,142.1l55.5,57.6l55.5-57.6H121.7z M141.2,150.4H213l-35.9,37.3L141.2,150.4z"/>
	<polygon class="st30" points="124.5,142.1 121.7,142.1 177.2,199.7 178.6,198.2 	"/>
	<path class="st31" d="M174.6,196.9V248c0,2.3,1.1,4.1,2.6,4.1c1.4,0,2.5-1.8,2.5-4.1v-51.4C178.4,197.9,176.1,198,174.6,196.9z"/>
	<path class="st31" d="M184.4,248.8c0,3.9-3.2,7.1-7.1,7.1c-3.9,0-7.1-3.2-7.1-7.1c0-3.9,3.2-7.1,7.1-7.1S184.4,244.9,184.4,248.8z"
		/>
	<path class="st32" d="M177.3,255.9c3.9,0,7.1-3.2,7.1-7.1c0-0.9-0.2-1.7-0.5-2.5c-2.1-0.4-4.4-0.6-6.7-0.6s-4.5,0.2-6.5,0.6
		c-0.3,0.8-0.5,1.6-0.5,2.5C170.1,252.7,173.3,255.9,177.3,255.9C177.2,255.9,177.3,255.9,177.3,255.9z"/>
	<path class="st31" d="M177.3,195.5c-2.9,0-5.5-1.1-7.1-2.9c0,0.1,0,0.3,0,0.4c0,3.9,3.2,7.1,7.1,7.1c3.9,0,7.1-3.2,7.1-7.1
		c0-0.1,0-0.6,0-0.8C182.7,194,180.2,195.5,177.3,195.5z"/>
	<path class="st32" d="M170.6,193c1,2.7,3.6,4.6,6.6,4.6c3.2,0,5.9-2.1,6.8-5c-1.6,1.6-4,2.9-6.8,2.9
		C174.6,195.5,172.2,194.5,170.6,193z"/>
	<path class="st29" d="M177.7,233.9c-0.5,0-0.9-0.4-0.9-0.9v-31.2c0-0.5,0.4-0.9,0.9-0.9l0,0c0.5,0,0.9,0.4,0.9,0.9V233
		C178.6,233.5,178.2,233.9,177.7,233.9L177.7,233.9z"/>
	<path class="st30" d="M171.5,193.8c-0.5-0.4-1-0.8-1.4-1.2c0,0.1,0,0.3,0,0.4c0,3,1.8,5.5,4.5,6.6v42.6c-2.6,1-4.5,3.6-4.5,6.6
		c0,3.1,1.9,5.7,4.6,6.7c-2.1-1.2-3.6-3.5-3.6-6.1c0-3,1.8-5.5,4.5-6.6v-44.3C173.7,197.6,172.1,195.9,171.5,193.8z"/>
	<path class="st29" d="M196.3,255c0,2.5-8.6,3.3-19.2,3.3c-10.6,0-19.2-0.8-19.2-3.3c0-2.5,8.6-6.9,19.2-6.9
		C187.8,248.1,196.3,252.5,196.3,255z"/>
	<path class="st31" d="M195.3,253.3c-2.6,1.4-9.7,1.9-18.1,1.9c-8.4,0-15.5-0.5-18.1-1.9c-0.7,0.6-1.1,1.2-1.1,1.8
		c0,2.5,8.6,3.3,19.2,3.3c10.6,0,19.2-0.8,19.2-3.3C196.3,254.5,196,253.9,195.3,253.3z"/>
	<path class="st30" d="M179.7,257.2c-10.6,0-19.2-0.8-19.2-3.3c0-1,1.4-2.4,3.9-3.6c-3.9,1.5-6.4,3.4-6.4,4.7
		c0,2.5,8.6,3.3,19.2,3.3c9.1,0,16.7-0.6,18.7-2.3C192.4,256.9,186.5,257.2,179.7,257.2z"/>
</g>
</svg>
