<?xml version="1.0" encoding="utf-8"?>
<!-- Generator: Adobe Illustrator 23.0.0, SVG Export Plug-In . SVG Version: 6.00 Build 0)  -->
<svg version="1.1" id="Capa_1" xmlns="http://www.w3.org/2000/svg" xmlns:xlink="http://www.w3.org/1999/xlink" x="0px" y="0px"
	 viewBox="0 0 360 363" style="enable-background:new 0 0 360 363;" xml:space="preserve">
<style type="text/css">
	.st0{fill:#FFD084;}
	.st1{fill:none;stroke:#FFE1C0;stroke-width:0.7573;stroke-miterlimit:10;}
	.st2{fill:#FFD6A4;}
	.st3{fill:none;stroke:#FFE1C0;stroke-width:0.75;stroke-miterlimit:10;}
	.st4{fill:#FFE1C0;}
	.st5{fill:none;stroke:#FFD6A4;stroke-width:0.75;stroke-miterlimit:10;}
	.st6{fill:none;stroke:#FFEFE1;stroke-width:0.7478;stroke-miterlimit:10;}
	.st7{fill:#8F7CE5;}
	.st8{fill:#A6A6DD;}
	.st9{fill:#FFE5CC;}
	.st10{fill:none;stroke:#FFD6A4;stroke-miterlimit:10;}
	.st11{clip-path:url(#SVGID_2_);fill:#FFD8AE;}
	.st12{clip-path:url(#SVGID_4_);fill:#FFD8AE;}
	.st13{fill:#220907;stroke:#FFFFFF;stroke-width:16;stroke-linejoin:round;stroke-miterlimit:10;}
	.st14{fill:none;stroke:#FFFFFF;stroke-width:13.3375;stroke-linecap:round;stroke-linejoin:round;stroke-miterlimit:10;}
	.st15{fill:#86CE95;}
	.st16{fill:#3D9EC1;}
	.st17{fill:#78C9E9;}
	.st18{fill:#C5E8C9;}
	.st19{fill:#A0D8A9;}
	.st20{fill:#CCCCFF;}
	.st21{fill:#E1E1FF;}
	.st22{fill:#B5B5F4;}
	.st23{fill:#9C9CE2;}
</style>
<g id="fondo">
	<g id="Rectángulo_556">
		<rect y="-0.1" class="st0" width="360" height="363.3"/>
		<rect x="0.5" y="0.4" class="st0" width="359" height="362.2"/>
	</g>
	<path class="st1" d="M228.1,263.3c0,0,44-35.1,59.7-104.9c15.8-69.8-12.4-91.7-12.4-91.7S254.9,40.3,242,77.3
		c0,0-11.1,37.2-24.4,18.6c0,0-4-5.6-6.5-13s-11-10.5-11-10.5s-21.4-7.3-59.4,34.8c0,0-30.9,35.9-25.5,83.1s10.5,56.8,10.5,56.8
		L228.1,263.3z"/>
	<path class="st2" d="M225.9,276.1c0,0,43.1-35.1,58.6-104.9s-12.2-91.7-12.2-91.7s-20.1-26.4-32.8,10.6c0,0-10.9,37.2-23.9,18.6
		c0,0-3.9-5.6-6.4-13s-10.8-10.5-10.8-10.5s-21-7.3-58.2,34.8c0,0-30.3,35.9-25,83.1s10.3,56.8,10.3,56.8L225.9,276.1z"/>
	<path class="st3" d="M114.9,250.6c0,0-61.2-54.4-49.7-80.4s30.9-7.5,30.9-7.5s25.7,22.6,47.9,63.9L114.9,250.6z"/>
	<path class="st2" d="M115.8,254.7c0,0-54.1-58.6-42.6-84.6s30.9-7.5,30.9-7.5s25.7,22.6,47.9,63.9L115.8,254.7z"/>
	<path class="st4" d="M206.4,270c0,0,41.3-44.5,60.9-102.8c0,0,11.1-34-2.3-60c0,0-8.2-25.8-29.3,14.8s-29.4,11.9-29.4,11.9
		s-8.1-59.5-44-15.2s-22.9,140.1-22.9,140.1L206.4,270z"/>
	<path class="st5" d="M191.1,246.3c0,0,54.4-73,68-155.4"/>
	<path class="st6" d="M195.3,271c0,0,33.9-33.6,51.3-78.9c0,0,9.9-26.4,0.3-47.4c0,0-5.5-20.6-23.5,10.6s-23.4,8.4-23.4,8.4
		s-4.3-47.2-33.9-13.5s-22.8,109.6-22.8,109.6L195.3,271z"/>
	<g>
		
			<ellipse transform="matrix(1 -1.876243e-03 1.876243e-03 1 -0.5354 0.338)" class="st7" cx="179.9" cy="285.5" rx="102.6" ry="21.4"/>
		<polygon class="st7" points="282.5,285.3 282.7,271.4 77.5,271.8 77.3,285.7 		"/>
		
			<ellipse transform="matrix(1 -1.876243e-03 1.876243e-03 1 -0.5093 0.3384)" class="st8" cx="180.1" cy="271.6" rx="102.6" ry="21.4"/>
	</g>
	<path class="st3" d="M239.7,225.4c0,0,41.8-19.1,39.9,8.9s-53,30.9-53,30.9s-15.5-0.3-14.5-10.3C213.1,245,218.5,235.9,239.7,225.4
		z"/>
	<path class="st9" d="M229.9,227.9c0,0,37.6-26.4,40.9,1.5c3.2,27.9-46.4,40.1-46.4,40.1S209,272,208.2,262
		C207.3,252,211,242.1,229.9,227.9z"/>
	<path class="st10" d="M208.2,262c0,0,44.4-19.6,65.3-41.4"/>
	<g>
		<g>
			<g>
				<defs>
					<path id="SVGID_1_" d="M229.9,227.9c0,0,37.6-26.4,40.9,1.5c3.2,27.9-46.4,40.1-46.4,40.1S209,272,208.2,262
						C207.3,252,211,242.1,229.9,227.9z"/>
				</defs>
				<clipPath id="SVGID_2_">
					<use xlink:href="#SVGID_1_"  style="overflow:visible;"/>
				</clipPath>
				<path class="st11" d="M240.9,216.5c0,0-27.3,46.6,4.8,50c21.5,2.3-22.9,11.5-22.9,11.5l-20.3-4.6l-1.3-29.1l20-22.9L240.9,216.5
					z"/>
			</g>
		</g>
	</g>
	<g>
		<path class="st9" d="M128.2,230.7c0,0-34.9-21.9-37.3,9.5c0,0,6.5,28.1,39.9,22.4S128.2,230.7,128.2,230.7z"/>
	</g>
	<path class="st10" d="M143,253.3c0,0-40.9-21-62.4-13.1"/>
	<g>
		<g>
			<g>
				<defs>
					<path id="SVGID_3_" d="M128.2,230.7c0,0-34.9-21.9-37.3,9.5c0,0,6.5,28.1,39.9,22.4S128.2,230.7,128.2,230.7z"/>
				</defs>
				<clipPath id="SVGID_4_">
					<use xlink:href="#SVGID_3_"  style="overflow:visible;"/>
				</clipPath>
				<path class="st12" d="M124.1,223.3h-4h-3.6c0,0,17.6,26,9.4,34.6c-8.3,8.6-9.4,6.7-9.4,6.7l19.6,1.8l15.9-7.2l1.2-14.3l-16-11.9
					L124.1,223.3z"/>
			</g>
		</g>
	</g>
	<path class="st3" d="M84.5,166.6c0,0,21.6,45.3,54.6,70.4"/>
	<path class="st3" d="M103.9,168.3c0,0-5.4,4-7,10.8"/>
	<path class="st3" d="M108.2,176.4c0,0-5.3,5.3-6,14.2"/>
	<path class="st3" d="M96.9,195.4c0,0-6.3-0.5-14.9,3.6"/>
	<path class="st3" d="M102.2,201.8c0,0-10.9,0.4-15.6,3.7"/>
	<path class="st2" d="M109.5,112.7c0.1,4-3.4,7.8-6.2,10.4c-1-2.4-1.9-5-2-7.6c-0.1-2,0.7-4,2.2-5.3c0.5-0.4,1-0.8,1.7-0.9
		c0.4-0.1,0.7-0.2,1.1-0.2C108,109.3,109.4,110.9,109.5,112.7z"/>
	<path class="st2" d="M81.9,128.8c-3.1,0.3-9-1.1-11.6-3.3c-2.3-1.7-2.3-2.2-3.4-4.9c-1-2.7,0.6-5.9,3.6-6.2
		c1.5-0.2,3.1,0.2,4.3,1.1C79.1,118.4,82.6,123.4,81.9,128.8z"/>
	<path class="st4" d="M105.6,147.4c-1.9,1.1-5-0.2-4.7-2.6c-0.2-2.8,4.1-3.8,5.6-1.6C107.5,144.5,106.9,146.6,105.6,147.4z"/>
	<path class="st4" d="M319.5,90.1c-2.6,1.4-6.6-0.3-6.3-3.5c-0.2-3.8,5.5-5.1,7.4-2.1C322,86.2,321.3,88.9,319.5,90.1z"/>
	<path class="st2" d="M328.9,302.3c-3.1,1.7-7.9-0.3-7.6-4.2c-0.3-4.5,6.6-6.1,8.9-2.5C331.9,297.6,331,300.9,328.9,302.3z"/>
	<path class="st4" d="M286.4,314c-2,1.1-5.2-0.2-5-2.8c-0.2-3,4.3-4,5.8-1.7C288.4,311,287.9,313.1,286.4,314z"/>
	<path class="st2" d="M61.9,249.7c-2.6,1.4-6.6-0.3-6.3-3.5c-0.2-3.8,5.5-5.1,7.4-2.1C64.4,245.8,63.7,248.5,61.9,249.7z"/>
	
		<ellipse transform="matrix(0.3506 -0.9365 0.9365 0.3506 -99.1709 230.0267)" class="st9" cx="116.3" cy="186.5" rx="2.7" ry="1.7"/>
	
		<ellipse transform="matrix(0.3506 -0.9365 0.9365 0.3506 -107.5766 238.2056)" class="st9" cx="118" cy="196.7" rx="2.7" ry="1.7"/>
	
		<ellipse transform="matrix(0.3506 -0.9365 0.9365 0.3506 -136.4825 236.2645)" class="st0" cx="102.1" cy="216.5" rx="3" ry="1.8"/>
</g>
<path class="st13" d="M199,261.7c0-0.1-0.1-0.2-0.2-0.3c-0.1-0.1-0.1-0.2-0.2-0.2c-0.1-0.1-0.1-0.2-0.2-0.3
	c-0.1-0.1-0.2-0.2-0.3-0.3l-0.1-0.1l0,0c-1.8-1.7-5.8-3.5-10.9-4.5c0-0.2,0-0.4,0-0.7c0-0.2,0-0.3-0.1-0.5v-0.1
	c-0.5-2.5-2.2-4.5-4.5-5.4V207c2.7-1,4.6-3.6,4.6-6.7c0-0.1,0-0.6,0-0.8c-0.1,0.1-0.2,0.2-0.2,0.2l48.5-50.4h-18
	c4.9-4.4,9.8-8.8,14.8-13.1c0.3-0.3,0.2-1-0.2-1.1c-0.2-0.1-0.4,0-0.6,0.1c-5.1,4.4-10.5,9.1-16,14h-88h-2.8l49.5,51.4
	c-0.2-0.2-0.4-0.3-0.6-0.5l0,0c-0.2-0.1-0.3-0.3-0.5-0.4c0,0.1,0,0.3,0,0.4c0,0.3,0,0.7,0.1,1c0,0.1,0,0.2,0,0.2
	c0.1,0.3,0.1,0.6,0.2,0.9l0,0c0.1,0.3,0.2,0.6,0.3,0.9c0,0.1,0.1,0.1,0.1,0.2c0.1,0.3,0.3,0.6,0.5,0.8l0,0c0.2,0.3,0.4,0.5,0.6,0.8
	l0.1,0.1c0.5,0.5,1,0.9,1.6,1.2c0,0,0,0,0.1,0c0.3,0.2,0.6,0.3,0.9,0.5v42.6c-0.3,0.1-0.6,0.3-0.9,0.5c0,0,0,0-0.1,0
	c-0.6,0.3-1.1,0.8-1.5,1.2l-0.1,0.1c-0.2,0.2-0.4,0.5-0.6,0.8l0,0c-0.2,0.3-0.3,0.5-0.5,0.8c0,0.1-0.1,0.1-0.1,0.2
	c-0.1,0.3-0.3,0.6-0.3,0.9l0,0c0,0.1,0,0.1-0.1,0.2l0,0c-0.1,0.2-0.1,0.4-0.1,0.6v0.1c0,0.1,0,0.1,0,0.2c0,0.1,0,0.2,0,0.3
	c0,0.2,0,0.4,0,0.6c-2.1,0.4-4.1,0.9-5.8,1.6l0,0l0,0c-0.5,0.2-0.9,0.4-1.4,0.6l0,0c-0.4,0.2-0.8,0.4-1.2,0.6c0,0-0.1,0-0.1,0.1
	c-0.3,0.2-0.6,0.3-0.9,0.5c-0.1,0-0.2,0.1-0.2,0.1c-0.2,0.1-0.3,0.2-0.5,0.3c-0.2,0.1-0.3,0.2-0.5,0.3c-0.1,0.1-0.2,0.1-0.3,0.2
	s-0.2,0.2-0.3,0.3l0,0l0,0l-0.1,0.1c-0.1,0.1-0.1,0.1-0.1,0.2s-0.1,0.1-0.1,0.2c0,0,0,0.1-0.1,0.1c-0.1,0.1-0.1,0.1-0.2,0.2
	c0,0,0,0.1-0.1,0.1c0,0,0,0.1-0.1,0.1c0,0,0,0,0,0.1c-0.1,0.1-0.1,0.2-0.2,0.3l0,0l0,0v0.1c0,0.1-0.1,0.2-0.1,0.4
	c0,2.5,8.6,3.3,19.2,3.3c0.6,0,1.2,0,1.8,0c0.2,0,0.4,0,0.6,0c0.4,0,0.8,0,1.1,0s0.5,0,0.8,0s0.6,0,0.9,0c0.3,0,0.6,0,0.8,0
	c0.3,0,0.5,0,0.8,0s0.6,0,0.9,0c0.2,0,0.4,0,0.6,0c0.3,0,0.7,0,1-0.1c0.1,0,0.1,0,0.1,0c1.3-0.1,2.5-0.2,3.6-0.3h0.1
	c0.3,0,0.7-0.1,1-0.1c0.1,0,0.1,0,0.2,0c0.3-0.1,0.6-0.1,0.9-0.2h0.1c2.4-0.5,3.9-1.2,3.9-2.3c0-0.1,0-0.3-0.1-0.5
	C199.1,261.8,199,261.8,199,261.7z"/>
<g>
	<g>
		<g>
			<path class="st14" d="M242.4,133.8c-3.5-3.7-11.2-10.3-16.9-6.9c-3,1.7-3.7,7.6-3,10.6c0.8,4.3,5.1,13.9,10.8,13.2
				c2.9-0.4,4.9-5,4.2-7.7c-1.2-5.3-9.8-8.6-14.5-9.3c-5.8-1-8.4,1.8-10,7.1c-1.8,5.8,0.5,13.7,6.3,16.8c3.5,1.8,6.1-1.8,5.7-5.3
				c-0.7-5-10.4-8.5-14.4-8.8c-5.3-0.4-7,3.7-7.7,8.1c0.3-1.2,0.9-2.3,1.2-3.5c-0.3,2-0.1,0.3,1.2-0.4c1-0.6,1.9-0.7,3-0.7
				c2.3-0.2,4.8,0.7,7,1.6c2.5,1.1,9.7,4.5,8.8,8.1c0.4-1.2,0.8-2.3,1.1-3.4c-1.7,3.4-5.9-0.2-7.4-2c-2.9-3.5-5.1-8.7-3.6-13.3
				c-0.2,1-0.6,2.1-0.9,3c2.6-5.7,9.1-4.7,13.9-2.7c3.4,1.4,10.5,4.9,9.7,9.6c0.4-1.2,0.8-2.3,1.1-3.4c-1.9,5.1-7.7,0.6-9.6-1.8
				c-2.8-3.6-5.4-9-4.3-13.7c-0.2,1-0.6,2.1-0.9,3c1.4-4.3,7.8-2.4,10.6-0.9c3,1.5,5.6,3.7,7.8,6.1
				C240.9,136.9,242.8,134.2,242.4,133.8L242.4,133.8z"/>
		</g>
	</g>
	<g>
		<g>
			<g>
				<path class="st15" d="M242.4,133.8c-3.5-3.7-11.2-10.3-16.9-6.9c-3,1.7-3.7,7.6-3,10.6c0.8,4.3,5.1,13.9,10.8,13.2
					c2.9-0.4,4.9-5,4.2-7.7c-1.2-5.3-9.8-8.6-14.5-9.3c-5.8-1-8.4,1.8-10,7.1c-1.8,5.8,0.5,13.7,6.3,16.8c3.5,1.8,6.1-1.8,5.7-5.3
					c-0.7-5-10.4-8.5-14.4-8.8c-5.3-0.4-7,3.7-7.7,8.1c0.3-1.2,0.9-2.3,1.2-3.5c-0.3,2-0.1,0.3,1.2-0.4c1-0.6,1.9-0.7,3-0.7
					c2.3-0.2,4.8,0.7,7,1.6c2.5,1.1,9.7,4.5,8.8,8.1c0.4-1.2,0.8-2.3,1.1-3.4c-1.7,3.4-5.9-0.2-7.4-2c-2.9-3.5-5.1-8.7-3.6-13.3
					c-0.2,1-0.6,2.1-0.9,3c2.6-5.7,9.1-4.7,13.9-2.7c3.4,1.4,10.5,4.9,9.7,9.6c0.4-1.2,0.8-2.3,1.1-3.4c-1.9,5.1-7.7,0.6-9.6-1.8
					c-2.8-3.6-5.4-9-4.3-13.7c-0.2,1-0.6,2.1-0.9,3c1.4-4.3,7.8-2.4,10.6-0.9c3,1.5,5.6,3.7,7.8,6.1
					C240.9,136.9,242.8,134.2,242.4,133.8L242.4,133.8z"/>
			</g>
		</g>
	</g>
</g>
<polygon class="st16" points="215.9,157.7 144.1,157.7 180,195 "/>
<polygon class="st17" points="212.3,157.7 147.7,157.7 180,195 "/>
<polygon class="st18" points="153.8,167.7 180,195 206.3,167.8 "/>
<polygon class="st19" points="157.1,171.2 180,195 202.9,171.2 "/>
<polygon class="st15" points="180,188.3 157.1,171.2 157.1,171.2 180,195 202.9,171.2 202.9,171.2 "/>
<path class="st20" d="M124.5,149.4L180,207l55.5-57.6H124.5z M144.1,157.7h71.8L180,195L144.1,157.7z"/>
<polygon class="st21" points="127.3,149.4 124.5,149.4 180,207 181.4,205.5 "/>
<path class="st22" d="M177.4,204.2v51.1c0,2.3,1.1,4.1,2.6,4.1c1.4,0,2.5-1.8,2.5-4.1v-51.4C181.2,205.2,178.9,205.3,177.4,204.2z"
	/>
<path class="st22" d="M187.2,256.1c0,3.9-3.2,7.1-7.1,7.1c-3.9,0-7.1-3.2-7.1-7.1s3.2-7.1,7.1-7.1S187.2,252.2,187.2,256.1z"/>
<path class="st23" d="M180.1,263.2c3.9,0,7.1-3.2,7.1-7.1c0-0.9-0.2-1.7-0.5-2.5c-2.1-0.4-4.4-0.6-6.7-0.6s-4.5,0.2-6.5,0.6
	c-0.3,0.8-0.5,1.6-0.5,2.5C173,260,176.2,263.2,180.1,263.2L180.1,263.2z"/>
<path class="st22" d="M180.1,202.8c-2.9,0-5.5-1.1-7.1-2.9c0,0.1,0,0.3,0,0.4c0,3.9,3.2,7.1,7.1,7.1c3.9,0,7.1-3.2,7.1-7.1
	c0-0.1,0-0.6,0-0.8C185.6,201.3,183,202.8,180.1,202.8z"/>
<path class="st23" d="M173.5,200.3c1,2.7,3.6,4.6,6.6,4.6c3.2,0,5.9-2.1,6.8-5c-1.6,1.6-4,2.9-6.8,2.9
	C177.4,202.8,175.1,201.8,173.5,200.3z"/>
<path class="st20" d="M180.6,241.2c-0.5,0-0.9-0.4-0.9-0.9v-31.2c0-0.5,0.4-0.9,0.9-0.9l0,0c0.5,0,0.9,0.4,0.9,0.9v31.2
	C181.4,240.8,181,241.2,180.6,241.2L180.6,241.2z"/>
<path class="st21" d="M174.4,201.1c-0.5-0.4-1-0.8-1.4-1.2c0,0.1,0,0.3,0,0.4c0,3,1.8,5.5,4.5,6.6v42.6c-2.6,1-4.5,3.6-4.5,6.6
	c0,3.1,1.9,5.7,4.6,6.7c-2.1-1.2-3.6-3.5-3.6-6.1c0-3,1.8-5.5,4.5-6.6v-44.3C176.5,204.9,175,203.2,174.4,201.1z"/>
<path class="st20" d="M199.2,262.3c0,2.5-8.6,3.3-19.2,3.3c-10.6,0-19.2-0.8-19.2-3.3s8.6-6.9,19.2-6.9
	C190.6,255.4,199.2,259.8,199.2,262.3z"/>
<path class="st22" d="M198.1,260.6c-2.6,1.4-9.7,1.9-18.1,1.9c-8.4,0-15.5-0.5-18.1-1.9c-0.7,0.6-1.1,1.2-1.1,1.8
	c0,2.5,8.6,3.3,19.2,3.3c10.6,0,19.2-0.8,19.2-3.3C199.2,261.8,198.8,261.2,198.1,260.6z"/>
<path class="st21" d="M182.6,264.5c-10.6,0-19.2-0.8-19.2-3.3c0-1,1.4-2.4,3.9-3.6c-3.9,1.5-6.4,3.4-6.4,4.7c0,2.5,8.6,3.3,19.2,3.3
	c9.1,0,16.7-0.6,18.7-2.3C195.2,264.2,189.3,264.5,182.6,264.5z"/>
</svg>
