<?xml version="1.0" encoding="utf-8"?>
<!-- Generator: Adobe Illustrator 23.0.0, SVG Export Plug-In . SVG Version: 6.00 Build 0)  -->
<svg version="1.1" id="Capa_1" xmlns="http://www.w3.org/2000/svg" xmlns:xlink="http://www.w3.org/1999/xlink" x="0px" y="0px"
	 viewBox="0 0 360 363" style="enable-background:new 0 0 360 363;" xml:space="preserve">
<style type="text/css">
	.st0{fill:#FFD084;}
	.st1{fill:none;stroke:#FFE1C0;stroke-width:0.7573;stroke-miterlimit:10;}
	.st2{fill:#FFD6A4;}
	.st3{fill:none;stroke:#FFE1C0;stroke-width:0.75;stroke-miterlimit:10;}
	.st4{fill:#FFE1C0;}
	.st5{fill:none;stroke:#FFD6A4;stroke-width:0.75;stroke-miterlimit:10;}
	.st6{fill:none;stroke:#FFEFE1;stroke-width:0.7478;stroke-miterlimit:10;}
	.st7{fill:#8F7CE5;}
	.st8{fill:#A6A6DD;}
	.st9{fill:#FFE5CC;}
	.st10{fill:none;stroke:#FFD6A4;stroke-miterlimit:10;}
	.st11{clip-path:url(#SVGID_2_);fill:#FFD8AE;}
	.st12{clip-path:url(#SVGID_4_);fill:#FFD8AE;}
	.st13{fill:none;stroke:#FFFFFF;stroke-width:16;stroke-linecap:round;stroke-linejoin:round;stroke-miterlimit:10;}
	.st14{fill:none;stroke:#FFFFFF;stroke-width:15;stroke-miterlimit:10;}
	.st15{fill:#CCCCFF;stroke:#FFFFFF;stroke-width:16;stroke-linejoin:round;stroke-miterlimit:10;}
	.st16{fill:#FED602;}
	.st17{fill:#FFFFFF;}
	.st18{fill:#CCCCFF;}
	.st19{fill:#3B000B;}
	.st20{opacity:0.9;}
	.st21{fill:#F9F09D;}
	.st22{opacity:0.8;fill:#F2DE6B;enable-background:new    ;}
	.st23{display:none;opacity:0.5;}
	.st24{display:inline;}
	.st25{fill:#FCBC06;}
	.st26{fill:#608E43;}
	.st27{fill:#C1E476;}
	.st28{fill:#85D353;}
	.st29{fill:#DDF49F;}
	.st30{fill:#507538;}
	.st31{opacity:0.4;fill:#FFFFFF;enable-background:new    ;}
	.st32{opacity:0.1;fill:#3B000B;enable-background:new    ;}
</style>
<g id="fondo">
	<g>
		<g id="Rectángulo_556">
			<rect y="-0.1" class="st0" width="360" height="363.3"/>
			<rect x="0.5" y="0.4" class="st0" width="359" height="362.2"/>
		</g>
		<path class="st1" d="M228.1,258.3c0,0,43.9-35.1,59.7-104.9c15.8-69.8-12.4-91.7-12.4-91.7S254.9,35.3,242,72.3
			c0,0-11.1,37.2-24.4,18.6c0,0-4-5.6-6.5-13c-2.5-7.3-11-10.5-11-10.5s-21.4-7.3-59.4,34.8c0,0-30.9,35.9-25.5,83.1
			s10.5,56.8,10.5,56.8L228.1,258.3z"/>
		<path class="st2" d="M225.9,271.1c0,0,43.1-35.1,58.6-104.9s-12.2-91.7-12.2-91.7s-20.1-26.4-32.8,10.6c0,0-10.9,37.2-23.9,18.6
			c0,0-3.9-5.6-6.4-13c-2.5-7.3-10.8-10.5-10.8-10.5s-21-7.3-58.2,34.8c0,0-30.3,35.9-25,83.1s10.3,56.8,10.3,56.8L225.9,271.1z"/>
		<path class="st3" d="M114.9,245.6c0,0-61.2-54.4-49.7-80.4s30.9-7.5,30.9-7.5s25.7,22.6,47.9,63.9L114.9,245.6z"/>
		<path class="st2" d="M115.8,249.7c0,0-54.1-58.6-42.6-84.6s30.9-7.5,30.9-7.5s25.7,22.6,47.9,63.9L115.8,249.7z"/>
		<path class="st4" d="M206.4,265c0,0,41.3-44.5,60.9-102.7c0,0,11.1-34-2.3-60c0,0-8.2-25.8-29.3,14.8S206.3,129,206.3,129
			s-8.1-59.5-44-15.2s-22.9,140.1-22.9,140.1L206.4,265z"/>
		<path class="st5" d="M191.1,241.3c0,0,54.3-73,68-155.4"/>
		<path class="st6" d="M195.3,266c0,0,33.9-33.6,51.3-78.9c0,0,9.9-26.5,0.3-47.4c0,0-5.5-20.6-23.5,10.6s-23.4,8.4-23.4,8.4
			s-4.3-47.2-33.9-13.5s-22.8,109.6-22.8,109.6L195.3,266z"/>
		<g>
			
				<ellipse transform="matrix(1 -1.876229e-03 1.876229e-03 1 -0.526 0.338)" class="st7" cx="179.9" cy="280.5" rx="102.6" ry="21.4"/>
			<polygon class="st7" points="282.5,280.3 282.7,266.4 77.5,266.8 77.3,280.7 			"/>
			
				<ellipse transform="matrix(1 -1.876229e-03 1.876229e-03 1 -0.4999 0.3384)" class="st8" cx="180.1" cy="266.6" rx="102.6" ry="21.4"/>
		</g>
		<path class="st3" d="M239.7,220.4c0,0,41.8-19.1,39.9,9s-53,30.9-53,30.9s-15.5-0.3-14.5-10.3C213.2,240,218.5,230.9,239.7,220.4z
			"/>
		<path class="st9" d="M229.9,222.9c0,0,37.6-26.4,40.9,1.5c3.2,27.9-46.4,40.1-46.4,40.1S209,267,208.2,257
			C207.3,247,211,237.1,229.9,222.9z"/>
		<path class="st10" d="M208.2,257c0,0,44.4-19.6,65.3-41.4"/>
		<g>
			<g>
				<g>
					<g>
						<g>
							<defs>
								<path id="SVGID_1_" d="M229.9,222.9c0,0,37.6-26.4,40.9,1.5c3.2,27.9-46.4,40.1-46.4,40.1S209,267,208.2,257
									C207.3,247,211,237.1,229.9,222.9z"/>
							</defs>
							<clipPath id="SVGID_2_">
								<use xlink:href="#SVGID_1_"  style="overflow:visible;"/>
							</clipPath>
							<path class="st11" d="M240.9,211.5c0,0-27.3,46.6,4.8,50c21.5,2.3-22.9,11.5-22.9,11.5l-20.3-4.6l-1.3-29l20-22.9
								L240.9,211.5z"/>
						</g>
					</g>
				</g>
			</g>
		</g>
		<g>
			<path class="st9" d="M128.2,225.7c0,0-34.9-21.9-37.3,9.5c0,0,6.5,28.1,39.9,22.4C164.1,251.8,128.2,225.7,128.2,225.7z"/>
		</g>
		<path class="st10" d="M143,248.3c0,0-40.9-21-62.4-13.1"/>
		<g>
			<g>
				<g>
					<g>
						<g>
							<defs>
								<path id="SVGID_3_" d="M128.2,225.7c0,0-34.9-21.9-37.3,9.5c0,0,6.5,28.1,39.9,22.4C164.1,251.8,128.2,225.7,128.2,225.7z"
									/>
							</defs>
							<clipPath id="SVGID_4_">
								<use xlink:href="#SVGID_3_"  style="overflow:visible;"/>
							</clipPath>
							<path class="st12" d="M124.1,218.3h-4h-3.6c0,0,17.6,26,9.4,34.6c-8.2,8.6-9.4,6.7-9.4,6.7l19.6,1.8l15.9-7.2l1.2-14.3
								l-16-11.9L124.1,218.3z"/>
						</g>
					</g>
				</g>
			</g>
		</g>
		<path class="st3" d="M84.5,161.6c0,0,21.6,45.3,54.6,70.4"/>
		<path class="st3" d="M103.9,163.3c0,0-5.4,4-7,10.8"/>
		<path class="st3" d="M108.2,171.4c0,0-5.3,5.3-6,14.2"/>
		<path class="st3" d="M96.9,190.4c0,0-6.3-0.5-14.9,3.7"/>
		<path class="st3" d="M102.2,196.8c0,0-10.9,0.4-15.6,3.7"/>
		<path class="st2" d="M109.5,107.7c0.1,4-3.4,7.8-6.2,10.4c-1-2.4-1.9-5-2-7.6c-0.1-2,0.7-4,2.2-5.3c0.5-0.4,1-0.8,1.7-0.9
			c0.4-0.1,0.7-0.2,1.1-0.2C108,104.3,109.4,105.9,109.5,107.7z"/>
		<path class="st2" d="M81.9,123.8c-3.1,0.3-9-1.1-11.6-3.2c-2.3-1.7-2.3-2.2-3.4-4.9c-1-2.7,0.6-5.9,3.6-6.2
			c1.5-0.2,3.1,0.2,4.3,1.1C79.1,113.4,82.6,118.4,81.9,123.8z"/>
		<path class="st4" d="M105.6,142.4c-1.9,1.1-5-0.2-4.7-2.6c-0.2-2.8,4.1-3.8,5.6-1.6C107.5,139.5,106.9,141.6,105.6,142.4z"/>
		<path class="st4" d="M319.5,85.1c-2.6,1.4-6.6-0.3-6.3-3.5c-0.2-3.8,5.5-5.1,7.4-2.1C322,81.2,321.3,83.9,319.5,85.1z"/>
		<path class="st2" d="M328.9,297.3c-3.1,1.7-7.9-0.3-7.6-4.2c-0.3-4.5,6.6-6.1,8.9-2.5C331.9,292.6,331,295.9,328.9,297.3z"/>
		<path class="st4" d="M286.4,309c-2,1.1-5.2-0.2-5-2.8c-0.2-3,4.3-4,5.8-1.7C288.4,305.9,287.9,308.1,286.4,309z"/>
		<path class="st2" d="M61.9,244.7c-2.6,1.4-6.6-0.3-6.3-3.5c-0.2-3.8,5.5-5.1,7.4-2.1C64.4,240.8,63.7,243.5,61.9,244.7z"/>
		
			<ellipse transform="matrix(0.3506 -0.9365 0.9365 0.3506 -94.3859 226.7597)" class="st9" cx="116.3" cy="181.4" rx="2.7" ry="1.7"/>
		
			<ellipse transform="matrix(0.3506 -0.9365 0.9365 0.3506 -102.8036 234.9936)" class="st9" cx="118" cy="191.6" rx="2.7" ry="1.7"/>
		
			<ellipse transform="matrix(0.3506 -0.9365 0.9365 0.3506 -131.6409 232.946)" class="st0" cx="102.2" cy="211.4" rx="3" ry="1.8"/>
	</g>
</g>
<g>
	<g>
		<polygon class="st13" points="173.3,239.3 175.2,123.3 178.4,123.4 176.5,239.4 		"/>
	</g>
</g>
<ellipse transform="matrix(0.9732 -0.2298 0.2298 0.9732 -27.482 51.7295)" class="st14" cx="208.4" cy="143.9" rx="20.3" ry="20.3"/>
<path class="st15" d="M193.5,258.7h-35.8c-6.4,0-11.6-5.1-11.8-11.5l-3-103.4h65.5l-3,103.4C205.1,253.6,199.9,258.7,193.5,258.7z"
	/>
<g>
	<g>
		<path class="st16" d="M228.7,143.9c0,11.2-9.1,20.3-20.3,20.3c-11.2,0-20.3-9.1-20.3-20.3c0-11.2,9.1-20.3,20.3-20.3
			C219.5,123.6,228.7,132.6,228.7,143.9z"/>
		<path class="st17" d="M225.4,143.9c0,9.4-7.6,17-17,17c-9.4,0-17-7.6-17-17c0-9.4,7.6-17,17-17
			C217.8,126.9,225.4,134.5,225.4,143.9z"/>
		<g>
			<g>
				<g>
					<g>
						<g>
							<g>
								<path class="st16" d="M208.4,128.8c-2.4,0-2.8,0.2-2.8,0.2c-0.9,0.3-1.4,1.4-1.1,2.3l3.3,8.6c0.3,1,0.8,1,1.1,0l3.3-8.6
									c0.3-1-0.2-1.9-1.1-2.3C211.1,129,210.7,128.8,208.4,128.8z"/>
							</g>
						</g>
					</g>
					<g>
						<g>
							<g>
								<path class="st16" d="M208.4,158.9c2.4,0,2.8-0.2,2.8-0.2c0.9-0.3,1.4-1.4,1.1-2.3l-3.3-8.6c-0.3-1-0.9-1-1.1,0l-3.3,8.6
									c-0.3,1,0.2,1.9,1.1,2.3C205.6,158.8,206,158.9,208.4,158.9z"/>
							</g>
						</g>
					</g>
				</g>
				<g>
					<g>
						<g>
							<g>
								<path class="st16" d="M223.4,143.9c0-2.4-0.2-2.8-0.2-2.8c-0.3-0.9-1.4-1.4-2.3-1.1l-8.6,3.3c-1,0.3-1,0.9,0,1.1l8.6,3.3
									c1,0.3,1.9-0.2,2.3-1.1C223.3,146.6,223.4,146.1,223.4,143.9z"/>
							</g>
						</g>
					</g>
					<g>
						<g>
							<g>
								<path class="st16" d="M193.3,143.9c0,2.4,0.2,2.8,0.2,2.8c0.3,0.9,1.4,1.4,2.3,1.1l8.6-3.3c1-0.3,1-0.8,0-1.1l-8.6-3.3
									c-1-0.3-1.9,0.2-2.3,1.1C193.5,141.1,193.3,141.5,193.3,143.9z"/>
							</g>
						</g>
					</g>
				</g>
			</g>
			<g>
				<g>
					<g>
						<g>
							<g>
								<path class="st16" d="M219,133.2c-1.6-1.6-2.1-1.8-2.1-1.8c-0.9-0.4-1.9,0-2.4,0.9l-3.8,8.4c-0.4,0.9-0.1,1.2,0.8,0.8
									l8.4-3.8c0.9-0.4,1.3-1.5,0.9-2.4C220.8,135.2,220.7,134.8,219,133.2z"/>
							</g>
						</g>
					</g>
					<g>
						<g>
							<g>
								<path class="st16" d="M197.7,154.5c1.6,1.6,2.1,1.8,2.1,1.8c0.9,0.4,1.9,0,2.4-0.9l3.8-8.4c0.4-0.9,0.1-1.2-0.8-0.8
									l-8.4,3.8c-0.9,0.4-1.3,1.5-0.9,2.4C195.9,152.4,196.1,152.8,197.7,154.5z"/>
							</g>
						</g>
					</g>
				</g>
				<g>
					<g>
						<g>
							<g>
								<path class="st16" d="M219,154.5c1.6-1.6,1.8-2.1,1.8-2.1c0.4-0.9,0-1.9-0.9-2.4l-8.4-3.8c-0.9-0.4-1.2-0.1-0.8,0.8l3.8,8.4
									c0.4,0.9,1.5,1.3,2.4,0.9C216.9,156.3,217.4,156.2,219,154.5z"/>
							</g>
						</g>
					</g>
					<g>
						<g>
							<g>
								<path class="st16" d="M197.7,133.2c-1.6,1.6-1.8,2.1-1.8,2.1c-0.4,0.9,0,1.9,0.9,2.4l8.4,3.8c0.9,0.4,1.2,0.1,0.8-0.8
									l-3.8-8.4c-0.4-0.9-1.5-1.3-2.4-0.9C199.8,131.4,199.3,131.6,197.7,133.2z"/>
							</g>
						</g>
					</g>
				</g>
			</g>
		</g>
	</g>
	<path class="st18" d="M193.5,258.7h-35.8c-6.4,0-11.6-5.1-11.8-11.5l-3-103.4h65.5l-3,103.4C205.1,253.6,199.9,258.7,193.5,258.7z"
		/>
	<g>
		<g>
			<polygon class="st19" points="173.3,239.3 175.2,123.3 178.4,123.4 176.5,239.4 			"/>
		</g>
	</g>
	<g class="st20">
		<path class="st21" d="M149.3,148.5l1.4,79c0.3,12,10.4,21.8,22.5,21.8h4.9c12,0,22.1-9.8,22.5-21.8l1.4-79H149.3z"/>
		<path class="st22" d="M150.1,190.5l0.7,36.9c0.3,12,10.4,21.8,22.5,21.8h4.9c12,0,22.1-9.8,22.5-21.8l0.6-36.9H150.1z"/>
	</g>
	<g>
		<g class="st23">
			<g class="st24">
				<g>
					<path class="st25" d="M177.7,248.1l21.6-24.1c-6.6-6-16.9-5.4-22.8,1.2C170.5,232,171,242.2,177.7,248.1z"/>
					<path class="st17" d="M179.4,246.2l18-20.1c-5.6-5-14.1-4.5-19.1,1C173.4,232.6,173.9,241.2,179.4,246.2z"/>
				</g>
				<path class="st25" d="M179.5,228.1c-1.2,1.4-1.4,1.7-1.4,1.7c-0.3,0.7,0.1,1.6,0.8,1.9l6.9,2.6c0.7,0.3,1,0,0.6-0.7l-3.4-6.5
					c-0.4-0.7-1.3-0.9-2-0.6C181.1,226.6,180.8,226.7,179.5,228.1z"/>
				<path class="st25" d="M176.5,236.8c0.1,1.9,0.3,2.2,0.3,2.2c0.3,0.7,1.2,1.1,1.9,0.8l6.7-3c0.7-0.3,0.7-0.7,0-0.9l-7-2.2
					c-0.7-0.2-1.6,0.2-1.8,1C176.5,234.6,176.4,234.9,176.5,236.8z"/>
				<path class="st25" d="M187.8,224.1c-1.9,0.1-2.2,0.3-2.2,0.3c-0.7,0.3-1,1.2-0.8,1.9l3,6.7c0.3,0.7,0.7,0.7,0.9,0l2.2-7
					c0.2-0.7-0.2-1.6-1-1.8C190,224.1,189.7,224,187.8,224.1z"/>
				<path class="st25" d="M178.9,243.5c0,0,0.2,0.3,1.6,1.6l6.3-7c-0.1-0.1-0.4-0.1-0.7,0.1l-6.5,3.4
					C178.8,241.9,178.5,242.8,178.9,243.5z"/>
				<path class="st25" d="M192.9,226.6l-2.6,6.9c-0.2,0.4-0.2,0.6,0,0.7l6.3-7c-1.4-1.2-1.7-1.4-1.7-1.4
					C194,225.5,193.2,225.9,192.9,226.6z"/>
			</g>
			<g class="st24">
				<g>
					<path class="st25" d="M151.5,198.5l16.2,27.9c7.7-4.5,10.3-14.4,5.8-22.1C169.1,196.6,159.3,194,151.5,198.5z"/>
					<path class="st17" d="M152.9,200.8l13.6,23.4c6.5-3.8,8.6-12,4.9-18.5C167.6,199.2,159.3,197,152.9,200.8z"/>
				</g>
				<path class="st25" d="M170,206.4c-0.9-1.6-1.2-1.8-1.2-1.8c-0.6-0.5-1.5-0.4-2,0.2l-4.6,5.7c-0.5,0.6-0.3,0.9,0.4,0.8l7.3-1.2
					c0.8-0.2,1.3-0.9,1.2-1.7C171,208.4,171,208.1,170,206.4z"/>
				<path class="st25" d="M162.7,200.9c-1.8-0.5-2.2-0.4-2.2-0.4c-0.8,0.1-1.4,0.8-1.3,1.6l0.8,7.3c0.1,0.8,0.4,0.9,0.9,0.2l4.3-6
					c0.4-0.6,0.3-1.5-0.4-2C164.8,201.6,164.5,201.4,162.7,200.9z"/>
				<path class="st25" d="M171.3,215.5c0.5-1.8,0.4-2.2,0.4-2.2c-0.1-0.8-0.8-1.4-1.6-1.3l-7.3,0.8c-0.8,0-0.9,0.4-0.2,0.9l6,4.3
					c0.6,0.4,1.5,0.3,2-0.4C170.6,217.6,170.8,217.3,171.3,215.5z"/>
				<path class="st25" d="M155.6,201.1c0,0-0.4,0.1-2,1l4.7,8.1c0.1-0.1,0.2-0.3,0.1-0.7l-1.2-7.3
					C157.1,201.5,156.4,201,155.6,201.1z"/>
				<path class="st25" d="M167.4,219.6l-5.7-4.6c-0.3-0.3-0.5-0.3-0.7-0.3l4.7,8.1c1.6-0.9,1.8-1.2,1.8-1.2
					C168,221,167.9,220.1,167.4,219.6z"/>
			</g>
			<g class="st24">
				<g>
					<path class="st25" d="M193.4,174.4l-20.1,25.3c7,5.5,17.1,4.4,22.7-2.6C201.6,190.1,200.4,179.9,193.4,174.4z"/>
					<path class="st17" d="M191.8,176.4L175,197.6c5.8,4.6,14.4,3.7,19-2.2C198.6,189.6,197.6,181.1,191.8,176.4z"/>
				</g>
				<path class="st25" d="M192.8,194.5c1.2-1.5,1.3-1.8,1.3-1.8c0.2-0.7-0.2-1.6-0.9-1.8l-7-2.2c-0.7-0.3-1,0-0.6,0.7l3.8,6.3
					c0.4,0.6,1.3,0.9,2,0.5C191.3,196.1,191.6,195.9,192.8,194.5z"/>
				<path class="st25" d="M195.3,185.7c-0.2-1.8-0.4-2.2-0.4-2.2c-0.4-0.7-1.2-1-1.9-0.7l-6.5,3.4c-0.7,0.3-0.7,0.7,0.1,0.9l7.1,1.8
					c0.8,0.2,1.5-0.3,1.7-1.1C195.4,187.9,195.5,187.5,195.3,185.7z"/>
				<path class="st25" d="M184.8,198.9c1.8-0.2,2.2-0.4,2.2-0.4c0.7-0.4,1-1.2,0.7-1.9l-3.4-6.5c-0.3-0.7-0.7-0.7-0.9,0.1l-1.8,7.1
					c-0.2,0.8,0.3,1.5,1.1,1.7C182.6,199.1,182.9,199.2,184.8,198.9z"/>
				<path class="st25" d="M192.5,179.1c0,0-0.2-0.3-1.6-1.5L185,185c0.1,0.1,0.4,0.1,0.7-0.2l6.3-3.8
					C192.7,180.7,192.9,179.8,192.5,179.1z"/>
				<path class="st25" d="M179.6,196.8l2.2-7c0.1-0.4,0.1-0.6,0-0.7l-5.8,7.4c1.5,1.2,1.8,1.3,1.8,1.3
					C178.5,197.9,179.3,197.5,179.6,196.8z"/>
			</g>
		</g>
		<g>
			<path class="st26" d="M164.6,205.2c-3.5-3.7-6.5-6.4-8.7-6.3c-0.6,0-1.5,0.6-1.9,1c-2.6,2.4-1.3,6.5,3.4,11.3
				c6.4,6.6,10.1,7.4,11.9,6.5c0.9-0.4,2.3-1.8,2.2-3.2C171.5,212.8,169.2,210.1,164.6,205.2z"/>
			<path class="st27" d="M165.8,203.9c-4.4-4.7-9.2-6.2-10.9-4.3s-0.9,5.5,3.8,10.3c6.4,6.6,10.6,7.6,12,6.2
				C172,214.6,173.9,212.4,165.8,203.9z"/>
			<path class="st28" d="M165.8,203.9c-4.4-4.7-9.2-6.2-10.9-4.3s-0.9,5.5,3.8,10.3c6.4,6.6,10.6,7.6,12,6.2
				C172,214.6,173.9,212.4,165.8,203.9z M159.3,209.5c-4.2-4.4-5.2-7.6-3.7-9.3s5.9-0.4,9.9,3.9c7.3,7.8,6,10,4.7,11.3
				C169,216.7,165.1,215.5,159.3,209.5z"/>
			<path class="st29" d="M165,205.2c-2-2-5.7-4.7-7.3-3.9c-1.3,0.8-0.9,3.8,3.2,8.1c4.2,4.3,7.8,4.9,8.5,3.8
				C170.2,211.7,168.9,209.3,165,205.2z"/>
			<g>
				<path class="st17" d="M164,204.4L164,204.4c-0.5,0.1-0.9,0.7-1,1.2s-0.3,1.1-0.2,1.6c0.4-0.3,0.9-0.7,1-1.2
					C164,205.6,164.2,205,164,204.4z"/>
				<path class="st17" d="M163.2,207.5c1.1,0.3,2.5,0.3,3.1-0.5c-1.2-0.4-2.5-0.4-3.3,0.4L163.2,207.5
					C163.2,207.5,163.2,207.4,163.2,207.5z"/>
				<path class="st17" d="M160.3,204.7c-0.7-0.6-1.8-1.5-2.6-1.6l0,0c0,0.2,0.7,1.2,0.9,1.4c0.3,0.3,0.7,0.6,1,0.9
					c0.8,0.6,1.6,1,2.4,1.2C161.6,206,161,205.3,160.3,204.7z"/>
				<path class="st17" d="M158.8,206.5L158.8,206.5c0,0.1,0.7,0.6,0.8,0.7c0.3,0.1,0.7,0.3,1,0.3s0.6,0,0.9-0.1
					c0.2-0.1,0.4-0.2,0.6-0.3C161.7,206.9,159.7,205.8,158.8,206.5z"/>
				<path class="st17" d="M164.6,210.2c-0.2-0.4-1.4-2.3-1.6-2.3l0,0c-0.1,0.3,0.2,1.7,0.4,2.1c0.4,1,1.3,2,1.4,2.3
					C165.1,211.9,164.9,210.9,164.6,210.2z"/>
				<path class="st17" d="M166.8,210.3c-0.5-0.5-1-1-1.6-1.4c-0.4-0.3-1.2-0.7-1.5-0.8c0,0,0.4,0.5,0.5,0.6c0.6,0.7,1.1,1.5,1.8,2.1
					c1,1,1.9,1.5,2.3,1.7C167.9,211.8,167.5,211.1,166.8,210.3z"/>
			</g>
			<g>
				<g>
					<path class="st28" d="M153.8,204.7c0.1,0.1,0.1,0.2,0.2,0.4c0.1,0.1,0.2,0.2,0.3,0.2s0.2-0.1,0.1-0.3c-0.1-0.2-0.1-0.3-0.2-0.5
						c-0.1-0.1-0.2-0.2-0.3-0.1C153.8,204.4,153.8,204.6,153.8,204.7L153.8,204.7z"/>
				</g>
				<g>
					<path class="st28" d="M154.1,206.2c0.1,0.1,0.1,0.3,0.2,0.4c0.1,0.1,0.2,0.2,0.3,0.1c0.1,0,0.1-0.2,0.1-0.3
						c-0.1-0.1-0.1-0.3-0.2-0.4c-0.1-0.1-0.2-0.2-0.3-0.1C154,205.9,154,206.1,154.1,206.2L154.1,206.2z"/>
				</g>
				<g>
					<path class="st28" d="M154.8,206.3c0.1,0.1,0.2,0.3,0.4,0.4c0.1,0.1,0.3,0.1,0.3,0c0.1-0.1,0.1-0.2,0-0.3s-0.2-0.3-0.4-0.4
						C154.9,205.8,154.6,206.1,154.8,206.3L154.8,206.3z"/>
				</g>
				<g>
					<path class="st28" d="M155.2,208.1c0.1,0.1,0.2,0.3,0.4,0.4c0.2,0.2,0.5,0,0.3-0.3c-0.1-0.1-0.2-0.3-0.4-0.4
						C155.3,207.6,155,207.9,155.2,208.1L155.2,208.1z"/>
				</g>
				<g>
					<path class="st28" d="M156.3,208.3h-0.1c0.1,0,0,0,0,0C156.3,208.3,156.3,208.3,156.3,208.3c0,0.1,0.1,0.2,0.1,0.2
						c0.1,0.1,0.2,0.1,0.3,0s0.1-0.2,0-0.3c-0.2-0.2-0.3-0.4-0.6-0.4c-0.1,0-0.2,0.1-0.1,0.3C156.1,208.2,156.2,208.3,156.3,208.3
						L156.3,208.3z"/>
				</g>
				<g>
					<path class="st28" d="M156.7,209.9c0.1,0.1,0.3,0.2,0.4,0.4c0.2,0.3,0.6,0.1,0.4-0.2c-0.1-0.2-0.3-0.3-0.5-0.5
						C156.8,209.3,156.5,209.6,156.7,209.9L156.7,209.9z"/>
				</g>
				<g>
					<path class="st28" d="M157.6,209.6c0.1,0.1,0.2,0.2,0.3,0.3s0.3,0.1,0.3,0c0.1-0.1,0-0.3-0.1-0.3c0,0,0,0-0.1,0l0,0l0,0l0,0
						c0-0.1,0,0,0,0c-0.1-0.1-0.2-0.2-0.3-0.1C157.6,209.4,157.6,209.5,157.6,209.6L157.6,209.6z"/>
				</g>
				<g>
					<path class="st28" d="M160.3,212.5c0.1,0.1,0.3,0.3,0.4,0.4c0.1,0.1,0.3,0.1,0.3,0c0.1-0.1,0-0.2-0.1-0.3s-0.2-0.2-0.3-0.3
						s-0.2-0.1-0.3,0C160.2,212.2,160.2,212.4,160.3,212.5L160.3,212.5z"/>
				</g>
				<g>
					<path class="st28" d="M158.5,211.4c0.1,0.1,0.2,0.2,0.2,0.2c0.1,0.1,0.2,0.1,0.3,0s0.1-0.2,0-0.3s-0.2-0.2-0.2-0.2
						c-0.1-0.1-0.2-0.1-0.3,0C158.4,211.1,158.5,211.3,158.5,211.4L158.5,211.4z"/>
				</g>
				<g>
					<path class="st28" d="M162.2,215.2L162.2,215.2L162.2,215.2c0.1,0.1,0.1,0.1,0.2,0.2c0.1,0.1,0.3,0,0.3,0
						c0.1-0.1,0-0.2-0.1-0.3c0,0-0.1-0.1,0,0l0,0l-0.1-0.1c-0.1-0.1-0.3-0.1-0.3,0C162,214.9,162.1,215.1,162.2,215.2L162.2,215.2z"
						/>
				</g>
				<g>
					<path class="st28" d="M153,201.6C153,201.6,153,201.7,153,201.6C153,201.6,153,201.7,153,201.6c0,0.1,0,0.2,0,0.2
						c0,0.1,0.1,0.3,0.2,0.3c0.1,0,0.2,0,0.3-0.1c0-0.1,0-0.2,0-0.3s-0.1-0.2-0.3-0.3C153.1,201.4,153,201.5,153,201.6L153,201.6z"
						/>
				</g>
				<g>
					<path class="st28" d="M153.4,202.8c0,0.1,0.1,0.2,0.1,0.3s0.2,0.2,0.3,0.2s0.1,0,0.1-0.1s0-0.1,0-0.2c0-0.1,0-0.2-0.1-0.3
						c0-0.1-0.1-0.1-0.1-0.2c-0.1,0-0.1-0.1-0.2,0C153.4,202.5,153.3,202.6,153.4,202.8L153.4,202.8z"/>
				</g>
			</g>
		</g>
		<g>
			<path class="st26" d="M185.1,186.2c-4.9,1.5-8.5,3-9.3,5.4c-0.2,0.6,0,1.9,0.2,2.6c1.3,4.3,5.7,5.3,12,3.2
				c8.7-2.8,10.8-6.3,10.7-8.7c-0.1-1.3-0.8-3.5-2.1-4.3C194.9,183.4,191.4,184.3,185.1,186.2z"/>
			<path class="st27" d="M184.3,184.1c-6.2,1.8-9.4,6-8.2,9c1.1,2.9,4.8,4.3,11.2,2.2c8.7-2.8,11.3-6.7,10.4-8.9
				C196.8,184,195.4,180.7,184.3,184.1z"/>
			<path class="st28" d="M197.7,186.3c-0.8-2.3-2.2-5.6-13.4-2.2c-6.2,1.8-9.4,6-8.2,9c1.1,2.9,4.8,4.3,11.2,2.2
				C195.9,192.4,198.5,188.6,197.7,186.3z M187.1,194.4c-5.8,1.9-9.2,1-10.2-1.7c-1-2.6,1.9-6.5,7.5-8.1c10.1-3,11.7-0.2,12.5,1.8
				C197.6,188.5,195,191.9,187.1,194.4z"/>
			<path class="st29" d="M185.3,185.8c-2.6,0.9-6.6,3.2-6.4,5.4c0.2,1.9,3.2,3.3,8.9,1.5s7.6-5.4,6.8-6.7
				C193.4,184.1,190.6,184,185.3,185.8z"/>
			<g>
				<path class="st17" d="M184.2,186.3L184.2,186.3c-0.1,0.6,0.3,1.3,0.7,1.8c0.4,0.4,0.9,0.9,1.5,1.2c-0.2-0.6-0.4-1.4-0.8-1.9
					C185.2,187,184.7,186.4,184.2,186.3z"/>
				<path class="st17" d="M186.7,189.1c0.7-1,1.2-2.5,0.8-3.6C186.7,186.6,186.2,188,186.7,189.1L186.7,189.1
					C186.7,189,186.7,189,186.7,189.1z"/>
				<path class="st17" d="M183,190.4c-0.8,0.4-2.1,1-2.5,1.8l0,0c0.2,0.1,1.4-0.1,1.6-0.1c0.4-0.2,0.9-0.3,1.3-0.5
					c0.8-0.5,1.6-1,2.1-1.8C184.7,189.8,183.8,190,183,190.4z"/>
				<path class="st17" d="M184.1,193.2L184.1,193.2c0.1,0,0.8-0.4,0.9-0.5c0.3-0.3,0.5-0.6,0.7-0.9c0.2-0.3,0.2-0.7,0.3-1
					c0-0.3-0.1-0.5,0-0.8C185.6,190.3,183.8,191.7,184.1,193.2z"/>
				<path class="st17" d="M189.8,189.2c-0.4,0-2.7,0.1-2.7,0.3l0,0c0.3,0.3,1.7,0.8,2.2,0.9c1.1,0.2,2.4-0.2,2.7-0.1
					C191.6,189.6,190.6,189.3,189.8,189.2z"/>
				<path class="st17" d="M190.8,187c-0.7,0.2-1.4,0.4-1.9,0.8c-0.4,0.3-1.1,0.8-1.3,1.2c0,0,0.6-0.1,0.8-0.2
					c0.9-0.1,1.8-0.3,2.7-0.6c1.4-0.5,2.1-1.1,2.5-1.4C192.6,186.7,191.7,186.7,190.8,187z"/>
			</g>
			<g>
				<g>
					<path class="st28" d="M180.5,197.3c0.1,0,0.3,0,0.4,0c0.1,0,0.3-0.1,0.3-0.2c0-0.1-0.1-0.3-0.2-0.3c-0.2,0-0.4,0-0.5,0
						s-0.3,0.1-0.2,0.3C180.2,197.2,180.4,197.3,180.5,197.3L180.5,197.3z"/>
				</g>
				<g>
					<path class="st28" d="M182,197.9c0.1,0,0.3,0,0.4,0c0.1,0,0.3-0.1,0.2-0.3c0-0.1-0.1-0.3-0.3-0.2c-0.1,0-0.3,0-0.4,0
						c-0.1,0-0.3,0.1-0.2,0.3C181.7,197.8,181.9,198,182,197.9L182,197.9z"/>
				</g>
				<g>
					<path class="st28" d="M182.4,197.2c0.2-0.1,0.4-0.1,0.6-0.1c0.1,0,0.2-0.2,0.2-0.3s-0.2-0.2-0.3-0.2c-0.2,0-0.4,0.1-0.6,0.1
						C181.9,196.8,182.1,197.3,182.4,197.2L182.4,197.2z"/>
				</g>
				<g>
					<path class="st28" d="M184.3,198c0.2-0.1,0.3-0.1,0.5-0.1c0.3-0.1,0.2-0.6-0.2-0.5c-0.2,0.1-0.3,0.1-0.5,0.1
						C183.8,197.6,184,198.1,184.3,198L184.3,198z"/>
				</g>
				<g>
					<path class="st28" d="M184.8,196.8C184.8,196.8,184.8,196.9,184.8,196.8C184.8,196.9,184.7,196.9,184.8,196.8
						C184.8,196.9,184.8,196.9,184.8,196.8c0.1,0,0.2,0,0.3,0s0.2-0.2,0.2-0.3s-0.2-0.2-0.3-0.2c-0.2,0.1-0.5,0.1-0.6,0.4
						c0,0.1,0.1,0.3,0.2,0.3C184.7,197,184.8,196.9,184.8,196.8L184.8,196.8z"/>
				</g>
				<g>
					<path class="st28" d="M186.5,197.4c0.2,0,0.3-0.2,0.5-0.2c0.3,0,0.3-0.5,0-0.5c-0.2,0-0.4,0.2-0.6,0.2
						C186,197,186.2,197.5,186.5,197.4L186.5,197.4z"/>
				</g>
				<g>
					<path class="st28" d="M186.6,196.3c0.1,0,0.3-0.1,0.4-0.2c0.1-0.1,0.2-0.2,0.1-0.4c-0.1-0.1-0.2-0.2-0.4-0.1c0,0,0,0-0.1,0l0,0
						l0,0c0,0,0,0-0.1,0s0.1,0,0,0s-0.3,0.1-0.2,0.3C186.4,196.2,186.5,196.3,186.6,196.3L186.6,196.3z"/>
				</g>
				<g>
					<path class="st28" d="M190.3,195.1c0.2-0.1,0.3-0.1,0.5-0.2c0.1-0.1,0.1-0.2,0.1-0.4c-0.1-0.1-0.2-0.1-0.4-0.1
						c-0.1,0.1-0.2,0.1-0.4,0.1c-0.1,0-0.2,0.2-0.2,0.3C190.1,195.1,190.2,195.1,190.3,195.1L190.3,195.1z"/>
				</g>
				<g>
					<path class="st28" d="M188.6,196.3c0.1,0,0.2-0.1,0.3-0.1s0.2-0.2,0.2-0.3s-0.2-0.2-0.3-0.2s-0.2,0.1-0.3,0.1s-0.2,0.2-0.2,0.3
						C188.3,196.3,188.5,196.4,188.6,196.3L188.6,196.3z"/>
				</g>
				<g>
					<path class="st28" d="M193.6,194.8L193.6,194.8L193.6,194.8c0.1-0.1,0.2-0.1,0.2-0.1c0.1-0.1,0.1-0.2,0.1-0.4
						c-0.1-0.1-0.2-0.1-0.4-0.1c0,0-0.1,0,0,0c0,0,0,0-0.1,0s-0.1,0-0.2,0.1c-0.1,0.1-0.1,0.2-0.1,0.4
						C193.3,194.8,193.5,194.8,193.6,194.8L193.6,194.8z"/>
				</g>
				<g>
					<path class="st28" d="M177.3,196.3L177.3,196.3C177.3,196.3,177.4,196.3,177.3,196.3c0.1,0.1,0.1,0.1,0.2,0.1
						c0.1,0.1,0.3,0.1,0.4,0c0.1-0.1,0.1-0.3,0-0.4c-0.1-0.1-0.2-0.2-0.3-0.2c-0.1-0.1-0.3,0-0.3,0.1
						C177.1,196.1,177.2,196.2,177.3,196.3L177.3,196.3z"/>
				</g>
				<g>
					<path class="st28" d="M178.5,196.6c0.1,0,0.2,0,0.3,0.1c0.1,0,0.3-0.1,0.3-0.2c0-0.1,0-0.1,0-0.2c0-0.1-0.1-0.1-0.2-0.1
						c-0.1,0-0.2-0.1-0.3-0.1s-0.1,0-0.2,0c-0.1,0-0.1,0.1-0.1,0.2C178.3,196.5,178.4,196.6,178.5,196.6L178.5,196.6z"/>
				</g>
			</g>
		</g>
		<g>
			<path class="st26" d="M180.9,229.7c-3.6,3.9-6,7.3-5.4,9.9c0.2,0.7,1.1,1.7,1.6,2.2c3.5,3.1,7.9,1.7,12.5-3.6
				c6.3-7.2,6.3-11.5,4.9-13.6c-0.7-1.1-2.6-2.7-4.2-2.7C188.2,221.9,185.6,224.6,180.9,229.7z"/>
			<path class="st27" d="M179,228.3c-4.5,5-5.1,10.5-2.5,12.5s6.7,1.2,11.2-4.1c6.3-7.2,6.5-12.1,4.5-13.7
				C190.3,221.4,187.2,219.2,179,228.3z"/>
			<path class="st28" d="M192.2,223c-2-1.6-5-3.8-13.2,5.3c-4.5,5-5.1,10.5-2.5,12.5s6.7,1.2,11.2-4.1
				C194,229.4,194.2,224.6,192.2,223z M187.2,236c-4.2,4.8-7.7,5.8-10.1,4c-2.3-1.8-1.8-6.8,2.3-11.4c7.4-8.2,10.4-6.6,12.2-5.1
				S192.9,229.5,187.2,236z"/>
			<path class="st29" d="M180.9,229.3c-1.9,2.2-4.2,6.5-2.8,8.3c1.2,1.6,4.7,1.2,8.8-3.5s3.9-9,2.5-9.7
				C187.3,223.4,184.7,224.8,180.9,229.3z"/>
			<g>
				<path class="st17" d="M180.1,230.4L180.1,230.4c0.3,0.6,1,1,1.6,1.2s1.3,0.3,2,0.3c-0.5-0.5-1.1-1-1.7-1.3
					C181.5,230.4,180.7,230.1,180.1,230.4z"/>
				<path class="st17" d="M183.9,231.5c0.1-1.3-0.3-2.9-1.3-3.7c-0.2,1.4,0.1,2.9,1.2,3.9L183.9,231.5
					C183.9,231.4,183.9,231.4,183.9,231.5z"/>
				<path class="st17" d="M181.3,234.6c-0.5,0.8-1.3,2.1-1.2,3l0,0c0.2,0,1.2-0.8,1.4-1c0.3-0.4,0.6-0.7,0.8-1.2
					c0.5-0.9,0.9-1.8,0.9-2.7C182.5,233.2,181.8,233.9,181.3,234.6z"/>
				<path class="st17" d="M183.8,236.5L183.8,236.5c0.1,0,0.5-0.8,0.6-0.9c0.1-0.4,0.1-0.8,0.1-1.2s-0.1-0.7-0.3-1.1
					c-0.1-0.3-0.3-0.4-0.5-0.7C183.6,233.1,182.8,235.4,183.8,236.5z"/>
				<path class="st17" d="M186.8,229.9c-0.4,0.2-2.3,1.6-2.3,1.8l0,0c0.4,0.1,2-0.2,2.4-0.4c1.1-0.4,2-1.5,2.4-1.6
					C188.6,229.3,187.5,229.5,186.8,229.9z"/>
				<path class="st17" d="M186.4,227.3c-0.5,0.5-1,1.1-1.3,1.8c-0.2,0.5-0.6,1.3-0.6,1.8c0,0,0.5-0.5,0.6-0.6c0.7-0.6,1.5-1.3,2.1-2
					c1-1.2,1.3-2.1,1.5-2.6C187.9,226.1,187.1,226.6,186.4,227.3z"/>
			</g>
			<g>
				<g>
					<path class="st28" d="M182.8,242.2c0.1-0.1,0.3-0.1,0.4-0.2c0.1-0.1,0.2-0.2,0.2-0.3s-0.2-0.2-0.3-0.2
						c-0.2,0.1-0.4,0.2-0.5,0.3s-0.2,0.3-0.1,0.4C182.5,242.3,182.7,242.3,182.8,242.2L182.8,242.2z"/>
				</g>
				<g>
					<path class="st28" d="M184.5,242c0.1-0.1,0.3-0.2,0.4-0.2c0.1-0.1,0.2-0.3,0.1-0.4c-0.1-0.1-0.3-0.2-0.4-0.1
						c-0.1,0.1-0.3,0.2-0.4,0.2c-0.1,0.1-0.2,0.3-0.1,0.4C184.2,242,184.4,242,184.5,242L184.5,242z"/>
				</g>
				<g>
					<path class="st28" d="M184.5,241.1c0.1-0.1,0.3-0.3,0.4-0.4c0.1-0.1,0.1-0.3,0-0.4c-0.1-0.1-0.3-0.1-0.4,0
						c-0.1,0.1-0.3,0.3-0.4,0.4C183.8,241,184.2,241.3,184.5,241.1L184.5,241.1z"/>
				</g>
				<g>
					<path class="st28" d="M186.6,240.7c0.1-0.1,0.3-0.3,0.4-0.4c0.2-0.3-0.2-0.6-0.4-0.4c-0.1,0.1-0.3,0.3-0.4,0.4
						C185.9,240.6,186.3,241,186.6,240.7L186.6,240.7z"/>
				</g>
				<g>
					<path class="st28" d="M186.4,239.4v0.1c0-0.1,0,0,0,0S186.5,239.5,186.4,239.4c0.1,0,0.2-0.1,0.2-0.1c0.1-0.1,0.1-0.3,0-0.4
						c-0.1-0.1-0.3-0.1-0.4,0c-0.2,0.2-0.4,0.4-0.3,0.7c0,0.1,0.2,0.2,0.3,0.2C186.4,239.7,186.5,239.5,186.4,239.4L186.4,239.4z"/>
				</g>
				<g>
					<path class="st28" d="M188.2,239c0.1-0.1,0.2-0.4,0.3-0.5c0.3-0.2,0-0.7-0.3-0.4c-0.2,0.2-0.3,0.4-0.5,0.6
						C187.6,238.9,188,239.3,188.2,239L188.2,239z"/>
				</g>
				<g>
					<path class="st28" d="M187.8,237.9c0.1-0.1,0.2-0.2,0.3-0.4c0.1-0.1,0-0.3-0.1-0.4c-0.1-0.1-0.3,0-0.4,0.1c0,0,0,0,0,0.1l0,0
						l0,0c0,0,0,0,0,0.1c-0.1,0.1,0,0,0,0c-0.1,0.1-0.2,0.3-0.1,0.4C187.5,238,187.6,238,187.8,237.9L187.8,237.9z"/>
				</g>
				<g>
					<path class="st28" d="M190.5,234.9c0.1-0.1,0.2-0.3,0.3-0.4c0.1-0.1,0-0.3-0.1-0.4c-0.1-0.1-0.3,0-0.4,0.1
						c-0.1,0.1-0.2,0.2-0.3,0.3s-0.1,0.3,0,0.4S190.4,235,190.5,234.9L190.5,234.9z"/>
				</g>
				<g>
					<path class="st28" d="M189.6,236.9c0.1-0.1,0.2-0.2,0.2-0.3c0.1-0.1,0.1-0.3,0-0.4c-0.1-0.1-0.3-0.1-0.4,0
						c-0.1,0.1-0.2,0.2-0.2,0.3c-0.1,0.1-0.1,0.3,0,0.4S189.5,237,189.6,236.9L189.6,236.9z"/>
				</g>
				<g>
					<path class="st28" d="M193.2,232.8L193.2,232.8L193.2,232.8c0.1-0.1,0.1-0.2,0.1-0.2c0.1-0.1,0-0.3-0.1-0.4
						c-0.1-0.1-0.3,0-0.4,0.1c0,0,0,0.1,0,0l0,0c0,0-0.1,0.1-0.1,0.2c-0.1,0.1,0,0.3,0.1,0.4C193,233,193.1,233,193.2,232.8
						L193.2,232.8z"/>
				</g>
				<g>
					<path class="st28" d="M179.4,243L179.4,243C179.4,243,179.5,243,179.4,243c0.1,0,0.2,0,0.2,0c0.1,0,0.3-0.1,0.3-0.2
						c0-0.1-0.1-0.3-0.2-0.3c-0.1,0-0.3,0-0.4,0c-0.1,0-0.3,0.1-0.2,0.3C179.1,242.9,179.3,243,179.4,243L179.4,243z"/>
				</g>
				<g>
					<path class="st28" d="M180.7,242.7c0.1,0,0.2-0.1,0.3-0.1s0.2-0.2,0.2-0.3s-0.1-0.1-0.1-0.2c-0.1,0-0.1,0-0.2,0
						c-0.1,0-0.2,0-0.3,0.1c-0.1,0-0.1,0.1-0.2,0.1c0,0.1,0,0.1,0,0.2C180.4,242.7,180.5,242.8,180.7,242.7L180.7,242.7z"/>
				</g>
			</g>
			<path class="st30" d="M193,228.5l1.9,1.2c0,0,0.2-0.5,0.2-1c0.1-0.5,0.2-0.9,0.2-0.9L193,228.5z"/>
		</g>
		<g>
			
				<rect x="164" y="171.3" transform="matrix(0.5276 -0.8495 0.8495 0.5276 -71.8835 233.6206)" class="st31" width="20.2" height="20.2"/>
			
				<rect x="172.4" y="198.5" transform="matrix(0.7783 -0.6278 0.6278 0.7783 -90.5031 160.8065)" class="st31" width="20.2" height="20.2"/>
			
				<rect x="160.3" y="219.5" transform="matrix(0.6401 -0.7683 0.7683 0.6401 -115.043 213.5489)" class="st31" width="20.2" height="20.2"/>
		</g>
	</g>
	<path class="st32" d="M195.1,143.7l-3.4,114.9h2c6.3,0,11.4-5,11.6-11.3l3-103.6L195.1,143.7L195.1,143.7z"/>
</g>
</svg>
