<?xml version="1.0" encoding="utf-8"?>
<!-- Generator: Adobe Illustrator 23.0.0, SVG Export Plug-In . SVG Version: 6.00 Build 0)  -->
<svg version="1.1" id="Capa_1" xmlns="http://www.w3.org/2000/svg" xmlns:xlink="http://www.w3.org/1999/xlink" x="0px" y="0px"
	 viewBox="0 0 360 363" style="enable-background:new 0 0 360 363;" xml:space="preserve">
<style type="text/css">
	.st0{fill:#FFD084;}
	.st1{fill:none;stroke:#FFE1C0;stroke-width:0.7573;stroke-miterlimit:10;}
	.st2{fill:#FFD6A4;}
	.st3{fill:none;stroke:#FFE1C0;stroke-width:0.75;stroke-miterlimit:10;}
	.st4{fill:#FFE1C0;}
	.st5{fill:none;stroke:#FFD6A4;stroke-width:0.75;stroke-miterlimit:10;}
	.st6{fill:none;stroke:#FFEFE1;stroke-width:0.7478;stroke-miterlimit:10;}
	.st7{fill:#8F7CE5;}
	.st8{fill:#A6A6DD;}
	.st9{fill:#FFE5CC;}
	.st10{fill:none;stroke:#FFD6A4;stroke-miterlimit:10;}
	.st11{clip-path:url(#SVGID_2_);fill:#FFD8AE;}
	.st12{clip-path:url(#SVGID_4_);fill:#FFD8AE;}
	.st13{fill:#EBEBFC;stroke:#FFFFFF;stroke-width:17.8589;stroke-linejoin:round;stroke-miterlimit:10;}
	.st14{fill:#C7FF00;stroke:#FFFFFF;stroke-width:17.8589;stroke-linejoin:round;stroke-miterlimit:10;}
	.st15{fill:#FFFEFA;stroke:#FFFFFF;stroke-width:17.8589;stroke-linejoin:round;stroke-miterlimit:10;}
	.st16{fill:#FFF700;stroke:#FFFFFF;stroke-width:17.8589;stroke-linejoin:round;stroke-miterlimit:10;}
	.st17{fill:#3D9EC1;}
	.st18{fill:#78C9E9;}
	.st19{fill:#FFCC2C;}
	.st20{fill:#ADF2DB;}
	.st21{fill:#7AE5C4;}
	.st22{fill:#6CD3B1;}
	.st23{opacity:0.4;fill:#FFFFFF;enable-background:new    ;}
	.st24{fill:#D0EAE7;}
	.st25{fill:#562F00;}
	.st26{fill:#8A5000;}
	.st27{fill:#FFED73;}
	.st28{fill:url(#SVGID_5_);}
	.st29{opacity:0.8;fill:#FFED73;}
	.st30{fill:url(#SVGID_6_);}
	.st31{fill:url(#SVGID_7_);}
	.st32{fill:url(#SVGID_8_);}
	.st33{fill:url(#SVGID_9_);}
	.st34{fill:url(#SVGID_10_);}
	.st35{fill:url(#SVGID_11_);}
	.st36{fill:url(#SVGID_12_);}
	.st37{fill:url(#SVGID_13_);}
	.st38{fill:url(#SVGID_14_);}
	.st39{fill:url(#SVGID_15_);}
	.st40{fill:url(#SVGID_16_);}
	.st41{fill:url(#SVGID_17_);}
	.st42{fill:url(#SVGID_18_);}
	.st43{fill:url(#SVGID_19_);}
	.st44{fill:url(#SVGID_20_);}
	.st45{fill:url(#SVGID_21_);}
	.st46{fill:url(#SVGID_22_);}
	.st47{fill:url(#SVGID_23_);}
	.st48{fill:url(#SVGID_24_);}
	.st49{fill:url(#SVGID_25_);}
	.st50{fill:url(#SVGID_26_);}
	.st51{fill:url(#SVGID_27_);}
	.st52{fill:url(#SVGID_28_);}
	.st53{fill:url(#SVGID_29_);}
	.st54{fill:url(#SVGID_30_);}
	.st55{fill:url(#SVGID_31_);}
	.st56{fill:url(#SVGID_32_);}
	.st57{fill:url(#SVGID_33_);}
	.st58{fill:url(#SVGID_34_);}
	.st59{fill:url(#SVGID_35_);}
	.st60{filter:url(#Adobe_OpacityMaskFilter);}
	.st61{fill:#FFFFFF;}
	.st62{mask:url(#SVGID_36_);}
	.st63{fill:url(#SVGID_37_);}
	.st64{fill:url(#SVGID_38_);}
	.st65{fill:#CCCCFF;}
	.st66{fill:#C2C2F9;}
</style>
<g id="fondo">
	<g id="Rectángulo_556">
		<rect y="-0.1" class="st0" width="360" height="363.3"/>
		<rect x="0.5" y="0.4" class="st0" width="359" height="362.2"/>
	</g>
	<path class="st1" d="M228.1,263.3c0,0,44-35.1,59.7-104.9c15.8-69.8-12.4-91.7-12.4-91.7s-20.5-26.4-33.4,10.6
		c0,0-11.1,37.2-24.4,18.6c0,0-4-5.6-6.5-13s-11-10.5-11-10.5s-21.4-7.3-59.4,34.8c0,0-30.9,35.9-25.5,83.1s10.5,56.8,10.5,56.8
		L228.1,263.3z"/>
	<path class="st2" d="M225.9,276.1c0,0,43.1-35.1,58.6-104.9s-12.2-91.7-12.2-91.7s-20.1-26.4-32.8,10.6c0,0-10.9,37.2-23.9,18.6
		c0,0-3.9-5.6-6.4-13s-10.8-10.5-10.8-10.5s-21-7.3-58.2,34.8c0,0-30.3,35.9-25,83.1c5.3,47.2,10.3,56.8,10.3,56.8L225.9,276.1z"/>
	<path class="st3" d="M114.9,250.6c0,0-61.2-54.4-49.7-80.4s30.9-7.5,30.9-7.5s25.7,22.6,47.9,63.9L114.9,250.6z"/>
	<path class="st2" d="M115.8,254.7c0,0-54.1-58.6-42.6-84.6s30.9-7.5,30.9-7.5s25.7,22.6,47.9,63.9L115.8,254.7z"/>
	<path class="st4" d="M206.4,270c0,0,41.3-44.5,60.9-102.8c0,0,11.1-34-2.3-60c0,0-8.2-25.8-29.3,14.8s-29.4,11.9-29.4,11.9
		s-8.1-59.5-44-15.2s-22.9,140.1-22.9,140.1L206.4,270z"/>
	<path class="st5" d="M191.1,246.3c0,0,54.4-73,68-155.4"/>
	<path class="st6" d="M195.3,271c0,0,33.9-33.6,51.3-78.9c0,0,9.9-26.4,0.3-47.4c0,0-5.5-20.6-23.5,10.6s-23.4,8.4-23.4,8.4
		s-4.3-47.2-33.9-13.5s-22.8,109.6-22.8,109.6L195.3,271z"/>
	<g>
		
			<ellipse transform="matrix(1 -1.876250e-03 1.876250e-03 1 -0.5354 0.338)" class="st7" cx="179.9" cy="285.5" rx="102.6" ry="21.4"/>
		<polygon class="st7" points="282.5,285.3 282.7,271.4 77.5,271.8 77.3,285.7 		"/>
		
			<ellipse transform="matrix(1 -1.876250e-03 1.876250e-03 1 -0.5092 0.3384)" class="st8" cx="180.1" cy="271.6" rx="102.6" ry="21.4"/>
	</g>
	<path class="st3" d="M239.7,225.4c0,0,41.8-19.1,39.9,8.9s-53,30.9-53,30.9s-15.5-0.3-14.5-10.3C213.1,245,218.5,235.9,239.7,225.4
		z"/>
	<path class="st9" d="M229.9,227.9c0,0,37.6-26.4,40.9,1.5c3.2,27.9-46.4,40.1-46.4,40.1S209,272,208.2,262
		C207.3,252,211,242.1,229.9,227.9z"/>
	<path class="st10" d="M208.2,262c0,0,44.4-19.6,65.3-41.4"/>
	<g>
		<g>
			<defs>
				<path id="SVGID_1_" d="M229.9,227.9c0,0,37.6-26.4,40.9,1.5c3.2,27.9-46.4,40.1-46.4,40.1S209,272,208.2,262
					C207.3,252,211,242.1,229.9,227.9z"/>
			</defs>
			<clipPath id="SVGID_2_">
				<use xlink:href="#SVGID_1_"  style="overflow:visible;"/>
			</clipPath>
			<path class="st11" d="M240.9,216.5c0,0-27.3,46.6,4.8,50c21.5,2.3-22.9,11.5-22.9,11.5l-20.3-4.6l-1.3-29.1l20-22.9L240.9,216.5z
				"/>
		</g>
	</g>
	<g>
		<path class="st9" d="M128.2,230.7c0,0-34.9-21.9-37.3,9.5c0,0,6.5,28.1,39.9,22.4S128.2,230.7,128.2,230.7z"/>
	</g>
	<path class="st10" d="M143,253.3c0,0-40.9-21-62.4-13.1"/>
	<g>
		<g>
			<defs>
				<path id="SVGID_3_" d="M128.2,230.7c0,0-34.9-21.9-37.3,9.5c0,0,6.5,28.1,39.9,22.4S128.2,230.7,128.2,230.7z"/>
			</defs>
			<clipPath id="SVGID_4_">
				<use xlink:href="#SVGID_3_"  style="overflow:visible;"/>
			</clipPath>
			<path class="st12" d="M124.1,223.3h-4h-3.6c0,0,17.6,26,9.4,34.6c-8.3,8.6-9.4,6.7-9.4,6.7l19.6,1.8l15.9-7.2l1.2-14.3l-16-11.9
				L124.1,223.3z"/>
		</g>
	</g>
	<path class="st3" d="M84.5,166.6c0,0,21.6,45.3,54.6,70.4"/>
	<path class="st3" d="M103.9,168.3c0,0-5.4,4-7,10.8"/>
	<path class="st3" d="M108.2,176.4c0,0-5.3,5.3-6,14.2"/>
	<path class="st3" d="M96.9,195.4c0,0-6.3-0.5-14.9,3.6"/>
	<path class="st3" d="M102.2,201.8c0,0-10.9,0.4-15.6,3.7"/>
	<path class="st2" d="M109.5,112.7c0.1,4-3.4,7.8-6.2,10.4c-1-2.4-1.9-5-2-7.6c-0.1-2,0.7-4,2.2-5.3c0.5-0.4,1-0.8,1.7-0.9
		c0.4-0.1,0.7-0.2,1.1-0.2C108,109.3,109.4,110.9,109.5,112.7z"/>
	<path class="st2" d="M81.9,128.8c-3.1,0.3-9-1.1-11.6-3.3c-2.3-1.7-2.3-2.2-3.4-4.9c-1-2.7,0.6-5.9,3.6-6.2
		c1.5-0.2,3.1,0.2,4.3,1.1C79.1,118.4,82.6,123.4,81.9,128.8z"/>
	<path class="st4" d="M105.6,147.4c-1.9,1.1-5-0.2-4.7-2.6c-0.2-2.8,4.1-3.8,5.6-1.6C107.5,144.5,106.9,146.6,105.6,147.4z"/>
	<path class="st4" d="M319.5,90.1c-2.6,1.4-6.6-0.3-6.3-3.5c-0.2-3.8,5.5-5.1,7.4-2.1C322,86.2,321.3,88.9,319.5,90.1z"/>
	<path class="st2" d="M328.9,302.3c-3.1,1.7-7.9-0.3-7.6-4.2c-0.3-4.5,6.6-6.1,8.9-2.5C331.9,297.6,331,300.9,328.9,302.3z"/>
	<path class="st4" d="M286.4,314c-2,1.1-5.2-0.2-5-2.8c-0.2-3,4.3-4,5.8-1.7C288.4,311,287.9,313.1,286.4,314z"/>
	<path class="st2" d="M61.9,249.7c-2.6,1.4-6.6-0.3-6.3-3.5c-0.2-3.8,5.5-5.1,7.4-2.1C64.4,245.8,63.7,248.5,61.9,249.7z"/>
	
		<ellipse transform="matrix(0.3506 -0.9365 0.9365 0.3506 -99.1506 230.0512)" class="st9" cx="116.3" cy="186.5" rx="2.7" ry="1.7"/>
	
		<ellipse transform="matrix(0.3506 -0.9365 0.9365 0.3506 -107.5106 238.2528)" class="st9" cx="118" cy="196.6" rx="2.7" ry="1.7"/>
	<ellipse transform="matrix(0.3506 -0.9365 0.9365 0.3506 -136.425 236.2583)" class="st0" cx="102.1" cy="216.5" rx="3" ry="1.8"/>
</g>
<g id="Capa_5">
	<g>
		<g>
			<path class="st13" d="M206,146.6l4.7-21.2l-4.5-0.8l-4.9,22h-49.2h-3v111.3c0,5.2,4.2,9.3,9.3,9.3h3h39.9c5.1,0,9.3-4.2,9.3-9.3
				V146.6H206z M196.9,260h-33.8c-4.1,0-7.4-3.7-7.4-8.2v-98.1h44.1l-12.5,56.7c-0.2,1.2,0.6,2.4,1.8,2.6c1.2,0.2,2.4-0.6,2.6-1.8
				l12.5-56.8v97.3C204.2,256.4,200.9,260,196.9,260z"/>
			<g>
				<path class="st14" d="M141.5,174.9c0,0-0.1-0.1-0.1-0.1c-11.8-7.8-15-23.8-7.2-35.6s23.8-15,35.6-7.2c0,0,0.1,0.1,0.1,0.1
					L141.5,174.9z"/>
				<path class="st15" d="M142.9,172.7c0,0-0.1-0.1-0.1-0.1c-10.6-7-13.5-21.3-6.5-31.9c7-10.6,21.3-13.5,31.9-6.5
					c0,0,0.1,0.1,0.1,0.1L142.9,172.7z"/>
				<g>
					<path class="st16" d="M155.7,151.2l-8.9-16.9c6.2-2.8,13.6-2.6,19.7,1.2L155.7,151.2z"/>
					<path class="st16" d="M153.7,152.2l-19.1-0.8c0.3-3.3,1.4-6.6,3.4-9.6c2-3,4.6-5.3,7.5-6.9L153.7,152.2z"/>
					<path class="st16" d="M143.4,170.5c-5.9-4.2-9-10.9-8.8-17.7l19,1.6L143.4,170.5z"/>
				</g>
			</g>
			<path class="st17" d="M155.7,153.8v98.1c0,4.5,3.3,8.2,7.4,8.2h33.8c4.1,0,7.4-3.7,7.4-8.2v-98.1H155.7z"/>
			<path class="st18" d="M158.8,153.8v98.1c0,4.5,2.9,8.2,6.4,8.2h29.5c3.6,0,6.4-3.7,6.4-8.2v-98.1H158.8z"/>
			<path class="st17" d="M201.2,153.8h-4.4L184.1,211c-0.2,1.2,0.6,2.4,1.8,2.6c1.2,0.2,2.4-0.6,2.6-1.8l12.6-57.1L201.2,153.8
				L201.2,153.8z"/>
			<path class="st19" d="M206.2,124.6l-19,85.9c-0.2,1.2,0.6,2.4,1.8,2.6c1.2,0.2,2.4-0.6,2.6-1.8l19-85.9L206.2,124.6z"/>
			<path class="st20" d="M155.7,173.2v76.7c0,5.6,3.3,10.1,7.4,10.1h33.8c4.1,0,7.4-4.5,7.4-10.1v-76.7L155.7,173.2L155.7,173.2z"/>
			<path class="st21" d="M155.7,201.8v47.1c0,6.2,3.3,11.1,7.4,11.1h33.8c4.1,0,7.4-5,7.4-11.1v-47.1L155.7,201.8L155.7,201.8z"/>
			<path class="st22" d="M155.7,236.7v15.1c0,4.5,3.3,8.2,7.4,8.2h33.8c4.1,0,7.4-3.7,7.4-8.2v-15.1H155.7z"/>
			<path class="st23" d="M185.4,195.1c1.1,1.1,1.1,2.8,0,3.8l-8.9,8.9c-1.1,1.1-2.8,1.1-3.8,0l-10-10c-1.1-1.1-1.1-2.8,0-3.8
				l8.9-8.9c1.1-1.1,2.8-1.1,3.8,0L185.4,195.1z"/>
			<path class="st23" d="M192.8,216c-0.9,0.9-2.3,0.9-3.2,0l-7.4-7.4c-0.9-0.9-0.9-2.3,0-3.2l8.3-8.3c0.9-0.9,2.3-0.9,3.2,0l7.4,7.4
				c0.9,0.9,0.9,2.3,0,3.2L192.8,216z"/>
			<path class="st23" d="M180,214.1c-0.7,0.7-1.8,0.7-2.4,0l-5.7-5.7c-0.7-0.7-0.7-1.8,0-2.4l6.4-6.4c0.7-0.7,1.8-0.7,2.4,0l5.7,5.7
				c0.7,0.7,0.7,1.8,0,2.4L180,214.1z"/>
			<path class="st23" d="M172,219.1c-0.7-0.7-0.7-1.7,0-2.4l5.6-5.6c0.7-0.7,1.7-0.7,2.4,0l6.3,6.3c0.7,0.7,0.7,1.7,0,2.4l-5.6,5.6
				c-0.7,0.7-1.7,0.7-2.4,0L172,219.1z"/>
			<path class="st24" d="M170,225.9c0,2.3-1.8,4.1-4.1,4.1s-4.1-1.8-4.1-4.1s1.8-4.1,4.1-4.1C168.2,221.9,170,223.7,170,225.9z"/>
			<path class="st24" d="M194.8,222.9c0,1.4-1.1,2.4-2.4,2.4c-1.4,0-2.4-1.1-2.4-2.4c0-1.4,1.1-2.4,2.4-2.4
				C193.7,220.4,194.8,221.5,194.8,222.9z"/>
			<path class="st24" d="M184.1,230.4c0,1.4-1.1,2.4-2.4,2.4c-1.4,0-2.4-1.1-2.4-2.4s1.1-2.4,2.4-2.4
				C182.9,228,184.1,229.1,184.1,230.4z"/>
			<g>
				<g>
					<path class="st25" d="M137.1,170.8c0,0,0,0,0.1,0.1c0.1,0.1,0.1,0.2,0.2,0.3c0.2,0.2,0.4,0.6,0.7,0.9c0.5,0.6,1.1,1.2,1.1,1.2
						l29-40.7c0.1,0,0.1,0.1,0.1,0.1l0.2-0.6l0.3-0.5c0,0-0.1,0-0.1-0.1l0.6-1.5c0,0-0.2-0.1-0.5-0.2c-0.3-0.1-0.7-0.3-1.1-0.4
						c-0.4-0.1-0.8-0.3-1.1-0.4c-0.2,0-0.3-0.1-0.4-0.1c-0.1,0-0.1,0-0.1,0l-0.3,1.3c-1-0.3-2-0.6-3.1-0.8l0.1-1.2c0,0-0.1,0-0.1,0
						c-0.1,0-0.2,0-0.4-0.1c-0.3,0-0.7-0.1-1.1-0.2c-0.4,0-0.8-0.1-1.1-0.1c-0.3,0-0.5,0-0.5,0l0,1.2c-1-0.1-2.1-0.1-3.1,0l-0.1-1.3
						c0,0-0.2,0-0.5,0c-0.3,0-0.7,0-1.1,0.1c-0.4,0-0.8,0.1-1.1,0.1c-0.3,0-0.5,0.1-0.5,0.1l0.3,1.3c-0.6,0.1-1.2,0.2-1.8,0.3
						c-0.3,0.1-0.6,0.1-0.8,0.2c-0.3,0.1-0.5,0.1-0.5,0.1l-0.5-1.4c0,0-0.2,0-0.5,0.1c-0.3,0.1-0.7,0.2-1.1,0.3
						c-0.4,0.1-0.8,0.2-1,0.3c-0.3,0.1-0.5,0.2-0.5,0.2l0.6,1.3c0,0-0.2,0.1-0.4,0.2c-0.3,0.1-0.6,0.2-1,0.4c-0.4,0.1-0.7,0.3-1,0.4
						c-0.3,0.1-0.4,0.2-0.4,0.2l0.1,0.2l0,0l-0.9-1.5c0,0,0,0-0.1,0.1c-0.1,0-0.2,0.1-0.3,0.2c-0.3,0.1-0.6,0.3-1,0.5
						c-0.3,0.2-0.7,0.4-0.9,0.5c-0.3,0.2-0.4,0.3-0.4,0.3l0.9,1.2c0,0-0.2,0.1-0.4,0.3c-0.2,0.1-0.5,0.4-0.8,0.6
						c-0.2,0.1-0.3,0.2-0.4,0.3c-0.1,0.1-0.3,0.2-0.4,0.3c-0.2,0.2-0.4,0.3-0.4,0.3l0.3,0.3l0,0l-1.3-1.4c0,0,0,0-0.1,0.1
						c-0.1,0.1-0.2,0.1-0.3,0.2c-0.2,0.2-0.5,0.5-0.8,0.7c-0.3,0.3-0.6,0.6-0.8,0.8c-0.1,0.1-0.2,0.2-0.2,0.3
						c-0.1,0.1-0.1,0.1-0.1,0.1l1.1,1c0,0-0.1,0.1-0.3,0.3c-0.2,0.2-0.4,0.5-0.7,0.8c-0.2,0.3-0.5,0.6-0.6,0.8
						c-0.2,0.2-0.3,0.4-0.3,0.4l0.4,0.3c0,0,0,0,0,0l-1.7-1.1c0,0-0.1,0.2-0.3,0.4c-0.2,0.2-0.4,0.6-0.6,0.9
						c-0.1,0.2-0.2,0.3-0.3,0.5c-0.1,0.2-0.2,0.3-0.2,0.4c-0.1,0.3-0.2,0.4-0.2,0.4l1.3,0.7c0,0,0,0-0.1,0.1c0,0.1-0.1,0.2-0.2,0.3
						c-0.1,0.3-0.3,0.6-0.4,0.9c-0.2,0.3-0.3,0.7-0.4,0.9c-0.1,0.1-0.1,0.2-0.1,0.3c0,0.1,0,0.1,0,0.1l-1.4-0.6c0,0-0.1,0.2-0.2,0.5
						c-0.1,0.3-0.2,0.6-0.3,1c-0.1,0.4-0.2,0.8-0.3,1c-0.1,0.3-0.1,0.5-0.1,0.5l1.4,0.4c0,0,0,0.2-0.1,0.5c-0.1,0.3-0.1,0.6-0.2,1
						c0,0.2-0.1,0.4-0.1,0.5c0,0.2,0,0.3-0.1,0.5c0,0.3-0.1,0.5-0.1,0.5l-1.5-0.3c0,0,0,0,0,0.1c0,0.1,0,0.2,0,0.4
						c0,0.3,0,0.7-0.1,1.1c0,0.4,0,0.8,0,1.1c0,0.3,0,0.5,0,0.5l1.5,0.1c0,0,0,0.2,0,0.5c0,0.3,0,0.7,0,1c0,0.4,0,0.8,0.1,1
						c0,0.3,0.1,0.5,0.1,0.5l0,0l0,0l-1.5,0c0,0,0,0.2,0.1,0.5c0,0.3,0.1,0.7,0.2,1.1c0.1,0.4,0.1,0.8,0.2,1.1
						c0.1,0.3,0.1,0.5,0.1,0.5l1.4-0.2c0.2,1,0.4,2,0.7,3l-1.3,0.3c0,0,0.1,0.2,0.2,0.5c0.1,0.3,0.2,0.7,0.4,1
						c0.1,0.4,0.3,0.8,0.4,1c0.1,0.3,0.2,0.5,0.2,0.5l1.2-0.4c0.4,1,0.9,1.9,1.5,2.8l-1.2,0.6c0,0,0.1,0.2,0.3,0.4
						c0.2,0.3,0.4,0.6,0.6,1c0.2,0.4,0.5,0.7,0.7,0.9c0.2,0.3,0.3,0.4,0.3,0.4L137.1,170.8z M133.3,144.9L133.3,144.9L133.3,144.9
						L133.3,144.9z"/>
					<path class="st26" d="M135.8,140.2l0.5-0.7l0,0l0.1-0.1c0.1-0.1,0.2-0.3,0.3-0.4c0.1-0.1,0.2-0.2,0.2-0.3
						c0.2-0.2,0.3-0.4,0.5-0.6l0.7-0.8l-1.1-1c0,0,0.2-0.2,0.2-0.2c0.2-0.2,0.3-0.3,0.5-0.5c0,0,0.8-0.7,0.8-0.7l1,1.1l0.3-0.3
						l0.7-0.6l0.4-0.3c0.3-0.2,0.6-0.4,0.8-0.6l0.8-0.5l-0.9-1.2c0,0,0,0,0,0l0.9-0.5c0.2-0.1,0.4-0.2,0.7-0.3
						c0.1-0.1,0.2-0.1,0.3-0.2l0,0l0.7,1.1l0.5-0.3l-0.1,0.2l0.6-0.3c0.2-0.1,0.5-0.2,0.8-0.3c0.1-0.1,0.3-0.1,0.4-0.2
						c0.2-0.1,0.4-0.2,0.6-0.2l0.9-0.3l-0.6-1.3l0,0c0.2-0.1,0.4-0.1,0.7-0.2l0.4-0.1c0.2-0.1,0.5-0.1,0.7-0.2
						c0.1,0,0.2-0.1,0.3-0.1l0.1,0l0.4,1.3l0.3,0c0.1,0,0.1,0,0.6-0.1c0.1,0,0.2,0,0.3-0.1c0.1,0,0.3-0.1,0.5-0.1
						c0.6-0.1,1.2-0.2,1.7-0.3l0.5-0.1l-0.3-1.3l0,0c0.2,0,0.4,0,0.7-0.1c0.1,0,0.3,0,0.4,0c0.3,0,0.5,0,0.8-0.1c0.1,0,0.2,0,0.3,0
						l0.1,0l0.1,1.3l0.4,0c1-0.1,2.1-0.1,3.1,0l0.5,0l0-1.2l0,0c0.2,0,0.4,0,0.7,0.1l0.4,0c0.3,0,0.5,0.1,0.8,0.1c0.1,0,0.2,0,0.4,0
						l0.1,0l-0.1,1.2l0.4,0.1c1,0.2,2.1,0.5,3,0.8l0.5,0.2l0.3-1.3c0,0,0,0,0,0c0.1,0,0.2,0.1,0.3,0.1c0.2,0.1,0.5,0.2,0.8,0.2
						l0.4,0.1c0.3,0.1,0.5,0.2,0.7,0.3l0.1,0l-0.6,1.4l0,0l-0.1,0.1l-0.1,0.2l-0.1,0l-28.9,40.5c-0.2-0.2-0.4-0.5-0.7-0.8
						c-0.2-0.2-0.3-0.4-0.5-0.6c-0.1-0.1-0.1-0.2-0.2-0.3l-0.2-0.3c0-0.1-0.1-0.1-0.1-0.1l-0.3-0.4l-0.4,0.2l-0.8,0.5l-0.2-0.2
						c-0.2-0.2-0.3-0.5-0.5-0.8c-0.1-0.1-0.1-0.2-0.2-0.3c-0.1-0.2-0.3-0.4-0.4-0.6l0-0.1l1.2-0.6l-0.3-0.4c-0.5-0.9-1-1.8-1.5-2.7
						l-0.2-0.4l-1.2,0.4l0-0.1c-0.1-0.3-0.3-0.7-0.4-1c0-0.1-0.1-0.2-0.1-0.3c-0.1-0.3-0.2-0.5-0.3-0.7l0,0l1.2-0.3l-0.1-0.4
						c-0.3-1-0.5-1.9-0.7-2.9l-0.1-0.4l-1.4,0.2l0-0.1c0-0.1,0-0.2-0.1-0.3c0-0.2-0.1-0.5-0.1-0.8c0-0.1,0-0.3-0.1-0.4
						c0-0.2-0.1-0.5-0.1-0.7l0,0l2.3-0.1l-0.9-0.6c0-0.1,0-0.3,0-0.3c0-0.2,0-0.4,0-0.6c0-0.1,0-0.3,0-0.4c0-0.3,0-0.6,0-0.9l0-1
						l-1.5-0.1c0,0,0-0.4,0-0.4c0-0.2,0-0.5,0-0.8c0,0,0.1-1.1,0.1-1.1l1.5,0.3l0-0.5l0.1-0.9l0.1-0.8c0-0.3,0.1-0.5,0.1-0.7
						l0.2-0.9l-1.4-0.4l0-0.1l0.3-1c0.1-0.2,0.1-0.5,0.2-0.7c0-0.1,0.1-0.2,0.1-0.3l0,0l1.4,0.6l0.1-0.5c0,0,0,0,0-0.1l0.1-0.3
						c0-0.1,0.1-0.2,0.1-0.3c0.1-0.2,0.2-0.4,0.3-0.6l0.4-0.9c0-0.1,0.1-0.1,0.1-0.2c0,0,0-0.1,0-0.1l0.3-0.5l-1.3-0.7l0.3-0.5
						l0.3-0.5c0.1-0.1,0.1-0.2,0.2-0.3c0.1-0.2,0.3-0.4,0.4-0.6l0-0.1L135.8,140.2z"/>
					<path class="st27" d="M136.2,141.3l1.1-0.5l0.3-0.4l0-0.1c0.1-0.1,0.2-0.3,0.3-0.4c0.1-0.1,0.2-0.2,0.2-0.3
						c0.2-0.2,0.3-0.4,0.5-0.6c0.1-0.1,1.2-1.3,1.2-1.3l-1.1-0.9c0.1-0.1,0.2-0.2,0.3-0.3l0.3-0.3l0.6,0.6l1.3-0.2l0.7-0.6l0.4-0.3
						c0.3-0.2,0.6-0.4,0.8-0.5l1.4-0.9l-0.9-1.2l0.3-0.2c0.1-0.1,0.3-0.1,0.4-0.2l0.3,0.6l1.3,0.2l0.6-0.3c0.2-0.1,0.5-0.2,0.7-0.3
						c0.1-0.1,0.3-0.1,0.4-0.2c0.2-0.1,0.4-0.2,0.5-0.2l1.6-0.6l-0.6-1.3l0.4-0.1c0.2,0,0.3-0.1,0.4-0.1l0.4,1.1l0.8,0
						c0.1,0,0.1,0,0.7-0.1c0.1,0,0.2,0,0.3-0.1c0.1,0,0.3-0.1,0.4-0.1l0,0c0.6-0.1,1.1-0.2,1.7-0.3l1.1-0.2l-0.3-1.3
						c0.1,0,0.3,0,0.4,0c0.2,0,0.3,0,0.5,0l0.2,1.3l1.1-0.1c1-0.1,2-0.1,3,0l1.2,0.1l0-1.2c0,0,0.4,0,0.4,0c0.2,0,0.3,0,0.5,0.1
						l-0.1,1.2l1,0.2c1,0.2,2,0.4,2.9,0.8l1.2,0.4l0.3-1.4c0.1,0,0.3,0.1,0.4,0.1c0,0,0.5,0.2,0.5,0.2l-0.3,0.9L139.9,172
						c0,0-0.1-0.1-0.1-0.1l0,0c-0.2-0.2-0.3-0.4-0.4-0.5c-0.1-0.1-0.1-0.2-0.2-0.3l-0.2-0.3c0,0,0-0.1,0-0.1l-0.6-0.9l-0.9,0.6
						l-0.3,0.2c-0.1-0.1-0.2-0.3-0.3-0.4c-0.1-0.1-0.2-0.2-0.2-0.4c0,0,0,0,0,0l1.2-0.6l-0.6-1c-0.5-0.8-1-1.7-1.4-2.6l-0.4-1
						L134,165c-0.1-0.1-0.1-0.3-0.2-0.5c0-0.1-0.1-0.2-0.1-0.3c0,0,0,0,0,0l1.2-0.3l-0.3-1.1c-0.3-0.9-0.5-1.9-0.7-2.9l-0.2-1.1
						l-1.4,0.2c0-0.2-0.1-0.3-0.1-0.5c0-0.1,0-0.3-0.1-0.4l1.3-0.4l0-1.3c0-0.2,0-0.4,0-0.6c0-0.1,0-0.3,0-0.4c0-0.3,0-0.6,0-0.8
						l0-1.6l-1.4-0.1c0-0.2,0-0.3,0-0.5l0-0.4l1.6,0.3l0-1.2l0.1-0.8l0.1-0.8c0-0.3,0.1-0.5,0.1-0.7l0.3-1.5l-1.4-0.4l0.1-0.4
						c0-0.1,0.1-0.2,0.1-0.3l1.4,0.6l0.3-1.1c0,0,0,0,0,0c0,0,0.1-0.4,0.1-0.4c0-0.1,0.1-0.2,0.1-0.3c0.1-0.2,0.2-0.4,0.2-0.6
						l0.4-0.9c0-0.1,0-0.1,0.1-0.1c0,0,0.6-1.2,0.6-1.2l-1.3-0.7l0.2-0.4c0.1-0.1,0.1-0.2,0.2-0.3c0,0,0,0,0,0L136.2,141.3z"/>
					
						<radialGradient id="SVGID_5_" cx="-28.3488" cy="251.7164" r="18.1427" gradientTransform="matrix(-0.5973 0.8038 -0.8381 -0.6035 340.203 321.3303)" gradientUnits="userSpaceOnUse">
						<stop  offset="0" style="stop-color:#FFED73"/>
						<stop  offset="0.23" style="stop-color:#FFEA69"/>
						<stop  offset="0.6177" style="stop-color:#FFE24F"/>
						<stop  offset="0.9946" style="stop-color:#FFD82F"/>
					</radialGradient>
					<path class="st28" d="M140.3,171.6c-0.1-0.1-0.1-0.1-0.2-0.2c-0.1-0.1-0.1-0.2-0.2-0.3c0,0-0.2-0.3-0.2-0.3l-0.9-1.2l-0.1,0
						l-0.8-1.3c-0.5-0.8-1-1.7-1.4-2.6l-0.6-1.3l-0.4-1.4c-0.3-0.9-0.5-1.9-0.7-2.8l-0.3-1.5l-1.4,0.2c0,0,0,0,0-0.1l1.2-0.4l0-1.6
						l0,0c0-0.1,0-0.3,0-0.5c0-0.2,0-0.3,0-0.4c0-0.3,0-0.6,0-0.8l0-1.8l0.2,0l0-1.7l0.1-0.8l0.1-0.8c0-0.2,0.1-0.5,0.1-0.6l0.4-1.7
						l0.1,0l0.5-1.6c0-0.1,0.1-0.2,0.1-0.3c0-0.1,0.1-0.2,0.1-0.3c0.1-0.2,0.2-0.4,0.2-0.6l0.4-0.9c0,0,0-0.1,0-0.1l0.8-1.6
						l-0.6-0.3l1.3-0.6l0.3-0.5l0-0.1c0.1-0.1,0.2-0.2,0.3-0.4l0,0c0.1-0.1,0.2-0.2,0.2-0.3c0.1-0.2,0.3-0.4,0.5-0.5
						c0.1-0.1,1.5-1.6,1.5-1.6l-0.5-0.4l1.4-0.2l0.8-0.6l0.4-0.3c0.3-0.2,0.5-0.4,0.7-0.5l1.7-1.1l-0.5-0.7l1.5,0.3l0.7-0.3
						c0.2-0.1,0.5-0.2,0.7-0.3c0.1-0.1,0.3-0.1,0.4-0.2c0.2-0.1,0.4-0.2,0.5-0.2l2-0.7l-0.1-0.2l1,0c0.2,0,0.2,0,0.8-0.1
						c0.1,0,0.2,0,0.3-0.1c0.1,0,0.3-0.1,0.4-0.1l0,0c0.5-0.1,1.1-0.2,1.7-0.3l1.5-0.2l1.5-0.1c1-0.1,2-0.1,3,0l1.5,0.1l1.4,0.3
						c1,0.2,2,0.4,2.9,0.7l1.2,0.4l-11.2,15.7l-1.2,1.7l-2.6,3.6l-1.2,1.7L140.3,171.6z"/>
					<polygon class="st29" points="137.7,169.2 164.4,131.3 167.9,133 139.9,172 					"/>
				</g>
				<g>
					<g>
						<g>
							
								<linearGradient id="SVGID_6_" gradientUnits="userSpaceOnUse" x1="-26.0396" y1="243.2838" x2="-26.0396" y2="231.1043" gradientTransform="matrix(-0.5904 0.8071 -0.8071 -0.5904 320.002 306.1191)">
								<stop  offset="0" style="stop-color:#FFE99C"/>
								<stop  offset="0.7366" style="stop-color:#FFE760"/>
							</linearGradient>
							<path class="st30" d="M148.6,148.9c-0.9-0.5-8.6-4.8-9.2-5.2c-0.4-0.3-0.6-0.7-0.7-1.1c-0.1-0.4,0-0.8,0.3-1.1
								c0.3-0.4,0.8-0.6,1.3-0.6c0.4,0,0.7,0.1,1,0.3c0.6,0.4,7.1,6.4,7.8,7L148.6,148.9z"/>
							
								<linearGradient id="SVGID_7_" gradientUnits="userSpaceOnUse" x1="-26.0395" y1="242.8399" x2="-26.0395" y2="231.1586" gradientTransform="matrix(-0.5904 0.8071 -0.8071 -0.5904 320.002 306.1191)">
								<stop  offset="5.376360e-03" style="stop-color:#FAD103"/>
								<stop  offset="0.1594" style="stop-color:#FAD309"/>
								<stop  offset="0.3742" style="stop-color:#FBD71C"/>
								<stop  offset="0.6249" style="stop-color:#FCDF39"/>
								<stop  offset="0.9007" style="stop-color:#FEE962"/>
								<stop  offset="1" style="stop-color:#FFED73"/>
							</linearGradient>
							<path class="st31" d="M139.7,143.4c-0.6-0.4-0.7-1.1-0.3-1.6c0.4-0.5,1.1-0.6,1.7-0.2c0.6,0.4,7.8,7,7.8,7
								S140.2,143.8,139.7,143.4z"/>
						</g>
						<g>
							
								<linearGradient id="SVGID_8_" gradientUnits="userSpaceOnUse" x1="-29.8461" y1="242.9311" x2="-29.8461" y2="235.3737" gradientTransform="matrix(-0.5904 0.8071 -0.8071 -0.5904 320.002 306.1191)">
								<stop  offset="0" style="stop-color:#FFE99C"/>
								<stop  offset="0.7366" style="stop-color:#FFE760"/>
							</linearGradient>
							<path class="st32" d="M146.7,144.2c-1.2-0.8-5-3.5-5.3-3.8c-0.2-0.2-0.3-0.4-0.3-0.7c0-0.4,0.2-0.9,0.6-1.2
								c0.4-0.3,0.8-0.5,1.2-0.5c0.3,0,0.6,0.1,0.8,0.3c0.3,0.3,2.8,4.2,3.6,5.3L146.7,144.2z"/>
							
								<linearGradient id="SVGID_9_" gradientUnits="userSpaceOnUse" x1="-29.8454" y1="242.4866" x2="-29.8454" y2="235.5289" gradientTransform="matrix(-0.5904 0.8071 -0.8071 -0.5904 320.002 306.1191)">
								<stop  offset="5.376360e-03" style="stop-color:#FAD103"/>
								<stop  offset="0.1594" style="stop-color:#FAD309"/>
								<stop  offset="0.3742" style="stop-color:#FBD71C"/>
								<stop  offset="0.6249" style="stop-color:#FCDF39"/>
								<stop  offset="0.9007" style="stop-color:#FEE962"/>
								<stop  offset="1" style="stop-color:#FFED73"/>
							</linearGradient>
							<path class="st33" d="M141.7,140.1c-0.3-0.3-0.1-0.9,0.3-1.3c0.5-0.4,1.1-0.5,1.3-0.2c0.3,0.3,3.6,5.3,3.6,5.3
								S142,140.4,141.7,140.1z"/>
						</g>
						<g>
							
								<linearGradient id="SVGID_10_" gradientUnits="userSpaceOnUse" x1="-32.2784" y1="241.8931" x2="-32.2784" y2="230.3359" gradientTransform="matrix(-0.5904 0.8071 -0.8071 -0.5904 320.002 306.1191)">
								<stop  offset="0" style="stop-color:#FFE99C"/>
								<stop  offset="0.7366" style="stop-color:#FFE760"/>
							</linearGradient>
							<path class="st34" d="M151.3,146.1c-0.7-0.7-6.4-7.3-6.8-7.9c-0.3-0.4-0.4-0.8-0.3-1.3c0.1-0.4,0.3-0.8,0.7-1
								c0.3-0.2,0.5-0.3,0.9-0.3c0.6,0,1.1,0.3,1.4,0.7c0.4,0.6,4.4,8.3,4.9,9.1L151.3,146.1z"/>
							
								<linearGradient id="SVGID_11_" gradientUnits="userSpaceOnUse" x1="-32.2727" y1="241.4489" x2="-32.2727" y2="230.5311" gradientTransform="matrix(-0.5904 0.8071 -0.8071 -0.5904 320.002 306.1191)">
								<stop  offset="5.376360e-03" style="stop-color:#FAD103"/>
								<stop  offset="0.1594" style="stop-color:#FAD309"/>
								<stop  offset="0.3742" style="stop-color:#FBD71C"/>
								<stop  offset="0.6249" style="stop-color:#FCDF39"/>
								<stop  offset="0.9007" style="stop-color:#FEE962"/>
								<stop  offset="1" style="stop-color:#FFED73"/>
							</linearGradient>
							<path class="st35" d="M144.9,137.9c-0.4-0.6-0.3-1.3,0.3-1.6c0.5-0.3,1.3-0.2,1.6,0.4c0.4,0.6,4.9,9.1,4.9,9.1
								S145.2,138.5,144.9,137.9z"/>
						</g>
						<g>
							
								<linearGradient id="SVGID_12_" gradientUnits="userSpaceOnUse" x1="-35.8612" y1="240.2973" x2="-35.8612" y2="232.68" gradientTransform="matrix(-0.5904 0.8071 -0.8071 -0.5904 320.002 306.1191)">
								<stop  offset="0" style="stop-color:#FFE99C"/>
								<stop  offset="0.7366" style="stop-color:#FFE760"/>
							</linearGradient>
							<path class="st36" d="M151.5,141.7c-0.6-0.9-3.7-5.4-3.9-5.9c-0.1-0.3-0.1-0.6,0-0.8c0.2-0.4,0.5-0.7,1-0.9
								c0.2-0.1,0.5-0.2,0.8-0.2c0.6,0,1,0.3,1.2,0.7c0.2,0.4,1.5,5.7,1.8,6.8L151.5,141.7z"/>
							
								<linearGradient id="SVGID_13_" gradientUnits="userSpaceOnUse" x1="-35.8496" y1="239.853" x2="-35.8496" y2="232.9626" gradientTransform="matrix(-0.5904 0.8071 -0.8071 -0.5904 320.002 306.1191)">
								<stop  offset="5.376360e-03" style="stop-color:#FAD103"/>
								<stop  offset="0.1594" style="stop-color:#FAD309"/>
								<stop  offset="0.3742" style="stop-color:#FBD71C"/>
								<stop  offset="0.6249" style="stop-color:#FCDF39"/>
								<stop  offset="0.9007" style="stop-color:#FEE962"/>
								<stop  offset="1" style="stop-color:#FFED73"/>
							</linearGradient>
							<path class="st37" d="M147.9,135.6c-0.2-0.4,0.1-0.9,0.7-1.2c0.6-0.2,1.2-0.1,1.4,0.3c0.2,0.4,1.8,6.7,1.8,6.7
								S148.1,136,147.9,135.6z"/>
						</g>
						<g>
							
								<linearGradient id="SVGID_14_" gradientUnits="userSpaceOnUse" x1="-36.8874" y1="237.9802" x2="-36.8874" y2="227.2313" gradientTransform="matrix(-0.5904 0.8071 -0.8071 -0.5904 320.002 306.1191)">
								<stop  offset="0" style="stop-color:#FFE99C"/>
								<stop  offset="0.7366" style="stop-color:#FFE760"/>
							</linearGradient>
							<path class="st38" d="M155.2,145.6c-0.4-1-3.8-10-4-10.7c-0.1-0.5-0.1-1,0.2-1.4c0.2-0.4,0.5-0.6,0.9-0.7c0.1,0,0.2,0,0.3,0
								c0.8,0,1.4,0.6,1.7,1.4c0.2,0.7,1.6,10.1,1.7,11.2L155.2,145.6z"/>
							
								<linearGradient id="SVGID_15_" gradientUnits="userSpaceOnUse" x1="-36.8526" y1="237.5361" x2="-36.8526" y2="227.5481" gradientTransform="matrix(-0.5904 0.8071 -0.8071 -0.5904 320.002 306.1191)">
								<stop  offset="5.376360e-03" style="stop-color:#FAD103"/>
								<stop  offset="0.1594" style="stop-color:#FAD309"/>
								<stop  offset="0.3742" style="stop-color:#FBD71C"/>
								<stop  offset="0.6249" style="stop-color:#FCDF39"/>
								<stop  offset="0.9007" style="stop-color:#FEE962"/>
								<stop  offset="1" style="stop-color:#FFED73"/>
							</linearGradient>
							<path class="st39" d="M151.7,134.8c-0.2-0.7,0.2-1.4,0.8-1.5c0.6-0.1,1.3,0.3,1.5,1c0.2,0.7,1.7,11.2,1.7,11.2
								S151.9,135.5,151.7,134.8z"/>
						</g>
						<g>
							
								<linearGradient id="SVGID_16_" gradientUnits="userSpaceOnUse" x1="-40.8073" y1="235.3629" x2="-40.8073" y2="229.1083" gradientTransform="matrix(-0.5904 0.8071 -0.8071 -0.5904 320.002 306.1191)">
								<stop  offset="0" style="stop-color:#FFE99C"/>
								<stop  offset="0.7366" style="stop-color:#FFE760"/>
							</linearGradient>
							<path class="st40" d="M156.6,140.3c-0.3-1.1-1.6-6.3-1.7-6.8c0-0.3,0.1-0.6,0.3-0.8c0.3-0.3,0.7-0.5,1.2-0.5l0.1,0
								c0.8,0,1.5,0.5,1.6,1.1c0,0.5-0.5,5.8-0.7,6.9L156.6,140.3z"/>
							
								<linearGradient id="SVGID_17_" gradientUnits="userSpaceOnUse" x1="-40.7573" y1="234.9192" x2="-40.7573" y2="229.493" gradientTransform="matrix(-0.5904 0.8071 -0.8071 -0.5904 320.002 306.1191)">
								<stop  offset="5.376360e-03" style="stop-color:#FAD103"/>
								<stop  offset="0.1594" style="stop-color:#FAD309"/>
								<stop  offset="0.3742" style="stop-color:#FBD71C"/>
								<stop  offset="0.6249" style="stop-color:#FCDF39"/>
								<stop  offset="0.9007" style="stop-color:#FEE962"/>
								<stop  offset="1" style="stop-color:#FFED73"/>
							</linearGradient>
							<path class="st41" d="M155.4,133.5c0-0.4,0.5-0.8,1.1-0.9c0.6,0,1.2,0.3,1.2,0.7c0,0.4-0.7,6.8-0.7,6.8
								S155.4,133.9,155.4,133.5z"/>
						</g>
						<g>
							
								<linearGradient id="SVGID_18_" gradientUnits="userSpaceOnUse" x1="-41.5756" y1="232.1157" x2="-41.5756" y2="225.5675" gradientTransform="matrix(-0.5904 0.8071 -0.8071 -0.5904 320.002 306.1191)">
								<stop  offset="0" style="stop-color:#FFE99C"/>
								<stop  offset="0.7366" style="stop-color:#FFE760"/>
							</linearGradient>
							<path class="st42" d="M159,142.8c0-0.9-0.3-8.6-0.2-9.2c0.1-0.8,0.7-1.3,1.6-1.3c0.1,0,0.1,0,0.2,0c0.9,0.1,1.5,0.9,1.4,1.7
								c-0.1,0.6-1.9,8.1-2.1,8.9L159,142.8z"/>
							
								<linearGradient id="SVGID_19_" gradientUnits="userSpaceOnUse" x1="-41.4914" y1="231.6718" x2="-41.4914" y2="225.978" gradientTransform="matrix(-0.5904 0.8071 -0.8071 -0.5904 320.002 306.1191)">
								<stop  offset="5.376360e-03" style="stop-color:#FAD103"/>
								<stop  offset="0.1594" style="stop-color:#FAD309"/>
								<stop  offset="0.3742" style="stop-color:#FBD71C"/>
								<stop  offset="0.6249" style="stop-color:#FCDF39"/>
								<stop  offset="0.9007" style="stop-color:#FEE962"/>
								<stop  offset="1" style="stop-color:#FFED73"/>
							</linearGradient>
							<path class="st43" d="M159.3,133.7c0.1-0.6,0.6-1,1.3-0.9c0.6,0.1,1.1,0.6,1,1.2c-0.1,0.6-2.1,8.8-2.1,8.8
								S159.2,134.3,159.3,133.7z"/>
						</g>
						<g>
							
								<linearGradient id="SVGID_20_" gradientUnits="userSpaceOnUse" x1="-44.9919" y1="228.7345" x2="-44.9919" y2="225.0322" gradientTransform="matrix(-0.5904 0.8071 -0.8071 -0.5904 320.002 306.1191)">
								<stop  offset="0" style="stop-color:#FFE99C"/>
								<stop  offset="0.7366" style="stop-color:#FFE760"/>
							</linearGradient>
							<path class="st44" d="M162.5,138.9c0.1-1.8,0.2-4.9,0.3-5.2c0.1-0.4,0.5-0.6,1.1-0.6c0.2,0,0.5,0,0.7,0.1
								c0.9,0.3,1.4,0.9,1.3,1.4c-0.1,0.3-1.6,3-2.6,4.6L162.5,138.9z"/>
							
								<linearGradient id="SVGID_21_" gradientUnits="userSpaceOnUse" x1="-44.8924" y1="228.2896" x2="-44.8924" y2="225.4739" gradientTransform="matrix(-0.5904 0.8071 -0.8071 -0.5904 320.002 306.1191)">
								<stop  offset="5.376360e-03" style="stop-color:#FAD103"/>
								<stop  offset="0.1594" style="stop-color:#FAD309"/>
								<stop  offset="0.3742" style="stop-color:#FBD71C"/>
								<stop  offset="0.6249" style="stop-color:#FCDF39"/>
								<stop  offset="0.9007" style="stop-color:#FEE962"/>
								<stop  offset="1" style="stop-color:#FFED73"/>
							</linearGradient>
							<path class="st45" d="M163.2,133.8c0.1-0.3,0.7-0.4,1.3-0.2c0.6,0.2,1,0.6,1,0.9c-0.1,0.3-2.5,4.5-2.5,4.5
								S163.1,134.1,163.2,133.8z"/>
						</g>
						<g>
							
								<linearGradient id="SVGID_22_" gradientUnits="userSpaceOnUse" x1="-8.0502" y1="228.9951" x2="-8.0502" y2="224.7112" gradientTransform="matrix(-0.5904 0.8071 -0.8071 -0.5904 320.002 306.1191)">
								<stop  offset="0" style="stop-color:#FFE99C"/>
								<stop  offset="0.7366" style="stop-color:#FFE760"/>
							</linearGradient>
							<path class="st46" d="M140.1,168.9c-0.5,0-1-0.3-1.3-0.8c-0.3-0.4-0.4-0.9-0.3-1.3c0.1-0.3,0.2-0.5,0.4-0.7
								c0.4-0.2,4.8-2.1,6.1-2.6l0.5,0.7c-1,1-4.5,4.3-4.8,4.5C140.5,168.8,140.3,168.9,140.1,168.9z"/>
							
								<linearGradient id="SVGID_23_" gradientUnits="userSpaceOnUse" x1="-8.1565" y1="228.5517" x2="-8.1565" y2="225.1489" gradientTransform="matrix(-0.5904 0.8071 -0.8071 -0.5904 320.002 306.1191)">
								<stop  offset="5.376360e-03" style="stop-color:#FAD103"/>
								<stop  offset="0.1594" style="stop-color:#FAD309"/>
								<stop  offset="0.3742" style="stop-color:#FBD71C"/>
								<stop  offset="0.6249" style="stop-color:#FCDF39"/>
								<stop  offset="0.9007" style="stop-color:#FEE962"/>
								<stop  offset="1" style="stop-color:#FFED73"/>
							</linearGradient>
							<path class="st47" d="M139.1,166.4c-0.4,0.2-0.3,0.8,0,1.4c0.4,0.5,0.9,0.8,1.3,0.5c0.4-0.2,4.8-4.5,4.8-4.5
								S139.4,166.2,139.1,166.4z"/>
						</g>
						<g>
							
								<linearGradient id="SVGID_24_" gradientUnits="userSpaceOnUse" x1="-10.5885" y1="232.405" x2="-10.5885" y2="225.8577" gradientTransform="matrix(-0.5904 0.8071 -0.8071 -0.5904 320.002 306.1191)">
								<stop  offset="0" style="stop-color:#FFE99C"/>
								<stop  offset="0.7366" style="stop-color:#FFE760"/>
							</linearGradient>
							<path class="st48" d="M138.1,165.5c-0.6,0-1.2-0.4-1.5-1c-0.2-0.4-0.2-0.9-0.1-1.2c0.1-0.4,0.4-0.6,0.8-0.8
								c0.5-0.2,7.9-2.2,8.7-2.5l0.3,0.8c-0.7,0.4-7.2,4.3-7.8,4.6C138.5,165.4,138.3,165.5,138.1,165.5z"/>
							
								<linearGradient id="SVGID_25_" gradientUnits="userSpaceOnUse" x1="-10.6727" y1="231.9606" x2="-10.6727" y2="226.2672" gradientTransform="matrix(-0.5904 0.8071 -0.8071 -0.5904 320.002 306.1191)">
								<stop  offset="5.376360e-03" style="stop-color:#FAD103"/>
								<stop  offset="0.1594" style="stop-color:#FAD309"/>
								<stop  offset="0.3742" style="stop-color:#FBD71C"/>
								<stop  offset="0.6249" style="stop-color:#FCDF39"/>
								<stop  offset="0.9007" style="stop-color:#FEE962"/>
								<stop  offset="1" style="stop-color:#FFED73"/>
							</linearGradient>
							<path class="st49" d="M137.6,162.8c-0.5,0.2-0.7,0.9-0.5,1.5c0.3,0.6,0.9,0.9,1.4,0.6c0.5-0.2,7.7-4.5,7.7-4.5
								S138.1,162.6,137.6,162.8z"/>
						</g>
						<g>
							
								<linearGradient id="SVGID_26_" gradientUnits="userSpaceOnUse" x1="-11.2448" y1="235.6268" x2="-11.2448" y2="229.5646" gradientTransform="matrix(-0.5904 0.8071 -0.8071 -0.5904 320.002 306.1191)">
								<stop  offset="0" style="stop-color:#FFE99C"/>
								<stop  offset="0.7366" style="stop-color:#FFE760"/>
							</linearGradient>
							<path class="st50" d="M136.7,161.9c-0.6,0-1.1-0.5-1.3-1.3c-0.1-0.5-0.1-1,0.1-1.3c0.2-0.3,0.4-0.4,0.6-0.5
								c0.4-0.1,5.2-0.3,6.7-0.4l0.2,0.8c-1.3,0.6-5.7,2.5-6.1,2.6C136.8,161.9,136.7,161.9,136.7,161.9L136.7,161.9z"/>
							
								<linearGradient id="SVGID_27_" gradientUnits="userSpaceOnUse" x1="-11.2948" y1="235.1829" x2="-11.2948" y2="229.9498" gradientTransform="matrix(-0.5904 0.8071 -0.8071 -0.5904 320.002 306.1191)">
								<stop  offset="5.376360e-03" style="stop-color:#FAD103"/>
								<stop  offset="0.1594" style="stop-color:#FAD309"/>
								<stop  offset="0.3742" style="stop-color:#FBD71C"/>
								<stop  offset="0.6249" style="stop-color:#FCDF39"/>
								<stop  offset="0.9007" style="stop-color:#FEE962"/>
								<stop  offset="1" style="stop-color:#FFED73"/>
							</linearGradient>
							<path class="st51" d="M136.2,159.3c-0.4,0.1-0.6,0.7-0.5,1.3c0.2,0.6,0.6,1,1,0.9c0.4-0.1,6-2.6,6-2.6
								S136.6,159.2,136.2,159.3z"/>
						</g>
						<g>
							
								<linearGradient id="SVGID_28_" gradientUnits="userSpaceOnUse" x1="-14.4305" y1="238.2401" x2="-14.4305" y2="229.4516" gradientTransform="matrix(-0.5904 0.8071 -0.8071 -0.5904 320.002 306.1191)">
								<stop  offset="0" style="stop-color:#FFE99C"/>
								<stop  offset="0.7366" style="stop-color:#FFE760"/>
							</linearGradient>
							<path class="st52" d="M136.2,158.1c-0.8,0-1.5-0.7-1.5-1.5c0-0.4,0.1-0.9,0.4-1.2c0.3-0.3,0.6-0.5,1-0.5c0,0,0,0,0,0
								c1.1,0,8.8,0.6,9.1,0.6l0.1,0.9C144.3,156.6,136.9,158.1,136.2,158.1L136.2,158.1z"/>
							
								<linearGradient id="SVGID_29_" gradientUnits="userSpaceOnUse" x1="-14.4635" y1="237.7963" x2="-14.4635" y2="229.7776" gradientTransform="matrix(-0.5904 0.8071 -0.8071 -0.5904 320.002 306.1191)">
								<stop  offset="5.376360e-03" style="stop-color:#FAD103"/>
								<stop  offset="0.1594" style="stop-color:#FAD309"/>
								<stop  offset="0.3742" style="stop-color:#FBD71C"/>
								<stop  offset="0.6249" style="stop-color:#FCDF39"/>
								<stop  offset="0.9007" style="stop-color:#FEE962"/>
								<stop  offset="1" style="stop-color:#FFED73"/>
							</linearGradient>
							<path class="st53" d="M136.1,155.4c-0.6,0-1,0.6-1,1.2c0,0.6,0.6,1.1,1.1,1.1c0.6,0,8.9-1.7,8.9-1.7S136.6,155.4,136.1,155.4
								z"/>
						</g>
						<g>
							
								<linearGradient id="SVGID_30_" gradientUnits="userSpaceOnUse" x1="-16.259" y1="240.461" x2="-16.259" y2="232.9138" gradientTransform="matrix(-0.5904 0.8071 -0.8071 -0.5904 320.002 306.1191)">
								<stop  offset="0" style="stop-color:#FFE99C"/>
								<stop  offset="0.7366" style="stop-color:#FFE760"/>
							</linearGradient>
							<path class="st54" d="M135.8,154.3c-0.7-0.1-1.2-0.8-1.1-1.7c0.1-0.8,0.6-1.4,1.3-1.4l0.1,0c0.5,0.1,5.7,1.6,6.7,1.9
								l-0.1,0.9c-0.2,0-5.8,0.4-6.8,0.4C135.9,154.3,135.8,154.3,135.8,154.3z"/>
							
								<linearGradient id="SVGID_31_" gradientUnits="userSpaceOnUse" x1="-16.2722" y1="240.0173" x2="-16.2722" y2="233.1988" gradientTransform="matrix(-0.5904 0.8071 -0.8071 -0.5904 320.002 306.1191)">
								<stop  offset="5.376360e-03" style="stop-color:#FAD103"/>
								<stop  offset="0.1594" style="stop-color:#FAD309"/>
								<stop  offset="0.3742" style="stop-color:#FBD71C"/>
								<stop  offset="0.6249" style="stop-color:#FCDF39"/>
								<stop  offset="0.9007" style="stop-color:#FEE962"/>
								<stop  offset="1" style="stop-color:#FFED73"/>
							</linearGradient>
							<path class="st55" d="M136,151.6c-0.4,0-0.8,0.4-0.9,1c-0.1,0.6,0.2,1.2,0.7,1.2c0.4,0,6.9-0.4,6.9-0.4
								S136.5,151.7,136,151.6z"/>
						</g>
						<g>
							
								<linearGradient id="SVGID_32_" gradientUnits="userSpaceOnUse" x1="-19.6979" y1="242.0112" x2="-19.6979" y2="231.3804" gradientTransform="matrix(-0.5904 0.8071 -0.8071 -0.5904 320.002 306.1191)">
								<stop  offset="0" style="stop-color:#FFE99C"/>
								<stop  offset="0.7366" style="stop-color:#FFE760"/>
							</linearGradient>
							<path class="st56" d="M145.9,152.2c-0.9-0.1-8.8-1.4-9.4-1.6c-0.8-0.2-1.3-1.1-1.1-1.9c0.2-0.7,0.8-1.1,1.5-1.1
								c0.1,0,0.3,0,0.4,0.1c0.6,0.2,8,3.4,8.8,3.7L145.9,152.2z"/>
							
								<linearGradient id="SVGID_33_" gradientUnits="userSpaceOnUse" x1="-19.7029" y1="241.568" x2="-19.7029" y2="231.5837" gradientTransform="matrix(-0.5904 0.8071 -0.8071 -0.5904 320.002 306.1191)">
								<stop  offset="5.376360e-03" style="stop-color:#FAD103"/>
								<stop  offset="0.1594" style="stop-color:#FAD309"/>
								<stop  offset="0.3742" style="stop-color:#FBD71C"/>
								<stop  offset="0.6249" style="stop-color:#FCDF39"/>
								<stop  offset="0.9007" style="stop-color:#FEE962"/>
								<stop  offset="1" style="stop-color:#FFED73"/>
							</linearGradient>
							<path class="st57" d="M137.3,148c-0.6-0.2-1.2,0.2-1.4,0.8c-0.2,0.6,0.2,1.2,0.8,1.4c0.6,0.2,9.4,1.6,9.4,1.6
								S137.8,148.2,137.3,148z"/>
						</g>
						<g>
							
								<linearGradient id="SVGID_34_" gradientUnits="userSpaceOnUse" x1="-22.2465" y1="242.9867" x2="-22.2465" y2="235.2127" gradientTransform="matrix(-0.5904 0.8071 -0.8071 -0.5904 320.002 306.1191)">
								<stop  offset="0" style="stop-color:#FFE99C"/>
								<stop  offset="0.7366" style="stop-color:#FFE760"/>
							</linearGradient>
							<path class="st58" d="M143.7,148.7c-1.4-0.4-6-1.7-6.4-1.9c-0.3-0.2-0.5-0.5-0.6-0.9c0-0.3,0-0.7,0.2-1.1
								c0.3-0.6,0.8-1,1.3-1c0.2,0,0.3,0,0.4,0.1c0.4,0.2,4.2,3,5.4,3.9L143.7,148.7z"/>
							
								<linearGradient id="SVGID_35_" gradientUnits="userSpaceOnUse" x1="-22.2457" y1="242.5424" x2="-22.2457" y2="235.3703" gradientTransform="matrix(-0.5904 0.8071 -0.8071 -0.5904 320.002 306.1191)">
								<stop  offset="5.376360e-03" style="stop-color:#FAD103"/>
								<stop  offset="0.1594" style="stop-color:#FAD309"/>
								<stop  offset="0.3742" style="stop-color:#FBD71C"/>
								<stop  offset="0.6249" style="stop-color:#FCDF39"/>
								<stop  offset="0.9007" style="stop-color:#FEE962"/>
								<stop  offset="1" style="stop-color:#FFED73"/>
							</linearGradient>
							<path class="st59" d="M138.5,144.4c-0.4-0.2-0.9,0.1-1.2,0.7c-0.3,0.6-0.2,1.2,0.2,1.4c0.4,0.2,6.3,1.8,6.3,1.8
								S138.9,144.6,138.5,144.4z"/>
						</g>
					</g>
					<defs>
						<filter id="Adobe_OpacityMaskFilter" filterUnits="userSpaceOnUse" x="144.7" y="143.7" width="16" height="17">
							<feColorMatrix  type="matrix" values="1 0 0 0 0  0 1 0 0 0  0 0 1 0 0  0 0 0 1 0"/>
						</filter>
					</defs>
					<mask maskUnits="userSpaceOnUse" x="144.7" y="143.7" width="16" height="17" id="SVGID_36_">
						<g class="st60">
							<polygon class="st61" points="140.1,154.5 149.7,141.5 157.7,147.3 148.1,160.2 							"/>
						</g>
					</mask>
					<g class="st62">
						<g style="opacity:0.75;">
							
								<image style="overflow:visible;" width="16" height="17" xlink:href="841FC071.png"  transform="matrix(1 0 0 1 144.6695 143.6695)">
							</image>
						</g>
						<g>
							
								<linearGradient id="SVGID_37_" gradientUnits="userSpaceOnUse" x1="-25.9979" y1="230.512" x2="-25.9979" y2="224.6931" gradientTransform="matrix(-0.5904 0.8071 -0.8071 -0.5904 320.002 306.1191)">
								<stop  offset="0" style="stop-color:#FFE99C"/>
								<stop  offset="0.7366" style="stop-color:#FFE760"/>
							</linearGradient>
							<path class="st63" d="M151,156c-0.3-0.1-0.6-0.3-0.8-0.5c-1-0.7-1.6-1.7-1.8-2.9c-0.2-1.3,0.1-2.5,0.9-3.6
								c0.9-1.3,2.4-2,3.9-2c1,0,1.9,0.3,2.6,0.8c0.2,0.2,0.4,0.3,0.6,0.5l0.3,0.3L155,151l-0.4-0.3c-0.1-0.1-0.1-0.1-0.2-0.2
								c-0.3-0.2-0.7-0.4-1.1-0.4c-0.6,0-1.1,0.3-1.5,0.7c-0.3,0.4-0.4,0.8-0.3,1.3c0.1,0.5,0.3,0.9,0.8,1.2
								c0.1,0.1,0.2,0.1,0.3,0.2l0.5,0.2l-1.7,2.4L151,156z"/>
							
								<linearGradient id="SVGID_38_" gradientUnits="userSpaceOnUse" x1="-25.998" y1="230.0679" x2="-25.998" y2="225.1413" gradientTransform="matrix(-0.5904 0.8071 -0.8071 -0.5904 320.002 306.1191)">
								<stop  offset="5.376360e-03" style="stop-color:#FAD103"/>
								<stop  offset="0.1594" style="stop-color:#FAD309"/>
								<stop  offset="0.3742" style="stop-color:#FBD71C"/>
								<stop  offset="0.6249" style="stop-color:#FCDF39"/>
								<stop  offset="0.9007" style="stop-color:#FEE962"/>
								<stop  offset="1" style="stop-color:#FFED73"/>
							</linearGradient>
							<path class="st64" d="M151.1,155.6l1.2-1.7c-0.1-0.1-0.2-0.1-0.3-0.2c-1-0.7-1.3-2.2-0.5-3.1c0.7-1,2.2-1.2,3.2-0.4
								c0.1,0.1,0.2,0.1,0.2,0.2l1.2-1.7c-0.2-0.2-0.3-0.3-0.5-0.4c-1.8-1.3-4.5-0.9-5.9,1.1c-1.4,1.9-1.1,4.6,0.8,5.9
								C150.6,155.4,150.9,155.5,151.1,155.6z"/>
						</g>
					</g>
				</g>
			</g>
			<path class="st65" d="M149.2,146.6v111.3c0,5.2,4.2,9.3,9.3,9.3h42.9c5.1,0,9.3-4.2,9.3-9.3V146.6H149.2z M204.2,251.8
				c0,4.5-3.3,8.2-7.4,8.2h-33.8c-4.1,0-7.4-3.7-7.4-8.2v-98.1h48.6L204.2,251.8L204.2,251.8z"/>
			<g>
				<path class="st66" d="M152.2,257.9V146.6h-3v111.3c0,5.2,4.2,9.3,9.3,9.3h3C156.4,267.2,152.2,263,152.2,257.9z"/>
			</g>
		</g>
	</g>
</g>
</svg>
