<?xml version="1.0" encoding="utf-8"?>
<!-- Generator: Adobe Illustrator 23.0.0, SVG Export Plug-In . SVG Version: 6.00 Build 0)  -->
<svg version="1.1" id="Capa_1" xmlns="http://www.w3.org/2000/svg" xmlns:xlink="http://www.w3.org/1999/xlink" x="0px" y="0px"
	 viewBox="0 0 360 363" style="enable-background:new 0 0 360 363;" xml:space="preserve">
<style type="text/css">
	.st0{fill:#FFD084;}
	.st1{fill:none;stroke:#FFE1C0;stroke-width:0.7573;stroke-miterlimit:10;}
	.st2{fill:#FFD6A4;}
	.st3{fill:none;stroke:#FFE1C0;stroke-width:0.75;stroke-miterlimit:10;}
	.st4{fill:#FFE1C0;}
	.st5{fill:none;stroke:#FFD6A4;stroke-width:0.75;stroke-miterlimit:10;}
	.st6{fill:none;stroke:#FFEFE1;stroke-width:0.7478;stroke-miterlimit:10;}
	.st7{fill:#8F7CE5;}
	.st8{fill:#A6A6DD;}
	.st9{fill:#FFE5CC;}
	.st10{fill:none;stroke:#FFD6A4;stroke-miterlimit:10;}
	.st11{clip-path:url(#SVGID_3_);fill:#FFD8AE;}
	.st12{clip-path:url(#SVGID_5_);fill:#FFD8AE;}
	.st13{display:none;fill:#F2DADA;}
	.st14{fill:none;stroke:#FFFFFF;stroke-width:15.0332;stroke-linejoin:round;stroke-miterlimit:10;}
	.st15{clip-path:url(#SVGID_9_);fill:#508C1B;stroke:#FFFFFF;stroke-width:15.0332;stroke-linejoin:round;stroke-miterlimit:10;}
	.st16{clip-path:url(#SVGID_13_);fill:#4A8412;stroke:#FFFFFF;stroke-width:15.0332;stroke-linejoin:round;stroke-miterlimit:10;}
	.st17{fill:#5E9B23;stroke:#FFFFFF;stroke-width:15.0332;stroke-linejoin:round;stroke-miterlimit:10;}
	.st18{opacity:8.000000e-02;}
	.st19{fill:#FFFFFF;stroke:#FFFFFF;stroke-width:15.0332;stroke-linejoin:round;stroke-miterlimit:10;}
	.st20{fill:#5AA610;stroke:#FFFFFF;stroke-width:15.0332;stroke-linejoin:round;stroke-miterlimit:10;}
	.st21{clip-path:url(#SVGID_15_);fill:#529907;stroke:#FFFFFF;stroke-width:15.0332;stroke-linejoin:round;stroke-miterlimit:10;}
	.st22{fill:#6DAF27;stroke:#FFFFFF;stroke-width:15.0332;stroke-linejoin:round;stroke-miterlimit:10;}
	.st23{opacity:0.12;}
	.st24{clip-path:url(#SVGID_17_);fill:#508C1B;}
	.st25{clip-path:url(#SVGID_19_);fill:#4A8412;}
	.st26{fill:#5E9B23;}
	.st27{fill:#FFFFFF;}
	.st28{fill:#5AA610;}
	.st29{clip-path:url(#SVGID_21_);fill:#529907;}
	.st30{fill:#6DAF27;}
	.st31{clip-path:url(#SVGID_23_);}
	.st32{fill:#9C9CE2;}
	.st33{fill:#FFCC2C;}
	.st34{fill:#F7B0C3;}
	.st35{opacity:0.39;}
	.st36{opacity:0.5;}
	.st37{fill:#FCBC06;}
	.st38{opacity:0.4;fill:#FFFFFF;enable-background:new    ;}
</style>
<g id="fondo">
	<g>
		<g id="Rectángulo_556">
			<rect y="-0.1" class="st0" width="360" height="363.3"/>
			<rect x="0.5" y="0.4" class="st0" width="359" height="362.2"/>
		</g>
		<path class="st1" d="M228.1,258.3c0,0,43.9-35.1,59.7-104.9c15.8-69.8-12.4-91.7-12.4-91.7S254.9,35.3,242,72.3
			c0,0-11.1,37.2-24.4,18.6c0,0-4-5.6-6.5-13c-2.5-7.3-11-10.5-11-10.5s-21.4-7.3-59.4,34.8c0,0-30.9,35.9-25.5,83.1
			s10.5,56.8,10.5,56.8L228.1,258.3z"/>
		<path class="st2" d="M225.9,271.1c0,0,43.1-35.1,58.6-104.9s-12.2-91.7-12.2-91.7s-20.1-26.4-32.8,10.6c0,0-10.9,37.2-23.9,18.6
			c0,0-3.9-5.6-6.4-13c-2.5-7.3-10.8-10.5-10.8-10.5s-21-7.3-58.2,34.8c0,0-30.3,35.9-25,83.1s10.3,56.8,10.3,56.8L225.9,271.1z"/>
		<path class="st3" d="M114.9,245.6c0,0-61.2-54.4-49.7-80.4s30.9-7.5,30.9-7.5s25.7,22.6,47.9,63.9L114.9,245.6z"/>
		<path class="st2" d="M115.8,249.7c0,0-54.1-58.6-42.6-84.6s30.9-7.5,30.9-7.5s25.7,22.6,47.9,63.9L115.8,249.7z"/>
		<path class="st4" d="M206.4,265c0,0,41.3-44.5,60.9-102.7c0,0,11.1-34-2.3-60c0,0-8.2-25.8-29.3,14.8S206.3,129,206.3,129
			s-8.1-59.5-44-15.2s-22.9,140.1-22.9,140.1L206.4,265z"/>
		<path class="st5" d="M191.1,241.3c0,0,54.3-73,68-155.4"/>
		<path class="st6" d="M195.3,266c0,0,33.9-33.6,51.3-78.9c0,0,9.9-26.5,0.3-47.4c0,0-5.5-20.6-23.5,10.6s-23.4,8.4-23.4,8.4
			s-4.3-47.2-33.9-13.5s-22.8,109.6-22.8,109.6L195.3,266z"/>
		<g>
			
				<ellipse transform="matrix(1 -1.876229e-03 1.876229e-03 1 -0.526 0.338)" class="st7" cx="179.9" cy="280.5" rx="102.6" ry="21.4"/>
			<polygon class="st7" points="282.5,280.3 282.7,266.4 77.5,266.8 77.3,280.7 			"/>
			
				<ellipse transform="matrix(1 -1.876229e-03 1.876229e-03 1 -0.4999 0.3384)" class="st8" cx="180.1" cy="266.6" rx="102.6" ry="21.4"/>
		</g>
		<path class="st3" d="M239.7,220.4c0,0,41.8-19.1,39.9,9s-53,30.9-53,30.9s-15.5-0.3-14.5-10.3C213.2,240,218.5,230.9,239.7,220.4z
			"/>
		<path class="st9" d="M229.9,222.9c0,0,37.6-26.4,40.9,1.5c3.2,27.9-46.4,40.1-46.4,40.1S209,267,208.2,257
			C207.3,247,211,237.1,229.9,222.9z"/>
		<path class="st10" d="M208.2,257c0,0,44.4-19.6,65.3-41.4"/>
		<g>
			<g>
				<g>
					<g>
						<g>
							<defs>
								<path id="SVGID_2_" d="M229.9,222.9c0,0,37.6-26.4,40.9,1.5c3.2,27.9-46.4,40.1-46.4,40.1S209,267,208.2,257
									C207.3,247,211,237.1,229.9,222.9z"/>
							</defs>
							<clipPath id="SVGID_3_">
								<use xlink:href="#SVGID_2_"  style="overflow:visible;"/>
							</clipPath>
							<path class="st11" d="M240.9,211.5c0,0-27.3,46.6,4.8,50c21.5,2.3-22.9,11.5-22.9,11.5l-20.3-4.6l-1.3-29l20-22.9
								L240.9,211.5z"/>
						</g>
					</g>
				</g>
			</g>
		</g>
		<g>
			<path class="st9" d="M128.2,225.7c0,0-34.9-21.9-37.3,9.5c0,0,6.5,28.1,39.9,22.4C164.1,251.8,128.2,225.7,128.2,225.7z"/>
		</g>
		<path class="st10" d="M143,248.3c0,0-40.9-21-62.4-13.1"/>
		<g>
			<g>
				<g>
					<g>
						<g>
							<defs>
								<path id="SVGID_4_" d="M128.2,225.7c0,0-34.9-21.9-37.3,9.5c0,0,6.5,28.1,39.9,22.4C164.1,251.8,128.2,225.7,128.2,225.7z"
									/>
							</defs>
							<clipPath id="SVGID_5_">
								<use xlink:href="#SVGID_4_"  style="overflow:visible;"/>
							</clipPath>
							<path class="st12" d="M124.1,218.3h-4h-3.6c0,0,17.6,26,9.4,34.6c-8.2,8.6-9.4,6.7-9.4,6.7l19.6,1.8l15.9-7.2l1.2-14.3
								l-16-11.9L124.1,218.3z"/>
						</g>
					</g>
				</g>
			</g>
		</g>
		<path class="st3" d="M84.5,161.6c0,0,21.6,45.3,54.6,70.4"/>
		<path class="st3" d="M103.9,163.3c0,0-5.4,4-7,10.8"/>
		<path class="st3" d="M108.2,171.4c0,0-5.3,5.3-6,14.2"/>
		<path class="st3" d="M96.9,190.4c0,0-6.3-0.5-14.9,3.7"/>
		<path class="st3" d="M102.2,196.8c0,0-10.9,0.4-15.6,3.7"/>
		<path class="st2" d="M109.5,107.7c0.1,4-3.4,7.8-6.2,10.4c-1-2.4-1.9-5-2-7.6c-0.1-2,0.7-4,2.2-5.3c0.5-0.4,1-0.8,1.7-0.9
			c0.4-0.1,0.7-0.2,1.1-0.2C108,104.3,109.4,105.9,109.5,107.7z"/>
		<path class="st2" d="M81.9,123.8c-3.1,0.3-9-1.1-11.6-3.2c-2.3-1.7-2.3-2.2-3.4-4.9c-1-2.7,0.6-5.9,3.6-6.2
			c1.5-0.2,3.1,0.2,4.3,1.1C79.1,113.4,82.6,118.4,81.9,123.8z"/>
		<path class="st4" d="M105.6,142.4c-1.9,1.1-5-0.2-4.7-2.6c-0.2-2.8,4.1-3.8,5.6-1.6C107.5,139.5,106.9,141.6,105.6,142.4z"/>
		<path class="st4" d="M319.5,85.1c-2.6,1.4-6.6-0.3-6.3-3.5c-0.2-3.8,5.5-5.1,7.4-2.1C322,81.2,321.3,83.9,319.5,85.1z"/>
		<path class="st2" d="M328.9,297.3c-3.1,1.7-7.9-0.3-7.6-4.2c-0.3-4.5,6.6-6.1,8.9-2.5C331.9,292.6,331,295.9,328.9,297.3z"/>
		<path class="st4" d="M286.4,309c-2,1.1-5.2-0.2-5-2.8c-0.2-3,4.3-4,5.8-1.7C288.4,305.9,287.9,308.1,286.4,309z"/>
		<path class="st2" d="M61.9,244.7c-2.6,1.4-6.6-0.3-6.3-3.5c-0.2-3.8,5.5-5.1,7.4-2.1C64.4,240.8,63.7,243.5,61.9,244.7z"/>
		
			<ellipse transform="matrix(0.3506 -0.9365 0.9365 0.3506 -94.3859 226.7597)" class="st9" cx="116.3" cy="181.4" rx="2.7" ry="1.7"/>
		
			<ellipse transform="matrix(0.3506 -0.9365 0.9365 0.3506 -102.8036 234.9936)" class="st9" cx="118" cy="191.6" rx="2.7" ry="1.7"/>
		
			<ellipse transform="matrix(0.3506 -0.9365 0.9365 0.3506 -131.6409 232.946)" class="st0" cx="102.2" cy="211.4" rx="3" ry="1.8"/>
	</g>
</g>
<polygon class="st13" points="200,163.9 201.9,162 202.5,161.3 151.7,161.3 154.2,163.9 "/>
<g>
	<path class="st14" d="M197.9,144.8h-3l4.6-21l-3.9-0.7l-4.8,21.7h-11.9H167h-19c0,0-13.7,60.3-9.5,80.6c0,0.2,0,0.4,0,0.6
		c1,5.5,4.1,17.6,13,24.2c3.6,2.7,4.3,4.8,4.3,6.2c-0.1,1,0.8,1.9,1.8,1.9h15h0.3h15c1,0,1.9-0.8,1.8-1.9c-0.1-1.4,0.7-3.5,4.3-6.2
		c7.4-5.5,10.8-15,12.3-21.1C212.6,208.8,197.9,144.8,197.9,144.8z"/>
	<g>
		<g>
			<g>
				<g>
					<g>
						<g>
							<defs>
								<path id="SVGID_7_" d="M201.2,149.2c2.6-3,4-7,3.7-11.2c-0.7,0.6-1.3,1.2-1.9,2c0.1-2-0.4-4.2-1.3-6c0,0-1.3,1.7-2.3,2.3
									c0,0,0.1-0.1,0.2-0.1l0.1-0.1c-0.1-1.8-0.2-3.8-1.1-5.4c-0.4,0.4-0.8,0.8-1.2,1.4c0.2-0.3-0.9-4.2-1.8-5.4
									c0,0-0.9,2.3-1.6,2.8c-0.1-0.8-0.3-1.5-0.4-2.3c-0.1-0.8-0.2-1.6-0.8-2.1c0,0,0-0.2-0.1-0.3c-0.4,0.7-0.8,1.2-1.5,1.7
									c-1-1.1-2.3-2.4-3.6-3.5c-0.3,2-0.7,3.9-0.2,5.8c-0.9,0.4-1.9-0.2-2.8-0.5c-0.2,1.2,0.4,2.4,1.3,3.3
									c-0.4,0.5-0.6,0.7-1.2,0.8c-0.6,0.2-1.1,0.2-1.7,0.6c0.3,0.7,0.4,1,0.8,1.5c0.4,0.5,0.8,1,1.4,1.2c-0.8,0.8-1.8,1.2-2.7,0.9
									c0.5,1.2,1.4,2.3,2.5,2.8c-0.9,0.6-1.5,1.2-2.4,1.1c-0.1-0.1-0.3-0.1-0.4,0c0.4,1.4,1.9,2.3,3.2,2.4
									c-0.7,0.8-1.5,1.3-2.6,1.1c0.7,0.8,1.4,1.6,2.3,2.1c0.8,0.4,1.5,0.3,2.2,0.6c-0.6,0.4-1.6,0.8-2.3,0.8
									c1.9,2.3,4.9,3.9,7.8,4c1.7,0.2,3.2-0.1,4.9-0.3C198.2,151.4,200.5,149.8,201.2,149.2z"/>
							</defs>
							<clipPath id="SVGID_9_">
								<use xlink:href="#SVGID_7_"  style="overflow:visible;"/>
							</clipPath>
							<path class="st15" d="M201.2,149.2c2.6-3,4-7,3.7-11.2c-0.7,0.6-1.3,1.2-1.9,2c0.1-2-0.4-4.2-1.3-6c0,0-1.3,1.7-2.3,2.3
								c0,0,0.1-0.1,0.2-0.1l0.1-0.1c-0.1-1.8-0.2-3.8-1.1-5.4c-0.4,0.4-0.8,0.8-1.2,1.4c0.2-0.3-0.9-4.2-1.8-5.4
								c0,0-0.9,2.3-1.6,2.8c-0.1-0.8-0.3-1.5-0.4-2.3c-0.1-0.8-0.2-1.6-0.8-2.1c0,0,0-0.2-0.1-0.3c-0.4,0.7-0.8,1.2-1.5,1.7
								c-1-1.1-2.3-2.4-3.6-3.5c-0.3,2-0.7,3.9-0.2,5.8c-0.9,0.4-1.9-0.2-2.8-0.5c-0.2,1.2,0.4,2.4,1.3,3.3
								c-0.4,0.5-0.6,0.7-1.2,0.8c-0.6,0.2-1.1,0.2-1.7,0.6c0.3,0.7,0.4,1,0.8,1.5c0.4,0.5,0.8,1,1.4,1.2c-0.8,0.8-1.8,1.2-2.7,0.9
								c0.5,1.2,1.4,2.3,2.5,2.8c-0.9,0.6-1.5,1.2-2.4,1.1c-0.1-0.1-0.3-0.1-0.4,0c0.4,1.4,1.9,2.3,3.2,2.4
								c-0.7,0.8-1.5,1.3-2.6,1.1c0.7,0.8,1.4,1.6,2.3,2.1c0.8,0.4,1.5,0.3,2.2,0.6c-0.6,0.4-1.6,0.8-2.3,0.8c1.9,2.3,4.9,3.9,7.8,4
								c1.7,0.2,3.2-0.1,4.9-0.3C198.2,151.4,200.5,149.8,201.2,149.2z"/>
						</g>
						<g>
							<path id="SVGID_6_" class="st14" d="M201.2,149.2c2.6-3,4-7,3.7-11.2c-0.7,0.6-1.3,1.2-1.9,2c0.1-2-0.4-4.2-1.3-6
								c0,0-1.3,1.7-2.3,2.3c0,0,0.1-0.1,0.2-0.1l0.1-0.1c-0.1-1.8-0.2-3.8-1.1-5.4c-0.4,0.4-0.8,0.8-1.2,1.4
								c0.2-0.3-0.9-4.2-1.8-5.4c0,0-0.9,2.3-1.6,2.8c-0.1-0.8-0.3-1.5-0.4-2.3c-0.1-0.8-0.2-1.6-0.8-2.1c0,0,0-0.2-0.1-0.3
								c-0.4,0.7-0.8,1.2-1.5,1.7c-1-1.1-2.3-2.4-3.6-3.5c-0.3,2-0.7,3.9-0.2,5.8c-0.9,0.4-1.9-0.2-2.8-0.5
								c-0.2,1.2,0.4,2.4,1.3,3.3c-0.4,0.5-0.6,0.7-1.2,0.8c-0.6,0.2-1.1,0.2-1.7,0.6c0.3,0.7,0.4,1,0.8,1.5c0.4,0.5,0.8,1,1.4,1.2
								c-0.8,0.8-1.8,1.2-2.7,0.9c0.5,1.2,1.4,2.3,2.5,2.8c-0.9,0.6-1.5,1.2-2.4,1.1c-0.1-0.1-0.3-0.1-0.4,0
								c0.4,1.4,1.9,2.3,3.2,2.4c-0.7,0.8-1.5,1.3-2.6,1.1c0.7,0.8,1.4,1.6,2.3,2.1c0.8,0.4,1.5,0.3,2.2,0.6
								c-0.6,0.4-1.6,0.8-2.3,0.8c1.9,2.3,4.9,3.9,7.8,4c1.7,0.2,3.2-0.1,4.9-0.3C198.2,151.4,200.5,149.8,201.2,149.2z"/>
						</g>
					</g>
					<g>
						<g>
							<defs>
								<path id="SVGID_12_" d="M201.2,149.2c2.6-3,4-7,3.7-11.2c-0.7,0.6-1.3,1.2-1.9,2c0.1-2-0.4-4.2-1.3-6c0,0-1.3,1.7-2.3,2.3
									c0,0,0.1-0.1,0.2-0.1l0.1-0.1c-0.1-1.8-0.2-3.8-1.1-5.4c-0.4,0.4-0.8,0.8-1.2,1.4c0.2-0.3-0.9-4.2-1.8-5.4
									c0,0-0.9,2.3-1.6,2.8c-0.1-0.8-0.3-1.5-0.4-2.3c-0.1-0.8-0.2-1.6-0.8-2.1c0,0,0-0.2-0.1-0.3c-0.4,0.7-0.8,1.2-1.5,1.7
									c-1-1.1-2.3-2.4-3.6-3.5c-0.3,2-0.7,3.9-0.2,5.8c-0.9,0.4-1.9-0.2-2.8-0.5c-0.2,1.2,0.4,2.4,1.3,3.3
									c-0.4,0.5-0.6,0.7-1.2,0.8c-0.6,0.2-1.1,0.2-1.7,0.6c0.3,0.7,0.4,1,0.8,1.5c0.4,0.5,0.8,1,1.4,1.2c-0.8,0.8-1.8,1.2-2.7,0.9
									c0.5,1.2,1.4,2.3,2.5,2.8c-0.9,0.6-1.5,1.2-2.4,1.1c-0.1-0.1-0.3-0.1-0.4,0c0.4,1.4,1.9,2.3,3.2,2.4
									c-0.7,0.8-1.5,1.3-2.6,1.1c0.7,0.8,1.4,1.6,2.3,2.1c0.8,0.4,1.5,0.3,2.2,0.6c-0.6,0.4-1.6,0.8-2.3,0.8
									c1.9,2.3,4.9,3.9,7.8,4c1.7,0.2,3.2-0.1,4.9-0.3C198.2,151.4,200.5,149.8,201.2,149.2z"/>
							</defs>
							<clipPath id="SVGID_13_">
								<use xlink:href="#SVGID_12_"  style="overflow:visible;"/>
							</clipPath>
							<path class="st16" d="M188.2,118.9c3.9,1.3,6.7,4.4,9.2,7.5c2.8,3.5,5.4,7.2,7.4,11.2c1.7,3.6,2.4,7.6,0.2,11.2
								c-0.9,1.5-2.3,2.7-3.7,3.8c-0.2,0.1-0.4,0.3-0.8,0.5c-0.7,2.6-5.1,2.4-5.4-0.4c-1-10.4-4.1-24.3-9.8-33.2
								C184.2,117.2,185.6,118,188.2,118.9z"/>
						</g>
						<g>
							<path id="SVGID_8_" class="st14" d="M201.2,149.2c2.6-3,4-7,3.7-11.2c-0.7,0.6-1.3,1.2-1.9,2c0.1-2-0.4-4.2-1.3-6
								c0,0-1.3,1.7-2.3,2.3c0,0,0.1-0.1,0.2-0.1l0.1-0.1c-0.1-1.8-0.2-3.8-1.1-5.4c-0.4,0.4-0.8,0.8-1.2,1.4
								c0.2-0.3-0.9-4.2-1.8-5.4c0,0-0.9,2.3-1.6,2.8c-0.1-0.8-0.3-1.5-0.4-2.3c-0.1-0.8-0.2-1.6-0.8-2.1c0,0,0-0.2-0.1-0.3
								c-0.4,0.7-0.8,1.2-1.5,1.7c-1-1.1-2.3-2.4-3.6-3.5c-0.3,2-0.7,3.9-0.2,5.8c-0.9,0.4-1.9-0.2-2.8-0.5
								c-0.2,1.2,0.4,2.4,1.3,3.3c-0.4,0.5-0.6,0.7-1.2,0.8c-0.6,0.2-1.1,0.2-1.7,0.6c0.3,0.7,0.4,1,0.8,1.5c0.4,0.5,0.8,1,1.4,1.2
								c-0.8,0.8-1.8,1.2-2.7,0.9c0.5,1.2,1.4,2.3,2.5,2.8c-0.9,0.6-1.5,1.2-2.4,1.1c-0.1-0.1-0.3-0.1-0.4,0
								c0.4,1.4,1.9,2.3,3.2,2.4c-0.7,0.8-1.5,1.3-2.6,1.1c0.7,0.8,1.4,1.6,2.3,2.1c0.8,0.4,1.5,0.3,2.2,0.6
								c-0.6,0.4-1.6,0.8-2.3,0.8c1.9,2.3,4.9,3.9,7.8,4c1.7,0.2,3.2-0.1,4.9-0.3C198.2,151.4,200.5,149.8,201.2,149.2z"/>
						</g>
					</g>
				</g>
				<g>
					<path class="st17" d="M189.3,126.7c1.2,1.7,1.9,3.9,2.5,5.9c0.7,2.2,1.2,4.3,1.7,6.5c0.6,2.3,1,4.5,1.5,6.9
						c0.2,1.1,0.5,2.3,0.7,3.5c0.2,1,0.5,2,0.4,3.1c0,0.2-0.3,0.2-0.4,0c-0.8-1.9-0.9-4.1-1.3-6.1c-0.4-2.2-0.8-4.4-1.4-6.6
						c-1-4.4-2.3-8.7-3.9-13.1C189,126.6,189.2,126.5,189.3,126.7L189.3,126.7z"/>
				</g>
				<g>
					<path class="st17" d="M192.4,126.7c0.2,0.9,0.3,1.9,0.1,2.8c-0.2,0.8-0.3,2-0.9,2.5c-0.1,0.1-0.2,0-0.2-0.1
						c-0.1-0.8,0.4-1.6,0.5-2.3c0.3-1,0.5-2,0.5-3.1C192.2,126.6,192.3,126.6,192.4,126.7L192.4,126.7z"/>
				</g>
				<g>
					<path class="st17" d="M195.9,128.9c0.4,2.6-1.2,5.3-3.4,6.8c-0.4,0.3-0.9-0.4-0.5-0.7C194.2,133.5,195.2,131.5,195.9,128.9
						C195.7,128.8,195.9,128.7,195.9,128.9L195.9,128.9z"/>
				</g>
				<g>
					<path class="st17" d="M198.4,132.6c1.4,3-2.3,6.2-5,7c-0.4,0-0.5-0.5-0.2-0.6c1.4-0.6,2.6-1.1,3.5-2.2
						C197.8,135.4,198.5,134.1,198.4,132.6C198.3,132.5,198.4,132.4,198.4,132.6L198.4,132.6z"/>
				</g>
				<g>
					<path class="st17" d="M201.5,136.4c0.6,1.2-1.1,3.3-1.9,4c-1.2,1.4-2.9,2.8-4.7,3.4c-0.3,0.1-0.6-0.2-0.5-0.5
						c0.1-0.2,0.2-0.1,0.4-0.2c0.8-0.6,1.7-1,2.4-1.6C199.2,140.4,200.8,138.5,201.5,136.4C201.4,136.3,201.6,136.3,201.5,136.4
						L201.5,136.4z"/>
				</g>
				<g>
					<path class="st17" d="M204.2,140.4c0.3,1.7-1.8,3.9-2.9,4.9c-1.6,1.5-3.8,2.5-5.9,2.5c-0.3-0.1-0.7-0.4-0.4-0.7
						c0.1-0.1,0.1-0.2,0.2-0.1c0.3-0.2,0.6,0,0.6,0.2c-0.1,0.1,0,0.2,0,0.2c-0.1-0.2-0.3-0.3-0.5-0.5
						C199.5,146.8,202.5,143.7,204.2,140.4C204,140.3,204.1,140.3,204.2,140.4L204.2,140.4z"/>
				</g>
				<g>
					<path class="st17" d="M186.2,130c0.7,0,1.3,0.4,2.1,0.4s1.4-0.2,2-0.5c0.5-0.2,0.8,0.6,0.3,0.8c-1.6,0.8-3.1,0.5-4.5-0.5
						C186.1,130.1,186.2,130,186.2,130L186.2,130z"/>
				</g>
				<g>
					<path class="st17" d="M184.9,133.5c2.3,0.5,4.6,0.9,6.8-0.1c0.4-0.2,0.7,0.4,0.4,0.7c-0.9,0.9-2.4,1-3.7,0.9
						c-1.5-0.1-2.4-0.6-3.6-1.3C184.7,133.6,184.7,133.5,184.9,133.5L184.9,133.5z"/>
				</g>
				<g>
					<path class="st17" d="M184.6,137.3c0.8-0.1,1.4,0.2,2.3,0.2c1,0.1,2,0,3-0.2c0.4,0,0.8-0.2,1.1-0.2c0.3-0.1,0.5-0.1,0.8-0.2
						c0.2-0.1,0.4-0.2,0.6-0.3c0.3-0.1,0.4,0,0.5,0.2s0.1,0.5-0.1,0.7c-0.5,0.5-1.1,0.5-1.8,0.7c-0.9,0.2-1.8,0.4-2.9,0.4
						c-1.2,0.1-2.8,0.1-3.8-1C184.5,137.4,184.5,137.3,184.6,137.3L184.6,137.3z"/>
				</g>
				<g>
					<path class="st17" d="M184.5,141.3c1.4-0.1,2.9,0.3,4.4,0.3c0.8-0.1,1.5-0.2,2.3-0.3c0.8-0.1,1.5-0.7,2.3-0.9
						c0.3-0.1,0.4,0.1,0.4,0.4c-0.5,1.5-3.2,1.6-4.4,1.7C187.9,142.5,185.8,142.4,184.5,141.3C184.3,141.4,184.4,141.3,184.5,141.3
						L184.5,141.3z"/>
				</g>
				<g>
					<path class="st17" d="M185.4,145.1c1.5-0.2,2.9,0.5,4.4,0.6c1,0.1,1.8-0.1,2.8-0.4c0.6-0.2,1.1-0.6,1.7-0.7
						c0.2,0,0.3,0.2,0.3,0.3c-0.4,1.3-2.8,1.7-3.9,1.7c-1.6,0-3.9-0.5-5.3-1.3C185.2,145.1,185.2,145.1,185.4,145.1L185.4,145.1z"/>
				</g>
			</g>
			<g class="st18">
				<path class="st19" d="M189.5,131.9c0.9,1.1,1.3,2.8,1.5,4.2c0.2,1.4,0.4,2.9,0.7,4.3c0.3,1.2,0.8,2.5,1.4,3.7
					c0.8,1.5,2.3,2.6,2.1,4.5c-0.3,1.4-1.3,2.2-2.7,2.1c-2.1-0.1-3.2-2.4-4.1-4c-0.8-1.5-1.3-3.1-1.8-4.8c-0.4-1.6-0.6-3.1-0.8-4.7
					c-0.1-1.7-0.1-3.7,1.1-5.1C187.6,131.1,188.9,131.1,189.5,131.9L189.5,131.9z"/>
			</g>
		</g>
		<g>
			<g>
				<g>
					<path id="SVGID_1_" class="st20" d="M198,158.2c4.3,2.5,9.7,3.2,14.6,1.7c-0.9-0.8-1.8-1.3-2.9-1.7c2.4-0.4,5.1-1.5,7-3.1
						c0.1,0.1-2.3-1.1-3.2-2.2c-0.1,0.1,0.2,0.1,0.2,0.1c0.1,0.1,0.1,0.1,0.2,0c2.3-0.7,4.5-1.2,6.2-2.6c-0.7-0.4-1.2-0.8-1.9-1.1
						c0.3,0.1,5.1-2.3,6-3.6c0,0-3-0.6-3.9-1.3c0.9-0.4,1.8-0.7,2.6-1c0.8-0.4,2.5-1.7,2.6-1.7c-0.9-0.3-1.8-0.7-2.4-1.4
						c1.2-1.6,2.3-3.5,3.4-5.2c-2.3,0.1-4.9,0.2-7.1,1.2c-0.7-1-0.4-2.3-0.2-3.5c-1.5,0.2-2.9,1-3.7,2.4c-0.7-0.4-0.8-0.6-1.2-1.2
						s-0.6-1.4-1-2c-0.6,0.4-1.1,0.8-1.7,1.4s-1,1.2-1.1,2c-1-0.7-1.9-1.8-1.8-3.2c-1.3,0.8-2.4,2.3-2.9,3.8
						c-0.9-0.8-1.9-1.4-1.9-2.7c0-0.2,0-0.4-0.2-0.5c-1.6,0.8-2.3,2.7-2.3,4.5c-1.2-0.7-2.1-1.5-2-2.9c-0.8,0.9-1.6,2.2-2,3.4
						c-0.3,1,0,1.9-0.2,2.8c-0.8-0.7-1.2-1.7-1.6-2.6c-2.4,2.8-3.5,6.9-3.1,10.5c0.3,2,0.8,3.9,1.5,5.9
						C194.5,155.2,196.9,157.6,198,158.2z"/>
				</g>
				<g>
					<g>
						<defs>
							<path id="SVGID_14_" d="M198,158.2c4.3,2.5,9.7,3.2,14.6,1.7c-0.9-0.8-1.8-1.3-2.9-1.7c2.4-0.4,5.1-1.5,7-3.1
								c0.1,0.1-2.3-1.1-3.2-2.2c-0.1,0.1,0.2,0.1,0.2,0.1c0.1,0.1,0.1,0.1,0.2,0c2.3-0.7,4.5-1.2,6.2-2.6c-0.7-0.4-1.2-0.8-1.9-1.1
								c0.3,0.1,5.1-2.3,6-3.6c0,0-3-0.6-3.9-1.3c0.9-0.4,1.8-0.7,2.6-1c0.8-0.4,2.5-1.7,2.6-1.7c-0.9-0.3-1.8-0.7-2.4-1.4
								c1.2-1.6,2.3-3.5,3.4-5.2c-2.3,0.1-4.9,0.2-7.1,1.2c-0.7-1-0.4-2.3-0.2-3.5c-1.5,0.2-2.9,1-3.7,2.4c-0.7-0.4-0.8-0.6-1.2-1.2
								s-0.6-1.4-1-2c-0.6,0.4-1.1,0.8-1.7,1.4s-1,1.2-1.1,2c-1-0.7-1.9-1.8-1.8-3.2c-1.3,0.8-2.4,2.3-2.9,3.8
								c-0.9-0.8-1.9-1.4-1.9-2.7c0-0.2,0-0.4-0.2-0.5c-1.6,0.8-2.3,2.7-2.3,4.5c-1.2-0.7-2.1-1.5-2-2.9c-0.8,0.9-1.6,2.2-2,3.4
								c-0.3,1,0,1.9-0.2,2.8c-0.8-0.7-1.2-1.7-1.6-2.6c-2.4,2.8-3.5,6.9-3.1,10.5c0.3,2,0.8,3.9,1.5,5.9
								C194.5,155.2,196.9,157.6,198,158.2z"/>
						</defs>
						<clipPath id="SVGID_15_">
							<use xlink:href="#SVGID_14_"  style="overflow:visible;"/>
						</clipPath>
						<path class="st21" d="M228,133.9c0.4,0,0.8,0.2,0.8,0.7c0.6,0.8,0.8,1.8,0.1,2.7c-0.6,7-5.4,12.8-10.2,17.6
							c-1,1.1-2.3,2.2-3.5,2.9c-0.3,0.3-0.6,0.7-0.8,0.9c-1.1,1.4-2.4,2.8-4.2,3.5c-2.1,0.8-4.1,0.6-6.2,0.2
							c-2.2-0.4-4.2-0.9-6.1-1.8c-0.5-0.3-0.8-0.6-1-0.9c-0.2,0-0.2,0-0.3,0.1c-2.7,1-4.5-2.3-2.9-4.1c-0.1-1.1,0.5-2.1,1.6-2.6
							c0.2-0.8,0.8-1.4,1.5-1.7c10.1-5,21.1-9.9,30.3-16.5C227.8,134.3,227.4,133.5,228,133.9z"/>
					</g>
					<g>
						<path id="SVGID_10_" class="st14" d="M198,158.2c4.3,2.5,9.7,3.2,14.6,1.7c-0.9-0.8-1.8-1.3-2.9-1.7c2.4-0.4,5.1-1.5,7-3.1
							c0.1,0.1-2.3-1.1-3.2-2.2c-0.1,0.1,0.2,0.1,0.2,0.1c0.1,0.1,0.1,0.1,0.2,0c2.3-0.7,4.5-1.2,6.2-2.6c-0.7-0.4-1.2-0.8-1.9-1.1
							c0.3,0.1,5.1-2.3,6-3.6c0,0-3-0.6-3.9-1.3c0.9-0.4,1.8-0.7,2.6-1c0.8-0.4,2.5-1.7,2.6-1.7c-0.9-0.3-1.8-0.7-2.4-1.4
							c1.2-1.6,2.3-3.5,3.4-5.2c-2.3,0.1-4.9,0.2-7.1,1.2c-0.7-1-0.4-2.3-0.2-3.5c-1.5,0.2-2.9,1-3.7,2.4c-0.7-0.4-0.8-0.6-1.2-1.2
							s-0.6-1.4-1-2c-0.6,0.4-1.1,0.8-1.7,1.4s-1,1.2-1.1,2c-1-0.7-1.9-1.8-1.8-3.2c-1.3,0.8-2.4,2.3-2.9,3.8
							c-0.9-0.8-1.9-1.4-1.9-2.7c0-0.2,0-0.4-0.2-0.5c-1.6,0.8-2.3,2.7-2.3,4.5c-1.2-0.7-2.1-1.5-2-2.9c-0.8,0.9-1.6,2.2-2,3.4
							c-0.3,1,0,1.9-0.2,2.8c-0.8-0.7-1.2-1.7-1.6-2.6c-2.4,2.8-3.5,6.9-3.1,10.5c0.3,2,0.8,3.9,1.5,5.9
							C194.5,155.2,196.9,157.6,198,158.2z"/>
					</g>
				</g>
			</g>
			<g>
				<path class="st22" d="M223.6,137.3c-2.1,1.4-4.3,2.6-6.3,4c-2,1.3-3.9,2.6-6.2,3.8c-2.3,1.1-4.4,2.2-6.7,3.1
					c-2.2,1-4.8,2.3-7.1,2.6c-0.4,0-0.4-0.4-0.2-0.6c1.1-0.6,2.3-0.9,3.6-1.3c1.2-0.5,2.3-0.9,3.5-1.5c2.3-1,4.6-2.1,6.9-3.3
					c2.3-1.2,4.4-2.6,6.6-4c1.9-1.1,3.9-2.5,6-3.1C223.6,137.3,223.7,137.4,223.6,137.3L223.6,137.3z"/>
			</g>
			<g>
				<path class="st22" d="M223.4,141.9c-1,0.4-2.3,0.5-3.3,0.3c-0.8-0.1-2.3-0.5-2.8-1.1c0-0.2,0-0.4,0.2-0.4
					c0.8-0.1,1.8,0.6,2.6,0.8C221.2,141.8,222.3,141.7,223.4,141.9C223.5,141.8,223.4,141.9,223.4,141.9L223.4,141.9z"/>
			</g>
			<g>
				<path class="st22" d="M218.2,134.6c-0.5,1.8,0,3.6,0.8,5.2c0.2,0.5-0.5,0.7-0.8,0.2c-0.8-1.9-1.4-3.9-0.3-5.5
					C218,134.4,218.1,134.5,218.2,134.6L218.2,134.6z"/>
			</g>
			<g>
				<path class="st22" d="M221.4,146.6c-2.6,1.6-7.2-0.1-8.7-2.6c-0.2-0.4,0.4-0.7,0.6-0.4c1.2,1.1,2.2,2.1,3.7,2.6
					C218.5,146.6,219.9,146.4,221.4,146.6C221.5,146.5,221.5,146.5,221.4,146.6L221.4,146.6z"/>
			</g>
			<g>
				<path class="st22" d="M212.9,134.3c0.2,1.5,0.5,2.9,0.9,4.2c0.3,0.7,0.5,1.2,0.8,1.9c0.3,0.6,0.8,1.1,0.9,1.6
					c0.1,0.2,0,0.4-0.2,0.5c0,0,0,0-0.1,0.1c-0.3,0.3-0.8-0.1-0.7-0.5l0,0c0.1-0.2,0.4-0.3,0.6-0.2c0.1,0.1,0.1,0.1,0.1,0.2
					c-0.2-0.1-0.4-0.1-0.5-0.2c-0.6,0.3-0.9-0.9-1.2-1.3c-0.3-0.8-0.6-1.5-0.8-2.3c-0.4-1.4-0.4-2.6-0.3-4
					C212.6,134.2,212.8,134.2,212.9,134.3L212.9,134.3z"/>
			</g>
			<g>
				<path class="st22" d="M217.4,150.6c-4,1.3-7.5-0.8-10.1-3.9c-0.5-0.5,0.3-1,0.8-0.6c2.3,2.5,5.6,5.1,9.2,4.2
					C217.4,150.4,217.4,150.5,217.4,150.6L217.4,150.6z"/>
			</g>
			<g>
				<path class="st22" d="M208.3,134.7c-0.1,1.7-0.2,3.5,0.1,5.3s1.1,3.2,1.7,4.9c0.1,0.5-0.4,0.8-0.7,0.4c-1.2-1.3-1.7-3.5-2-5.2
					C207.3,138.3,207.4,136.3,208.3,134.7C208.1,134.6,208.2,134.6,208.3,134.7L208.3,134.7z"/>
			</g>
			<g>
				<path class="st22" d="M213.8,155.6c-2.1,1.3-4.7,0.7-6.7-0.7c-2.1-1.3-4.7-3.8-5.2-6.2c0-0.4,0.5-0.6,0.7-0.3
					c0.7,0.8,1,1.9,1.7,2.8c0.8,1,1.6,1.9,2.6,2.6c0.9,0.8,1.9,1.3,3.2,1.6C211.4,155.7,212.5,155.6,213.8,155.6
					C213.9,155.5,213.9,155.5,213.8,155.6L213.8,155.6z"/>
			</g>
			<g>
				<path class="st22" d="M203.9,136c-0.1,1.8-0.3,3.7,0.1,5.5c0.2,0.9,0.5,1.9,0.7,2.7c0.1,0.5,0.3,0.8,0.5,1.2
					c0.1,0.5,0.7,0.9,0.1,1.1c0.2-0.1,0.5,0,0.5,0.3l0,0c0,0.2-0.1,0.4-0.4,0.4l0,0c-0.2,0-0.4-0.1-0.5-0.3
					c-1.5-3.3-2.9-7.9-1.2-11.3C203.8,135.9,203.9,135.9,203.9,136L203.9,136z"/>
			</g>
			<g>
				<path class="st22" d="M199.5,138.1c0.1,1.8,0.2,3.5,0.5,5.3c0.4,1.8,1,3.8,1.8,5.4c0.2,0.5-0.6,0.8-0.8,0.3
					C199.6,145.8,198,141.6,199.5,138.1C199.4,138.1,199.5,138.1,199.5,138.1L199.5,138.1z"/>
			</g>
			<g>
				<path class="st22" d="M209.3,159.4c-5.3,0.6-9.2-4.9-9.8-9.6c0-0.4,0.5-0.5,0.6-0.2c1,2.3,1.6,4.6,3.4,6.6
					c1.5,1.6,3.6,2.8,5.7,3C209.4,159.2,209.5,159.4,209.3,159.4L209.3,159.4z"/>
			</g>
			<g class="st23">
				<path class="st19" d="M218.2,138.7c-1.2,1-2.4,1.8-3.9,2.4s-3.1,1.1-4.6,1.6c-2.8,1-5.2,2.4-7.1,4.5c-0.8,0.8-2.3,0.7-3.2,0.1
					c-0.9-0.8-1.3-2.1-0.8-3.2c0.6-1.6,2.2-2.6,3.6-3.6c1.6-0.9,3.2-1.9,4.9-2.5s3.4-1,5.2-1.2c0.8-0.1,1.8-0.1,2.7-0.1
					s1.9,0.2,2.7,0.1C218.4,136.9,219,138,218.2,138.7L218.2,138.7z"/>
			</g>
		</g>
	</g>
	<g>
		<g>
			<g>
				<g>
					<g>
						<g>
							<defs>
								<path id="SVGID_16_" d="M201.2,149.2c2.6-3,4-7,3.7-11.2c-0.7,0.6-1.3,1.2-1.9,2c0.1-2-0.4-4.2-1.3-6c0,0-1.3,1.7-2.3,2.3
									c0,0,0.1-0.1,0.2-0.1l0.1-0.1c-0.1-1.8-0.2-3.8-1.1-5.4c-0.4,0.4-0.8,0.8-1.2,1.4c0.2-0.3-0.9-4.2-1.8-5.4
									c0,0-0.9,2.3-1.6,2.8c-0.1-0.8-0.3-1.5-0.4-2.3c-0.1-0.8-0.2-1.6-0.8-2.1c0,0,0-0.2-0.1-0.3c-0.4,0.7-0.8,1.2-1.5,1.7
									c-1-1.1-2.3-2.4-3.6-3.5c-0.3,2-0.7,3.9-0.2,5.8c-0.9,0.4-1.9-0.2-2.8-0.5c-0.2,1.2,0.4,2.4,1.3,3.3
									c-0.4,0.5-0.6,0.7-1.2,0.8c-0.6,0.2-1.1,0.2-1.7,0.6c0.3,0.7,0.4,1,0.8,1.5c0.4,0.5,0.8,1,1.4,1.2c-0.8,0.8-1.8,1.2-2.7,0.9
									c0.5,1.2,1.4,2.3,2.5,2.8c-0.9,0.6-1.5,1.2-2.4,1.1c-0.1-0.1-0.3-0.1-0.4,0c0.4,1.4,1.9,2.3,3.2,2.4
									c-0.7,0.8-1.5,1.3-2.6,1.1c0.7,0.8,1.4,1.6,2.3,2.1c0.8,0.4,1.5,0.3,2.2,0.6c-0.6,0.4-1.6,0.8-2.3,0.8
									c1.9,2.3,4.9,3.9,7.8,4c1.7,0.2,3.2-0.1,4.9-0.3C198.2,151.4,200.5,149.8,201.2,149.2z"/>
							</defs>
							<clipPath id="SVGID_17_">
								<use xlink:href="#SVGID_16_"  style="overflow:visible;"/>
							</clipPath>
							<path class="st24" d="M201.2,149.2c2.6-3,4-7,3.7-11.2c-0.7,0.6-1.3,1.2-1.9,2c0.1-2-0.4-4.2-1.3-6c0,0-1.3,1.7-2.3,2.3
								c0,0,0.1-0.1,0.2-0.1l0.1-0.1c-0.1-1.8-0.2-3.8-1.1-5.4c-0.4,0.4-0.8,0.8-1.2,1.4c0.2-0.3-0.9-4.2-1.8-5.4
								c0,0-0.9,2.3-1.6,2.8c-0.1-0.8-0.3-1.5-0.4-2.3c-0.1-0.8-0.2-1.6-0.8-2.1c0,0,0-0.2-0.1-0.3c-0.4,0.7-0.8,1.2-1.5,1.7
								c-1-1.1-2.3-2.4-3.6-3.5c-0.3,2-0.7,3.9-0.2,5.8c-0.9,0.4-1.9-0.2-2.8-0.5c-0.2,1.2,0.4,2.4,1.3,3.3
								c-0.4,0.5-0.6,0.7-1.2,0.8c-0.6,0.2-1.1,0.2-1.7,0.6c0.3,0.7,0.4,1,0.8,1.5c0.4,0.5,0.8,1,1.4,1.2c-0.8,0.8-1.8,1.2-2.7,0.9
								c0.5,1.2,1.4,2.3,2.5,2.8c-0.9,0.6-1.5,1.2-2.4,1.1c-0.1-0.1-0.3-0.1-0.4,0c0.4,1.4,1.9,2.3,3.2,2.4
								c-0.7,0.8-1.5,1.3-2.6,1.1c0.7,0.8,1.4,1.6,2.3,2.1c0.8,0.4,1.5,0.3,2.2,0.6c-0.6,0.4-1.6,0.8-2.3,0.8c1.9,2.3,4.9,3.9,7.8,4
								c1.7,0.2,3.2-0.1,4.9-0.3C198.2,151.4,200.5,149.8,201.2,149.2z"/>
						</g>
					</g>
					<g>
						<g>
							<defs>
								<path id="SVGID_18_" d="M201.2,149.2c2.6-3,4-7,3.7-11.2c-0.7,0.6-1.3,1.2-1.9,2c0.1-2-0.4-4.2-1.3-6c0,0-1.3,1.7-2.3,2.3
									c0,0,0.1-0.1,0.2-0.1l0.1-0.1c-0.1-1.8-0.2-3.8-1.1-5.4c-0.4,0.4-0.8,0.8-1.2,1.4c0.2-0.3-0.9-4.2-1.8-5.4
									c0,0-0.9,2.3-1.6,2.8c-0.1-0.8-0.3-1.5-0.4-2.3c-0.1-0.8-0.2-1.6-0.8-2.1c0,0,0-0.2-0.1-0.3c-0.4,0.7-0.8,1.2-1.5,1.7
									c-1-1.1-2.3-2.4-3.6-3.5c-0.3,2-0.7,3.9-0.2,5.8c-0.9,0.4-1.9-0.2-2.8-0.5c-0.2,1.2,0.4,2.4,1.3,3.3
									c-0.4,0.5-0.6,0.7-1.2,0.8c-0.6,0.2-1.1,0.2-1.7,0.6c0.3,0.7,0.4,1,0.8,1.5c0.4,0.5,0.8,1,1.4,1.2c-0.8,0.8-1.8,1.2-2.7,0.9
									c0.5,1.2,1.4,2.3,2.5,2.8c-0.9,0.6-1.5,1.2-2.4,1.1c-0.1-0.1-0.3-0.1-0.4,0c0.4,1.4,1.9,2.3,3.2,2.4
									c-0.7,0.8-1.5,1.3-2.6,1.1c0.7,0.8,1.4,1.6,2.3,2.1c0.8,0.4,1.5,0.3,2.2,0.6c-0.6,0.4-1.6,0.8-2.3,0.8
									c1.9,2.3,4.9,3.9,7.8,4c1.7,0.2,3.2-0.1,4.9-0.3C198.2,151.4,200.5,149.8,201.2,149.2z"/>
							</defs>
							<clipPath id="SVGID_19_">
								<use xlink:href="#SVGID_18_"  style="overflow:visible;"/>
							</clipPath>
							<path class="st25" d="M188.2,118.9c3.9,1.3,6.7,4.4,9.2,7.5c2.8,3.5,5.4,7.2,7.4,11.2c1.7,3.6,2.4,7.6,0.2,11.2
								c-0.9,1.5-2.3,2.7-3.7,3.8c-0.2,0.1-0.4,0.3-0.8,0.5c-0.7,2.6-5.1,2.4-5.4-0.4c-1-10.4-4.1-24.3-9.8-33.2
								C184.2,117.2,185.6,118,188.2,118.9z"/>
						</g>
					</g>
				</g>
				<g>
					<path class="st26" d="M189.3,126.7c1.2,1.7,1.9,3.9,2.5,5.9c0.7,2.2,1.2,4.3,1.7,6.5c0.6,2.3,1,4.5,1.5,6.9
						c0.2,1.1,0.5,2.3,0.7,3.5c0.2,1,0.5,2,0.4,3.1c0,0.2-0.3,0.2-0.4,0c-0.8-1.9-0.9-4.1-1.3-6.1c-0.4-2.2-0.8-4.4-1.4-6.6
						c-1-4.4-2.3-8.7-3.9-13.1C189,126.6,189.2,126.5,189.3,126.7L189.3,126.7z"/>
				</g>
				<g>
					<path class="st26" d="M192.4,126.7c0.2,0.9,0.3,1.9,0.1,2.8c-0.2,0.8-0.3,2-0.9,2.5c-0.1,0.1-0.2,0-0.2-0.1
						c-0.1-0.8,0.4-1.6,0.5-2.3c0.3-1,0.5-2,0.5-3.1C192.2,126.6,192.3,126.6,192.4,126.7L192.4,126.7z"/>
				</g>
				<g>
					<path class="st26" d="M195.9,128.9c0.4,2.6-1.2,5.3-3.4,6.8c-0.4,0.3-0.9-0.4-0.5-0.7C194.2,133.5,195.2,131.5,195.9,128.9
						C195.7,128.8,195.9,128.7,195.9,128.9L195.9,128.9z"/>
				</g>
				<g>
					<path class="st26" d="M198.4,132.6c1.4,3-2.3,6.2-5,7c-0.4,0-0.5-0.5-0.2-0.6c1.4-0.6,2.6-1.1,3.5-2.2
						C197.8,135.4,198.5,134.1,198.4,132.6C198.3,132.5,198.4,132.4,198.4,132.6L198.4,132.6z"/>
				</g>
				<g>
					<path class="st26" d="M201.5,136.4c0.6,1.2-1.1,3.3-1.9,4c-1.2,1.4-2.9,2.8-4.7,3.4c-0.3,0.1-0.6-0.2-0.5-0.5
						c0.1-0.2,0.2-0.1,0.4-0.2c0.8-0.6,1.7-1,2.4-1.6C199.2,140.4,200.8,138.5,201.5,136.4C201.4,136.3,201.6,136.3,201.5,136.4
						L201.5,136.4z"/>
				</g>
				<g>
					<path class="st26" d="M204.2,140.4c0.3,1.7-1.8,3.9-2.9,4.9c-1.6,1.5-3.8,2.5-5.9,2.5c-0.3-0.1-0.7-0.4-0.4-0.7
						c0.1-0.1,0.1-0.2,0.2-0.1c0.3-0.2,0.6,0,0.6,0.2c-0.1,0.1,0,0.2,0,0.2c-0.1-0.2-0.3-0.3-0.5-0.5
						C199.5,146.8,202.5,143.7,204.2,140.4C204,140.3,204.1,140.3,204.2,140.4L204.2,140.4z"/>
				</g>
				<g>
					<path class="st26" d="M186.2,130c0.7,0,1.3,0.4,2.1,0.4s1.4-0.2,2-0.5c0.5-0.2,0.8,0.6,0.3,0.8c-1.6,0.8-3.1,0.5-4.5-0.5
						C186.1,130.1,186.2,130,186.2,130L186.2,130z"/>
				</g>
				<g>
					<path class="st26" d="M184.9,133.5c2.3,0.5,4.6,0.9,6.8-0.1c0.4-0.2,0.7,0.4,0.4,0.7c-0.9,0.9-2.4,1-3.7,0.9
						c-1.5-0.1-2.4-0.6-3.6-1.3C184.7,133.6,184.7,133.5,184.9,133.5L184.9,133.5z"/>
				</g>
				<g>
					<path class="st26" d="M184.6,137.3c0.8-0.1,1.4,0.2,2.3,0.2c1,0.1,2,0,3-0.2c0.4,0,0.8-0.2,1.1-0.2c0.3-0.1,0.5-0.1,0.8-0.2
						c0.2-0.1,0.4-0.2,0.6-0.3c0.3-0.1,0.4,0,0.5,0.2s0.1,0.5-0.1,0.7c-0.5,0.5-1.1,0.5-1.8,0.7c-0.9,0.2-1.8,0.4-2.9,0.4
						c-1.2,0.1-2.8,0.1-3.8-1C184.5,137.4,184.5,137.3,184.6,137.3L184.6,137.3z"/>
				</g>
				<g>
					<path class="st26" d="M184.5,141.3c1.4-0.1,2.9,0.3,4.4,0.3c0.8-0.1,1.5-0.2,2.3-0.3c0.8-0.1,1.5-0.7,2.3-0.9
						c0.3-0.1,0.4,0.1,0.4,0.4c-0.5,1.5-3.2,1.6-4.4,1.7C187.9,142.5,185.8,142.4,184.5,141.3C184.3,141.4,184.4,141.3,184.5,141.3
						L184.5,141.3z"/>
				</g>
				<g>
					<path class="st26" d="M185.4,145.1c1.5-0.2,2.9,0.5,4.4,0.6c1,0.1,1.8-0.1,2.8-0.4c0.6-0.2,1.1-0.6,1.7-0.7
						c0.2,0,0.3,0.2,0.3,0.3c-0.4,1.3-2.8,1.7-3.9,1.7c-1.6,0-3.9-0.5-5.3-1.3C185.2,145.1,185.2,145.1,185.4,145.1L185.4,145.1z"/>
				</g>
			</g>
			<g class="st18">
				<path class="st27" d="M189.5,131.9c0.9,1.1,1.3,2.8,1.5,4.2c0.2,1.4,0.4,2.9,0.7,4.3c0.3,1.2,0.8,2.5,1.4,3.7
					c0.8,1.5,2.3,2.6,2.1,4.5c-0.3,1.4-1.3,2.2-2.7,2.1c-2.1-0.1-3.2-2.4-4.1-4c-0.8-1.5-1.3-3.1-1.8-4.8c-0.4-1.6-0.6-3.1-0.8-4.7
					c-0.1-1.7-0.1-3.7,1.1-5.1C187.6,131.1,188.9,131.1,189.5,131.9L189.5,131.9z"/>
			</g>
		</g>
		<g>
			<g>
				<g>
					<path id="SVGID_11_" class="st28" d="M198,158.2c4.3,2.5,9.7,3.2,14.6,1.7c-0.9-0.8-1.8-1.3-2.9-1.7c2.4-0.4,5.1-1.5,7-3.1
						c0.1,0.1-2.3-1.1-3.2-2.2c-0.1,0.1,0.2,0.1,0.2,0.1c0.1,0.1,0.1,0.1,0.2,0c2.3-0.7,4.5-1.2,6.2-2.6c-0.7-0.4-1.2-0.8-1.9-1.1
						c0.3,0.1,5.1-2.3,6-3.6c0,0-3-0.6-3.9-1.3c0.9-0.4,1.8-0.7,2.6-1c0.8-0.4,2.5-1.7,2.6-1.7c-0.9-0.3-1.8-0.7-2.4-1.4
						c1.2-1.6,2.3-3.5,3.4-5.2c-2.3,0.1-4.9,0.2-7.1,1.2c-0.7-1-0.4-2.3-0.2-3.5c-1.5,0.2-2.9,1-3.7,2.4c-0.7-0.4-0.8-0.6-1.2-1.2
						s-0.6-1.4-1-2c-0.6,0.4-1.1,0.8-1.7,1.4s-1,1.2-1.1,2c-1-0.7-1.9-1.8-1.8-3.2c-1.3,0.8-2.4,2.3-2.9,3.8
						c-0.9-0.8-1.9-1.4-1.9-2.7c0-0.2,0-0.4-0.2-0.5c-1.6,0.8-2.3,2.7-2.3,4.5c-1.2-0.7-2.1-1.5-2-2.9c-0.8,0.9-1.6,2.2-2,3.4
						c-0.3,1,0,1.9-0.2,2.8c-0.8-0.7-1.2-1.7-1.6-2.6c-2.4,2.8-3.5,6.9-3.1,10.5c0.3,2,0.8,3.9,1.5,5.9
						C194.5,155.2,196.9,157.6,198,158.2z"/>
				</g>
				<g>
					<g>
						<defs>
							<path id="SVGID_20_" d="M198,158.2c4.3,2.5,9.7,3.2,14.6,1.7c-0.9-0.8-1.8-1.3-2.9-1.7c2.4-0.4,5.1-1.5,7-3.1
								c0.1,0.1-2.3-1.1-3.2-2.2c-0.1,0.1,0.2,0.1,0.2,0.1c0.1,0.1,0.1,0.1,0.2,0c2.3-0.7,4.5-1.2,6.2-2.6c-0.7-0.4-1.2-0.8-1.9-1.1
								c0.3,0.1,5.1-2.3,6-3.6c0,0-3-0.6-3.9-1.3c0.9-0.4,1.8-0.7,2.6-1c0.8-0.4,2.5-1.7,2.6-1.7c-0.9-0.3-1.8-0.7-2.4-1.4
								c1.2-1.6,2.3-3.5,3.4-5.2c-2.3,0.1-4.9,0.2-7.1,1.2c-0.7-1-0.4-2.3-0.2-3.5c-1.5,0.2-2.9,1-3.7,2.4c-0.7-0.4-0.8-0.6-1.2-1.2
								s-0.6-1.4-1-2c-0.6,0.4-1.1,0.8-1.7,1.4s-1,1.2-1.1,2c-1-0.7-1.9-1.8-1.8-3.2c-1.3,0.8-2.4,2.3-2.9,3.8
								c-0.9-0.8-1.9-1.4-1.9-2.7c0-0.2,0-0.4-0.2-0.5c-1.6,0.8-2.3,2.7-2.3,4.5c-1.2-0.7-2.1-1.5-2-2.9c-0.8,0.9-1.6,2.2-2,3.4
								c-0.3,1,0,1.9-0.2,2.8c-0.8-0.7-1.2-1.7-1.6-2.6c-2.4,2.8-3.5,6.9-3.1,10.5c0.3,2,0.8,3.9,1.5,5.9
								C194.5,155.2,196.9,157.6,198,158.2z"/>
						</defs>
						<clipPath id="SVGID_21_">
							<use xlink:href="#SVGID_20_"  style="overflow:visible;"/>
						</clipPath>
						<path class="st29" d="M228,133.9c0.4,0,0.8,0.2,0.8,0.7c0.6,0.8,0.8,1.8,0.1,2.7c-0.6,7-5.4,12.8-10.2,17.6
							c-1,1.1-2.3,2.2-3.5,2.9c-0.3,0.3-0.6,0.7-0.8,0.9c-1.1,1.4-2.4,2.8-4.2,3.5c-2.1,0.8-4.1,0.6-6.2,0.2
							c-2.2-0.4-4.2-0.9-6.1-1.8c-0.5-0.3-0.8-0.6-1-0.9c-0.2,0-0.2,0-0.3,0.1c-2.7,1-4.5-2.3-2.9-4.1c-0.1-1.1,0.5-2.1,1.6-2.6
							c0.2-0.8,0.8-1.4,1.5-1.7c10.1-5,21.1-9.9,30.3-16.5C227.8,134.3,227.4,133.5,228,133.9z"/>
					</g>
				</g>
			</g>
			<g>
				<path class="st30" d="M223.6,137.3c-2.1,1.4-4.3,2.6-6.3,4c-2,1.3-3.9,2.6-6.2,3.8c-2.3,1.1-4.4,2.2-6.7,3.1
					c-2.2,1-4.8,2.3-7.1,2.6c-0.4,0-0.4-0.4-0.2-0.6c1.1-0.6,2.3-0.9,3.6-1.3c1.2-0.5,2.3-0.9,3.5-1.5c2.3-1,4.6-2.1,6.9-3.3
					c2.3-1.2,4.4-2.6,6.6-4c1.9-1.1,3.9-2.5,6-3.1C223.6,137.3,223.7,137.4,223.6,137.3L223.6,137.3z"/>
			</g>
			<g>
				<path class="st30" d="M223.4,141.9c-1,0.4-2.3,0.5-3.3,0.3c-0.8-0.1-2.3-0.5-2.8-1.1c0-0.2,0-0.4,0.2-0.4
					c0.8-0.1,1.8,0.6,2.6,0.8C221.2,141.8,222.3,141.7,223.4,141.9C223.5,141.8,223.4,141.9,223.4,141.9L223.4,141.9z"/>
			</g>
			<g>
				<path class="st30" d="M218.2,134.6c-0.5,1.8,0,3.6,0.8,5.2c0.2,0.5-0.5,0.7-0.8,0.2c-0.8-1.9-1.4-3.9-0.3-5.5
					C218,134.4,218.1,134.5,218.2,134.6L218.2,134.6z"/>
			</g>
			<g>
				<path class="st30" d="M221.4,146.6c-2.6,1.6-7.2-0.1-8.7-2.6c-0.2-0.4,0.4-0.7,0.6-0.4c1.2,1.1,2.2,2.1,3.7,2.6
					C218.5,146.6,219.9,146.4,221.4,146.6C221.5,146.5,221.5,146.5,221.4,146.6L221.4,146.6z"/>
			</g>
			<g>
				<path class="st30" d="M212.9,134.3c0.2,1.5,0.5,2.9,0.9,4.2c0.3,0.7,0.5,1.2,0.8,1.9c0.3,0.6,0.8,1.1,0.9,1.6
					c0.1,0.2,0,0.4-0.2,0.5c0,0,0,0-0.1,0.1c-0.3,0.3-0.8-0.1-0.7-0.5l0,0c0.1-0.2,0.4-0.3,0.6-0.2c0.1,0.1,0.1,0.1,0.1,0.2
					c-0.2-0.1-0.4-0.1-0.5-0.2c-0.6,0.3-0.9-0.9-1.2-1.3c-0.3-0.8-0.6-1.5-0.8-2.3c-0.4-1.4-0.4-2.6-0.3-4
					C212.6,134.2,212.8,134.2,212.9,134.3L212.9,134.3z"/>
			</g>
			<g>
				<path class="st30" d="M217.4,150.6c-4,1.3-7.5-0.8-10.1-3.9c-0.5-0.5,0.3-1,0.8-0.6c2.3,2.5,5.6,5.1,9.2,4.2
					C217.4,150.4,217.4,150.5,217.4,150.6L217.4,150.6z"/>
			</g>
			<g>
				<path class="st30" d="M208.3,134.7c-0.1,1.7-0.2,3.5,0.1,5.3s1.1,3.2,1.7,4.9c0.1,0.5-0.4,0.8-0.7,0.4c-1.2-1.3-1.7-3.5-2-5.2
					C207.3,138.3,207.4,136.3,208.3,134.7C208.1,134.6,208.2,134.6,208.3,134.7L208.3,134.7z"/>
			</g>
			<g>
				<path class="st30" d="M213.8,155.6c-2.1,1.3-4.7,0.7-6.7-0.7c-2.1-1.3-4.7-3.8-5.2-6.2c0-0.4,0.5-0.6,0.7-0.3
					c0.7,0.8,1,1.9,1.7,2.8c0.8,1,1.6,1.9,2.6,2.6c0.9,0.8,1.9,1.3,3.2,1.6C211.4,155.7,212.5,155.6,213.8,155.6
					C213.9,155.5,213.9,155.5,213.8,155.6L213.8,155.6z"/>
			</g>
			<g>
				<path class="st30" d="M203.9,136c-0.1,1.8-0.3,3.7,0.1,5.5c0.2,0.9,0.5,1.9,0.7,2.7c0.1,0.5,0.3,0.8,0.5,1.2
					c0.1,0.5,0.7,0.9,0.1,1.1c0.2-0.1,0.5,0,0.5,0.3l0,0c0,0.2-0.1,0.4-0.4,0.4l0,0c-0.2,0-0.4-0.1-0.5-0.3
					c-1.5-3.3-2.9-7.9-1.2-11.3C203.8,135.9,203.9,135.9,203.9,136L203.9,136z"/>
			</g>
			<g>
				<path class="st30" d="M199.5,138.1c0.1,1.8,0.2,3.5,0.5,5.3c0.4,1.8,1,3.8,1.8,5.4c0.2,0.5-0.6,0.8-0.8,0.3
					C199.6,145.8,198,141.6,199.5,138.1C199.4,138.1,199.5,138.1,199.5,138.1L199.5,138.1z"/>
			</g>
			<g>
				<path class="st30" d="M209.3,159.4c-5.3,0.6-9.2-4.9-9.8-9.6c0-0.4,0.5-0.5,0.6-0.2c1,2.3,1.6,4.6,3.4,6.6
					c1.5,1.6,3.6,2.8,5.7,3C209.4,159.2,209.5,159.4,209.3,159.4L209.3,159.4z"/>
			</g>
			<g class="st23">
				<path class="st27" d="M218.2,138.7c-1.2,1-2.4,1.8-3.9,2.4s-3.1,1.1-4.6,1.6c-2.8,1-5.2,2.4-7.1,4.5c-0.8,0.8-2.3,0.7-3.2,0.1
					c-0.9-0.8-1.3-2.1-0.8-3.2c0.6-1.6,2.2-2.6,3.6-3.6c1.6-0.9,3.2-1.9,4.9-2.5s3.4-1,5.2-1.2c0.8-0.1,1.8-0.1,2.7-0.1
					s1.9,0.2,2.7,0.1C218.4,136.9,219,138,218.2,138.7L218.2,138.7z"/>
			</g>
		</g>
	</g>
	<g>
		<g>
			<path class="st27" d="M197.9,144.8h-19H167h-19c0,0-13.7,60.3-9.5,80.6c0,0.2,0,0.4,0,0.6c1,5.5,4.1,17.6,13,24.2
				c3.6,2.7,4.3,4.8,4.3,6.2c-0.1,1,0.8,1.9,1.8,1.9h15h0.3h15c1,0,1.9-0.8,1.8-1.9c-0.1-1.4,0.7-3.5,4.3-6.2
				c7.4-5.5,10.8-15,12.3-21.1C212.6,208.8,197.9,144.8,197.9,144.8z"/>
			<g>
				<defs>
					<path id="SVGID_22_" d="M197.9,144.8h-19H167h-19c0,0-13.7,60.3-9.5,80.6c0,0.2,0,0.4,0,0.6c1,5.5,4.1,17.6,13,24.2
						c3.6,2.7,4.3,4.8,4.3,6.2c-0.1,1,0.8,1.9,1.8,1.9h15h0.3h15c1,0,1.9-0.8,1.8-1.9c-0.1-1.4,0.7-3.5,4.3-6.2
						c7.4-5.5,10.8-15,12.3-21.1C212.6,208.8,197.9,144.8,197.9,144.8z"/>
				</defs>
				<use xlink:href="#SVGID_22_"  style="overflow:visible;fill:#CCCCFF;"/>
				<clipPath id="SVGID_23_">
					<use xlink:href="#SVGID_22_"  style="overflow:visible;"/>
				</clipPath>
				<g class="st31">
					<path class="st32" d="M142.4,225.4c-0.9,3.3,0.6,6.3,1.6,9.4c1.3,3.8,3.2,7,5.9,9.9c6.2,6.5,14.6,8.6,23.2,8.4
						c4.3-0.1,8.6,0.1,12.9-0.7c3.9-0.7,7.1-3.3,9.8-6c6.1-6,9.2-15.4,8.3-24.4c-0.1-1.2-2.7-2.5-3.4-1.3c-1.3,2.3,0.6,7.5,0,10
						c-1,3.9-3,6.9-5.6,9.9c-2.2,2.5-4.5,4.9-7.4,6.5c-3.4,1.9-8,1.4-11.8,1.5c-4,0-7.9,0.3-11.8-0.6c-3.6-0.8-6.9-2.9-10-5
						c-3-2-5.2-5.2-6.8-8.4c-1.5-3-3.3-6-4.3-9.2C143,225.1,142.5,225.1,142.4,225.4L142.4,225.4z"/>
				</g>
			</g>
			<path class="st33" d="M195.6,123.2l-16.8,76c-0.2,1.1,0.5,2.1,1.6,2.3c1.1,0.2,2.1-0.5,2.3-1.6l16.8-76L195.6,123.2z"/>
			<path class="st34" d="M149.2,154.1c-2.3,10.4-13.7,62.3-4,81c9.2,17.8,20.7,14.8,28.5,14.8c0,0,0,0,0,0c0,0,0.2,0,0.2,0
				c0,0,0,0,0,0c7.8-0.1,17.6,3.5,26.5-14.5c9.4-18.9-1.5-70.9-3.8-81.4H149.2z"/>
			<g class="st35">
				<path class="st27" d="M187.2,243.7c3.6-2.7,5-6.4,6.5-10.6c2.3-6.1,3.5-12.6,4.7-19c1-5.7,1.3-11.4,0.9-17.2
					c-0.3-5.1,0.7-13.5-3.4-17.2c-1.9-1.7-5.6-1.3-6.2,1.6c-0.4,2.3-0.1,3.7,0.6,6c0.7,2.5,1,5.2,1.4,7.8c1,5.6,1.6,11.1,1.4,16.8
					c-0.3,9.8-1.9,21.8-7.2,30.3C185.4,243.2,186.4,244.3,187.2,243.7L187.2,243.7z"/>
			</g>
		</g>
	</g>
	<g>
		<g class="st36">
			<g>
				<g>
					<path class="st37" d="M173.7,241l20.3-22.6c-6.2-5.6-15.9-5.1-21.4,1.1C166.9,225.9,167.4,235.5,173.7,241z"/>
					<path class="st27" d="M175.3,239.2l16.9-18.9c-5.3-4.7-13.2-4.2-17.9,0.9C169.6,226.5,170.1,234.5,175.3,239.2z"/>
				</g>
				<path class="st37" d="M175.4,222.2c-1.1,1.3-1.3,1.6-1.3,1.6c-0.3,0.7,0.1,1.5,0.8,1.8l6.5,2.4c0.7,0.3,0.9,0,0.6-0.7l-3.2-6.1
					c-0.4-0.7-1.2-0.8-1.9-0.6C176.9,220.8,176.6,220.9,175.4,222.2z"/>
				<path class="st37" d="M172.5,230.4c0.1,1.8,0.3,2.1,0.3,2.1c0.3,0.7,1.1,1,1.8,0.8l6.3-2.8c0.7-0.3,0.7-0.7,0-0.8l-6.6-2.1
					c-0.7-0.2-1.5,0.2-1.7,0.9C172.5,228.3,172.4,228.6,172.5,230.4z"/>
				<path class="st37" d="M183.2,218.5c-1.8,0.1-2.1,0.3-2.1,0.3c-0.7,0.3-0.9,1.1-0.8,1.8l2.8,6.3c0.3,0.7,0.7,0.7,0.8,0l2.1-6.6
					c0.2-0.7-0.2-1.5-0.9-1.7C185.2,218.5,184.9,218.4,183.2,218.5z"/>
				<path class="st37" d="M174.8,236.7c0,0,0.2,0.3,1.5,1.5l5.9-6.6c-0.1-0.1-0.4-0.1-0.7,0.1l-6.1,3.2
					C174.7,235.2,174.4,236,174.8,236.7z"/>
				<path class="st37" d="M187.9,220.8l-2.4,6.5c-0.2,0.4-0.2,0.6,0,0.7l5.9-6.6c-1.3-1.1-1.6-1.3-1.6-1.3
					C189,219.8,188.2,220.2,187.9,220.8z"/>
			</g>
			<g>
				<g>
					<path class="st37" d="M149,194.4l15.2,26.2c7.2-4.2,9.7-13.5,5.4-20.8C165.6,192.6,156.4,190.2,149,194.4z"/>
					<path class="st27" d="M150.4,196.6l12.8,22c6.1-3.6,8.1-11.3,4.6-17.4C164.2,195.1,156.4,193,150.4,196.6z"/>
				</g>
				<path class="st37" d="M166.4,201.8c-0.8-1.5-1.1-1.7-1.1-1.7c-0.6-0.5-1.4-0.4-1.9,0.2l-4.3,5.4c-0.5,0.6-0.3,0.8,0.4,0.8
					l6.9-1.1c0.8-0.2,1.2-0.8,1.1-1.6C167.4,203.7,167.4,203.4,166.4,201.8z"/>
				<path class="st37" d="M159.6,196.7c-1.7-0.5-2.1-0.4-2.1-0.4c-0.8,0.1-1.3,0.8-1.2,1.5l0.8,6.9c0.1,0.8,0.4,0.8,0.8,0.2l4-5.6
					c0.4-0.6,0.3-1.4-0.4-1.9C161.5,197.3,161.3,197.2,159.6,196.7z"/>
				<path class="st37" d="M167.7,210.4c0.5-1.7,0.4-2.1,0.4-2.1c-0.1-0.8-0.8-1.3-1.5-1.2l-6.9,0.8c-0.8,0-0.8,0.4-0.2,0.8l5.6,4
					c0.6,0.4,1.4,0.3,1.9-0.4C167,212.4,167.2,212.1,167.7,210.4z"/>
				<path class="st37" d="M152.9,196.9c0,0-0.4,0.1-1.9,0.9l4.4,7.6c0.1-0.1,0.2-0.3,0.1-0.7l-1.1-6.9
					C154.3,197.2,153.7,196.8,152.9,196.9z"/>
				<path class="st37" d="M164,214.3l-5.4-4.3c-0.3-0.3-0.5-0.3-0.7-0.3l4.4,7.6c1.5-0.8,1.7-1.1,1.7-1.1
					C164.5,215.6,164.5,214.7,164,214.3z"/>
			</g>
			<g>
				<g>
					<path class="st37" d="M188.4,171.8l-18.9,23.8c6.6,5.2,16.1,4.1,21.3-2.4C196.1,186.5,195,176.9,188.4,171.8z"/>
					<path class="st27" d="M186.9,173.7l-15.8,19.9c5.4,4.3,13.5,3.5,17.9-2.1C193.3,186.1,192.4,178.1,186.9,173.7z"/>
				</g>
				<path class="st37" d="M187.9,190.7c1.1-1.4,1.2-1.7,1.2-1.7c0.2-0.7-0.2-1.5-0.8-1.7l-6.6-2.1c-0.7-0.3-0.9,0-0.6,0.7l3.6,5.9
					c0.4,0.6,1.2,0.8,1.9,0.5C186.4,192.2,186.7,192,187.9,190.7z"/>
				<path class="st37" d="M190.2,182.4c-0.2-1.7-0.4-2.1-0.4-2.1c-0.4-0.7-1.1-0.9-1.8-0.7l-6.1,3.2c-0.7,0.3-0.7,0.7,0.1,0.8
					l6.7,1.7c0.8,0.2,1.4-0.3,1.6-1C190.3,184.5,190.4,184.1,190.2,182.4z"/>
				<path class="st37" d="M180.3,194.8c1.7-0.2,2.1-0.4,2.1-0.4c0.7-0.4,0.9-1.1,0.7-1.8l-3.2-6.1c-0.3-0.7-0.7-0.7-0.8,0.1
					l-1.7,6.7c-0.2,0.8,0.3,1.4,1,1.6C178.3,195,178.5,195.1,180.3,194.8z"/>
				<path class="st37" d="M187.6,176.2c0,0-0.2-0.3-1.5-1.4l-5.5,7c0.1,0.1,0.4,0.1,0.7-0.2l5.9-3.6
					C187.8,177.7,187.9,176.9,187.6,176.2z"/>
				<path class="st37" d="M175.4,192.8l2.1-6.6c0.1-0.4,0.1-0.6,0-0.7l-5.4,7c1.4,1.1,1.7,1.2,1.7,1.2
					C174.4,193.9,175.2,193.5,175.4,192.8z"/>
			</g>
		</g>
		<g>
			
				<rect x="160.8" y="168.9" transform="matrix(0.5276 -0.8495 0.8495 0.5276 -71.0645 228.9504)" class="st38" width="19" height="19"/>
			
				<rect x="168.7" y="194.4" transform="matrix(0.7783 -0.6278 0.6278 0.7783 -88.5266 157.0448)" class="st38" width="19" height="19"/>
			
				<rect x="157.3" y="214.1" transform="matrix(0.6401 -0.7683 0.7683 0.6401 -111.783 208.6153)" class="st38" width="19" height="19"/>
		</g>
	</g>
</g>
</svg>
