<?xml version="1.0" encoding="utf-8"?>
<!-- Generator: Adobe Illustrator 23.0.0, SVG Export Plug-In . SVG Version: 6.00 Build 0)  -->
<svg version="1.1" id="Capa_1" xmlns="http://www.w3.org/2000/svg" xmlns:xlink="http://www.w3.org/1999/xlink" x="0px" y="0px"
	 viewBox="0 0 360 363" style="enable-background:new 0 0 360 363;" xml:space="preserve">
<style type="text/css">
	.st0{fill:#FFD084;}
	.st1{fill:none;stroke:#FFE1C0;stroke-width:0.7573;stroke-miterlimit:10;}
	.st2{fill:#FFD6A4;}
	.st3{fill:none;stroke:#FFE1C0;stroke-width:0.75;stroke-miterlimit:10;}
	.st4{fill:#FFE1C0;}
	.st5{fill:none;stroke:#FFD6A4;stroke-width:0.75;stroke-miterlimit:10;}
	.st6{fill:none;stroke:#FFEFE1;stroke-width:0.7478;stroke-miterlimit:10;}
	.st7{fill:#8F7CE5;}
	.st8{fill:#A6A6DD;}
	.st9{fill:#FFE5CC;}
	.st10{fill:none;stroke:#FFD6A4;stroke-miterlimit:10;}
	.st11{clip-path:url(#SVGID_2_);fill:#FFD8AE;}
	.st12{clip-path:url(#SVGID_4_);fill:#FFD8AE;}
	.st13{fill:none;stroke:#FFFFFF;stroke-width:16;stroke-linecap:round;stroke-linejoin:round;stroke-miterlimit:10;}
	.st14{fill:#C66524;stroke:#FFFFFF;stroke-width:14;stroke-linejoin:round;stroke-miterlimit:10;}
	.st15{fill:#496D31;}
	.st16{fill:#AF1E3B;}
	.st17{clip-path:url(#SVGID_6_);fill:#9B1334;}
	.st18{clip-path:url(#SVGID_8_);fill:#B52D4E;}
	.st19{opacity:0.21;clip-path:url(#SVGID_10_);fill:#AF1E3B;enable-background:new    ;}
	.st20{opacity:0.15;clip-path:url(#SVGID_12_);fill:#AF1E3B;enable-background:new    ;}
	.st21{opacity:0.15;clip-path:url(#SVGID_14_);fill:#AF1E3B;enable-background:new    ;}
	.st22{opacity:0.1;fill:#FFFFFF;enable-background:new    ;}
	.st23{opacity:0.13;fill:#FFFFFF;enable-background:new    ;}
	.st24{fill:#FFFFFF;}
	.st25{fill:#A04C13;}
	.st26{fill:#BC5B19;}
	.st27{fill:#C66524;}
	.st28{fill:#B8B8F2;}
	.st29{fill:#E9E9FF;}
	.st30{fill:#D5F3FF;}
	.st31{fill:#CCCCFF;}
	.st32{fill:#3D9EC1;}
	.st33{fill:#78C9E9;}
	.st34{fill:#FFE1B6;}
	.st35{opacity:0.4;fill:#C5D1EF;enable-background:new    ;}
	.st36{fill:#FFFFDC;}
	.st37{fill:#FFFFEE;}
</style>
<g id="fondo">
	<g>
		<g id="Rectángulo_556">
			<rect y="-0.1" class="st0" width="360" height="363.3"/>
			<rect x="0.5" y="0.4" class="st0" width="359" height="362.2"/>
		</g>
		<path class="st1" d="M228.1,258.3c0,0,43.9-35.1,59.7-104.9c15.8-69.8-12.4-91.7-12.4-91.7S254.9,35.3,242,72.3
			c0,0-11.1,37.2-24.4,18.6c0,0-4-5.6-6.5-13c-2.5-7.3-11-10.5-11-10.5s-21.4-7.3-59.4,34.8c0,0-30.9,35.9-25.5,83.1
			s10.5,56.8,10.5,56.8L228.1,258.3z"/>
		<path class="st2" d="M225.9,271.1c0,0,43.1-35.1,58.6-104.9s-12.2-91.7-12.2-91.7s-20.1-26.4-32.8,10.6c0,0-10.9,37.2-23.9,18.6
			c0,0-3.9-5.6-6.4-13c-2.5-7.3-10.8-10.5-10.8-10.5s-21-7.3-58.2,34.8c0,0-30.3,35.9-25,83.1s10.3,56.8,10.3,56.8L225.9,271.1z"/>
		<path class="st3" d="M114.9,245.6c0,0-61.2-54.4-49.7-80.4s30.9-7.5,30.9-7.5s25.7,22.6,47.9,63.9L114.9,245.6z"/>
		<path class="st2" d="M115.8,249.7c0,0-54.1-58.6-42.6-84.6s30.9-7.5,30.9-7.5s25.7,22.6,47.9,63.9L115.8,249.7z"/>
		<path class="st4" d="M206.4,265c0,0,41.3-44.5,60.9-102.7c0,0,11.1-34-2.3-60c0,0-8.2-25.8-29.3,14.8S206.3,129,206.3,129
			s-8.1-59.5-44-15.2s-22.9,140.1-22.9,140.1L206.4,265z"/>
		<path class="st5" d="M191.1,241.3c0,0,54.3-73,68-155.4"/>
		<path class="st6" d="M195.3,266c0,0,33.9-33.6,51.3-78.9c0,0,9.9-26.5,0.3-47.4c0,0-5.5-20.6-23.5,10.6s-23.4,8.4-23.4,8.4
			s-4.3-47.2-33.9-13.5s-22.8,109.6-22.8,109.6L195.3,266z"/>
		<g>
			
				<ellipse transform="matrix(1 -1.876236e-03 1.876236e-03 1 -0.526 0.338)" class="st7" cx="179.9" cy="280.5" rx="102.6" ry="21.4"/>
			<polygon class="st7" points="282.5,280.3 282.7,266.4 77.5,266.8 77.3,280.7 			"/>
			
				<ellipse transform="matrix(1 -1.876236e-03 1.876236e-03 1 -0.4999 0.3384)" class="st8" cx="180.1" cy="266.6" rx="102.6" ry="21.4"/>
		</g>
		<path class="st3" d="M239.7,220.4c0,0,41.8-19.1,39.9,9s-53,30.9-53,30.9s-15.5-0.3-14.5-10.3C213.2,240,218.5,230.9,239.7,220.4z
			"/>
		<path class="st9" d="M229.9,222.9c0,0,37.6-26.4,40.9,1.5c3.2,27.9-46.4,40.1-46.4,40.1S209,267,208.2,257
			C207.3,247,211,237.1,229.9,222.9z"/>
		<path class="st10" d="M208.2,257c0,0,44.4-19.6,65.3-41.4"/>
		<g>
			<g>
				<g>
					<g>
						<defs>
							<path id="SVGID_1_" d="M229.9,222.9c0,0,37.6-26.4,40.9,1.5c3.2,27.9-46.4,40.1-46.4,40.1S209,267,208.2,257
								C207.3,247,211,237.1,229.9,222.9z"/>
						</defs>
						<clipPath id="SVGID_2_">
							<use xlink:href="#SVGID_1_"  style="overflow:visible;"/>
						</clipPath>
						<path class="st11" d="M240.9,211.5c0,0-27.3,46.6,4.8,50c21.5,2.3-22.9,11.5-22.9,11.5l-20.3-4.6l-1.3-29l20-22.9L240.9,211.5
							z"/>
					</g>
				</g>
			</g>
		</g>
		<g>
			<path class="st9" d="M128.2,225.7c0,0-34.9-21.9-37.3,9.5c0,0,6.5,28.1,39.9,22.4C164.1,251.8,128.2,225.7,128.2,225.7z"/>
		</g>
		<path class="st10" d="M143,248.3c0,0-40.9-21-62.4-13.1"/>
		<g>
			<g>
				<g>
					<g>
						<defs>
							<path id="SVGID_3_" d="M128.2,225.7c0,0-34.9-21.9-37.3,9.5c0,0,6.5,28.1,39.9,22.4C164.1,251.8,128.2,225.7,128.2,225.7z"/>
						</defs>
						<clipPath id="SVGID_4_">
							<use xlink:href="#SVGID_3_"  style="overflow:visible;"/>
						</clipPath>
						<path class="st12" d="M124.1,218.3h-4h-3.6c0,0,17.6,26,9.4,34.6c-8.2,8.6-9.4,6.7-9.4,6.7l19.6,1.8l15.9-7.2l1.2-14.3
							l-16-11.9L124.1,218.3z"/>
					</g>
				</g>
			</g>
		</g>
		<path class="st3" d="M84.5,161.6c0,0,21.6,45.3,54.6,70.4"/>
		<path class="st3" d="M103.9,163.3c0,0-5.4,4-7,10.8"/>
		<path class="st3" d="M108.2,171.4c0,0-5.3,5.3-6,14.2"/>
		<path class="st3" d="M96.9,190.4c0,0-6.3-0.5-14.9,3.7"/>
		<path class="st3" d="M102.2,196.8c0,0-10.9,0.4-15.6,3.7"/>
		<path class="st2" d="M109.5,107.7c0.1,4-3.4,7.8-6.2,10.4c-1-2.4-1.9-5-2-7.6c-0.1-2,0.7-4,2.2-5.3c0.5-0.4,1-0.8,1.7-0.9
			c0.4-0.1,0.7-0.2,1.1-0.2C108,104.3,109.4,105.9,109.5,107.7z"/>
		<path class="st2" d="M81.9,123.8c-3.1,0.3-9-1.1-11.6-3.2c-2.3-1.7-2.3-2.2-3.4-4.9c-1-2.7,0.6-5.9,3.6-6.2
			c1.5-0.2,3.1,0.2,4.3,1.1C79.1,113.4,82.6,118.4,81.9,123.8z"/>
		<path class="st4" d="M105.6,142.4c-1.9,1.1-5-0.2-4.7-2.6c-0.2-2.8,4.1-3.8,5.6-1.6C107.5,139.5,106.9,141.6,105.6,142.4z"/>
		<path class="st4" d="M319.5,85.1c-2.6,1.4-6.6-0.3-6.3-3.5c-0.2-3.8,5.5-5.1,7.4-2.1C322,81.2,321.3,83.9,319.5,85.1z"/>
		<path class="st2" d="M328.9,297.3c-3.1,1.7-7.9-0.3-7.6-4.2c-0.3-4.5,6.6-6.1,8.9-2.5C331.9,292.6,331,295.9,328.9,297.3z"/>
		<path class="st4" d="M286.4,309c-2,1.1-5.2-0.2-5-2.8c-0.2-3,4.3-4,5.8-1.7C288.4,305.9,287.9,308.1,286.4,309z"/>
		<path class="st2" d="M61.9,244.7c-2.6,1.4-6.6-0.3-6.3-3.5c-0.2-3.8,5.5-5.1,7.4-2.1C64.4,240.8,63.7,243.5,61.9,244.7z"/>
		
			<ellipse transform="matrix(0.3506 -0.9365 0.9365 0.3506 -94.4314 226.7204)" class="st9" cx="116.3" cy="181.5" rx="2.7" ry="1.7"/>
		
			<ellipse transform="matrix(0.3506 -0.9365 0.9365 0.3506 -102.7927 235.0518)" class="st9" cx="118.1" cy="191.6" rx="2.7" ry="1.7"/>
		
			<ellipse transform="matrix(0.3506 -0.9365 0.9365 0.3506 -131.656 232.9896)" class="st0" cx="102.2" cy="211.4" rx="3" ry="1.8"/>
	</g>
</g>
<path class="st13" d="M187.1,217.5c14.5-3.4,25.4-17.7,25.4-34.7c0-8.3-3.1-15.6-6.9-22c-3.1-5.3-7.8-20.1,5.1-30.6h-30.4h-26.1
	h-4.3c4.8,4,7.1,8.5,8,12.9c0.5,2.6,0.5,5.2,0.2,7.6c-0.1,0.8-0.2,1.6-0.4,2.3s-0.3,1.5-0.5,2.2c-0.1,0.3-0.2,0.7-0.3,1
	c-1.2,3.6-2.6,6.1-3,6.7c-3.5,5.7-5.5,12.5-5.5,19.9c0,7.3,2,14.2,5.5,19.8c0.3,0.5,0.6,0.9,0.9,1.4c0.6,0.9,1.3,1.8,2,2.6
	s1.4,1.6,2.2,2.4c1.5,1.5,3.2,2.9,4.9,4.1c0.4,0.3,0.9,0.6,1.3,0.9c1.4,0.8,2.8,1.5,4.3,2.1c1.1,0.4,2.2,0.8,3.3,1.1
	c0.2,1.6,0.9,3,1.9,4.1l0.1,0.1c0.2,0.2,0.4,0.4,0.6,0.6c0.1,0.1,0.2,0.1,0.3,0.2c0.2,0.1,0.4,0.3,0.6,0.4l0.1,0.1
	c0.3,0.2,0.6,0.3,0.9,0.4v19.4c-2.3,0.9-4.1,3-4.6,5.5l0,0c-0.1,0.4-0.1,0.8-0.1,1.2l0,0l0,0c-5.2,1-9.2,2.8-11.1,4.5c0,0,0,0-0.1,0
	c-0.6,0.6-1,1.2-1.1,1.6l0,0c0,0.1,0,0.1,0,0.2l0,0c0,0,0,0,0,0.1c0,2.6,8.8,3.3,19.6,3.3c0.6,0,1.2,0,1.7,0
	c8.2-0.1,14.9-0.6,17.1-2.1c0.1-0.1,0.2-0.1,0.3-0.2c0,0,0,0-0.1,0c0.4-0.3,0.6-0.6,0.6-1c0,0,0,0,0-0.1l0,0c0-0.5-0.4-1.1-1.1-1.8
	c0,0,0,0-0.1,0c-1.9-1.7-6-3.6-11.1-4.5c0-0.4,0-0.8-0.1-1.2l0,0c-0.4-2.6-2.2-4.7-4.6-5.6V223C184.9,222.3,186.7,220.1,187.1,217.5
	z M197,148.1L197,148.1c0-0.3,0-0.5,0-0.8C197,147.6,197,147.8,197,148.1z M197.6,206.4c5.9-5.5,9.7-13.9,9.8-23.2
	C207.3,192.6,203.6,200.9,197.6,206.4z M207.4,182.9L207.4,182.9C207.4,182.8,207.4,182.8,207.4,182.9
	C207.4,182.8,207.4,182.8,207.4,182.9z M180.3,135.2H200v0.1h-2.1L180.3,135.2l-17.7,0.1h-2.1v-0.1H180.3z"/>
<path class="st14" d="M226.7,96.6c0-0.4-0.1-0.7-0.2-1.1c-0.1-0.1-0.1-0.3-0.2-0.3c-0.1,0-0.2,0-0.3,0c-1.8-0.1-3.6,0.4-5.3,0.9
	c-0.5,0.1-0.6,0.7-0.4,1.1c-0.2,0-0.4,0-0.5,0c0.1,0,0.2,0,0.3,0c-7.6,2.9-13.8,9.3-16.3,17.1c-0.2,0.9-0.5,1.8-0.7,2.7
	c-0.1,0.3-0.2,0.7-0.3,1c-0.7-0.1-1.4-0.2-2-0.3c-2-0.2-4.5-1.1-6.4-0.3c-1.2,0.5-2.1,1.7-2.7,2.8c-1.5,2.8-2.1,6.2-1.4,9.2
	c0.7,3.1,2.8,5.9,5.8,7.2c1.2,0.5,2.4,0.7,3.6,0.6c1.5-0.3,3.5-0.4,4.8-1.3c2.5-1.6,4.1-4,5.6-6.5c1.7-2.9,1.8-6.9-1-9.2
	c-1.8-1.4-3.7-1.8-5.6-2.1c0.1-0.3,0.2-0.6,0.3-1c0.2-0.9,0.5-1.7,0.7-2.7c2.5-7.6,8.5-14,16-16.8c0,0.3,0.1,0.6,0.4,0.8
	c0.4,0.5,1.4,0.1,1.9,0c0.4-0.1,4.3-0.5,4.3-0.2C226.9,97.7,226.8,97.2,226.7,96.6z"/>
<g>
	<path class="st15" d="M222.3,96.9c-0.6,0.1-1.2,0.2-1.7,0.3c-0.2,0-0.8,0-1,0c0.1,0,0.2,0,0.3,0c-7.6,2.9-13.8,9.3-16.3,17.1
		c-0.2,0.9-0.5,1.8-0.7,2.7c-0.3,1.4-0.7,2.7-1.2,3.9l0.6,0.2c0.5-1.3,0.8-2.7,1.3-4c0.2-0.9,0.5-1.7,0.7-2.7
		c2.7-8.2,9.4-14.9,17.7-17.3l1.6-0.5C223.1,96.8,222.7,96.8,222.3,96.9z"/>
	<path class="st16" d="M194.1,117.5c-1.2,0.5-2.1,1.7-2.7,2.8c-1.5,2.8-2.1,6.2-1.4,9.2c0.7,3.1,2.8,5.9,5.8,7.2
		c1.2,0.5,2.4,0.7,3.6,0.6c1.5-0.3,3.5-0.4,4.8-1.3c2.5-1.6,4.1-4,5.6-6.5c1.7-2.9,1.8-6.9-1-9.2c-2.5-2.1-5.3-2-8.3-2.5
		C198.6,117.5,196.1,116.7,194.1,117.5z"/>
	<g>
		<g>
			<g>
				<g>
					<defs>
						<path id="SVGID_5_" d="M194.1,117.5c-1.2,0.5-2.1,1.7-2.7,2.8c-1.5,2.8-2.1,6.2-1.4,9.2c0.7,3.1,2.8,5.9,5.8,7.2
							c1.2,0.5,2.4,0.7,3.6,0.6c1.5-0.3,3.5-0.4,4.8-1.3c2.5-1.6,4.1-4,5.6-6.5c1.7-2.9,1.8-6.9-1-9.2c-2.5-2.1-5.3-2-8.3-2.5
							C198.6,117.5,196.1,116.7,194.1,117.5z"/>
					</defs>
					<clipPath id="SVGID_6_">
						<use xlink:href="#SVGID_5_"  style="overflow:visible;"/>
					</clipPath>
					<path class="st17" d="M202.4,117.1c-2.4-2.4-5.8-2.6-8.6-0.7c-3,2.1-4.5,5.9-4.9,9.4c-0.3,3.2,0.3,6.5,2.2,9.2
						c1.9,2.7,5.2,5,8.6,4.4c1.5-0.3,2-2.6,0.4-3.1c-2.2-0.7-4.2-1.4-5.6-3.3c-1.3-1.7-1.7-4-1.6-6.1c0.2-2.3,0.9-4.8,2.5-6.4
						c1.4-1.4,3.8-2.2,5.6-1.3C202,119.6,203.3,118,202.4,117.1L202.4,117.1z"/>
				</g>
			</g>
		</g>
		<g>
			<g>
				<g>
					<defs>
						<path id="SVGID_7_" d="M194.1,117.5c-1.2,0.5-2.1,1.7-2.7,2.8c-1.5,2.8-2.1,6.2-1.4,9.2c0.7,3.1,2.8,5.9,5.8,7.2
							c1.2,0.5,2.4,0.7,3.6,0.6c1.5-0.3,3.5-0.4,4.8-1.3c2.5-1.6,4.1-4,5.6-6.5c1.7-2.9,1.8-6.9-1-9.2c-2.5-2.1-5.3-2-8.3-2.5
							C198.6,117.5,196.1,116.7,194.1,117.5z"/>
					</defs>
					<clipPath id="SVGID_8_">
						<use xlink:href="#SVGID_7_"  style="overflow:visible;"/>
					</clipPath>
					<path class="st18" d="M203.9,120c1.6,0.4,3.5,1.5,4.4,2.9c1,1.5,0.9,3.5,0.5,5.1c-0.6,2-1.5,4-2.7,5.8c-0.6,1-1.4,1.8-2.3,2.4
						c-0.9,0.7-2.1,0.9-2.9,1.6c-0.8,0.7-0.7,2.1,0.4,2.5c2.9,1.3,6.1-1.8,7.7-4.1c1.7-2.3,3-5.3,3.7-8.1c0.7-2.8,0.4-5.6-1.2-7.8
						c-1.7-2.4-4.3-3.6-7.2-3C203,117.6,202.5,119.6,203.9,120L203.9,120z"/>
				</g>
			</g>
		</g>
		<g>
			<g>
				<g>
					<defs>
						<path id="SVGID_9_" d="M194.1,117.5c-1.2,0.5-2.1,1.7-2.7,2.8c-1.5,2.8-2.1,6.2-1.4,9.2c0.7,3.1,2.8,5.9,5.8,7.2
							c1.2,0.5,2.4,0.7,3.6,0.6c1.5-0.3,3.5-0.4,4.8-1.3c2.5-1.6,4.1-4,5.6-6.5c1.7-2.9,1.8-6.9-1-9.2c-2.5-2.1-5.3-2-8.3-2.5
							C198.6,117.5,196.1,116.7,194.1,117.5z"/>
					</defs>
					<clipPath id="SVGID_10_">
						<use xlink:href="#SVGID_9_"  style="overflow:visible;"/>
					</clipPath>
					<path class="st19" d="M212.7,130.4c0.4-1.2,1.6-1.8,0.4-2.3c-1.1-0.5-1.9-0.3-4.1,0c-0.9,0.2-3.8,0.3-4.7,0.3
						c-1.7-0.3-2.7-0.6-4.3-1.5c-1.8-0.9-3.1-2.2-3.8-4.2c-0.8-2.3,1.6-4.3,2.9-5.6c1.8-2-0.9-4.9-3.1-3.9c-1.7,0.7-3,2.2-4,3.7
						c-0.9,1.4-1.9,2.9-2.5,4.4c-0.5,1.3-0.7,2.7-0.6,4.1l0,0c-1.4,2.6-0.9,6,1.1,8.2c1,1,2,2,3.4,2.5c0.8,0.5,1.6,1.2,2.4,1.5
						c0.5,0.2,2.8,0.3,3.3,0.6c1,0.4,1.8,0.1,2.2-0.6c0.4,0,1-0.1,1.5-0.3c2.5-0.5,4.9-1.1,6.7-3c0.2-0.2,0.3-0.5,0.4-0.8
						C211.2,132.7,212.2,131.8,212.7,130.4z"/>
				</g>
			</g>
		</g>
		<g>
			<g>
				<g>
					<defs>
						<path id="SVGID_11_" d="M194.1,117.5c-1.2,0.5-2.1,1.7-2.7,2.8c-1.5,2.8-2.1,6.2-1.4,9.2c0.7,3.1,2.8,5.9,5.8,7.2
							c1.2,0.5,2.4,0.7,3.6,0.6c1.5-0.3,3.5-0.4,4.8-1.3c2.5-1.6,4.1-4,5.6-6.5c1.7-2.9,1.8-6.9-1-9.2c-2.5-2.1-5.3-2-8.3-2.5
							C198.6,117.5,196.1,116.7,194.1,117.5z"/>
					</defs>
					<clipPath id="SVGID_12_">
						<use xlink:href="#SVGID_11_"  style="overflow:visible;"/>
					</clipPath>
					<path class="st20" d="M215.3,135.5c0.2-1.3,1.6-1.8-0.1-2.6c-1.5-0.8-2.6-0.7-5.2-0.7c-1.1,0.1-4.8-0.2-6-0.4
						c-2.2-0.6-3.9-1.2-6.1-2.4c-2.6-1.3-3.8-2.3-5.3-4.6c-1.6-2.7,0.6-5.4,1.9-6.8c1.8-2-2.4-5.7-5-5c-2.1,0.6-3.4,2-4.3,3.6
						c-0.8,1.4-1.7,3-2.1,4.6c-0.4,1.5-0.3,2.9,0.2,4.5l0,0c-1.2,2.7,0.3,6.8,3.5,9.4c1.5,1.3,3.2,2.5,5,3.5c1,0.6,2.3,1.6,3.5,2.1
						c0.7,0.3,3.7,0.8,4.5,1.1c1.4,0.6,2.3,0.4,2.7-0.3c0.6,0,1.3,0,1.9-0.1c3-0.3,6.1-0.4,7.8-2.4c0.2-0.2,0.3-0.5,0.3-0.8
						C214,137.9,215.1,137.1,215.3,135.5z"/>
				</g>
			</g>
		</g>
		<g>
			<g>
				<g>
					<defs>
						<path id="SVGID_13_" d="M194.1,117.5c-1.2,0.5-2.1,1.7-2.7,2.8c-1.5,2.8-2.1,6.2-1.4,9.2c0.7,3.1,2.8,5.9,5.8,7.2
							c1.2,0.5,2.4,0.7,3.6,0.6c1.5-0.3,3.5-0.4,4.8-1.3c2.5-1.6,4.1-4,5.6-6.5c1.7-2.9,1.8-6.9-1-9.2c-2.5-2.1-5.3-2-8.3-2.5
							C198.6,117.5,196.1,116.7,194.1,117.5z"/>
					</defs>
					<clipPath id="SVGID_14_">
						<use xlink:href="#SVGID_13_"  style="overflow:visible;"/>
					</clipPath>
					<path class="st21" d="M213.1,136.6c0-1.4,1.3-2-0.5-2.7c-1.6-0.6-2.6-0.4-5.3,0c-1.2,0.2-4.6,1-5.8,0.8
						c-2.4-0.3-4.2-0.6-6.5-1.5c-2.7-1.1-4.4-2.8-6-4.9c-1.9-2.6,0.3-5.3,1.4-6.8c1.6-2.2-3-5.4-5.5-4.4c-1.9,0.8-3.2,2.3-3.9,4.1
						c-0.7,1.5-1.3,3.1-1.6,4.9c-0.2,1.4,0,2.9,0.7,4.5l0,0c-0.8,2.8,1.1,6.7,4.4,9c1.7,1.2,3.4,2.2,5.3,2.9
						c1.2,0.6,2.5,1.4,3.7,1.7c0.7,0.2,3.8,0.4,4.6,0.6c1.4,0.5,2.3,0.1,2.6-0.7c0.7-0.1,1.2-0.2,1.9-0.3c2.9-0.6,6-1.1,7.5-3.2
						c0.2-0.2,0.2-0.6,0.2-0.9C212,139.2,213.1,138.2,213.1,136.6z"/>
				</g>
			</g>
		</g>
	</g>
	<path class="st22" d="M203.1,123.2c-0.5-0.4-0.2-0.2-0.1,0.2c0.1,0.3,0.2,0.4,0.3,0.6c0.1,0.4,0.2,0.8,0.2,1.2
		c0,0.8-0.2,1.5-0.5,2.2c-0.9,1.8-3.1,2.4-3.6,4.5c-0.1,0.5,0.2,1.2,0.6,1.4c3.4,2,6.9-2.7,7.5-5.5c0.4-1.7,0.3-3.4-0.8-4.9
		c-0.8-1.2-2.4-2.1-3.6-1.1C202.5,122.1,202.7,122.8,203.1,123.2L203.1,123.2z"/>
	<path class="st23" d="M209.3,122.5c-0.6-1.5-2.2-2.5-3.8-2.7c-0.7-0.1-1.5,0.2-2,0.5c-0.8,0.1-1.6,0.5-2.1,1.3
		c-2.1,2.6,0.3,6.1,3.2,6.6C207.7,128.8,210.7,125.6,209.3,122.5z"/>
	<path class="st24" d="M205.7,122.7c0.2,0.7,0.6,1.3,0.7,2c0.2,0.7,0.2,1.4,0.1,2.2c-0.1,0.6-0.6,2.1,0.6,1.7
		c1.2-0.4,1.6-2.1,1.5-3.2c-0.1-1.3-0.8-3-2.1-3.5C206,122,205.6,122.3,205.7,122.7L205.7,122.7z"/>
	<path class="st25" d="M220.6,96.1c1.7-0.5,3.5-1,5.3-0.9c0.1,0,0.2,0,0.3,0s0.1,0.2,0.2,0.3c0.2,0.6,0.3,1.2,0.3,1.8
		c0-0.2-3.9,0.2-4.3,0.2c-0.6,0.1-1.5,0.5-1.9,0C219.9,97.3,220,96.3,220.6,96.1z"/>
	<path class="st26" d="M220.8,97c1.7-0.5,3.5-1,5.3-0.9c0.1,0,0.2,0,0.3,0c0.1,0,0.1,0.2,0.2,0.3c0.2,0.6,0.3,1.2,0.3,1.8
		c0-0.2-3.9,0.2-4.3,0.2c-0.6,0.1-1.5,0.5-1.9,0C220.1,98.2,220.1,97.2,220.8,97z"/>
	<path class="st27" d="M223,96.8c1-0.1,1.9-0.2,2.8-0.1c0.1,0,0.1,0,0.2,0.1l0.1,0.1c-0.1,0.3-0.2,0.6-0.4,0.9c0-0.1-2-0.2-2.2-0.2
		c-0.3,0-0.8,0.1-0.9-0.1C222.4,97.3,222.7,96.9,223,96.8z"/>
</g>
<g>
	<g>
		<path class="st28" d="M182.5,248.6c0,2.3-1.2,4.2-2.6,4.2l0,0c-1.4,0-2.6-1.9-2.6-4.2v-34.7c0-2.3,1.2-4.2,2.6-4.2l0,0
			c1.4,0,2.6,1.9,2.6,4.2V248.6z"/>
		<path class="st28" d="M187.2,249.4c0,4-3.3,7.3-7.3,7.3s-7.3-3.3-7.3-7.3s3.3-7.3,7.3-7.3C184,242.1,187.2,245.4,187.2,249.4z"/>
		<path class="st29" d="M187.2,249.4c0-0.4,0-0.8-0.1-1.2c-2.2-0.4-4.7-0.7-7.3-0.7c-2.5,0-4.9,0.2-7.1,0.6
			c-0.1,0.4-0.1,0.8-0.1,1.2c0,4,3.3,7.3,7.3,7.3C184,256.6,187.2,253.4,187.2,249.4z"/>
		<path class="st28" d="M187.2,216.4c0,4-3.3,7.3-7.3,7.3s-7.3-3.3-7.3-7.3s3.3-7.3,7.3-7.3C184,209.1,187.2,212.4,187.2,216.4z"/>
		<path class="st30" d="M180.4,234.1c-0.5,0-0.9-0.4-0.9-0.9v-7.8c0-0.5,0.4-0.9,0.9-0.9l0,0c0.5,0,0.9,0.4,0.9,0.9v7.8
			C181.3,233.8,180.9,234.1,180.4,234.1L180.4,234.1z"/>
		<path class="st29" d="M173.8,249.9c0-3.1,1.9-5.7,4.6-6.7v-21.3c-2.7-1.1-4.6-3.7-4.6-6.7c0-4,3.3-5.5,7.3-5.5
			c0.9,0,1.7,0.2,2.5,0.5c-1.1-0.6-2.3-1-3.6-1c-4,0-7.3,3.3-7.3,7.3c0,3.1,1.9,5.7,4.6,6.7v19.5c-2.7,1.1-4.6,3.7-4.6,6.7
			c0,3.1,2,5.8,4.8,6.8C175.3,254.9,173.8,252.6,173.8,249.9z"/>
		<path class="st31" d="M199.5,255.8c0,2.6-8.8,3.3-19.6,3.3s-19.6-0.8-19.6-3.3c0-2.6,8.8-7.1,19.6-7.1S199.5,253.2,199.5,255.8z"
			/>
		<path class="st28" d="M198.4,253.9c-2.7,1.5-10,1.9-18.5,1.9c-8.6,0-15.8-0.5-18.5-1.9c-0.7,0.7-1.1,1.3-1.1,1.8
			c0,2.6,8.8,3.3,19.6,3.3s19.6-0.8,19.6-3.3C199.5,255.2,199.1,254.6,198.4,253.9z"/>
		<path class="st29" d="M182.5,258c-10.8,0-19.6-0.8-19.6-3.3c0-1.1,1.5-2.4,4-3.7c-4,1.5-6.6,3.4-6.6,4.8c0,2.6,8.8,3.3,19.6,3.3
			c9.3,0,17-0.6,19.1-2.3C195.5,257.6,189.4,258,182.5,258z"/>
		<path class="st32" d="M201.2,163.4c-3.4-5.8-6.8-17.5-1.2-28.1h-19.7h-19.8c5.6,11,1.8,23.5-2.3,30.3c-3.1,5.1-4.8,11.1-4.8,17.3
			c0,16.8,12.1,30.5,27,30.5s27-13.7,27-30.5C207.5,176.7,205.5,170.5,201.2,163.4z"/>
		<path class="st33" d="M199,163.4c-3.1-5.8-6.1-17.5-1.1-28.1h-17.6h-17.7c5,11,1.6,23.5-2.1,30.3c-2.8,5.1-4.3,11.1-4.3,17.3
			c0,16.8,10.8,30.5,24.2,30.5c13.3,0,24.2-13.7,24.2-30.5C204.6,176.7,202.9,170.5,199,163.4z"/>
		<path class="st34" d="M162.3,148.1c-0.2,0.3-4,17.1-4.1,17.4c-3.1,5.1-4.8,11.1-4.8,17.3c0,16.8,12.1,30.5,27,30.5
			s27-13.7,27-30.5c0-5.8-4.8-28-8.6-34.7H164H162.3z"/>
		<g>
			<path class="st35" d="M183.5,174.8c1,1,1,2.6,0,3.5l-8.3,8.3c-1,1-2.6,1-3.5,0l-9.3-9.3c-1-1-1-2.6,0-3.5l8.3-8.3
				c1-1,2.6-1,3.5,0L183.5,174.8z"/>
			<path class="st35" d="M190.4,194.3c-0.8,0.8-2.1,0.8-3,0l-6.9-6.9c-0.8-0.8-0.8-2.1,0-3l7.7-7.7c0.8-0.8,2.1-0.8,3,0l6.9,6.9
				c0.8,0.8,0.8,2.1,0,3L190.4,194.3z"/>
			<path class="st35" d="M178.5,192.5c-0.7,0.7-1.7,0.7-2.2,0l-5.3-5.3c-0.7-0.7-0.7-1.7,0-2.2l6-6c0.7-0.7,1.7-0.7,2.2,0l5.3,5.3
				c0.7,0.7,0.7,1.7,0,2.2L178.5,192.5z"/>
			<path class="st35" d="M171,197.2c-0.7-0.7-0.7-1.6,0-2.2l5.2-5.2c0.7-0.7,1.6-0.7,2.2,0l5.9,5.9c0.7,0.7,0.7,1.6,0,2.2l-5.2,5.2
				c-0.7,0.7-1.6,0.7-2.2,0L171,197.2z"/>
		</g>
		<path class="st36" d="M202.7,166.1c1.8,4.6,2.7,8.8,2.7,13c0,16.8-11.2,30.5-25,30.5s-25-13.7-25-30.5c0-4.5,0.8-8.8,2.3-12.8
			c-2.8,5-4.4,10.6-4.4,16.5c0,16.8,12.1,30.5,27,30.5s27-13.7,27-30.5C207.5,177.5,205.9,172.1,202.7,166.1z"/>
		<path class="st37" d="M169.8,197.7c0,1.3-1.1,2.4-2.4,2.4c-1.3,0-2.4-1.1-2.4-2.4c0-1.3,1.1-2.4,2.4-2.4
			C168.8,195.3,169.8,196.3,169.8,197.7z"/>
		<path class="st37" d="M186.9,202.5c0,1.3-1.1,2.4-2.4,2.4c-1.3,0-2.4-1.1-2.4-2.4c0-1.3,1.1-2.4,2.4-2.4
			C185.8,200.1,186.9,201.1,186.9,202.5z"/>
		<path class="st37" d="M175.9,203.2c0,0.9-0.8,1.7-1.7,1.7s-1.7-0.8-1.7-1.7s0.8-1.7,1.7-1.7S175.9,202.2,175.9,203.2z"/>
		<path class="st37" d="M194.4,198.1c0,0.9-0.8,1.7-1.7,1.7s-1.7-0.8-1.7-1.7s0.8-1.7,1.7-1.7C193.6,196.4,194.4,197.1,194.4,198.1z
			"/>
		<path class="st37" d="M164,189c0,0.9-0.8,1.7-1.7,1.7s-1.7-0.8-1.7-1.7s0.8-1.7,1.7-1.7S164,188,164,189z"/>
		<path class="st37" d="M179.8,194.7c0,0.9-0.8,1.7-1.7,1.7s-1.7-0.8-1.7-1.7s0.8-1.7,1.7-1.7C179.1,193,179.8,193.7,179.8,194.7z"
			/>
		<path class="st37" d="M190.1,189c0,0.6-0.5,1.2-1.2,1.2c-0.6,0-1.2-0.5-1.2-1.2c0-0.6,0.5-1.2,1.2-1.2S190.1,188.3,190.1,189z"/>
		<path class="st37" d="M178.4,188.4c0,0.6-0.5,1.2-1.2,1.2c-0.6,0-1.2-0.5-1.2-1.2c0-0.6,0.5-1.2,1.2-1.2
			C177.9,187.3,178.4,187.8,178.4,188.4z"/>
		<path class="st37" d="M167.4,181c0,0.5-0.4,0.9-0.9,0.9s-0.9-0.4-0.9-0.9s0.4-0.9,0.9-0.9S167.4,180.5,167.4,181z"/>
		<path class="st37" d="M185.3,193.8c0,0.5-0.4,0.9-0.9,0.9s-0.9-0.4-0.9-0.9s0.4-0.9,0.9-0.9C184.9,193,185.3,193.4,185.3,193.8z"
			/>
		<path class="st37" d="M197.1,189.7c0,0.5-0.4,0.9-0.9,0.9s-0.9-0.4-0.9-0.9s0.4-0.9,0.9-0.9C196.7,188.8,197.1,189.2,197.1,189.7z
			"/>
		<path class="st37" d="M191.9,182.8c0,0.5-0.4,0.9-0.9,0.9s-0.9-0.4-0.9-0.9s0.4-0.9,0.9-0.9C191.5,181.9,191.9,182.3,191.9,182.8z
			"/>
		<path class="st37" d="M171.8,189.7c0,0.5-0.4,0.9-0.9,0.9s-0.9-0.4-0.9-0.9s0.4-0.9,0.9-0.9C171.4,188.8,171.8,189.2,171.8,189.7z
			"/>
		<path class="st37" d="M179.9,180.1c0,0.5-0.4,0.9-0.9,0.9s-0.9-0.4-0.9-0.9s0.4-0.9,0.9-0.9C179.5,179.2,179.9,179.6,179.9,180.1z
			"/>
		<path class="st31" d="M205.6,160.8c-3.1-5.3-7.8-20.1,5.1-30.6h-30.4h-30.4c15.5,12.7,4.9,31.1,3.9,32.7
			c-3.5,5.7-5.5,12.5-5.5,19.9c0,19.6,14.4,35.5,32.1,35.5s32.1-15.9,32.1-35.5C212.5,174.5,209.4,167.2,205.6,160.8z M180.4,213.3
			c-14.9,0-27-13.7-27-30.5c0-6.2,1.7-12.2,4.8-17.3c4.1-6.8,8-19.3,2.3-30.3h19.8H200c-5.6,10.7-2.2,22.4,1.2,28.1
			c4.3,7.2,6.2,13.4,6.2,19.5C207.5,199.7,195.4,213.3,180.4,213.3z"/>
		<path class="st29" d="M150.8,182.2c0-7.5,2-14.5,5.5-20.3c1-1.6,10.7-18.9-2.1-31.7h-4.3c15.5,12.7,4.9,31.1,3.9,32.7
			c-3.5,5.7-5.5,12.5-5.5,19.9c0,19.6,14.4,35.5,32.1,35.5c0.4,0,0.8,0,1.2,0C164.5,217.6,150.8,201.7,150.8,182.2z"/>
	</g>
</g>
</svg>
