<?xml version="1.0" encoding="utf-8"?>
<!-- Generator: Adobe Illustrator 23.0.0, SVG Export Plug-In . SVG Version: 6.00 Build 0)  -->
<svg version="1.1" id="Capa_1" xmlns="http://www.w3.org/2000/svg" xmlns:xlink="http://www.w3.org/1999/xlink" x="0px" y="0px"
	 viewBox="0 0 360 363" style="enable-background:new 0 0 360 363;" xml:space="preserve">
<style type="text/css">
	.st0{fill:#FFD084;}
	.st1{fill:none;stroke:#FFE1C0;stroke-width:0.7573;stroke-miterlimit:10;}
	.st2{fill:#FFD6A4;}
	.st3{fill:none;stroke:#FFE1C0;stroke-width:0.75;stroke-miterlimit:10;}
	.st4{fill:#FFE1C0;}
	.st5{fill:none;stroke:#FFD6A4;stroke-width:0.75;stroke-miterlimit:10;}
	.st6{fill:none;stroke:#FFEFE1;stroke-width:0.7478;stroke-miterlimit:10;}
	.st7{fill:#8F7CE5;}
	.st8{fill:#A6A6DD;}
	.st9{fill:#FFE5CC;}
	.st10{fill:none;stroke:#FFD6A4;stroke-miterlimit:10;}
	.st11{clip-path:url(#SVGID_2_);fill:#FFD8AE;}
	.st12{clip-path:url(#SVGID_4_);fill:#FFD8AE;}
	.st13{stroke:#FFFFFF;stroke-width:15.8259;stroke-linejoin:round;stroke-miterlimit:10;}
	.st14{fill:#FE9307;}
	.st15{fill:#FFFFFF;}
	.st16{fill:#CCCCFF;}
	.st17{fill:#3B000B;}
	.st18{opacity:0.9;}
	.st19{fill:#F9D89D;}
	.st20{fill:#FFF3EB;}
	.st21{opacity:0.8;fill:#E2B088;enable-background:new    ;}
	.st22{opacity:0.5;}
	.st23{fill:#FCBC06;}
	.st24{opacity:0.1;fill:#3B000B;enable-background:new    ;}
</style>
<g id="fondo">
	<g>
		<g id="Rectángulo_556">
			<rect y="-0.1" class="st0" width="360" height="363.3"/>
			<rect x="0.5" y="0.4" class="st0" width="359" height="362.2"/>
		</g>
		<path class="st1" d="M228.1,258.3c0,0,43.9-35.1,59.7-104.9c15.8-69.8-12.4-91.7-12.4-91.7S254.9,35.3,242,72.3
			c0,0-11.1,37.2-24.4,18.6c0,0-4-5.6-6.5-13c-2.5-7.3-11-10.5-11-10.5s-21.4-7.3-59.4,34.8c0,0-30.9,35.9-25.5,83.1
			s10.5,56.8,10.5,56.8L228.1,258.3z"/>
		<path class="st2" d="M225.9,271.1c0,0,43.1-35.1,58.6-104.9s-12.2-91.7-12.2-91.7s-20.1-26.4-32.8,10.6c0,0-10.9,37.2-23.9,18.6
			c0,0-3.9-5.6-6.4-13c-2.5-7.3-10.8-10.5-10.8-10.5s-21-7.3-58.2,34.8c0,0-30.3,35.9-25,83.1s10.3,56.8,10.3,56.8L225.9,271.1z"/>
		<path class="st3" d="M114.9,245.6c0,0-61.2-54.4-49.7-80.4s30.9-7.5,30.9-7.5s25.7,22.6,47.9,63.9L114.9,245.6z"/>
		<path class="st2" d="M115.8,249.7c0,0-54.1-58.6-42.6-84.6s30.9-7.5,30.9-7.5s25.7,22.6,47.9,63.9L115.8,249.7z"/>
		<path class="st4" d="M206.4,265c0,0,41.3-44.5,60.9-102.7c0,0,11.1-34-2.3-60c0,0-8.2-25.8-29.3,14.8S206.3,129,206.3,129
			s-8.1-59.5-44-15.2s-22.9,140.1-22.9,140.1L206.4,265z"/>
		<path class="st5" d="M191.1,241.3c0,0,54.3-73,68-155.4"/>
		<path class="st6" d="M195.3,266c0,0,33.9-33.6,51.3-78.9c0,0,9.9-26.5,0.3-47.4c0,0-5.5-20.6-23.5,10.6s-23.4,8.4-23.4,8.4
			s-4.3-47.2-33.9-13.5s-22.8,109.6-22.8,109.6L195.3,266z"/>
		<g>
			
				<ellipse transform="matrix(1 -1.876236e-03 1.876236e-03 1 -0.526 0.338)" class="st7" cx="179.9" cy="280.5" rx="102.6" ry="21.4"/>
			<polygon class="st7" points="282.5,280.3 282.7,266.4 77.5,266.8 77.3,280.7 			"/>
			
				<ellipse transform="matrix(1 -1.876236e-03 1.876236e-03 1 -0.4999 0.3384)" class="st8" cx="180.1" cy="266.6" rx="102.6" ry="21.4"/>
		</g>
		<path class="st3" d="M239.7,220.4c0,0,41.8-19.1,39.9,9s-53,30.9-53,30.9s-15.5-0.3-14.5-10.3C213.2,240,218.5,230.9,239.7,220.4z
			"/>
		<path class="st9" d="M229.9,222.9c0,0,37.6-26.4,40.9,1.5c3.2,27.9-46.4,40.1-46.4,40.1S209,267,208.2,257
			C207.3,247,211,237.1,229.9,222.9z"/>
		<path class="st10" d="M208.2,257c0,0,44.4-19.6,65.3-41.4"/>
		<g>
			<g>
				<g>
					<g>
						<defs>
							<path id="SVGID_1_" d="M229.9,222.9c0,0,37.6-26.4,40.9,1.5c3.2,27.9-46.4,40.1-46.4,40.1S209,267,208.2,257
								C207.3,247,211,237.1,229.9,222.9z"/>
						</defs>
						<clipPath id="SVGID_2_">
							<use xlink:href="#SVGID_1_"  style="overflow:visible;"/>
						</clipPath>
						<path class="st11" d="M240.9,211.5c0,0-27.3,46.6,4.8,50c21.5,2.3-22.9,11.5-22.9,11.5l-20.3-4.6l-1.3-29l20-22.9L240.9,211.5
							z"/>
					</g>
				</g>
			</g>
		</g>
		<g>
			<path class="st9" d="M128.2,225.7c0,0-34.9-21.9-37.3,9.5c0,0,6.5,28.1,39.9,22.4C164.1,251.8,128.2,225.7,128.2,225.7z"/>
		</g>
		<path class="st10" d="M143,248.3c0,0-40.9-21-62.4-13.1"/>
		<g>
			<g>
				<g>
					<g>
						<defs>
							<path id="SVGID_3_" d="M128.2,225.7c0,0-34.9-21.9-37.3,9.5c0,0,6.5,28.1,39.9,22.4C164.1,251.8,128.2,225.7,128.2,225.7z"/>
						</defs>
						<clipPath id="SVGID_4_">
							<use xlink:href="#SVGID_3_"  style="overflow:visible;"/>
						</clipPath>
						<path class="st12" d="M124.1,218.3h-4h-3.6c0,0,17.6,26,9.4,34.6c-8.2,8.6-9.4,6.7-9.4,6.7l19.6,1.8l15.9-7.2l1.2-14.3
							l-16-11.9L124.1,218.3z"/>
					</g>
				</g>
			</g>
		</g>
		<path class="st3" d="M84.5,161.6c0,0,21.6,45.3,54.6,70.4"/>
		<path class="st3" d="M103.9,163.3c0,0-5.4,4-7,10.8"/>
		<path class="st3" d="M108.2,171.4c0,0-5.3,5.3-6,14.2"/>
		<path class="st3" d="M96.9,190.4c0,0-6.3-0.5-14.9,3.7"/>
		<path class="st3" d="M102.2,196.8c0,0-10.9,0.4-15.6,3.7"/>
		<path class="st2" d="M109.5,107.7c0.1,4-3.4,7.8-6.2,10.4c-1-2.4-1.9-5-2-7.6c-0.1-2,0.7-4,2.2-5.3c0.5-0.4,1-0.8,1.7-0.9
			c0.4-0.1,0.7-0.2,1.1-0.2C108,104.3,109.4,105.9,109.5,107.7z"/>
		<path class="st2" d="M81.9,123.8c-3.1,0.3-9-1.1-11.6-3.2c-2.3-1.7-2.3-2.2-3.4-4.9c-1-2.7,0.6-5.9,3.6-6.2
			c1.5-0.2,3.1,0.2,4.3,1.1C79.1,113.4,82.6,118.4,81.9,123.8z"/>
		<path class="st4" d="M105.6,142.4c-1.9,1.1-5-0.2-4.7-2.6c-0.2-2.8,4.1-3.8,5.6-1.6C107.5,139.5,106.9,141.6,105.6,142.4z"/>
		<path class="st4" d="M319.5,85.1c-2.6,1.4-6.6-0.3-6.3-3.5c-0.2-3.8,5.5-5.1,7.4-2.1C322,81.2,321.3,83.9,319.5,85.1z"/>
		<path class="st2" d="M328.9,297.3c-3.1,1.7-7.9-0.3-7.6-4.2c-0.3-4.5,6.6-6.1,8.9-2.5C331.9,292.6,331,295.9,328.9,297.3z"/>
		<path class="st4" d="M286.4,309c-2,1.1-5.2-0.2-5-2.8c-0.2-3,4.3-4,5.8-1.7C288.4,305.9,287.9,308.1,286.4,309z"/>
		<path class="st2" d="M61.9,244.7c-2.6,1.4-6.6-0.3-6.3-3.5c-0.2-3.8,5.5-5.1,7.4-2.1C64.4,240.8,63.7,243.5,61.9,244.7z"/>
		
			<ellipse transform="matrix(0.3506 -0.9365 0.9365 0.3506 -94.4314 226.7204)" class="st9" cx="116.3" cy="181.5" rx="2.7" ry="1.7"/>
		
			<ellipse transform="matrix(0.3506 -0.9365 0.9365 0.3506 -102.7927 235.0518)" class="st9" cx="118.1" cy="191.6" rx="2.7" ry="1.7"/>
		
			<ellipse transform="matrix(0.3506 -0.9365 0.9365 0.3506 -131.656 232.9896)" class="st0" cx="102.2" cy="211.4" rx="3" ry="1.8"/>
	</g>
</g>
<g>
	<path class="st13" d="M225.2,160.2c0-9-8.4-16.3-18.8-16.3c-10,0-18.1,6.8-18.7,15.2H178l0.3-17.6l-3.2-0.1l-0.3,17.7h-32.1l3,89.6
		c0.2,5.5,5.4,10,11.8,10h34.1h1.8h0.2c6.3,0,11.4-4.3,11.6-9.8v-0.2l0,0l2.4-72.4C217.5,175.8,225.2,168.7,225.2,160.2z"/>
	<g>
		<g>
			<path class="st14" d="M225.2,160.2c0,9-8.4,16.3-18.8,16.3c-10.4,0-18.8-7.3-18.8-16.3s8.4-16.3,18.8-16.3
				C216.7,143.9,225.2,151.1,225.2,160.2z"/>
			<path class="st15" d="M222.1,160.2c0,7.5-7,13.6-15.7,13.6s-15.7-6.1-15.7-13.6s7-13.6,15.7-13.6S222.1,152.6,222.1,160.2z"/>
			<g>
				<g>
					<g>
						<g>
							<g>
								<g>
									<path class="st14" d="M206.4,148c-2.2,0-2.6,0.2-2.6,0.2c-0.8,0.3-1.3,1.1-1,1.8l3.1,6.9c0.3,0.8,0.7,0.8,1,0l3.1-6.9
										c0.3-0.8-0.2-1.6-1-1.8C208.9,148.2,208.5,148,206.4,148z"/>
								</g>
							</g>
						</g>
						<g>
							<g>
								<g>
									<path class="st14" d="M206.4,172.2c2.2,0,2.6-0.2,2.6-0.2c0.8-0.3,1.3-1.1,1-1.8l-3.1-6.9c-0.3-0.8-0.8-0.8-1,0l-3.1,6.9
										c-0.3,0.8,0.2,1.6,1,1.8C203.8,172.1,204.2,172.2,206.4,172.2z"/>
								</g>
							</g>
						</g>
					</g>
					<g>
						<g>
							<g>
								<g>
									<path class="st14" d="M220.3,160.2c0-1.9-0.2-2.3-0.2-2.3c-0.3-0.7-1.3-1.1-2.1-0.9l-8,2.7c-0.9,0.3-0.9,0.7,0,0.9l8,2.7
										c0.9,0.3,1.8-0.2,2.1-0.9C220.2,162.3,220.3,162,220.3,160.2z"/>
								</g>
							</g>
						</g>
						<g>
							<g>
								<g>
									<path class="st14" d="M192.4,160.2c0,1.9,0.2,2.3,0.2,2.3c0.3,0.7,1.3,1.1,2.1,0.9l8-2.7c0.9-0.3,0.9-0.6,0-0.9l-8-2.7
										c-0.9-0.3-1.8,0.2-2.1,0.9C192.6,157.9,192.4,158.3,192.4,160.2z"/>
								</g>
							</g>
						</g>
					</g>
				</g>
				<g>
					<g>
						<g>
							<g>
								<g>
									<path class="st14" d="M216.2,151.6c-1.5-1.3-1.9-1.5-1.9-1.5c-0.8-0.3-1.8,0-2.2,0.7l-3.5,6.8c-0.4,0.7-0.1,1,0.7,0.6
										l7.8-3c0.8-0.3,1.2-1.2,0.8-1.9C217.9,153.2,217.8,152.9,216.2,151.6z"/>
								</g>
							</g>
						</g>
						<g>
							<g>
								<g>
									<path class="st14" d="M196.5,168.7c1.5,1.3,1.9,1.5,1.9,1.5c0.8,0.3,1.8,0,2.2-0.7l3.5-6.8c0.4-0.7,0.1-1-0.7-0.6l-7.8,3
										c-0.8,0.3-1.2,1.2-0.8,1.9C194.8,167,195,167.4,196.5,168.7z"/>
								</g>
							</g>
						</g>
					</g>
					<g>
						<g>
							<g>
								<g>
									<path class="st14" d="M216.2,168.7c1.5-1.3,1.7-1.6,1.7-1.6c0.4-0.7,0-1.6-0.8-1.9l-7.8-3c-0.8-0.3-1.1-0.1-0.7,0.6
										l3.5,6.8c0.4,0.7,1.4,1,2.2,0.7C214.3,170.1,214.7,170,216.2,168.7z"/>
								</g>
							</g>
						</g>
						<g>
							<g>
								<g>
									<path class="st14" d="M196.5,151.6c-1.5,1.3-1.7,1.6-1.7,1.6c-0.4,0.7,0,1.6,0.8,1.9l7.8,3c0.8,0.3,1.1,0.1,0.7-0.6
										l-3.5-6.8c-0.4-0.7-1.4-1-2.2-0.7C198.4,150.1,198,150.3,196.5,151.6z"/>
								</g>
							</g>
						</g>
					</g>
				</g>
			</g>
		</g>
		<g>
			<path class="st16" d="M193.5,258.7h-35.8c-6.4,0-11.6-4.4-11.8-10l-3-89.6h65.5l-3,89.6C205.1,254.3,199.9,258.7,193.5,258.7z"/>
			<g>
				<g>
					<polygon class="st17" points="173.3,241.9 175.2,141.4 178.4,141.4 176.5,242 					"/>
				</g>
			</g>
			<g class="st18">
				<path class="st19" d="M149.3,163.2l1.4,68.5c0.3,10.4,10.4,18.9,22.5,18.9h4.9c12,0,22.1-8.5,22.5-18.9l1.4-68.5H149.3z"/>
				<rect x="149.3" y="163.2" class="st20" width="52.6" height="3.7"/>
				<path class="st21" d="M150.1,199.6l0.7,32c0.3,10.4,10.4,18.9,22.5,18.9h4.9c12,0,22.1-8.5,22.5-18.9l0.6-32H150.1z"/>
			</g>
			<g>
				<g class="st22">
					<g>
						<g>
							<path class="st23" d="M177.4,236.6l21.6-20.9c-6.6-5.2-16.9-4.7-22.8,1C170.2,222.7,170.7,231.5,177.4,236.6z"/>
							<path class="st15" d="M179.1,235l18-17.4c-5.6-4.3-14.1-3.9-19.1,0.9C173.1,223.2,173.6,230.6,179.1,235z"/>
						</g>
						<path class="st23" d="M179.2,219.3c-1.2,1.2-1.4,1.5-1.4,1.5c-0.3,0.6,0.1,1.4,0.8,1.6l6.9,2.3c0.7,0.3,1,0,0.6-0.6l-3.4-5.6
							c-0.4-0.6-1.3-0.8-2-0.5C180.8,218,180.5,218.1,179.2,219.3z"/>
						<path class="st23" d="M176.2,226.8c0.1,1.6,0.3,1.9,0.3,1.9c0.3,0.6,1.2,1,1.9,0.7l6.7-2.6c0.7-0.3,0.7-0.6,0-0.8l-7-1.9
							c-0.7-0.2-1.6,0.2-1.8,0.9C176.2,224.9,176.1,225.2,176.2,226.8z"/>
						<path class="st23" d="M187.5,215.8c-1.9,0.1-2.2,0.3-2.2,0.3c-0.7,0.3-1,1-0.8,1.6l3,5.8c0.3,0.6,0.7,0.6,0.9,0l2.2-6.1
							c0.2-0.6-0.2-1.4-1-1.6C189.7,215.8,189.4,215.7,187.5,215.8z"/>
						<path class="st23" d="M178.6,232.6c0,0,0.2,0.3,1.6,1.4l6.3-6.1c-0.1-0.1-0.4-0.1-0.7,0.1l-6.5,2.9
							C178.5,231.3,178.2,232,178.6,232.6z"/>
						<path class="st23" d="M192.6,218l-2.6,6c-0.2,0.3-0.2,0.5,0,0.6l6.3-6.1c-1.4-1-1.7-1.2-1.7-1.2
							C193.7,217,192.9,217.4,192.6,218z"/>
					</g>
					<g>
						<g>
							<path class="st23" d="M152.1,194.3l20.9,21.6c5.2-6.6,4.7-16.9-1-22.8C166,187.1,157.2,187.6,152.1,194.3z"/>
							<path class="st15" d="M153.7,196l17.4,18c4.3-5.6,3.9-14.1-0.9-19.1C165.5,190,158.1,190.5,153.7,196z"/>
						</g>
						<path class="st23" d="M169.4,196.1c-1.2-1.2-1.5-1.4-1.5-1.4c-0.6-0.3-1.4,0.1-1.6,0.8l-2.3,6.9c-0.3,0.7,0,1,0.6,0.6l5.6-3.4
							c0.6-0.4,0.8-1.3,0.5-2C170.7,197.7,170.6,197.4,169.4,196.1z"/>
						<path class="st23" d="M161.9,193.1c-1.6,0.1-1.9,0.3-1.9,0.3c-0.6,0.3-1,1.2-0.7,1.9l2.6,6.7c0.3,0.7,0.6,0.7,0.8,0l1.9-7
							c0.2-0.7-0.2-1.6-0.9-1.8C163.8,193.1,163.5,193,161.9,193.1z"/>
						<path class="st23" d="M172.9,204.4c-0.1-1.9-0.3-2.2-0.3-2.2c-0.3-0.7-1-1-1.6-0.8l-5.8,3c-0.6,0.3-0.6,0.7,0,0.9l6.1,2.2
							c0.6,0.2,1.4-0.2,1.6-1C172.9,206.6,173,206.3,172.9,204.4z"/>
						<path class="st23" d="M156.1,195.5c0,0-0.3,0.2-1.4,1.6l6.1,6.3c0.1-0.1,0.1-0.4-0.1-0.7l-2.9-6.5
							C157.4,195.4,156.7,195.1,156.1,195.5z"/>
						<path class="st23" d="M170.7,209.5l-6-2.6c-0.3-0.2-0.5-0.2-0.6,0l6.1,6.3c1-1.4,1.2-1.7,1.2-1.7
							C171.7,210.6,171.3,209.8,170.7,209.5z"/>
					</g>
					<g>
						<g>
							<path class="st23" d="M193.1,172.8L173,194.7c7,4.8,17.1,3.8,22.7-2.3C201.3,186.4,200.1,177.5,193.1,172.8z"/>
							<path class="st15" d="M191.5,174.5l-16.8,18.4c5.8,4,14.4,3.2,19-1.9C198.3,185.9,197.3,178.6,191.5,174.5z"/>
						</g>
						<path class="st23" d="M192.5,190.2c1.2-1.3,1.3-1.6,1.3-1.6c0.2-0.6-0.2-1.4-0.9-1.6l-7-1.9c-0.7-0.3-1,0-0.6,0.6l3.8,5.5
							c0.4,0.5,1.3,0.8,2,0.4C191,191.6,191.3,191.4,192.5,190.2z"/>
						<path class="st23" d="M195,182.5c-0.2-1.6-0.4-1.9-0.4-1.9c-0.4-0.6-1.2-0.9-1.9-0.6l-6.5,2.9c-0.7,0.3-0.7,0.6,0.1,0.8
							l7.1,1.6c0.8,0.2,1.5-0.3,1.7-1C195.1,184.5,195.2,184.1,195,182.5z"/>
						<path class="st23" d="M184.5,194c1.8-0.2,2.2-0.3,2.2-0.3c0.7-0.3,1-1,0.7-1.6l-3.4-5.6c-0.3-0.6-0.7-0.6-0.9,0.1l-1.8,6.2
							c-0.2,0.7,0.3,1.3,1.1,1.5C182.3,194.2,182.6,194.2,184.5,194z"/>
						<path class="st23" d="M192.2,176.8c0,0-0.2-0.3-1.6-1.3l-5.9,6.4c0.1,0.1,0.4,0.1,0.7-0.2l6.3-3.3
							C192.4,178.2,192.6,177.4,192.2,176.8z"/>
						<path class="st23" d="M179.3,192.2l2.2-6.1c0.1-0.3,0.1-0.5,0-0.6l-5.8,6.4c1.5,1,1.8,1.1,1.8,1.1
							C178.2,193.1,179,192.8,179.3,192.2z"/>
					</g>
				</g>
			</g>
			<path class="st24" d="M195.1,159l-3.4,99.6h2c6.3,0,11.4-4.3,11.6-9.8l3-89.8L195.1,159L195.1,159z"/>
		</g>
	</g>
</g>
</svg>
