<?xml version="1.0" encoding="utf-8"?>
<!-- Generator: Adobe Illustrator 23.0.0, SVG Export Plug-In . SVG Version: 6.00 Build 0)  -->
<svg version="1.1" id="Capa_1" xmlns="http://www.w3.org/2000/svg" xmlns:xlink="http://www.w3.org/1999/xlink" x="0px" y="0px"
	 viewBox="0 0 360 363" style="enable-background:new 0 0 360 363;" xml:space="preserve">
<style type="text/css">
	.st0{fill:#FFD084;}
	.st1{fill:none;stroke:#FFE1C0;stroke-width:0.7573;stroke-miterlimit:10;}
	.st2{fill:#FFD6A4;}
	.st3{fill:none;stroke:#FFE1C0;stroke-width:0.75;stroke-miterlimit:10;}
	.st4{fill:#FFE1C0;}
	.st5{fill:none;stroke:#FFD6A4;stroke-width:0.75;stroke-miterlimit:10;}
	.st6{fill:none;stroke:#FFEFE1;stroke-width:0.7478;stroke-miterlimit:10;}
	.st7{fill:#8F7CE5;}
	.st8{fill:#A6A6DD;}
	.st9{fill:#FFE5CC;}
	.st10{fill:none;stroke:#FFD6A4;stroke-miterlimit:10;}
	.st11{clip-path:url(#SVGID_2_);fill:#FFD8AE;}
	.st12{clip-path:url(#SVGID_4_);fill:#FFD8AE;}
	.st13{fill:none;stroke:#FFFFFF;stroke-width:16.8287;stroke-linejoin:round;stroke-miterlimit:10;}
	.st14{fill:#7D990A;}
	.st15{fill:#FAFFCE;}
	.st16{fill:#93BD03;}
	.st17{fill:#C6DA45;}
	.st18{fill:#BEBEF4;}
	.st19{fill:#CCCCFF;}
	.st20{fill:#FFE8C0;}
	.st21{fill:#E6FFF0;}
	.st22{display:none;}
	.st23{display:inline;}
	.st24{opacity:0.3;}
	.st25{fill:#FFE2AE;}
	.st26{fill:#BDE02B;}
	.st27{display:inline;fill:#93BD03;}
	.st28{opacity:0.3;fill:#FFFEFF;enable-background:new    ;}
	.st29{opacity:0.79;}
	.st30{opacity:0.4;fill:#A7B7D8;enable-background:new    ;}
</style>
<g id="fondo">
	<g>
		<g id="Rectángulo_556">
			<rect y="-0.1" class="st0" width="360" height="363.3"/>
			<rect x="0.5" y="0.4" class="st0" width="359" height="362.2"/>
		</g>
		<path class="st1" d="M228.1,258.3c0,0,43.9-35.1,59.7-104.9c15.8-69.8-12.4-91.7-12.4-91.7S254.9,35.3,242,72.3
			c0,0-11.1,37.2-24.4,18.6c0,0-4-5.6-6.5-13c-2.5-7.3-11-10.5-11-10.5s-21.4-7.3-59.4,34.8c0,0-30.9,35.9-25.5,83.1
			s10.5,56.8,10.5,56.8L228.1,258.3z"/>
		<path class="st2" d="M225.9,271.1c0,0,43.1-35.1,58.6-104.9s-12.2-91.7-12.2-91.7s-20.1-26.4-32.8,10.6c0,0-10.9,37.2-23.9,18.6
			c0,0-3.9-5.6-6.4-13c-2.5-7.3-10.8-10.5-10.8-10.5s-21-7.3-58.2,34.8c0,0-30.3,35.9-25,83.1s10.3,56.8,10.3,56.8L225.9,271.1z"/>
		<path class="st3" d="M114.9,245.6c0,0-61.2-54.4-49.7-80.4s30.9-7.5,30.9-7.5s25.7,22.6,47.9,63.9L114.9,245.6z"/>
		<path class="st2" d="M115.8,249.7c0,0-54.1-58.6-42.6-84.6s30.9-7.5,30.9-7.5s25.7,22.6,47.9,63.9L115.8,249.7z"/>
		<path class="st4" d="M206.4,265c0,0,41.3-44.5,60.9-102.7c0,0,11.1-34-2.3-60c0,0-8.2-25.8-29.3,14.8S206.3,129,206.3,129
			s-8.1-59.5-44-15.2s-22.9,140.1-22.9,140.1L206.4,265z"/>
		<path class="st5" d="M191.1,241.3c0,0,54.3-73,68-155.4"/>
		<path class="st6" d="M195.3,266c0,0,33.9-33.6,51.3-78.9c0,0,9.9-26.5,0.3-47.4c0,0-5.5-20.6-23.5,10.6s-23.4,8.4-23.4,8.4
			s-4.3-47.2-33.9-13.5s-22.8,109.6-22.8,109.6L195.3,266z"/>
		<g>
			
				<ellipse transform="matrix(1 -1.876215e-03 1.876215e-03 1 -0.526 0.338)" class="st7" cx="179.9" cy="280.5" rx="102.6" ry="21.4"/>
			<polygon class="st7" points="282.5,280.3 282.7,266.4 77.5,266.8 77.3,280.7 			"/>
			
				<ellipse transform="matrix(1 -1.876215e-03 1.876215e-03 1 -0.4999 0.3384)" class="st8" cx="180.1" cy="266.6" rx="102.6" ry="21.4"/>
		</g>
		<path class="st3" d="M239.7,220.4c0,0,41.8-19.1,39.9,9s-53,30.9-53,30.9s-15.5-0.3-14.5-10.3C213.2,240,218.5,230.9,239.7,220.4z
			"/>
		<path class="st9" d="M229.9,222.9c0,0,37.6-26.4,40.9,1.5c3.2,27.9-46.4,40.1-46.4,40.1S209,267,208.2,257
			C207.3,247,211,237.1,229.9,222.9z"/>
		<path class="st10" d="M208.2,257c0,0,44.4-19.6,65.3-41.4"/>
		<g>
			<g>
				<g>
					<g>
						<g>
							<g>
								<g>
									<defs>
										<path id="SVGID_1_" d="M229.9,222.9c0,0,37.6-26.4,40.9,1.5c3.2,27.9-46.4,40.1-46.4,40.1S209,267,208.2,257
											C207.3,247,211,237.1,229.9,222.9z"/>
									</defs>
									<clipPath id="SVGID_2_">
										<use xlink:href="#SVGID_1_"  style="overflow:visible;"/>
									</clipPath>
									<path class="st11" d="M240.9,211.5c0,0-27.3,46.6,4.8,50c21.5,2.3-22.9,11.5-22.9,11.5l-20.3-4.6l-1.3-29l20-22.9
										L240.9,211.5z"/>
								</g>
							</g>
						</g>
					</g>
				</g>
			</g>
		</g>
		<g>
			<path class="st9" d="M128.2,225.7c0,0-34.9-21.9-37.3,9.5c0,0,6.5,28.1,39.9,22.4C164.1,251.8,128.2,225.7,128.2,225.7z"/>
		</g>
		<path class="st10" d="M143,248.3c0,0-40.9-21-62.4-13.1"/>
		<g>
			<g>
				<g>
					<g>
						<g>
							<g>
								<g>
									<defs>
										<path id="SVGID_3_" d="M128.2,225.7c0,0-34.9-21.9-37.3,9.5c0,0,6.5,28.1,39.9,22.4C164.1,251.8,128.2,225.7,128.2,225.7z
											"/>
									</defs>
									<clipPath id="SVGID_4_">
										<use xlink:href="#SVGID_3_"  style="overflow:visible;"/>
									</clipPath>
									<path class="st12" d="M124.1,218.3h-4h-3.6c0,0,17.6,26,9.4,34.6c-8.2,8.6-9.4,6.7-9.4,6.7l19.6,1.8l15.9-7.2l1.2-14.3
										l-16-11.9L124.1,218.3z"/>
								</g>
							</g>
						</g>
					</g>
				</g>
			</g>
		</g>
		<path class="st3" d="M84.5,161.6c0,0,21.6,45.3,54.6,70.4"/>
		<path class="st3" d="M103.9,163.3c0,0-5.4,4-7,10.8"/>
		<path class="st3" d="M108.2,171.4c0,0-5.3,5.3-6,14.2"/>
		<path class="st3" d="M96.9,190.4c0,0-6.3-0.5-14.9,3.7"/>
		<path class="st3" d="M102.2,196.8c0,0-10.9,0.4-15.6,3.7"/>
		<path class="st2" d="M109.5,107.7c0.1,4-3.4,7.8-6.2,10.4c-1-2.4-1.9-5-2-7.6c-0.1-2,0.7-4,2.2-5.3c0.5-0.4,1-0.8,1.7-0.9
			c0.4-0.1,0.7-0.2,1.1-0.2C108,104.3,109.4,105.9,109.5,107.7z"/>
		<path class="st2" d="M81.9,123.8c-3.1,0.3-9-1.1-11.6-3.2c-2.3-1.7-2.3-2.2-3.4-4.9c-1-2.7,0.6-5.9,3.6-6.2
			c1.5-0.2,3.1,0.2,4.3,1.1C79.1,113.4,82.6,118.4,81.9,123.8z"/>
		<path class="st4" d="M105.6,142.4c-1.9,1.1-5-0.2-4.7-2.6c-0.2-2.8,4.1-3.8,5.6-1.6C107.5,139.5,106.9,141.6,105.6,142.4z"/>
		<path class="st4" d="M319.5,85.1c-2.6,1.4-6.6-0.3-6.3-3.5c-0.2-3.8,5.5-5.1,7.4-2.1C322,81.2,321.3,83.9,319.5,85.1z"/>
		<path class="st2" d="M328.9,297.3c-3.1,1.7-7.9-0.3-7.6-4.2c-0.3-4.5,6.6-6.1,8.9-2.5C331.9,292.6,331,295.9,328.9,297.3z"/>
		<path class="st4" d="M286.4,309c-2,1.1-5.2-0.2-5-2.8c-0.2-3,4.3-4,5.8-1.7C288.4,305.9,287.9,308.1,286.4,309z"/>
		<path class="st2" d="M61.9,244.7c-2.6,1.4-6.6-0.3-6.3-3.5c-0.2-3.8,5.5-5.1,7.4-2.1C64.4,240.8,63.7,243.5,61.9,244.7z"/>
		
			<ellipse transform="matrix(0.3506 -0.9365 0.9365 0.3506 -94.4045 226.6568)" class="st9" cx="116.2" cy="181.4" rx="2.7" ry="1.7"/>
		<ellipse transform="matrix(0.3506 -0.9365 0.9365 0.3506 -102.861 235.012)" class="st9" cx="118" cy="191.7" rx="2.7" ry="1.7"/>
		<ellipse transform="matrix(0.3506 -0.9365 0.9365 0.3506 -131.5441 232.97)" class="st0" cx="102.2" cy="211.3" rx="3" ry="1.8"/>
	</g>
</g>
<g>
	<path class="st13" d="M227.5,174.2c-5-9.8-16.7-14-26.7-9.7l2,3.9l0,0l4.8,9.5c-7.7-1.2-18.9-2.4-31.4-2.4c-23.2,0-42,4.4-42,4.4
		s4.3,54.7,12.4,78.5l1.8,0.4c18.4,3.8,37.4,3.8,55.8,0l1.8-0.4c5.3-15.6,8.9-44.6,10.9-62.6l2.3,4.5l0,0l0.7,1.3
		C229,196,232.5,184,227.5,174.2z"/>
	<g>
		<g>
			<g>
				<path class="st14" d="M227.5,174.2c5,9.8,1.4,21.7-7.9,27.3l-18.8-37C210.8,160.3,222.5,164.4,227.5,174.2z"/>
			</g>
			<g>
				<path class="st15" d="M226.3,174.9c4.6,9.1,1.4,20.2-7.3,25.3l-17.5-34.4C210.8,161.9,221.6,165.8,226.3,174.9z"/>
			</g>
			<g>
				<path class="st16" d="M223.7,176.2c0.3,0.5,0.5,1,0.7,1.6c1.3,3.3,1.4,6.7,0.6,9.9c-0.2,0.9-0.5,1.8-0.9,2.6
					c-1.3,3-3.5,5.6-6.4,7.4l-14.9-29.2c3.3-1.4,6.9-1.6,10.2-0.7c0.9,0.2,1.8,0.5,2.6,0.9c3.1,1.3,5.8,3.6,7.6,6.7
					C223.4,175.6,223.5,175.9,223.7,176.2z"/>
			</g>
			<g>
				<path class="st17" d="M219,178.6c0.3,0.5,0.5,1,0.7,1.6c0.6,1.9,0.7,4,0.3,5.9c-0.2,0.9-0.5,1.8-0.9,2.6
					c-0.8,1.7-2.1,3.2-3.8,4.3l-10.1-19.9c2-0.7,4.2-0.9,6.2-0.4c0.9,0.2,1.8,0.5,2.6,0.9c1.8,0.9,3.4,2.3,4.5,4.1
					C218.7,177.9,218.9,178.2,219,178.6z"/>
			</g>
			<g>
				<g>
					
						<rect x="209.5" y="178.1" transform="matrix(0.8913 -0.4535 0.4535 0.8913 -57.6673 118.4228)" class="st15" width="17.2" height="2.7"/>
				</g>
			</g>
			<g>
				<g>
					<polygon class="st15" points="216.2,166.7 215.6,168.6 210.9,183.1 210.7,183.8 208.9,180.4 213.6,165.9 					"/>
				</g>
				<g>
					<polygon class="st15" points="227.3,188.4 226.4,191 224.1,190.3 219.1,188.6 211.9,186.3 210.1,182.8 210.9,183.1 
						212.8,183.7 220,186 					"/>
				</g>
			</g>
		</g>
		<g>
			<path class="st18" d="M176.2,179.8h-42c0,0,4.3,54.7,12.4,78.5l1.8,0.4c18.4,3.8,37.4,3.8,55.8,0l1.8-0.4
				c8-23.8,12.4-78.5,12.4-78.5L176.2,179.8L176.2,179.8z"/>
			<path class="st19" d="M176.2,179.8h-35.4c0,0,3.6,50.4,10.4,72.4l1.5,0.3c15.5,3.5,31.5,3.5,47,0l1.5-0.3
				c6.8-22,10.4-72.4,10.4-72.4L176.2,179.8L176.2,179.8z"/>
			<g>
				<g>
					<path class="st20" d="M176.2,191.1h-31c0,0,3.2,40.3,9.1,57.9l1.3,0.3c13.6,2.8,27.6,2.8,41.1,0l1.3-0.3
						c5.9-17.6,9.1-57.9,9.1-57.9H176.2z"/>
				</g>
				<path class="st21" d="M192.7,242c-3.8,0-3.8,5.9,0,5.9C196.5,247.8,196.5,242,192.7,242z"/>
				<g class="st22">
					<g class="st23">
						<circle class="st14" cx="182.3" cy="233.7" r="15.3"/>
					</g>
					<g class="st23">
						<ellipse class="st15" cx="182.3" cy="233.7" rx="14.3" ry="14.3"/>
					</g>
					<g class="st23">
						<ellipse class="st16" cx="182.3" cy="233.7" rx="12.1" ry="12.1"/>
					</g>
					<g class="st23">
						<path class="st17" d="M190.6,233.7c0,4.6-3.7,8.3-8.3,8.3s-8.3-3.7-8.3-8.3s3.7-8.3,8.3-8.3S190.6,229.1,190.6,233.7z"/>
					</g>
					<g class="st23">
						<g>
							<rect x="181.3" y="220.2" class="st15" width="2" height="27.4"/>
						</g>
						<g>
							<rect x="168.6" y="232.9" class="st15" width="27.4" height="2"/>
						</g>
					</g>
					<g class="st23">
						<g>
							
								<rect x="168.6" y="232.9" transform="matrix(0.7071 -0.7071 0.7071 0.7071 -111.9833 197.4165)" class="st15" width="27.4" height="2"/>
						</g>
						<g>
							
								<rect x="181.3" y="220.2" transform="matrix(0.7071 -0.7071 0.7071 0.7071 -111.986 197.4212)" class="st15" width="2" height="27.4"/>
						</g>
						<g class="st24">
							<circle class="st14" cx="182.3" cy="233.7" r="15.3"/>
						</g>
					</g>
				</g>
				<path class="st25" d="M207.2,191.1c0,0-13.9,3.2-31,3.2s-31-3.2-31-3.2s13.9-3.2,31-3.2S207.2,191.1,207.2,191.1z"/>
				<path class="st21" d="M187.5,197.2c-3.8,0-3.8,5.9,0,5.9C191.3,203.1,191.3,197.2,187.5,197.2z"/>
				<path class="st21" d="M154.2,197c-3.8,0-3.8,5.9,0,5.9C158,202.8,158,197,154.2,197z"/>
				<path class="st21" d="M178.1,212.5c-2.2,0-2.2,3.4,0,3.4S180.3,212.5,178.1,212.5z"/>
				<path class="st21" d="M176.2,199c-2.2,0-2.2,3.4,0,3.4S178.4,199,176.2,199z"/>
				<path class="st21" d="M161.4,242.1c-2.2,0-2.2,3.4,0,3.4C163.5,245.5,163.5,242.1,161.4,242.1z"/>
				<path class="st21" d="M154.5,212.2c-2.2,0-2.2,3.4,0,3.4C156.7,215.6,156.7,212.2,154.5,212.2z"/>
			</g>
		</g>
		<g class="st22">
			<g class="st23">
				<g>
					<path class="st26" d="M199.1,203.5L186.3,228c0,0-4-9.3-2.6-12.7l0,0c1.4-3.4,3.6-5.2,3.6-5.2l1,1.9c0-0.2-0.5-3.5,2-5.8
						l1.5,2.3l0,0C191.9,208.3,192.1,203.9,199.1,203.5z"/>
					<path class="st16" d="M199.1,203.5l-5.5,10.6l-1.7-5.6l0,0C191.9,208.3,192.1,203.9,199.1,203.5z"/>
					<path class="st16" d="M191.8,217.6l-3.3,6.2l-4.8-8.5l0,0c1.4-3.4,3.6-5.2,3.6-5.2l1,1.9L191.8,217.6z"/>
				</g>
				<g>
					<path class="st26" d="M199.1,203.5L186.3,228c0,0,9.9-2,12-5.1l0,0c2-3.1,2.2-5.9,2.2-5.9l-2.2,0.2c0.1-0.1,3.2-1.5,3.6-5
						l-2.8,0.1l0,0C199.4,212.2,202.9,209.5,199.1,203.5z"/>
					<path class="st16" d="M199.1,203.5l-5.5,10.6l5.6-1.7l0,0C199.4,212.2,202.9,209.5,199.1,203.5z"/>
					<path class="st16" d="M191.8,217.6l-3.3,6.2l9.7-0.8l0,0c2-3.1,2.2-5.9,2.2-5.9l-2.2,0.2L191.8,217.6z"/>
				</g>
			</g>
			<path class="st27" d="M199.1,203.5L186.3,228c0,0,9.9-2,12-5.1l0,0c2-3.1,2.2-5.9,2.2-5.9l-2.2,0.2c0.1-0.1,3.2-1.5,3.6-5
				l-2.8,0.1l0,0C199.4,212.2,202.9,209.5,199.1,203.5z"/>
		</g>
		<g class="st22">
			<g class="st23">
				<g>
					<path class="st26" d="M155.9,218.1l12.8,24.4c0,0,4-9.3,2.6-12.7l0,0c-1.4-3.4-3.6-5.2-3.6-5.2l-1,1.9c0-0.2,0.5-3.5-2-5.8
						l-1.5,2.3l0,0C163.2,222.8,163,218.4,155.9,218.1z"/>
					<path class="st16" d="M155.9,218.1l5.5,10.6l1.7-5.6l0,0C163.2,222.8,163,218.4,155.9,218.1z"/>
					<path class="st16" d="M163.3,232.1l3.3,6.2l4.8-8.5l0,0c-1.4-3.4-3.6-5.2-3.6-5.2l-1,1.9L163.3,232.1z"/>
				</g>
				<g>
					<path class="st26" d="M155.9,218.1l12.8,24.4c0,0-9.9-2-12-5.1l0,0c-2-3.1-2.2-5.9-2.2-5.9l2.2,0.2c-0.1-0.1-3.2-1.5-3.6-5
						l2.8,0.1l0,0C155.7,226.7,152.2,224,155.9,218.1z"/>
					<path class="st16" d="M155.9,218.1l5.5,10.6l-5.6-1.7l0,0C155.7,226.7,152.2,224,155.9,218.1z"/>
					<path class="st16" d="M163.3,232.1l3.3,6.2l-9.7-0.8l0,0c-2-3.1-2.2-5.9-2.2-5.9l2.2,0.2L163.3,232.1z"/>
				</g>
			</g>
			<path class="st27" d="M155.9,218.1l12.8,24.4c0,0-9.9-2-12-5.1l0,0c-2-3.1-2.2-5.9-2.2-5.9l2.2,0.2c-0.1-0.1-3.2-1.5-3.6-5
				l2.8,0.1l0,0C155.7,226.7,152.2,224,155.9,218.1z"/>
		</g>
		<path class="st28" d="M166.5,254.9c-4.6-0.3-9.1-1-13.6-1.9c-6.2-24.6-9.5-73.2-9.5-73.2h14.2C157.6,179.8,160.7,228,166.5,254.9z
			"/>
		<path class="st28" d="M185.7,254.9c4.6-0.3,9.1-1,13.6-1.9c6.2-24.6,9.5-73.2,9.5-73.2h-14.2C194.6,179.8,191.5,228,185.7,254.9z"
			/>
		<path class="st19" d="M218.2,179.8c0,0-18.8,4.4-42,4.4s-42-4.4-42-4.4s18.8-4.4,42-4.4S218.2,179.8,218.2,179.8z"/>
		<g class="st22">
			<g class="st23">
				<path class="st14" d="M169.6,203.9c5,3.3,6.6,9.9,3.7,15l-18.9-12.3C157.9,201.8,164.5,200.6,169.6,203.9z"/>
			</g>
			<g class="st23">
				<path class="st15" d="M169.1,204.5c4.7,3,6.1,9.2,3.5,13.9L155,207C158.3,202.6,164.5,201.5,169.1,204.5z"/>
			</g>
			<g class="st23">
				<path class="st16" d="M168.3,205.8c0.3,0.2,0.5,0.4,0.8,0.6c1.5,1.2,2.5,2.8,3,4.5c0.1,0.5,0.2,1,0.3,1.5c0.2,1.8-0.1,3.6-1,5.2
					l-15-9.8c1.2-1.6,2.8-2.6,4.6-3.1c0.5-0.1,1-0.2,1.5-0.3c1.8-0.2,3.7,0.2,5.4,1.1C168,205.6,168.1,205.7,168.3,205.8z"/>
			</g>
			<g class="st23">
				<path class="st17" d="M166.7,208.2c0.3,0.2,0.5,0.4,0.7,0.6c0.8,0.7,1.4,1.7,1.7,2.7c0.2,0.5,0.2,1,0.3,1.5
					c0.1,1-0.1,2.1-0.6,3.1l-10.2-6.6c0.8-0.9,1.8-1.5,2.8-1.9c0.5-0.2,1-0.2,1.5-0.3c1.1-0.1,2.2,0.2,3.3,0.7
					C166.4,208,166.6,208.1,166.7,208.2z"/>
			</g>
			<g class="st23">
				<g>
					
						<rect x="161.8" y="208.2" transform="matrix(0.5462 -0.8376 0.8376 0.5462 -99.4938 234.2785)" class="st15" width="9.4" height="1.5"/>
				</g>
			</g>
			<g class="st23">
				<g>
					<polygon class="st15" points="162.2,203.4 162.4,204.4 164.1,212.6 164.2,213 162.4,211.9 160.7,203.7 					"/>
				</g>
				<g>
					<polygon class="st15" points="173.3,210.6 173.6,212.1 172.3,212.4 169.5,213 165.5,213.8 163.7,212.7 164.1,212.6 
						165.1,212.4 169.2,211.5 					"/>
				</g>
				<g class="st24">
					<path class="st14" d="M169.6,203.9c5,3.3,6.6,9.9,3.7,15l-18.9-12.3C157.9,201.8,164.5,200.6,169.6,203.9z"/>
				</g>
			</g>
		</g>
		<g class="st29">
			<path class="st30" d="M178.8,210.3c1.2,1.2,1.2,3.1,0,4.2l-9.7,9.7c-1.2,1.2-3.1,1.2-4.2,0L154,213.3c-1.2-1.2-1.2-3.1,0-4.2
				l9.7-9.7c1.2-1.2,3.1-1.2,4.2,0L178.8,210.3z"/>
			<path class="st30" d="M186.9,233.2c-1,1-2.5,1-3.5,0l-8.1-8.1c-1-1-1-2.5,0-3.5l9.1-9.1c1-1,2.5-1,3.5,0l8.1,8.1c1,1,1,2.5,0,3.5
				L186.9,233.2z"/>
			<path class="st30" d="M172.9,231.1c-0.8,0.8-2,0.8-2.6,0l-6.2-6.2c-0.8-0.8-0.8-2,0-2.6l7-7c0.8-0.8,2-0.8,2.6,0l6.2,6.2
				c0.8,0.8,0.8,2,0,2.6L172.9,231.1z"/>
			<path class="st30" d="M164.1,236.6c-0.8-0.8-0.8-1.9,0-2.6l6.1-6.1c0.8-0.8,1.9-0.8,2.6,0l6.9,6.9c0.8,0.8,0.8,1.9,0,2.6
				l-6.1,6.1c-0.8,0.8-1.9,0.8-2.6,0L164.1,236.6z"/>
		</g>
	</g>
</g>
</svg>
