<?xml version="1.0" encoding="utf-8"?>
<!-- Generator: Adobe Illustrator 23.0.0, SVG Export Plug-In . SVG Version: 6.00 Build 0)  -->
<svg version="1.1" id="Capa_1" xmlns="http://www.w3.org/2000/svg" xmlns:xlink="http://www.w3.org/1999/xlink" x="0px" y="0px"
	 viewBox="0 0 360 363" style="enable-background:new 0 0 360 363;" xml:space="preserve">
<style type="text/css">
	.st0{fill:#FFD084;}
	.st1{fill:none;stroke:#FFE1C0;stroke-width:0.7573;stroke-miterlimit:10;}
	.st2{fill:#FFD6A4;}
	.st3{fill:none;stroke:#FFE1C0;stroke-width:0.75;stroke-miterlimit:10;}
	.st4{fill:#FFE1C0;}
	.st5{fill:none;stroke:#FFD6A4;stroke-width:0.75;stroke-miterlimit:10;}
	.st6{fill:none;stroke:#FFEFE1;stroke-width:0.7478;stroke-miterlimit:10;}
	.st7{fill:#8F7CE5;}
	.st8{fill:#A6A6DD;}
	.st9{fill:#FFE5CC;}
	.st10{fill:none;stroke:#FFD6A4;stroke-miterlimit:10;}
	.st11{clip-path:url(#SVGID_2_);fill:#FFD8AE;}
	.st12{clip-path:url(#SVGID_4_);fill:#FFD8AE;}
	.st13{fill:none;stroke:#FFFFFF;stroke-width:16;stroke-linejoin:round;stroke-miterlimit:10;}
	.st14{fill:#258768;}
	.st15{clip-path:url(#SVGID_6_);}
	.st16{fill:#319372;}
	.st17{opacity:0.1;fill:#31383A;}
	.st18{fill:#F26B89;}
	.st19{fill:#CE5574;}
	.st20{fill:#BFBA8A;}
	.st21{fill:#248489;}
	.st22{opacity:0.16;fill:#444444;}
	.st23{opacity:0.87;}
	.st24{fill:#231A07;}
</style>
<g id="fondo">
	<g id="Rectángulo_556">
		<rect y="-0.1" class="st0" width="360" height="363.3"/>
		<rect x="0.5" y="0.4" class="st0" width="359" height="362.2"/>
	</g>
	<path class="st1" d="M228.1,263.3c0,0,44-35.1,59.7-104.9c15.8-69.8-12.4-91.7-12.4-91.7s-20.5-26.4-33.4,10.6
		c0,0-11.1,37.2-24.4,18.6c0,0-4-5.6-6.5-13s-11-10.5-11-10.5s-21.4-7.3-59.4,34.8c0,0-30.9,35.9-25.5,83.1s10.5,56.8,10.5,56.8
		L228.1,263.3z"/>
	<path class="st2" d="M225.9,276.1c0,0,43.1-35.1,58.6-104.9s-12.2-91.7-12.2-91.7s-20.1-26.4-32.8,10.6c0,0-10.9,37.2-23.9,18.6
		c0,0-3.9-5.6-6.4-13s-10.8-10.5-10.8-10.5s-21-7.3-58.2,34.8c0,0-30.3,35.9-25,83.1c5.3,47.2,10.3,56.8,10.3,56.8L225.9,276.1z"/>
	<path class="st3" d="M114.9,250.6c0,0-61.2-54.4-49.7-80.4s30.9-7.5,30.9-7.5s25.7,22.6,47.9,63.9L114.9,250.6z"/>
	<path class="st2" d="M115.8,254.7c0,0-54.1-58.6-42.6-84.6s30.9-7.5,30.9-7.5s25.7,22.6,47.9,63.9L115.8,254.7z"/>
	<path class="st4" d="M206.4,270c0,0,41.3-44.5,60.9-102.8c0,0,11.1-34-2.3-60c0,0-8.2-25.8-29.3,14.8s-29.4,11.9-29.4,11.9
		s-8.1-59.5-44-15.2s-22.9,140.1-22.9,140.1L206.4,270z"/>
	<path class="st5" d="M191.1,246.3c0,0,54.4-73,68-155.4"/>
	<path class="st6" d="M195.3,271c0,0,33.9-33.6,51.3-78.9c0,0,9.9-26.4,0.3-47.4c0,0-5.5-20.6-23.5,10.6s-23.4,8.4-23.4,8.4
		s-4.3-47.2-33.9-13.5s-22.8,109.6-22.8,109.6L195.3,271z"/>
	<g>
		
			<ellipse transform="matrix(1 -1.876250e-03 1.876250e-03 1 -0.5354 0.338)" class="st7" cx="179.9" cy="285.5" rx="102.6" ry="21.4"/>
		<polygon class="st7" points="282.5,285.3 282.7,271.4 77.5,271.8 77.3,285.7 		"/>
		
			<ellipse transform="matrix(1 -1.876250e-03 1.876250e-03 1 -0.5092 0.3384)" class="st8" cx="180.1" cy="271.6" rx="102.6" ry="21.4"/>
	</g>
	<path class="st3" d="M239.7,225.4c0,0,41.8-19.1,39.9,8.9s-53,30.9-53,30.9s-15.5-0.3-14.5-10.3C213.1,245,218.5,235.9,239.7,225.4
		z"/>
	<path class="st9" d="M229.9,227.9c0,0,37.6-26.4,40.9,1.5c3.2,27.9-46.4,40.1-46.4,40.1S209,272,208.2,262
		C207.3,252,211,242.1,229.9,227.9z"/>
	<path class="st10" d="M208.2,262c0,0,44.4-19.6,65.3-41.4"/>
	<g>
		<g>
			<defs>
				<path id="SVGID_1_" d="M229.9,227.9c0,0,37.6-26.4,40.9,1.5c3.2,27.9-46.4,40.1-46.4,40.1S209,272,208.2,262
					C207.3,252,211,242.1,229.9,227.9z"/>
			</defs>
			<clipPath id="SVGID_2_">
				<use xlink:href="#SVGID_1_"  style="overflow:visible;"/>
			</clipPath>
			<path class="st11" d="M240.9,216.5c0,0-27.3,46.6,4.8,50c21.5,2.3-22.9,11.5-22.9,11.5l-20.3-4.6l-1.3-29.1l20-22.9L240.9,216.5z
				"/>
		</g>
	</g>
	<g>
		<path class="st9" d="M128.2,230.7c0,0-34.9-21.9-37.3,9.5c0,0,6.5,28.1,39.9,22.4S128.2,230.7,128.2,230.7z"/>
	</g>
	<path class="st10" d="M143,253.3c0,0-40.9-21-62.4-13.1"/>
	<g>
		<g>
			<defs>
				<path id="SVGID_3_" d="M128.2,230.7c0,0-34.9-21.9-37.3,9.5c0,0,6.5,28.1,39.9,22.4S128.2,230.7,128.2,230.7z"/>
			</defs>
			<clipPath id="SVGID_4_">
				<use xlink:href="#SVGID_3_"  style="overflow:visible;"/>
			</clipPath>
			<path class="st12" d="M124.1,223.3h-4h-3.6c0,0,17.6,26,9.4,34.6c-8.3,8.6-9.4,6.7-9.4,6.7l19.6,1.8l15.9-7.2l1.2-14.3l-16-11.9
				L124.1,223.3z"/>
		</g>
	</g>
	<path class="st3" d="M84.5,166.6c0,0,21.6,45.3,54.6,70.4"/>
	<path class="st3" d="M103.9,168.3c0,0-5.4,4-7,10.8"/>
	<path class="st3" d="M108.2,176.4c0,0-5.3,5.3-6,14.2"/>
	<path class="st3" d="M96.9,195.4c0,0-6.3-0.5-14.9,3.6"/>
	<path class="st3" d="M102.2,201.8c0,0-10.9,0.4-15.6,3.7"/>
	<path class="st2" d="M109.5,112.7c0.1,4-3.4,7.8-6.2,10.4c-1-2.4-1.9-5-2-7.6c-0.1-2,0.7-4,2.2-5.3c0.5-0.4,1-0.8,1.7-0.9
		c0.4-0.1,0.7-0.2,1.1-0.2C108,109.3,109.4,110.9,109.5,112.7z"/>
	<path class="st2" d="M81.9,128.8c-3.1,0.3-9-1.1-11.6-3.3c-2.3-1.7-2.3-2.2-3.4-4.9c-1-2.7,0.6-5.9,3.6-6.2
		c1.5-0.2,3.1,0.2,4.3,1.1C79.1,118.4,82.6,123.4,81.9,128.8z"/>
	<path class="st4" d="M105.6,147.4c-1.9,1.1-5-0.2-4.7-2.6c-0.2-2.8,4.1-3.8,5.6-1.6C107.5,144.5,106.9,146.6,105.6,147.4z"/>
	<path class="st4" d="M319.5,90.1c-2.6,1.4-6.6-0.3-6.3-3.5c-0.2-3.8,5.5-5.1,7.4-2.1C322,86.2,321.3,88.9,319.5,90.1z"/>
	<path class="st2" d="M328.9,302.3c-3.1,1.7-7.9-0.3-7.6-4.2c-0.3-4.5,6.6-6.1,8.9-2.5C331.9,297.6,331,300.9,328.9,302.3z"/>
	<path class="st4" d="M286.4,314c-2,1.1-5.2-0.2-5-2.8c-0.2-3,4.3-4,5.8-1.7C288.4,311,287.9,313.1,286.4,314z"/>
	<path class="st2" d="M61.9,249.7c-2.6,1.4-6.6-0.3-6.3-3.5c-0.2-3.8,5.5-5.1,7.4-2.1C64.4,245.8,63.7,248.5,61.9,249.7z"/>
	
		<ellipse transform="matrix(0.3506 -0.9365 0.9365 0.3506 -99.1506 230.0512)" class="st9" cx="116.3" cy="186.5" rx="2.7" ry="1.7"/>
	
		<ellipse transform="matrix(0.3506 -0.9365 0.9365 0.3506 -107.5106 238.2528)" class="st9" cx="118" cy="196.6" rx="2.7" ry="1.7"/>
	<ellipse transform="matrix(0.3506 -0.9365 0.9365 0.3506 -136.425 236.2583)" class="st0" cx="102.1" cy="216.5" rx="3" ry="1.8"/>
</g>
<g>
	<path class="st13" d="M246.7,160.3l-20.2-21.2l0.7-2.4c0.1-0.3-0.1-0.7-0.4-0.8c-0.3-0.1-0.7,0.1-0.8,0.4l-0.7,2.2
		c-0.1,0-0.2,0-0.3,0c-4.6,0.8-26.9,4.6-29.8,5.3c-5.2,1.3-0.1,6.3-0.1,6.3c7.3,5.8,15.4,9.5,23,11.8l-6.5,21
		c-8.8-1.5-20.7-2.3-33.8-2.2c-7.9,0.1-15.4,0.4-22,1.1l-11.8-41.6c-0.9-2.4-3.1-4.2-5.6-4.6l-24.4-3.6c-0.1,0-0.3,0-0.4,0.1
		c-0.3,0.2-0.8,0.8-0.9,1.7c-0.2,1.2,0.1,2,0.3,2.3c0.1,0.1,0.2,0.2,0.4,0.3l24.4,3.6c1,0.1,1.8,0.8,2.1,1.7l11.4,40.5
		c-10.7,1.3-18.5,3.4-21.3,5.7c-0.5,0.3-0.9,0.7-1.2,1.2c-3.4,6.9-5.5,14.6-5.8,22.8c0,1.2,0,2.3,0,3.5c0.1,3.7,0.6,7.3,1.4,10.8
		c5.7,24.4,27.7,42.5,53.6,42.5c1,0,1.9,0,2.9-0.1c0,0,0,0,0,0c0,0,0,0,0,0c29.2-1.5,52.3-25.8,52.1-55.3c-0.1-9-2.3-17.5-6.2-25
		c-0.3-0.5-0.7-0.9-1.2-1.1c-2.1-1.6-6.6-3.1-12.8-4.2l6.4-20.8c0.4,0.1,0.8,0.2,1.1,0.3c0,0,0,0,0,0c0.1,0,0.3,0.1,0.4,0.1
		c0.5,0.1,0.9,0.2,1.4,0.4c0.2,0.1,0.4,0.1,0.7,0.2c0.4,0.1,0.8,0.2,1.1,0.3c0.2,0.1,0.5,0.1,0.7,0.2c0.3,0.1,0.7,0.1,1,0.2
		c0.2,0,0.5,0.1,0.7,0.1c0.3,0.1,0.7,0.1,1,0.2c0.2,0,0.5,0.1,0.7,0.1c0.3,0.1,0.6,0.1,1,0.2c0.2,0,0.5,0.1,0.7,0.1
		c0.3,0,0.6,0.1,0.9,0.1c0.2,0,0.4,0.1,0.6,0.1c0.3,0,0.7,0.1,1,0.1c0.2,0,0.3,0,0.5,0.1c0.5,0.1,1,0.1,1.4,0.1c0.2,0,0.3,0,0.5,0
		c0.3,0,0.6,0.1,0.9,0.1c0.2,0,0.4,0,0.5,0c0.3,0,0.5,0,0.8,0.1c0.2,0,0.4,0,0.5,0c0.2,0,0.5,0,0.7,0c0.2,0,0.3,0,0.5,0
		c0.2,0,0.4,0,0.6,0c0.2,0,0.3,0,0.5,0c0.2,0,0.4,0,0.6,0c0.1,0,0.3,0,0.4,0c0.2,0,0.4,0,0.5,0c0.1,0,0.2,0,0.3,0c0.2,0,0.4,0,0.5,0
		c0.1,0,0.2,0,0.2,0c0.2,0,0.5,0,0.7,0C249.5,165.2,246.7,160.3,246.7,160.3z"/>
	<path class="st14" d="M226.9,188.5c-0.4-0.8-1.3-1.4-2.3-1.4l-93.3,0.6c-1.1,0-2,0.6-2.5,1.6c-3.9,7.9-6,16.8-5.8,26.3
		c0.9,29.6,25.4,53.3,55,53.3c30.6,0,55.2-24.9,55-55.4C233,204.5,230.8,196,226.9,188.5z"/>
	<g>
		<defs>
			<path id="SVGID_5_" d="M226.9,188.5c-0.4-0.8-1.3-1.4-2.3-1.4l-93.3,0.6c-1.1,0-2,0.6-2.5,1.6c-3.9,7.9-6,16.8-5.8,26.3
				c0.9,29.6,25.4,53.3,55,53.3c30.6,0,55.2-24.9,55-55.4C233,204.5,230.8,196,226.9,188.5z"/>
		</defs>
		<clipPath id="SVGID_6_">
			<use xlink:href="#SVGID_5_"  style="overflow:visible;"/>
		</clipPath>
		<g class="st15">
			<path class="st16" d="M160,184c-1.1-0.2-2.1,0-2.9,0.4c-0.4,0.2-0.8,0.4-1.1,0.7c-0.3,0.3-0.5,0.6-1,1.1c-0.2,0.2-0.6,0.5-1,0.8
				c-0.4,0.3-1,0.5-1.4,0.6c-0.9,0.2-1.6,0.3-2.1,0.3c-0.5,0.1-0.9,0.2-0.8,0.3c0.1,0,0.3,0,0.5-0.2c0.1,0,0.2-0.1,0.2-0.2
				c0.1-0.1,0.1,0,0,0c0,0.2-0.2,0.7-0.7,1.4c-0.5,0.7-1.2,1.3-1.8,1.6c-1.2,0.7-2,0.7-2.5,0.9c-0.3,0.1-0.3,0.1-0.4,0.2
				c-0.1,0.1-0.2,0.1-0.3,0.2c-0.2,0.2-0.4,0.3-0.6,0.6c-0.4,0.4-0.8,1-1.1,1.7c-0.3,0.7-0.6,1.5-0.9,2.4l-0.8,3
				c-0.1,0.4-0.1,0.7-0.1,0.7c0,0,0,0,0,0l0.1,0.4l0.2,0.8c0.1,0.3,0.1,0.7,0.2,1.1c0.1,0.7,0.2,1.4,0.2,2c0.1,1.3,0.1,2.4,0.1,3.5
				c0,4.5,0,9,0.4,13.3c0.2,2.2,0.5,4.3,0.9,6.5c0.2,1.1,0.5,2.1,0.7,3.2l0.8,3.2l1.7,6.6c0.1,0.5,0.2,0.9,0.4,1.2
				c0.1,0.3,0.3,0.6,0.5,0.9c0.5,0.7,1.5,1.6,2.2,2.6c0.8,1,1.5,2,2.1,3c0.6,1,1.2,2.2,1.7,3.1c0.5,0.9,1,1.7,1.6,2.2
				c0.3,0.3,0.9,0.7,1.4,1.3c0.6,0.6,0.9,1.2,1.1,1.6c0.5,0.8,1.1,1.4,2,2.1c0.8,0.7,1.9,1.4,2.7,2.3c1.7,1.7,3.1,3.7,4,5.9L166,267
				c0.9,0.5,1.9,0.7,2.9,0.8l0,0.9c-1.2,0.1-2.4,0-3.5-0.4l-0.2-0.1l-0.2-0.3c-1.1-1.9-2.6-3.5-4.3-4.8c-0.8-0.7-1.7-1.1-2.8-1.8
				c-0.5-0.3-1-0.7-1.6-1.1c-0.5-0.4-1-0.9-1.4-1.5c-0.8-1.1-1-1.1-2.2-1.9c-1.2-0.8-2.1-2-2.8-3c-0.7-1-1.2-1.8-1.9-2.7
				c-0.7-0.8-1.3-1.6-2.1-2.4c-0.7-0.8-1.5-1.3-2.5-2.4c-0.5-0.5-1-1.2-1.4-1.9c-0.4-0.7-0.7-1.4-0.9-2c-0.8-2.2-1.6-4.3-2.3-6.5
				l-1.1-3.3c-0.4-1.1-0.8-2.2-1.1-3.4c-0.7-2.3-1.2-4.6-1.6-6.9c-0.9-4.6-1.6-9.3-2.2-13.9l-0.3-3.3c-0.1-0.5-0.1-0.9-0.2-1.4
				l-0.1-0.6l-0.2-0.9c-0.1-0.4-0.1-0.8-0.2-1.3c0-0.5,0-1.1,0-1.7c0.1-1.1,0.4-1.9,0.6-2.6c0.2-0.7,0.4-1.1,0.6-1.7
				c0.2-0.6,0.4-1.2,0.7-1.8c0.5-1.2,1.2-2.5,2.1-3.7c0.9-1.3,2-2.5,3.5-3.4c0.7-0.5,1.5-0.9,2.3-1.2c0.4-0.2,0.9-0.3,1.3-0.4
				c0.4-0.1,0.9-0.2,1.2-0.2c0.6,0,1-0.1,0.8,0.1c-0.1,0.1-0.3,0.3-0.5,0.5c-0.1,0.3,0,0.2,0.1-0.1c0.1-0.2,0.2-0.4,0.4-0.7
				c0.2-0.3,0.5-0.6,0.8-0.9c0.6-0.5,1.4-0.9,2-1c1.3-0.3,2-0.1,2.6,0c0.6,0.1,1,0.2,1.3,0.3c0.1,0,0.2,0.1,0.2,0.1
				c0.1,0,0.3,0,0.5-0.1c0.4-0.2,1.1-0.6,1.8-0.8c0.7-0.2,1.5-0.3,2.2-0.3c1.4,0,2.8,0.6,3.7,1.4L160,184z"/>
		</g>
		<g class="st15">
			<path class="st16" d="M168.6,183.8c-0.8,0.5-1.6,1.1-2,1.7c-0.2,0.3-0.2,0.5-0.1,0.7c0.1,0.1,0.1,0.5,0.1,1.1
				c0,0.3,0,0.7-0.2,1.2c-0.2,0.5-0.4,1-0.7,1.3c-0.5,0.7-0.9,1-1,1.3c-0.3,0.5-0.4,1.1-0.4,1.6c0,0.5,0.1,1,0.2,1.4l0.1,0.3
				c0.1,0.1,0.1,0.3,0.2,0.6c0.2,0.5,0.4,1.3,0.4,2.6c0,0.6-0.2,1.3-0.4,2c-0.3,0.7-0.6,1.1-0.7,1.4c-0.2,0.3-0.2,0.4-0.2,0.4
				c0,0,0.2-0.3,0.3-0.5c0.2-0.4,0.1-0.7,0.2-0.6c0,0,0.2,0.3,0.4,0.6c0.2,0.4,0.4,0.9,0.7,1.6c0.3,0.7,0.5,1.6,0.6,2.8
				c0,0.6,0,1.3-0.2,1.9c-0.1,0.6-0.4,1.2-0.6,1.6c-0.4,0.9-0.8,1.4-1,1.7c-0.1,0.1-0.1,0.2-0.1,0.2c0,0,0-0.1,0-0.1
				c0,0-0.1,0-0.1,0.2c-0.1,0.4,0,1.1,0,2.1l0.3,5.8l0.2,2.9c0.1,1.1,0.1,2.4-0.2,3.9c-0.4,1.6-1,2.7-1.2,3.2
				c-0.1,0.3-0.2,0.4-0.2,0.7c-0.1,0.2-0.1,0.5-0.1,0.8c-0.1,1.3,0.3,3.1,0.8,4.9c0.4,1.8,0.9,3.7,1.3,5.7c0.2,1,0.3,2.1,0.4,3.1
				l0.2,2.9c0.1,1.8,0.5,3.5,0.9,5.4l1.4,5.6c0.5,1.9,0.9,3.7,1.4,5.5c0.5,1.8,1.1,3.6,2.1,5.2l-0.7,0.5c-1.3-1.5-2.3-3.3-3.1-5
				c-0.8-1.8-1.6-3.5-2.3-5.3c-0.8-1.8-1.5-3.5-2.3-5.3c-0.7-1.8-1.4-3.8-1.9-5.8c-0.4-2-0.8-3.7-1.3-5.4c-0.5-1.7-1.2-3.4-1.9-5.3
				c-0.6-1.9-1.4-3.7-1.6-6.3c-0.1-0.6-0.1-1.3,0-2c0.1-0.7,0.2-1.5,0.4-2.1c0.4-1.2,0.7-1.9,0.6-2.2c0-0.4-0.1-1-0.2-1.8l-0.6-2.8
				l-1.2-5.6c-0.2-0.9-0.4-2-0.4-3.6c0-0.8,0.1-1.7,0.4-2.6c0.1-0.5,0.3-1,0.5-1.4c0.2-0.4,0.4-0.8,0.6-1.1c0.3-0.5,0.5-0.8,0.5-0.8
				c0,0-0.2,0.5-0.1,0.8c0.1,0.5,0.1-0.1-0.3-1.1c-0.2-0.5-0.4-1.2-0.6-2.1c-0.2-0.9-0.3-2.1,0.1-3.5c0.2-0.6,0.5-1.3,0.8-1.8
				c0.3-0.4,0.5-0.7,0.6-0.8c0.1-0.1,0.1-0.1,0,0.1c-0.1,0.2-0.1,0.5-0.1,0.6c0,0.3,0.1,0.1,0.1-0.3l-0.1-0.8c0-0.3-0.1-0.8-0.1-1.1
				c0-1.5,0.4-3,1-4.2c0.6-1.3,1.6-2.4,2.7-3.2c0.6-0.4,1-0.6,1.2-0.7c0.1,0,0.1,0.1,0.1,0.1c0,0,0.1,0,0.2-0.2
				c0.2-0.3,0.3-0.9,0.8-1.7c0.4-0.7,1.1-1.2,1.7-1.5c1.2-0.5,2.3-0.5,3.3-0.4L168.6,183.8z"/>
		</g>
		<g class="st15">
			<path class="st16" d="M180.7,184.8c2.2-0.7,4.4-1.1,6.6-1.6c0.5-0.1,1.1-0.2,1.6-0.3l0.8-0.2c0.3,0,0.6-0.1,1-0.1
				c0.7,0,1.7,0,2.9,0.5c0.6,0.3,1.2,0.8,1.6,1.3c0.4,0.6,0.7,1.2,0.9,1.7c0.3,1,0.4,1.6,0.5,1.8c0.1,0.1,0.1,0,0.1-0.1
				c-0.1-0.2-0.1-0.3-0.1-0.4c0-0.1,0.4,0.1,1,0.5c0.3,0.2,0.7,0.5,1.2,0.9c0.5,0.4,1.1,1.2,1.4,2.2c0.3,1,0.4,2,0.1,3
				c-0.3,1-0.8,1.8-1.1,2.2c-0.8,1-1.3,1.3-1.6,1.6c-0.3,0.3,0,0.3,0.4-0.6c0.2-0.4,0.2-0.9,0.1-1.3c-0.1-0.3-0.1-0.5-0.1-0.4
				c0.1,0.1,0.5,0.6,1,1.7c0.3,0.5,0.5,1.4,0.6,2.1c0.1,0.7,0.1,1.3,0.1,1.8c-0.1,1-0.2,1.5-0.2,1.8c0,0.4-0.1,0.8-0.1,1.1
				c0,1.6,0.2,3.4,0.6,5.4c0.4,2,0.8,4.3,1.1,6.7c0.1,1.2,0.2,2.5,0.2,3.8c0,1.2-0.1,2.5-0.2,3.6c-0.2,2.3-0.5,4.5-0.7,6.7l-0.4,3.3
				c-0.1,1-0.2,2.4-0.8,4.1c-0.3,0.9-0.8,1.6-1.2,2.1c-0.4,0.6-0.8,1-1.1,1.3c-0.6,0.8-1.2,1.6-1.8,2.5c-1.1,1.7-2.2,3.6-3.3,5.5
				l-3.3,5.7c-0.6,0.9-1.1,1.9-1.7,2.9c-0.6,1-1.4,2.1-2.4,2.9c-0.9,0.8-1.8,1.4-2.5,2.1c-0.7,0.7-1.4,1.5-2.2,2.3
				c-0.7,0.8-1.5,1.7-2.4,2.5c-0.9,0.8-1.9,1.5-3.1,1.9l-5.5,2.1l4.6-3.5l4-3l0.6,0.7l-3.5,3.5l-0.9-1.4c1.7-1,2.9-2.7,4.1-4.5
				c0.6-0.9,1.2-1.9,2-2.8c0.8-1,1.7-1.8,2.3-2.5c1.2-1.3,1.9-3.3,2.8-5.3l2.7-6c0.9-2,1.8-4.1,2.9-6.1c0.5-1,1.1-2.1,1.8-3.1
				c0.3-0.5,0.7-1,0.9-1.3c0.2-0.4,0.3-0.6,0.3-0.8c0.1-0.4,0.1-1.3,0.2-2.4l0.1-3.3c0-2.2,0.1-4.4,0.1-6.5c0-1-0.1-2-0.2-3
				c-0.1-0.9-0.3-1.8-0.5-2.8c-0.5-1.9-1.2-3.9-1.8-6.1c-0.6-2.2-1.1-4.8-1.1-7.6c0-0.7,0.1-1.4,0.2-2.1c0.1-0.8,0.2-1.3,0.3-1.4
				c0-0.1,0,0,0.1,0.1c0,0.1,0.1,0.4,0.2,0.5c0.1,0.1-0.1-0.3-0.6-1.2c-0.2-0.5-0.5-1.1-0.6-2c-0.2-0.9-0.1-2,0.2-2.9
				c0.3-0.9,0.8-1.7,1.2-2.1c0.4-0.5,0.8-0.8,1.1-1c0.6-0.4,1-0.7,0.9-0.6c0,0.1-0.2,0.3-0.3,0.8c-0.1,0.5-0.1,1,0.1,1.4
				c0.2,0.5,0.5,0.8,0.5,0.8c0.1,0.1,0.1,0,0-0.1c-0.3-0.3-0.8-0.7-1.6-1.5c-0.4-0.4-0.8-1-1.1-1.7c-0.3-0.7-0.4-1.2-0.4-1.7
				c-0.1-0.9,0-1.4,0-1.5c0,0,0.1,0.1,0.2,0.2c0.1,0.1,0.3,0.2,0.4,0.2c0.2,0,0.1-0.2-0.3-0.3c-0.2-0.1-0.4-0.1-0.6-0.1l-0.8-0.1
				c-0.6-0.1-1.1-0.2-1.7-0.3c-2.2-0.4-4.4-0.9-6.6-1.5L180.7,184.8z"/>
		</g>
		<g class="st15">
			<path class="st16" d="M197.7,184.6c5,1.3,9.9,2.4,14.7,3.2c1.2,0.2,2.5,0.4,4,0.8c1.5,0.4,3,1,4.6,2.2c1.5,1.2,2.9,2.7,3.6,5
				c0.4,1.1,0.5,2.4,0.4,3.7c-0.2,1.3-0.5,2.3-0.8,3c-0.3,0.7-0.6,1.3-0.7,1.6c-0.1,0.2-0.1,0.3-0.1,0.4c0,0.1,0,0.2-0.1,0.4
				c0,0.4-0.1,0.8-0.1,1.4l-0.1,1.9c-0.2,2.6-0.5,5.2-0.9,7.7c-0.8,5.1-1.9,10.2-3.1,15.2c-0.3,1.3-0.5,2.5-0.9,3.9
				c-0.4,1.4-0.9,3-2,4.6c-0.3,0.4-0.6,0.8-0.9,1.1c-0.3,0.4-0.7,0.7-1,0.9c-0.6,0.5-1.1,0.8-1.3,1c-0.1,0.1-0.1,0.1-0.1,0.1
				c0,0,0,0-0.1,0.1c-0.1,0.2-0.2,0.8-0.3,1.6c-0.2,0.9-0.5,1.9-1,2.7c-0.5,0.8-1.1,1.5-1.8,2.1c-1.3,1.2-2.7,1.9-4.1,2.4
				c-0.7,0.3-1.4,0.5-2.1,0.7l-1.8,0.5c-1.1,0.3-1.8,0.7-2.2,1c-0.1,0.1-0.2,0.2-0.3,0.4c-0.1,0.2-0.3,0.6-0.6,1
				c-0.3,0.4-0.7,0.9-1.2,1.3c-0.3,0.2-0.5,0.3-0.8,0.5c-0.3,0.1-0.5,0.2-0.8,0.3c-1,0.2-1.9,0.2-2.6,0.1c-0.7-0.1-1.3-0.2-1.8-0.3
				c-0.5-0.1-0.9,0-0.9,0c0,0,0,0-0.1,0c0,0,0,0-0.1,0c0,0-0.1,0.1-0.2,0.3c-0.1,0.2-0.1,0.5-0.2,0.8c-0.1,0.3-0.2,0.8-0.4,1.2
				c-0.3,0.8-0.8,1.5-1.3,2c-1,1.1-2.3,1.9-3.4,2.5c-1.2,0.6-2.3,1.1-3.4,1.7c-0.5,0.3-1,0.6-1.4,1c-0.4,0.4-0.9,0.8-1.4,1.3
				c-1,0.9-2.7,1.8-4.2,0.9l-0.2-0.1l-0.1-0.1l-0.7-1.5l0.8-0.4l0.9,1.4l-0.2-0.2c0.4,0.2,0.9,0.1,1.4-0.1c0.5-0.2,0.8-0.6,1.2-1
				c0.4-0.4,0.8-0.9,1.3-1.4c0.5-0.5,1-1,1.6-1.4c1.1-0.8,2.2-1.4,3.2-2.1c1-0.7,1.9-1.4,2.4-2.2c0.3-0.4,0.5-0.8,0.6-1.2
				c0.1-0.2,0.1-0.4,0.1-0.7c0-0.3,0.1-0.6,0.2-1.1c0.1-0.4,0.3-1,0.6-1.5c0.2-0.2,0.4-0.5,0.6-0.7c0.2-0.2,0.5-0.4,0.7-0.5
				c1.1-0.6,2-0.6,2.8-0.6c0.8,0,1.4,0.1,2,0.1c0.5,0,1,0,1.2-0.1c0,0,0.1,0,0.1-0.1c0,0,0,0,0,0c0,0,0,0,0.1-0.1l0.3-0.7
				c0.1-0.3,0.4-0.8,0.7-1.2c1.2-1.6,2.9-2.4,4.2-2.9l1.8-0.7c0.5-0.2,1-0.4,1.5-0.7c0.9-0.5,1.7-1.1,2.3-1.7
				c0.3-0.3,0.4-0.6,0.6-0.9c0.1-0.3,0.2-0.5,0.2-0.9c0.1-0.4,0.1-1.1,0.3-2.1c0.1-0.5,0.3-1.1,0.6-1.7c0.3-0.6,0.7-1,1-1.4
				c0.7-0.7,1.3-1.2,1.6-1.5c0.2-0.2,0.3-0.3,0.4-0.4c0.1-0.1,0.2-0.2,0.2-0.4c0.3-0.5,0.6-1.4,0.8-2.5c0.2-1.1,0.4-2.4,0.6-3.6
				c0.7-4.9,1-9.9,1.3-14.9c0.1-2.5,0.3-4.9,0.4-7.4l0.1-1.9c0-0.7,0.1-1.4,0.3-2.3c0.1-0.5,0.2-0.9,0.3-1.4c0.1-0.5,0.4-1,0.5-1.4
				c0.4-0.8,0.7-1.4,1-1.8c0.2-0.4,0.3-0.6,0.3-0.6c0,0,0.1,0,0.1-0.1c0.1-0.2-0.2-0.8-0.6-1.2c-0.3-0.4-1.1-1-2-1.5
				c-0.9-0.5-2.1-0.9-3.3-1.5c-4.9-2.1-9.4-4.9-13.3-8.4L197.7,184.6z"/>
		</g>
	</g>
	<path class="st17" d="M142.5,215.5c-0.3-9.5,1.8-18.4,5.8-26.3c0.5-0.9,1.4-1.5,2.5-1.6l-19.4,0.1c-1.1,0-2,0.6-2.5,1.6
		c-3.9,7.9-6,16.8-5.8,26.3c0.9,29.6,25.4,53.3,55,53.3c1,0,1.9,0,2.9-0.1C152.3,267.7,141.1,236.5,142.5,215.5z"/>
	<path class="st18" d="M227,189.4c0,5-21.9,9.1-49,9.3c-27.1,0.2-49.1-3.7-49.1-8.7c0-5,21.9-9.1,49-9.3
		C205,180.6,227,184.5,227,189.4z"/>
	<path class="st19" d="M219.1,188.4c0,3.2-19.1,5.9-42.6,6.1c-23.6,0.2-42.7-2.3-42.7-5.5c0-3.2,19.1-5.9,42.6-6.1
		C200,182.7,219.1,185.2,219.1,188.4z"/>
	<g>
		<g>
			<path class="st20" d="M210.2,192l17-55.3c0.1-0.3-0.1-0.7-0.4-0.8l0,0c-0.3-0.1-0.7,0.1-0.8,0.4l-17.2,55.9L210.2,192z"/>
		</g>
		<path class="st21" d="M226.5,139.1l20.3,21.2c0,0,2.7,4.9-3.5,5.3c-6.2,0.4-29.9-0.6-48.1-15.3c0,0-5.1-5,0.1-6.3
			c3-0.8,25.3-4.6,29.8-5.3C225.6,138.5,226.1,138.7,226.5,139.1z"/>
		<path class="st17" d="M220.5,162.8c0.5-1.8,4.5-21,5.2-24.1c0-0.1,0.6,0.2,0.8,0.4l20.3,21.2c0,0,2.7,4.9-3.5,5.3
			C239.8,165.8,230.9,165.6,220.5,162.8"/>
		<path class="st22" d="M210,188.4l-1.2,3.8l1.4-0.3l1-3.2c0,0-0.3,0-0.6-0.1C210.3,188.6,210,188.4,210,188.4z"/>
	</g>
	<g>
		<g class="st23">
			<path class="st24" d="M154.6,193.8l4.8,0.3l-15.3-53.8c-0.9-2.4-3.1-4.2-5.6-4.6l-24.4-3.6c-0.1,0-0.3,0-0.4,0.1
				c-0.3,0.2-0.8,0.8-0.9,1.7c-0.2,1.2,0.1,2,0.3,2.3c0.1,0.1,0.2,0.2,0.4,0.3l24.4,3.6c1,0.1,1.8,0.8,2.1,1.7L154.6,193.8z"/>
		</g>
	</g>
</g>
</svg>
