<?xml version="1.0" encoding="utf-8"?>
<!-- Generator: Adobe Illustrator 23.0.0, SVG Export Plug-In . SVG Version: 6.00 Build 0)  -->
<svg version="1.1" id="Capa_1" xmlns="http://www.w3.org/2000/svg" xmlns:xlink="http://www.w3.org/1999/xlink" x="0px" y="0px"
	 viewBox="0 0 360 363" style="enable-background:new 0 0 360 363;" xml:space="preserve">
<style type="text/css">
	.st0{fill:#FFD084;}
	.st1{fill:none;stroke:#FFE1C0;stroke-width:0.7573;stroke-miterlimit:10;}
	.st2{fill:#FFD6A4;}
	.st3{fill:none;stroke:#FFE1C0;stroke-width:0.75;stroke-miterlimit:10;}
	.st4{fill:#FFE1C0;}
	.st5{fill:none;stroke:#FFD6A4;stroke-width:0.75;stroke-miterlimit:10;}
	.st6{fill:none;stroke:#FFEFE1;stroke-width:0.7478;stroke-miterlimit:10;}
	.st7{fill:#8F7CE5;}
	.st8{fill:#A6A6DD;}
	.st9{fill:#FFE5CC;}
	.st10{fill:none;stroke:#FFD6A4;stroke-miterlimit:10;}
	.st11{clip-path:url(#SVGID_2_);fill:#FFD8AE;}
	.st12{clip-path:url(#SVGID_4_);fill:#FFD8AE;}
	.st13{fill:#FFFFFF;stroke:#FFFFFF;stroke-width:15;stroke-linejoin:round;stroke-miterlimit:10;}
	.st14{fill:none;stroke:#FFFFFF;stroke-width:13;stroke-linejoin:round;stroke-miterlimit:10;}
	.st15{fill:#CCCCFF;}
	.st16{fill:#D5F3FF;}
	.st17{fill:#B5B5F4;}
	.st18{fill:#3D9EC1;}
	.st19{fill:#78C9E9;}
	.st20{fill:#FFCE00;}
	.st21{fill:#F7B531;}
	.st22{fill:#9B3A10;}
	.st23{opacity:0.15;fill:#4C0D1F;enable-background:new    ;}
	.st24{fill:#A34221;}
	.st25{opacity:0.22;fill:#FFFFFF;enable-background:new    ;}
	.st26{fill:#DCDCFF;}
</style>
<g id="fondo">
	<g>
		<g id="Rectángulo_556">
			<rect y="-0.1" class="st0" width="360" height="363.3"/>
			<rect x="0.5" y="0.4" class="st0" width="359" height="362.2"/>
		</g>
		<path class="st1" d="M228.1,258.3c0,0,43.9-35.1,59.7-104.9c15.8-69.8-12.4-91.7-12.4-91.7S254.9,35.3,242,72.3
			c0,0-11.1,37.2-24.4,18.6c0,0-4-5.6-6.5-13c-2.5-7.3-11-10.5-11-10.5s-21.4-7.3-59.4,34.8c0,0-30.9,35.9-25.5,83.1
			s10.5,56.8,10.5,56.8L228.1,258.3z"/>
		<path class="st2" d="M225.9,271.1c0,0,43.1-35.1,58.6-104.9s-12.2-91.7-12.2-91.7s-20.1-26.4-32.8,10.6c0,0-10.9,37.2-23.9,18.6
			c0,0-3.9-5.6-6.4-13c-2.5-7.3-10.8-10.5-10.8-10.5s-21-7.3-58.2,34.8c0,0-30.3,35.9-25,83.1s10.3,56.8,10.3,56.8L225.9,271.1z"/>
		<path class="st3" d="M114.9,245.6c0,0-61.2-54.4-49.7-80.4s30.9-7.5,30.9-7.5s25.7,22.6,47.9,63.9L114.9,245.6z"/>
		<path class="st2" d="M115.8,249.7c0,0-54.1-58.6-42.6-84.6s30.9-7.5,30.9-7.5s25.7,22.6,47.9,63.9L115.8,249.7z"/>
		<path class="st4" d="M206.4,265c0,0,41.3-44.5,60.9-102.7c0,0,11.1-34-2.3-60c0,0-8.2-25.8-29.3,14.8S206.3,129,206.3,129
			s-8.1-59.5-44-15.2s-22.9,140.1-22.9,140.1L206.4,265z"/>
		<path class="st5" d="M191.1,241.3c0,0,54.3-73,68-155.4"/>
		<path class="st6" d="M195.3,266c0,0,33.9-33.6,51.3-78.9c0,0,9.9-26.5,0.3-47.4c0,0-5.5-20.6-23.5,10.6s-23.4,8.4-23.4,8.4
			s-4.3-47.2-33.9-13.5s-22.8,109.6-22.8,109.6L195.3,266z"/>
		<g>
			
				<ellipse transform="matrix(1 -1.876229e-03 1.876229e-03 1 -0.526 0.338)" class="st7" cx="179.9" cy="280.5" rx="102.6" ry="21.4"/>
			<polygon class="st7" points="282.5,280.3 282.7,266.4 77.5,266.8 77.3,280.7 			"/>
			
				<ellipse transform="matrix(1 -1.876229e-03 1.876229e-03 1 -0.4999 0.3384)" class="st8" cx="180.1" cy="266.6" rx="102.6" ry="21.4"/>
		</g>
		<path class="st3" d="M239.7,220.4c0,0,41.8-19.1,39.9,9s-53,30.9-53,30.9s-15.5-0.3-14.5-10.3C213.2,240,218.5,230.9,239.7,220.4z
			"/>
		<path class="st9" d="M229.9,222.9c0,0,37.6-26.4,40.9,1.5c3.2,27.9-46.4,40.1-46.4,40.1S209,267,208.2,257
			C207.3,247,211,237.1,229.9,222.9z"/>
		<path class="st10" d="M208.2,257c0,0,44.4-19.6,65.3-41.4"/>
		<g>
			<g>
				<g>
					<g>
						<g>
							<defs>
								<path id="SVGID_1_" d="M229.9,222.9c0,0,37.6-26.4,40.9,1.5c3.2,27.9-46.4,40.1-46.4,40.1S209,267,208.2,257
									C207.3,247,211,237.1,229.9,222.9z"/>
							</defs>
							<clipPath id="SVGID_2_">
								<use xlink:href="#SVGID_1_"  style="overflow:visible;"/>
							</clipPath>
							<path class="st11" d="M240.9,211.5c0,0-27.3,46.6,4.8,50c21.5,2.3-22.9,11.5-22.9,11.5l-20.3-4.6l-1.3-29l20-22.9
								L240.9,211.5z"/>
						</g>
					</g>
				</g>
			</g>
		</g>
		<g>
			<path class="st9" d="M128.2,225.7c0,0-34.9-21.9-37.3,9.5c0,0,6.5,28.1,39.9,22.4C164.1,251.8,128.2,225.7,128.2,225.7z"/>
		</g>
		<path class="st10" d="M143,248.3c0,0-40.9-21-62.4-13.1"/>
		<g>
			<g>
				<g>
					<g>
						<g>
							<defs>
								<path id="SVGID_3_" d="M128.2,225.7c0,0-34.9-21.9-37.3,9.5c0,0,6.5,28.1,39.9,22.4C164.1,251.8,128.2,225.7,128.2,225.7z"
									/>
							</defs>
							<clipPath id="SVGID_4_">
								<use xlink:href="#SVGID_3_"  style="overflow:visible;"/>
							</clipPath>
							<path class="st12" d="M124.1,218.3h-4h-3.6c0,0,17.6,26,9.4,34.6c-8.2,8.6-9.4,6.7-9.4,6.7l19.6,1.8l15.9-7.2l1.2-14.3
								l-16-11.9L124.1,218.3z"/>
						</g>
					</g>
				</g>
			</g>
		</g>
		<path class="st3" d="M84.5,161.6c0,0,21.6,45.3,54.6,70.4"/>
		<path class="st3" d="M103.9,163.3c0,0-5.4,4-7,10.8"/>
		<path class="st3" d="M108.2,171.4c0,0-5.3,5.3-6,14.2"/>
		<path class="st3" d="M96.9,190.4c0,0-6.3-0.5-14.9,3.7"/>
		<path class="st3" d="M102.2,196.8c0,0-10.9,0.4-15.6,3.7"/>
		<path class="st2" d="M109.5,107.7c0.1,4-3.4,7.8-6.2,10.4c-1-2.4-1.9-5-2-7.6c-0.1-2,0.7-4,2.2-5.3c0.5-0.4,1-0.8,1.7-0.9
			c0.4-0.1,0.7-0.2,1.1-0.2C108,104.3,109.4,105.9,109.5,107.7z"/>
		<path class="st2" d="M81.9,123.8c-3.1,0.3-9-1.1-11.6-3.2c-2.3-1.7-2.3-2.2-3.4-4.9c-1-2.7,0.6-5.9,3.6-6.2
			c1.5-0.2,3.1,0.2,4.3,1.1C79.1,113.4,82.6,118.4,81.9,123.8z"/>
		<path class="st4" d="M105.6,142.4c-1.9,1.1-5-0.2-4.7-2.6c-0.2-2.8,4.1-3.8,5.6-1.6C107.5,139.5,106.9,141.6,105.6,142.4z"/>
		<path class="st4" d="M319.5,85.1c-2.6,1.4-6.6-0.3-6.3-3.5c-0.2-3.8,5.5-5.1,7.4-2.1C322,81.2,321.3,83.9,319.5,85.1z"/>
		<path class="st2" d="M328.9,297.3c-3.1,1.7-7.9-0.3-7.6-4.2c-0.3-4.5,6.6-6.1,8.9-2.5C331.9,292.6,331,295.9,328.9,297.3z"/>
		<path class="st4" d="M286.4,309c-2,1.1-5.2-0.2-5-2.8c-0.2-3,4.3-4,5.8-1.7C288.4,305.9,287.9,308.1,286.4,309z"/>
		<path class="st2" d="M61.9,244.7c-2.6,1.4-6.6-0.3-6.3-3.5c-0.2-3.8,5.5-5.1,7.4-2.1C64.4,240.8,63.7,243.5,61.9,244.7z"/>
		
			<ellipse transform="matrix(0.3506 -0.9365 0.9365 0.3506 -94.3859 226.7597)" class="st9" cx="116.3" cy="181.4" rx="2.7" ry="1.7"/>
		
			<ellipse transform="matrix(0.3506 -0.9365 0.9365 0.3506 -102.8036 234.9936)" class="st9" cx="118" cy="191.6" rx="2.7" ry="1.7"/>
		
			<ellipse transform="matrix(0.3506 -0.9365 0.9365 0.3506 -131.6409 232.946)" class="st0" cx="102.2" cy="211.4" rx="3" ry="1.8"/>
	</g>
</g>
<path class="st13" d="M187.1,199c11.8-1.4,22.7-6.6,31.4-15c10.2-9.9,16.2-23.2,16.7-37.4c0-0.5-0.1-1-0.2-1.5c0,0.1,0,0.1,0,0.2
	c-0.2-0.7-0.6-1.4-1.1-1.9c-0.8-0.9-2-1.4-3.2-1.4H130c-0.7,0-1.3,0.2-1.9,0.4c-0.6,0.2-1.1,0.6-1.5,1.1c-0.8,0.9-1.3,2-1.2,3.2
	c0.5,14.2,6.4,27.5,16.7,37.4c8.6,8.3,19.6,13.5,31.3,15v43c-12.9,1.5-22.6,6.9-22.6,10.2c0,3.8,13.2,5,29.4,5c0.8,0,1.7,0,2.5,0
	c-0.2,0-0.4,0-0.6,0c15.4-0.1,27.7-1.3,27.7-5c0-0.3-0.2-0.6-0.3-0.9c-0.2-0.6-0.7-1.1-1.3-1.8l0,0l0,0c-3.2-3-11.1-6.4-20.9-7.5
	v-7.8h-0.1v-30L187.1,199L187.1,199z M222.9,154.8c0-0.1,0-0.3,0-0.4C222.9,154.5,222.9,154.6,222.9,154.8
	C222.9,154.7,222.9,154.7,222.9,154.8z M222.8,154.2c0-0.1-0.1-0.2-0.1-0.3C222.8,154,222.8,154.1,222.8,154.2z M138.7,152.5
	c0.6-0.6,1.5-0.9,2.5-0.9h78.2c0.9,0,1.8,0.3,2.5,0.9c0.2,0.2,0.3,0.3,0.4,0.5c-0.1-0.2-0.3-0.3-0.4-0.4c-0.6-0.6-1.5-0.9-2.5-0.9
	h-3.2h-71.9h-3.1C140.3,151.7,139.4,152,138.7,152.5c-0.6,0.7-1,1.5-1,2.3c0,0,0,0,0-0.1C137.7,153.9,138,153.1,138.7,152.5z"/>
<g>
	<g>
		<g>
			<path class="st14" d="M232.8,127.8c-5.1-2.8-15.7-7.2-20.5-1.7c-2.6,3-1.2,9.5,0.5,12.5c2.4,4.3,10.4,13.2,16.3,10.5
				c3-1.4,3.4-7.1,1.8-9.7c-3.2-5.2-13.7-5.8-18.9-4.9c-6.6,1.1-8.4,5-8.3,11.2c0.1,6.9,5.5,14.7,12.7,16c4.4,0.8,6-4,4.3-7.6
				c-2.5-5.2-14.2-5.5-18.7-4.4c-5.8,1.4-6.3,6.4-5.5,11.5c-0.2-1.4,0.2-2.8,0-4.2c0.4,2.3,0,0.4,1.2-0.9c0.8-0.9,1.8-1.4,2.9-1.8
				c2.5-0.9,5.4-1,8.1-0.7c3,0.3,12,1.4,12.3,5.7c0-1.4,0-2.8,0-4.1c-0.7,4.3-6.5,1.8-8.7,0.5c-4.4-2.7-8.6-7.7-8.6-13.1
				c0,1.2,0,2.4,0,3.6c0.7-7,8.1-8.2,14-7.8c4.1,0.3,13.1,1.6,13.8,7c0-1.4,0-2.8,0-4.1c-0.3,6.2-8,3.4-10.9,1.4
				c-4.3-2.9-9-7.8-9.5-13.3c0,1.2,0,2.4,0,3.6c0.1-5.2,7.5-5.4,11.1-4.8c3.7,0.6,7.4,2,10.6,3.8
				C232.2,131.7,233.4,128.1,232.8,127.8L232.8,127.8z"/>
		</g>
		<g>
			<path class="st14" d="M232.8,127.8c-5.1-2.8-15.7-7.2-20.5-1.7c-2.6,3-1.2,9.5,0.5,12.5c2.4,4.3,10.4,13.2,16.3,10.5
				c3-1.4,3.4-7.1,1.8-9.7c-3.2-5.2-13.7-5.8-18.9-4.9c-6.6,1.1-8.4,5-8.3,11.2c0.1,6.9,5.5,14.7,12.7,16c4.4,0.8,6-4,4.3-7.6
				c-2.5-5.2-14.2-5.5-18.7-4.4c-5.8,1.4-6.3,6.4-5.5,11.5c-0.2-1.4,0.2-2.8,0-4.2c0.4,2.3,0,0.4,1.2-0.9c0.8-0.9,1.8-1.4,2.9-1.8
				c2.5-0.9,5.4-1,8.1-0.7c3,0.3,12,1.4,12.3,5.7c0-1.4,0-2.8,0-4.1c-0.7,4.3-6.5,1.8-8.7,0.5c-4.4-2.7-8.6-7.7-8.6-13.1
				c0,1.2,0,2.4,0,3.6c0.7-7,8.1-8.2,14-7.8c4.1,0.3,13.1,1.6,13.8,7c0-1.4,0-2.8,0-4.1c-0.3,6.2-8,3.4-10.9,1.4
				c-4.3-2.9-9-7.8-9.5-13.3c0,1.2,0,2.4,0,3.6c0.1-5.2,7.5-5.4,11.1-4.8c3.7,0.6,7.4,2,10.6,3.8
				C232.2,131.7,233.4,128.1,232.8,127.8L232.8,127.8z"/>
		</g>
	</g>
	<path class="st15" d="M187.1,246.4c0,6-3,10.9-6.8,10.9l0,0c-3.8,0-6.8-4.9-6.8-10.9V181c0-6,3-10.9,6.8-10.9l0,0
		c3.8,0,6.8,4.9,6.8,10.9V246.4z"/>
	<path class="st16" d="M179.4,227.3c-2.1,0-3.8-1.7-3.8-3.8v-13.1c0-2.1,1.7-3.8,3.8-3.8l0,0c2.1,0,3.8,1.7,3.8,3.8v13.1
		C183.2,225.6,181.5,227.3,179.4,227.3L179.4,227.3z"/>
	<path class="st17" d="M186.9,249.4c0.2-1,0.3-2,0.3-3v-12.1c-2.2-0.3-4.5-0.4-6.8-0.4s-4.6,0.1-6.8,0.4v12.1c0,1.1,0.1,2.1,0.3,3
		c2.1,0,4.3,0.1,6.5,0.1C182.6,249.5,184.8,249.5,186.9,249.4z"/>
	<path class="st17" d="M187.1,204.3V196c-2.2,0.3-4.5,0.5-6.8,0.5s-4.6-0.2-6.8-0.5v8.3c2.2,0.3,4.5,0.4,6.8,0.4
		S184.9,204.6,187.1,204.3z"/>
	<path class="st18" d="M221.9,152.6c-0.6-0.6-1.5-0.9-2.5-0.9h-78.2c-0.9,0-1.8,0.3-2.5,0.9c-0.6,0.6-1,1.4-1,2.2
		c0.4,9.8,5,19,13,25.9s18.5,10.6,29.6,10.6s21.6-3.8,29.6-10.6s12.6-16,13-25.9C222.9,154,222.6,153.1,221.9,152.6z"/>
	<path class="st19" d="M218.5,152.6c-0.6-0.6-1.4-0.9-2.3-0.9h-71.9c-0.9,0-1.7,0.3-2.3,0.9c-0.6,0.6-0.9,1.4-0.9,2.2
		c0.4,9.8,4.6,19,11.9,25.9c7.3,6.9,17,10.6,27.2,10.6s19.9-3.8,27.2-10.6s11.5-16,11.9-25.9C219.4,154,219.1,153.1,218.5,152.6z"/>
	<g>
		<g>
			<g>
				<path class="st20" d="M232.8,127.8c-5.1-2.8-15.7-7.2-20.5-1.7c-2.6,3-1.2,9.5,0.5,12.5c2.4,4.3,10.4,13.2,16.3,10.5
					c3-1.4,3.4-7.1,1.8-9.7c-3.2-5.2-13.7-5.8-18.9-4.9c-6.6,1.1-8.4,5-8.3,11.2c0.1,6.9,5.5,14.7,12.7,16c4.4,0.8,6-4,4.3-7.6
					c-2.5-5.2-14.2-5.5-18.7-4.4c-5.8,1.4-6.3,6.4-5.5,11.5c-0.2-1.4,0.2-2.8,0-4.2c0.4,2.3,0,0.4,1.2-0.9c0.8-0.9,1.8-1.4,2.9-1.8
					c2.5-0.9,5.4-1,8.1-0.7c3,0.3,12,1.4,12.3,5.7c0-1.4,0-2.8,0-4.1c-0.7,4.3-6.5,1.8-8.7,0.5c-4.4-2.7-8.6-7.7-8.6-13.1
					c0,1.2,0,2.4,0,3.6c0.7-7,8.1-8.2,14-7.8c4.1,0.3,13.1,1.6,13.8,7c0-1.4,0-2.8,0-4.1c-0.3,6.2-8,3.4-10.9,1.4
					c-4.3-2.9-9-7.8-9.5-13.3c0,1.2,0,2.4,0,3.6c0.1-5.2,7.5-5.4,11.1-4.8c3.7,0.6,7.4,2,10.6,3.8
					C232.2,131.7,233.4,128.1,232.8,127.8L232.8,127.8z"/>
			</g>
		</g>
		<g>
			<g>
				<path class="st21" d="M232.8,127.8c-5.1-2.8-15.7-7.2-20.5-1.7c-2.6,3-1.2,9.5,0.5,12.5c2.4,4.3,10.4,13.2,16.3,10.5
					c3-1.4,3.4-7.1,1.8-9.7c-3.2-5.2-13.7-5.8-18.9-4.9c-6.6,1.1-8.4,5-8.3,11.2c0.1,6.9,5.5,14.7,12.7,16c4.4,0.8,6-4,4.3-7.6
					c-2.5-5.2-14.2-5.5-18.7-4.4c-5.8,1.4-6.3,6.4-5.5,11.5c-0.2-1.4,0.2-2.8,0-4.2c0.4,2.3,0,0.4,1.2-0.9c0.8-0.9,1.8-1.4,2.9-1.8
					c2.5-0.9,5.4-1,8.1-0.7c3,0.3,12,1.4,12.3,5.7c0-1.4,0-2.8,0-4.1c-0.7,4.3-6.5,1.8-8.7,0.5c-4.4-2.7-8.6-7.7-8.6-13.1
					c0,1.2,0,2.4,0,3.6c0.7-7,8.1-8.2,14-7.8c4.1,0.3,13.1,1.6,13.8,7c0-1.4,0-2.8,0-4.1c-0.3,6.2-8,3.4-10.9,1.4
					c-4.3-2.9-9-7.8-9.5-13.3c0,1.2,0,2.4,0,3.6c0.1-5.2,7.5-5.4,11.1-4.8c3.7,0.6,7.4,2,10.6,3.8
					C232.2,131.7,233.4,128.1,232.8,127.8L232.8,127.8z"/>
			</g>
		</g>
	</g>
	<path class="st22" d="M141.4,168.7c2.2,4.4,5.3,8.5,9.4,11.9c8,6.9,18.5,10.6,29.6,10.6s21.6-3.8,29.6-10.6c4-3.4,7.2-7.5,9.4-11.9
		H141.4z"/>
	<path class="st23" d="M212.3,174c-9.7,6.4-20.8,9.7-31.9,9.7c-11.1,0-22.2-3.3-31.9-9.7c-2.4-1.6-4.7-3.3-6.9-5.3h-0.2
		c2.2,4.4,5.3,8.5,9.4,11.9c8,6.9,18.5,10.6,29.6,10.6s21.6-3.8,29.6-10.6c4-3.4,7.2-7.5,9.4-11.9h-0.2
		C216.9,170.7,214.6,172.4,212.3,174z"/>
	<path class="st24" d="M141.4,168.7c0,0-2.1-4.2-2.7-6.9h83.1c0,0-1.5,5.4-2.6,6.9"/>
	<path class="st15" d="M209.7,252.3c0,3.8-13.2,5-29.4,5s-29.4-1.2-29.4-5c0-3.8,13.2-10.6,29.4-10.6
		C196.6,241.7,209.7,248.4,209.7,252.3z"/>
	<path class="st17" d="M208.1,249.6c-4,2.2-14.9,2.9-27.7,2.9s-23.7-0.7-27.7-2.9c-1.1,1-1.7,1.9-1.7,2.7c0,3.8,13.2,5,29.4,5
		s29.4-1.2,29.4-5C209.7,251.5,209.1,250.6,208.1,249.6z"/>
	<path class="st15" d="M233.9,143.4c-0.8-0.9-2-1.4-3.2-1.4H130c-1.2,0-2.3,0.5-3.2,1.4c-0.8,0.9-1.3,2-1.2,3.2
		c0.5,14.2,6.4,27.5,16.7,37.4c10.3,9.9,23.8,15.4,38.1,15.4c14.3,0,27.8-5.5,38.1-15.4c10.2-9.9,16.2-23.2,16.7-37.4
		C235.2,145.5,234.7,144.3,233.9,143.4z M209.9,180.6c-8,6.9-18.5,10.6-29.6,10.6s-21.6-3.8-29.6-10.6s-12.6-16-13-25.9
		c0-0.8,0.3-1.6,1-2.2c0.6-0.6,1.5-0.9,2.5-0.9h78.2c0.9,0,1.8,0.3,2.5,0.9c0.6,0.6,1,1.4,1,2.2
		C222.5,164.6,217.9,173.8,209.9,180.6z"/>
	<g>
		<path class="st17" d="M218.4,179.2c-10.3,9.9-23.8,15.4-38.1,15.4s-27.8-5.5-38.1-15.4c-9.4-9.1-15.2-21.1-16.4-34.1
			c-0.2,0.5-0.3,1-0.2,1.5c0.5,14.2,6.4,27.5,16.7,37.4s23.8,15.4,38.1,15.4s27.8-5.5,38.1-15.4c10.2-9.9,16.2-23.2,16.7-37.4
			c0-0.5-0.1-1-0.2-1.5C233.6,158.1,227.9,170.1,218.4,179.2z"/>
	</g>
	<path class="st25" d="M170,177.5c0,1.4-1.1,2.5-2.5,2.5s-2.5-1.1-2.5-2.5s1.1-2.5,2.5-2.5S170,176.1,170,177.5z"/>
	<path class="st25" d="M188.2,173.8c0,1.4-1.1,2.5-2.5,2.5s-2.5-1.1-2.5-2.5s1.1-2.5,2.5-2.5C187.1,171.3,188.2,172.4,188.2,173.8z"
		/>
	<path class="st25" d="M163.1,172.1c0,1-0.8,1.7-1.7,1.7c-1,0-1.7-0.8-1.7-1.7c0-1,0.8-1.7,1.7-1.7
		C162.3,170.3,163.1,171.1,163.1,172.1z"/>
	<path class="st25" d="M192.9,178c0,1-0.8,1.7-1.7,1.7c-1,0-1.7-0.8-1.7-1.7c0-1,0.8-1.7,1.7-1.7C192.1,176.3,192.9,177,192.9,178z"
		/>
	<path class="st25" d="M198.1,174.1c0,1-0.8,1.7-1.7,1.7c-1,0-1.7-0.8-1.7-1.7c0-1,0.8-1.7,1.7-1.7
		C197.3,172.3,198.1,173.1,198.1,174.1z"/>
	<path class="st25" d="M184,180c0,1-0.8,1.7-1.7,1.7c-1,0-1.7-0.8-1.7-1.7c0-1,0.8-1.7,1.7-1.7S184,179.1,184,180z"/>
	<path class="st25" d="M179.2,174.4c0,2-1.6,3.6-3.6,3.6s-3.6-1.6-3.6-3.6s1.6-3.6,3.6-3.6C177.6,170.8,179.2,172.4,179.2,174.4z"/>
	<g>
		<path class="st26" d="M155.9,252.3c0-3.3,6.5-7,19.4-8.5l0.2-44.7c-11.7-1.5-19.7-6.6-28.4-15c-10.2-9.9-16.2-23.2-16.7-37.4
			c0-1.2,0.4-2.4,1.2-3.2c0.8-0.9,2-1.4,3.2-1.4h-5c-1.2,0-2.3,0.5-3.2,1.4c-0.8,0.9-1.3,2-1.2,3.2c0.5,14.2,6.4,27.5,16.7,37.4
			c8.6,8.3,19.6,13.5,31.3,15v43c-12.9,1.5-22.6,6.9-22.6,10.2c0,3.8,13.2,5,29.4,5c0.8,0,1.7,0,2.5,0
			C167.7,257.2,155.9,255.9,155.9,252.3z"/>
	</g>
</g>
</svg>
