<?xml version="1.0" encoding="utf-8"?>
<!-- Generator: Adobe Illustrator 23.0.0, SVG Export Plug-In . SVG Version: 6.00 Build 0)  -->
<svg version="1.1" id="Capa_1" xmlns="http://www.w3.org/2000/svg" xmlns:xlink="http://www.w3.org/1999/xlink" x="0px" y="0px"
	 viewBox="0 0 360 363" style="enable-background:new 0 0 360 363;" xml:space="preserve">
<style type="text/css">
	.st0{fill:#FFD084;}
	.st1{fill:none;stroke:#FFE1C0;stroke-width:0.7573;stroke-miterlimit:10;}
	.st2{fill:#FFD6A4;}
	.st3{fill:none;stroke:#FFE1C0;stroke-width:0.75;stroke-miterlimit:10;}
	.st4{fill:#FFE1C0;}
	.st5{fill:none;stroke:#FFD6A4;stroke-width:0.75;stroke-miterlimit:10;}
	.st6{fill:none;stroke:#FFEFE1;stroke-width:0.7478;stroke-miterlimit:10;}
	.st7{fill:#8F7CE5;}
	.st8{fill:#A6A6DD;}
	.st9{fill:#FFE5CC;}
	.st10{fill:none;stroke:#FFD6A4;stroke-miterlimit:10;}
	.st11{clip-path:url(#SVGID_2_);fill:#FFD8AE;}
	.st12{clip-path:url(#SVGID_4_);fill:#FFD8AE;}
	.st13{fill:none;stroke:#FFFFFF;stroke-width:16.2875;stroke-linejoin:round;stroke-miterlimit:10;}
	.st14{fill:#C7FF00;stroke:#FFFFFF;stroke-width:13.5603;stroke-linejoin:round;stroke-miterlimit:10;}
	.st15{fill:#FFFEFA;stroke:#FFFFFF;stroke-width:13.5603;stroke-linejoin:round;stroke-miterlimit:10;}
	.st16{fill:#FFF700;stroke:#FFFFFF;stroke-width:13.5603;stroke-linejoin:round;stroke-miterlimit:10;}
	.st17{fill:#562F00;}
	.st18{fill:#8A5000;}
	.st19{fill:#FFED73;}
	.st20{fill:url(#SVGID_5_);}
	.st21{opacity:0.8;fill:#FFED73;enable-background:new    ;}
	.st22{fill:url(#SVGID_6_);}
	.st23{fill:url(#SVGID_7_);}
	.st24{fill:url(#SVGID_8_);}
	.st25{fill:url(#SVGID_9_);}
	.st26{fill:url(#SVGID_10_);}
	.st27{fill:url(#SVGID_11_);}
	.st28{fill:url(#SVGID_12_);}
	.st29{fill:url(#SVGID_13_);}
	.st30{fill:url(#SVGID_14_);}
	.st31{fill:url(#SVGID_15_);}
	.st32{fill:url(#SVGID_16_);}
	.st33{fill:url(#SVGID_17_);}
	.st34{fill:url(#SVGID_18_);}
	.st35{fill:url(#SVGID_19_);}
	.st36{fill:url(#SVGID_20_);}
	.st37{fill:url(#SVGID_21_);}
	.st38{fill:url(#SVGID_22_);}
	.st39{fill:url(#SVGID_23_);}
	.st40{fill:url(#SVGID_24_);}
	.st41{fill:url(#SVGID_25_);}
	.st42{fill:url(#SVGID_26_);}
	.st43{fill:url(#SVGID_27_);}
	.st44{fill:url(#SVGID_28_);}
	.st45{fill:url(#SVGID_29_);}
	.st46{fill:url(#SVGID_30_);}
	.st47{fill:url(#SVGID_31_);}
	.st48{fill:url(#SVGID_32_);}
	.st49{fill:url(#SVGID_33_);}
	.st50{fill:url(#SVGID_34_);}
	.st51{fill:url(#SVGID_35_);}
	.st52{opacity:0.75;}
	.st53{fill:url(#SVGID_36_);}
	.st54{fill:url(#SVGID_37_);}
	.st55{fill:#CCCCFF;}
	.st56{fill:#B1B1EF;}
	.st57{opacity:0.6;fill:#EF9325;enable-background:new    ;}
	.st58{fill:#FFDCA4;}
	.st59{opacity:0.3;fill:#FFFFFF;enable-background:new    ;}
	.st60{fill:#FFFFFF;fill-opacity:0;}
</style>
<g id="fondo">
	<g id="Rectángulo_556">
		<rect y="-0.1" class="st0" width="360" height="363.3"/>
		<rect x="0.5" y="0.4" class="st0" width="359" height="362.2"/>
	</g>
	<path class="st1" d="M228.1,263.3c0,0,44-35.1,59.7-104.9c15.8-69.8-12.4-91.7-12.4-91.7S254.9,40.3,242,77.3
		c0,0-11.1,37.2-24.4,18.6c0,0-4-5.6-6.5-13s-11-10.5-11-10.5s-21.4-7.3-59.4,34.8c0,0-30.9,35.9-25.5,83.1s10.5,56.8,10.5,56.8
		L228.1,263.3z"/>
	<path class="st2" d="M225.9,276.1c0,0,43.1-35.1,58.6-104.9s-12.2-91.7-12.2-91.7s-20.1-26.4-32.8,10.6c0,0-10.9,37.2-23.9,18.6
		c0,0-3.9-5.6-6.4-13s-10.8-10.5-10.8-10.5s-21-7.3-58.2,34.8c0,0-30.3,35.9-25,83.1s10.3,56.8,10.3,56.8L225.9,276.1z"/>
	<path class="st3" d="M114.9,250.6c0,0-61.2-54.4-49.7-80.4s30.9-7.5,30.9-7.5s25.7,22.6,47.9,63.9L114.9,250.6z"/>
	<path class="st2" d="M115.8,254.7c0,0-54.1-58.6-42.6-84.6s30.9-7.5,30.9-7.5s25.7,22.6,47.9,63.9L115.8,254.7z"/>
	<path class="st4" d="M206.4,270c0,0,41.3-44.5,60.9-102.8c0,0,11.1-34-2.3-60c0,0-8.2-25.8-29.3,14.8s-29.4,11.9-29.4,11.9
		s-8.1-59.5-44-15.2s-22.9,140.1-22.9,140.1L206.4,270z"/>
	<path class="st5" d="M191.1,246.3c0,0,54.4-73,68-155.4"/>
	<path class="st6" d="M195.3,271c0,0,33.9-33.6,51.3-78.9c0,0,9.9-26.4,0.3-47.4c0,0-5.5-20.6-23.5,10.6s-23.4,8.4-23.4,8.4
		s-4.3-47.2-33.9-13.5s-22.8,109.6-22.8,109.6L195.3,271z"/>
	<g>
		
			<ellipse transform="matrix(1 -1.876236e-03 1.876236e-03 1 -0.5353 0.338)" class="st7" cx="179.9" cy="285.5" rx="102.6" ry="21.4"/>
		<polygon class="st7" points="282.5,285.3 282.7,271.4 77.5,271.8 77.3,285.7 		"/>
		
			<ellipse transform="matrix(1 -1.876236e-03 1.876236e-03 1 -0.5093 0.3384)" class="st8" cx="180.1" cy="271.6" rx="102.6" ry="21.4"/>
	</g>
	<path class="st3" d="M239.7,225.4c0,0,41.8-19.1,39.9,8.9s-53,30.9-53,30.9s-15.5-0.3-14.5-10.3C213.1,245,218.5,235.9,239.7,225.4
		z"/>
	<path class="st9" d="M229.9,227.9c0,0,37.6-26.4,40.9,1.5c3.2,27.9-46.4,40.1-46.4,40.1S209,272,208.2,262
		C207.3,252,211,242.1,229.9,227.9z"/>
	<path class="st10" d="M208.2,262c0,0,44.4-19.6,65.3-41.4"/>
	<g>
		<g>
			<g>
				<g>
					<defs>
						<path id="SVGID_1_" d="M229.9,227.9c0,0,37.6-26.4,40.9,1.5c3.2,27.9-46.4,40.1-46.4,40.1S209,272,208.2,262
							C207.3,252,211,242.1,229.9,227.9z"/>
					</defs>
					<clipPath id="SVGID_2_">
						<use xlink:href="#SVGID_1_"  style="overflow:visible;"/>
					</clipPath>
					<path class="st11" d="M240.9,216.5c0,0-27.3,46.6,4.8,50c21.5,2.3-22.9,11.5-22.9,11.5l-20.3-4.6l-1.3-29.1l20-22.9
						L240.9,216.5z"/>
				</g>
			</g>
		</g>
	</g>
	<g>
		<path class="st9" d="M128.2,230.7c0,0-34.9-21.9-37.3,9.5c0,0,6.5,28.1,39.9,22.4S128.2,230.7,128.2,230.7z"/>
	</g>
	<path class="st10" d="M143,253.3c0,0-40.9-21-62.4-13.1"/>
	<g>
		<g>
			<g>
				<g>
					<defs>
						<path id="SVGID_3_" d="M128.2,230.7c0,0-34.9-21.9-37.3,9.5c0,0,6.5,28.1,39.9,22.4S128.2,230.7,128.2,230.7z"/>
					</defs>
					<clipPath id="SVGID_4_">
						<use xlink:href="#SVGID_3_"  style="overflow:visible;"/>
					</clipPath>
					<path class="st12" d="M124.1,223.3h-4h-3.6c0,0,17.6,26,9.4,34.6c-8.3,8.6-9.4,6.7-9.4,6.7l19.6,1.8l15.9-7.2l1.2-14.3
						l-16-11.9L124.1,223.3z"/>
				</g>
			</g>
		</g>
	</g>
	<path class="st3" d="M84.5,166.6c0,0,21.6,45.3,54.6,70.4"/>
	<path class="st3" d="M103.9,168.3c0,0-5.4,4-7,10.8"/>
	<path class="st3" d="M108.2,176.4c0,0-5.3,5.3-6,14.2"/>
	<path class="st3" d="M96.9,195.4c0,0-6.3-0.5-14.9,3.6"/>
	<path class="st3" d="M102.2,201.8c0,0-10.9,0.4-15.6,3.7"/>
	<path class="st2" d="M109.5,112.7c0.1,4-3.4,7.8-6.2,10.4c-1-2.4-1.9-5-2-7.6c-0.1-2,0.7-4,2.2-5.3c0.5-0.4,1-0.8,1.7-0.9
		c0.4-0.1,0.7-0.2,1.1-0.2C108,109.3,109.4,110.9,109.5,112.7z"/>
	<path class="st2" d="M81.9,128.8c-3.1,0.3-9-1.1-11.6-3.3c-2.3-1.7-2.3-2.2-3.4-4.9c-1-2.7,0.6-5.9,3.6-6.2
		c1.5-0.2,3.1,0.2,4.3,1.1C79.1,118.4,82.6,123.4,81.9,128.8z"/>
	<path class="st4" d="M105.6,147.4c-1.9,1.1-5-0.2-4.7-2.6c-0.2-2.8,4.1-3.8,5.6-1.6C107.5,144.5,106.9,146.6,105.6,147.4z"/>
	<path class="st4" d="M319.5,90.1c-2.6,1.4-6.6-0.3-6.3-3.5c-0.2-3.8,5.5-5.1,7.4-2.1C322,86.2,321.3,88.9,319.5,90.1z"/>
	<path class="st2" d="M328.9,302.3c-3.1,1.7-7.9-0.3-7.6-4.2c-0.3-4.5,6.6-6.1,8.9-2.5C331.9,297.6,331,300.9,328.9,302.3z"/>
	<path class="st4" d="M286.4,314c-2,1.1-5.2-0.2-5-2.8c-0.2-3,4.3-4,5.8-1.7C288.4,311,287.9,313.1,286.4,314z"/>
	<path class="st2" d="M61.9,249.7c-2.6,1.4-6.6-0.3-6.3-3.5c-0.2-3.8,5.5-5.1,7.4-2.1C64.4,245.8,63.7,248.5,61.9,249.7z"/>
	
		<ellipse transform="matrix(0.3506 -0.9365 0.9365 0.3506 -99.1611 229.9918)" class="st9" cx="116.3" cy="186.5" rx="2.7" ry="1.7"/>
	
		<ellipse transform="matrix(0.3506 -0.9365 0.9365 0.3506 -107.5473 238.2236)" class="st9" cx="118" cy="196.7" rx="2.7" ry="1.7"/>
	
		<ellipse transform="matrix(0.3506 -0.9365 0.9365 0.3506 -136.5256 236.2146)" class="st0" cx="102.1" cy="216.6" rx="3" ry="1.8"/>
</g>
<path class="st13" d="M210.1,195.8C210.1,195.8,210.2,195.7,210.1,195.8c0-1.7-13.6-3-30.3-3c-16.8,0-30.4,1.3-30.4,2.9v0.1l0,0
	v54.9V261c0,2.4,1.9,4.3,4.3,4.3H206c2.4,0,4.3-1.9,4.3-4.3v-10.2v-54.9L210.1,195.8L210.1,195.8z"/>
<g>
	<path class="st14" d="M142.4,215L142.4,215c-9-6-11.5-18.1-5.5-27.1c5.9-9,18.1-11.4,27-5.5l0.1,0.1L142.4,215z"/>
	<path class="st15" d="M143.5,213.3L143.5,213.3c-8.1-5.4-10.3-16.2-5-24.3c5.3-8,16.2-10.3,24.2-4.9l0.1,0.1L143.5,213.3z"/>
	<g>
		<path class="st16" d="M153.2,197l-6.8-12.8c4.7-2.1,10.3-2,15,0.9L153.2,197z"/>
		<path class="st16" d="M151.7,197.7l-14.5-0.6c0.2-2.5,1.1-5,2.6-7.3c1.5-2.3,3.5-4,5.7-5.2L151.7,197.7z"/>
		<path class="st16" d="M143.8,211.6c-4.5-3.2-6.8-8.3-6.7-13.4l14.4,1.2L143.8,211.6z"/>
	</g>
</g>
<g>
	<g>
		<path class="st17" d="M139.1,211.9C139.1,211.9,139.1,211.9,139.1,211.9c0.2,0.2,0.2,0.2,0.2,0.3c0.2,0.2,0.3,0.5,0.5,0.7
			c0.4,0.5,0.8,0.9,0.8,0.9l22-30.9c0.1,0,0.1,0.1,0.1,0.1l0.2-0.5l0.2-0.4c0,0-0.1,0-0.1-0.1l0.5-1.1c0,0-0.2-0.1-0.4-0.2
			s-0.5-0.2-0.8-0.3c-0.3-0.1-0.6-0.2-0.8-0.3c-0.2,0-0.2-0.1-0.3-0.1s-0.1,0-0.1,0l-0.2,1c-0.8-0.2-1.5-0.5-2.4-0.6l0.1-0.9h-0.1
			c-0.1,0-0.2,0-0.3-0.1c-0.2,0-0.5-0.1-0.8-0.2c-0.3,0-0.6-0.1-0.8-0.1c-0.2,0-0.4,0-0.4,0v0.9c-0.8-0.1-1.6-0.1-2.4,0l-0.1-1
			c0,0-0.2,0-0.4,0c-0.2,0-0.5,0-0.8,0.1c-0.3,0-0.6,0.1-0.8,0.1s-0.4,0.1-0.4,0.1l0.2,1c-0.5,0.1-0.9,0.2-1.4,0.2
			c-0.2,0.1-0.5,0.1-0.6,0.2c-0.2,0.1-0.4,0.1-0.4,0.1l-0.4-1.1c0,0-0.2,0-0.4,0.1c-0.2,0.1-0.5,0.2-0.8,0.2
			c-0.3,0.1-0.6,0.2-0.8,0.2c-0.2,0.1-0.4,0.2-0.4,0.2l0.5,1c0,0-0.2,0.1-0.3,0.2c-0.2,0.1-0.5,0.2-0.8,0.3
			c-0.3,0.1-0.5,0.2-0.8,0.3s-0.3,0.2-0.3,0.2l0.1,0.2l0,0l-0.7-1.1c0,0,0,0-0.1,0.1c-0.1,0-0.2,0.1-0.2,0.2
			c-0.2,0.1-0.5,0.2-0.8,0.4c-0.2,0.2-0.5,0.3-0.7,0.4c-0.2,0.2-0.3,0.2-0.3,0.2l0.7,0.9c0,0-0.2,0.1-0.3,0.2
			c-0.2,0.1-0.4,0.3-0.6,0.5c-0.2,0.1-0.2,0.2-0.3,0.2c-0.1,0.1-0.2,0.2-0.3,0.2c-0.2,0.2-0.3,0.2-0.3,0.2l0.2,0.2l0,0l-1-1.1
			c0,0,0,0-0.1,0.1c-0.1,0.1-0.2,0.1-0.2,0.2c-0.2,0.2-0.4,0.4-0.6,0.5c-0.2,0.2-0.5,0.5-0.6,0.6c-0.1,0.1-0.2,0.2-0.2,0.2
			c-0.1,0.1-0.1,0.1-0.1,0.1l0.8,0.8c0,0-0.1,0.1-0.2,0.2s-0.3,0.4-0.5,0.6c-0.2,0.2-0.4,0.5-0.5,0.6c-0.2,0.2-0.2,0.3-0.2,0.3
			l0.3,0.2l0,0l-1.3-0.8c0,0-0.1,0.2-0.2,0.3s-0.3,0.5-0.5,0.7c-0.1,0.2-0.2,0.2-0.2,0.4c-0.1,0.2-0.2,0.2-0.2,0.3
			c-0.1,0.2-0.2,0.3-0.2,0.3l1,0.5c0,0,0,0-0.1,0.1c0,0.1-0.1,0.2-0.2,0.2c-0.1,0.2-0.2,0.5-0.3,0.7c-0.2,0.2-0.2,0.5-0.3,0.7
			c-0.1,0.1-0.1,0.2-0.1,0.2c0,0.1,0,0.1,0,0.1l-1.1-0.5c0,0-0.1,0.2-0.2,0.4c-0.1,0.2-0.2,0.5-0.2,0.8c-0.1,0.3-0.2,0.6-0.2,0.8
			c-0.1,0.2-0.1,0.4-0.1,0.4l1.1,0.3c0,0,0,0.2-0.1,0.4c-0.1,0.2-0.1,0.5-0.2,0.8c0,0.2-0.1,0.3-0.1,0.4c0,0.2,0,0.2-0.1,0.4
			c0,0.2-0.1,0.4-0.1,0.4l-1.1-0.2c0,0,0,0,0,0.1c0,0.1,0,0.2,0,0.3c0,0.2,0,0.5-0.1,0.8c0,0.3,0,0.6,0,0.8c0,0.2,0,0.4,0,0.4
			l1.1,0.1c0,0,0,0.2,0,0.4c0,0.2,0,0.5,0,0.8c0,0.3,0,0.6,0.1,0.8c0,0.2,0.1,0.4,0.1,0.4l0,0l0,0h-1.1c0,0,0,0.2,0.1,0.4
			c0,0.2,0.1,0.5,0.2,0.8c0.1,0.3,0.1,0.6,0.2,0.8c0.1,0.2,0.1,0.4,0.1,0.4l1.1-0.2c0.2,0.8,0.3,1.5,0.5,2.3l-1,0.2
			c0,0,0.1,0.2,0.2,0.4c0.1,0.2,0.2,0.5,0.3,0.8c0.1,0.3,0.2,0.6,0.3,0.8c0.1,0.2,0.2,0.4,0.2,0.4l0.9-0.3c0.3,0.8,0.7,1.4,1.1,2.1
			l-0.9,0.5c0,0,0.1,0.2,0.2,0.3c0.2,0.2,0.3,0.5,0.5,0.8c0.2,0.3,0.4,0.5,0.5,0.7c0.2,0.2,0.2,0.3,0.2,0.3L139.1,211.9z
			 M136.2,192.2L136.2,192.2L136.2,192.2L136.2,192.2z"/>
		<path class="st18" d="M138.1,188.6l0.4-0.5l0,0l0.1-0.1c0.1-0.1,0.2-0.2,0.2-0.3c0.1-0.1,0.2-0.2,0.2-0.2c0.2-0.2,0.2-0.3,0.4-0.5
			l0.5-0.6l-0.8-0.8l0.2-0.2c0.2-0.2,0.2-0.2,0.4-0.4l0.6-0.5l0.8,0.8l0.2-0.2l0.5-0.5l0.3-0.2c0.2-0.2,0.5-0.3,0.6-0.5l0.6-0.4
			l-0.7-0.9l0,0l0.7-0.4c0.2-0.1,0.3-0.2,0.5-0.2c0.1-0.1,0.2-0.1,0.2-0.2l0,0l0.5,0.8l0.4-0.2l-0.1,0.2l0.5-0.2
			c0.2-0.1,0.4-0.2,0.6-0.2c0.1-0.1,0.2-0.1,0.3-0.2c0.2-0.1,0.3-0.2,0.5-0.2l0.7-0.2l-0.5-1l0,0c0.2-0.1,0.3-0.1,0.5-0.2l0.3-0.1
			c0.2-0.1,0.4-0.1,0.5-0.2c0.1,0,0.2-0.1,0.2-0.1h0.1l0.3,1h0.2c0.1,0,0.1,0,0.5-0.1c0.1,0,0.2,0,0.2-0.1c0.1,0,0.2-0.1,0.4-0.1
			c0.5-0.1,0.9-0.2,1.3-0.2l0.4-0.1l-0.2-1l0,0c0.2,0,0.3,0,0.5-0.1c0.1,0,0.2,0,0.3,0c0.2,0,0.4,0,0.6-0.1c0.1,0,0.2,0,0.2,0h0.1
			l0.1,1h0.3c0.8-0.1,1.6-0.1,2.4,0h0.4v-0.9l0,0c0.2,0,0.3,0,0.5,0.1h0.3c0.2,0,0.4,0.1,0.6,0.1c0.1,0,0.2,0,0.3,0h0.1l-0.1,0.9
			l0.3,0.1c0.8,0.2,1.6,0.4,2.3,0.6l0.4,0.2l0.2-1l0,0c0.1,0,0.2,0.1,0.2,0.1c0.2,0.1,0.4,0.2,0.6,0.2l0.3,0.1
			c0.2,0.1,0.4,0.2,0.5,0.2h0.1l-0.5,1.1l0,0l-0.1,0.1l-0.1,0.2h-0.1l-21.9,30.8c-0.2-0.2-0.3-0.4-0.5-0.6c-0.2-0.2-0.2-0.3-0.4-0.5
			c-0.1-0.1-0.1-0.2-0.2-0.2l-0.2-0.2c0-0.1-0.1-0.1-0.1-0.1l-0.2-0.3l-0.3,0.2l-0.6,0.4l-0.2-0.2c-0.2-0.2-0.2-0.4-0.4-0.6
			c-0.1-0.1-0.1-0.2-0.2-0.2c-0.1-0.2-0.2-0.3-0.3-0.5v-0.1l0.9-0.5l-0.2-0.3c-0.4-0.7-0.8-1.4-1.1-2.1l-0.2-0.3l-0.9,0.3v-0.1
			c-0.1-0.2-0.2-0.5-0.3-0.8c0-0.1-0.1-0.2-0.1-0.2c-0.1-0.2-0.2-0.4-0.2-0.5l0,0l0.9-0.2l-0.1-0.3c-0.2-0.8-0.4-1.4-0.5-2.2
			l-0.1-0.3L134,203V203c0-0.1,0-0.2-0.1-0.2c0-0.2-0.1-0.4-0.1-0.6c0-0.1,0-0.2-0.1-0.3c0-0.2-0.1-0.4-0.1-0.5l0,0l1.7-0.1
			l-0.7-0.5c0-0.1,0-0.2,0-0.2c0-0.2,0-0.3,0-0.5c0-0.1,0-0.2,0-0.3c0-0.2,0-0.5,0-0.7v-0.8l-1.1-0.1V198c0-0.2,0-0.4,0-0.6l0.1-0.8
			l1.1,0.2v-0.4l0.1-0.7l0.1-0.6c0-0.2,0.1-0.4,0.1-0.5l0.2-0.7l-1.1-0.3v-0.1l0.2-0.8c0.1-0.2,0.1-0.4,0.2-0.5
			c0-0.1,0.1-0.2,0.1-0.2l0,0l1.1,0.5l0.1-0.4c0,0,0,0,0-0.1l0.1-0.2c0-0.1,0.1-0.2,0.1-0.2c0.1-0.2,0.2-0.3,0.2-0.5l0.3-0.7
			c0-0.1,0.1-0.1,0.1-0.2v-0.1l0.2-0.4l-1-0.5l0.2-0.4l0.2-0.4c0.1-0.1,0.1-0.2,0.2-0.2c0.1-0.2,0.2-0.3,0.3-0.5v-0.1L138.1,188.6z"
			/>
		<path class="st19" d="M138.4,189.5l0.8-0.4l0.2-0.3v-0.1c0.1-0.1,0.2-0.2,0.2-0.3c0.1-0.1,0.2-0.2,0.2-0.2
			c0.2-0.2,0.2-0.3,0.4-0.5c0.1-0.1,0.9-1,0.9-1l-0.8-0.7c0.1-0.1,0.2-0.2,0.2-0.2l0.2-0.2l0.5,0.5l1-0.2l0.5-0.5l0.3-0.2
			c0.2-0.2,0.5-0.3,0.6-0.4l1.1-0.7l-0.7-0.9l0.2-0.2c0.1-0.1,0.2-0.1,0.3-0.2l0.2,0.5l1,0.2l0.5-0.2c0.2-0.1,0.4-0.2,0.5-0.2
			c0.1-0.1,0.2-0.1,0.3-0.2c0.2-0.1,0.3-0.2,0.4-0.2l1.2-0.5l-0.5-1l0.3-0.1c0.2,0,0.2-0.1,0.3-0.1l0.3,0.8h0.6c0.1,0,0.1,0,0.5-0.1
			c0.1,0,0.2,0,0.2-0.1c0.1,0,0.2-0.1,0.3-0.1l0,0c0.5-0.1,0.8-0.2,1.3-0.2l0.8-0.2l-0.2-1c0.1,0,0.2,0,0.3,0c0.2,0,0.2,0,0.4,0
			l0.2,1l0.8-0.1c0.8-0.1,1.5-0.1,2.3,0l0.9,0.1v-0.9h0.3c0.2,0,0.2,0,0.4,0.1l-0.1,0.9l0.8,0.2c0.8,0.2,1.5,0.3,2.2,0.6l0.9,0.3
			l0.2-1.1c0.1,0,0.2,0.1,0.3,0.1l0.4,0.2l-0.2,0.7l-21.5,30.4l-0.1-0.1l0,0c-0.2-0.2-0.2-0.3-0.3-0.4c-0.1-0.1-0.1-0.2-0.2-0.2
			l-0.2-0.2v-0.1l-0.5-0.7l-0.7,0.5l-0.2,0.2c-0.1-0.1-0.2-0.2-0.2-0.3c-0.1-0.1-0.2-0.2-0.2-0.3l0,0l0.9-0.5l-0.5-0.8
			c-0.4-0.6-0.8-1.3-1.1-2l-0.3-0.8l-1.1,0.3c-0.1-0.1-0.1-0.2-0.2-0.4c0-0.1-0.1-0.2-0.1-0.2l0,0l0.9-0.2l-0.2-0.8
			c-0.2-0.7-0.4-1.4-0.5-2.2l-0.2-0.8l-1.1,0.2c0-0.2-0.1-0.2-0.1-0.4c0-0.1,0-0.2-0.1-0.3l1-0.3v-1c0-0.2,0-0.3,0-0.5
			c0-0.1,0-0.2,0-0.3c0-0.2,0-0.5,0-0.6v-1.2l-1.1-0.1c0-0.2,0-0.2,0-0.4v-0.3l1.2,0.2v-0.9l0.1-0.6l0.1-0.6c0-0.2,0.1-0.4,0.1-0.5
			l0.2-1.1l-1.1-0.3l0.1-0.3c0-0.1,0.1-0.2,0.1-0.2l1.1,0.5l0.2-0.8l0,0l0.1-0.3c0-0.1,0.1-0.2,0.1-0.2c0.1-0.2,0.2-0.3,0.2-0.5
			l0.3-0.7c0-0.1,0-0.1,0.1-0.1l0.5-0.9l-1-0.5l0.2-0.3c0.1-0.1,0.1-0.2,0.2-0.2l0,0L138.4,189.5z"/>
		
			<radialGradient id="SVGID_5_" cx="-276.2795" cy="507.9975" r="13.7621" gradientTransform="matrix(-0.5973 0.8038 0.8381 0.6035 -444.8302 108.9992)" gradientUnits="userSpaceOnUse">
			<stop  offset="0" style="stop-color:#FFED73"/>
			<stop  offset="0.23" style="stop-color:#FFEA69"/>
			<stop  offset="0.6177" style="stop-color:#FFE24F"/>
			<stop  offset="0.9946" style="stop-color:#FFD82F"/>
		</radialGradient>
		<path class="st20" d="M141.5,212.5c-0.1-0.1-0.1-0.1-0.2-0.2s-0.1-0.2-0.2-0.2l-0.2-0.2l-0.7-0.9h-0.1l-0.6-1
			c-0.4-0.6-0.8-1.3-1.1-2l-0.5-1l-0.3-1.1c-0.2-0.7-0.4-1.4-0.5-2.1l-0.2-1.1l-1.1,0.2c0,0,0,0,0-0.1l0.9-0.3v-1.2l0,0
			c0-0.1,0-0.2,0-0.4c0-0.2,0-0.2,0-0.3c0-0.2,0-0.5,0-0.6v-1.4h0.2v-1.3l0.1-0.6l0.1-0.6c0-0.2,0.1-0.4,0.1-0.5l0.3-1.3h0.1
			l0.4-1.2c0-0.1,0.1-0.2,0.1-0.2c0-0.1,0.1-0.2,0.1-0.2c0.1-0.2,0.2-0.3,0.2-0.5l0.3-0.7v-0.1l0.6-1.2l-0.5-0.2l1-0.5l0.2-0.4v-0.1
			c0.1-0.1,0.2-0.2,0.2-0.3l0,0c0.1-0.1,0.2-0.2,0.2-0.2c0.1-0.2,0.2-0.3,0.4-0.4c0.1-0.1,1.1-1.2,1.1-1.2l-0.4-0.3l1.1-0.2l0.6-0.5
			l0.3-0.2c0.2-0.2,0.4-0.3,0.5-0.4l1.3-0.8l-0.4-0.5l1.1,0.2l0.5-0.2c0.2-0.1,0.4-0.2,0.5-0.2c0.1-0.1,0.2-0.1,0.3-0.2
			c0.2-0.1,0.3-0.2,0.4-0.2l1.5-0.5l-0.1-0.2h0.8c0.2,0,0.2,0,0.6-0.1c0.1,0,0.2,0,0.2-0.1c0.1,0,0.2-0.1,0.3-0.1l0,0
			c0.4-0.1,0.8-0.2,1.3-0.2l1.1-0.2l1.1-0.1c0.8-0.1,1.5-0.1,2.3,0l1.1,0.1l1.1,0.2c0.8,0.2,1.5,0.3,2.2,0.5l0.9,0.3l-8.5,11.9
			l-0.9,1.3l-2,2.7l-0.9,1.3L141.5,212.5z"/>
		<polygon class="st21" points="139.5,210.6 159.8,181.9 162.4,183.2 141.2,212.8 		"/>
	</g>
	<g>
		<g>
			<g>
				
					<linearGradient id="SVGID_6_" gradientUnits="userSpaceOnUse" x1="-276.1559" y1="527.7986" x2="-276.1559" y2="537.0465" gradientTransform="matrix(-0.5904 0.8071 0.8071 0.5904 -448.5176 100.8586)">
					<stop  offset="0" style="stop-color:#FFE99C"/>
					<stop  offset="0.7366" style="stop-color:#FFE760"/>
				</linearGradient>
				<path class="st22" d="M147.8,195.2c-0.7-0.4-6.5-3.6-7-3.9c-0.3-0.2-0.5-0.5-0.5-0.8s0-0.6,0.2-0.8c0.2-0.3,0.6-0.5,1-0.5
					c0.3,0,0.5,0.1,0.8,0.2c0.5,0.3,5.4,4.9,5.9,5.3L147.8,195.2z"/>
				
					<linearGradient id="SVGID_7_" gradientUnits="userSpaceOnUse" x1="-276.1471" y1="528.1356" x2="-276.1471" y2="537.007" gradientTransform="matrix(-0.5904 0.8071 0.8071 0.5904 -448.5176 100.8586)">
					<stop  offset="5.376360e-03" style="stop-color:#FAD103"/>
					<stop  offset="0.1594" style="stop-color:#FAD309"/>
					<stop  offset="0.3742" style="stop-color:#FBD71C"/>
					<stop  offset="0.6249" style="stop-color:#FCDF39"/>
					<stop  offset="0.9007" style="stop-color:#FEE962"/>
					<stop  offset="1" style="stop-color:#FFED73"/>
				</linearGradient>
				<path class="st23" d="M141,191c-0.5-0.3-0.5-0.8-0.2-1.2c0.3-0.4,0.8-0.5,1.3-0.2c0.5,0.3,5.9,5.3,5.9,5.3S141.4,191.4,141,191z
					"/>
			</g>
			<g>
				
					<linearGradient id="SVGID_8_" gradientUnits="userSpaceOnUse" x1="-279.0353" y1="528.0637" x2="-279.0353" y2="533.802" gradientTransform="matrix(-0.5904 0.8071 0.8071 0.5904 -448.5176 100.8586)">
					<stop  offset="0" style="stop-color:#FFE99C"/>
					<stop  offset="0.7366" style="stop-color:#FFE760"/>
				</linearGradient>
				<path class="st24" d="M146.3,191.7c-0.9-0.6-3.8-2.7-4-2.9c-0.2-0.2-0.2-0.3-0.2-0.5c0-0.3,0.2-0.7,0.5-0.9
					c0.3-0.2,0.6-0.4,0.9-0.4c0.2,0,0.5,0.1,0.6,0.2c0.2,0.2,2.1,3.2,2.7,4L146.3,191.7z"/>
				
					<linearGradient id="SVGID_9_" gradientUnits="userSpaceOnUse" x1="-279.0166" y1="528.4039" x2="-279.0166" y2="533.6869" gradientTransform="matrix(-0.5904 0.8071 0.8071 0.5904 -448.5176 100.8586)">
					<stop  offset="5.376360e-03" style="stop-color:#FAD103"/>
					<stop  offset="0.1594" style="stop-color:#FAD309"/>
					<stop  offset="0.3742" style="stop-color:#FBD71C"/>
					<stop  offset="0.6249" style="stop-color:#FCDF39"/>
					<stop  offset="0.9007" style="stop-color:#FEE962"/>
					<stop  offset="1" style="stop-color:#FFED73"/>
				</linearGradient>
				<path class="st25" d="M142.5,188.5c-0.2-0.2-0.1-0.7,0.2-1c0.4-0.3,0.8-0.4,1-0.2c0.2,0.2,2.7,4,2.7,4S142.8,188.8,142.5,188.5z
					"/>
			</g>
			<g>
				
					<linearGradient id="SVGID_10_" gradientUnits="userSpaceOnUse" x1="-280.9402" y1="528.8546" x2="-280.9402" y2="537.6299" gradientTransform="matrix(-0.5904 0.8071 0.8071 0.5904 -448.5176 100.8586)">
					<stop  offset="0" style="stop-color:#FFE99C"/>
					<stop  offset="0.7366" style="stop-color:#FFE760"/>
				</linearGradient>
				<path class="st26" d="M149.8,193.1c-0.5-0.5-4.9-5.5-5.2-6c-0.2-0.3-0.3-0.6-0.2-1c0.1-0.3,0.2-0.6,0.5-0.8
					c0.2-0.2,0.4-0.2,0.7-0.2c0.5,0,0.8,0.2,1.1,0.5c0.3,0.5,3.3,6.3,3.7,6.9L149.8,193.1z"/>
				
					<linearGradient id="SVGID_11_" gradientUnits="userSpaceOnUse" x1="-280.9219" y1="529.1918" x2="-280.9219" y2="537.4818" gradientTransform="matrix(-0.5904 0.8071 0.8071 0.5904 -448.5176 100.8586)">
					<stop  offset="5.376360e-03" style="stop-color:#FAD103"/>
					<stop  offset="0.1594" style="stop-color:#FAD309"/>
					<stop  offset="0.3742" style="stop-color:#FBD71C"/>
					<stop  offset="0.6249" style="stop-color:#FCDF39"/>
					<stop  offset="0.9007" style="stop-color:#FEE962"/>
					<stop  offset="1" style="stop-color:#FFED73"/>
				</linearGradient>
				<path class="st27" d="M145,186.9c-0.3-0.5-0.2-1,0.2-1.2c0.4-0.2,1-0.2,1.2,0.3c0.3,0.5,3.7,6.9,3.7,6.9S145.2,187.3,145,186.9z
					"/>
			</g>
			<g>
				
					<linearGradient id="SVGID_12_" gradientUnits="userSpaceOnUse" x1="-283.6412" y1="530.0662" x2="-283.6412" y2="535.8501" gradientTransform="matrix(-0.5904 0.8071 0.8071 0.5904 -448.5176 100.8586)">
					<stop  offset="0" style="stop-color:#FFE99C"/>
					<stop  offset="0.7366" style="stop-color:#FFE760"/>
				</linearGradient>
				<path class="st28" d="M150,189.8c-0.5-0.7-2.8-4.1-3-4.5c-0.1-0.2-0.1-0.5,0-0.6c0.2-0.3,0.4-0.5,0.8-0.7
					c0.2-0.1,0.4-0.2,0.6-0.2c0.5,0,0.8,0.2,0.9,0.5c0.2,0.3,1.1,4.3,1.4,5.2L150,189.8z"/>
				
					<linearGradient id="SVGID_13_" gradientUnits="userSpaceOnUse" x1="-283.6076" y1="530.4036" x2="-283.6076" y2="535.6355" gradientTransform="matrix(-0.5904 0.8071 0.8071 0.5904 -448.5176 100.8586)">
					<stop  offset="5.376360e-03" style="stop-color:#FAD103"/>
					<stop  offset="0.1594" style="stop-color:#FAD309"/>
					<stop  offset="0.3742" style="stop-color:#FBD71C"/>
					<stop  offset="0.6249" style="stop-color:#FCDF39"/>
					<stop  offset="0.9007" style="stop-color:#FEE962"/>
					<stop  offset="1" style="stop-color:#FFED73"/>
				</linearGradient>
				<path class="st29" d="M147.3,185.1c-0.2-0.3,0.1-0.7,0.5-0.9c0.5-0.2,0.9-0.1,1.1,0.2c0.2,0.3,1.4,5.1,1.4,5.1
					S147.4,185.4,147.3,185.1z"/>
			</g>
			<g>
				
					<linearGradient id="SVGID_14_" gradientUnits="userSpaceOnUse" x1="-284.3342" y1="531.8256" x2="-284.3342" y2="539.9873" gradientTransform="matrix(-0.5904 0.8071 0.8071 0.5904 -448.5176 100.8586)">
					<stop  offset="0" style="stop-color:#FFE99C"/>
					<stop  offset="0.7366" style="stop-color:#FFE760"/>
				</linearGradient>
				<path class="st30" d="M152.8,192.7c-0.3-0.8-2.9-7.6-3-8.1c-0.1-0.4-0.1-0.8,0.2-1.1c0.2-0.3,0.4-0.5,0.7-0.5c0.1,0,0.2,0,0.2,0
					c0.6,0,1.1,0.5,1.3,1.1c0.2,0.5,1.2,7.7,1.3,8.5L152.8,192.7z"/>
				
					<linearGradient id="SVGID_15_" gradientUnits="userSpaceOnUse" x1="-284.3305" y1="532.1628" x2="-284.3305" y2="539.7468" gradientTransform="matrix(-0.5904 0.8071 0.8071 0.5904 -448.5176 100.8586)">
					<stop  offset="5.376360e-03" style="stop-color:#FAD103"/>
					<stop  offset="0.1594" style="stop-color:#FAD309"/>
					<stop  offset="0.3742" style="stop-color:#FBD71C"/>
					<stop  offset="0.6249" style="stop-color:#FCDF39"/>
					<stop  offset="0.9007" style="stop-color:#FEE962"/>
					<stop  offset="1" style="stop-color:#FFED73"/>
				</linearGradient>
				<path class="st31" d="M150.1,184.5c-0.2-0.5,0.2-1.1,0.6-1.1c0.5-0.1,1,0.2,1.1,0.8s1.3,8.5,1.3,8.5S150.3,185,150.1,184.5z"/>
			</g>
			<g>
				
					<linearGradient id="SVGID_16_" gradientUnits="userSpaceOnUse" x1="-287.3564" y1="533.8129" x2="-287.3564" y2="538.5621" gradientTransform="matrix(-0.5904 0.8071 0.8071 0.5904 -448.5176 100.8586)">
					<stop  offset="0" style="stop-color:#FFE99C"/>
					<stop  offset="0.7366" style="stop-color:#FFE760"/>
				</linearGradient>
				<path class="st32" d="M153.9,188.7c-0.2-0.8-1.2-4.8-1.3-5.2c0-0.2,0.1-0.5,0.2-0.6c0.2-0.2,0.5-0.4,0.9-0.4h0.1
					c0.6,0,1.1,0.4,1.2,0.8c0,0.4-0.4,4.4-0.5,5.2L153.9,188.7z"/>
				
					<linearGradient id="SVGID_17_" gradientUnits="userSpaceOnUse" x1="-287.3731" y1="534.1498" x2="-287.3731" y2="538.27" gradientTransform="matrix(-0.5904 0.8071 0.8071 0.5904 -448.5176 100.8586)">
					<stop  offset="5.376360e-03" style="stop-color:#FAD103"/>
					<stop  offset="0.1594" style="stop-color:#FAD309"/>
					<stop  offset="0.3742" style="stop-color:#FBD71C"/>
					<stop  offset="0.6249" style="stop-color:#FCDF39"/>
					<stop  offset="0.9007" style="stop-color:#FEE962"/>
					<stop  offset="1" style="stop-color:#FFED73"/>
				</linearGradient>
				<path class="st33" d="M153,183.5c0-0.3,0.4-0.6,0.8-0.7c0.5,0,0.9,0.2,0.9,0.5c0,0.3-0.5,5.2-0.5,5.2S153,183.8,153,183.5z"/>
			</g>
			<g>
				
					<linearGradient id="SVGID_18_" gradientUnits="userSpaceOnUse" x1="-287.9598" y1="536.2786" x2="-287.9598" y2="541.2506" gradientTransform="matrix(-0.5904 0.8071 0.8071 0.5904 -448.5176 100.8586)">
					<stop  offset="0" style="stop-color:#FFE99C"/>
					<stop  offset="0.7366" style="stop-color:#FFE760"/>
				</linearGradient>
				<path class="st34" d="M155.7,190.6c0-0.7-0.2-6.5-0.2-7c0.1-0.6,0.5-1,1.2-1c0.1,0,0.1,0,0.2,0c0.7,0.1,1.1,0.7,1.1,1.3
					c-0.1,0.5-1.4,6.2-1.6,6.8L155.7,190.6z"/>
				
					<linearGradient id="SVGID_19_" gradientUnits="userSpaceOnUse" x1="-287.8917" y1="536.6156" x2="-287.8917" y2="540.939" gradientTransform="matrix(-0.5904 0.8071 0.8071 0.5904 -448.5176 100.8586)">
					<stop  offset="5.376360e-03" style="stop-color:#FAD103"/>
					<stop  offset="0.1594" style="stop-color:#FAD309"/>
					<stop  offset="0.3742" style="stop-color:#FBD71C"/>
					<stop  offset="0.6249" style="stop-color:#FCDF39"/>
					<stop  offset="0.9007" style="stop-color:#FEE962"/>
					<stop  offset="1" style="stop-color:#FFED73"/>
				</linearGradient>
				<path class="st35" d="M155.9,183.7c0.1-0.5,0.5-0.8,1-0.7c0.5,0.1,0.8,0.5,0.8,0.9c-0.1,0.5-1.6,6.7-1.6,6.7
					S155.8,184.1,155.9,183.7z"/>
			</g>
			<g>
				
					<linearGradient id="SVGID_20_" gradientUnits="userSpaceOnUse" x1="-290.5306" y1="538.8459" x2="-290.5306" y2="541.6569" gradientTransform="matrix(-0.5904 0.8071 0.8071 0.5904 -448.5176 100.8586)">
					<stop  offset="0" style="stop-color:#FFE99C"/>
					<stop  offset="0.7366" style="stop-color:#FFE760"/>
				</linearGradient>
				<path class="st36" d="M158.3,187.6c0.1-1.4,0.2-3.7,0.2-3.9c0.1-0.3,0.4-0.5,0.8-0.5c0.2,0,0.4,0,0.5,0.1c0.7,0.2,1.1,0.7,1,1.1
					c-0.1,0.2-1.2,2.3-2,3.5L158.3,187.6z"/>
				
					<linearGradient id="SVGID_21_" gradientUnits="userSpaceOnUse" x1="-290.4549" y1="539.1837" x2="-290.4549" y2="541.3217" gradientTransform="matrix(-0.5904 0.8071 0.8071 0.5904 -448.5176 100.8586)">
					<stop  offset="5.376360e-03" style="stop-color:#FAD103"/>
					<stop  offset="0.1594" style="stop-color:#FAD309"/>
					<stop  offset="0.3742" style="stop-color:#FBD71C"/>
					<stop  offset="0.6249" style="stop-color:#FCDF39"/>
					<stop  offset="0.9007" style="stop-color:#FEE962"/>
					<stop  offset="1" style="stop-color:#FFED73"/>
				</linearGradient>
				<path class="st37" d="M158.9,183.8c0.1-0.2,0.5-0.3,1-0.2c0.5,0.2,0.8,0.5,0.8,0.7c-0.1,0.2-1.9,3.4-1.9,3.4
					S158.8,184,158.9,183.8z"/>
			</g>
			<g>
				
					<linearGradient id="SVGID_22_" gradientUnits="userSpaceOnUse" x1="-262.4873" y1="538.6481" x2="-262.4873" y2="541.9008" gradientTransform="matrix(-0.5904 0.8071 0.8071 0.5904 -448.5176 100.8586)">
					<stop  offset="0" style="stop-color:#FFE99C"/>
					<stop  offset="0.7366" style="stop-color:#FFE760"/>
				</linearGradient>
				<path class="st38" d="M141.3,210.4c-0.4,0-0.8-0.2-1-0.6c-0.2-0.3-0.3-0.7-0.2-1c0.1-0.2,0.2-0.4,0.3-0.5c0.3-0.2,3.6-1.6,4.6-2
					l0.4,0.5c-0.8,0.8-3.4,3.3-3.6,3.4C141.6,210.3,141.5,210.4,141.3,210.4z"/>
				
					<linearGradient id="SVGID_23_" gradientUnits="userSpaceOnUse" x1="-262.6198" y1="538.9849" x2="-262.6198" y2="541.5687" gradientTransform="matrix(-0.5904 0.8071 0.8071 0.5904 -448.5176 100.8586)">
					<stop  offset="5.376360e-03" style="stop-color:#FAD103"/>
					<stop  offset="0.1594" style="stop-color:#FAD309"/>
					<stop  offset="0.3742" style="stop-color:#FBD71C"/>
					<stop  offset="0.6249" style="stop-color:#FCDF39"/>
					<stop  offset="0.9007" style="stop-color:#FEE962"/>
					<stop  offset="1" style="stop-color:#FFED73"/>
				</linearGradient>
				<path class="st39" d="M140.6,208.5c-0.3,0.2-0.2,0.6,0,1.1c0.3,0.4,0.7,0.6,1,0.4c0.3-0.2,3.6-3.4,3.6-3.4
					S140.8,208.4,140.6,208.5z"/>
			</g>
			<g>
				
					<linearGradient id="SVGID_24_" gradientUnits="userSpaceOnUse" x1="-264.3672" y1="536.0589" x2="-264.3672" y2="541.0303" gradientTransform="matrix(-0.5904 0.8071 0.8071 0.5904 -448.5176 100.8586)">
					<stop  offset="0" style="stop-color:#FFE99C"/>
					<stop  offset="0.7366" style="stop-color:#FFE760"/>
				</linearGradient>
				<path class="st40" d="M139.8,207.8c-0.5,0-0.9-0.3-1.1-0.8c-0.2-0.3-0.2-0.7-0.1-0.9c0.1-0.3,0.3-0.5,0.6-0.6
					c0.4-0.2,6-1.7,6.6-1.9l0.2,0.6c-0.5,0.3-5.5,3.3-5.9,3.5C140.1,207.8,140,207.8,139.8,207.8z"/>
				
					<linearGradient id="SVGID_25_" gradientUnits="userSpaceOnUse" x1="-264.4788" y1="536.4" x2="-264.4788" y2="540.723" gradientTransform="matrix(-0.5904 0.8071 0.8071 0.5904 -448.5176 100.8586)">
					<stop  offset="5.376360e-03" style="stop-color:#FAD103"/>
					<stop  offset="0.1594" style="stop-color:#FAD309"/>
					<stop  offset="0.3742" style="stop-color:#FBD71C"/>
					<stop  offset="0.6249" style="stop-color:#FCDF39"/>
					<stop  offset="0.9007" style="stop-color:#FEE962"/>
					<stop  offset="1" style="stop-color:#FFED73"/>
				</linearGradient>
				<path class="st41" d="M139.4,205.8c-0.4,0.2-0.5,0.7-0.4,1.1c0.2,0.5,0.7,0.7,1.1,0.5c0.4-0.2,5.8-3.4,5.8-3.4
					S139.8,205.6,139.4,205.8z"/>
			</g>
			<g>
				
					<linearGradient id="SVGID_26_" gradientUnits="userSpaceOnUse" x1="-264.9611" y1="533.6125" x2="-264.9611" y2="538.2156" gradientTransform="matrix(-0.5904 0.8071 0.8071 0.5904 -448.5176 100.8586)">
					<stop  offset="0" style="stop-color:#FFE99C"/>
					<stop  offset="0.7366" style="stop-color:#FFE760"/>
				</linearGradient>
				<path class="st42" d="M138.8,205.1c-0.5,0-0.8-0.4-1-1c-0.1-0.4-0.1-0.8,0.1-1c0.2-0.2,0.3-0.3,0.5-0.4c0.3-0.1,3.9-0.2,5.1-0.3
					l0.2,0.6c-1,0.5-4.3,1.9-4.6,2C138.8,205.1,138.8,205.1,138.8,205.1L138.8,205.1z"/>
				
					<linearGradient id="SVGID_27_" gradientUnits="userSpaceOnUse" x1="-264.9122" y1="533.9496" x2="-264.9122" y2="537.9232" gradientTransform="matrix(-0.5904 0.8071 0.8071 0.5904 -448.5176 100.8586)">
					<stop  offset="5.376360e-03" style="stop-color:#FAD103"/>
					<stop  offset="0.1594" style="stop-color:#FAD309"/>
					<stop  offset="0.3742" style="stop-color:#FBD71C"/>
					<stop  offset="0.6249" style="stop-color:#FCDF39"/>
					<stop  offset="0.9007" style="stop-color:#FEE962"/>
					<stop  offset="1" style="stop-color:#FFED73"/>
				</linearGradient>
				<path class="st43" d="M138.4,203.1c-0.3,0.1-0.5,0.5-0.4,1c0.2,0.5,0.5,0.8,0.8,0.7c0.3-0.1,4.6-2,4.6-2S138.7,203,138.4,203.1z
					"/>
			</g>
			<g>
				
					<linearGradient id="SVGID_28_" gradientUnits="userSpaceOnUse" x1="-267.4135" y1="531.6322" x2="-267.4135" y2="538.3054" gradientTransform="matrix(-0.5904 0.8071 0.8071 0.5904 -448.5176 100.8586)">
					<stop  offset="0" style="stop-color:#FFE99C"/>
					<stop  offset="0.7366" style="stop-color:#FFE760"/>
				</linearGradient>
				<path class="st44" d="M138.4,202.2c-0.6,0-1.1-0.5-1.1-1.1c0-0.3,0.1-0.7,0.3-0.9s0.5-0.4,0.8-0.4l0,0c0.8,0,6.7,0.5,6.9,0.5
					l0.1,0.7C144.5,201.1,138.9,202.2,138.4,202.2L138.4,202.2z"/>
				
					<linearGradient id="SVGID_29_" gradientUnits="userSpaceOnUse" x1="-267.3956" y1="531.9653" x2="-267.3956" y2="538.0539" gradientTransform="matrix(-0.5904 0.8071 0.8071 0.5904 -448.5176 100.8586)">
					<stop  offset="5.376360e-03" style="stop-color:#FAD103"/>
					<stop  offset="0.1594" style="stop-color:#FAD309"/>
					<stop  offset="0.3742" style="stop-color:#FBD71C"/>
					<stop  offset="0.6249" style="stop-color:#FCDF39"/>
					<stop  offset="0.9007" style="stop-color:#FEE962"/>
					<stop  offset="1" style="stop-color:#FFED73"/>
				</linearGradient>
				<path class="st45" d="M138.3,200.2c-0.5,0-0.8,0.5-0.8,0.9c0,0.5,0.5,0.8,0.8,0.8c0.5,0,6.8-1.3,6.8-1.3
					S138.7,200.2,138.3,200.2z"/>
			</g>
			<g>
				
					<linearGradient id="SVGID_30_" gradientUnits="userSpaceOnUse" x1="-268.7374" y1="529.9474" x2="-268.7374" y2="535.678" gradientTransform="matrix(-0.5904 0.8071 0.8071 0.5904 -448.5176 100.8586)">
					<stop  offset="0" style="stop-color:#FFE99C"/>
					<stop  offset="0.7366" style="stop-color:#FFE760"/>
				</linearGradient>
				<path class="st46" d="M138.1,199.3c-0.5-0.1-0.9-0.6-0.8-1.3c0.1-0.6,0.5-1.1,1-1.1h0.1c0.4,0.1,4.3,1.2,5.1,1.4l-0.1,0.7
					C143.2,199.1,138.9,199.4,138.1,199.3C138.1,199.3,138.1,199.3,138.1,199.3z"/>
				
					<linearGradient id="SVGID_31_" gradientUnits="userSpaceOnUse" x1="-268.7857" y1="530.2789" x2="-268.7857" y2="535.4562" gradientTransform="matrix(-0.5904 0.8071 0.8071 0.5904 -448.5176 100.8586)">
					<stop  offset="5.376360e-03" style="stop-color:#FAD103"/>
					<stop  offset="0.1594" style="stop-color:#FAD309"/>
					<stop  offset="0.3742" style="stop-color:#FBD71C"/>
					<stop  offset="0.6249" style="stop-color:#FCDF39"/>
					<stop  offset="0.9007" style="stop-color:#FEE962"/>
					<stop  offset="1" style="stop-color:#FFED73"/>
				</linearGradient>
				<path class="st47" d="M138.2,197.3c-0.3,0-0.6,0.3-0.7,0.8c-0.1,0.5,0.2,0.9,0.5,0.9c0.3,0,5.2-0.3,5.2-0.3
					S138.6,197.3,138.2,197.3z"/>
			</g>
			<g>
				
					<linearGradient id="SVGID_32_" gradientUnits="userSpaceOnUse" x1="-271.303" y1="528.7649" x2="-271.303" y2="536.8434" gradientTransform="matrix(-0.5904 0.8071 0.8071 0.5904 -448.5176 100.8586)">
					<stop  offset="0" style="stop-color:#FFE99C"/>
					<stop  offset="0.7366" style="stop-color:#FFE760"/>
				</linearGradient>
				<path class="st48" d="M145.7,197.7c-0.7-0.1-6.7-1.1-7.1-1.2c-0.6-0.2-1-0.8-0.8-1.4c0.2-0.5,0.6-0.8,1.1-0.8
					c0.1,0,0.2,0,0.3,0.1c0.5,0.2,6.1,2.6,6.7,2.8L145.7,197.7z"/>
				
					<linearGradient id="SVGID_33_" gradientUnits="userSpaceOnUse" x1="-271.3621" y1="529.1014" x2="-271.3621" y2="536.6825" gradientTransform="matrix(-0.5904 0.8071 0.8071 0.5904 -448.5176 100.8586)">
					<stop  offset="5.376360e-03" style="stop-color:#FAD103"/>
					<stop  offset="0.1594" style="stop-color:#FAD309"/>
					<stop  offset="0.3742" style="stop-color:#FBD71C"/>
					<stop  offset="0.6249" style="stop-color:#FCDF39"/>
					<stop  offset="0.9007" style="stop-color:#FEE962"/>
					<stop  offset="1" style="stop-color:#FFED73"/>
				</linearGradient>
				<path class="st49" d="M139.2,194.5c-0.5-0.2-0.9,0.2-1.1,0.6c-0.2,0.5,0.2,0.9,0.6,1.1c0.5,0.2,7.1,1.2,7.1,1.2
					S139.6,194.7,139.2,194.5z"/>
			</g>
			<g>
				
					<linearGradient id="SVGID_34_" gradientUnits="userSpaceOnUse" x1="-273.323" y1="528.0242" x2="-273.323" y2="533.927" gradientTransform="matrix(-0.5904 0.8071 0.8071 0.5904 -448.5176 100.8586)">
					<stop  offset="0" style="stop-color:#FFE99C"/>
					<stop  offset="0.7366" style="stop-color:#FFE760"/>
				</linearGradient>
				<path class="st50" d="M144.1,195.1c-1.1-0.3-4.6-1.3-4.9-1.4c-0.2-0.2-0.4-0.4-0.5-0.7c0-0.2,0-0.5,0.2-0.8
					c0.2-0.5,0.6-0.8,1-0.8c0.2,0,0.2,0,0.3,0.1c0.3,0.2,3.2,2.3,4.1,3L144.1,195.1z"/>
				
					<linearGradient id="SVGID_35_" gradientUnits="userSpaceOnUse" x1="-273.2713" y1="528.3615" x2="-273.2713" y2="533.8073" gradientTransform="matrix(-0.5904 0.8071 0.8071 0.5904 -448.5176 100.8586)">
					<stop  offset="5.376360e-03" style="stop-color:#FAD103"/>
					<stop  offset="0.1594" style="stop-color:#FAD309"/>
					<stop  offset="0.3742" style="stop-color:#FBD71C"/>
					<stop  offset="0.6249" style="stop-color:#FCDF39"/>
					<stop  offset="0.9007" style="stop-color:#FEE962"/>
					<stop  offset="1" style="stop-color:#FFED73"/>
				</linearGradient>
				<path class="st51" d="M140.1,191.8c-0.3-0.2-0.7,0.1-0.9,0.5c-0.2,0.5-0.2,0.9,0.2,1.1c0.3,0.2,4.8,1.4,4.8,1.4
					S140.4,192,140.1,191.8z"/>
			</g>
		</g>
		<g>
			<g class="st52">
			</g>
			<g>
				
					<linearGradient id="SVGID_36_" gradientUnits="userSpaceOnUse" x1="-276.1797" y1="537.4963" x2="-276.1797" y2="541.9146" gradientTransform="matrix(-0.5904 0.8071 0.8071 0.5904 -448.5176 100.8586)">
					<stop  offset="0" style="stop-color:#FFE99C"/>
					<stop  offset="0.7366" style="stop-color:#FFE760"/>
				</linearGradient>
				<path class="st53" d="M149.6,200.6c-0.2-0.1-0.5-0.2-0.6-0.4c-0.8-0.5-1.2-1.3-1.4-2.2c-0.2-1,0.1-1.9,0.7-2.7
					c0.7-1,1.8-1.5,3-1.5c0.8,0,1.4,0.2,2,0.6c0.2,0.2,0.3,0.2,0.5,0.4l0.2,0.2l-1.3,1.8l-0.3-0.2c-0.1-0.1-0.1-0.1-0.2-0.2
					c-0.2-0.2-0.5-0.3-0.8-0.3c-0.5,0-0.8,0.2-1.1,0.5c-0.2,0.3-0.3,0.6-0.2,1s0.2,0.7,0.6,0.9c0.1,0.1,0.2,0.1,0.2,0.2l0.4,0.2
					l-1.3,1.8L149.6,200.6z"/>
				
					<linearGradient id="SVGID_37_" gradientUnits="userSpaceOnUse" x1="-276.125" y1="537.8334" x2="-276.125" y2="541.5743" gradientTransform="matrix(-0.5904 0.8071 0.8071 0.5904 -448.5176 100.8586)">
					<stop  offset="5.376360e-03" style="stop-color:#FAD103"/>
					<stop  offset="0.1594" style="stop-color:#FAD309"/>
					<stop  offset="0.3742" style="stop-color:#FBD71C"/>
					<stop  offset="0.6249" style="stop-color:#FCDF39"/>
					<stop  offset="0.9007" style="stop-color:#FEE962"/>
					<stop  offset="1" style="stop-color:#FFED73"/>
				</linearGradient>
				<path class="st54" d="M149.7,200.3l0.9-1.3c-0.1-0.1-0.2-0.1-0.2-0.2c-0.8-0.5-1-1.7-0.4-2.4c0.5-0.8,1.7-0.9,2.4-0.3
					c0.1,0.1,0.2,0.1,0.2,0.2l0.9-1.3c-0.2-0.2-0.2-0.2-0.4-0.3c-1.4-1-3.4-0.7-4.5,0.8c-1.1,1.4-0.8,3.5,0.6,4.5
					C149.3,200.2,149.5,200.2,149.7,200.3z"/>
			</g>
		</g>
	</g>
</g>
<path class="st55" d="M147.9,195.8V261c0,2.4,2,4.3,4.5,4.3h55.2c2.5,0,4.5-1.9,4.5-4.3v-65.2H147.9z"/>
<ellipse class="st56" cx="179.9" cy="195.7" rx="32.1" ry="2.9"/>
<path class="st56" d="M207.6,255h-55.2c-2.5,0-4.5-1.9-4.5-4.3V261c0,2.4,2,4.3,4.5,4.3h55.2c2.5,0,4.5-1.9,4.5-4.3v-10.2
	C212.1,253.1,210.1,255,207.6,255z"/>
<g>
	<path class="st57" d="M153.1,217.4v31.4c0,2.1,1.7,3.7,3.7,3.7h45.9c2.1,0,3.7-1.7,3.7-3.7v-31.4H153.1z"/>
	<ellipse class="st58" cx="179.7" cy="217.4" rx="26.6" ry="2.9"/>
</g>
<g>
	<path class="st59" d="M175.4,251.8c-0.4,0.8-1.4,1.1-2.3,0.7l-14.4-7.8c-0.8-0.4-1.1-1.4-0.7-2.3l7.8-14.4c0.4-0.8,1.4-1.1,2.3-0.7
		l14.4,7.8c0.8,0.4,1.1,1.4,0.7,2.3L175.4,251.8z"/>
	<path class="st59" d="M201.2,238.9c0.2,0.9-0.3,1.8-1.2,2l-15.9,4.1c-0.9,0.2-1.8-0.3-2-1.2L178,228c-0.2-0.9,0.3-1.8,1.2-2
		l15.9-4.1c0.9-0.2,1.8,0.3,2,1.2L201.2,238.9z"/>
</g>
<path class="st60" d="M206.3,217.4c-0.3,1.6-12.1,2.9-26.6,2.9s-26.3-1.3-26.6-2.9l0,0v31.4c0,2.1,1.7,3.7,3.7,3.7h45.9
	c2.1,0,3.7-1.7,3.7-3.7L206.3,217.4L206.3,217.4z"/>
<g>
	<path class="st58" d="M184.4,214.5c0.1,0.3,0.2,0.6,0.1,0.9c0.2,0.4,0.2,0.9-0.2,1.4c-2,2.2-6.4,2.2-7.9-0.4h-0.1
		c-0.7-0.5-1.3-1.1-1.7-1.8c-12.2,0.3-21.4,1.5-21.4,2.9c0,1.6,11.9,2.9,26.6,2.9s26.6-1.3,26.6-2.9
		C206.3,215.9,196.8,214.7,184.4,214.5z"/>
</g>
<polygon class="st59" points="157.4,197.8 156.5,252.7 161.4,252.7 164.2,198.4 "/>
</svg>
