<?xml version="1.0" encoding="utf-8"?>
<!-- Generator: Adobe Illustrator 23.0.0, SVG Export Plug-In . SVG Version: 6.00 Build 0)  -->
<svg version="1.1" id="Capa_1" xmlns="http://www.w3.org/2000/svg" xmlns:xlink="http://www.w3.org/1999/xlink" x="0px" y="0px"
	 viewBox="0 0 360 363" style="enable-background:new 0 0 360 363;" xml:space="preserve">
<style type="text/css">
	.st0{fill:#FFD084;}
	.st1{fill:none;stroke:#FFE1C0;stroke-width:0.7573;stroke-miterlimit:10;}
	.st2{fill:#FFD6A4;}
	.st3{fill:none;stroke:#FFE1C0;stroke-width:0.75;stroke-miterlimit:10;}
	.st4{fill:#FFE1C0;}
	.st5{fill:none;stroke:#FFD6A4;stroke-width:0.75;stroke-miterlimit:10;}
	.st6{fill:none;stroke:#FFEFE1;stroke-width:0.7478;stroke-miterlimit:10;}
	.st7{fill:#8F7CE5;}
	.st8{fill:#A6A6DD;}
	.st9{fill:#FFE5CC;}
	.st10{fill:none;stroke:#FFD6A4;stroke-miterlimit:10;}
	.st11{clip-path:url(#SVGID_2_);fill:#FFD8AE;}
	.st12{clip-path:url(#SVGID_4_);fill:#FFD8AE;}
	.st13{fill:none;stroke:#FFFFFF;stroke-width:11;stroke-linejoin:round;stroke-miterlimit:10;}
	.st14{fill:none;stroke:#FFFFFF;stroke-width:16.2875;stroke-linejoin:round;stroke-miterlimit:10;}
	.st15{clip-path:url(#SVGID_6_);fill:#508C1B;}
	.st16{clip-path:url(#SVGID_8_);fill:#4A8412;}
	.st17{fill:#5E9B23;}
	.st18{opacity:8.000000e-02;}
	.st19{fill:#FFFFFF;}
	.st20{fill:#5AA610;}
	.st21{clip-path:url(#SVGID_10_);fill:#529907;}
	.st22{fill:#6DAF27;}
	.st23{opacity:0.12;}
	.st24{fill:#CCCCFF;}
	.st25{fill:#B1B1EF;}
	.st26{opacity:0.6;fill:#BA5547;enable-background:new    ;}
	.st27{fill:#E0908C;}
	.st28{opacity:0.3;fill:#FFFFFF;enable-background:new    ;}
	.st29{fill:#FFFFFF;fill-opacity:0;}
</style>
<g id="fondo">
	<g id="Rectángulo_556">
		<rect y="-0.1" class="st0" width="360" height="363.3"/>
		<rect x="0.5" y="0.4" class="st0" width="359" height="362.2"/>
	</g>
	<path class="st1" d="M228.1,263.3c0,0,44-35.1,59.7-104.9c15.8-69.8-12.4-91.7-12.4-91.7S254.9,40.3,242,77.3
		c0,0-11.1,37.2-24.4,18.6c0,0-4-5.6-6.5-13s-11-10.5-11-10.5s-21.4-7.3-59.4,34.8c0,0-30.9,35.9-25.5,83.1s10.5,56.8,10.5,56.8
		L228.1,263.3z"/>
	<path class="st2" d="M225.9,276.1c0,0,43.1-35.1,58.6-104.9s-12.2-91.7-12.2-91.7s-20.1-26.4-32.8,10.6c0,0-10.9,37.2-23.9,18.6
		c0,0-3.9-5.6-6.4-13s-10.8-10.5-10.8-10.5s-21-7.3-58.2,34.8c0,0-30.3,35.9-25,83.1s10.3,56.8,10.3,56.8L225.9,276.1z"/>
	<path class="st3" d="M114.9,250.6c0,0-61.2-54.4-49.7-80.4s30.9-7.5,30.9-7.5s25.7,22.6,47.9,63.9L114.9,250.6z"/>
	<path class="st2" d="M115.8,254.7c0,0-54.1-58.6-42.6-84.6s30.9-7.5,30.9-7.5s25.7,22.6,47.9,63.9L115.8,254.7z"/>
	<path class="st4" d="M206.4,270c0,0,41.3-44.5,60.9-102.8c0,0,11.1-34-2.3-60c0,0-8.2-25.8-29.3,14.8s-29.4,11.9-29.4,11.9
		s-8.1-59.5-44-15.2s-22.9,140.1-22.9,140.1L206.4,270z"/>
	<path class="st5" d="M191.1,246.3c0,0,54.4-73,68-155.4"/>
	<path class="st6" d="M195.3,271c0,0,33.9-33.6,51.3-78.9c0,0,9.9-26.4,0.3-47.4c0,0-5.5-20.6-23.5,10.6s-23.4,8.4-23.4,8.4
		s-4.3-47.2-33.9-13.5s-22.8,109.6-22.8,109.6L195.3,271z"/>
	<g>
		
			<ellipse transform="matrix(1 -1.876229e-03 1.876229e-03 1 -0.5353 0.338)" class="st7" cx="179.9" cy="285.5" rx="102.6" ry="21.4"/>
		<polygon class="st7" points="282.5,285.3 282.7,271.4 77.5,271.8 77.3,285.7 		"/>
		
			<ellipse transform="matrix(1 -1.876229e-03 1.876229e-03 1 -0.5093 0.3384)" class="st8" cx="180.1" cy="271.6" rx="102.6" ry="21.4"/>
	</g>
	<path class="st3" d="M239.7,225.4c0,0,41.8-19.1,39.9,8.9s-53,30.9-53,30.9s-15.5-0.3-14.5-10.3C213.1,245,218.5,235.9,239.7,225.4
		z"/>
	<path class="st9" d="M229.9,227.9c0,0,37.6-26.4,40.9,1.5c3.2,27.9-46.4,40.1-46.4,40.1S209,272,208.2,262
		C207.3,252,211,242.1,229.9,227.9z"/>
	<path class="st10" d="M208.2,262c0,0,44.4-19.6,65.3-41.4"/>
	<g>
		<g>
			<g>
				<g>
					<g>
						<defs>
							<path id="SVGID_1_" d="M229.9,227.9c0,0,37.6-26.4,40.9,1.5c3.2,27.9-46.4,40.1-46.4,40.1S209,272,208.2,262
								C207.3,252,211,242.1,229.9,227.9z"/>
						</defs>
						<clipPath id="SVGID_2_">
							<use xlink:href="#SVGID_1_"  style="overflow:visible;"/>
						</clipPath>
						<path class="st11" d="M240.9,216.5c0,0-27.3,46.6,4.8,50c21.5,2.3-22.9,11.5-22.9,11.5l-20.3-4.6l-1.3-29.1l20-22.9
							L240.9,216.5z"/>
					</g>
				</g>
			</g>
		</g>
	</g>
	<g>
		<path class="st9" d="M128.2,230.7c0,0-34.9-21.9-37.3,9.5c0,0,6.5,28.1,39.9,22.4S128.2,230.7,128.2,230.7z"/>
	</g>
	<path class="st10" d="M143,253.3c0,0-40.9-21-62.4-13.1"/>
	<g>
		<g>
			<g>
				<g>
					<g>
						<defs>
							<path id="SVGID_3_" d="M128.2,230.7c0,0-34.9-21.9-37.3,9.5c0,0,6.5,28.1,39.9,22.4S128.2,230.7,128.2,230.7z"/>
						</defs>
						<clipPath id="SVGID_4_">
							<use xlink:href="#SVGID_3_"  style="overflow:visible;"/>
						</clipPath>
						<path class="st12" d="M124.1,223.3h-4h-3.6c0,0,17.6,26,9.4,34.6c-8.3,8.6-9.4,6.7-9.4,6.7l19.6,1.8l15.9-7.2l1.2-14.3
							l-16-11.9L124.1,223.3z"/>
					</g>
				</g>
			</g>
		</g>
	</g>
	<path class="st3" d="M84.5,166.6c0,0,21.6,45.3,54.6,70.4"/>
	<path class="st3" d="M103.9,168.3c0,0-5.4,4-7,10.8"/>
	<path class="st3" d="M108.2,176.4c0,0-5.3,5.3-6,14.2"/>
	<path class="st3" d="M96.9,195.4c0,0-6.3-0.5-14.9,3.6"/>
	<path class="st3" d="M102.2,201.8c0,0-10.9,0.4-15.6,3.7"/>
	<path class="st2" d="M109.5,112.7c0.1,4-3.4,7.8-6.2,10.4c-1-2.4-1.9-5-2-7.6c-0.1-2,0.7-4,2.2-5.3c0.5-0.4,1-0.8,1.7-0.9
		c0.4-0.1,0.7-0.2,1.1-0.2C108,109.3,109.4,110.9,109.5,112.7z"/>
	<path class="st2" d="M81.9,128.8c-3.1,0.3-9-1.1-11.6-3.3c-2.3-1.7-2.3-2.2-3.4-4.9c-1-2.7,0.6-5.9,3.6-6.2
		c1.5-0.2,3.1,0.2,4.3,1.1C79.1,118.4,82.6,123.4,81.9,128.8z"/>
	<path class="st4" d="M105.6,147.4c-1.9,1.1-5-0.2-4.7-2.6c-0.2-2.8,4.1-3.8,5.6-1.6C107.5,144.5,106.9,146.6,105.6,147.4z"/>
	<path class="st4" d="M319.5,90.1c-2.6,1.4-6.6-0.3-6.3-3.5c-0.2-3.8,5.5-5.1,7.4-2.1C322,86.2,321.3,88.9,319.5,90.1z"/>
	<path class="st2" d="M328.9,302.3c-3.1,1.7-7.9-0.3-7.6-4.2c-0.3-4.5,6.6-6.1,8.9-2.5C331.9,297.6,331,300.9,328.9,302.3z"/>
	<path class="st4" d="M286.4,314c-2,1.1-5.2-0.2-5-2.8c-0.2-3,4.3-4,5.8-1.7C288.4,311,287.9,313.1,286.4,314z"/>
	<path class="st2" d="M61.9,249.7c-2.6,1.4-6.6-0.3-6.3-3.5c-0.2-3.8,5.5-5.1,7.4-2.1C64.4,245.8,63.7,248.5,61.9,249.7z"/>
	
		<ellipse transform="matrix(0.3506 -0.9365 0.9365 0.3506 -99.1221 229.9783)" class="st9" cx="116.3" cy="186.5" rx="2.7" ry="1.7"/>
	
		<ellipse transform="matrix(0.3506 -0.9365 0.9365 0.3506 -107.5452 238.2627)" class="st9" cx="118" cy="196.7" rx="2.7" ry="1.7"/>
	
		<ellipse transform="matrix(0.3506 -0.9365 0.9365 0.3506 -136.4789 236.2523)" class="st0" cx="102.1" cy="216.5" rx="3" ry="1.8"/>
</g>
<path class="st13" d="M192.5,193.9c0.7-0.3,1.3-0.6,1.8-0.8c-1.3-0.8-2.6-1.5-4.1-2.3c1-0.6,1.7-1,2.3-1.4c-1.1-0.8-2-1.4-3.1-2.2
	c1.1-0.6,1.9-1,2.8-1.4c-0.8-0.9-1.5-1.7-2.2-2.5c0.9-0.4,1.7-0.8,2.5-1.1c-0.8-1-1.4-1.9-2.2-2.9c0.7-0.2,1.2-0.4,1.7-0.6
	c0.5-0.2,0.9-0.4,1.2-0.6c-0.5-1.2-0.9-2.2-1.3-3.3c1.2,0.2,2,0.3,2.7,0.4c0.1-2,0.2-3.8,0.3-5.6c0.1,0,0.2-0.1,0.3-0.1
	c1.1,1.1,2.2,2.1,3.4,3.3c0.5-0.5,1-0.9,1.7-1.6c0.4,1.6,0.7,3,1.1,4.7c0.6-1.1,1.1-1.8,1.7-2.9c0.6,1.8,1.2,3.4,1.8,5
	c0.3-0.3,0.6-0.6,1.2-1.1c0.4,1.9,0.7,3.5,1,5.2c1.3-1,2.6-1.9,3.6-2.7c0.7,1,1.3,2,2,3c1-1.4,1.9-2.6,2.8-3.7
	c0.7,1.1,1.3,2,1.9,2.9c1.1-1.2,2-2.2,3-3.4c0.6,1,1,1.8,1.5,2.5c0.4,0.6,0.8,0.8,1.5,0.1c0.7-0.7,1.7-1.2,2.5-1.8
	c0.1,0.1,0.2,0.2,0.4,0.3c0,0.8,0,1.5,0,2.3c0,0.8,0.4,0.9,1.2,0.7c2-0.4,4-0.7,5.9-1.1c0.1,0.1,0.1,0.2,0.2,0.3
	c-1,1.6-2.1,3.3-3.2,5.1c0.7,0.4,1.3,0.9,2.3,1.5c-1.7,0.9-3.2,1.7-5,2.6c1.3,0.5,2.4,0.9,3.9,1.4c-2,1.2-3.9,2.3-5.8,3.4
	c0.5,0.3,0.9,0.7,1.7,1.2c-2.3,0.9-4.3,1.7-6.5,2.6c1,0.7,1.9,1.3,2.8,2c-1.9,1.5-4.1,2.3-6.6,3c0.9,0.6,1.7,1.1,2.7,1.7
	c-4.7,1.2-9,0.9-13.2-1c-2-0.9-3.6-2.4-5-4.1c-0.5-0.6-0.7-1.5-0.9-2.3c-0.2-0.8-0.6-1.1-1.4-1.1C196.6,197.3,194.4,196,192.5,193.9
	z"/>
<g>
	<path class="st14" d="M210.1,195.8C210.1,195.8,210.2,195.7,210.1,195.8c0-1.7-13.6-3-30.3-3c-16.8,0-30.4,1.3-30.4,2.9v0.1l0,0
		v54.9V261c0,2.4,1.9,4.3,4.3,4.3H206c2.4,0,4.3-1.9,4.3-4.3v-10.2v-54.9L210.1,195.8L210.1,195.8z"/>
	<g>
		<g>
			<g>
				<g>
					<g>
						<g>
							<g>
								<defs>
									<path id="SVGID_5_" d="M208.2,195.2c2.6-3,4-7,3.7-11.2c-0.7,0.6-1.3,1.2-1.9,2c0.1-2-0.4-4.2-1.3-6c0,0-1.3,1.7-2.3,2.3
										c0,0,0.1-0.1,0.2-0.1l0.1-0.1c-0.1-1.8-0.2-3.8-1.1-5.4c-0.4,0.4-0.8,0.8-1.2,1.4c0.2-0.3-0.9-4.2-1.8-5.4
										c0,0-0.9,2.3-1.6,2.8c-0.1-0.8-0.3-1.5-0.4-2.3c-0.1-0.8-0.2-1.6-0.8-2.1c0,0,0-0.2-0.1-0.3c-0.4,0.7-0.8,1.2-1.5,1.7
										c-1-1.1-2.3-2.4-3.6-3.5c-0.3,2-0.7,3.9-0.2,5.8c-0.9,0.4-1.9-0.2-2.8-0.5c-0.2,1.2,0.4,2.4,1.3,3.3
										c-0.4,0.5-0.6,0.7-1.2,0.8c-0.6,0.2-1.1,0.2-1.7,0.6c0.3,0.7,0.4,1,0.8,1.5c0.4,0.5,0.8,1,1.4,1.2
										c-0.8,0.8-1.8,1.2-2.7,0.9c0.5,1.2,1.4,2.3,2.5,2.8c-0.9,0.6-1.5,1.2-2.4,1.1c-0.1-0.1-0.3-0.1-0.4,0
										c0.4,1.4,1.9,2.3,3.2,2.4c-0.7,0.8-1.5,1.3-2.6,1.1c0.7,0.8,1.4,1.6,2.3,2.1c0.8,0.4,1.5,0.3,2.2,0.6
										c-0.6,0.4-1.6,0.8-2.3,0.8c1.9,2.3,4.9,3.9,7.8,4c1.7,0.2,3.2-0.1,4.9-0.3C205.2,197.4,207.5,195.8,208.2,195.2z"/>
								</defs>
								<clipPath id="SVGID_6_">
									<use xlink:href="#SVGID_5_"  style="overflow:visible;"/>
								</clipPath>
								<path class="st15" d="M208.2,195.2c2.6-3,4-7,3.7-11.2c-0.7,0.6-1.3,1.2-1.9,2c0.1-2-0.4-4.2-1.3-6c0,0-1.3,1.7-2.3,2.3
									c0,0,0.1-0.1,0.2-0.1l0.1-0.1c-0.1-1.8-0.2-3.8-1.1-5.4c-0.4,0.4-0.8,0.8-1.2,1.4c0.2-0.3-0.9-4.2-1.8-5.4
									c0,0-0.9,2.3-1.6,2.8c-0.1-0.8-0.3-1.5-0.4-2.3c-0.1-0.8-0.2-1.6-0.8-2.1c0,0,0-0.2-0.1-0.3c-0.4,0.7-0.8,1.2-1.5,1.7
									c-1-1.1-2.3-2.4-3.6-3.5c-0.3,2-0.7,3.9-0.2,5.8c-0.9,0.4-1.9-0.2-2.8-0.5c-0.2,1.2,0.4,2.4,1.3,3.3
									c-0.4,0.5-0.6,0.7-1.2,0.8c-0.6,0.2-1.1,0.2-1.7,0.6c0.3,0.7,0.4,1,0.8,1.5c0.4,0.5,0.8,1,1.4,1.2c-0.8,0.8-1.8,1.2-2.7,0.9
									c0.5,1.2,1.4,2.3,2.5,2.8c-0.9,0.6-1.5,1.2-2.4,1.1c-0.1-0.1-0.3-0.1-0.4,0c0.4,1.4,1.9,2.3,3.2,2.4
									c-0.7,0.8-1.5,1.3-2.6,1.1c0.7,0.8,1.4,1.6,2.3,2.1c0.8,0.4,1.5,0.3,2.2,0.6c-0.6,0.4-1.6,0.8-2.3,0.8
									c1.9,2.3,4.9,3.9,7.8,4c1.7,0.2,3.2-0.1,4.9-0.3C205.2,197.4,207.5,195.8,208.2,195.2z"/>
							</g>
						</g>
					</g>
					<g>
						<g>
							<g>
								<defs>
									<path id="SVGID_7_" d="M208.2,195.2c2.6-3,4-7,3.7-11.2c-0.7,0.6-1.3,1.2-1.9,2c0.1-2-0.4-4.2-1.3-6c0,0-1.3,1.7-2.3,2.3
										c0,0,0.1-0.1,0.2-0.1l0.1-0.1c-0.1-1.8-0.2-3.8-1.1-5.4c-0.4,0.4-0.8,0.8-1.2,1.4c0.2-0.3-0.9-4.2-1.8-5.4
										c0,0-0.9,2.3-1.6,2.8c-0.1-0.8-0.3-1.5-0.4-2.3c-0.1-0.8-0.2-1.6-0.8-2.1c0,0,0-0.2-0.1-0.3c-0.4,0.7-0.8,1.2-1.5,1.7
										c-1-1.1-2.3-2.4-3.6-3.5c-0.3,2-0.7,3.9-0.2,5.8c-0.9,0.4-1.9-0.2-2.8-0.5c-0.2,1.2,0.4,2.4,1.3,3.3
										c-0.4,0.5-0.6,0.7-1.2,0.8c-0.6,0.2-1.1,0.2-1.7,0.6c0.3,0.7,0.4,1,0.8,1.5c0.4,0.5,0.8,1,1.4,1.2
										c-0.8,0.8-1.8,1.2-2.7,0.9c0.5,1.2,1.4,2.3,2.5,2.8c-0.9,0.6-1.5,1.2-2.4,1.1c-0.1-0.1-0.3-0.1-0.4,0
										c0.4,1.4,1.9,2.3,3.2,2.4c-0.7,0.8-1.5,1.3-2.6,1.1c0.7,0.8,1.4,1.6,2.3,2.1c0.8,0.4,1.5,0.3,2.2,0.6
										c-0.6,0.4-1.6,0.8-2.3,0.8c1.9,2.3,4.9,3.9,7.8,4c1.7,0.2,3.2-0.1,4.9-0.3C205.2,197.4,207.5,195.8,208.2,195.2z"/>
								</defs>
								<clipPath id="SVGID_8_">
									<use xlink:href="#SVGID_7_"  style="overflow:visible;"/>
								</clipPath>
								<path class="st16" d="M195.2,164.9c3.9,1.3,6.7,4.4,9.2,7.5c2.8,3.5,5.4,7.2,7.4,11.2c1.7,3.6,2.4,7.6,0.2,11.2
									c-0.9,1.5-2.3,2.7-3.7,3.8c-0.2,0.1-0.4,0.3-0.8,0.5c-0.7,2.6-5.1,2.4-5.4-0.4c-1-10.4-4.1-24.3-9.8-33.2
									C191.2,163.2,192.6,164,195.2,164.9z"/>
							</g>
						</g>
					</g>
				</g>
				<g>
					<path class="st17" d="M196.3,172.7c1.2,1.7,1.9,3.9,2.5,5.9c0.7,2.2,1.2,4.3,1.7,6.5c0.6,2.3,1,4.5,1.5,6.9
						c0.2,1.1,0.5,2.3,0.7,3.5c0.2,1,0.5,2,0.4,3.1c0,0.2-0.3,0.2-0.4,0c-0.8-1.9-0.9-4.1-1.3-6.1c-0.4-2.2-0.8-4.4-1.4-6.6
						c-1-4.4-2.3-8.7-3.9-13.1C196,172.6,196.2,172.5,196.3,172.7L196.3,172.7z"/>
				</g>
				<g>
					<path class="st17" d="M199.4,172.7c0.2,0.9,0.3,1.9,0.1,2.8c-0.2,0.8-0.3,2-0.9,2.5c-0.1,0.1-0.2,0-0.2-0.1
						c-0.1-0.8,0.4-1.6,0.5-2.3c0.3-1,0.5-2,0.5-3.1C199.2,172.6,199.3,172.6,199.4,172.7L199.4,172.7z"/>
				</g>
				<g>
					<path class="st17" d="M202.9,174.9c0.4,2.6-1.2,5.3-3.4,6.8c-0.4,0.3-0.9-0.4-0.5-0.7C201.2,179.5,202.2,177.5,202.9,174.9
						C202.7,174.8,202.9,174.7,202.9,174.9L202.9,174.9z"/>
				</g>
				<g>
					<path class="st17" d="M205.4,178.6c1.4,3-2.3,6.2-5,7c-0.4,0-0.5-0.5-0.2-0.6c1.4-0.6,2.6-1.1,3.5-2.2
						C204.8,181.4,205.5,180.1,205.4,178.6C205.3,178.5,205.4,178.4,205.4,178.6L205.4,178.6z"/>
				</g>
				<g>
					<path class="st17" d="M208.5,182.4c0.6,1.2-1.1,3.3-1.9,4c-1.2,1.4-2.9,2.8-4.7,3.4c-0.3,0.1-0.6-0.2-0.5-0.5
						c0.1-0.2,0.2-0.1,0.4-0.2c0.8-0.6,1.7-1,2.4-1.6C206.2,186.4,207.8,184.5,208.5,182.4C208.4,182.3,208.6,182.3,208.5,182.4
						L208.5,182.4z"/>
				</g>
				<g>
					<path class="st17" d="M211.2,186.4c0.3,1.7-1.8,3.9-2.9,4.9c-1.6,1.5-3.8,2.5-5.9,2.5c-0.3-0.1-0.7-0.4-0.4-0.7
						c0.1-0.1,0.1-0.2,0.2-0.1c0.3-0.2,0.6,0,0.6,0.2c-0.1,0.1,0,0.2,0,0.2c-0.1-0.2-0.3-0.3-0.5-0.5
						C206.5,192.8,209.5,189.7,211.2,186.4C211,186.3,211.1,186.3,211.2,186.4L211.2,186.4z"/>
				</g>
				<g>
					<path class="st17" d="M193.2,176c0.7,0,1.3,0.4,2.1,0.4s1.4-0.2,2-0.5c0.5-0.2,0.8,0.6,0.3,0.8c-1.6,0.8-3.1,0.5-4.5-0.5
						C193.1,176.1,193.2,176,193.2,176L193.2,176z"/>
				</g>
				<g>
					<path class="st17" d="M191.9,179.5c2.3,0.5,4.6,0.9,6.8-0.1c0.4-0.2,0.7,0.4,0.4,0.7c-0.9,0.9-2.4,1-3.7,0.9
						c-1.5-0.1-2.4-0.6-3.6-1.3C191.7,179.6,191.7,179.5,191.9,179.5L191.9,179.5z"/>
				</g>
				<g>
					<path class="st17" d="M191.6,183.3c0.8-0.1,1.4,0.2,2.3,0.2c1,0.1,2,0,3-0.2c0.4,0,0.8-0.2,1.1-0.2c0.3-0.1,0.5-0.1,0.8-0.2
						c0.2-0.1,0.4-0.2,0.6-0.3c0.3-0.1,0.4,0,0.5,0.2s0.1,0.5-0.1,0.7c-0.5,0.5-1.1,0.5-1.8,0.7c-0.9,0.2-1.8,0.4-2.9,0.4
						c-1.2,0.1-2.8,0.1-3.8-1C191.5,183.4,191.5,183.3,191.6,183.3L191.6,183.3z"/>
				</g>
				<g>
					<path class="st17" d="M191.5,187.3c1.4-0.1,2.9,0.3,4.4,0.3c0.8-0.1,1.5-0.2,2.3-0.3s1.5-0.7,2.3-0.9c0.3-0.1,0.4,0.1,0.4,0.4
						c-0.5,1.5-3.2,1.6-4.4,1.7C194.9,188.5,192.8,188.4,191.5,187.3C191.3,187.4,191.4,187.3,191.5,187.3L191.5,187.3z"/>
				</g>
				<g>
					<path class="st17" d="M192.4,191.1c1.5-0.2,2.9,0.5,4.4,0.6c1,0.1,1.8-0.1,2.8-0.4c0.6-0.2,1.1-0.6,1.7-0.7
						c0.2,0,0.3,0.2,0.3,0.3c-0.4,1.3-2.8,1.7-3.9,1.7c-1.6,0-3.9-0.5-5.3-1.3C192.2,191.1,192.2,191.1,192.4,191.1L192.4,191.1z"/>
				</g>
			</g>
			<g class="st18">
				<path class="st19" d="M196.5,177.9c0.9,1.1,1.3,2.8,1.5,4.2s0.4,2.9,0.7,4.3c0.3,1.2,0.8,2.5,1.4,3.7c0.8,1.5,2.3,2.6,2.1,4.5
					c-0.3,1.4-1.3,2.2-2.7,2.1c-2.1-0.1-3.2-2.4-4.1-4c-0.8-1.5-1.3-3.1-1.8-4.8c-0.4-1.6-0.6-3.1-0.8-4.7c-0.1-1.7-0.1-3.7,1.1-5.1
					C194.6,177.1,195.9,177.1,196.5,177.9L196.5,177.9z"/>
			</g>
		</g>
		<g>
			<g>
				<g>
					<path id="SVGID_11_" class="st20" d="M205,204.2c4.3,2.5,9.7,3.2,14.6,1.7c-0.9-0.8-1.8-1.3-2.9-1.7c2.4-0.4,5.1-1.5,7-3.1
						c0.1,0.1-2.3-1.1-3.2-2.2c-0.1,0.1,0.2,0.1,0.2,0.1c0.1,0.1,0.1,0.1,0.2,0c2.3-0.7,4.5-1.2,6.2-2.6c-0.7-0.4-1.2-0.8-1.9-1.1
						c0.3,0.1,5.1-2.3,6-3.6c0,0-3-0.6-3.9-1.3c0.9-0.4,1.8-0.7,2.6-1c0.8-0.4,2.5-1.7,2.6-1.7c-0.9-0.3-1.8-0.7-2.4-1.4
						c1.2-1.6,2.3-3.5,3.4-5.2c-2.3,0.1-4.9,0.2-7.1,1.2c-0.7-1-0.4-2.3-0.2-3.5c-1.5,0.2-2.9,1-3.7,2.4c-0.7-0.4-0.8-0.6-1.2-1.2
						s-0.6-1.4-1-2c-0.6,0.4-1.1,0.8-1.7,1.4s-1,1.2-1.1,2c-1-0.7-1.9-1.8-1.8-3.2c-1.3,0.8-2.4,2.3-2.9,3.8
						c-0.9-0.8-1.9-1.4-1.9-2.7c0-0.2,0-0.4-0.2-0.5c-1.6,0.8-2.3,2.7-2.3,4.5c-1.2-0.7-2.1-1.5-2-2.9c-0.8,0.9-1.6,2.2-2,3.4
						c-0.3,1,0,1.9-0.2,2.8c-0.8-0.7-1.2-1.7-1.6-2.6c-2.4,2.8-3.5,6.9-3.1,10.5c0.3,2,0.8,3.9,1.5,5.9
						C201.5,201.2,203.9,203.6,205,204.2z"/>
				</g>
				<g>
					<g>
						<g>
							<defs>
								<path id="SVGID_9_" d="M205,204.2c4.3,2.5,9.7,3.2,14.6,1.7c-0.9-0.8-1.8-1.3-2.9-1.7c2.4-0.4,5.1-1.5,7-3.1
									c0.1,0.1-2.3-1.1-3.2-2.2c-0.1,0.1,0.2,0.1,0.2,0.1c0.1,0.1,0.1,0.1,0.2,0c2.3-0.7,4.5-1.2,6.2-2.6
									c-0.7-0.4-1.2-0.8-1.9-1.1c0.3,0.1,5.1-2.3,6-3.6c0,0-3-0.6-3.9-1.3c0.9-0.4,1.8-0.7,2.6-1c0.8-0.4,2.5-1.7,2.6-1.7
									c-0.9-0.3-1.8-0.7-2.4-1.4c1.2-1.6,2.3-3.5,3.4-5.2c-2.3,0.1-4.9,0.2-7.1,1.2c-0.7-1-0.4-2.3-0.2-3.5
									c-1.5,0.2-2.9,1-3.7,2.4c-0.7-0.4-0.8-0.6-1.2-1.2s-0.6-1.4-1-2c-0.6,0.4-1.1,0.8-1.7,1.4s-1,1.2-1.1,2
									c-1-0.7-1.9-1.8-1.8-3.2c-1.3,0.8-2.4,2.3-2.9,3.8c-0.9-0.8-1.9-1.4-1.9-2.7c0-0.2,0-0.4-0.2-0.5c-1.6,0.8-2.3,2.7-2.3,4.5
									c-1.2-0.7-2.1-1.5-2-2.9c-0.8,0.9-1.6,2.2-2,3.4c-0.3,1,0,1.9-0.2,2.8c-0.8-0.7-1.2-1.7-1.6-2.6c-2.4,2.8-3.5,6.9-3.1,10.5
									c0.3,2,0.8,3.9,1.5,5.9C201.5,201.2,203.9,203.6,205,204.2z"/>
							</defs>
							<clipPath id="SVGID_10_">
								<use xlink:href="#SVGID_9_"  style="overflow:visible;"/>
							</clipPath>
							<path class="st21" d="M235,179.9c0.4,0,0.8,0.2,0.8,0.7c0.6,0.8,0.8,1.8,0.1,2.7c-0.6,7-5.4,12.8-10.2,17.6
								c-1,1.1-2.3,2.2-3.5,2.9c-0.3,0.3-0.6,0.7-0.8,0.9c-1.1,1.4-2.4,2.8-4.2,3.5c-2.1,0.8-4.1,0.6-6.2,0.2
								c-2.2-0.4-4.2-0.9-6.1-1.8c-0.5-0.3-0.8-0.6-1-0.9c-0.2,0-0.2,0-0.3,0.1c-2.7,1-4.5-2.3-2.9-4.1c-0.1-1.1,0.5-2.1,1.6-2.6
								c0.2-0.8,0.8-1.4,1.5-1.7c10.1-5,21.1-9.9,30.3-16.5C234.8,180.3,234.4,179.5,235,179.9z"/>
						</g>
					</g>
				</g>
			</g>
			<g>
				<path class="st22" d="M230.6,183.3c-2.1,1.4-4.3,2.6-6.3,4c-2,1.3-3.9,2.6-6.2,3.8c-2.3,1.1-4.4,2.2-6.7,3.1
					c-2.2,1-4.8,2.3-7.1,2.6c-0.4,0-0.4-0.4-0.2-0.6c1.1-0.6,2.3-0.9,3.6-1.3c1.2-0.5,2.3-0.9,3.5-1.5c2.3-1,4.6-2.1,6.9-3.3
					c2.3-1.2,4.4-2.6,6.6-4c1.9-1.1,3.9-2.5,6-3.1C230.6,183.3,230.7,183.4,230.6,183.3L230.6,183.3z"/>
			</g>
			<g>
				<path class="st22" d="M230.4,187.9c-1,0.4-2.3,0.5-3.3,0.3c-0.8-0.1-2.3-0.5-2.8-1.1c0-0.2,0-0.4,0.2-0.4
					c0.8-0.1,1.8,0.6,2.6,0.8C228.2,187.8,229.3,187.7,230.4,187.9C230.5,187.8,230.4,187.9,230.4,187.9L230.4,187.9z"/>
			</g>
			<g>
				<path class="st22" d="M225.2,180.6c-0.5,1.8,0,3.6,0.8,5.2c0.2,0.5-0.5,0.7-0.8,0.2c-0.8-1.9-1.4-3.9-0.3-5.5
					C225,180.4,225.1,180.5,225.2,180.6L225.2,180.6z"/>
			</g>
			<g>
				<path class="st22" d="M228.4,192.6c-2.6,1.6-7.2-0.1-8.7-2.6c-0.2-0.4,0.4-0.7,0.6-0.4c1.2,1.1,2.2,2.1,3.7,2.6
					C225.5,192.6,226.9,192.4,228.4,192.6C228.5,192.5,228.5,192.5,228.4,192.6L228.4,192.6z"/>
			</g>
			<g>
				<path class="st22" d="M219.9,180.3c0.2,1.5,0.5,2.9,0.9,4.2c0.3,0.7,0.5,1.2,0.8,1.9c0.3,0.6,0.8,1.1,0.9,1.6
					c0.1,0.2,0,0.4-0.2,0.5c0,0,0,0-0.1,0.1c-0.3,0.3-0.8-0.1-0.7-0.5l0,0c0.1-0.2,0.4-0.3,0.6-0.2c0.1,0.1,0.1,0.1,0.1,0.2
					c-0.2-0.1-0.4-0.1-0.5-0.2c-0.6,0.3-0.9-0.9-1.2-1.3c-0.3-0.8-0.6-1.5-0.8-2.3c-0.4-1.4-0.4-2.6-0.3-4
					C219.6,180.2,219.8,180.2,219.9,180.3L219.9,180.3z"/>
			</g>
			<g>
				<path class="st22" d="M224.4,196.6c-4,1.3-7.5-0.8-10.1-3.9c-0.5-0.5,0.3-1,0.8-0.6c2.3,2.5,5.6,5.1,9.2,4.2
					C224.4,196.4,224.4,196.5,224.4,196.6L224.4,196.6z"/>
			</g>
			<g>
				<path class="st22" d="M215.3,180.7c-0.1,1.7-0.2,3.5,0.1,5.3s1.1,3.2,1.7,4.9c0.1,0.5-0.4,0.8-0.7,0.4c-1.2-1.3-1.7-3.5-2-5.2
					C214.3,184.3,214.4,182.3,215.3,180.7C215.1,180.6,215.2,180.6,215.3,180.7L215.3,180.7z"/>
			</g>
			<g>
				<path class="st22" d="M220.8,201.6c-2.1,1.3-4.7,0.7-6.7-0.7c-2.1-1.3-4.7-3.8-5.2-6.2c0-0.4,0.5-0.6,0.7-0.3
					c0.7,0.8,1,1.9,1.7,2.8c0.8,1,1.6,1.9,2.6,2.6c0.9,0.8,1.9,1.3,3.2,1.6C218.4,201.7,219.5,201.6,220.8,201.6
					C220.9,201.5,220.9,201.5,220.8,201.6L220.8,201.6z"/>
			</g>
			<g>
				<path class="st22" d="M210.9,182c-0.1,1.8-0.3,3.7,0.1,5.5c0.2,0.9,0.5,1.9,0.7,2.7c0.1,0.5,0.3,0.8,0.5,1.2
					c0.1,0.5,0.7,0.9,0.1,1.1c0.2-0.1,0.5,0,0.5,0.3l0,0c0,0.2-0.1,0.4-0.4,0.4l0,0c-0.2,0-0.4-0.1-0.5-0.3
					c-1.5-3.3-2.9-7.9-1.2-11.3C210.8,181.9,210.9,181.9,210.9,182L210.9,182z"/>
			</g>
			<g>
				<path class="st22" d="M206.5,184.1c0.1,1.8,0.2,3.5,0.5,5.3c0.4,1.8,1,3.8,1.8,5.4c0.2,0.5-0.6,0.8-0.8,0.3
					C206.6,191.8,205,187.6,206.5,184.1C206.4,184.1,206.5,184.1,206.5,184.1L206.5,184.1z"/>
			</g>
			<g>
				<path class="st22" d="M216.3,205.4c-5.3,0.6-9.2-4.9-9.8-9.6c0-0.4,0.5-0.5,0.6-0.2c1,2.3,1.6,4.6,3.4,6.6
					c1.5,1.6,3.6,2.8,5.7,3C216.4,205.2,216.5,205.4,216.3,205.4L216.3,205.4z"/>
			</g>
			<g class="st23">
				<path class="st19" d="M225.2,184.7c-1.2,1-2.4,1.8-3.9,2.4s-3.1,1.1-4.6,1.6c-2.8,1-5.2,2.4-7.1,4.5c-0.8,0.8-2.3,0.7-3.2,0.1
					c-0.9-0.8-1.3-2.1-0.8-3.2c0.6-1.6,2.2-2.6,3.6-3.6c1.6-0.9,3.2-1.9,4.9-2.5s3.4-1,5.2-1.2c0.8-0.1,1.8-0.1,2.7-0.1
					s1.9,0.2,2.7,0.1C225.4,182.9,226,184,225.2,184.7L225.2,184.7z"/>
			</g>
		</g>
	</g>
	<path class="st24" d="M147.9,195.8V261c0,2.4,2,4.3,4.5,4.3h55.2c2.5,0,4.5-1.9,4.5-4.3v-65.2H147.9z"/>
	<ellipse class="st25" cx="179.9" cy="195.7" rx="32.1" ry="2.9"/>
	<path class="st25" d="M207.6,255h-55.2c-2.5,0-4.5-1.9-4.5-4.3V261c0,2.4,2,4.3,4.5,4.3h55.2c2.5,0,4.5-1.9,4.5-4.3v-10.2
		C212.1,253.1,210.1,255,207.6,255z"/>
	<g>
		<path class="st26" d="M153.1,212.4v35.9c0,2.4,1.7,4.2,3.7,4.2h45.9c2.1,0,3.7-1.9,3.7-4.2v-35.9H153.1z"/>
		<ellipse class="st27" cx="179.7" cy="212.4" rx="26.6" ry="3.3"/>
	</g>
	<g>
		<path class="st28" d="M175.4,245.8c-0.4,0.8-1.4,1.1-2.3,0.7l-14.4-7.8c-0.8-0.4-1.1-1.4-0.7-2.3l7.8-14.4
			c0.4-0.8,1.4-1.1,2.3-0.7l14.4,7.8c0.8,0.4,1.1,1.4,0.7,2.3L175.4,245.8z"/>
		<path class="st28" d="M201.2,232.9c0.2,0.9-0.3,1.8-1.2,2l-15.9,4.1c-0.9,0.2-1.8-0.3-2-1.2L178,222c-0.2-0.9,0.3-1.8,1.2-2
			l15.9-4.1c0.9-0.2,1.8,0.3,2,1.2L201.2,232.9z"/>
	</g>
	<path class="st29" d="M206.3,217.4c-0.3,1.6-12.1,2.9-26.6,2.9s-26.3-1.3-26.6-2.9l0,0v31.4c0,2.1,1.7,3.7,3.7,3.7h45.9
		c2.1,0,3.7-1.7,3.7-3.7L206.3,217.4L206.3,217.4z"/>
	<polygon class="st28" points="157.4,197.8 156.5,252.7 161.4,252.7 164.2,198.4 	"/>
</g>
</svg>
