<?xml version="1.0" encoding="utf-8"?>
<!-- Generator: Adobe Illustrator 23.0.0, SVG Export Plug-In . SVG Version: 6.00 Build 0)  -->
<svg version="1.1" id="Capa_1" xmlns="http://www.w3.org/2000/svg" xmlns:xlink="http://www.w3.org/1999/xlink" x="0px" y="0px"
	 viewBox="0 0 360 363" style="enable-background:new 0 0 360 363;" xml:space="preserve">
<style type="text/css">
	.st0{fill:#FFD084;}
	.st1{fill:none;stroke:#FFE1C0;stroke-width:0.7573;stroke-miterlimit:10;}
	.st2{fill:#FFD6A4;}
	.st3{fill:none;stroke:#FFE1C0;stroke-width:0.75;stroke-miterlimit:10;}
	.st4{fill:#FFE1C0;}
	.st5{fill:none;stroke:#FFD6A4;stroke-width:0.75;stroke-miterlimit:10;}
	.st6{fill:none;stroke:#FFEFE1;stroke-width:0.7478;stroke-miterlimit:10;}
	.st7{fill:#8F7CE5;}
	.st8{fill:#A6A6DD;}
	.st9{fill:#FFE5CC;}
	.st10{fill:none;stroke:#FFD6A4;stroke-miterlimit:10;}
	.st11{clip-path:url(#SVGID_2_);fill:#FFD8AE;}
	.st12{clip-path:url(#SVGID_4_);fill:#FFD8AE;}
	.st13{fill:none;stroke:#FFFFFF;stroke-width:10.8008;stroke-linejoin:round;stroke-miterlimit:10;}
	.st14{fill:none;stroke:#FFFFFF;stroke-width:15;stroke-linejoin:round;stroke-miterlimit:10;enable-background:new    ;}
	.st15{fill:#FFCE00;}
	.st16{fill:#F7B531;}
	.st17{fill:#CCCCFF;}
	.st18{fill:#B8B8E8;}
	.st19{fill:#E6E6FF;}
	.st20{fill:#3D9EC1;}
	.st21{fill:#78C9E9;}
	.st22{fill:#FFC97B;}
	.st23{fill:#F9B65D;}
	.st24{opacity:0.69;}
	.st25{clip-path:url(#SVGID_6_);}
	.st26{fill:#E22A00;}
	.st27{fill:#D82600;}
	.st28{opacity:0.1;clip-path:url(#SVGID_8_);fill:#D82600;}
	.st29{opacity:0.17;fill:#E22A00;}
	.st30{opacity:8.000000e-02;fill:#FFFFFF;}
	.st31{opacity:0.17;}
	.st32{fill:#FFFFFF;}
	.st33{fill:#DE2100;}
	.st34{clip-path:url(#SVGID_10_);}
	.st35{fill:#CB2000;}
	.st36{fill:#DF2500;}
	.st37{fill:#664E38;}
	.st38{clip-path:url(#SVGID_12_);}
	.st39{fill:#200E27;}
	.st40{fill:#0B050D;}
	.st41{opacity:0.1;clip-path:url(#SVGID_14_);fill:#0B050D;}
	.st42{opacity:0.17;fill:#200E27;}
	.st43{fill:#0F0713;}
	.st44{clip-path:url(#SVGID_16_);}
	.st45{fill:#140819;}
	.st46{opacity:0.46;}
	.st47{fill:#2B2918;}
	.st48{clip-path:url(#SVGID_18_);}
	.st49{fill:#C70038;}
	.st50{fill:#C1003C;}
	.st51{opacity:0.1;clip-path:url(#SVGID_20_);fill:#C1003C;}
	.st52{opacity:0.17;fill:#C70038;}
	.st53{fill:#C7004C;}
	.st54{clip-path:url(#SVGID_22_);}
	.st55{fill:#B40040;}
	.st56{fill:#C70042;}
	.st57{opacity:0.9;}
	.st58{opacity:0.4;fill:#C5D1EF;enable-background:new    ;}
	.st59{opacity:0.22;fill:#FFFFFF;enable-background:new    ;}
</style>
<g id="fondo">
	<g id="Rectángulo_556">
		<rect y="-0.1" class="st0" width="360" height="363.3"/>
		<rect x="0.5" y="0.4" class="st0" width="359" height="362.2"/>
	</g>
	<path class="st1" d="M228.1,263.3c0,0,44-35.1,59.7-104.9c15.8-69.8-12.4-91.7-12.4-91.7S254.9,40.3,242,77.3
		c0,0-11.1,37.2-24.4,18.6c0,0-4-5.6-6.5-13s-11-10.5-11-10.5s-21.4-7.3-59.4,34.8c0,0-30.9,35.9-25.5,83.1s10.5,56.8,10.5,56.8
		L228.1,263.3z"/>
	<path class="st2" d="M225.9,276.1c0,0,43.1-35.1,58.6-104.9s-12.2-91.7-12.2-91.7s-20.1-26.4-32.8,10.6c0,0-10.9,37.2-23.9,18.6
		c0,0-3.9-5.6-6.4-13s-10.8-10.5-10.8-10.5s-21-7.3-58.2,34.8c0,0-30.3,35.9-25,83.1s10.3,56.8,10.3,56.8L225.9,276.1z"/>
	<path class="st3" d="M114.9,250.6c0,0-61.2-54.4-49.7-80.4s30.9-7.5,30.9-7.5s25.7,22.6,47.9,63.9L114.9,250.6z"/>
	<path class="st2" d="M115.8,254.7c0,0-54.1-58.6-42.6-84.6s30.9-7.5,30.9-7.5s25.7,22.6,47.9,63.9L115.8,254.7z"/>
	<path class="st4" d="M206.4,270c0,0,41.3-44.5,60.9-102.8c0,0,11.1-34-2.3-60c0,0-8.2-25.8-29.3,14.8s-29.4,11.9-29.4,11.9
		s-8.1-59.5-44-15.2s-22.9,140.1-22.9,140.1L206.4,270z"/>
	<path class="st5" d="M191.1,246.3c0,0,54.4-73,68-155.4"/>
	<path class="st6" d="M195.3,271c0,0,33.9-33.6,51.3-78.9c0,0,9.9-26.4,0.3-47.4c0,0-5.5-20.6-23.5,10.6s-23.4,8.4-23.4,8.4
		s-4.3-47.2-33.9-13.5s-22.8,109.6-22.8,109.6L195.3,271z"/>
	<g>
		
			<ellipse transform="matrix(1 -1.876243e-03 1.876243e-03 1 -0.5354 0.338)" class="st7" cx="179.9" cy="285.5" rx="102.6" ry="21.4"/>
		<polygon class="st7" points="282.5,285.3 282.7,271.4 77.5,271.8 77.3,285.7 		"/>
		
			<ellipse transform="matrix(1 -1.876243e-03 1.876243e-03 1 -0.5093 0.3384)" class="st8" cx="180.1" cy="271.6" rx="102.6" ry="21.4"/>
	</g>
	<path class="st3" d="M239.7,225.4c0,0,41.8-19.1,39.9,8.9s-53,30.9-53,30.9s-15.5-0.3-14.5-10.3C213.1,245,218.5,235.9,239.7,225.4
		z"/>
	<path class="st9" d="M229.9,227.9c0,0,37.6-26.4,40.9,1.5c3.2,27.9-46.4,40.1-46.4,40.1S209,272,208.2,262
		C207.3,252,211,242.1,229.9,227.9z"/>
	<path class="st10" d="M208.2,262c0,0,44.4-19.6,65.3-41.4"/>
	<g>
		<g>
			<g>
				<defs>
					<path id="SVGID_1_" d="M229.9,227.9c0,0,37.6-26.4,40.9,1.5c3.2,27.9-46.4,40.1-46.4,40.1S209,272,208.2,262
						C207.3,252,211,242.1,229.9,227.9z"/>
				</defs>
				<clipPath id="SVGID_2_">
					<use xlink:href="#SVGID_1_"  style="overflow:visible;"/>
				</clipPath>
				<path class="st11" d="M240.9,216.5c0,0-27.3,46.6,4.8,50c21.5,2.3-22.9,11.5-22.9,11.5l-20.3-4.6l-1.3-29.1l20-22.9L240.9,216.5
					z"/>
			</g>
		</g>
	</g>
	<g>
		<path class="st9" d="M128.2,230.7c0,0-34.9-21.9-37.3,9.5c0,0,6.5,28.1,39.9,22.4S128.2,230.7,128.2,230.7z"/>
	</g>
	<path class="st10" d="M143,253.3c0,0-40.9-21-62.4-13.1"/>
	<g>
		<g>
			<g>
				<defs>
					<path id="SVGID_3_" d="M128.2,230.7c0,0-34.9-21.9-37.3,9.5c0,0,6.5,28.1,39.9,22.4S128.2,230.7,128.2,230.7z"/>
				</defs>
				<clipPath id="SVGID_4_">
					<use xlink:href="#SVGID_3_"  style="overflow:visible;"/>
				</clipPath>
				<path class="st12" d="M124.1,223.3h-4h-3.6c0,0,17.6,26,9.4,34.6c-8.3,8.6-9.4,6.7-9.4,6.7l19.6,1.8l15.9-7.2l1.2-14.3l-16-11.9
					L124.1,223.3z"/>
			</g>
		</g>
	</g>
	<path class="st3" d="M84.5,166.6c0,0,21.6,45.3,54.6,70.4"/>
	<path class="st3" d="M103.9,168.3c0,0-5.4,4-7,10.8"/>
	<path class="st3" d="M108.2,176.4c0,0-5.3,5.3-6,14.2"/>
	<path class="st3" d="M96.9,195.4c0,0-6.3-0.5-14.9,3.6"/>
	<path class="st3" d="M102.2,201.8c0,0-10.9,0.4-15.6,3.7"/>
	<path class="st2" d="M109.5,112.7c0.1,4-3.4,7.8-6.2,10.4c-1-2.4-1.9-5-2-7.6c-0.1-2,0.7-4,2.2-5.3c0.5-0.4,1-0.8,1.7-0.9
		c0.4-0.1,0.7-0.2,1.1-0.2C108,109.3,109.4,110.9,109.5,112.7z"/>
	<path class="st2" d="M81.9,128.8c-3.1,0.3-9-1.1-11.6-3.3c-2.3-1.7-2.3-2.2-3.4-4.9c-1-2.7,0.6-5.9,3.6-6.2
		c1.5-0.2,3.1,0.2,4.3,1.1C79.1,118.4,82.6,123.4,81.9,128.8z"/>
	<path class="st4" d="M105.6,147.4c-1.9,1.1-5-0.2-4.7-2.6c-0.2-2.8,4.1-3.8,5.6-1.6C107.5,144.5,106.9,146.6,105.6,147.4z"/>
	<path class="st4" d="M319.5,90.1c-2.6,1.4-6.6-0.3-6.3-3.5c-0.2-3.8,5.5-5.1,7.4-2.1C322,86.2,321.3,88.9,319.5,90.1z"/>
	<path class="st2" d="M328.9,302.3c-3.1,1.7-7.9-0.3-7.6-4.2c-0.3-4.5,6.6-6.1,8.9-2.5C331.9,297.6,331,300.9,328.9,302.3z"/>
	<path class="st4" d="M286.4,314c-2,1.1-5.2-0.2-5-2.8c-0.2-3,4.3-4,5.8-1.7C288.4,311,287.9,313.1,286.4,314z"/>
	<path class="st2" d="M61.9,249.7c-2.6,1.4-6.6-0.3-6.3-3.5c-0.2-3.8,5.5-5.1,7.4-2.1C64.4,245.8,63.7,248.5,61.9,249.7z"/>
	
		<ellipse transform="matrix(0.3506 -0.9365 0.9365 0.3506 -99.1709 230.0267)" class="st9" cx="116.3" cy="186.5" rx="2.7" ry="1.7"/>
	
		<ellipse transform="matrix(0.3506 -0.9365 0.9365 0.3506 -107.5766 238.2056)" class="st9" cx="118" cy="196.7" rx="2.7" ry="1.7"/>
	
		<ellipse transform="matrix(0.3506 -0.9365 0.9365 0.3506 -136.4825 236.2645)" class="st0" cx="102.1" cy="216.5" rx="3" ry="1.8"/>
</g>
<g>
	<g>
		<g>
			<path class="st13" d="M235.9,140.5c-4.2-2.3-13-6-17-1.4c-2.2,2.5-1,7.9,0.4,10.4c2,3.6,8.6,11,13.5,8.7c2.5-1.2,2.8-5.9,1.5-8.1
				c-2.7-4.3-11.4-4.8-15.7-4.1c-5.5,0.9-7,4.2-6.9,9.3c0.1,5.7,4.6,12.2,10.6,13.3c3.7,0.7,5-3.3,3.6-6.3
				c-2.1-4.3-11.8-4.6-15.5-3.7c-4.8,1.2-5.2,5.3-4.6,9.6c-0.2-1.2,0.2-2.3,0-3.5c0.3,1.9,0,0.3,1-0.7c0.7-0.7,1.5-1.2,2.4-1.5
				c2.1-0.7,4.5-0.8,6.7-0.6c2.5,0.2,10,1.2,10.2,4.7c0-1.2,0-2.3,0-3.4c-0.6,3.6-5.4,1.5-7.2,0.4c-3.7-2.2-7.1-6.4-7.1-10.9
				c0,1,0,2,0,3c0.6-5.8,6.7-6.8,11.6-6.5c3.4,0.2,10.9,1.3,11.5,5.8c0-1.2,0-2.3,0-3.4c-0.2,5.2-6.6,2.8-9.1,1.2
				c-3.6-2.4-7.5-6.5-7.9-11.1c0,1,0,2,0,3c0.1-4.3,6.2-4.5,9.2-4c3.1,0.5,6.1,1.7,8.8,3.2C235.4,143.7,236.4,140.8,235.9,140.5
				L235.9,140.5z"/>
		</g>
		<g>
			<path class="st13" d="M235.9,140.5c-4.2-2.3-13-6-17-1.4c-2.2,2.5-1,7.9,0.4,10.4c2,3.6,8.6,11,13.5,8.7c2.5-1.2,2.8-5.9,1.5-8.1
				c-2.7-4.3-11.4-4.8-15.7-4.1c-5.5,0.9-7,4.2-6.9,9.3c0.1,5.7,4.6,12.2,10.6,13.3c3.7,0.7,5-3.3,3.6-6.3
				c-2.1-4.3-11.8-4.6-15.5-3.7c-4.8,1.2-5.2,5.3-4.6,9.6c-0.2-1.2,0.2-2.3,0-3.5c0.3,1.9,0,0.3,1-0.7c0.7-0.7,1.5-1.2,2.4-1.5
				c2.1-0.7,4.5-0.8,6.7-0.6c2.5,0.2,10,1.2,10.2,4.7c0-1.2,0-2.3,0-3.4c-0.6,3.6-5.4,1.5-7.2,0.4c-3.7-2.2-7.1-6.4-7.1-10.9
				c0,1,0,2,0,3c0.6-5.8,6.7-6.8,11.6-6.5c3.4,0.2,10.9,1.3,11.5,5.8c0-1.2,0-2.3,0-3.4c-0.2,5.2-6.6,2.8-9.1,1.2
				c-3.6-2.4-7.5-6.5-7.9-11.1c0,1,0,2,0,3c0.1-4.3,6.2-4.5,9.2-4c3.1,0.5,6.1,1.7,8.8,3.2C235.4,143.7,236.4,140.8,235.9,140.5
				L235.9,140.5z"/>
		</g>
	</g>
	<path class="st14" d="M228.3,157.9h-97h-2.6h-0.1c1.1,11.8,6.4,22.8,15,31.1c7.7,7.5,17.4,12.2,27.9,13.6c0,0.2,0,0.3,0,0.5
		c0,0.3,0,0.7,0.1,1c0,0.1,0,0.1,0,0.2c0.3,2.1,1.6,3.9,3.3,4.9c0,0,0,0,0,0c0.3,0.2,0.6,0.3,0.9,0.4v41.9c-0.3,0.1-0.6,0.3-0.9,0.4
		c0,0-0.1,0.1-0.1,0.1c-0.2,0.1-0.4,0.3-0.6,0.4c-0.1,0.1-0.1,0.1-0.2,0.2c-0.2,0.2-0.4,0.3-0.6,0.5c-0.1,0.1-0.2,0.2-0.3,0.3
		c-0.1,0.1-0.2,0.2-0.3,0.4c-0.1,0.2-0.2,0.3-0.3,0.5c-0.1,0.2-0.2,0.3-0.3,0.5c-0.1,0.1-0.1,0.2-0.2,0.4c-0.1,0.2-0.2,0.4-0.2,0.6
		c0,0.1-0.1,0.2-0.1,0.3c-0.1,0.3-0.1,0.6-0.2,0.8c0,0,0,0,0,0c0,0,0,0,0,0c0,0,0,0,0,0.1c0,0,0,0,0,0.1c-0.1,0.4-0.1,0.7-0.1,1
		c0,0,0,0,0,0c-3.3,0.6-6.1,1.6-8.2,2.6c-0.1,0-0.1,0.1-0.2,0.1c-0.3,0.2-0.6,0.3-0.8,0.5c-0.1,0-0.2,0.1-0.2,0.1
		c-0.2,0.2-0.5,0.3-0.7,0.5c-0.1,0-0.1,0.1-0.2,0.1c-0.2,0.2-0.4,0.3-0.6,0.5c0,0-0.1,0-0.1,0.1c-0.2,0.2-0.4,0.4-0.5,0.5
		c0,0,0,0,0,0c-0.1,0.2-0.2,0.3-0.3,0.5c0,0,0,0,0,0c-0.1,0.2-0.1,0.3-0.1,0.5c0,0,0,0,0,0c0,0,0,0,0,0.1c0,2.5,8.5,3.2,18.9,3.2
		c10.4,0,18.9-0.7,18.9-3.2c0,0,0,0,0-0.1c0,0,0,0,0,0c0-1.8-4.9-4.8-11.8-6.1c0-0.3,0-0.5,0-0.7c-0.3-2.7-2.1-4.9-4.6-5.8v-41.7
		c2.7-1,4.6-3.5,4.6-6.6c0-0.2,0-0.3,0-0.5c10.4-1.5,20.1-6.2,27.8-13.6C221.9,180.7,227.2,169.7,228.3,157.9z M140,166.2
		c0,0.2,0.1,0.3,0.1,0.5C140.1,166.5,140,166.4,140,166.2L140,166.2z M178.4,195.6c3.8,0,7.5-0.5,11.1-1.4c1.8-0.5,3.5-1.1,5.2-1.7
		c1.1-0.5,2.2-1,3.3-1.5c1.1-0.6,2.1-1.2,3.1-1.8c1.5-1,3-2,4.3-3.2c0,0,0,0,0,0C198.1,192.2,188.5,195.6,178.4,195.6z M140.3,167.7
		c0-0.1-0.1-0.2-0.1-0.4C140.3,167.5,140.3,167.6,140.3,167.7z M151.4,185.9c-1.2-1-2.3-2.1-3.3-3.2
		C149.1,183.8,150.2,184.9,151.4,185.9z M147.7,182.2c-0.2-0.2-0.4-0.4-0.6-0.6C147.3,181.8,147.5,182,147.7,182.2z"/>
	<g>
		<g>
			<g>
				<path class="st15" d="M235.9,140.5c-4.2-2.3-13-6-17-1.4c-2.2,2.5-1,7.9,0.4,10.4c2,3.6,8.6,11,13.5,8.7
					c2.5-1.2,2.8-5.9,1.5-8.1c-2.7-4.3-11.4-4.8-15.7-4.1c-5.5,0.9-7,4.2-6.9,9.3c0.1,5.7,4.6,12.2,10.6,13.3c3.7,0.7,5-3.3,3.6-6.3
					c-2.1-4.3-11.8-4.6-15.5-3.7c-4.8,1.2-5.2,5.3-4.6,9.6c-0.2-1.2,0.2-2.3,0-3.5c0.3,1.9,0,0.3,1-0.7c0.7-0.7,1.5-1.2,2.4-1.5
					c2.1-0.7,4.5-0.8,6.7-0.6c2.5,0.2,10,1.2,10.2,4.7c0-1.2,0-2.3,0-3.4c-0.6,3.6-5.4,1.5-7.2,0.4c-3.7-2.2-7.1-6.4-7.1-10.9
					c0,1,0,2,0,3c0.6-5.8,6.7-6.8,11.6-6.5c3.4,0.2,10.9,1.3,11.5,5.8c0-1.2,0-2.3,0-3.4c-0.2,5.2-6.6,2.8-9.1,1.2
					c-3.6-2.4-7.5-6.5-7.9-11.1c0,1,0,2,0,3c0.1-4.3,6.2-4.5,9.2-4c3.1,0.5,6.1,1.7,8.8,3.2C235.4,143.7,236.4,140.8,235.9,140.5
					L235.9,140.5z"/>
			</g>
		</g>
		<g>
			<g>
				<path class="st16" d="M235.9,140.5c-4.2-2.3-13-6-17-1.4c-2.2,2.5-1,7.9,0.4,10.4c2,3.6,8.6,11,13.5,8.7
					c2.5-1.2,2.8-5.9,1.5-8.1c-2.7-4.3-11.4-4.8-15.7-4.1c-5.5,0.9-7,4.2-6.9,9.3c0.1,5.7,4.6,12.2,10.6,13.3c3.7,0.7,5-3.3,3.6-6.3
					c-2.1-4.3-11.8-4.6-15.5-3.7c-4.8,1.2-5.2,5.3-4.6,9.6c-0.2-1.2,0.2-2.3,0-3.5c0.3,1.9,0,0.3,1-0.7c0.7-0.7,1.5-1.2,2.4-1.5
					c2.1-0.7,4.5-0.8,6.7-0.6c2.5,0.2,10,1.2,10.2,4.7c0-1.2,0-2.3,0-3.4c-0.6,3.6-5.4,1.5-7.2,0.4c-3.7-2.2-7.1-6.4-7.1-10.9
					c0,1,0,2,0,3c0.6-5.8,6.7-6.8,11.6-6.5c3.4,0.2,10.9,1.3,11.5,5.8c0-1.2,0-2.3,0-3.4c-0.2,5.2-6.6,2.8-9.1,1.2
					c-3.6-2.4-7.5-6.5-7.9-11.1c0,1,0,2,0,3c0.1-4.3,6.2-4.5,9.2-4c3.1,0.5,6.1,1.7,8.8,3.2C235.4,143.7,236.4,140.8,235.9,140.5
					L235.9,140.5z"/>
			</g>
		</g>
	</g>
	<g>
		<path class="st17" d="M180.9,257.2c0,2.2-1.1,4-2.5,4l0,0c-1.4,0-2.5-1.8-2.5-4v-56.6c0-2.2,1.1-4,2.5-4l0,0c1.4,0,2.5,1.8,2.5,4
			V257.2z"/>
		<path class="st18" d="M185.5,258c0,3.9-3.1,7-7,7s-7-3.1-7-7s3.1-7,7-7S185.5,254.1,185.5,258z"/>
		<path class="st19" d="M185.5,258c0-0.4,0-0.8-0.1-1.1c-2.2-0.4-4.5-0.7-7-0.7c-2.4,0-4.7,0.2-6.8,0.6c-0.1,0.4-0.1,0.8-0.1,1.1
			c0,3.9,3.1,7,7,7S185.5,261.9,185.5,258z"/>
		<path class="st17" d="M185.5,203.1c0,3.9-3.1,7-7,7s-7-3.1-7-7s3.1-7,7-7S185.5,199.2,185.5,203.1z"/>
		<path class="st19" d="M179,243.3c-0.5,0-0.8-0.4-0.8-0.8v-30.7c0-0.5,0.4-0.8,0.8-0.8l0,0c0.5,0,0.8,0.4,0.8,0.8v30.7
			C179.8,243,179.4,243.3,179,243.3L179,243.3z"/>
		<path class="st19" d="M172.6,258.5c0-2.9,1.8-5.5,4.4-6.5v-43.6c-2.6-1-4.4-3.5-4.4-6.5c0-3.9,3.1-5.3,7-5.3
			c0.9,0,1.7,0.2,2.4,0.4c-1-0.6-2.2-0.9-3.5-0.9c-3.9,0-7,3.1-7,7c0,2.9,1.8,5.5,4.4,6.5v41.9c-2.6,1-4.4,3.5-4.4,6.5
			s1.9,5.6,4.6,6.5C174,263.3,172.6,261.1,172.6,258.5z"/>
		<path class="st20" d="M141.7,165.9c-0.7,0-1.3-0.2-1.8-0.4c1.1,7.8,5.1,14.9,11.5,20.4c7.3,6.3,16.9,9.7,27,9.7s19.7-3.5,27-9.7
			c6.3-5.4,10.3-12.4,11.5-20H141.7z"/>
		<path class="st21" d="M143.5,165.9c1.1,7.6,4.7,14.6,10.4,20c6.6,6.3,15.3,9.7,24.5,9.7s17.9-3.5,24.5-9.7
			c5.7-5.4,9.3-12.4,10.4-20H143.5z"/>
		<path class="st22" d="M143.3,175.8c1.3,1.6,2,4.3,6.7,8.7c7,6.5,18.3,11.1,28.4,11.1c10.1,0,19.6-3.6,27-9.7
			c4.3-3.5,5.3-5.8,8-9.8L143.3,175.8z"/>
		<path class="st23" d="M204.8,181.5c-8.2,4.8-17.3,7.2-26.4,7.2c-9.1,0-18.2-2.4-26.4-7.2h-4.9c1.3,1.6,2.7,3,4.3,4.4
			c7.3,6.3,16.9,9.7,27,9.7s19.7-3.5,27-9.7c1.6-1.4,3-2.9,4.3-4.4H204.8z"/>
		<g class="st24">
			<g>
				<g>
					<g>
						<defs>
							<path id="SVGID_5_" d="M163.4,178c-0.8,0.3-1.5,0.8-2.2,1.4c-1.1,1.1-1.9,2.6-1.5,4c0.2,1,1,1.7,1.8,2.3
								c1.1,0.8,2.4,1.4,3.9,1.3c1.4,0,3-0.7,3.8-2c0.7-1,0.9-2.3,0.6-3.5c-0.3-1.2-0.9-2.8-2.1-3.4
								C166.6,177.6,164.9,177.4,163.4,178z"/>
						</defs>
						<use xlink:href="#SVGID_5_"  style="overflow:visible;fill:#DF3609;"/>
						<clipPath id="SVGID_6_">
							<use xlink:href="#SVGID_5_"  style="overflow:visible;"/>
						</clipPath>
						<g class="st25">
							<g>
								<path class="st26" d="M166.2,177.4c0.1,0.4,1,1,1.3,1.4c0.3,0.3,0.7,1,0.9,1.4c0.4,0.8,0.5,1.8,0.4,2.8
									c-0.2,1-0.7,1.9-1.5,2.4c-1,0.6-1.9,1-2.9,1.4c-0.4,0.2-0.7,0.6-0.3,0.8c1.9,1,4.7-0.5,5.8-2.4c1.2-2,1-4.6-0.4-6.2
									c-0.4-0.4-0.8-0.8-1.3-1c-0.4-0.2-1.4-1.1-1.9-0.8c-0.1,0.1,0.2,0.7,0.3,0.8L166.2,177.4z"/>
							</g>
						</g>
						<g class="st25">
							<g>
								<path class="st27" d="M165.8,177.1c-0.6-0.3-1.4,0-2,0.2c-0.7,0.2-1.5,0.6-2.1,1c-1.1,0.7-2.1,1.8-2.6,3.1
									c-0.5,1.4-0.4,2.8,0.4,3.9c0.4,0.6,0.9,1.1,1.5,1.5c0.7,0.5,1.4,0.7,2.2,0.8c0.3,0.1,0.6,0,0.8-0.3c0,0,0.1-0.1,0.1-0.2
									c0.1-0.3,0.2-0.3,0-0.5c-0.5-0.4-1.2-1.1-1.7-1.4c-0.4-0.3-0.8-0.6-1.1-1c-0.3-0.4-0.5-0.8-0.5-1.3c0-0.4,0.1-0.8,0.2-1.3
									c0.4-0.9,1.2-1.7,2.1-2.3c0.5-0.3,1-0.6,1.5-0.8c0.6-0.3,1.7-0.5,2.1-1C166.7,177.5,166,177.2,165.8,177.1L165.8,177.1z"/>
							</g>
						</g>
					</g>
					<g>
						<defs>
							<path id="SVGID_7_" d="M163.4,178c-0.8,0.3-1.5,0.8-2.2,1.4c-1.1,1.1-1.9,2.6-1.5,4c0.2,1,1,1.7,1.8,2.3
								c1.1,0.8,2.4,1.4,3.9,1.3c1.4,0,3-0.7,3.8-2c0.7-1,0.9-2.3,0.6-3.5c-0.3-1.2-0.9-2.8-2.1-3.4
								C166.6,177.6,164.9,177.4,163.4,178z"/>
						</defs>
						<clipPath id="SVGID_8_">
							<use xlink:href="#SVGID_7_"  style="overflow:visible;"/>
						</clipPath>
						<path class="st28" d="M169.3,184.3c-1.9,0-3.8-0.6-4.9-2.1c-0.5-0.6-0.9-1.6-0.7-2.4c0.1-0.4,0.3-0.8,0.5-1.2
							c0.1-0.2,0.3-0.4,0.4-0.5c0,0,0,0,0.1-0.1c0.1,0,0.1-0.1,0.1-0.1c0,0,0,0,0,0c0,0,0.1-0.1,0.1-0.1c0.2,0.3,0.7,0.1,0.7-0.3
							c0-0.4-0.3-0.5-0.6-0.5c-0.1-0.3-0.4-0.6-0.9-0.5c-0.4,0.1-0.7,0.3-1,0.6c-0.4,0.3-0.8,0.5-1.2,0.9c-0.1,0.1-0.2,0.2-0.3,0.3
							c-0.2,0-0.4,0.1-0.5,0.2c-0.3,0.3-0.5,0.5-0.6,0.9c-0.6,1-1.1,2-1.1,3.2c0,1.3,0.7,2.5,1.4,3.5c0.9,1.2,2.2,1.6,3.7,1.8
							c1.2,0.2,2.5,0.3,3.7-0.4c0.4-0.2,0.6-0.7,0.6-1c0.3-0.1,0.5-0.2,0.7-0.4C170.2,185.3,170.1,184.3,169.3,184.3z"/>
						<path class="st28" d="M168.8,185.7c-2.3-0.1-4.6-0.7-5.9-2.6c-0.5-0.8-1.1-1.9-0.8-2.9c0.1-0.5,0.4-1,0.7-1.4
							c0.1-0.2,0.3-0.4,0.5-0.6c0,0,0,0,0.1-0.1c0.1,0,0.1-0.1,0.2-0.1c0,0,0,0,0,0c0,0,0.1-0.1,0.1-0.1c0.2,0.3,0.9,0.1,0.9-0.4
							c0-0.5-0.4-0.6-0.8-0.6c-0.1-0.4-0.5-0.7-1-0.6c-0.5,0.1-0.9,0.4-1.3,0.7c-0.5,0.3-1,0.6-1.4,1c-0.1,0.1-0.2,0.2-0.3,0.3
							c-0.2,0-0.5,0.1-0.7,0.3c-0.4,0.3-0.6,0.7-0.7,1c-0.7,1.2-1.3,2.5-1.3,3.8c0,1.6,0.8,3,1.7,4.2c1.1,1.4,2.7,1.9,4.5,2.2
							c1.4,0.2,3,0.3,4.4-0.4c0.5-0.3,0.7-0.8,0.7-1.3c0.3-0.1,0.6-0.3,0.9-0.5C169.9,186.9,169.8,185.7,168.8,185.7z"/>
						<path class="st28" d="M168,186.2c-2.3,0.2-4.7-0.2-6.3-1.8c-0.6-0.7-1.3-1.7-1.2-2.8c0.1-0.5,0.3-1,0.5-1.5
							c0.1-0.2,0.3-0.5,0.4-0.7c0,0,0,0,0.1-0.1c0.1-0.1,0.7-1.4,0.3-1.3c-0.2-0.4-0.6-0.6-1.1-0.4c-0.5,0.2-0.9,0.5-1.2,0.9
							c-0.5,0.4-0.9,0.7-1.3,1.2c-0.1,0.1-0.2,0.2-0.3,0.4c-0.2,0-0.4,0.2-0.6,0.3c-0.3,0.4-0.5,0.7-0.6,1.1c-0.6,1.3-1,2.6-0.9,3.9
							c0.1,1.6,1.2,2.9,2.2,3.9c1.3,1.3,3,1.6,4.8,1.7c1.5,0.1,3.1,0,4.4-1c0.5-0.3,0.7-0.9,0.6-1.3c0.3-0.2,0.6-0.4,0.8-0.6
							C169.3,187.3,169,186.1,168,186.2z"/>
					</g>
					<path class="st29" d="M168.8,181.1c0-0.2-0.7-2.4-1.5-2.7c-0.3-0.1-0.6-0.1-0.8,0c-0.5,0.1-1,0.6-0.9,1.2
						c0.1,0.3,0.1,0.7,0.1,1c0,0.2-0.1,0.4-0.1,0.5c-0.1,0.6-0.2,1.2-0.4,1.8c0,0.1,0,0.1-0.1,0.2c-0.1,0.1-0.1,0.2-0.2,0.3
						c-0.3,0.4-0.6,0.8-0.5,1.3c0.1,0.4,0.3,0.7,0.6,0.9c0.7,0.4,1.6,0.1,2.2-0.4C168.5,184.2,169.2,182.4,168.8,181.1z"/>
					<path class="st30" d="M167.7,179.9c-1.6-0.4-3.5,0.5-4.5,1.9c-0.2,0.3-0.4,0.7-0.5,1.1c-0.3,0.5-0.4,1-0.4,1.5
						c0.1,0.9,0.8,1.5,1.7,1.8c1.6,0.4,3.5-0.2,4.6-1.7C169.8,182.9,169.7,180.4,167.7,179.9z"/>
					<path class="st30" d="M167.7,180.7c-1.1-0.3-2.3,0.3-3,1.3c-0.2,0.2-0.3,0.5-0.4,0.7c-0.2,0.3-0.3,0.7-0.2,1
						c0.1,0.6,0.6,1,1.1,1.2c1.1,0.3,2.3-0.1,3.1-1.1C169.1,182.7,169,181,167.7,180.7z"/>
					<g class="st31">
						<path class="st32" d="M166.4,182.2c0.1,0.4,0.4,0.6,0.7,0.8c0.4,0.2,0.8,0.3,1.3,0.1c0.6-0.2,0.7-1,0.3-1.3
							c-0.3-0.2-0.6-0.2-1-0.2c-0.3,0-0.7,0-0.9,0.1C166.5,181.8,166.3,182,166.4,182.2L166.4,182.2z"/>
					</g>
					<g>
						<path class="st33" d="M164.4,179.6c0,0.1,0.1,0.2,0.2,0.3c0.1,0,0.2,0.1,0.2,0.2c-0.1,0.6-0.8,0.2-0.9,0.4
							c-0.1,0.1-0.1,0.2-0.1,0.3c0.1,0.2,0.6,0.2,0.8,0.1c0.3-0.1,0.6-0.4,0.8-0.8c0.1-0.4,0-0.6-0.2-0.8c-0.2-0.1-0.5-0.3-0.8,0
							C164.5,179.5,164.4,179.5,164.4,179.6L164.4,179.6z"/>
					</g>
					<g>
						<defs>
							<path id="SVGID_9_" d="M166.1,179.2c-0.2-0.2-0.4-0.4-0.7-0.4c-0.1-0.1-0.3-0.1-0.4-0.1c-0.5,0-1,0-1.5,0.2
								c-0.4,0.2-0.9,0.6-1,1.1c-0.2,0.6,0.2,1,0.5,1.2c0.4,0.3,0.8,0.5,1.4,0.3c0.5-0.1,1.2-0.4,1.6-0.9
								C166.3,180.2,166.3,179.6,166.1,179.2z M164.4,180.7c-0.3,0-0.8-0.2-0.9-0.5c-0.1-0.5,0.4-0.7,0.6-0.7c0.2,0,0.4-0.1,0.6,0
								c0,0,0.7,0.1,0.7,0.4C165.2,180.6,164.6,180.7,164.4,180.7z"/>
						</defs>
						<use xlink:href="#SVGID_9_"  style="overflow:visible;fill:#D82600;"/>
						<clipPath id="SVGID_10_">
							<use xlink:href="#SVGID_9_"  style="overflow:visible;"/>
						</clipPath>
						<g class="st34">
							<path class="st35" d="M165.5,178.8c-0.1-0.3-0.1-0.5-0.4-0.6c-0.3-0.1-0.6-0.2-0.9-0.1c-0.6,0.1-1.4,0.6-1.9,1.3
								c-0.5,0.7-0.7,1.5-0.5,2c0.2,0.5,0.8,1.1,1.6,0.5c0.2-0.2,0.4-0.4,0.3-0.6c-0.1-0.6-1.4-0.5-0.6-1.5c0.3-0.4,0.7-0.5,1-0.6
								c0.2,0,0.4,0,0.6,0c0.2,0,0.4-0.1,0.6-0.1C165.4,179,165.5,178.9,165.5,178.8L165.5,178.8z"/>
						</g>
						<g class="st34">
							<path class="st36" d="M164.2,178.7c0.9,0.2,1.5,0.6,1.1,1.6c-0.4,1-1.9,0.8-2.6,0.7c-0.3,0-0.1,0.6-0.1,0.9
								c0.2,0.7,1.1,0.6,1.8,0.3c0.8-0.3,1.7-1,2-2c0.6-1.7-0.6-3-2.2-2.2C164,178.2,164,178.6,164.2,178.7L164.2,178.7z"/>
						</g>
					</g>
					<g>
						<path class="st32" d="M167.1,182.2c0.5,0.4,1.2-0.5,0.7-0.9C167.3,180.9,166.6,181.8,167.1,182.2L167.1,182.2z"/>
					</g>
				</g>
				<g>
					<path class="st37" d="M164.1,180.1c0.2-0.4-0.1-0.8-0.4-1.1c-0.2-0.2-0.8-0.6-1.1-0.5c-0.1,0-0.1,0.1-0.1,0.2
						c0,0.3,0.4,0.7,0.6,0.9c0.3,0.3,0.5,0.6,0.9,0.6C164,180.1,164.1,180.1,164.1,180.1L164.1,180.1z"/>
				</g>
			</g>
			<g>
				<g>
					<g>
						<defs>
							<path id="SVGID_11_" d="M189.2,182.9c0.2,0.8,0.6,1.6,1.1,2.2c0.9,1.2,2.3,2.1,3.6,1.9c1-0.1,1.8-0.7,2.4-1.4
								c0.9-1,1.6-2.2,1.7-3.5c0.1-1.4-0.3-2.9-1.5-3.9c-0.9-0.8-2.1-1.1-3.2-1c-1.2,0.1-2.8,0.6-3.4,1.6
								C189.1,179.9,188.8,181.5,189.2,182.9z"/>
						</defs>
						<use xlink:href="#SVGID_11_"  style="overflow:visible;fill:#170B1A;"/>
						<clipPath id="SVGID_12_">
							<use xlink:href="#SVGID_11_"  style="overflow:visible;"/>
						</clipPath>
						<g class="st38">
							<g>
								<path class="st39" d="M188.9,180.2c0.4-0.1,1.1-0.9,1.4-1.1c0.4-0.3,1-0.5,1.4-0.7c0.8-0.3,1.8-0.3,2.7,0
									c0.9,0.3,1.7,0.9,2.1,1.7c0.5,1,0.7,1.9,1,2.9c0.1,0.4,0.5,0.7,0.7,0.4c1.1-1.7,0.1-4.5-1.6-5.8c-1.8-1.4-4.3-1.5-5.9-0.4
									c-0.4,0.3-0.8,0.6-1.1,1.1c-0.3,0.4-1.2,1.2-1,1.7c0,0.1,0.7-0.1,0.8-0.1L188.9,180.2z"/>
							</g>
						</g>
						<g class="st38">
							<g>
								<path class="st40" d="M188.6,180.6c-0.3,0.6-0.2,1.3-0.1,1.9c0.1,0.7,0.4,1.5,0.7,2.1c0.6,1.2,1.5,2.2,2.7,2.8
									c1.3,0.7,2.6,0.7,3.8,0.1c0.6-0.3,1.1-0.7,1.6-1.2c0.5-0.6,0.8-1.2,1-2c0.1-0.2,0.1-0.5-0.2-0.7c0,0-0.1-0.1-0.1-0.1
									c-0.3-0.1-0.3-0.3-0.4-0.1c-0.5,0.4-1.1,1-1.6,1.5c-0.3,0.4-0.7,0.7-1.1,0.9c-0.4,0.2-0.8,0.3-1.3,0.3
									c-0.4,0-0.8-0.2-1.2-0.4c-0.8-0.5-1.5-1.3-1.9-2.2c-0.2-0.5-0.4-1-0.6-1.5c-0.2-0.6-0.3-1.7-0.7-2.1
									C189,179.8,188.7,180.4,188.6,180.6L188.6,180.6z"/>
							</g>
						</g>
					</g>
					<g>
						<defs>
							<path id="SVGID_13_" d="M189.2,182.9c0.2,0.8,0.6,1.6,1.1,2.2c0.9,1.2,2.3,2.1,3.6,1.9c1-0.1,1.8-0.7,2.4-1.4
								c0.9-1,1.6-2.2,1.7-3.5c0.1-1.4-0.3-2.9-1.5-3.9c-0.9-0.8-2.1-1.1-3.2-1c-1.2,0.1-2.8,0.6-3.4,1.6
								C189.1,179.9,188.8,181.5,189.2,182.9z"/>
						</defs>
						<clipPath id="SVGID_14_">
							<use xlink:href="#SVGID_13_"  style="overflow:visible;"/>
						</clipPath>
						<path class="st41" d="M195.8,178.1c-0.3,1.8-1,3.5-2.6,4.4c-0.7,0.4-1.6,0.7-2.4,0.4c-0.4-0.1-0.8-0.4-1.1-0.7
							c-0.2-0.1-0.3-0.3-0.4-0.5c0,0,0,0,0-0.1c0-0.1-0.1-0.1-0.1-0.1c0,0,0,0,0,0c0,0,0-0.1-0.1-0.1c0.3-0.2,0.2-0.7-0.2-0.7
							c-0.4,0-0.5,0.2-0.6,0.5c-0.3,0.1-0.6,0.3-0.5,0.8c0,0.4,0.2,0.7,0.5,1.1c0.2,0.4,0.4,0.8,0.7,1.2c0.1,0.1,0.1,0.2,0.2,0.3
							c0,0.2,0,0.4,0.2,0.5c0.2,0.3,0.5,0.5,0.7,0.7c0.9,0.7,1.8,1.2,2.9,1.4c1.2,0.2,2.5-0.3,3.5-0.9c1.2-0.7,1.8-1.9,2.2-3.3
							c0.3-1.1,0.6-2.3,0.1-3.5c-0.2-0.4-0.6-0.7-0.9-0.7c-0.1-0.3-0.2-0.5-0.3-0.8C196.9,177.4,195.9,177.4,195.8,178.1z"/>
						<path class="st41" d="M197.1,178.7c-0.3,2.2-1.2,4.3-3.2,5.3c-0.8,0.4-1.9,0.8-2.9,0.4c-0.5-0.2-0.9-0.5-1.3-0.8
							c-0.2-0.2-0.4-0.4-0.5-0.6c0,0,0,0-0.1-0.1c0-0.1-0.1-0.1-0.1-0.2c0,0,0,0,0,0c0,0-0.1-0.1-0.1-0.1c0.4-0.2,0.2-0.8-0.3-0.9
							c-0.4-0.1-0.6,0.3-0.7,0.6c-0.4,0.1-0.7,0.4-0.7,0.9c0.1,0.5,0.3,0.9,0.5,1.3c0.2,0.5,0.5,1,0.8,1.5c0.1,0.1,0.2,0.2,0.3,0.3
							c0,0.2,0,0.4,0.2,0.7c0.3,0.4,0.6,0.6,0.9,0.8c1,0.8,2.2,1.5,3.5,1.7c1.5,0.2,3-0.4,4.2-1.1c1.5-0.9,2.2-2.3,2.6-4
							c0.4-1.3,0.7-2.8,0.1-4.3c-0.2-0.5-0.7-0.8-1.1-0.8c-0.1-0.3-0.2-0.6-0.4-0.9C198.4,177.8,197.2,177.8,197.1,178.7z"/>
						<path class="st41" d="M197.5,179.5c-0.1,2.2-0.7,4.5-2.5,5.7c-0.7,0.5-1.8,1-2.8,0.8c-0.5-0.1-0.9-0.4-1.4-0.6
							c-0.2-0.1-0.4-0.3-0.6-0.5c0,0,0,0-0.1-0.1c0-0.1-1.2-0.8-1.2-0.5c-0.4,0.1-0.7,0.5-0.5,1c0.1,0.5,0.4,0.9,0.7,1.2
							c0.3,0.5,0.6,1,1,1.4c0.1,0.1,0.2,0.2,0.3,0.3c0,0.2,0.1,0.4,0.3,0.6c0.3,0.4,0.6,0.6,1,0.7c1.1,0.7,2.3,1.2,3.6,1.3
							c1.5,0,2.9-0.8,3.9-1.6c1.3-1.1,1.8-2.6,2.1-4.3c0.2-1.4,0.3-2.9-0.4-4.3c-0.3-0.5-0.8-0.7-1.2-0.7c-0.1-0.3-0.3-0.6-0.5-0.9
							C198.7,178.5,197.5,178.6,197.5,179.5z"/>
					</g>
					<path class="st42" d="M192.7,178.2c-0.2,0-2.3,0.4-2.7,1.1c-0.1,0.2-0.2,0.5-0.1,0.8c0,0.5,0.4,1,1.1,1c0.3,0,0.7,0,1,0
						c0.2,0,0.3,0.1,0.5,0.1c0.6,0.2,1.1,0.4,1.7,0.6c0.1,0,0.1,0.1,0.2,0.1c0.1,0.1,0.1,0.1,0.2,0.2c0.3,0.3,0.7,0.7,1.2,0.7
						c0.4,0,0.7-0.2,0.9-0.5c0.4-0.6,0.3-1.5-0.2-2.1C195.6,178.9,194.1,178,192.7,178.2z"/>
					<path class="st30" d="M191.5,179.1c-0.6,1.5,0,3.3,1.3,4.5c0.3,0.3,0.6,0.5,0.9,0.6c0.4,0.3,0.9,0.5,1.4,0.5
						c0.9,0,1.6-0.6,1.9-1.4c0.6-1.5,0.3-3.3-1-4.5C194.5,177.4,192.2,177.3,191.5,179.1z"/>
					<path class="st30" d="M192.2,179.2c-0.4,1,0,2.2,0.9,3c0.2,0.2,0.4,0.3,0.6,0.4c0.3,0.2,0.6,0.3,0.9,0.4c0.6,0,1.1-0.4,1.3-0.9
						c0.4-1,0.2-2.2-0.7-3.1C194.3,178.1,192.7,178,192.2,179.2z"/>
					<g class="st31">
						<path class="st32" d="M193.5,180.6c0.4,0,0.6-0.3,0.8-0.6c0.2-0.4,0.4-0.7,0.3-1.2c-0.1-0.6-0.9-0.8-1.2-0.4
							c-0.2,0.3-0.3,0.6-0.3,0.9c-0.1,0.2-0.1,0.6,0,0.9C193.1,180.4,193.3,180.7,193.5,180.6L193.5,180.6z"/>
					</g>
					<g>
						<path class="st43" d="M190.8,182.2c0.1,0,0.2-0.1,0.3-0.2c0.1,0,0.1-0.2,0.2-0.1c0.5,0.2,0.1,0.7,0.3,0.9
							c0.1,0.1,0.2,0.1,0.3,0.1c0.2-0.1,0.2-0.5,0.2-0.8c-0.1-0.3-0.3-0.6-0.6-0.8c-0.3-0.2-0.6-0.1-0.7,0.1
							c-0.1,0.1-0.3,0.4-0.1,0.7C190.7,182.1,190.7,182.2,190.8,182.2L190.8,182.2z"/>
					</g>
					<g>
						<defs>
							<path id="SVGID_15_" d="M190.6,180.5c-0.3,0.1-0.4,0.4-0.4,0.6c-0.1,0.1-0.1,0.2-0.1,0.4c-0.1,0.4-0.1,0.9,0.1,1.5
								c0.1,0.4,0.5,0.9,1,1.1c0.6,0.2,0.9-0.1,1.2-0.4c0.3-0.3,0.5-0.7,0.4-1.3c-0.1-0.5-0.3-1.2-0.7-1.6
								C191.6,180.4,191,180.3,190.6,180.5z M191.8,182.4c0,0.3-0.3,0.7-0.5,0.8c-0.5,0.1-0.6-0.5-0.6-0.6c0-0.2,0-0.4,0.1-0.5
								c0,0,0.2-0.6,0.5-0.6C191.8,181.5,191.8,182.1,191.8,182.4z"/>
						</defs>
						<use xlink:href="#SVGID_15_"  style="overflow:visible;fill:#0B050D;"/>
						<clipPath id="SVGID_16_">
							<use xlink:href="#SVGID_15_"  style="overflow:visible;"/>
						</clipPath>
						<g class="st44">
							<path d="M190.2,181.1c-0.3,0-0.5,0-0.6,0.3c-0.1,0.2-0.2,0.5-0.2,0.9c0.1,0.6,0.4,1.4,1,2c0.6,0.6,1.3,0.9,1.9,0.8
								c0.5-0.1,1.1-0.7,0.7-1.5c-0.1-0.2-0.3-0.4-0.6-0.4c-0.6,0-0.7,1.3-1.5,0.4c-0.3-0.3-0.4-0.7-0.5-1c0-0.2,0-0.4,0-0.6
								c0-0.2,0-0.4-0.1-0.6C190.3,181.2,190.2,181,190.2,181.1L190.2,181.1z"/>
						</g>
						<g class="st44">
							<path class="st45" d="M189.9,182.3c0.3-0.8,0.7-1.4,1.6-0.9c0.9,0.5,0.6,1.9,0.4,2.6c-0.1,0.3,0.6,0.2,0.9,0.2
								c0.7-0.1,0.7-1,0.5-1.7c-0.2-0.8-0.8-1.7-1.6-2.1c-1.5-0.8-3,0.2-2.4,1.8C189.4,182.4,189.8,182.4,189.9,182.3L189.9,182.3z"
								/>
						</g>
					</g>
					<g class="st46">
						<path class="st32" d="M192.6,180.2c0.4-0.5-0.4-1.2-0.8-0.8C191.4,179.9,192.2,180.6,192.6,180.2L192.6,180.2z"/>
					</g>
				</g>
				<g>
					<path class="st47" d="M190.9,182.3c-0.5-0.3-1,0-1.4,0.3c-0.3,0.2-0.9,0.8-0.7,1.3c0,0.1,0.1,0.1,0.2,0.2
						c0.4,0.1,0.9-0.3,1.2-0.6c0.4-0.3,0.7-0.5,0.9-1C191,182.4,191,182.3,190.9,182.3L190.9,182.3z"/>
				</g>
			</g>
			<g>
				<g>
					<g>
						<defs>
							<path id="SVGID_17_" d="M178.1,183.3c1,0,2.1,0.3,3.1,0.8c1.7,0.8,3.2,2.3,3.4,4c0.1,1.2-0.4,2.4-1.1,3.4
								c-1,1.4-2.3,2.6-4,3.1c-1.7,0.5-3.8,0.4-5.3-0.8c-1.2-0.9-1.9-2.4-2.1-3.8c-0.2-1.5-0.1-3.6,1-4.7
								C174.3,184,176.2,183.2,178.1,183.3z"/>
						</defs>
						<use xlink:href="#SVGID_17_"  style="overflow:visible;fill:#C70733;"/>
						<clipPath id="SVGID_18_">
							<use xlink:href="#SVGID_17_"  style="overflow:visible;"/>
						</clipPath>
						<g class="st48">
							<g>
								<path class="st49" d="M174.6,183.7c0,0.5-0.8,1.6-1,2.1c-0.2,0.5-0.4,1.4-0.5,2c-0.2,1.1,0.1,2.3,0.7,3.4
									c0.6,1.1,1.6,1.9,2.8,2.2c1.4,0.3,2.6,0.3,4,0.4c0.5,0,1,0.4,0.7,0.8c-1.8,1.9-5.6,1.4-7.7-0.4c-2.2-1.9-3-4.9-2.1-7.3
									c0.2-0.6,0.6-1.2,1-1.7c0.4-0.4,1.2-1.8,1.8-1.7c0.1,0,0,0.9,0,1.1L174.6,183.7z"/>
							</g>
						</g>
						<g class="st48">
							<g>
								<path class="st50" d="M175.1,183.2c0.6-0.6,1.6-0.6,2.4-0.6c1,0,1.9,0.1,2.9,0.3c1.6,0.4,3.2,1.3,4.3,2.6
									c1.2,1.4,1.5,3.1,1.2,4.7c-0.2,0.8-0.6,1.6-1.1,2.3c-0.6,0.8-1.3,1.3-2.2,1.8c-0.3,0.2-0.6,0.2-1,0c-0.1,0-0.1-0.1-0.2-0.1
									c-0.2-0.3-0.4-0.2-0.2-0.5c0.4-0.7,0.9-1.7,1.4-2.4c0.4-0.5,0.7-1,0.9-1.6c0.2-0.5,0.2-1.1,0.1-1.7c-0.1-0.5-0.4-1-0.8-1.4
									c-0.9-0.9-2-1.5-3.3-1.8c-0.7-0.2-1.4-0.2-2-0.3c-0.8-0.1-2.2,0.1-2.9-0.3C174.2,183.9,174.9,183.4,175.1,183.2L175.1,183.2
									z"/>
							</g>
						</g>
					</g>
					<g>
						<defs>
							<path id="SVGID_19_" d="M178.1,183.3c1,0,2.1,0.3,3.1,0.8c1.7,0.8,3.2,2.3,3.4,4c0.1,1.2-0.4,2.4-1.1,3.4
								c-1,1.4-2.3,2.6-4,3.1c-1.7,0.5-3.8,0.4-5.3-0.8c-1.2-0.9-1.9-2.4-2.1-3.8c-0.2-1.5-0.1-3.6,1-4.7
								C174.3,184,176.2,183.2,178.1,183.3z"/>
						</defs>
						<clipPath id="SVGID_20_">
							<use xlink:href="#SVGID_19_"  style="overflow:visible;"/>
						</clipPath>
						<path class="st51" d="M173.9,192.9c2.2-0.8,4.2-2.3,4.8-4.5c0.3-0.9,0.4-2.2-0.2-3.1c-0.3-0.4-0.7-0.8-1.1-1.2
							c-0.2-0.2-0.4-0.3-0.7-0.4c0,0-0.1,0-0.1,0c-0.1,0-0.1,0-0.2-0.1c0,0,0,0,0,0c-0.1,0-0.1,0-0.2,0c-0.1,0.4-0.8,0.4-1-0.1
							c-0.2-0.4,0.1-0.7,0.5-0.9c0-0.4,0.2-0.8,0.8-0.9c0.5,0,1,0.1,1.5,0.3c0.6,0.1,1.2,0.3,1.7,0.5c0.1,0.1,0.3,0.1,0.4,0.2
							c0.2-0.1,0.5-0.1,0.7,0c0.5,0.2,0.8,0.4,1,0.7c1.1,0.9,2,1.9,2.5,3.2c0.6,1.5,0.3,3.2-0.2,4.6c-0.6,1.7-2,2.8-3.5,3.6
							c-1.3,0.7-2.8,1.3-4.4,1.1c-0.6-0.1-1-0.5-1.1-1c-0.3,0-0.7-0.1-1-0.2C173.3,194.5,173,193.3,173.9,192.9z"/>
						<path class="st51" d="M175.1,194.3c2.6-1,5-2.7,5.8-5.4c0.3-1.1,0.5-2.6-0.2-3.7c-0.3-0.5-0.8-1-1.3-1.4
							c-0.3-0.2-0.5-0.4-0.8-0.5c0,0-0.1,0-0.1,0c-0.1,0-0.2-0.1-0.3-0.1c0,0,0,0,0,0c-0.1,0-0.1,0-0.2-0.1c-0.1,0.5-1,0.5-1.2-0.1
							c-0.2-0.5,0.2-0.9,0.6-1c0-0.5,0.3-1,1-1.1c0.6-0.1,1.2,0.1,1.8,0.3c0.7,0.2,1.4,0.3,2.1,0.6c0.2,0.1,0.3,0.2,0.5,0.2
							c0.3-0.1,0.6-0.1,0.9,0.1c0.6,0.2,1,0.5,1.3,0.9c1.3,1.1,2.5,2.3,3.1,3.9c0.7,1.8,0.3,3.8-0.3,5.5c-0.7,2.1-2.4,3.3-4.3,4.4
							c-1.6,0.9-3.3,1.6-5.3,1.3c-0.7-0.1-1.2-0.6-1.3-1.2c-0.4,0-0.8-0.1-1.2-0.3C174.3,196.2,173.9,194.8,175.1,194.3z"/>
						<path class="st51" d="M176.2,194.6c2.8-0.7,5.4-2.1,6.5-4.7c0.5-1.1,0.8-2.5,0.2-3.7c-0.3-0.5-0.7-1.1-1.2-1.5
							c-0.2-0.2-0.5-0.4-0.8-0.6c0,0-0.1,0-0.1-0.1c-0.1,0-1.4-1.3-0.9-1.4c0-0.5,0.4-1,1.1-0.9c0.6,0,1.2,0.2,1.7,0.5
							c0.7,0.2,1.4,0.5,2,0.8c0.2,0.1,0.3,0.2,0.5,0.3c0.3,0,0.6,0,0.9,0.1c0.5,0.3,0.9,0.6,1.2,1c1.2,1.2,2.2,2.5,2.6,4.1
							c0.5,1.9-0.2,3.8-1,5.4c-1,2-2.8,3-4.9,3.9c-1.7,0.7-3.6,1.2-5.5,0.7c-0.7-0.2-1.1-0.7-1.2-1.3c-0.4-0.1-0.8-0.2-1.2-0.4
							C175.2,196.4,175,194.9,176.2,194.6z"/>
					</g>
					<path class="st52" d="M173.1,189c0-0.2-0.1-3,0.6-3.7c0.3-0.2,0.6-0.4,1-0.4c0.7-0.1,1.4,0.3,1.5,1.1c0.1,0.4,0.1,0.8,0.2,1.2
						c0.1,0.2,0.2,0.4,0.3,0.6c0.4,0.7,0.8,1.3,1.2,1.9c0.1,0.1,0.1,0.1,0.2,0.2c0.1,0.1,0.2,0.1,0.3,0.2c0.5,0.3,1,0.7,1.1,1.3
						c0.1,0.5,0,0.9-0.3,1.2c-0.7,0.7-1.8,0.7-2.7,0.4C174.8,192.5,173.3,190.7,173.1,189z"/>
					<path class="st30" d="M173.9,187.2c1.7-1.2,4.2-0.9,6,0.4c0.4,0.3,0.8,0.6,1.1,1c0.5,0.5,0.9,1,1,1.6c0.3,1.1-0.3,2.1-1.2,2.7
						c-1.7,1.1-4.1,1.2-6-0.1C172.7,191.5,171.9,188.6,173.9,187.2z"/>
					<path class="st30" d="M174.3,188.1c1.1-0.8,2.8-0.6,4,0.3c0.3,0.2,0.5,0.4,0.7,0.7c0.3,0.3,0.6,0.7,0.7,1.1
						c0.2,0.8-0.2,1.4-0.8,1.8c-1.1,0.7-2.7,0.8-4,0C173.5,191,172.9,189,174.3,188.1z"/>
					<g class="st31">
						<path class="st32" d="M176.5,189.3c0.1,0.4-0.2,0.9-0.5,1.2c-0.4,0.4-0.8,0.7-1.4,0.7c-0.8,0-1.2-0.8-0.8-1.4
							c0.3-0.4,0.7-0.5,1.1-0.7c0.3-0.1,0.8-0.3,1.1-0.3C176.1,188.9,176.4,189.1,176.5,189.3L176.5,189.3z"/>
					</g>
					<g>
						<path class="st53" d="M177.6,185.5c0,0.2-0.1,0.3-0.1,0.5c0,0.1-0.2,0.2-0.1,0.3c0.4,0.6,1-0.1,1.2,0.1
							c0.2,0.1,0.2,0.2,0.2,0.4c0,0.3-0.6,0.4-0.9,0.4c-0.4,0-0.9-0.2-1.2-0.6c-0.3-0.4-0.3-0.7-0.1-0.9c0.1-0.2,0.5-0.5,0.9-0.3
							C177.5,185.4,177.6,185.4,177.6,185.5L177.6,185.5z"/>
					</g>
					<g>
						<defs>
							<path id="SVGID_21_" d="M176.4,187.4c0.7,0.4,1.6,0.5,2.2,0.4c0.8-0.1,1.2-0.4,1.5-0.9c0.3-0.4,0.6-1,0.1-1.6
								c-0.4-0.5-1.1-0.8-1.7-0.9c-0.7-0.1-1.3,0.1-1.9,0.3c-0.2,0.1-0.3,0.2-0.4,0.3c-0.4,0.1-0.6,0.4-0.7,0.7
								C175.4,186.3,175.6,186.9,176.4,187.4z M176.8,186.3c-0.1-0.3,0.6-0.7,0.6-0.8c0.2-0.2,0.4-0.2,0.7-0.2
								c0.1,0,0.9-0.1,0.9,0.6c0,0.3-0.5,0.8-0.8,0.9C177.9,186.8,177.1,187,176.8,186.3z"/>
						</defs>
						<use xlink:href="#SVGID_21_"  style="overflow:visible;fill:#C1003C;"/>
						<clipPath id="SVGID_22_">
							<use xlink:href="#SVGID_21_"  style="overflow:visible;"/>
						</clipPath>
						<g class="st54">
							<path class="st55" d="M176.1,185c0-0.4-0.1-0.6,0.2-0.9c0.3-0.2,0.6-0.4,1-0.5c0.8-0.1,1.9,0.1,2.7,0.8
								c0.9,0.6,1.4,1.4,1.5,2.2c0,0.7-0.5,1.6-1.6,1.2c-0.3-0.1-0.6-0.3-0.6-0.6c-0.1-0.7,1.4-1.2,0.1-2c-0.5-0.3-1-0.3-1.4-0.3
								c-0.3,0-0.5,0.1-0.8,0.2c-0.2,0.1-0.5,0.1-0.7,0.1C176.2,185.2,176.1,185.1,176.1,185L176.1,185z"/>
						</g>
						<g class="st54">
							<path class="st56" d="M177.5,184.4c-1,0.6-1.6,1.3-0.7,2.3c0.9,1,2.6,0.2,3.4-0.2c0.3-0.2,0.4,0.7,0.4,1
								c0.1,0.9-1.1,1.1-2,1.1c-1.1,0-2.3-0.5-3.1-1.5c-1.4-1.7-0.5-3.8,1.6-3.5C177.5,183.7,177.7,184.2,177.5,184.4L177.5,184.4z"
								/>
						</g>
					</g>
					<g>
						<path class="st32" d="M175,188.2c-0.5,0.7-1.6-0.1-1.2-0.8C174.3,186.7,175.4,187.5,175,188.2L175,188.2z"/>
					</g>
				</g>
			</g>
		</g>
		<path class="st17" d="M197.3,264.1c0,2.5-8.5,3.2-18.9,3.2s-18.9-0.7-18.9-3.2s8.5-6.8,18.9-6.8
			C188.8,257.3,197.3,261.7,197.3,264.1z"/>
		<path class="st18" d="M196.2,262.4c-2.6,1.4-9.6,1.9-17.8,1.9s-15.2-0.5-17.8-1.9c-0.7,0.6-1.1,1.2-1.1,1.8
			c0,2.5,8.5,3.2,18.9,3.2s18.9-0.7,18.9-3.2C197.3,263.6,196.9,263,196.2,262.4z"/>
		<path class="st19" d="M180.9,266.2c-10.4,0-18.9-0.7-18.9-3.2c0-1,1.4-2.3,3.8-3.5c-3.9,1.4-6.3,3.3-6.3,4.6
			c0,2.5,8.5,3.2,18.9,3.2c8.9,0,16.4-0.5,18.4-2.3C193.4,265.9,187.6,266.2,180.9,266.2z"/>
		<path class="st17" d="M128.7,157.9c1.1,11.8,6.4,22.8,15,31.1c9.4,9.1,21.7,14.1,34.8,14.1c13,0,25.4-5,34.8-14.1
			c8.6-8.3,13.9-19.3,15-31.1H128.7z M205.4,185.9c-7.3,6.3-16.9,9.7-27,9.7s-19.7-3.5-27-9.7c-6.2-5.3-10.1-12.2-11.4-19.7h76.8
			C215.5,173.7,211.6,180.6,205.4,185.9z"/>
		<g>
			<g>
				<path class="st19" d="M180.9,201.3c-13,0-25.4-5-34.8-14.1c-8.2-7.9-13.3-18.2-14.8-29.3h-2.7c1.1,11.8,6.4,22.8,15,31.1
					c9.4,9.1,21.7,14.1,34.8,14.1c11,0,21.5-3.6,30.2-10.1C200.5,198.4,190.9,201.3,180.9,201.3z"/>
			</g>
		</g>
		<g class="st57">
			<path class="st58" d="M170.4,168.3c1.3-0.3,2.5,0.5,2.8,1.7l2.6,10.6c0.3,1.3-0.5,2.5-1.7,2.8l-11.9,2.9
				c-1.3,0.3-2.5-0.5-2.8-1.7l-2.6-10.6c-0.3-1.3,0.5-2.5,1.7-2.8L170.4,168.3z"/>
			<path class="st58" d="M193,179.8c0.3,1-0.4,2.1-1.4,2.4l-8.8,2.2c-1,0.3-2.1-0.4-2.4-1.4l-2.4-9.9c-0.3-1,0.4-2.1,1.4-2.4
				l8.8-2.2c1-0.3,2.1,0.4,2.4,1.4L193,179.8z"/>
			<path class="st58" d="M182.5,183.8c0.2,0.8-0.3,1.6-1.1,1.8l-6.8,1.7c-0.8,0.2-1.6-0.3-1.8-1.1l-1.9-7.6
				c-0.2-0.8,0.3-1.6,1.1-1.8l6.8-1.7c0.8-0.2,1.6,0.3,1.8,1.1L182.5,183.8z"/>
			<path class="st58" d="M190.6,185.5c-0.8,0.2-1.5-0.3-1.7-1l-1.6-6.4c-0.2-0.8,0.3-1.5,1-1.7l7.2-1.8c0.8-0.2,1.5,0.3,1.7,1
				l1.6,6.4c0.2,0.8-0.3,1.5-1,1.7L190.6,185.5z"/>
		</g>
		<path class="st58" d="M172.2,187.5c0,1.2-1,2.1-2.1,2.1c-1.2,0-2.1-1-2.1-2.1c0-1.2,1-2.1,2.1-2.1S172.2,186.4,172.2,187.5z"/>
		<path class="st58" d="M187.6,184.4c0,1.2-1,2.1-2.1,2.1c-1.2,0-2.1-1-2.1-2.1c0-1.2,1-2.1,2.1-2.1
			C186.6,182.3,187.6,183.2,187.6,184.4z"/>
		<path class="st59" d="M166.3,182.9c0,0.8-0.7,1.5-1.5,1.5s-1.5-0.7-1.5-1.5s0.7-1.5,1.5-1.5S166.3,182.1,166.3,182.9z"/>
		<path class="st58" d="M191.6,188c0,0.8-0.7,1.5-1.5,1.5s-1.5-0.7-1.5-1.5s0.7-1.5,1.5-1.5C190.9,186.5,191.6,187.1,191.6,188z"/>
		<path class="st59" d="M196,184.6c0,0.8-0.7,1.5-1.5,1.5s-1.5-0.7-1.5-1.5s0.7-1.5,1.5-1.5C195.4,183.1,196,183.8,196,184.6z"/>
		<path class="st58" d="M184,189.7c0,0.8-0.7,1.5-1.5,1.5s-1.5-0.7-1.5-1.5s0.7-1.5,1.5-1.5C183.4,188.2,184,188.9,184,189.7z"/>
		<path class="st58" d="M179.9,184.9c0,1.7-1.4,3.1-3.1,3.1c-1.7,0-3.1-1.4-3.1-3.1s1.4-3.1,3.1-3.1
			C178.6,181.8,179.9,183.2,179.9,184.9z"/>
	</g>
</g>
</svg>
