<?xml version="1.0" encoding="utf-8"?>
<!-- Generator: Adobe Illustrator 23.0.0, SVG Export Plug-In . SVG Version: 6.00 Build 0)  -->
<svg version="1.1" id="Capa_1" xmlns="http://www.w3.org/2000/svg" xmlns:xlink="http://www.w3.org/1999/xlink" x="0px" y="0px"
	 viewBox="0 0 360 363" style="enable-background:new 0 0 360 363;" xml:space="preserve">
<style type="text/css">
	.st0{fill:#FFD084;}
	.st1{fill:none;stroke:#FFE1C0;stroke-width:0.7573;stroke-miterlimit:10;}
	.st2{fill:#FFD6A4;}
	.st3{fill:none;stroke:#FFE1C0;stroke-width:0.75;stroke-miterlimit:10;}
	.st4{fill:#FFE1C0;}
	.st5{fill:none;stroke:#FFD6A4;stroke-width:0.75;stroke-miterlimit:10;}
	.st6{fill:none;stroke:#FFEFE1;stroke-width:0.7478;stroke-miterlimit:10;}
	.st7{fill:#8F7CE5;}
	.st8{fill:#A6A6DD;}
	.st9{fill:#FFE5CC;}
	.st10{fill:none;stroke:#FFD6A4;stroke-miterlimit:10;}
	.st11{clip-path:url(#SVGID_2_);fill:#FFD8AE;}
	.st12{clip-path:url(#SVGID_4_);fill:#FFD8AE;}
	.st13{fill:none;stroke:#FFFFFF;stroke-width:16;stroke-linejoin:round;stroke-miterlimit:10;}
	.st14{fill:#B8B8F2;}
	.st15{fill:#E9E9FF;}
	.st16{fill:#D5F3FF;}
	.st17{fill:#CCCCFF;}
	.st18{fill:#3D9EC1;}
	.st19{fill:#78C9E9;}
	.st20{fill:#913C29;}
	.st21{fill:#9B4A3D;}
	.st22{fill:#C16F6F;}
	.st23{fill:#A36D1D;}
	.st24{fill:#98C101;}
	.st25{fill:#93B914;}
	.st26{fill:#7FAE00;}
	.st27{fill:#FFFE97;}
	.st28{opacity:0.84;}
	.st29{fill:#1B2201;}
	.st30{opacity:0.24;fill:#FFFE97;}
	.st31{opacity:0.25;clip-path:url(#SVGID_6_);}
	.st32{opacity:0.22;clip-path:url(#SVGID_6_);}
	.st33{opacity:0.26;}
	.st34{fill:#FFFFFF;}
	.st35{opacity:0.2;}
</style>
<g id="fondo">
	<g>
		<g id="Rectángulo_556">
			<rect y="-0.1" class="st0" width="360" height="363.3"/>
			<rect x="0.5" y="0.4" class="st0" width="359" height="362.2"/>
		</g>
		<path class="st1" d="M228.1,258.3c0,0,43.9-35.1,59.7-104.9c15.8-69.8-12.4-91.7-12.4-91.7S254.9,35.3,242,72.3
			c0,0-11.1,37.2-24.4,18.6c0,0-4-5.6-6.5-13c-2.5-7.3-11-10.5-11-10.5s-21.4-7.3-59.4,34.8c0,0-30.9,35.9-25.5,83.1
			s10.5,56.8,10.5,56.8L228.1,258.3z"/>
		<path class="st2" d="M225.9,271.1c0,0,43.1-35.1,58.6-104.9s-12.2-91.7-12.2-91.7s-20.1-26.4-32.8,10.6c0,0-10.9,37.2-23.9,18.6
			c0,0-3.9-5.6-6.4-13c-2.5-7.3-10.8-10.5-10.8-10.5s-21-7.3-58.2,34.8c0,0-30.3,35.9-25,83.1s10.3,56.8,10.3,56.8L225.9,271.1z"/>
		<path class="st3" d="M114.9,245.6c0,0-61.2-54.4-49.7-80.4s30.9-7.5,30.9-7.5s25.7,22.6,47.9,63.9L114.9,245.6z"/>
		<path class="st2" d="M115.8,249.7c0,0-54.1-58.6-42.6-84.6s30.9-7.5,30.9-7.5s25.7,22.6,47.9,63.9L115.8,249.7z"/>
		<path class="st4" d="M206.4,265c0,0,41.3-44.5,60.9-102.7c0,0,11.1-34-2.3-60c0,0-8.2-25.8-29.3,14.8S206.3,129,206.3,129
			s-8.1-59.5-44-15.2s-22.9,140.1-22.9,140.1L206.4,265z"/>
		<path class="st5" d="M191.1,241.3c0,0,54.3-73,68-155.4"/>
		<path class="st6" d="M195.3,266c0,0,33.9-33.6,51.3-78.9c0,0,9.9-26.5,0.3-47.4c0,0-5.5-20.6-23.5,10.6s-23.4,8.4-23.4,8.4
			s-4.3-47.2-33.9-13.5s-22.8,109.6-22.8,109.6L195.3,266z"/>
		<g>
			
				<ellipse transform="matrix(1 -1.876250e-03 1.876250e-03 1 -0.526 0.338)" class="st7" cx="179.9" cy="280.5" rx="102.6" ry="21.4"/>
			<polygon class="st7" points="282.5,280.3 282.7,266.4 77.5,266.8 77.3,280.7 			"/>
			
				<ellipse transform="matrix(1 -1.876250e-03 1.876250e-03 1 -0.4999 0.3384)" class="st8" cx="180.1" cy="266.6" rx="102.6" ry="21.4"/>
		</g>
		<path class="st3" d="M239.7,220.4c0,0,41.8-19.1,39.9,9s-53,30.9-53,30.9s-15.5-0.3-14.5-10.3C213.2,240,218.5,230.9,239.7,220.4z
			"/>
		<path class="st9" d="M229.9,222.9c0,0,37.6-26.4,40.9,1.5c3.2,27.9-46.4,40.1-46.4,40.1S209,267,208.2,257
			C207.3,247,211,237.1,229.9,222.9z"/>
		<path class="st10" d="M208.2,257c0,0,44.4-19.6,65.3-41.4"/>
		<g>
			<g>
				<defs>
					<path id="SVGID_1_" d="M229.9,222.9c0,0,37.6-26.4,40.9,1.5c3.2,27.9-46.4,40.1-46.4,40.1S209,267,208.2,257
						C207.3,247,211,237.1,229.9,222.9z"/>
				</defs>
				<clipPath id="SVGID_2_">
					<use xlink:href="#SVGID_1_"  style="overflow:visible;"/>
				</clipPath>
				<path class="st11" d="M240.9,211.5c0,0-27.3,46.6,4.8,50c21.5,2.3-22.9,11.5-22.9,11.5l-20.3-4.6l-1.3-29l20-22.9L240.9,211.5z"
					/>
			</g>
		</g>
		<g>
			<path class="st9" d="M128.2,225.7c0,0-34.9-21.9-37.3,9.5c0,0,6.5,28.1,39.9,22.4C164.1,251.8,128.2,225.7,128.2,225.7z"/>
		</g>
		<path class="st10" d="M143,248.3c0,0-40.9-21-62.4-13.1"/>
		<g>
			<g>
				<defs>
					<path id="SVGID_3_" d="M128.2,225.7c0,0-34.9-21.9-37.3,9.5c0,0,6.5,28.1,39.9,22.4C164.1,251.8,128.2,225.7,128.2,225.7z"/>
				</defs>
				<clipPath id="SVGID_4_">
					<use xlink:href="#SVGID_3_"  style="overflow:visible;"/>
				</clipPath>
				<path class="st12" d="M124.1,218.3h-4h-3.6c0,0,17.6,26,9.4,34.6c-8.2,8.6-9.4,6.7-9.4,6.7l19.6,1.8l15.9-7.2l1.2-14.3l-16-11.9
					L124.1,218.3z"/>
			</g>
		</g>
		<path class="st3" d="M84.5,161.6c0,0,21.6,45.3,54.6,70.4"/>
		<path class="st3" d="M103.9,163.3c0,0-5.4,4-7,10.8"/>
		<path class="st3" d="M108.2,171.4c0,0-5.3,5.3-6,14.2"/>
		<path class="st3" d="M96.9,190.4c0,0-6.3-0.5-14.9,3.7"/>
		<path class="st3" d="M102.2,196.8c0,0-10.9,0.4-15.6,3.7"/>
		<path class="st2" d="M109.5,107.7c0.1,4-3.4,7.8-6.2,10.4c-1-2.4-1.9-5-2-7.6c-0.1-2,0.7-4,2.2-5.3c0.5-0.4,1-0.8,1.7-0.9
			c0.4-0.1,0.7-0.2,1.1-0.2C108,104.3,109.4,105.9,109.5,107.7z"/>
		<path class="st2" d="M81.9,123.8c-3.1,0.3-9-1.1-11.6-3.2c-2.3-1.7-2.3-2.2-3.4-4.9c-1-2.7,0.6-5.9,3.6-6.2
			c1.5-0.2,3.1,0.2,4.3,1.1C79.1,113.4,82.6,118.4,81.9,123.8z"/>
		<path class="st4" d="M105.6,142.4c-1.9,1.1-5-0.2-4.7-2.6c-0.2-2.8,4.1-3.8,5.6-1.6C107.5,139.5,106.9,141.6,105.6,142.4z"/>
		<path class="st4" d="M319.5,85.1c-2.6,1.4-6.6-0.3-6.3-3.5c-0.2-3.8,5.5-5.1,7.4-2.1C322,81.2,321.3,83.9,319.5,85.1z"/>
		<path class="st2" d="M328.9,297.3c-3.1,1.7-7.9-0.3-7.6-4.2c-0.3-4.5,6.6-6.1,8.9-2.5C331.9,292.6,331,295.9,328.9,297.3z"/>
		<path class="st4" d="M286.4,309c-2,1.1-5.2-0.2-5-2.8c-0.2-3,4.3-4,5.8-1.7C288.4,305.9,287.9,308.1,286.4,309z"/>
		<path class="st2" d="M61.9,244.7c-2.6,1.4-6.6-0.3-6.3-3.5c-0.2-3.8,5.5-5.1,7.4-2.1C64.4,240.8,63.7,243.5,61.9,244.7z"/>
		
			<ellipse transform="matrix(0.3506 -0.9365 0.9365 0.3506 -94.4986 226.7769)" class="st9" cx="116.3" cy="181.5" rx="2.7" ry="1.7"/>
		
			<ellipse transform="matrix(0.3506 -0.9365 0.9365 0.3506 -102.8721 235.0643)" class="st9" cx="118.1" cy="191.7" rx="2.7" ry="1.7"/>
		
			<ellipse transform="matrix(0.3506 -0.9365 0.9365 0.3506 -131.6902 232.9864)" class="st0" cx="102.2" cy="211.5" rx="3" ry="1.8"/>
	</g>
</g>
<g>
	<path class="st13" d="M226,121.9c0,0-4.3-10.9-19.4-5.3c0,0-9,2.5-14.2,13.3c-0.1,0.1-0.1,0.2-0.1,0.3l-12,0l-26.1,0l0,0h-4.3
		c15.5,12.7,4.9,31.1,3.9,32.7c-3.5,5.7-5.5,12.5-5.5,19.9c0,16.7,10.4,30.7,24.4,34.5c0,0,0,0.1,0,0.1c0,0.1,0,0.2,0,0.2
		c0.1,0.3,0.1,0.6,0.2,0.9c0,0,0,0,0,0c0.1,0.3,0.2,0.6,0.4,0.9c0,0.1,0.1,0.1,0.1,0.2c0.1,0.3,0.3,0.6,0.5,0.8c0,0,0,0,0,0
		c0.2,0.3,0.4,0.5,0.6,0.8c0,0,0.1,0.1,0.1,0.1c0.5,0.5,1,0.9,1.6,1.3c0,0,0,0,0.1,0c0.3,0.2,0.6,0.3,0.9,0.5c0,0,0,0,0,0v19.5
		c-0.3,0.1-0.6,0.3-0.9,0.5c0,0,0,0-0.1,0c-0.6,0.3-1.1,0.8-1.6,1.3c0,0-0.1,0.1-0.1,0.1c-0.2,0.2-0.4,0.5-0.6,0.8c0,0,0,0,0,0
		c-0.2,0.3-0.3,0.6-0.5,0.8c0,0.1-0.1,0.1-0.1,0.2c-0.1,0.3-0.3,0.6-0.4,0.9c0,0,0,0,0,0c-0.1,0.3-0.2,0.6-0.2,1c0,0.1,0,0.2,0,0.2
		c0,0.1,0,0.3,0,0.4c0,0.2,0,0.4,0,0.6c-2.2,0.4-4.2,1-5.9,1.6c0,0,0,0,0,0c0,0,0,0,0,0c-0.5,0.2-1,0.4-1.4,0.6c0,0,0,0,0,0
		c-0.4,0.2-0.8,0.4-1.2,0.6c0,0-0.1,0-0.1,0.1c-0.3,0.2-0.6,0.3-0.9,0.5c-0.1,0-0.2,0.1-0.3,0.1c-0.2,0.1-0.3,0.2-0.5,0.3
		c-0.2,0.1-0.3,0.2-0.5,0.3c-0.1,0.1-0.2,0.1-0.3,0.2c-0.1,0.1-0.2,0.2-0.3,0.3c0,0,0,0,0,0c0,0,0,0-0.1,0.1c0,0-0.1,0.1-0.1,0.1
		c-0.1,0.1-0.1,0.1-0.2,0.2c-0.1,0.1-0.1,0.1-0.1,0.2c0,0,0,0.1-0.1,0.1c-0.1,0.1-0.1,0.1-0.2,0.2c0,0,0,0.1-0.1,0.1
		c0,0,0,0.1-0.1,0.1c0,0,0,0,0,0c-0.1,0.1-0.1,0.2-0.2,0.3c0,0,0,0,0,0c0,0,0,0,0,0c0,0,0,0.1,0,0.1c0,0.1-0.1,0.3-0.1,0.4
		c0,2.6,8.8,3.3,19.6,3.3c0.6,0,1.3,0,1.9,0c0.2,0,0.4,0,0.7,0c0.4,0,0.8,0,1.1,0c0.3,0,0.5,0,0.8,0c0.3,0,0.6,0,0.9,0
		c0.3,0,0.6,0,0.9,0c0.3,0,0.5,0,0.8,0c0.3,0,0.6,0,0.9,0c0.2,0,0.4,0,0.6,0c0.3,0,0.7,0,1-0.1c0,0,0.1,0,0.1,0
		c1.3-0.1,2.6-0.2,3.7-0.4c0,0,0.1,0,0.1,0c0.3,0,0.7-0.1,1-0.1c0.1,0,0.1,0,0.2,0c0.3-0.1,0.6-0.1,0.9-0.2c0,0,0.1,0,0.1,0
		c1.6-0.3,2.8-0.8,3.4-1.3c0,0,0,0,0,0c0,0,0,0,0,0c0.3-0.3,0.5-0.6,0.5-1c0-0.1,0-0.3-0.1-0.5c0-0.1-0.1-0.1-0.1-0.2
		c0-0.1-0.1-0.2-0.2-0.3c-0.1-0.1-0.1-0.2-0.2-0.2c-0.1-0.1-0.2-0.2-0.2-0.3c-0.1-0.1-0.2-0.2-0.2-0.2c0,0-0.1-0.1-0.1-0.1
		c0,0,0,0,0,0c-1.9-1.7-5.9-3.6-11.2-4.6c0-0.2,0-0.4,0-0.6c-0.2-2.9-2.1-5.3-4.7-6.2v-19.3c2.4-0.9,4.2-3,4.6-5.6
		c14.5-3.4,25.4-17.7,25.4-34.8c0-8.3-3.1-15.7-7-22.1c-1.6-2.6-3.5-7.6-3.5-13.3c0.2,0.1,0.3,0.1,0.3,0.1s6.8,0.6,15.7-6.5
		C218,141.1,228.3,135.1,226,121.9z"/>
	<g>
		<path class="st14" d="M182.5,248.6c0,2.3-1.2,4.2-2.6,4.2l0,0c-1.4,0-2.6-1.9-2.6-4.2v-34.7c0-2.3,1.2-4.2,2.6-4.2l0,0
			c1.4,0,2.6,1.9,2.6,4.2V248.6z"/>
		<path class="st14" d="M187.2,249.4c0,4-3.3,7.3-7.3,7.3c-4,0-7.3-3.3-7.3-7.3c0-4,3.3-7.3,7.3-7.3
			C184,242.1,187.2,245.4,187.2,249.4z"/>
		<path class="st15" d="M187.2,249.4c0-0.4,0-0.8-0.1-1.2c-2.2-0.4-4.7-0.7-7.3-0.7c-2.5,0-4.9,0.2-7.1,0.6
			c-0.1,0.4-0.1,0.8-0.1,1.2c0,4,3.3,7.3,7.3,7.3C184,256.6,187.2,253.4,187.2,249.4z"/>
		<path class="st14" d="M187.2,216.4c0,4-3.3,7.3-7.3,7.3c-4,0-7.3-3.3-7.3-7.3c0-4,3.3-7.3,7.3-7.3
			C184,209.1,187.2,212.4,187.2,216.4z"/>
		<path class="st16" d="M180.4,234.1c-0.5,0-0.9-0.4-0.9-0.9v-7.8c0-0.5,0.4-0.9,0.9-0.9l0,0c0.5,0,0.9,0.4,0.9,0.9v7.8
			C181.3,233.8,180.9,234.1,180.4,234.1L180.4,234.1z"/>
		<path class="st15" d="M173.8,249.9c0-3.1,1.9-5.7,4.6-6.7v-21.3c-2.7-1.1-4.6-3.7-4.6-6.7c0-4,3.3-5.5,7.3-5.5
			c0.9,0,1.7,0.2,2.5,0.5c-1.1-0.6-2.3-1-3.6-1c-4,0-7.3,3.3-7.3,7.3c0,3.1,1.9,5.7,4.6,6.7v19.5c-2.7,1.1-4.6,3.7-4.6,6.7
			c0,3.1,2,5.8,4.8,6.8C175.3,254.9,173.8,252.6,173.8,249.9z"/>
		<path class="st17" d="M199.5,255.8c0,2.6-8.8,3.3-19.6,3.3c-10.8,0-19.6-0.8-19.6-3.3c0-2.6,8.8-7.1,19.6-7.1
			C190.7,248.7,199.5,253.2,199.5,255.8z"/>
		<path class="st14" d="M198.4,253.9c-2.7,1.5-10,1.9-18.5,1.9c-8.6,0-15.8-0.5-18.5-1.9c-0.7,0.7-1.1,1.3-1.1,1.8
			c0,2.6,8.8,3.3,19.6,3.3c10.8,0,19.6-0.8,19.6-3.3C199.5,255.2,199.1,254.6,198.4,253.9z"/>
		<path class="st15" d="M182.5,258c-10.8,0-19.6-0.8-19.6-3.3c0-1.1,1.5-2.4,4-3.7c-4,1.5-6.6,3.4-6.6,4.8c0,2.6,8.8,3.3,19.6,3.3
			c9.3,0,17-0.6,19.1-2.3C195.5,257.6,189.4,258,182.5,258z"/>
		<path class="st18" d="M201.2,163.4c-3.4-5.8-6.8-17.5-1.2-28.1l-19.7,0l-19.8,0c5.6,11,1.8,23.5-2.3,30.3
			c-3.1,5.1-4.8,11.1-4.8,17.3c0,16.8,12.1,30.5,27,30.5c14.9,0,27-13.7,27-30.5C207.5,176.7,205.5,170.5,201.2,163.4z"/>
		<path class="st19" d="M199,163.4c-3.1-5.8-6.1-17.5-1.1-28.1l-17.6,0l-17.7,0c5,11,1.6,23.5-2.1,30.3c-2.8,5.1-4.3,11.1-4.3,17.3
			c0,16.8,10.8,30.5,24.2,30.5c13.3,0,24.2-13.7,24.2-30.5C204.6,176.7,202.9,170.5,199,163.4z"/>
		<path class="st18" d="M200,135.2l-19,0c0.1,0.3,0.1,0.5,0.2,0.8c0.9,4.2,3,8,6.1,10.9c3.3,3.1,4.9,3.6,9.9,5
			C195.6,146,196.2,142.4,200,135.2z"/>
		<path class="st20" d="M158.7,164.6c-0.2,0.3-0.4,0.6-0.5,0.9c-3.1,5.1-4.8,11.1-4.8,17.3c0,16.8,12.1,30.5,27,30.5
			c14.9,0,27-13.7,27-30.5c0-5.8-1.8-11.6-5.6-18.3H158.7z"/>
		<path class="st21" d="M202.7,166.1c1.8,4.6,2.7,8.8,2.7,13c0,16.8-11.2,30.5-25,30.5c-13.8,0-25-13.7-25-30.5
			c0-4.5,0.8-8.8,2.3-12.8c-2.8,5-4.4,10.6-4.4,16.5c0,16.8,12.1,30.5,27,30.5c14.9,0,27-13.7,27-30.5
			C207.5,177.5,205.9,172.1,202.7,166.1z"/>
		<path class="st22" d="M169.8,197.7c0,1.3-1.1,2.4-2.4,2.4c-1.3,0-2.4-1.1-2.4-2.4c0-1.3,1.1-2.4,2.4-2.4
			C168.8,195.3,169.8,196.3,169.8,197.7z"/>
		<path class="st22" d="M186.9,202.5c0,1.3-1.1,2.4-2.4,2.4c-1.3,0-2.4-1.1-2.4-2.4c0-1.3,1.1-2.4,2.4-2.4
			C185.8,200.1,186.9,201.1,186.9,202.5z"/>
		<path class="st22" d="M175.9,203.2c0,0.9-0.8,1.7-1.7,1.7s-1.7-0.8-1.7-1.7c0-0.9,0.8-1.7,1.7-1.7S175.9,202.2,175.9,203.2z"/>
		<path class="st22" d="M194.4,198.1c0,0.9-0.8,1.7-1.7,1.7c-0.9,0-1.7-0.8-1.7-1.7s0.8-1.7,1.7-1.7
			C193.6,196.4,194.4,197.1,194.4,198.1z"/>
		<path class="st22" d="M164,189c0,0.9-0.8,1.7-1.7,1.7c-0.9,0-1.7-0.8-1.7-1.7c0-0.9,0.8-1.7,1.7-1.7C163.2,187.3,164,188,164,189z
			"/>
		<path class="st22" d="M179.8,194.7c0,0.9-0.8,1.7-1.7,1.7c-0.9,0-1.7-0.8-1.7-1.7s0.8-1.7,1.7-1.7
			C179.1,193,179.8,193.7,179.8,194.7z"/>
		<path class="st22" d="M190.1,189c0,0.6-0.5,1.2-1.2,1.2c-0.6,0-1.2-0.5-1.2-1.2c0-0.6,0.5-1.2,1.2-1.2
			C189.6,187.8,190.1,188.3,190.1,189z"/>
		<path class="st22" d="M178.4,188.4c0,0.6-0.5,1.2-1.2,1.2c-0.6,0-1.2-0.5-1.2-1.2c0-0.6,0.5-1.2,1.2-1.2
			C177.9,187.3,178.4,187.8,178.4,188.4z"/>
		<path class="st22" d="M167.4,181c0,0.5-0.4,0.9-0.9,0.9c-0.5,0-0.9-0.4-0.9-0.9c0-0.5,0.4-0.9,0.9-0.9
			C167,180.1,167.4,180.5,167.4,181z"/>
		<path class="st22" d="M185.3,193.8c0,0.5-0.4,0.9-0.9,0.9c-0.5,0-0.9-0.4-0.9-0.9c0-0.5,0.4-0.9,0.9-0.9
			C184.9,193,185.3,193.4,185.3,193.8z"/>
		<path class="st22" d="M197.1,189.7c0,0.5-0.4,0.9-0.9,0.9c-0.5,0-0.9-0.4-0.9-0.9c0-0.5,0.4-0.9,0.9-0.9
			C196.7,188.8,197.1,189.2,197.1,189.7z"/>
		<path class="st22" d="M191.9,182.8c0,0.5-0.4,0.9-0.9,0.9c-0.5,0-0.9-0.4-0.9-0.9c0-0.5,0.4-0.9,0.9-0.9
			C191.5,181.9,191.9,182.3,191.9,182.8z"/>
		<path class="st22" d="M171.8,189.7c0,0.5-0.4,0.9-0.9,0.9c-0.5,0-0.9-0.4-0.9-0.9c0-0.5,0.4-0.9,0.9-0.9
			C171.4,188.8,171.8,189.2,171.8,189.7z"/>
		<path class="st22" d="M179.9,180.1c0,0.5-0.4,0.9-0.9,0.9c-0.5,0-0.9-0.4-0.9-0.9c0-0.5,0.4-0.9,0.9-0.9
			C179.5,179.2,179.9,179.6,179.9,180.1z"/>
		<g>
			<path class="st23" d="M222.9,117.8c3.8,3.1,4.4,8.1,2.8,13.4c-0.5,1.8-1.4,3.4-2.7,5c-1.7,2.1-4.1,4.3-6.4,5.9
				c-2.6,1.8-5.3,3.4-8.8,4.6c-7.1,2.5-12-0.6-14.7-3.5c-2-2.2-4.4-5.8-0.8-13.4c2-4.1,4.7-7.5,9.2-10.6c4.2-2.9,9.1-4.6,13.1-4.4
				C217.5,115.1,221.1,116.3,222.9,117.8z"/>
			<path class="st24" d="M222.1,117.8c2.8,1.8,4.2,3.7,3.9,8.6c-0.1,1.6-0.5,3.6-1.2,5.2c-0.7,1.5-1.4,2.7-2.4,4.1
				c-2.9,4.1-7.8,7.5-12.6,9.6c-2.7,1.2-5.2,1.6-6.8,1.6c-2.2,0-3.4-0.3-5.2-1c-1.2-0.5-2.9-1.7-3.7-2.5c-3.8-3.9-3.7-8.7-1.3-14
				c2.1-4.5,6.1-8.3,10.8-10.9c1.5-0.9,7.2-3.4,11.3-2.8C217.5,116,220.1,116.6,222.1,117.8z"/>
			<g>
				<path class="st25" d="M202.7,131.9c-1.7-0.6-3.5-0.6-5.3-0.7c-1.1,0-2.7,0.1-3.7,0.8c-0.2,0.2-0.2,0.5-0.1,0.7
					c0.7,1.1,2.5,0,3.5,0c1.8,0,3.7,0.3,5.5-0.2C203,132.5,203.1,132.1,202.7,131.9L202.7,131.9z"/>
			</g>
			<g>
				<path class="st25" d="M202.2,133.6c-0.8,0-1.5,0-2.3,0.2c-0.8,0.2-1.6,0.5-2.4,0.7c-1.2,0.3-3.1,0.3-4,1.2
					c-0.7,0.7-0.3,1.8,0.7,1.7c1.4-0.1,2.9-0.7,4.2-1.1c0.7-0.2,1.5-0.5,2.2-0.8c0.8-0.4,1.1-0.8,1.8-1.4
					C202.6,133.9,202.5,133.6,202.2,133.6L202.2,133.6z"/>
			</g>
			<g>
				<path class="st25" d="M203.3,135c-1.6,0.1-2.4,1.3-3.6,2.3c-1.1,0.9-2.7,1.6-3.5,2.8c-0.7,0.9,0.5,2,1.4,1.4
					c1.2-0.8,2.5-1.7,3.6-2.8c1.1-1,1.7-2.1,2.4-3.4C203.6,135.1,203.5,135,203.3,135L203.3,135z"/>
			</g>
			<g>
				<path class="st25" d="M204.5,136c-1.4,1.2-2.1,2.7-3,4.3c-0.6,1.2-2,2.9-1.2,4.3c0.2,0.3,0.6,0.5,0.9,0.2
					c1.1-0.8,1.6-2.6,2.1-3.8c0.8-1.6,1.5-3,1.7-4.7C205,136,204.7,135.8,204.5,136L204.5,136z"/>
			</g>
			<g>
				<path class="st25" d="M205.2,137.6c-0.3,1.5-0.4,3-0.4,4.6c0,1.1-0.1,2.5,0.8,3.3c0.2,0.2,0.5,0.1,0.6-0.1
					c0.8-0.8,0.4-2.4,0.4-3.4c-0.1-1.5-0.3-2.9-0.6-4.4C205.9,137.1,205.3,137.2,205.2,137.6L205.2,137.6z"/>
			</g>
			<g>
				<path class="st25" d="M206.7,137.8c-0.2,2.1,0.7,4.1,1.4,6c0.5,1.4,2.7,0.4,2.1-0.9c-0.9-1.9-1.7-3.9-3.3-5.2
					C206.8,137.6,206.7,137.7,206.7,137.8L206.7,137.8z"/>
			</g>
			<g>
				<path class="st25" d="M209.5,136.6c-0.2,2.1,0.7,4.1,1.4,6c0.5,1.4,2.7,0.4,2.1-0.9c-0.9-1.9-1.7-3.9-3.3-5.2
					C209.6,136.5,209.5,136.5,209.5,136.6L209.5,136.6z"/>
			</g>
			<g>
				<path class="st25" d="M209.8,135.7c0.2,1.2,1.4,2.2,2.2,3.2c0.7,0.9,1.4,2.4,2.7,2.6c0.3,0,0.6-0.1,0.7-0.4
					c0.4-1.4-0.9-2.5-1.7-3.5c-0.9-0.9-2-2.2-3.4-2.3C210,135.3,209.7,135.5,209.8,135.7L209.8,135.7z"/>
			</g>
			<g>
				<path class="st25" d="M203.1,130.4c-0.7-1.3-1.7-2.1-2.9-2.8c-0.9-0.5-2.1-1.4-3.2-1.4c-0.3,0-0.5,0.3-0.5,0.6
					c0,1.3,1.3,1.7,2.3,2.1c1.4,0.7,2.6,1.5,4.2,1.8C203,130.7,203.2,130.5,203.1,130.4L203.1,130.4z"/>
			</g>
			<g>
				<path class="st25" d="M203.4,128.1c0.1-1-0.3-2.1-0.8-3c-0.5-1-1.2-2.4-2.4-2.7c-0.4-0.1-0.9,0.1-0.9,0.6
					c-0.1,1.3,1,2.5,1.7,3.6c0.5,0.7,1.1,1.9,2.1,1.8C203.3,128.4,203.4,128.2,203.4,128.1L203.4,128.1z"/>
			</g>
			<g>
				<path class="st25" d="M205.7,127.2c0.3-0.9,0.3-2,0.3-3c0-1.2,0-2.5-0.5-3.6c-0.4-1-2-0.7-2.1,0.3c-0.1,1.3,0.2,2.7,0.6,3.9
					c0.3,0.9,0.5,2,1.3,2.5C205.5,127.3,205.7,127.3,205.7,127.2L205.7,127.2z"/>
			</g>
			<g>
				<path class="st25" d="M208.5,125.7c0.9-0.7,1-2.1,1.3-3.1c0.3-1.4,0.6-2.7,0.4-4.1c-0.1-0.7-1.2-1.1-1.5-0.4
					c-0.7,1.3-0.8,2.6-1,4c-0.1,1.1-0.3,2.6,0.4,3.5C208.2,125.8,208.4,125.8,208.5,125.7L208.5,125.7z"/>
			</g>
			<g>
				<path class="st25" d="M211.6,125.4c1.3-0.8,1.8-2.5,2.5-3.7c0.6-1.1,2.2-2.6,1.9-4c-0.1-0.2-0.3-0.5-0.5-0.5
					c-1.7,0-2.6,2.1-3.3,3.3c-0.7,1.3-1.8,3.1-1.2,4.6C211.1,125.3,211.4,125.5,211.6,125.4L211.6,125.4z"/>
			</g>
			<g>
				<path class="st25" d="M213.6,126.7c1.6-0.2,3-1.6,4.2-2.6c0.7-0.6,1.5-1.2,2.2-1.8c0.7-0.5,1.1-0.8,1.2-1.7
					c0-0.5-0.3-0.8-0.7-0.9c-0.9-0.2-1.3,0.2-2,0.8c-0.8,0.6-1.6,1.3-2.3,2.1c-1.1,1.1-2.7,2.4-2.8,4
					C213.3,126.6,213.5,126.7,213.6,126.7L213.6,126.7z"/>
			</g>
			<g>
				<path class="st25" d="M215,127.5c1.8-0.1,3.5-0.4,5.2-0.8c1.3-0.3,3.4-0.5,4.2-1.7c0.3-0.4,0.1-0.9-0.3-1.2
					c-1.4-0.6-3.3,0.4-4.6,0.9c-1.6,0.6-3.2,1.3-4.6,2.2C214.4,127.1,214.7,127.5,215,127.5L215,127.5z"/>
			</g>
			<g>
				<path class="st25" d="M215.6,131c1.6,0.2,3.1,0.5,4.7,0.6c1.3,0.1,2.8,0.4,3.7-0.7c0.2-0.3,0.2-0.7,0-1
					c-0.8-1.1-2.5-0.8-3.7-0.7c-1.6,0.1-3.1,0.5-4.6,0.8C215.1,130.2,215.1,131,215.6,131L215.6,131z"/>
			</g>
			<g>
				<path class="st25" d="M216,128.6c1.6,0,3.2,0.2,4.8,0.2c1.3,0,2.9,0.2,4-1c0.3-0.3,0.3-0.7,0.1-1c-0.8-1-2.6-0.5-3.9-0.3
					c-1.7,0.3-3.3,0.8-4.9,1.2C215.5,127.9,215.4,128.6,216,128.6L216,128.6z"/>
			</g>
			<g>
				<path class="st25" d="M214.3,131.9c2.2,1.2,4.9,2.2,7.4,1.9c1-0.1,1.1-1.5,0.2-1.9c-2.4-1.1-4.9-0.5-7.4-0.6
					C214.2,131.3,214,131.7,214.3,131.9L214.3,131.9z"/>
			</g>
			<g>
				<path class="st25" d="M212.6,134.3c2.2,1.2,4.9,2.2,7.4,1.9c1-0.1,1.1-1.5,0.2-1.9c-2.4-1.1-4.9-0.5-7.4-0.6
					C212.6,133.8,212.3,134.2,212.6,134.3L212.6,134.3z"/>
			</g>
			<g>
				<path class="st25" d="M212.3,135.2c0.1,1.1,1,1.5,1.8,2.1c1.1,0.7,2,1.7,3.3,1.9c1,0.2,1.3-1,0.9-1.7c-1.1-1.7-3.8-2.7-5.8-2.7
					C212.4,134.9,212.3,135,212.3,135.2L212.3,135.2z"/>
			</g>
			<g>
				<path class="st26" d="M205.2,130.4c-0.6-1.9-2.1-4.5-4-5.3c-0.3-0.1-0.6,0.1-0.6,0.5c0.4,2.1,2.6,4.1,4.3,5.1
					C205.1,130.6,205.3,130.5,205.2,130.4L205.2,130.4z"/>
			</g>
			<g>
				<path class="st26" d="M207.2,128.8c-0.3-0.5-0.4-1.3-0.5-1.9c-0.2-0.6-0.4-1.2-0.6-1.8c-0.4-0.9-0.6-1.9-1.6-2.3
					c-0.3-0.1-0.6,0-0.7,0.3c-0.5,1.2,0.4,2.5,1,3.6c0.5,1,1.1,2,2.2,2.4C207.1,129.2,207.2,129,207.2,128.8L207.2,128.8z"/>
			</g>
			<g>
				<path class="st26" d="M208.6,128.2c0.6-1.1,0.6-2.6,0.6-3.8c0-1.2,0.1-2.5-0.4-3.6c-0.2-0.4-0.7-0.3-0.9,0
					c-0.6,1.1-0.6,2.6-0.6,3.8c0,1.2,0,2.5,0.6,3.6C208.1,128.5,208.4,128.5,208.6,128.2L208.6,128.2z"/>
			</g>
			<g>
				<path class="st26" d="M203.5,131.2c-0.2-1-1.3-1.5-2.1-2.1c-1-0.7-2-1.5-3.2-1.9c-0.3-0.1-0.6,0.2-0.5,0.5
					c0.6,1.2,1.6,2.1,2.7,2.8c0.8,0.6,1.9,1.4,2.9,1C203.4,131.5,203.5,131.3,203.5,131.2L203.5,131.2z"/>
			</g>
			<g>
				<path class="st26" d="M202,131.1c-0.4-0.9-1.7-1.2-2.5-1.5c-1.1-0.5-2.3-1-3.6-1.2c-0.3,0-0.6,0.3-0.4,0.6
					c0.8,1,2.1,1.6,3.2,2.1c0.9,0.4,2.2,0.9,3.1,0.3C202,131.4,202.1,131.3,202,131.1L202,131.1z"/>
			</g>
			<g>
				<path class="st26" d="M202.8,132.5c-0.9-0.8-2.1-1-3.2-1.2c-1.1-0.2-2.4-0.9-3.4-0.5c-0.3,0.1-0.3,0.5-0.2,0.7
					c0.7,0.9,2.3,1.1,3.3,1.3c1.1,0.3,2.4,0.5,3.5,0C202.9,132.8,202.9,132.6,202.8,132.5L202.8,132.5z"/>
			</g>
			<g>
				<path class="st26" d="M201.8,134.5c-0.9-0.4-2-0.1-2.9,0.1c-0.6,0.1-1.2,0.2-1.8,0.2c-0.5,0-0.8,0-1.2,0.2
					c-0.2,0.1-0.2,0.4-0.1,0.6c0.6,0.8,1.9,0.4,2.8,0.2c1.1-0.2,2.3-0.4,3.2-1C201.9,134.7,202,134.5,201.8,134.5L201.8,134.5z"/>
			</g>
			<g>
				<path class="st26" d="M205.6,136.4c-0.8,0.8-0.8,1.8-1,2.9c-0.1,0.9-0.2,2.3,0.6,2.9c0.1,0.1,0.3,0.1,0.4,0
					c0.8-0.6,0.7-1.9,0.8-2.8c0-1.1,0.1-2-0.5-2.9C205.9,136.4,205.7,136.3,205.6,136.4L205.6,136.4z"/>
			</g>
			<g>
				<path class="st26" d="M206.2,136.3c-0.5,1,0.3,2.6,0.7,3.6c0.4,1.1,0.9,2.4,2.1,2.6c0.3,0.1,0.5-0.1,0.6-0.4
					c0.6-1.1-0.3-2.4-0.8-3.3c-0.4-0.9-0.9-2.5-2-2.8C206.6,135.9,206.4,136,206.2,136.3L206.2,136.3z"/>
			</g>
			<g>
				<path class="st26" d="M209.5,135c0,1.1,0.7,2,1.3,2.8c0.7,1,1.3,2.1,2.4,2.5c0.3,0.1,0.8-0.1,0.8-0.5c0-1.3-0.7-2.2-1.5-3.2
					c-0.7-0.9-1.5-1.9-2.6-2.1C209.8,134.6,209.5,134.8,209.5,135L209.5,135z"/>
			</g>
			<g>
				<path class="st26" d="M209.3,135.5c-0.2,1,0.2,2,0.5,3c0.3,1.2,0.6,2.3,1.3,3.3c0.2,0.3,0.6,0.3,0.7-0.1
					c0.2-1.1-0.2-2.2-0.6-3.4c-0.4-1.1-0.7-2.3-1.5-3C209.6,135.2,209.4,135.3,209.3,135.5L209.3,135.5z"/>
			</g>
			<g>
				<path class="st26" d="M212.8,133.7c0.7,0.7,1.8,0.9,2.8,1.3c1.1,0.4,2.3,0.8,3.4,0.7c0.3,0,0.5-0.3,0.3-0.6
					c-0.8-0.8-2-1.1-3.1-1.4c-1.1-0.3-2.3-0.7-3.3-0.4C212.7,133.4,212.6,133.6,212.8,133.7L212.8,133.7z"/>
			</g>
			<g>
				<path class="st26" d="M214.1,127.3c1-0.1,1.9-0.8,2.7-1.4c1-0.7,2.1-1.2,2.7-2.2c0.2-0.3,0.1-0.6-0.3-0.6
					c-1.1,0.1-2.1,0.8-3.1,1.6c-0.9,0.7-2,1.4-2.4,2.3C213.8,127.2,213.9,127.4,214.1,127.3L214.1,127.3z"/>
			</g>
			<g>
				<path class="st26" d="M210.7,133.2c0.3,1.2,1.5,1.9,2.5,2.6c1.1,0.8,2.1,1.6,3.4,1.5c0.4,0,0.6-0.5,0.4-0.8
					c-0.4-1.3-1.7-1.9-2.8-2.6c-1-0.6-2.1-1.4-3.2-1.2C210.8,132.8,210.6,133,210.7,133.2L210.7,133.2z"/>
			</g>
			<g>
				<path class="st26" d="M212.1,132c0.8,1,2.4,1.5,3.7,1.8c0.8,0.2,2.9,0.7,3.3-0.6c0.3-1.2-1.6-1.4-2.4-1.5
					c-1.4-0.1-3-0.6-4.3-0.4C212.1,131.4,211.9,131.8,212.1,132L212.1,132z"/>
			</g>
			<g>
				<path class="st26" d="M212.4,129.9c0.9,0.9,2.4,1.1,3.5,1.1c1.3,0.1,3.1,0.3,4.2-0.6c0.6-0.5,0.4-1.3-0.2-1.6
					c-1.2-0.6-2.7-0.1-4,0c-1.1,0.1-2.5,0.1-3.5,0.7C212.4,129.6,212.3,129.8,212.4,129.9L212.4,129.9z"/>
			</g>
			<g>
				<path class="st26" d="M213.7,128c1.1,0.3,2.3,0.1,3.4-0.1c0.6-0.2,2.2-0.5,2-1.5c-0.2-0.9-1.5-0.5-2-0.3
					c-1.2,0.4-2.3,0.9-3.5,1.4C213.4,127.6,213.5,127.9,213.7,128L213.7,128z"/>
			</g>
			<g>
				<path class="st26" d="M211.8,127.4c1.2,0.3,2.1-0.3,3-1c1-0.9,2.4-2,2.6-3.4c0.1-0.4-0.3-0.7-0.7-0.7c-1.2,0.2-2,1.1-2.8,1.9
					c-0.8,0.9-1.6,1.7-2.3,2.6C211.5,127,211.6,127.3,211.8,127.4L211.8,127.4z"/>
			</g>
			<g>
				<path class="st26" d="M211.4,127.2c0.7-1.2,1.1-2.6,1.6-3.9c0.5-1.2,1.4-2.4,1-3.7c-0.1-0.3-0.5-0.5-0.7-0.4
					c-1.5,0.4-2,2.2-2.4,3.5c-0.4,1.4-0.6,3-0.2,4.4C210.8,127.4,211.2,127.5,211.4,127.2L211.4,127.2z"/>
			</g>
			<g>
				<path class="st26" d="M202.2,135.6c-1.5,0.6-2.9,1.4-4.2,2.3c-0.9,0.7,0.2,2,1.1,1.4c0.6-0.4,0.9-1.1,1.4-1.6
					c0.6-0.7,1.2-1.2,2-1.6C202.8,135.9,202.5,135.5,202.2,135.6L202.2,135.6z"/>
			</g>
			<g>
				<path class="st26" d="M201.4,142.1c0.7-0.6,1-1.4,1.3-2.2c0.4-0.8,0.7-1.6,0.6-2.5c-0.1-0.3-0.4-0.4-0.6-0.2
					c-0.8,0.5-1.1,1.3-1.5,2.1c-0.3,0.8-0.7,1.6-0.6,2.5C200.7,142.1,201.1,142.3,201.4,142.1L201.4,142.1z"/>
			</g>
			<g>
				<path class="st26" d="M204,143.4c0.4-0.8,0.4-1.7,0.4-2.6c0-0.9,0.1-1.8-0.4-2.5c-0.2-0.3-0.5-0.2-0.7,0
					c-0.5,0.7-0.6,1.7-0.5,2.5c0,0.9,0,1.8,0.4,2.6C203.3,143.7,203.9,143.7,204,143.4L204,143.4z"/>
			</g>
			<path class="st27" d="M203.7,135.8c-1.9-0.9-2.2-3.3,0.5-6.1c2.7-2.8,5.4-4.4,7.3-3.1c1.9,1.3,4,3.5,1.9,5.8
				C211.3,134.7,206.5,137,203.7,135.8z"/>
			<g class="st28">
				<g>
					<path class="st29" d="M206.9,129.8c0.3-0.9-0.2-1.9-0.5-2.8c-0.2-0.9-0.3-2.1-1.2-2.5c-0.1-0.1-0.3,0-0.4,0.1
						c-0.5,0.8,0.1,1.7,0.4,2.5c0.3,0.9,0.5,2.2,1.3,2.8C206.6,130,206.8,129.9,206.9,129.8L206.9,129.8z"/>
				</g>
				<g>
					<path class="st29" d="M207.7,129c0.8-0.5,0.4-1.8,0.3-2.6c-0.1-0.9-0.2-2.4-1-2.9c-0.2-0.1-0.4-0.1-0.6,0.1
						c-0.7,0.9-0.1,2.7,0.1,3.7C206.6,127.6,207.1,129.5,207.7,129L207.7,129z"/>
				</g>
				<g>
					<path class="st29" d="M208.6,128c0.1-0.4,0.4-0.8,0.6-1.2c0.2-0.4,0.2-0.8,0.3-1.2c0.2-0.8,0.5-1.8,0.4-2.6
						c-0.1-0.6-0.9-0.8-1.2-0.3c-0.5,0.7-0.6,1.8-0.7,2.6c0,0.4-0.1,0.9,0,1.3c0.1,0.5,0.3,1,0.4,1.4
						C208.5,128.1,208.6,128.1,208.6,128L208.6,128z"/>
				</g>
				<g>
					<path class="st29" d="M209.8,127.7c0.8-0.5,1.2-1.2,1.6-2c0.4-0.8,1.1-1.8,0.9-2.8c0-0.2-0.3-0.4-0.5-0.3
						c-0.8,0.4-1.2,1.4-1.6,2.2c-0.4,0.9-0.9,1.7-0.7,2.7C209.6,127.7,209.7,127.8,209.8,127.7L209.8,127.7z"/>
				</g>
				<g>
					<path class="st29" d="M211.4,128.2c1.5-1.1,2.7-2.4,3.8-4c0.1-0.2,0.2-0.5,0.1-0.7c-0.1-0.1-0.1-0.2-0.2-0.3
						c-0.3-0.2-0.6-0.2-0.8,0c-1.6,1.1-2.8,2.6-3.4,4.5C210.7,128.1,211.1,128.4,211.4,128.2L211.4,128.2z"/>
				</g>
				<g>
					<path class="st29" d="M212,129.6c1.1-0.3,2-1.1,2.8-1.8c0.7-0.6,1.7-1.1,1.9-2c0-0.1-0.1-0.2-0.2-0.3c-0.9-0.4-1.8,0.2-2.5,0.7
						c-1,0.7-2.1,1.5-2.6,2.5C211.2,129.1,211.5,129.8,212,129.6L212,129.6z"/>
				</g>
				<g>
					<path class="st29" d="M212.4,130.7c1,0.1,1.8-0.1,2.7-0.4c0.9-0.3,1.9-0.5,2.7-1c0.3-0.2,0.1-0.6-0.2-0.6
						c-0.9-0.1-1.9,0.2-2.9,0.3c-1,0.1-1.8,0.3-2.6,0.8C211.7,130,211.9,130.7,212.4,130.7L212.4,130.7z"/>
				</g>
				<g>
					<path class="st29" d="M211.4,131.1c0.6,0.6,1.2,0.9,2,1.2c0.8,0.2,1.9,0.5,2.7,0.4c0.6-0.1,0.9-1,0.3-1.4
						c-0.8-0.4-1.8-0.5-2.6-0.6C212.9,130.6,212.3,130.6,211.4,131.1C211.4,131.1,211.4,131.1,211.4,131.1L211.4,131.1z"/>
				</g>
				<g>
					<path class="st29" d="M210.3,132.6c0.6,0.6,1.3,1.2,2,1.5c0.6,0.3,1.5,0.7,2.2,0.5c0.2,0,0.4-0.3,0.3-0.5
						c-0.8-1.4-2.9-1.8-4.3-2C210.2,132.1,210.1,132.4,210.3,132.6L210.3,132.6z"/>
				</g>
				<g>
					<path class="st29" d="M211,132.2c0.7,0.5,1.4,1,2.2,1.4c0.7,0.3,1.5,0.8,2.3,0.4c0.3-0.1,0.4-0.5,0.3-0.8
						c-0.3-0.8-1.1-1-1.8-1.3c-0.8-0.3-1.7-0.4-2.5-0.6C211,131.2,210.6,131.9,211,132.2L211,132.2z"/>
				</g>
				<g>
					<path class="st29" d="M209.2,132.8c0.8,1.4,1.6,2.8,3,3.8c0.9,0.7,1.8-0.3,1.5-1.2c-0.5-1.8-2.1-2.9-3.8-3.3
						C209.5,132.1,208.9,132.4,209.2,132.8L209.2,132.8z"/>
				</g>
				<g>
					<path class="st29" d="M208,134c0.4,1.5,1.2,3.2,2.4,4.2c0.3,0.2,0.6,0,0.7-0.3c0.3-1.6-0.8-3.6-2.1-4.5
						C208.6,133.2,207.9,133.5,208,134L208,134z"/>
				</g>
				<g>
					<path class="st29" d="M207.4,134.3c-0.2,0.9,0,1.9,0.2,2.8c0.2,0.8,0.5,1.7,1.1,2.3c0.3,0.2,0.6,0,0.7-0.2
						c0.8-1.5-0.1-4.1-1.4-5.2C207.8,133.9,207.5,134.1,207.4,134.3L207.4,134.3z"/>
				</g>
				<g>
					<path class="st29" d="M207.5,139.7c0.5-1,0.3-2.6,0.2-3.7c-0.1-0.6-0.5-2.2-1.5-2c-0.9,0.2-0.9,1.8-0.8,2.5
						c0.1,1.2,0.3,2.7,1.3,3.4C207,140.2,207.4,140,207.5,139.7L207.5,139.7z"/>
				</g>
				<g>
					<path class="st29" d="M204.7,140c0.2-0.5,0.5-0.8,0.7-1.3c0.1-0.4,0.2-0.9,0.3-1.3c0.1-0.9,0.2-1.7-0.1-2.5
						c-0.1-0.2-0.3-0.2-0.5-0.1c-0.6,0.7-0.8,1.5-0.9,2.4c-0.1,0.4-0.1,0.9-0.1,1.3c0,0.5,0.2,0.9,0.2,1.4
						C204.2,140.2,204.6,140.2,204.7,140L204.7,140z"/>
				</g>
				<g>
					<path class="st29" d="M199.2,136.1c0.9-0.5,1.8-1,2.7-1.5c0.8-0.5,1.8-0.9,2.2-1.7c0.1-0.3,0.1-0.6-0.3-0.7
						c-2-0.2-3.9,2-5.1,3.4C198.7,135.9,199,136.2,199.2,136.1L199.2,136.1z"/>
				</g>
				<g>
					<path class="st29" d="M200.4,137.2c0.8-0.4,1.5-0.8,2.3-1.4c0.7-0.5,1.3-0.9,1.5-1.8c0.1-0.3-0.2-0.7-0.5-0.7
						c-0.9,0-1.4,0.5-2.1,1.1c-0.7,0.6-1.3,1.2-1.8,1.9C199.5,136.8,199.9,137.4,200.4,137.2L200.4,137.2z"/>
				</g>
				<g>
					<path class="st29" d="M199.6,133c1.4,0.3,3.8,0.8,4.6-0.8c0.1-0.2,0-0.5-0.1-0.7c-0.6-0.7-1.5-0.6-2.3-0.5
						c-0.9,0.1-1.6,0.5-2.4,0.9C198.9,132.2,199,132.8,199.6,133L199.6,133z"/>
				</g>
				<g>
					<path class="st29" d="M204.9,130.5c-0.7-0.5-1.8-0.7-2.6-0.9c-0.8-0.2-1.7-0.5-2.5-0.3c-0.5,0.1-0.7,0.9-0.1,1.1
						c0.4,0.1,0.7,0.4,1.1,0.5c0.5,0.2,1,0.3,1.5,0.4c0.9,0.2,1.8,0.4,2.6,0.2C205.2,131.5,205.2,130.8,204.9,130.5L204.9,130.5z"/>
				</g>
				<g>
					<path class="st29" d="M205.9,129.9c-0.2-1.2-0.7-2.8-1.9-3.4c-0.4-0.2-0.8,0.2-0.7,0.6c0.2,1.2,1.4,2.3,2.2,3
						C205.6,130.3,205.9,130.1,205.9,129.9L205.9,129.9z"/>
				</g>
				<g>
					<path class="st29" d="M201.7,138.9c1-0.3,1.8-1.1,2.4-1.9c0.5-0.7,1.1-1.6,1.1-2.4c0-0.1-0.1-0.2-0.2-0.3
						c-0.9-0.4-1.8,0.4-2.4,1.1c-0.8,0.8-1.4,1.9-1.5,3C200.9,138.8,201.3,139,201.7,138.9L201.7,138.9z"/>
				</g>
				<g>
					<path class="st29" d="M202.6,140.2c0.8-1,2.2-2.5,1.8-3.9c0-0.1-0.3-0.3-0.4-0.2c-1.6,0.4-1.7,2.7-1.6,4.1
						C202.4,140.2,202.6,140.2,202.6,140.2L202.6,140.2z"/>
				</g>
				<g>
					<path class="st29" d="M201.6,128.9c0.9,0.8,1.8,1.9,3,2.1c0.6,0.1,1-0.5,0.8-1c-0.5-1.3-2.2-1.7-3.4-2
						C201.4,127.9,201.2,128.6,201.6,128.9L201.6,128.9z"/>
				</g>
				<g>
					<path class="st29" d="M204.2,127c0.4,0.6,0.6,1.3,1,1.8c0.3,0.3,0.7,0.8,1.1,0.5c0.4-0.3,0.2-1,0-1.3c-0.3-0.6-0.9-1.2-1.3-1.6
						C204.5,125.9,203.8,126.5,204.2,127L204.2,127z"/>
				</g>
				<g>
					<path class="st29" d="M209.4,127.8c1.2-0.2,2.8-3.8,1-4c-1-0.1-1.7,1.3-1.8,2.1C208.5,126.4,208.4,128,209.4,127.8L209.4,127.8
						z"/>
				</g>
				<g>
					<path class="st29" d="M210.4,128.3c0.3-0.1,0.6-0.2,0.9-0.4c0.3-0.2,0.6-0.4,0.8-0.7c0.5-0.5,1-1.3,0.8-2
						c-0.1-0.4-0.4-0.7-0.9-0.7c-0.9,0.1-1.4,0.7-1.8,1.5c-0.2,0.3-0.3,0.7-0.4,1c-0.1,0.3,0,0.6-0.1,0.9
						C209.8,128.1,210.1,128.4,210.4,128.3L210.4,128.3z"/>
				</g>
				<g>
					<path class="st29" d="M211.5,129c1.1-0.3,2.8-1,2.7-2.4c0-0.4-0.4-0.6-0.7-0.7c-1.4-0.2-2.1,1.5-2.6,2.5
						C210.7,128.8,211.2,129.1,211.5,129L211.5,129z"/>
				</g>
				<g>
					<path class="st29" d="M212.2,130.3c1,0.6,2.3,0.2,3.2-0.4c0.7-0.4,2-1.6,1.5-2.6c-0.5-0.9-1.9-0.5-2.6-0.1
						c-1,0.4-2.3,1.3-2.5,2.5C211.9,129.9,212,130.2,212.2,130.3L212.2,130.3z"/>
				</g>
				<g>
					<path class="st29" d="M217.3,130.6c-0.4-0.3-0.8-0.6-1.3-0.8c-0.5-0.2-0.9-0.3-1.4-0.4c-0.7-0.1-2.2-0.1-2.3,0.8
						c-0.1,0.9,1.4,1.3,2,1.4c0.5,0,1,0,1.5,0c0.5,0,1-0.2,1.4-0.4C217.5,131.1,217.5,130.7,217.3,130.6L217.3,130.6z"/>
				</g>
				<g>
					<path class="st29" d="M212.2,137.6c-0.2,0-0.1-0.1,0.1-0.2c0-0.1,0.1-0.2,0.1-0.2c0.1-0.3,0.1-0.6,0.1-0.8
						c0-0.7-0.2-1.3-0.4-1.9c-0.4-1-1.6-2.5-2.8-1.8c-1.1,0.7-0.5,2.3,0,3.2c0.3,0.6,0.7,1.2,1.2,1.6c0.5,0.4,0.9,0.4,1.4,0.5
						C212.1,137.9,212.2,137.8,212.2,137.6L212.2,137.6z"/>
				</g>
				<g>
					<path class="st29" d="M208.8,128.4c0.2-0.5,0-1.1-0.1-1.5c-0.1-0.6-0.3-1.1-0.7-1.5c-0.2-0.2-0.6,0-0.7,0.2
						c-0.4,0.9,0,2.1,0.5,2.9c0.1,0.2,0.4,0.2,0.6,0.2c0,0,0,0,0,0C208.6,128.8,208.7,128.6,208.8,128.4L208.8,128.4z"/>
				</g>
				<g>
					<path class="st29" d="M207.2,129.2c0.1-0.6,0-1-0.2-1.6c-0.2-0.6-0.3-1.1-0.7-1.6c-0.4-0.6-1.2-0.2-1.3,0.4
						c-0.2,1.1,0.4,2.7,1.6,3.1C206.9,129.6,207.1,129.4,207.2,129.2L207.2,129.2z"/>
				</g>
			</g>
			<path class="st30" d="M204.3,135c-1.6-0.7-1.8-2.7,0.4-5c2.2-2.3,4.5-3.7,6.1-2.6c1.6,1.1,3.3,2.9,1.6,4.8
				C210.6,134.1,206.6,136,204.3,135z"/>
			<g>
				<defs>
					<path id="SVGID_5_" d="M222.1,117.8c2.8,1.8,4.2,3.7,3.9,8.6c-0.1,1.6-0.5,3.6-1.2,5.2c-0.7,1.5-1.4,2.7-2.4,4.1
						c-2.9,4.1-7.8,7.5-12.6,9.6c-2.7,1.2-5.2,1.6-6.8,1.6c-2.2,0-3.4-0.3-5.2-1c-1.2-0.5-2.9-1.7-3.7-2.5c-3.8-3.9-3.7-8.7-1.3-14
						c2.1-4.5,6.1-8.3,10.8-10.9c1.5-0.9,7.2-3.4,11.3-2.8C217.5,116,220.1,116.6,222.1,117.8z"/>
				</defs>
				<clipPath id="SVGID_6_">
					<use xlink:href="#SVGID_5_"  style="overflow:visible;"/>
				</clipPath>
				<g class="st31">
					<path class="st24" d="M204.1,118.7c4.9-1.4,7-1.5,10.8-1.1c3.5,0.4,7,3.1,8.4,6.3c1.3,2.9,1.4,6.3,0.4,9.3
						c-1.3,3.8-4.2,6.7-6.1,10.2c-0.4,0.8,0.6,1.5,1.3,1.3c3.6-1.2,6.2-4.4,8-7.7c1.6-3.1,2.5-6.5,2.3-10
						c-0.4-7.4-7.1-13.8-14.5-13.8c-2.1,0-4.1,0.5-6.1,1.1c-2,0.6-4.2,1.5-5.7,3c-0.5,0.5-2.5,2.4-1.6,2.4L204.1,118.7z"/>
				</g>
				<g class="st32">
					<path class="st26" d="M201.5,119.2c-2,0.4-5.9,3.5-7,5.1c-1.1,1.6-2.1,3.4-2.8,5.3c-1.4,3.7-2.4,8-1.2,11.9
						c1.3,4.3,5.4,7,9.6,8c3.8,1,9,1.8,11.9-1.5c0.8-0.9-0.2-2.6-1.4-2.3c-3,0.7-6.5,0.4-9.5-0.4c-3-0.7-6.2-2.6-6.9-5.9
						c-0.6-2.9-0.1-6.4,0.9-9.2c0.5-1.5,1.2-2.9,2.1-4.2c0.9-1.3,2-3,2.7-4.5C200.5,120.6,201.5,119.2,201.5,119.2z"/>
				</g>
			</g>
			<g class="st33">
				<path class="st34" d="M197.2,128c-1.9-0.3-2.9,2.5-3.3,3.9c-0.6,2.1-0.6,4.2,0.1,6.2c0.7,1.9,1.8,4.1,3.2,5.5
					c1.6,1.6,3.8,2.4,6.1,2.3c2.3,0,4.5-0.7,6.6-1.5c2.2-0.8,4.4-1.8,6.3-3.2c1.7-1.3,3.2-2.9,4.1-4.8c0.9-1.7,1.5-4.3,0.2-5.9
					c-0.4-0.6-1.4-0.7-1.9-0.2c-1,0.9-1.6,2.4-2.4,3.5c-0.7,1.1-1.6,2-2.6,2.8c-2.5,2-5.9,3.4-9,4.1c-1.2,0.3-2.7,0.4-3.8-0.3
					c-1-0.6-1.8-2.1-2.4-3.2c-0.7-1.3-1-2.6-0.9-4c0.1-0.8,0.1-1.5,0.2-2.3c0.1-0.7,0-1.3,0-2C198,128.5,197.7,128.1,197.2,128
					L197.2,128z"/>
			</g>
			<g class="st35">
				<path class="st34" d="M200.8,124.9c0.7,0.1,1.4-0.2,2-0.4c0.8-0.3,1.7-0.5,2.5-0.8c1.7-0.5,3.4-1.2,5.1-1.5
					c1.5-0.3,2.5,0.3,3.6,1.3c0.6,0.5,1.1,0.9,1.5,1.5c0.6,0.7,0.8,1.6,1.4,2.2c1.1,1.2,3.2,1.1,3.8-0.6c1-2.8-1.5-5.3-3.5-6.9
					c-2-1.7-4.5-2.7-7.2-2.2c-2.5,0.4-5.1,1.9-7.2,3.3c-1,0.6-2.1,1.4-2.5,2.6C200.3,123.6,200.1,124.7,200.8,124.9L200.8,124.9z"/>
			</g>
			<g>
				<path class="st34" d="M218.4,134.2c0.7,0.1,1.4,0.2,2.2,0.3c0.6,0.1,1.3,0.2,2,0.1c0.1,0,0.1-0.1,0-0.2
					c-0.7-0.2-1.4-0.1-2.1-0.2c-0.7-0.1-1.4-0.1-2-0.2C218.3,134,218.2,134.2,218.4,134.2L218.4,134.2z"/>
			</g>
			<g>
				<path class="st34" d="M218.5,133.1c1.7,0,3.4,0,5-0.6c0.1,0,0-0.1,0-0.1c-1.7,0.1-3.3,0.6-5,0.6
					C218.5,133,218.5,133.1,218.5,133.1L218.5,133.1z"/>
			</g>
			<g>
				<path class="st34" d="M217.8,126.3c2.3-0.3,3.8-2.4,6-3.1c0.1,0,0-0.1,0-0.1c-1,0.1-1.8,0.5-2.6,1.1
					C220,124.9,218.8,125.5,217.8,126.3C217.7,126.2,217.7,126.3,217.8,126.3L217.8,126.3z"/>
			</g>
			<g>
				<path class="st34" d="M208.5,144.8c-0.2-1.3-0.2-2.7-0.2-4c0-0.1-0.1-0.1-0.1,0C207.9,142.1,208.1,143.5,208.5,144.8
					C208.5,144.8,208.5,144.8,208.5,144.8L208.5,144.8z"/>
			</g>
			<g>
				<path class="st34" d="M209.1,118.1c-0.6,1.1-1.1,2.4-1,3.7c0,0.1,0.1,0.1,0.1,0c0.2-1.3,0.5-2.5,1.1-3.7
					C209.3,118.1,209.2,118.1,209.1,118.1L209.1,118.1z"/>
			</g>
			<g>
				<path class="st34" d="M213.1,137.3c1.2,1,2.5,2.2,4,2.9c0.1,0,0.1-0.1,0.1-0.1c-1.1-1.2-2.6-2.1-4-3
					C213.1,137,213,137.2,213.1,137.3L213.1,137.3z"/>
			</g>
			<g>
				<path class="st34" d="M214.2,136.7c1.1,0.7,2.3,1.7,3.6,2.2c0.1,0,0.2-0.1,0.1-0.2c-1-0.9-2.4-1.5-3.5-2.2
					C214.2,136.5,214.1,136.7,214.2,136.7L214.2,136.7z"/>
			</g>
			<g>
				<path class="st34" d="M215.5,135.7c0.2,0.1,0.4,0.2,0.5,0.2c0.2,0.1,0.3,0.2,0.5,0.2c0.1,0,0.1-0.1,0.1-0.2
					c-0.1-0.1-0.3-0.2-0.5-0.3c-0.2-0.1-0.4-0.2-0.5-0.2C215.5,135.4,215.4,135.6,215.5,135.7L215.5,135.7z"/>
			</g>
			<g>
				<path class="st34" d="M195.1,140.2c1.2-0.6,2.4-1.4,3.1-2.5c0.1-0.1-0.1-0.3-0.2-0.2c-1,0.8-1.9,1.8-3,2.5
					C195,140.1,195,140.3,195.1,140.2L195.1,140.2z"/>
			</g>
			<g>
				<path class="st34" d="M195.8,138c0.8-0.6,1.6-1.1,2.3-1.7c0.1-0.1,0-0.2-0.1-0.1c-0.8,0.5-1.6,1.1-2.3,1.7
					C195.6,137.9,195.7,138.1,195.8,138L195.8,138z"/>
			</g>
		</g>
		<path class="st17" d="M205.6,160.8c-3.1-5.3-7.8-20.1,5.1-30.6l-30.4,0l-30.4,0c15.5,12.7,4.9,31.1,3.9,32.7
			c-3.5,5.7-5.5,12.5-5.5,19.9c0,19.6,14.4,35.5,32.1,35.5c17.7,0,32.1-15.9,32.1-35.5C212.5,174.5,209.4,167.2,205.6,160.8z
			 M180.4,213.3c-14.9,0-27-13.7-27-30.5c0-6.2,1.7-12.2,4.8-17.3c4.1-6.8,8-19.3,2.3-30.3l19.8,0l19.7,0
			c-5.6,10.7-2.2,22.4,1.2,28.1c4.3,7.2,6.2,13.4,6.2,19.5C207.5,199.7,195.4,213.3,180.4,213.3z"/>
		<path class="st15" d="M150.8,182.2c0-7.5,2-14.5,5.5-20.3c1-1.6,10.7-18.9-2.1-31.7h-4.3c15.5,12.7,4.9,31.1,3.9,32.7
			c-3.5,5.7-5.5,12.5-5.5,19.9c0,19.6,14.4,35.5,32.1,35.5c0.4,0,0.8,0,1.2,0C164.5,217.6,150.8,201.7,150.8,182.2z"/>
	</g>
</g>
</svg>
