<?xml version="1.0" encoding="utf-8"?>
<!-- Generator: Adobe Illustrator 23.0.0, SVG Export Plug-In . SVG Version: 6.00 Build 0)  -->
<svg version="1.1" id="Capa_1" xmlns="http://www.w3.org/2000/svg" xmlns:xlink="http://www.w3.org/1999/xlink" x="0px" y="0px"
	 viewBox="0 0 360 363" style="enable-background:new 0 0 360 363;" xml:space="preserve">
<style type="text/css">
	.st0{fill:#FFD084;}
	.st1{fill:none;stroke:#FFE1C0;stroke-width:0.7573;stroke-miterlimit:10;}
	.st2{fill:#FFD6A4;}
	.st3{fill:none;stroke:#FFE1C0;stroke-width:0.75;stroke-miterlimit:10;}
	.st4{fill:#FFE1C0;}
	.st5{fill:none;stroke:#FFD6A4;stroke-width:0.75;stroke-miterlimit:10;}
	.st6{fill:none;stroke:#FFEFE1;stroke-width:0.7478;stroke-miterlimit:10;}
	.st7{fill:#8F7CE5;}
	.st8{fill:#A6A6DD;}
	.st9{fill:#FFE5CC;}
	.st10{fill:none;stroke:#FFD6A4;stroke-miterlimit:10;}
	.st11{clip-path:url(#SVGID_2_);fill:#FFD8AE;}
	.st12{clip-path:url(#SVGID_4_);fill:#FFD8AE;}
	.st13{fill:#EBEBFC;stroke:#FFFFFF;stroke-width:17.8589;stroke-linejoin:round;stroke-miterlimit:10;}
	.st14{fill:#3D9EC1;}
	.st15{fill:#78C9E9;}
	.st16{fill:#FFCC2C;}
	.st17{fill:#FDFFFD;enable-background:new    ;}
	.st18{fill:#EBFFE9;enable-background:new    ;}
	.st19{fill:#D7FFD4;enable-background:new    ;}
	.st20{opacity:0.74;fill:#C9C9F4;}
	.st21{fill:#CCCCFF;}
	.st22{fill:#C2C2F9;}
</style>
<g id="fondo">
	<g id="Rectángulo_556">
		<rect y="-0.1" class="st0" width="360" height="363.3"/>
		<rect x="0.5" y="0.4" class="st0" width="359" height="362.2"/>
	</g>
	<path class="st1" d="M228.1,263.3c0,0,44-35.1,59.7-104.9c15.8-69.8-12.4-91.7-12.4-91.7s-20.5-26.4-33.4,10.6
		c0,0-11.1,37.2-24.4,18.6c0,0-4-5.6-6.5-13s-11-10.5-11-10.5s-21.4-7.3-59.4,34.8c0,0-30.9,35.9-25.5,83.1s10.5,56.8,10.5,56.8
		L228.1,263.3z"/>
	<path class="st2" d="M225.9,276.1c0,0,43.1-35.1,58.6-104.9s-12.2-91.7-12.2-91.7s-20.1-26.4-32.8,10.6c0,0-10.9,37.2-23.9,18.6
		c0,0-3.9-5.6-6.4-13s-10.8-10.5-10.8-10.5s-21-7.3-58.2,34.8c0,0-30.3,35.9-25,83.1c5.3,47.2,10.3,56.8,10.3,56.8L225.9,276.1z"/>
	<path class="st3" d="M114.9,250.6c0,0-61.2-54.4-49.7-80.4s30.9-7.5,30.9-7.5s25.7,22.6,47.9,63.9L114.9,250.6z"/>
	<path class="st2" d="M115.8,254.7c0,0-54.1-58.6-42.6-84.6s30.9-7.5,30.9-7.5s25.7,22.6,47.9,63.9L115.8,254.7z"/>
	<path class="st4" d="M206.4,270c0,0,41.3-44.5,60.9-102.8c0,0,11.1-34-2.3-60c0,0-8.2-25.8-29.3,14.8s-29.4,11.9-29.4,11.9
		s-8.1-59.5-44-15.2s-22.9,140.1-22.9,140.1L206.4,270z"/>
	<path class="st5" d="M191.1,246.3c0,0,54.4-73,68-155.4"/>
	<path class="st6" d="M195.3,271c0,0,33.9-33.6,51.3-78.9c0,0,9.9-26.4,0.3-47.4c0,0-5.5-20.6-23.5,10.6s-23.4,8.4-23.4,8.4
		s-4.3-47.2-33.9-13.5s-22.8,109.6-22.8,109.6L195.3,271z"/>
	<g>
		
			<ellipse transform="matrix(1 -1.876250e-03 1.876250e-03 1 -0.5354 0.338)" class="st7" cx="179.9" cy="285.5" rx="102.6" ry="21.4"/>
		<polygon class="st7" points="282.5,285.3 282.7,271.4 77.5,271.8 77.3,285.7 		"/>
		
			<ellipse transform="matrix(1 -1.876250e-03 1.876250e-03 1 -0.5092 0.3384)" class="st8" cx="180.1" cy="271.6" rx="102.6" ry="21.4"/>
	</g>
	<path class="st3" d="M239.7,225.4c0,0,41.8-19.1,39.9,8.9s-53,30.9-53,30.9s-15.5-0.3-14.5-10.3C213.1,245,218.5,235.9,239.7,225.4
		z"/>
	<path class="st9" d="M229.9,227.9c0,0,37.6-26.4,40.9,1.5c3.2,27.9-46.4,40.1-46.4,40.1S209,272,208.2,262
		C207.3,252,211,242.1,229.9,227.9z"/>
	<path class="st10" d="M208.2,262c0,0,44.4-19.6,65.3-41.4"/>
	<g>
		<g>
			<defs>
				<path id="SVGID_1_" d="M229.9,227.9c0,0,37.6-26.4,40.9,1.5c3.2,27.9-46.4,40.1-46.4,40.1S209,272,208.2,262
					C207.3,252,211,242.1,229.9,227.9z"/>
			</defs>
			<clipPath id="SVGID_2_">
				<use xlink:href="#SVGID_1_"  style="overflow:visible;"/>
			</clipPath>
			<path class="st11" d="M240.9,216.5c0,0-27.3,46.6,4.8,50c21.5,2.3-22.9,11.5-22.9,11.5l-20.3-4.6l-1.3-29.1l20-22.9L240.9,216.5z
				"/>
		</g>
	</g>
	<g>
		<path class="st9" d="M128.2,230.7c0,0-34.9-21.9-37.3,9.5c0,0,6.5,28.1,39.9,22.4S128.2,230.7,128.2,230.7z"/>
	</g>
	<path class="st10" d="M143,253.3c0,0-40.9-21-62.4-13.1"/>
	<g>
		<g>
			<defs>
				<path id="SVGID_3_" d="M128.2,230.7c0,0-34.9-21.9-37.3,9.5c0,0,6.5,28.1,39.9,22.4S128.2,230.7,128.2,230.7z"/>
			</defs>
			<clipPath id="SVGID_4_">
				<use xlink:href="#SVGID_3_"  style="overflow:visible;"/>
			</clipPath>
			<path class="st12" d="M124.1,223.3h-4h-3.6c0,0,17.6,26,9.4,34.6c-8.3,8.6-9.4,6.7-9.4,6.7l19.6,1.8l15.9-7.2l1.2-14.3l-16-11.9
				L124.1,223.3z"/>
		</g>
	</g>
	<path class="st3" d="M84.5,166.6c0,0,21.6,45.3,54.6,70.4"/>
	<path class="st3" d="M103.9,168.3c0,0-5.4,4-7,10.8"/>
	<path class="st3" d="M108.2,176.4c0,0-5.3,5.3-6,14.2"/>
	<path class="st3" d="M96.9,195.4c0,0-6.3-0.5-14.9,3.6"/>
	<path class="st3" d="M102.2,201.8c0,0-10.9,0.4-15.6,3.7"/>
	<path class="st2" d="M109.5,112.7c0.1,4-3.4,7.8-6.2,10.4c-1-2.4-1.9-5-2-7.6c-0.1-2,0.7-4,2.2-5.3c0.5-0.4,1-0.8,1.7-0.9
		c0.4-0.1,0.7-0.2,1.1-0.2C108,109.3,109.4,110.9,109.5,112.7z"/>
	<path class="st2" d="M81.9,128.8c-3.1,0.3-9-1.1-11.6-3.3c-2.3-1.7-2.3-2.2-3.4-4.9c-1-2.7,0.6-5.9,3.6-6.2
		c1.5-0.2,3.1,0.2,4.3,1.1C79.1,118.4,82.6,123.4,81.9,128.8z"/>
	<path class="st4" d="M105.6,147.4c-1.9,1.1-5-0.2-4.7-2.6c-0.2-2.8,4.1-3.8,5.6-1.6C107.5,144.5,106.9,146.6,105.6,147.4z"/>
	<path class="st4" d="M319.5,90.1c-2.6,1.4-6.6-0.3-6.3-3.5c-0.2-3.8,5.5-5.1,7.4-2.1C322,86.2,321.3,88.9,319.5,90.1z"/>
	<path class="st2" d="M328.9,302.3c-3.1,1.7-7.9-0.3-7.6-4.2c-0.3-4.5,6.6-6.1,8.9-2.5C331.9,297.6,331,300.9,328.9,302.3z"/>
	<path class="st4" d="M286.4,314c-2,1.1-5.2-0.2-5-2.8c-0.2-3,4.3-4,5.8-1.7C288.4,311,287.9,313.1,286.4,314z"/>
	<path class="st2" d="M61.9,249.7c-2.6,1.4-6.6-0.3-6.3-3.5c-0.2-3.8,5.5-5.1,7.4-2.1C64.4,245.8,63.7,248.5,61.9,249.7z"/>
	
		<ellipse transform="matrix(0.3506 -0.9365 0.9365 0.3506 -99.1506 230.0512)" class="st9" cx="116.3" cy="186.5" rx="2.7" ry="1.7"/>
	
		<ellipse transform="matrix(0.3506 -0.9365 0.9365 0.3506 -107.5106 238.2528)" class="st9" cx="118" cy="196.6" rx="2.7" ry="1.7"/>
	<ellipse transform="matrix(0.3506 -0.9365 0.9365 0.3506 -136.425 236.2583)" class="st0" cx="102.1" cy="216.5" rx="3" ry="1.8"/>
</g>
<path class="st13" d="M206,146.6l4.7-21.2l-4.5-0.8l-4.9,22h-49.2h-3v111.3c0,5.2,4.2,9.3,9.3,9.3h3h39.9c5.1,0,9.3-4.2,9.3-9.3
	V146.6H206z M196.9,260h-33.8c-4.1,0-7.4-3.7-7.4-8.2v-98.1h44.1l-12.5,56.7c-0.2,1.2,0.6,2.4,1.8,2.6c1.2,0.2,2.4-0.6,2.6-1.8
	l12.5-56.8v97.3C204.2,256.4,200.9,260,196.9,260z"/>
<path class="st14" d="M155.7,153.8v98.1c0,4.5,3.3,8.2,7.4,8.2h33.8c4.1,0,7.4-3.7,7.4-8.2v-98.1H155.7z"/>
<path class="st15" d="M158.8,153.8v98.1c0,4.5,2.9,8.2,6.4,8.2h29.5c3.6,0,6.4-3.7,6.4-8.2v-98.1H158.8z"/>
<path class="st14" d="M201.2,153.8h-4.4L184.1,211c-0.2,1.2,0.6,2.4,1.8,2.6c1.2,0.2,2.4-0.6,2.6-1.8l12.6-57.1L201.2,153.8
	L201.2,153.8z"/>
<path class="st16" d="M206.2,124.6l-19,85.9c-0.2,1.2,0.6,2.4,1.8,2.6c1.2,0.2,2.4-0.6,2.6-1.8l19-85.9L206.2,124.6z"/>
<path class="st17" d="M155.7,189.5v62.4c0,4.5,3.3,8.2,7.4,8.2h33.8c4.1,0,7.4-3.7,7.4-8.2v-62.4L155.7,189.5L155.7,189.5z"/>
<path class="st18" d="M155.7,217.1v34.7c0,4.5,3.3,8.2,7.4,8.2h33.8c4.1,0,7.4-3.7,7.4-8.2v-34.7L155.7,217.1L155.7,217.1z"/>
<path class="st19" d="M155.7,236.7v15.1c0,4.5,3.3,8.2,7.4,8.2h33.8c4.1,0,7.4-3.7,7.4-8.2v-15.1H155.7z"/>
<path class="st20" d="M185.4,195.1c1.1,1.1,1.1,2.8,0,3.8l-8.9,8.9c-1.1,1.1-2.8,1.1-3.8,0l-10-10c-1.1-1.1-1.1-2.8,0-3.8l8.9-8.9
	c1.1-1.1,2.8-1.1,3.8,0L185.4,195.1z"/>
<path class="st20" d="M192.8,216c-0.9,0.9-2.3,0.9-3.2,0l-7.4-7.4c-0.9-0.9-0.9-2.3,0-3.2l8.3-8.3c0.9-0.9,2.3-0.9,3.2,0l7.4,7.4
	c0.9,0.9,0.9,2.3,0,3.2L192.8,216z"/>
<path class="st20" d="M180,214.1c-0.7,0.7-1.8,0.7-2.4,0l-5.7-5.7c-0.7-0.7-0.7-1.8,0-2.4l6.4-6.4c0.7-0.7,1.8-0.7,2.4,0l5.7,5.7
	c0.7,0.7,0.7,1.8,0,2.4L180,214.1z"/>
<path class="st20" d="M172,219.1c-0.7-0.7-0.7-1.7,0-2.4l5.6-5.6c0.7-0.7,1.7-0.7,2.4,0l6.3,6.3c0.7,0.7,0.7,1.7,0,2.4l-5.6,5.6
	c-0.7,0.7-1.7,0.7-2.4,0L172,219.1z"/>
<path class="st17" d="M170,225.9c0,2.3-1.8,4.1-4.1,4.1s-4.1-1.8-4.1-4.1s1.8-4.1,4.1-4.1C168.2,221.9,170,223.7,170,225.9z"/>
<path class="st17" d="M194.8,222.9c0,1.4-1.1,2.4-2.4,2.4c-1.4,0-2.4-1.1-2.4-2.4c0-1.4,1.1-2.4,2.4-2.4
	C193.7,220.4,194.8,221.5,194.8,222.9z"/>
<path class="st17" d="M184.1,230.4c0,1.4-1.1,2.4-2.4,2.4c-1.4,0-2.4-1.1-2.4-2.4s1.1-2.4,2.4-2.4
	C182.9,228,184.1,229.1,184.1,230.4z"/>
<path class="st17" d="M191.7,243.3c0,1.4-1.1,2.4-2.4,2.4c-1.4,0-2.4-1.1-2.4-2.4s1.1-2.4,2.4-2.4
	C190.6,240.8,191.7,241.9,191.7,243.3z"/>
<path class="st17" d="M174.9,241.3c0,1.4-1.1,2.4-2.4,2.4c-1.4,0-2.4-1.1-2.4-2.4s1.1-2.4,2.4-2.4
	C173.8,238.9,174.9,240,174.9,241.3z"/>
<path class="st21" d="M149.2,146.6v111.3c0,5.2,4.2,9.3,9.3,9.3h42.9c5.1,0,9.3-4.2,9.3-9.3V146.6H149.2z M204.2,251.8
	c0,4.5-3.3,8.2-7.4,8.2h-33.8c-4.1,0-7.4-3.7-7.4-8.2v-98.1h48.6L204.2,251.8L204.2,251.8z"/>
<g>
	<path class="st22" d="M152.2,257.9V146.6h-3v111.3c0,5.2,4.2,9.3,9.3,9.3h3C156.4,267.2,152.2,263,152.2,257.9z"/>
</g>
</svg>
