<?xml version="1.0" encoding="utf-8"?>
<!-- Generator: Adobe Illustrator 23.0.0, SVG Export Plug-In . SVG Version: 6.00 Build 0)  -->
<svg version="1.1" xmlns="http://www.w3.org/2000/svg" xmlns:xlink="http://www.w3.org/1999/xlink" x="0px" y="0px"
	 viewBox="0 0 360 363" style="enable-background:new 0 0 360 363;" xml:space="preserve">
<style type="text/css">
	.st0{fill:#FFD084;}
	.st1{fill:none;stroke:#FFE1C0;stroke-width:0.7573;stroke-miterlimit:10;}
	.st2{fill:#FFD6A4;}
	.st3{fill:none;stroke:#FFE1C0;stroke-width:0.75;stroke-miterlimit:10;}
	.st4{fill:#FFE1C0;}
	.st5{fill:none;stroke:#FFD6A4;stroke-width:0.75;stroke-miterlimit:10;}
	.st6{fill:none;stroke:#FFEFE1;stroke-width:0.7478;stroke-miterlimit:10;}
	.st7{fill:#8F7CE5;}
	.st8{fill:#A6A6DD;}
	.st9{fill:#FFE5CC;}
	.st10{fill:none;stroke:#FFD6A4;stroke-miterlimit:10;}
	.st11{clip-path:url(#SVGID_2_);fill:#FFD8AE;}
	.st12{clip-path:url(#SVGID_4_);fill:#FFD8AE;}
	.st13{fill:#EBEBFC;stroke:#FFFFFF;stroke-width:17.8589;stroke-linejoin:round;stroke-miterlimit:10;}
	.st14{fill:#C7FF00;stroke:#FFFFFF;stroke-width:17.8589;stroke-linejoin:round;stroke-miterlimit:10;}
	.st15{fill:#FFFEFA;stroke:#FFFFFF;stroke-width:17.8589;stroke-linejoin:round;stroke-miterlimit:10;}
	.st16{fill:#FFF700;stroke:#FFFFFF;stroke-width:17.8589;stroke-linejoin:round;stroke-miterlimit:10;}
	.st17{fill:#3D9EC1;}
	.st18{fill:#78C9E9;}
	.st19{fill:#FFCC2C;}
	.st20{fill:#F9D564;}
	.st21{fill:#FFC700;}
	.st22{fill:#D3A600;}
	.st23{opacity:0.4;fill:#FFFFFF;}
	.st24{fill:#FFA600;}
	.st25{fill:#C7FF00;}
	.st26{fill:#FFFEFA;}
	.st27{fill:#FFF700;}
	.st28{fill:#CCCCFF;}
	.st29{fill:#C2C2F9;}
</style>
<g id="fondo">
	<g id="Rectángulo_556">
		<rect y="-0.14" class="st0" width="360" height="363.28"/>
		<rect x="0.5" y="0.4" class="st0" width="359" height="362.19"/>
	</g>
	<path class="st1" d="M228.09,263.29c0,0,43.95-35.13,59.71-104.93c15.76-69.8-12.42-91.67-12.42-91.67s-20.54-26.38-33.44,10.62
		c0,0-11.15,37.16-24.36,18.58c0,0-3.98-5.62-6.53-12.96c-2.55-7.34-10.99-10.46-10.99-10.46s-21.42-7.34-59.39,34.82
		c0,0-30.89,35.91-25.48,83.07c5.41,47.16,10.51,56.84,10.51,56.84L228.09,263.29z"/>
	<path class="st2" d="M225.9,276.06c0,0,43.1-35.13,58.56-104.93s-12.18-91.67-12.18-91.67s-20.14-26.38-32.79,10.62
		c0,0-10.93,37.16-23.89,18.58c0,0-3.9-5.62-6.4-12.96c-2.5-7.34-10.77-10.46-10.77-10.46s-21-7.34-58.24,34.82
		c0,0-30.29,35.91-24.98,83.07c5.31,47.16,10.31,56.84,10.31,56.84L225.9,276.06z"/>
	<path class="st3" d="M114.92,250.56c0,0-61.21-54.38-49.73-80.38s30.92-7.5,30.92-7.5s25.74,22.64,47.94,63.87L114.92,250.56z"/>
	<path class="st2" d="M115.82,254.74c0,0-54.11-58.56-42.63-84.56s30.92-7.5,30.92-7.5s25.74,22.64,47.94,63.87L115.82,254.74z"/>
	<path class="st4" d="M206.38,269.97c0,0,41.28-44.47,60.9-102.75c0,0,11.09-34.04-2.26-60.04c0,0-8.2-25.76-29.28,14.76
		s-29.36,11.95-29.36,11.95s-8.12-59.49-43.96-15.22s-22.88,140.07-22.88,140.07L206.38,269.97z"/>
	<path class="st5" d="M191.09,246.3c0,0,54.35-73,68.03-155.44"/>
	<path class="st6" d="M195.3,270.97c0,0,33.9-33.63,51.3-78.9c0,0,9.87-26.45,0.31-47.41c0,0-5.53-20.59-23.46,10.62
		s-23.42,8.4-23.42,8.4s-4.3-47.18-33.92-13.52S143.31,259.8,143.31,259.8L195.3,270.97z"/>
	<g>
		
			<ellipse transform="matrix(1 -1.876257e-03 1.876257e-03 1 -0.5354 0.338)" class="st7" cx="179.88" cy="285.51" rx="102.63" ry="21.37"/>
		<polygon class="st7" points="282.51,285.31 282.74,271.39 77.49,271.78 77.26,285.7 		"/>
		
			<ellipse transform="matrix(1 -1.876257e-03 1.876257e-03 1 -0.5092 0.3384)" class="st8" cx="180.12" cy="271.58" rx="102.63" ry="21.37"/>
	</g>
	<path class="st3" d="M239.72,225.43c0,0,41.81-19.06,39.89,8.95s-52.97,30.93-52.97,30.93s-15.52-0.28-14.51-10.31
		C213.15,244.99,218.53,235.95,239.72,225.43z"/>
	<path class="st9" d="M229.87,227.88c0,0,37.63-26.37,40.86,1.51c3.23,27.89-46.43,40.09-46.43,40.09s-15.31,2.56-16.14-7.48
		C207.32,251.96,210.96,242.09,229.87,227.88z"/>
	<path class="st10" d="M208.16,262c0,0,44.37-19.59,65.33-41.4"/>
	<g>
		<defs>
			<path id="SVGID_1_" d="M229.87,227.88c0,0,37.63-26.37,40.86,1.51c3.23,27.89-46.43,40.09-46.43,40.09s-15.31,2.56-16.14-7.48
				C207.32,251.96,210.96,242.09,229.87,227.88z"/>
		</defs>
		<clipPath id="SVGID_2_">
			<use xlink:href="#SVGID_1_"  style="overflow:visible;"/>
		</clipPath>
		<path class="st11" d="M240.93,216.47c0,0-27.33,46.61,4.77,50.04c21.51,2.3-22.88,11.47-22.88,11.47l-20.33-4.59l-1.26-29.05
			l20.04-22.86L240.93,216.47z"/>
	</g>
	<g>
		<path class="st9" d="M128.22,230.7c0,0-34.92-21.87-37.3,9.46c0,0,6.53,28.07,39.88,22.37S128.22,230.7,128.22,230.7z"/>
	</g>
	<path class="st10" d="M142.99,253.29c0,0-40.86-21.01-62.36-13.12"/>
	<g>
		<defs>
			<path id="SVGID_3_" d="M128.22,230.7c0,0-34.92-21.87-37.3,9.46c0,0,6.53,28.07,39.88,22.37S128.22,230.7,128.22,230.7z"/>
		</defs>
		<clipPath id="SVGID_4_">
			<use xlink:href="#SVGID_3_"  style="overflow:visible;"/>
		</clipPath>
		<path class="st12" d="M124.11,223.27h-3.96h-3.6c0,0,17.64,25.99,9.36,34.63c-8.28,8.64-9.36,6.66-9.36,6.66l19.62,1.8l15.87-7.2
			l1.23-14.34l-16-11.87L124.11,223.27z"/>
	</g>
	<path class="st3" d="M84.49,166.62c0,0,21.56,45.33,54.64,70.39"/>
	<path class="st3" d="M103.9,168.26c0,0-5.38,4.01-7.03,10.8"/>
	<path class="st3" d="M108.15,176.42c0,0-5.28,5.28-6,14.16"/>
	<path class="st3" d="M96.87,195.38c0,0-6.26-0.51-14.88,3.65"/>
	<path class="st3" d="M102.15,201.82c0,0-10.93,0.42-15.6,3.7"/>
	<path class="st2" d="M109.46,112.71c0.11,4.02-3.42,7.77-6.2,10.45c-0.99-2.43-1.86-5.01-1.96-7.63c-0.08-1.99,0.66-3.98,2.15-5.31
		c0.48-0.42,1.02-0.76,1.68-0.9c0.36-0.14,0.73-0.18,1.09-0.15C108.03,109.31,109.42,110.9,109.46,112.71z"/>
	<path class="st2" d="M81.91,128.79c-3.13,0.34-9.01-1.11-11.62-3.25c-2.28-1.66-2.35-2.23-3.36-4.91
		c-1.04-2.74,0.64-5.88,3.55-6.22c1.5-0.17,3.06,0.17,4.32,1.09C79.06,118.44,82.58,123.4,81.91,128.79z"/>
	<path class="st4" d="M105.58,147.42c-1.93,1.07-4.96-0.2-4.73-2.63c-0.17-2.84,4.14-3.82,5.55-1.58
		C107.46,144.5,106.93,146.55,105.58,147.42z"/>
	<path class="st4" d="M319.47,90.09c-2.57,1.42-6.63-0.27-6.32-3.51c-0.23-3.8,5.53-5.1,7.42-2.11
		C321.98,86.2,321.27,88.93,319.47,90.09z"/>
	<path class="st2" d="M328.87,302.27c-3.08,1.7-7.93-0.33-7.56-4.2c-0.28-4.55,6.62-6.11,8.88-2.52
		C331.87,297.61,331.02,300.88,328.87,302.27z"/>
	<path class="st4" d="M286.44,314.01c-2.02,1.12-5.2-0.21-4.96-2.75c-0.18-2.98,4.34-4.01,5.83-1.66
		C288.41,310.95,287.85,313.1,286.44,314.01z"/>
	<path class="st2" d="M61.9,249.68c-2.57,1.42-6.63-0.27-6.32-3.51c-0.23-3.8,5.53-5.1,7.42-2.11
		C64.41,245.78,63.71,248.52,61.9,249.68z"/>
	
		<ellipse transform="matrix(0.3506 -0.9365 0.9365 0.3506 -99.1579 230.057)" class="st9" cx="116.32" cy="186.53" rx="2.74" ry="1.69"/>
	
		<ellipse transform="matrix(0.3506 -0.9365 0.9365 0.3506 -107.5172 238.2546)" class="st9" cx="118.05" cy="196.66" rx="2.74" ry="1.69"/>
	
		<ellipse transform="matrix(0.3506 -0.9365 0.9365 0.3506 -136.4276 236.2571)" class="st0" cx="102.15" cy="216.51" rx="2.97" ry="1.83"/>
</g>
<g id="Capa_5">
	<g>
		<g>
			<path class="st13" d="M205.99,146.59l4.68-21.18l-4.48-0.81l-4.86,22h-49.16h-2.99V257.9c0,5.16,4.18,9.33,9.33,9.33h2.98h39.89
				c5.15,0,9.33-4.18,9.33-9.33V146.59H205.99z M196.88,260.04h-33.83c-4.07,0-7.36-3.68-7.36-8.22v-98.05h44.07l-12.52,56.69
				c-0.22,1.24,0.6,2.42,1.83,2.64c1.24,0.23,2.42-0.59,2.64-1.83l12.53-56.76v97.31C204.24,256.36,200.95,260.04,196.88,260.04z"/>
			<g>
				<path class="st14" d="M141.5,174.86c-0.04-0.02-0.07-0.05-0.11-0.07c-11.8-7.83-15.03-23.75-7.2-35.55
					c7.83-11.8,23.75-15.03,35.55-7.2c0.04,0.02,0.07,0.05,0.11,0.08L141.5,174.86z"/>
				<path class="st15" d="M142.95,172.67c-0.04-0.02-0.07-0.05-0.11-0.07c-10.6-7.03-13.49-21.32-6.46-31.92
					c7.03-10.59,21.32-13.49,31.91-6.46c0.04,0.02,0.07,0.05,0.11,0.07L142.95,172.67z"/>
				<g>
					<path class="st16" d="M155.7,151.22l-8.85-16.89c6.18-2.81,13.56-2.57,19.71,1.23L155.7,151.22z"/>
					<path class="st16" d="M153.73,152.2l-19.07-0.78c0.32-3.33,1.43-6.63,3.4-9.61c1.98-2.98,4.59-5.29,7.53-6.87L153.73,152.2z"/>
					<path class="st16" d="M143.39,170.5c-5.89-4.19-8.99-10.9-8.8-17.68l19,1.58L143.39,170.5z"/>
				</g>
			</g>
			<path class="st17" d="M155.69,153.77v98.05c0,4.54,3.3,8.22,7.36,8.22h33.83c4.06,0,7.36-3.68,7.36-8.22v-98.05H155.69z"/>
			<path class="st18" d="M158.77,153.77v98.05c0,4.54,2.88,8.22,6.43,8.22h29.53c3.55,0,6.43-3.68,6.43-8.22v-98.05H158.77z"/>
			<path class="st17" d="M201.16,153.77h-4.43l-12.64,57.26c-0.22,1.24,0.6,2.42,1.83,2.64c1.24,0.22,2.42-0.59,2.64-1.83
				l12.6-57.08V153.77z"/>
			<path class="st19" d="M206.2,124.59l-18.96,85.87c-0.22,1.24,0.6,2.42,1.83,2.64c1.24,0.23,2.42-0.59,2.64-1.83l18.96-85.87
				L206.2,124.59z"/>
			<path class="st20" d="M155.69,189.47v62.36c0,4.54,3.3,8.22,7.36,8.22h33.83c4.06,0,7.36-3.68,7.36-8.22v-62.36H155.69z"/>
			<path class="st21" d="M155.69,217.09v34.73c0,4.54,3.3,8.22,7.36,8.22h33.83c4.06,0,7.36-3.68,7.36-8.22v-34.73H155.69z"/>
			<path class="st22" d="M155.69,236.7v15.12c0,4.54,3.3,8.22,7.36,8.22h33.83c4.06,0,7.36-3.68,7.36-8.22V236.7H155.69z"/>
			<path class="st23" d="M185.43,195.05c1.06,1.06,1.06,2.77,0,3.82l-8.94,8.94c-1.06,1.06-2.77,1.06-3.82,0l-10.02-10.02
				c-1.06-1.06-1.06-2.77,0-3.82l8.94-8.94c1.06-1.06,2.77-1.06,3.82,0L185.43,195.05z"/>
			<path class="st23" d="M192.84,215.97c-0.88,0.88-2.3,0.88-3.17,0l-7.41-7.41c-0.88-0.88-0.88-2.29,0-3.17l8.31-8.31
				c0.88-0.88,2.3-0.88,3.17,0l7.42,7.41c0.88,0.88,0.88,2.3,0,3.17L192.84,215.97z"/>
			<path class="st23" d="M180.02,214.14c-0.67,0.67-1.76,0.67-2.43,0l-5.67-5.67c-0.67-0.67-0.67-1.76,0-2.43l6.36-6.36
				c0.67-0.67,1.76-0.67,2.43,0l5.67,5.67c0.67,0.67,0.67,1.76,0,2.43L180.02,214.14z"/>
			<path class="st23" d="M171.97,219.11c-0.67-0.67-0.67-1.74,0-2.41l5.63-5.63c0.67-0.67,1.74-0.67,2.41,0l6.32,6.32
				c0.67,0.67,0.67,1.74,0,2.41l-5.63,5.64c-0.67,0.67-1.74,0.67-2.41,0L171.97,219.11z"/>
			<path class="st24" d="M170.01,225.92c0,2.25-1.82,4.08-4.07,4.08c-2.25,0-4.07-1.83-4.07-4.08c0-2.25,1.82-4.07,4.07-4.07
				C168.18,221.85,170.01,223.67,170.01,225.92z"/>
			<path class="st24" d="M194.82,222.86c0,1.35-1.1,2.45-2.45,2.45c-1.35,0-2.44-1.1-2.44-2.45c0-1.35,1.09-2.45,2.44-2.45
				C193.72,220.42,194.82,221.51,194.82,222.86z"/>
			<path class="st24" d="M184.05,230.4c0,1.35-1.1,2.44-2.44,2.44c-1.35,0-2.45-1.09-2.45-2.44c0-1.35,1.09-2.45,2.45-2.45
				C182.95,227.96,184.05,229.05,184.05,230.4z"/>
			<g>
				<path class="st25" d="M141.5,174.86c-0.04-0.02-0.07-0.05-0.11-0.07c-11.8-7.83-15.03-23.75-7.2-35.55
					c7.83-11.8,23.75-15.03,35.55-7.2c0.04,0.02,0.07,0.05,0.11,0.08L141.5,174.86z"/>
				<path class="st26" d="M142.95,172.67c-0.04-0.02-0.07-0.05-0.11-0.07c-10.6-7.03-13.49-21.32-6.46-31.92
					c7.03-10.59,21.32-13.49,31.91-6.46c0.04,0.02,0.07,0.05,0.11,0.07L142.95,172.67z"/>
				<g>
					<path class="st27" d="M155.7,151.22l-8.85-16.89c6.18-2.81,13.56-2.57,19.71,1.23L155.7,151.22z"/>
					<path class="st27" d="M153.73,152.2l-19.07-0.78c0.32-3.33,1.43-6.63,3.4-9.61c1.98-2.98,4.59-5.29,7.53-6.87L153.73,152.2z"/>
					<path class="st27" d="M143.39,170.5c-5.89-4.19-8.99-10.9-8.8-17.68l19,1.58L143.39,170.5z"/>
				</g>
			</g>
			<path class="st28" d="M149.2,146.59V257.9c0,5.16,4.18,9.33,9.33,9.33h42.87c5.15,0,9.33-4.18,9.33-9.33V146.59H149.2z
				 M204.24,251.82c0,4.54-3.3,8.22-7.36,8.22h-33.83c-4.07,0-7.36-3.68-7.36-8.22v-98.05h48.56V251.82z"/>
			<g>
				<path class="st29" d="M152.18,257.9V146.59h-2.99V257.9c0,5.16,4.18,9.33,9.33,9.33h2.98
					C156.36,267.23,152.18,263.05,152.18,257.9z"/>
			</g>
		</g>
	</g>
</g>
</svg>
