<svg xmlns="http://www.w3.org/2000/svg" xmlns:xlink="http://www.w3.org/1999/xlink" width="156" height="134" viewBox="0 0 156 134">
  <defs>
    <filter id="Rect치ngulo_547" x="0" y="0" width="156" height="134" filterUnits="userSpaceOnUse">
      <feOffset dx="2" dy="2" input="SourceAlpha"/>
      <feGaussianBlur stdDeviation="3" result="blur"/>
      <feFlood flood-opacity="0.161"/>
      <feComposite operator="in" in2="blur"/>
      <feComposite in="SourceGraphic"/>
    </filter>
  </defs>
  <g transform="matrix(1, 0, 0, 1, 0, 0)" filter="url(#Rect치ngulo_547)">
    <rect id="Rect치ngulo_547-2" data-name="Rect치ngulo 547" width="138" height="116" rx="15" transform="translate(7 7)" fill="#f2f2f8"/>
  </g>
  <g id="Grupo_137" data-name="Grupo 137" transform="translate(-2695.596 -35.016)">
    <path id="Trazado_432" data-name="Trazado 432" d="M2729.636,93.183s-9.912-9-10.98-.157c0,0-1.085,5.231,6,13.39,0,0,4.86,5.232,2.074,7.122a3.635,3.635,0,0,1-3.434-.3c-1.927-1.118-4.7-.822-3.81,4.227s3.222,11.923,18.822,16.763,21.5-15.558,21.5-15.558l-14.226-10.527S2734.581,97.325,2729.636,93.183Z" fill="none" stroke="#ffd6a4" stroke-miterlimit="10" stroke-width="0.396"/>
    <path id="Trazado_433" data-name="Trazado 433" d="M2732.767,97.9s-8.749-7.941-9.692-.138c0,0-.958,4.617,5.3,11.819,0,0,4.29,4.618,1.831,6.287a3.209,3.209,0,0,1-3.031-.266c-1.7-.987-4.149-.726-3.363,3.731s2.451,15.247,16.613,14.8c8.692-.277,13.486,1.214,16.476-1.684,4.4-4.263,2.5-12.048,2.5-12.048l-12.557-9.293S2737.132,101.556,2732.767,97.9Z" fill="#ffe1c0"/>
    <path id="Trazado_434" data-name="Trazado 434" d="M2741.964,119.078s-5.761,2.334-9.949.312-2.7,3.463-2.7,3.463,3.9,8.846,12.5,8.245,8.608-2.656,8.608-2.656.266-7.42-3.931-8.781S2741.964,119.078,2741.964,119.078Z" fill="#fcd8b9"/>
    <path id="Trazado_435" data-name="Trazado 435" d="M2759.676,129.224c1.251.99-1.23,3.954.225,4.157,7.594,1.057,32.515,4.07,42.372-.339,11.7-5.233,23.385-17.006,18.8-23.821,0,0-1.666-3.113-10.363,1.2-5.9,2.929-6.8-1.015-6.682-4.245a16.049,16.049,0,0,1,.864-4.553c1.949-5.742,9.374-31.3-14.024-28.312a34.531,34.531,0,0,0-23.063,14.622c-5.725,8.45-12.825.371-12.825.371s-15.664-16.422-19.747-2.636c-2.324,7.848-.156,15.869,2.443,23a31.58,31.58,0,0,0,2.988,6.5,27.811,27.811,0,0,0,2.934,3.581c2.238,2.429,4.56,4.877,7.284,6.305,1.243.651,2.538,1.133,3.8,1.744l3.481,1.691Z" fill="#ffd6a4"/>
    <path id="Trazado_436" data-name="Trazado 436" d="M2762.672,124.974s32.037,8.246,43.734,3.014,23.385-17.006,18.8-23.821c0,0-1.666-3.113-10.364,1.2-9.239,4.584-6.22-7.668-6.22-7.668S2821.34,64.9,2795,68.258a34.53,34.53,0,0,0-23.063,14.622c-5.724,8.45-12.825.371-12.825.371s-15.663-16.422-19.746-2.636a28.442,28.442,0,0,0-.61,11.327,41.365,41.365,0,0,0,20.559,31.147Z" fill="none" stroke="#ffe1c0" stroke-miterlimit="10" stroke-width="0.3"/>
    <path id="Trazado_437" data-name="Trazado 437" d="M2772.518,97.187s21.6-21.859,25.381-6.441-11.507,31.523-11.507,31.523-10.19,13.7-18.336,7.682c-3.734-2.758-4.924-6.9-5.118-10.577a20.6,20.6,0,0,1,2.449-10.9A100.762,100.762,0,0,1,2772.518,97.187Z" fill="#ffe1c0"/>
    <path id="Trazado_438" data-name="Trazado 438" d="M2768.4,125.107s11.872,5.476,22.843-19.486c0,0,7.381-15.845-4.031-13.074s-16.95,15.574-16.95,15.574Z" fill="none" stroke="#ffefe1" stroke-miterlimit="10" stroke-width="0.296"/>
    <path id="Trazado_439" data-name="Trazado 439" d="M2768.4,93.761s13.693-12,19.642-13.577" fill="none" stroke="#c0c0e2" stroke-miterlimit="10" stroke-width="0.25"/>
    <path id="Trazado_440" data-name="Trazado 440" d="M2798.093,119.072s9.131-5.886,10.316-1.974-4.852,9.219-4.852,9.219-10.55,7.916-12.243,4.388a6.507,6.507,0,0,1-.606-3.295,6.336,6.336,0,0,1,2.379-4.664Z" fill="#ffe5cc"/>
    <path id="Trazado_441" data-name="Trazado 441" d="M2790.985,129.969s13.693-12,19.642-13.577" fill="none" stroke="#ffd6a4" stroke-miterlimit="10" stroke-width="0.396"/>
    <path id="Trazado_442" data-name="Trazado 442" d="M2812.566,115.937a3.718,3.718,0,0,1,2.155-1.238.731.731,0,0,1,.827.307,1.009,1.009,0,0,1-.147,1.031,1.193,1.193,0,0,1-.806.384,2.966,2.966,0,0,1-2.035-.509" fill="#ffe5cc"/>
    <path id="Trazado_443" data-name="Trazado 443" d="M2789.79,78.875a3.713,3.713,0,0,1,2.155-1.239.733.733,0,0,1,.827.307,1.009,1.009,0,0,1-.147,1.031,1.2,1.2,0,0,1-.806.384,2.964,2.964,0,0,1-2.035-.509" fill="#babae2"/>
    <path id="Trazado_444" data-name="Trazado 444" d="M2811.183,114.7a5.2,5.2,0,0,0,.518-1.424,2.2,2.2,0,0,0,.03-.958c-.076-.308-.293-.574-.539-.557s-.442.307-.5.622a2.588,2.588,0,0,0,.044.959,12.138,12.138,0,0,0,.338,1.368" fill="#ffe5cc"/>
    <ellipse id="Elipse_40" data-name="Elipse 40" cx="1.422" cy="0.817" rx="1.422" ry="0.817" transform="translate(2814.743 99.591) rotate(-89.312)" fill="#ffd6a4"/>
    <ellipse id="Elipse_41" data-name="Elipse 41" cx="0.847" cy="1.235" rx="0.847" ry="1.235" transform="translate(2722.776 109.278) rotate(-22.652)" fill="#ffd6a4"/>
    <ellipse id="Elipse_42" data-name="Elipse 42" cx="0.989" cy="1.721" rx="0.989" ry="1.721" transform="translate(2764.741 78.475) rotate(-0.688)" fill="#ffd6a4"/>
    <ellipse id="Elipse_43" data-name="Elipse 43" cx="1.351" cy="2.187" rx="1.351" ry="2.187" transform="translate(2727.63 87.093) rotate(-13.88)" fill="#ffd6a4"/>
    <g id="Grupo_134" data-name="Grupo 134">
      <ellipse id="Elipse_44" data-name="Elipse 44" cx="33.183" cy="6.51" rx="33.183" ry="6.51" transform="translate(2738.132 130.125)" fill="#8f7ce5"/>
      <path id="Trazado_445" data-name="Trazado 445" d="M2738.132,136.614l-.081-4.24,66.365.043.081,4.24Z" fill="#8f7ce5"/>
      <ellipse id="Elipse_45" data-name="Elipse 45" cx="33.183" cy="6.51" rx="33.183" ry="6.51" transform="translate(2738.051 125.885)" fill="#a6a6dd"/>
    </g>
    <path id="Trazado_446" data-name="Trazado 446" d="M2770.023,103.571a.173.173,0,0,0-.295-.033,1.839,1.839,0,0,1-.468.661c-.257.2-.571.242-.773.5-.269.347.174.746.589.665.44-.086.663-.515.8-.854A1.638,1.638,0,0,0,2770.023,103.571Z" fill="#fff" opacity="0.76" style="mix-blend-mode: soft-light;isolation: isolate"/>
    <g id="Grupo_136" data-name="Grupo 136">
      <path id="Trazado_447" data-name="Trazado 447" d="M2778.63,129.338c-2.336-.959-4.117-1.44-4.46-5.736-.286-3.579-1.122-16.1-1.394-20.182a2.413,2.413,0,0,0,1.394-2.033,2.091,2.091,0,0,0-.6-1.426c9.75-2.675,22.9-16.493,22.9-16.493h-51.8S2758.776,97,2767.657,99.874a2.123,2.123,0,0,0-.691,1.513,2.606,2.606,0,0,0,1.879,2.264c-.032,3.776-.141,18.06.008,19.337.171,1.473.171,3.984-5.489,6.35s-6.347,2.242-6.518,3.469,6.346,1.719,13.722,1.6,15.266.123,15.094-1.1S2781.038,130.326,2778.63,129.338Z" fill="#a7d8dd"/>
      <g id="Grupo_135" data-name="Grupo 135">
        <path id="Trazado_448" data-name="Trazado 448" d="M2789.807,74.135a24.264,24.264,0,0,0-6.024,7.321.193.193,0,0,0,.142.283.857.857,0,0,0,1.1.471c.441-.156.674-.708.9-1.047.471-.725,1-1.411,1.539-2.092a21.785,21.785,0,0,0,3-4.465A.408.408,0,0,0,2789.807,74.135Z" fill="#ffe5cc"/>
        <path id="Trazado_449" data-name="Trazado 449" d="M2778.474,87.571a2.6,2.6,0,0,1-.6-1.136,2.05,2.05,0,0,1-.179-.516c-.407-2.195,1.455-4.515,3.337-5.574a7.2,7.2,0,0,1,3.132-.881l.073,0h.081a4.7,4.7,0,0,1,2.09.392.276.276,0,0,1,.149.351,2.393,2.393,0,0,1,.506.673C2789.116,84.888,2782.317,91.836,2778.474,87.571Z" fill="#3aaa35"/>
        <path id="Trazado_450" data-name="Trazado 450" d="M2780.322,87.449a.232.232,0,0,0-.021-.081,1.091,1.091,0,0,0-.661-.669l.01-.012c.146-.179-.138-.434-.327-.309-2.158,1.426-3.809,4.076-4.922,6.273a.35.35,0,0,0,.558.406A49.764,49.764,0,0,0,2780.4,88,.357.357,0,0,0,2780.322,87.449Z" fill="#ffe5cc"/>
        <path id="Trazado_451" data-name="Trazado 451" d="M2781.367,86.576a9.124,9.124,0,0,1-1.406-.286,10.139,10.139,0,0,1-.5-1.217.175.175,0,0,0-.338.043,3.083,3.083,0,0,0,.155.954c-.193-.07-.384-.144-.573-.224-.223-.1-.4.181-.194.313a6.027,6.027,0,0,0,1.02.515,3.165,3.165,0,0,0,1.611,1.534c.175.065.254-.158.164-.266-.3-.353-.643-.652-.931-1.006a7.387,7.387,0,0,0,.99.167C2781.727,87.14,2781.717,86.618,2781.367,86.576Z" fill="#1d1d1b"/>
      </g>
      <path id="Trazado_452" data-name="Trazado 452" d="M2783.652,89.767a34.334,34.334,0,0,1-10.4-.223c-2.968-.512-5.706-1.484-8.59-2.177-3.44-.826-9.358-1.672-11.117,1.4-.14.243,6.479,5.532,7.85,6.435,2.232,1.47,4.843,3.181,8,3.427,6.47.507,12.323-4.534,15-8.16C2784.685,90.08,2784.219,89.691,2783.652,89.767Z" fill="#f09c26"/>
      <path id="Trazado_453" data-name="Trazado 453" d="M2764.082,88.64c-1.66,0-1.663,1.846,0,1.846S2765.745,88.64,2764.082,88.64Z" fill="#fff" opacity="0.6" style="mix-blend-mode: soft-light;isolation: isolate"/>
      <path id="Trazado_454" data-name="Trazado 454" d="M2777.4,91.733c-.664,0-.665.739,0,.739S2778.063,91.733,2777.4,91.733Z" fill="#fff" opacity="0.6" style="mix-blend-mode: soft-light;isolation: isolate"/>
      <path id="Trazado_455" data-name="Trazado 455" d="M2757.635,89.681c-.664,0-.665.739,0,.739S2758.3,89.681,2757.635,89.681Z" fill="#fff" opacity="0.6" style="mix-blend-mode: soft-light;isolation: isolate"/>
      <path id="Trazado_456" data-name="Trazado 456" d="M2761.647,91.364c-.664,0-.665.739,0,.739S2762.312,91.364,2761.647,91.364Z" fill="#fff" opacity="0.6" style="mix-blend-mode: soft-light;isolation: isolate"/>
      <path id="Trazado_457" data-name="Trazado 457" d="M2770.778,96.446c-.664,0-.665.738,0,.738S2771.443,96.446,2770.778,96.446Z" fill="#fff" opacity="0.6" style="mix-blend-mode: soft-light;isolation: isolate"/>
      <path id="Trazado_458" data-name="Trazado 458" d="M2773.861,94.466c-.664,0-.665.739,0,.739S2774.526,94.466,2773.861,94.466Z" fill="#fff" opacity="0.6" style="mix-blend-mode: soft-light;isolation: isolate"/>
      <path id="Trazado_459" data-name="Trazado 459" d="M2774.359,95.885c-.664,0-.665.738,0,.738S2775.024,95.885,2774.359,95.885Z" fill="#fff" opacity="0.6" style="mix-blend-mode: soft-light;isolation: isolate"/>
      <path id="Trazado_460" data-name="Trazado 460" d="M2773.437,100.172c-.87.067-1.692.1-2.506.1a.356.356,0,0,0-.261-.131c-3.117-.341-5.575-2.178-7.863-3.609q-3.123-1.953-6.035-4.071a135.436,135.436,0,0,1-10.821-8.977c-.264-.237-.824.073-.588.325a76.488,76.488,0,0,0,11.863,10.006q3.255,2.288,6.771,4.376a24.648,24.648,0,0,0,3.5,1.847c-.216.079-.267.313-.054.433-.931,1.286.063,2.573,1.639,3.129a.354.354,0,0,0-.149.331,95.775,95.775,0,0,1,.2,9.938c.021,3.145.249,6.328.054,9.469-.221,3.563-3.913,5.6-8,7.129-1.082.4-5.276,1.5-3.315,2.845.3.206.7-.007.646-.269-.244-1.114,4.233-2.222,5.36-2.717a16.985,16.985,0,0,0,3.7-2.122,6.681,6.681,0,0,0,2.714-5.722c.057-6.1-.532-12.311.069-18.4a6.921,6.921,0,0,0,1.849-.2c.337-.084.205-.446-.148-.385-.186.032-.369.055-.552.076-.02-.063-.083-.117-.21-.136-1.682-.253-3.831-1.162-2.929-2.624a.309.309,0,0,0,.036-.112,13.141,13.141,0,0,0,5.12-.041C2773.881,100.578,2773.843,100.141,2773.437,100.172Z" fill="#bbe1e4" opacity="0.76" style="mix-blend-mode: multiply;isolation: isolate"/>
      <path id="Trazado_461" data-name="Trazado 461" d="M2792.457,84.5c-5.658,3.536-10.99,7.4-16.554,11.022-1,.653.45,1.637,1.465,1.048,5.728-3.32,11.416-7.442,15.266-11.973C2792.7,84.516,2792.55,84.442,2792.457,84.5Z" fill="#fff" opacity="0.76" style="mix-blend-mode: soft-light;isolation: isolate"/>
      <path id="Trazado_462" data-name="Trazado 462" d="M2782.392,132.142a23.13,23.13,0,0,0-4.4-1.836c-1.882-.575-4.438-1.173-4.326-2.959.006-.086-.187-.106-.212-.02-.381,1.292.533,2.336,1.913,3.136,1.864,1.08,4.031,1.945,6,2.934C2782.453,133.943,2783.4,132.7,2782.392,132.142Z" fill="#fff" opacity="0.76" style="mix-blend-mode: soft-light;isolation: isolate"/>
    </g>
  </g>
  <path id="Trazado_427" data-name="Trazado 427" d="M-316.5,2087.5l4,4-4,4h0" transform="translate(437.5 -2060.5)" fill="none" stroke="#907ce5" stroke-linecap="round" stroke-width="2" opacity="0.9"/>
  <text id="Aperitivos" transform="translate(26 24)" fill="#8f7be4" font-size="12" font-family="Roboto-Bold, Roboto" font-weight="700" letter-spacing="0.02em"><tspan x="0" y="13">Aperitivos</tspan></text>
</svg>