<svg xmlns="http://www.w3.org/2000/svg" xmlns:xlink="http://www.w3.org/1999/xlink" width="156" height="179" viewBox="0 0 156 179">
  <defs>
    <filter id="Rect치ngulo_548" x="0" y="0" width="156" height="179" filterUnits="userSpaceOnUse">
      <feOffset dx="2" dy="2" input="SourceAlpha"/>
      <feGaussianBlur stdDeviation="3" result="blur"/>
      <feFlood flood-opacity="0.161"/>
      <feComposite operator="in" in2="blur"/>
      <feComposite in="SourceGraphic"/>
    </filter>
    <clipPath id="clip-path">
      <path id="Trazado_475" data-name="Trazado 475" d="M2952.527,142.381s15.345-10.755,16.662.617-18.933,16.348-18.933,16.348-6.244,1.042-6.584-3.052S2944.814,148.175,2952.527,142.381Z" fill="none"/>
    </clipPath>
    <clipPath id="clip-path-2">
      <path id="Trazado_479" data-name="Trazado 479" d="M2911.073,143.531s-14.239-8.918-15.209,3.856c0,0,2.661,11.447,16.261,9.124S2911.073,143.531,2911.073,143.531Z" fill="none"/>
    </clipPath>
  </defs>
  <g transform="matrix(1, 0, 0, 1, 0, 0)" filter="url(#Rect치ngulo_548)">
    <rect id="Rect치ngulo_548-2" data-name="Rect치ngulo 548" width="138" height="161" rx="15" transform="translate(7 7)" fill="#f2f2f8"/>
  </g>
  <path id="Trazado_428" data-name="Trazado 428" d="M-316.5,2087.5l4,4-4,4h0" transform="translate(440.5 -2060.5)" fill="none" stroke="#907ce5" stroke-linecap="round" stroke-width="2" opacity="0.9"/>
  <text id="Refrescantes" transform="translate(29 24)" fill="#8f7be4" font-size="12" font-family="Roboto-Bold, Roboto" font-weight="700" letter-spacing="0.02em"><tspan x="0" y="13">Refrescantes</tspan></text>
  <g id="Grupo_151" data-name="Grupo 151" transform="translate(-2854.447 -30.931)">
    <g id="Grupo_144" data-name="Grupo 144">
      <path id="Trazado_463" data-name="Trazado 463" d="M2951.8,156.823s17.921-14.328,24.349-42.793-5.064-37.382-5.064-37.382-8.377-10.759-13.636,4.333c0,0-4.545,15.155-9.935,7.578a23.605,23.605,0,0,1-2.662-5.286c-1.039-2.993-4.48-4.266-4.48-4.266s-8.733-2.993-24.22,14.2c0,0-12.6,14.646-10.389,33.877s4.286,23.18,4.286,23.18Z" fill="none" stroke="#ffe1c0" stroke-miterlimit="10" stroke-width="0.309"/>
      <path id="Trazado_464" data-name="Trazado 464" d="M2950.909,162.028s17.575-14.328,23.879-42.792-4.967-37.382-4.967-37.382-8.214-10.76-13.372,4.332c0,0-4.458,15.156-9.743,7.578a23.742,23.742,0,0,1-2.611-5.285c-1.019-2.993-4.394-4.267-4.394-4.267s-8.565-2.993-23.752,14.2c0,0-12.354,14.646-10.189,33.877s4.2,23.179,4.2,23.179Z" fill="#ffd6a4"/>
      <path id="Trazado_465" data-name="Trazado 465" d="M2905.65,151.632s-24.962-22.176-20.282-32.778,12.609-3.057,12.609-3.057,10.5,9.234,19.549,26.045Z" fill="none" stroke="#ffe1c0" stroke-miterlimit="10" stroke-width="0.306"/>
      <path id="Trazado_466" data-name="Trazado 466" d="M2906.015,153.336s-22.065-23.88-17.384-34.482,12.608-3.057,12.608-3.057,10.5,9.234,19.55,26.045Z" fill="#ffd6a4"/>
      <path id="Trazado_467" data-name="Trazado 467" d="M2942.949,159.545s16.836-18.136,24.835-41.9c0,0,4.521-13.882-.924-24.485,0,0-3.343-10.507-11.94,6.018s-11.971,4.871-11.971,4.871-3.311-24.261-17.926-6.208-9.329,57.12-9.329,57.12Z" fill="#ffe1c0"/>
      <path id="Trazado_468" data-name="Trazado 468" d="M2936.711,149.893s22.162-29.769,27.741-63.388" fill="none" stroke="#ffd6a4" stroke-miterlimit="10" stroke-width="0.306"/>
      <path id="Trazado_469" data-name="Trazado 469" d="M2938.431,159.953s13.824-13.716,20.918-32.175c0,0,4.025-10.788.126-19.334,0,0-2.256-8.4-9.568,4.333s-9.552,3.427-9.552,3.427-1.754-19.24-13.835-5.513-9.293,44.708-9.293,44.708Z" fill="none" stroke="#ffefe1" stroke-miterlimit="10" stroke-width="0.305"/>
      <g id="Grupo_138" data-name="Grupo 138">
        <ellipse id="Elipse_46" data-name="Elipse 46" cx="41.851" cy="8.717" rx="41.851" ry="8.717" transform="matrix(1, -0.002, 0.002, 1, 2890.274, 157.244)" fill="#8f7ce5"/>
        <path id="Trazado_470" data-name="Trazado 470" d="M2973.993,165.8l.1-5.678-83.7.157-.1,5.678Z" fill="#8f7ce5"/>
        <ellipse id="Elipse_47" data-name="Elipse 47" cx="41.851" cy="8.717" rx="41.851" ry="8.717" transform="matrix(1, -0.002, 0.002, 1, 2890.371, 151.567)" fill="#a6a6dd"/>
      </g>
      <path id="Trazado_471" data-name="Trazado 471" d="M2956.544,141.384s17.051-7.771,16.269,3.65-21.6,12.615-21.6,12.615-6.329-.115-5.915-4.2S2947.9,145.672,2956.544,141.384Z" fill="none" stroke="#ffe1c0" stroke-miterlimit="10" stroke-width="0.306"/>
      <path id="Trazado_472" data-name="Trazado 472" d="M2952.527,142.381s15.345-10.755,16.662.617-18.933,16.348-18.933,16.348-6.244,1.042-6.584-3.052S2944.814,148.175,2952.527,142.381Z" fill="#ffe5cc"/>
      <path id="Trazado_473" data-name="Trazado 473" d="M2943.672,156.294s18.095-7.987,26.642-16.881" fill="none" stroke="#ffd6a4" stroke-miterlimit="10" stroke-width="0.408"/>
      <g id="Grupo_140" data-name="Grupo 140">
        <g id="Grupo_139" data-name="Grupo 139" clip-path="url(#clip-path)">
          <path id="Trazado_474" data-name="Trazado 474" d="M2957.037,137.727s-11.145,19.009,1.944,20.409c8.772.937-9.331,4.676-9.331,4.676l-8.29-1.87-.513-11.845,8.174-9.322Z" fill="#ffd8ae"/>
        </g>
      </g>
      <g id="Grupo_141" data-name="Grupo 141">
        <path id="Trazado_476" data-name="Trazado 476" d="M2911.073,143.531s-14.239-8.918-15.209,3.856c0,0,2.661,11.447,16.261,9.124S2911.073,143.531,2911.073,143.531Z" fill="#ffe5cc"/>
      </g>
      <path id="Trazado_477" data-name="Trazado 477" d="M2917.1,152.745s-16.663-8.567-25.429-5.35" fill="none" stroke="#ffd6a4" stroke-miterlimit="10" stroke-width="0.408"/>
      <g id="Grupo_143" data-name="Grupo 143">
        <g id="Grupo_142" data-name="Grupo 142" clip-path="url(#clip-path-2)">
          <path id="Trazado_478" data-name="Trazado 478" d="M2909.4,140.5h-3.083s7.194,10.6,3.817,14.121-3.817,2.716-3.817,2.716l8,.735,6.473-2.937.5-5.849-6.527-4.84Z" fill="#ffd8ae"/>
        </g>
      </g>
      <path id="Trazado_480" data-name="Trazado 480" d="M2893.242,117.4s8.794,18.488,22.283,28.706" fill="none" stroke="#ffe1c0" stroke-miterlimit="10" stroke-width="0.306"/>
      <path id="Trazado_481" data-name="Trazado 481" d="M2901.155,118.069a8.52,8.52,0,0,0-2.865,4.4" fill="none" stroke="#ffe1c0" stroke-miterlimit="10" stroke-width="0.306"/>
      <path id="Trazado_482" data-name="Trazado 482" d="M2902.89,121.4a9.817,9.817,0,0,0-2.447,5.774" fill="none" stroke="#ffe1c0" stroke-miterlimit="10" stroke-width="0.306"/>
      <path id="Trazado_483" data-name="Trazado 483" d="M2898.29,129.129a12.9,12.9,0,0,0-6.069,1.49" fill="none" stroke="#ffe1c0" stroke-miterlimit="10" stroke-width="0.306"/>
      <path id="Trazado_484" data-name="Trazado 484" d="M2900.443,131.754s-4.456.171-6.362,1.511" fill="none" stroke="#ffe1c0" stroke-miterlimit="10" stroke-width="0.306"/>
      <path id="Trazado_485" data-name="Trazado 485" d="M2903.425,95.415c.043,1.641-1.394,3.171-2.528,4.261a9.336,9.336,0,0,1-.8-3.11,2.742,2.742,0,0,1,.877-2.163,1.5,1.5,0,0,1,.686-.368,1,1,0,0,1,.445-.062A1.47,1.47,0,0,1,2903.425,95.415Z" fill="#ffd6a4"/>
      <path id="Trazado_486" data-name="Trazado 486" d="M2892.187,101.973a8.028,8.028,0,0,1-4.738-1.325,3.09,3.09,0,0,1-1.369-2,1.86,1.86,0,0,1,1.448-2.535,2.508,2.508,0,0,1,1.763.443C2891.026,97.752,2892.463,99.776,2892.187,101.973Z" fill="#ffd6a4"/>
      <path id="Trazado_487" data-name="Trazado 487" d="M2901.84,109.57c-.786.435-2.023-.083-1.929-1.07-.07-1.16,1.687-1.558,2.265-.644A1.209,1.209,0,0,1,2901.84,109.57Z" fill="#ffe1c0"/>
      <path id="Trazado_488" data-name="Trazado 488" d="M2989.065,86.191c-1.049.581-2.7-.11-2.576-1.43-.094-1.549,2.254-2.08,3.026-.859A1.614,1.614,0,0,1,2989.065,86.191Z" fill="#ffe1c0"/>
      <path id="Trazado_489" data-name="Trazado 489" d="M2992.9,172.72c-1.256.695-3.234-.132-3.083-1.711-.112-1.855,2.7-2.49,3.622-1.029A1.933,1.933,0,0,1,2992.9,172.72Z" fill="#ffd6a4"/>
      <path id="Trazado_490" data-name="Trazado 490" d="M2975.6,177.505c-.824.456-2.122-.087-2.023-1.123-.074-1.217,1.77-1.634,2.377-.675A1.269,1.269,0,0,1,2975.6,177.505Z" fill="#ffe1c0"/>
      <path id="Trazado_491" data-name="Trazado 491" d="M2884.03,151.271c-1.049.581-2.7-.111-2.576-1.43-.094-1.549,2.254-2.08,3.026-.859A1.615,1.615,0,0,1,2884.03,151.271Z" fill="#ffd6a4"/>
      <ellipse id="Elipse_48" data-name="Elipse 48" cx="1.119" cy="0.69" rx="1.119" ry="0.69" transform="translate(2905.18 126.326) rotate(-69.474)" fill="#ffe5cc"/>
      <ellipse id="Elipse_49" data-name="Elipse 49" cx="1.119" cy="0.69" rx="1.119" ry="0.69" transform="translate(2905.886 130.456) rotate(-69.474)" fill="#ffe5cc"/>
      <ellipse id="Elipse_50" data-name="Elipse 50" cx="1.211" cy="0.747" rx="1.211" ry="0.747" transform="translate(2899.318 138.616) rotate(-69.474)" fill="#ffd084"/>
    </g>
    <g id="Grupo_150" data-name="Grupo 150">
      <g id="Grupo_149" data-name="Grupo 149">
        <g id="Grupo_145" data-name="Grupo 145">
          <path id="Trazado_492" data-name="Trazado 492" d="M2906,108.338c4.455-6.03,12.051-8.138,18.532-4.682a1.015,1.015,0,0,1,.193,1.637.532.532,0,0,1-.043.125c-2.17,3.982-5.12,7.434-7.817,11.014q-4.075,5.409-8.035,10.915a.985.985,0,0,1-1.575.173C2901.911,122.593,2901.751,114.094,2906,108.338Z" fill="#dedc00"/>
          <path id="Trazado_493" data-name="Trazado 493" d="M2906.769,109.17c4.068-5.506,11-7.43,16.921-4.275a.927.927,0,0,1,.177,1.5.471.471,0,0,1-.04.114c-1.981,3.636-4.675,6.789-7.137,10.057q-3.721,4.939-7.337,9.967a.9.9,0,0,1-1.438.158C2903.032,122.187,2902.886,114.427,2906.769,109.17Z" fill="#f8f8cc"/>
          <path id="Trazado_494" data-name="Trazado 494" d="M2908.663,109.479a12.3,12.3,0,0,1,5.674-3.9.962.962,0,0,1,.583.564.29.29,0,0,0,.146.155c.637,3.014,1.223,6.039,1.714,9.084a1.939,1.939,0,0,0-.261.247c-2.544-1.613-5.039-3.309-7.531-5.011a.267.267,0,0,0-.161-.257c-.024-.012-.041-.028-.063-.041a.371.371,0,0,0-.037-.156A1.037,1.037,0,0,1,2908.663,109.479Z" fill="#dedc00"/>
          <path id="Trazado_495" data-name="Trazado 495" d="M2917.408,115.135c-.487-3-1.065-5.986-1.692-8.958a.36.36,0,0,0,.043-.166.885.885,0,0,1,.445-.852,10.939,10.939,0,0,1,6.716,1.2.808.808,0,0,1,.154,1.3.411.411,0,0,1-.035.1,57.038,57.038,0,0,1-5.22,7.464A.8.8,0,0,0,2917.408,115.135Z" fill="#dedc00"/>
          <path id="Trazado_496" data-name="Trazado 496" d="M2907.662,110.836a1.076,1.076,0,0,1,.39-.022c2.676,1.828,5.352,3.656,8.084,5.389-.037.076-.068.154-.1.234a93.03,93.03,0,0,1-9.456,1.65.3.3,0,0,0-.149-.1,1.359,1.359,0,0,1-.635-.4A12.328,12.328,0,0,1,2907.662,110.836Z" fill="#dedc00"/>
          <path id="Trazado_497" data-name="Trazado 497" d="M2905.922,119.112a.7.7,0,0,1,.235-.266,95.818,95.818,0,0,0,9.734-1.662,1.582,1.582,0,0,0,.061.488l.007.014q-2.8,3.746-5.546,7.547a.786.786,0,0,1-1.255.137A10.507,10.507,0,0,1,2905.922,119.112Z" fill="#dedc00"/>
          <path id="Trazado_498" data-name="Trazado 498" d="M2917.676,111.8c-.028-.164.205-.224.237-.06a5.23,5.23,0,0,1,.037,1.833c-.017.112-.178.114-.171-.007A7.978,7.978,0,0,0,2917.676,111.8Z" fill="#ffde00" style="mix-blend-mode: multiply;isolation: isolate"/>
          <path id="Trazado_499" data-name="Trazado 499" d="M2918.668,112.282c.141-.366.285-.731.422-1.1a.105.105,0,1,1,.188.09c-.168.353-.33.709-.494,1.064C2918.752,112.407,2918.64,112.354,2918.668,112.282Z" fill="#ffde00" style="mix-blend-mode: multiply;isolation: isolate"/>
          <path id="Trazado_500" data-name="Trazado 500" d="M2919.992,110.616a3.342,3.342,0,0,0,.482-1.364.1.1,0,1,1,.2.008,2.7,2.7,0,0,1-.543,1.448A.084.084,0,0,1,2919.992,110.616Z" fill="#ffde00" style="mix-blend-mode: multiply;isolation: isolate"/>
          <path id="Trazado_501" data-name="Trazado 501" d="M2918.218,110.531c.089-.49.168-.983.281-1.468.034-.147.233-.075.208.068-.084.49-.2.974-.309,1.458C2918.37,110.716,2918.2,110.655,2918.218,110.531Z" fill="#ffde00" style="mix-blend-mode: multiply;isolation: isolate"/>
          <path id="Trazado_502" data-name="Trazado 502" d="M2919.509,108.1c0-.157.221-.145.227.009.014.355.008.71.008,1.065a.1.1,0,1,1-.195-.008C2919.533,108.806,2919.511,108.451,2919.509,108.1Z" fill="#ffde00" style="mix-blend-mode: multiply;isolation: isolate"/>
          <path id="Trazado_503" data-name="Trazado 503" d="M2916.763,106.836a.114.114,0,1,1,.227.01,5.817,5.817,0,0,0,.277,2.05c.036.109-.139.182-.18.074A4.88,4.88,0,0,1,2916.763,106.836Z" fill="#ffde00" style="mix-blend-mode: multiply;isolation: isolate"/>
          <path id="Trazado_504" data-name="Trazado 504" d="M2918.2,106.379a.087.087,0,1,1,.175.007l0,.862a.086.086,0,1,1-.171-.007Z" fill="#ffde00" style="mix-blend-mode: multiply;isolation: isolate"/>
          <path id="Trazado_505" data-name="Trazado 505" d="M2920.685,107.858a3.279,3.279,0,0,0,.31-1.108.127.127,0,1,1,.253.01,2.3,2.3,0,0,1-.389,1.212A.1.1,0,0,1,2920.685,107.858Z" fill="#ffde00" style="mix-blend-mode: multiply;isolation: isolate"/>
          <path id="Trazado_506" data-name="Trazado 506" d="M2921.608,108.292a2.4,2.4,0,0,0,.239-1.4c-.02-.157.209-.212.224-.056a2.5,2.5,0,0,1-.331,1.539C2921.687,108.47,2921.561,108.385,2921.608,108.292Z" fill="#ffde00" style="mix-blend-mode: multiply;isolation: isolate"/>
          <path id="Trazado_507" data-name="Trazado 507" d="M2919.458,106.5c-.005-.151.208-.138.217.009.013.211.016.422.019.634,0,.138-.188.124-.2-.008C2919.481,106.921,2919.464,106.71,2919.458,106.5Z" fill="#ffde00" style="mix-blend-mode: multiply;isolation: isolate"/>
          <path id="Trazado_508" data-name="Trazado 508" d="M2914.329,112.579c.406.384.8.784,1.187,1.194a.107.107,0,0,1-.15.152c-.414-.376-.818-.769-1.209-1.172A.122.122,0,0,1,2914.329,112.579Z" fill="#ffde00" style="mix-blend-mode: multiply;isolation: isolate"/>
          <path id="Trazado_509" data-name="Trazado 509" d="M2914.821,110.775l.612,1.033a.06.06,0,1,1-.1.06q-.324-.505-.647-1.013C2914.625,110.766,2914.766,110.683,2914.821,110.775Z" fill="#ffde00" style="mix-blend-mode: multiply;isolation: isolate"/>
          <path id="Trazado_510" data-name="Trazado 510" d="M2913.009,110.342a8.514,8.514,0,0,0,1.123,1.115c.063.048,0,.157-.064.111a5.082,5.082,0,0,1-1.2-1.083C2912.793,110.382,2912.921,110.245,2913.009,110.342Z" fill="#ffde00" style="mix-blend-mode: multiply;isolation: isolate"/>
          <path id="Trazado_511" data-name="Trazado 511" d="M2913.982,107.755c.245.435.458.889.7,1.328a.075.075,0,0,1-.13.076c-.243-.437-.511-.858-.748-1.3A.105.105,0,0,1,2913.982,107.755Z" fill="#ffde00" style="mix-blend-mode: multiply;isolation: isolate"/>
          <path id="Trazado_512" data-name="Trazado 512" d="M2912.236,107.839a3.154,3.154,0,0,1,1.157,1.233.09.09,0,0,1-.156.091,3.869,3.869,0,0,0-1.119-1.121A.118.118,0,0,1,2912.236,107.839Z" fill="#ffde00" style="mix-blend-mode: multiply;isolation: isolate"/>
          <path id="Trazado_513" data-name="Trazado 513" d="M2910.524,109.653a2.9,2.9,0,0,1,.767.691c.07.09-.052.216-.124.126a2.761,2.761,0,0,0-.74-.65C2910.323,109.758,2910.421,109.59,2910.524,109.653Z" fill="#ffde00" style="mix-blend-mode: multiply;isolation: isolate"/>
          <path id="Trazado_514" data-name="Trazado 514" d="M2911.257,111.062c.408.283.8.592,1.195.9.09.069,0,.223-.093.158-.409-.279-.822-.554-1.218-.855C2911.026,111.174,2911.137,110.978,2911.257,111.062Z" fill="#ffde00" style="mix-blend-mode: multiply;isolation: isolate"/>
          <path id="Trazado_515" data-name="Trazado 515" d="M2911.322,108.8a1.872,1.872,0,0,1,.767.593c.063.081-.047.194-.112.113a1.708,1.708,0,0,0-.707-.529C2911.165,108.939,2911.217,108.759,2911.322,108.8Z" fill="#ffde00" style="mix-blend-mode: multiply;isolation: isolate"/>
          <path id="Trazado_516" data-name="Trazado 516" d="M2912.087,115.981a5.12,5.12,0,0,0,2.077-.061c.1-.025.14.142.037.171a4.659,4.659,0,0,1-2.122.117C2911.946,116.184,2911.95,115.958,2912.087,115.981Z" fill="#ffde00" style="mix-blend-mode: multiply;isolation: isolate"/>
          <path id="Trazado_517" data-name="Trazado 517" d="M2910.746,114.422c.641.138,1.277.361,1.91.537.073.02.038.136-.033.117-.638-.164-1.3-.288-1.925-.49A.086.086,0,0,1,2910.746,114.422Z" fill="#ffde00" style="mix-blend-mode: multiply;isolation: isolate"/>
          <path id="Trazado_518" data-name="Trazado 518" d="M2909.477,115.061c.647.124,1.283.312,1.932.433.111.02.079.226-.034.209a12.58,12.58,0,0,1-1.969-.4A.128.128,0,0,1,2909.477,115.061Z" fill="#ffde00" style="mix-blend-mode: multiply;isolation: isolate"/>
          <path id="Trazado_519" data-name="Trazado 519" d="M2908.06,112.38a6.751,6.751,0,0,1,1.946.5c.115.045.061.238-.056.194a12.933,12.933,0,0,0-1.92-.5C2907.926,112.55,2907.957,112.373,2908.06,112.38Z" fill="#ffde00" style="mix-blend-mode: multiply;isolation: isolate"/>
          <path id="Trazado_520" data-name="Trazado 520" d="M2907.876,113.786l1.638.2c.108.013.1.192-.007.182l-1.639-.147C2907.726,114.008,2907.735,113.769,2907.876,113.786Z" fill="#ffde00" style="mix-blend-mode: multiply;isolation: isolate"/>
          <path id="Trazado_521" data-name="Trazado 521" d="M2907.856,116.945c.762-.05,1.526-.074,2.29-.11.1,0,.1.165-.007.172-.763.051-1.527.113-2.291.148C2907.72,117.161,2907.73,116.953,2907.856,116.945Z" fill="#ffde00" style="mix-blend-mode: multiply;isolation: isolate"/>
          <path id="Trazado_522" data-name="Trazado 522" d="M2906.966,115.694l.5-.023c.092,0,.088.152-.006.155l-.5.012C2906.873,115.84,2906.879,115.7,2906.966,115.694Z" fill="#ffde00" style="mix-blend-mode: multiply;isolation: isolate"/>
          <path id="Trazado_523" data-name="Trazado 523" d="M2912.491,119.911a8.372,8.372,0,0,1,2.009-1.424.073.073,0,0,1,.067.129,9.819,9.819,0,0,0-1.965,1.419C2912.523,120.107,2912.414,119.986,2912.491,119.911Z" fill="#ffde00" style="mix-blend-mode: multiply;isolation: isolate"/>
          <path id="Trazado_524" data-name="Trazado 524" d="M2910.56,119.256a17.3,17.3,0,0,0,2.088-.595c.074-.026.122.106.05.136a14.236,14.236,0,0,1-2.086.691C2910.471,119.522,2910.419,119.288,2910.56,119.256Z" fill="#ffde00" style="mix-blend-mode: multiply;isolation: isolate"/>
          <path id="Trazado_525" data-name="Trazado 525" d="M2910.877,122.747a9.488,9.488,0,0,0,1.5-1.761c.067-.107.225,0,.16.106a6.458,6.458,0,0,1-1.535,1.844C2910.9,123.015,2910.787,122.836,2910.877,122.747Z" fill="#ffde00" style="mix-blend-mode: multiply;isolation: isolate"/>
          <path id="Trazado_526" data-name="Trazado 526" d="M2909.892,121.565a2.716,2.716,0,0,1,1.218-.734c.136-.039.176.174.049.222a3.039,3.039,0,0,0-1.083.718C2909.951,121.9,2909.77,121.693,2909.892,121.565Z" fill="#ffde00" style="mix-blend-mode: multiply;isolation: isolate"/>
          <path id="Trazado_527" data-name="Trazado 527" d="M2909.227,123.875l.53-.344c.13-.083.24.134.113.219l-.528.35C2909.211,124.187,2909.095,123.961,2909.227,123.875Z" fill="#ffde00" style="mix-blend-mode: multiply;isolation: isolate"/>
          <path id="Trazado_528" data-name="Trazado 528" d="M2907.551,121.742c.477-.268.962-.522,1.444-.781.1-.055.187.109.085.166-.478.266-.954.539-1.436.8C2907.532,121.984,2907.439,121.8,2907.551,121.742Z" fill="#ffde00" style="mix-blend-mode: multiply;isolation: isolate"/>
          <path id="Trazado_529" data-name="Trazado 529" d="M2906.21,120.248a13.5,13.5,0,0,1,2.779-.794c.114-.023.157.162.042.188-.937.21-1.829.539-2.749.807C2906.173,120.481,2906.1,120.295,2906.21,120.248Z" fill="#ffde00" style="mix-blend-mode: multiply;isolation: isolate"/>
        </g>
        <path id="Trazado_530" data-name="Trazado 530" d="M2952.919,112.428l-40.777,1.084s5.437,43.722,5.777,46.251,1.359,4.7,4.587,4.7,19.2.362,21.408,0,3.738-2.529,4.078-6.5S2952.919,112.428,2952.919,112.428Z" fill="#a7d8dd"/>
        <path id="Trazado_531" data-name="Trazado 531" d="M2937.465,128.3c-.891,4.964-1.516,9.946-2.129,14.953-.326,2.66-.839,5.261-1.323,7.886-.19,1.027-.33,2.07-.5,3.1a12.322,12.322,0,0,1-.607,3.7,1.891,1.891,0,0,1-2.445,1.467,1.931,1.931,0,0,1-1.394-2.093h-.014c.109-.609.171-1.415.318-2.2.076-1.411.288-2.82.451-4.207.311-2.655.487-5.305.938-7.948.871-5.111,1.85-10.192,2.622-15.323,1.536-10.213,3.008-20.561,5.372-30.607.629-2.677,4.92-2.074,4.466.727C2941.561,107.98,2939.295,118.114,2937.465,128.3Z" fill="#f7be29"/>
        <g id="Grupo_146" data-name="Grupo 146">
          <path id="Trazado_532" data-name="Trazado 532" d="M2941.089,122.425a34.581,34.581,0,0,0,9-3.859.6.6,0,0,0-.061-.988,4.646,4.646,0,0,0-1.136-.511,24.581,24.581,0,0,0,3.9-4.821.53.53,0,0,0-.343-.738c-.31-.059-.609-.1-.908-.128a14.283,14.283,0,0,0,1.7-3.975.564.564,0,0,0-.652-.675,15.539,15.539,0,0,0-.684-5.956.549.549,0,0,0-.694-.373,12.771,12.771,0,0,0-5.172,4.663l-.044-.358c-.055-.446-.619-.747-.919-.333a13.129,13.129,0,0,0-2.376,5.687c-.217-.31-.434-.619-.65-.93a.5.5,0,0,0-.888.063,15.145,15.145,0,0,0-.955,4.863c-.071-.084-.14-.167-.216-.252a.515.515,0,0,0-.852.309,13.891,13.891,0,0,0,1.227,7.765.655.655,0,0,0,.049.083A.553.553,0,0,0,2941.089,122.425Z" fill="#3aaa35"/>
          <path id="Trazado_533" data-name="Trazado 533" d="M2940.889,121.134c.256-.34.5-.682.751-1.025a.168.168,0,0,1,0-.055,7.348,7.348,0,0,0-.5-4.381c-.047-.114.126-.2.185-.1a6.572,6.572,0,0,1,.716,3.963q1.222-1.74,2.3-3.528l0-.016a8.826,8.826,0,0,0-1.632-4.664c-.06-.088.066-.211.138-.129a7.6,7.6,0,0,1,1.789,4.314q1.4-2.361,2.6-4.819a.134.134,0,0,1-.009-.03,13.84,13.84,0,0,0-1.025-4.221c-.039-.1.107-.171.156-.08a10.643,10.643,0,0,1,1.147,3.787q.988-2.064,1.875-4.205a10.027,10.027,0,0,0-.778-2.428c-.092-.2.169-.4.275-.194a7.09,7.09,0,0,1,.711,2.113c.507-1.247,1-2.508,1.469-3.8.019-.052.1-.022.087.031-.348,1.374-.765,2.737-1.242,4.085a6.815,6.815,0,0,1,1.781-1.065c.041-.017.074.052.034.075a9.8,9.8,0,0,0-1.99,1.466c-.536,1.468-1.146,2.914-1.813,4.333a11.541,11.541,0,0,1,3.213-1.873c.071-.027.1.086.036.117a14.94,14.94,0,0,0-3.52,2.314c-.779,1.613-1.637,3.186-2.551,4.712a13.555,13.555,0,0,1,4.437-2.175c.092-.026.139.121.047.15a14.306,14.306,0,0,0-4.9,2.72c-.766,1.24-1.572,2.443-2.408,3.605a8.887,8.887,0,0,1,4.151-1.037.069.069,0,0,1,.007.137,10.312,10.312,0,0,0-4.621,1.56.171.171,0,0,1-.03.011c-.169.228-.336.458-.507.682C2941.065,121.755,2940.687,121.4,2940.889,121.134Z" fill="#008d36" style="mix-blend-mode: multiply;isolation: isolate"/>
        </g>
        <path id="Trazado_534" data-name="Trazado 534" d="M2914.99,124.33a.628.628,0,0,1,.776-.215c2.851,1.282,5.912,2.64,9.035,2.848,3.271.216,6.425-.972,9.432-2.195,3.647-1.484,8.052-3.206,13.015-3.532.688-.041,2.4.062,2.354,1.8-.08,3.369-.263,6.588-.5,9.786-.226,3.1-.7,6.021-1.041,9.106-.619,5.608-.671,7.635-1.512,14.008-.007.068-.569,3.179-.61,3.249-.007.013-.017.023-.024.035a.818.818,0,0,1-.188.273c-.877,2-2.267,1.693-3.758,1.867a71.792,71.792,0,0,1-7.736.15c-2.918.018-5.855.141-8.772.035-1.714-.062-3.613-.3-4.929-1.6-1.529-1.508-1.6-3.979-1.892-6.019q-.645-4.549-1.291-9.1c-.928-6.546-1.867-13.094-2.74-19.649A.847.847,0,0,1,2914.99,124.33Z" fill="#f09c26"/>
        <g id="Grupo_147" data-name="Grupo 147">
          <path id="Trazado_535" data-name="Trazado 535" d="M2944.681,145.656a27.93,27.93,0,0,0,.986-7.078.374.374,0,0,0-.577-.308,3.341,3.341,0,0,0-.686.543,18.081,18.081,0,0,0-1.343-4.173.33.33,0,0,0-.536-.041c-.142.176-.27.352-.391.533a9.646,9.646,0,0,0-1.638-2.478.371.371,0,0,0-.609.178,9.293,9.293,0,0,0-3.591-1.655.385.385,0,0,0-.453.311,9.754,9.754,0,0,0,.808,4.926l-.217-.1a.376.376,0,0,0-.509.467,8.816,8.816,0,0,0,2.365,3.507l-.751.088a.385.385,0,0,0-.277.586,9.607,9.607,0,0,0,2.4,2.314c-.072.016-.143.031-.218.05a.4.4,0,0,0-.125.65,8.292,8.292,0,0,0,4.8,1.944.349.349,0,0,0,.065,0A.377.377,0,0,0,2944.681,145.656Z" fill="#3aaa35"/>
          <path id="Trazado_536" data-name="Trazado 536" d="M2943.808,145.356q-.323-1.3-.759-2.532a10.706,10.706,0,0,0-3.26-1.3c-.089-.02-.058-.155.03-.145a8.017,8.017,0,0,1,3.092,1.071,28.294,28.294,0,0,0-1.534-3.441,11.965,11.965,0,0,0-3.654-1.709c-.04-.011-.027-.076.013-.067a11.117,11.117,0,0,1,3.472,1.448,29.6,29.6,0,0,0-2.387-3.691.067.067,0,0,1-.075.008,3.4,3.4,0,0,0-1.974-.376c-.052,0-.071-.088-.018-.1a2.807,2.807,0,0,1,1.882.226q-.966-1.251-2.061-2.418c-.016-.016.006-.042.023-.027a23.439,23.439,0,0,1,2.239,2.4,4.192,4.192,0,0,1,.111-1.885.046.046,0,1,1,.09.02,10.9,10.9,0,0,0-.1,1.994,25.858,25.858,0,0,1,2.461,3.7,9.833,9.833,0,0,1,.148-2.966c.008-.037.068-.035.065.006a23.085,23.085,0,0,0-.026,3.2.076.076,0,0,1-.028.068,28.771,28.771,0,0,1,1.523,3.373,12.689,12.689,0,0,1,.053-3.535c.007-.048.07-.03.067.015a17.35,17.35,0,0,0,.13,4.043.069.069,0,0,1-.03.074q.428,1.21.749,2.461C2944.1,145.439,2943.85,145.527,2943.808,145.356Z" fill="#008d36" style="mix-blend-mode: multiply;isolation: isolate"/>
        </g>
        <g id="Grupo_148" data-name="Grupo 148">
          <path id="Trazado_537" data-name="Trazado 537" d="M2926.833,142.552a25.457,25.457,0,0,0-4.938,4.862.4.4,0,0,0,.269.624,3.172,3.172,0,0,0,.855.033,17.967,17.967,0,0,0-1.41,4.148.351.351,0,0,0,.393.389c.214-.043.418-.1.618-.156a10.222,10.222,0,0,0-.181,3.024.374.374,0,0,0,.579.266,10.411,10.411,0,0,0,1.825,3.681.369.369,0,0,0,.537.06,9.421,9.421,0,0,0,2.27-4.379l.112.22a.359.359,0,0,0,.673-.025,9.366,9.366,0,0,0,.221-4.309l.637.432a.356.356,0,0,0,.561-.273,10.525,10.525,0,0,0-.509-3.4c.066.036.13.072.2.107.24.121.541-.156.48-.424a9.253,9.253,0,0,0-2.6-4.711.332.332,0,0,0-.052-.042A.368.368,0,0,0,2926.833,142.552Z" fill="#3aaa35"/>
          <path id="Trazado_538" data-name="Trazado 538" d="M2927.337,143.367c-.343.819-.641,1.645-.9,2.479a11.991,11.991,0,0,0,1.775,3.187.072.072,0,0,1-.109.093,8.955,8.955,0,0,1-1.78-2.894,28.987,28.987,0,0,0-.831,3.705,13.437,13.437,0,0,0,1.843,3.765c.025.035-.024.078-.05.043a12.46,12.46,0,0,1-1.854-3.44,31.327,31.327,0,0,0-.313,4.467.069.069,0,0,1,.063.044,3.754,3.754,0,0,0,1.318,1.607c.044.031,0,.116-.045.09a3.073,3.073,0,0,1-1.334-1.43q.016,1.619.183,3.258a.017.017,0,1,1-.034.006,25.391,25.391,0,0,1-.33-3.364,3.882,3.882,0,0,1-1.2,1.4.047.047,0,0,1-.058-.075,10.062,10.062,0,0,0,1.25-1.491,27.314,27.314,0,0,1,.26-4.522,9.158,9.158,0,0,1-1.862,2.214c-.028.023-.074-.018-.048-.048a21.5,21.5,0,0,0,1.9-2.477.067.067,0,0,1,.062-.034,29.533,29.533,0,0,1,.8-3.644,11.825,11.825,0,0,1-2.123,2.721c-.033.032-.073-.024-.043-.057a16.231,16.231,0,0,0,2.279-3.239.066.066,0,0,1,.067-.038q.381-1.227.866-2.417A.13.13,0,1,1,2927.337,143.367Z" fill="#008d36" style="mix-blend-mode: multiply;isolation: isolate"/>
        </g>
        <path id="Trazado_539" data-name="Trazado 539" d="M2934.168,157.676c.811.333,1.847-.225,2.6-.47l4.02-1.3c1.618-.525,2.887-.762,2.718-2.843a28.892,28.892,0,0,0-1.569-7.232c-.048-.229-.093-.459-.15-.683-.491-1.943-1.974-1.576-3.522-1.224-1.9.431-5.029.8-6.488,2.338-1.425,1.5-.038,4.343.371,6.037C2932.49,153.7,2932.615,157.039,2934.168,157.676Z" fill="#fff" style="mix-blend-mode: soft-light;isolation: isolate"/>
        <path id="Trazado_540" data-name="Trazado 540" d="M2920.687,144.7c.439.8,1.577,1.05,2.312,1.359l3.908,1.646c1.573.663,2.7,1.318,3.792-.421a28.242,28.242,0,0,0,3.014-6.694c.1-.211.2-.421.282-.633.756-1.845-.619-2.542-2.035-3.293-1.736-.921-4.4-2.708-6.444-2.473-1.994.229-2.576,3.37-3.249,4.966C2921.71,140.479,2919.847,143.176,2920.687,144.7Z" fill="#fff" style="mix-blend-mode: soft-light;isolation: isolate"/>
        <path id="Trazado_541" data-name="Trazado 541" d="M2920.471,131.878a1.3,1.3,0,0,1,.875-1.236,1.25,1.25,0,0,1,.258-.06,1.043,1.043,0,0,1,.874.142.616.616,0,0,1,.2.233,1.832,1.832,0,0,1,.482,1.753,1.346,1.346,0,0,1-2.405.356A1.66,1.66,0,0,1,2920.471,131.878Z" fill="#fff" opacity="0.59" style="mix-blend-mode: soft-light;isolation: isolate"/>
        <path id="Trazado_542" data-name="Trazado 542" d="M2925.978,138.217a1.3,1.3,0,0,1,.875-1.236,1.375,1.375,0,0,1,.257-.06,1.039,1.039,0,0,1,.874.143.6.6,0,0,1,.2.233,1.828,1.828,0,0,1,.482,1.753,1.346,1.346,0,0,1-2.4.356A1.662,1.662,0,0,1,2925.978,138.217Z" fill="#fff" opacity="0.59" style="mix-blend-mode: soft-light;isolation: isolate"/>
        <path id="Trazado_543" data-name="Trazado 543" d="M2921.851,150.8a1.294,1.294,0,0,1,.875-1.236,1.23,1.23,0,0,1,.258-.06,1.043,1.043,0,0,1,.874.142.609.609,0,0,1,.194.233,1.83,1.83,0,0,1,.482,1.753,1.346,1.346,0,0,1-2.405.356A1.659,1.659,0,0,1,2921.851,150.8Z" fill="#fff" opacity="0.59" style="mix-blend-mode: soft-light;isolation: isolate"/>
        <path id="Trazado_544" data-name="Trazado 544" d="M2941.224,127.187a1.3,1.3,0,0,1,1.133-1.3,1.044,1.044,0,0,1,.874.142.616.616,0,0,1,.194.234,1.829,1.829,0,0,1,.482,1.753,1.347,1.347,0,0,1-2.405.356A1.662,1.662,0,0,1,2941.224,127.187Z" fill="#fff" opacity="0.59" style="mix-blend-mode: soft-light;isolation: isolate"/>
        <path id="Trazado_545" data-name="Trazado 545" d="M2942.694,132.819a1.3,1.3,0,0,1,.875-1.236,1.388,1.388,0,0,1,.258-.06,1.043,1.043,0,0,1,.874.142.607.607,0,0,1,.2.234,1.828,1.828,0,0,1,.482,1.753,1.347,1.347,0,0,1-2.405.356A1.662,1.662,0,0,1,2942.694,132.819Z" fill="#fff" opacity="0.59" style="mix-blend-mode: soft-light;isolation: isolate"/>
        <path id="Trazado_546" data-name="Trazado 546" d="M2935.522,138.217a1.3,1.3,0,0,1,.875-1.236,1.38,1.38,0,0,1,.257-.06,1.04,1.04,0,0,1,.874.143.6.6,0,0,1,.195.233,1.828,1.828,0,0,1,.482,1.753,1.347,1.347,0,0,1-2.405.356A1.662,1.662,0,0,1,2935.522,138.217Z" fill="#fff" opacity="0.59" style="mix-blend-mode: soft-light;isolation: isolate"/>
      </g>
      <path id="Trazado_547" data-name="Trazado 547" d="M2921.332,163.658c5.742.264,11.511.314,17.254.091a31.619,31.619,0,0,0,4.351-.259c2.465-.443,3.309-2.361,3.845-4.715a82.7,82.7,0,0,0,1.162-9.7c.625-6,1.242-12.008,1.909-18.005.66-5.945.886-12.24,2.285-18.051a.185.185,0,0,1,.365.053c.12,7.062-1.228,14.394-1.986,21.4-.752,6.96-1.429,13.929-2.191,20.887-.265,2.424-.517,5.163-1.887,7.213-1.3,1.944-3.035,2.019-5.129,2.053-6.663.11-13.32-.011-19.978-.284C2920.919,164.325,2920.918,163.639,2921.332,163.658Z" fill="#bbe1e4" opacity="0.76" style="mix-blend-mode: multiply;isolation: isolate"/>
      <path id="Trazado_548" data-name="Trazado 548" d="M2915.164,115.114a.151.151,0,0,1,.294,0c.743,3.911,1.141,7.915,1.875,11.842a101.686,101.686,0,0,1,1.8,12,.967.967,0,0,1-1.9.274,103.6,103.6,0,0,1-1.624-12.526C2915.254,122.9,2914.575,118.921,2915.164,115.114Z" fill="#fff" opacity="0.76" style="mix-blend-mode: soft-light;isolation: isolate"/>
    </g>
  </g>
</svg>