<?xml version="1.0" encoding="utf-8"?>
<!-- Generator: Adobe Illustrator 23.0.0, SVG Export Plug-In . SVG Version: 6.00 Build 0)  -->
<svg version="1.1" id="Layer_1" xmlns="http://www.w3.org/2000/svg" xmlns:xlink="http://www.w3.org/1999/xlink" x="0px" y="0px"
	 viewBox="0 0 360 321.43" style="enable-background:new 0 0 360 321.43;" xml:space="preserve">
<style type="text/css">
	.st0{fill:#FFFFFF;}
	.st1{fill:#6149C4;}
	.st2{fill:#FF925E;}
	.st3{fill:none;stroke:#5F2367;stroke-width:0.9772;stroke-miterlimit:10;}
	.st4{fill:#FFBD51;}
	.st5{fill:#F78D3B;}
	.st6{fill:#D0262E;}
	.st7{fill:#A80D1E;}
	.st8{fill:#FA5C37;}
	.st9{fill:#FF8A77;}
	.st10{fill:#FFACAC;}
	.st11{fill:#F78D3A;}
	.st12{fill:#CAE0FF;}
	.st13{fill:#FC8D7C;}
	.st14{fill:#FFE3FF;}
	.st15{fill:#FF4167;}
	.st16{fill:#EE092F;}
	.st17{fill:#316991;}
	.st18{fill:#2D1851;}
	.st19{fill:#FFBE51;}
	.st20{fill:#FA9035;}
	.st21{fill:#7ECCF2;}
	.st22{fill:#752029;}
	.st23{fill:#470F1F;}
	.st24{fill:#A03A3A;}
	.st25{fill:#7ECBF2;}
	.st26{fill:#203F65;}
	.st27{fill:#326991;}
	.st28{fill:#F95353;}
	.st29{fill:none;}
	.st30{fill:#FF986E;}
	.st31{fill:#D16145;}
	.st32{fill:#B0452C;}
	.st33{fill:#3D2D96;}
	.st34{fill:#EEEEFF;}
	.st35{fill:#851C1A;}
	.st36{fill:#5C050B;}
	.st37{fill:#CE391F;}
	.st38{fill:#8479C9;}
	.st39{fill:#FFD77E;}
	.st40{fill:#FF5A42;}
	.st41{fill:#FFC3B6;}
	.st42{fill:#E2E2F2;}
	.st43{fill:#FFEEFF;}
	.st44{fill:#FDB642;}
	.st45{fill:#DB3F14;}
	.st46{fill:#FF0344;}
	.st47{fill:#D6033B;}
	.st48{fill:#DA3D13;}
	.st49{fill:#FD7829;}
	.st50{fill:#DB3C13;}
	.st51{fill:#9E3A27;}
	.st52{fill:#FA8B71;}
	.st53{fill:#841B19;}
	.st54{fill:#DA3E13;}
	.st55{fill:#851B1A;}
	.st56{fill:#9D3927;}
	.st57{fill:#FF8644;}
	.st58{fill:#9E3926;}
	.st59{fill:#2A227C;}
	.st60{fill:#56A2C0;}
	.st61{fill:#FFE6FC;}
	.st62{fill:#82110F;}
	.st63{fill:#356C84;}
	.st64{fill:#801003;}
	.st65{fill:#D32921;}
	.st66{fill:#24596B;}
	.st67{fill:#ED6658;}
	.st68{fill:#9C1C13;}
	.st69{fill:#BF3B2C;}
	.st70{fill:#E1D1E8;}
	.st71{fill:#D43B0C;}
	.st72{fill:#D43C0C;}
	.st73{fill:#FF692B;}
	.st74{fill:#E35F4C;}
	.st75{fill:#FF7A73;}
	.st76{fill:#FF8960;}
	.st77{fill:#FFC9CD;}
	.st78{fill:#9B1C13;}
	.st79{fill:#2A546A;}
	.st80{fill:#FEC9CD;}
	.st81{fill:#C9ADC2;}
	.st82{fill:#CCAFD3;}
	.st83{fill:#EDCDEC;}
	.st84{fill:#795D7E;}
	.st85{fill:#E9D1E6;}
	.st86{fill:#FA3F3A;}
	.st87{fill:url(#);}
	.st88{fill:#FBA982;}
	.st89{fill:#FFD084;}
	.st90{fill:none;stroke:#FFFFFF;stroke-width:1.5;stroke-linecap:round;stroke-linejoin:round;}
	.st91{fill:none;stroke:#FFFFFF;stroke-width:3;stroke-linecap:round;stroke-linejoin:round;}
	.st92{fill:none;stroke:#A2A2A3;stroke-width:3;stroke-linecap:round;}
	.st93{fill:none;stroke:#A2A2A3;stroke-width:5;stroke-linecap:round;stroke-linejoin:round;}
	.st94{fill:none;stroke:#A2A2A3;stroke-width:4.5;stroke-linecap:round;stroke-linejoin:round;}
	.st95{fill:#A2A2A3;}
	.st96{fill:#907CE5;}
	.st97{fill:none;stroke:#000000;stroke-miterlimit:10;}
	.st98{fill:none;stroke:#FFFFFF;stroke-width:3;stroke-linecap:round;}
	.st99{fill:#230428;}
	.st100{fill:#748A91;}
	.st101{fill:#F0C918;}
	.st102{fill:#3A2B23;}
	.st103{fill:#CC9B04;}
	.st104{fill:#4F666C;}
	.st105{fill:#50676D;}
	.st106{fill:#CB9B04;}
	.st107{fill:#BE6D46;}
	.st108{fill:#FFBE9E;}
	.st109{fill:#9B8698;}
	.st110{fill:#BAAAB9;}
	.st111{fill:#B9A9B8;}
	.st112{fill:#FFE886;}
	.st113{fill:#FFE884;}
	.st114{fill:#FFD445;}
	.st115{fill:#DFDBF3;}
	.st116{fill:#E6B125;}
	.st117{fill:#FFBC53;}
	.st118{fill:#FFBB52;}
	.st119{fill:#F19536;}
	.st120{fill:#FEE8F4;}
	.st121{fill:#FFE8F4;}
	.st122{fill:#B6B6CC;}
</style>
<g>
	<g id="Grupo_14" transform="translate(1030.501 2721.701)">
		<path id="Trazado_128" class="st1" d="M-789.63-2519.27c13.88-17.09,27.67-34.24,41.56-51.33c2.96-3.12,2.7-8.76-0.99-11.22
			c-2.63-1.77-5.96-1.38-9.01-1.5c-0.5-0.02-0.97,0.24-1.22,0.67c-4.52,7.47-12.56,13.71-21.7,13.71c-0.27,0-0.52-0.01-0.79-0.02
			c-0.44-0.03-0.86,0.16-1.13,0.5c-4.85,6.29-9.62,12.64-14.43,18.96c-0.43,0.57-0.31,1.38,0.26,1.81c0.23,0.17,0.5,0.26,0.79,0.26
			c4.8,0.02,9.6-0.04,14.4,0.03c0.71-0.01,1.29,0.57,1.3,1.28c0,0.3-0.1,0.6-0.3,0.83c-0.33,0.39-0.66,0.78-0.99,1.17
			c-7.82,9.54-15.82,18.96-23.63,28.53c-2.02,2.39-4.37,5.27-7.89,5.08c-3.05,0.4-5.63-1.51-7.43-3.7
			c-8.3-9.72-16.63-19.41-25.01-29.06c-0.58-0.65-1.16-1.31-1.72-1.98c-0.46-0.55-0.38-1.37,0.17-1.83c0.23-0.19,0.53-0.3,0.84-0.3
			c12.23-0.09,24.44-0.09,36.65,0.02c0.41,0,0.81-0.19,1.06-0.51c6.28-8.05,12.4-16.22,18.6-24.33c0.32-0.42,0.35-1,0.07-1.44
			c-0.99-1.4-1.69-2.97-2.06-4.64c-0.24-1.24-0.39-2.5-0.52-3.76c-0.08-0.66-0.64-1.16-1.31-1.15c-26.15,0-52.3-0.01-78.45-0.02
			c-3.19-0.14-6.8,1.1-8.06,4.21c-1.55,2.7-0.68,6,1.26,8.26c14.8,18.24,29.58,36.5,44.35,54.79c6.95,8.4,11.1,18.75,11.87,29.63
			c0.15,8.73,0.07,17.48,0.09,26.22c-0.04,7.72,0.08,15.45,0.02,23.17c-0.01,2.81-1.26,5.47-3.43,7.26
			c2.35,3.12,4.91,6.07,7.66,8.84c1.28,1.19,2.47,2.47,3.55,3.84c0.15-0.05,0.31-0.08,0.46-0.08c5.96-0.16,11.9-0.75,17.87-0.95
			h0.01c0.85-0.03-0.34-0.46,0.51-0.47c1.12-0.01,0.1,1.59-0.14,2.41c0.55,0.11,4.62,0.01,5.2,0.01c4.75,0.1,8.69-3.66,8.79-8.42
			c0.1-4.54-3.34-8.37-7.86-8.76h-0.03c-0.53,0-1.06,0-1.59-0.02c-0.85-0.03-1.72-0.06-2.57-0.14c-5.24-1.01-9.38-5.49-9.27-10.76
			c-0.03-15.3-0.01-24.36,0.01-39.65c-0.13-6.2,1.68-12.15,3.07-18.12c-0.04,0.05-0.09,0.1-0.13,0.14c0.09-0.1,0.16-0.2,0.22-0.32
			C-797.81-2508.33-794.09-2514.1-789.63-2519.27z M-827-2560.6c2.03-2.65,6.53,0.13,4.88,3.1
			C-823.37-2553.27-830.4-2557.61-827-2560.6L-827-2560.6z M-846.81-2565.13c3.06-2.58,7.94,1.66,6.29,5.05
			c-1.04,3.08-5.9,3.65-7.58,0.85c-1.28-1.94-0.75-4.56,1.2-5.84C-846.87-2565.1-846.84-2565.12-846.81-2565.13L-846.81-2565.13z"/>
		<path id="Trazado_138" class="st33" d="M-787.43-2418.56c-0.57,0-1.14,0-1.72-0.02c0.24-0.02,0.49-0.03,0.75-0.03
			C-788.08-2418.61-787.75-2418.59-787.43-2418.56z"/>
	</g>
	<g id="Grupo_20" transform="translate(1015.927 2626.543)">
		<path id="Trazado_139" class="st1" d="M-699.89-2580.67c-3.42-2.05-7.48-2.19-11.34-1.97c-1.93,0.28-3.81,0.8-5.61,1.56
			c-0.61,0.23-0.97,0.85-0.87,1.49c-3.12,2.57-5.73,5.89-6.55,9.93c-1.18,5.08,0.01,10.42,3.24,14.52c-2.44,3.33-4.87,6.68-7.45,9.9
			l-17.27,23.42c-0.99,1.32-1.97,2.63-3.05,3.87l-0.29,0.17c2.88,0.45,4.89,2.55,6.43,4.86l0.21,0.42c1.52-2.08,3.08-4.15,4.62-6.21
			c4.69-6.33,9.38-12.67,14.13-18.96c3.12-4.01,6.02-8.19,9.15-12.19c3.34,0.33,6.7,1.45,10.08,0.6
			c7.83-1.34,13.04-9.02,13.65-16.58C-691.45-2571.77-694.52-2577.73-699.89-2580.67z M-709.8-2576.09
			c-0.17,0.14-0.34,0.28-0.53,0.39c-1.18,0.72-2.7,0.43-3.54-0.67L-709.8-2576.09z M-700.09-2562.47
			c-2.59,6.57-13.86,6.55-15.91-0.4c-1.59-4.33,0.64-9.13,4.97-10.71c0.45-0.16,0.91-0.29,1.38-0.38
			C-703.54-2575.33-696.83-2568.39-700.09-2562.47z"/>
		<g id="Grupo_15" transform="translate(119.034)">
			<path id="Trazado_140" class="st109" d="M-843.53-2583.23c3.86-0.23,7.93-0.09,11.34,1.97c5.37,2.93,8.44,8.9,9.08,14.83
				c-0.61,7.57-5.82,15.25-13.65,16.58c-3.38,0.85-6.74-0.27-10.08-0.6c-3.13,4-6.03,8.18-9.15,12.19
				c-4.75,6.29-9.44,12.63-14.13,18.96c-1.55,2.06-3.1,4.13-4.62,6.21l-0.21-0.42c-1.54-2.31-3.55-4.41-6.43-4.86l0.29-0.17
				c1.07-1.24,2.06-2.55,3.05-3.87c1.04,1.24,2.26,2.71,4.1,2.2c3.66-3.4,5.97-7.95,9.08-11.83c2.23-3.27,5.09-6.17,6.66-9.84
				c-0.29-1.6-1.71-2.66-2.57-3.95c2.58-3.22,5.01-6.57,7.45-9.9c-3.23-4.09-4.42-9.44-3.24-14.52c0.94-4.64,4.25-8.33,7.98-11.04
				c1.5,2.32,2.22,6.66,5.94,5C-839.6-2578.19-841.8-2581.31-843.53-2583.23z M-841.94-2574.55c-4.54,0.82-7.55,5.17-6.73,9.71
				c0.09,0.47,0.21,0.93,0.37,1.38c2.05,6.95,13.32,6.97,15.91,0.4C-829.13-2568.98-835.84-2575.93-841.94-2574.55L-841.94-2574.55z
				"/>
		</g>
		<path id="Trazado_141" class="st109" d="M-788.53-2482.95c2.12,1.86,4.62,3.24,7.33,4.04c-5.6,7.39-11.08,14.86-16.63,22.27
			c-2.47,3.16-4.64,6.56-7.29,9.58c-2.33,2.78-7.53,1.08-7.72-2.62c1.26-2.45,2.77-4.75,4.53-6.86
			C-801.63-2465.28-795.12-2474.15-788.53-2482.95z"/>
		<path id="Trazado_142" class="st1" d="M-743.24-2493.74c1.14-2.98,2.07-6.04,2.78-9.15c0.67-3.47-0.46-6.92-1.41-10.22
			c4.44-5.61,8.14-11.83,13.19-16.93c-2-2.18-4.12-4.27-6.18-6.41c-4.44,5.98-8.79,12.04-13.32,17.96c-0.98-0.27-1.94-0.55-2.9-0.82
			c-1.55,2.06-3.1,4.13-4.62,6.21c3.01,6.24,1.4,13.42-1.59,19.34c3.3,0.26,7.04-0.4,9.95,1.59c3.74,2.53,4.01,8.37,1.01,11.59
			c-14.07,17.67-28.04,35.4-42.1,53.07c-4.57,5.41-8.36,11.44-11.26,17.9c-1.41,6.17-3.24,12.33-3.1,18.73
			c-0.02,12.91-0.04,19.22-0.03,29.7c4.6-0.16,9.76-1.58,14.52-1.3c-0.1-0.99-0.26-1.98-0.47-2.95c-0.07-0.28-0.07-0.57,0-0.85
			h-0.06c-0.15-3.14-0.27-6.29-0.24-9.45c0.17-10.34-0.82-20.97,2.61-30.94c3.48-12.19,12.62-21.34,20.08-31.18
			c11.27-14.04,22.33-28.25,33.62-42.28c2.36-2.7,3.43-6.74,1.27-9.89C-733.69-2494.35-739.22-2493.45-743.24-2493.74z"/>
		<path id="Trazado_143" class="st110" d="M-729.54-2581.29c1.67-0.66,3.35-1.3,5.04-1.94c1.73,1.92,3.93,5.04,0.9,6.94
			C-727.31-2574.63-728.04-2578.98-729.54-2581.29z"/>
		<path id="Trazado_144" class="st111" d="M-743.14-2543.95c0.35-0.48,1.05-1.42,1.41-1.89c0.86,1.29,2.29,2.35,2.57,3.95
			c-1.58,3.67-4.43,6.58-6.66,9.84c-3.1,3.88-5.42,8.43-9.08,11.83c-1.84,0.5-3.06-0.97-4.1-2.2c3.08-4.14,6.16-8.27,9.19-12.45
			C-747.6-2537.9-745.38-2540.93-743.14-2543.95z"/>
		<path id="Trazado_145" class="st1" d="M-751.08-2519.3c4.69-6.33,6.79-9.22,11.54-15.51c2.1,0,2.1,0,3.47,0.01
			c-4.44,5.98-7.58,10.4-12.1,16.32C-749.16-2518.76-750.13-2519.04-751.08-2519.3z"/>
		<g id="Grupo_16" transform="translate(89.643 64.199)">
			<path id="Trazado_146" class="st101" d="M-864.46-2581.47c3.98-1.9,8.49-2.35,12.77-1.27l-0.29,0.17
				c-2.04,0.65-4.5,1.02-5.58,3.14c-2.34,3.14-0.47,8.01,3.1,9.26c2.17,1.03,4.43-0.18,6.53-0.83l1.23-0.13
				c-1.05,5.06-4.07,9.31-7.07,13.4l-0.52-0.02c-6.62-0.14-13.25,0.3-19.86-0.23c1.44-4.15,4.02-7.68,6.5-11.23
				c0.88-1.64-1.39-3.35-2.77-2.2c-3.66,2.63-5.44,7.03-7.23,11.01c-0.37,0.9-0.74,1.8-1.1,2.7c-0.66-0.03-1.96-0.08-2.62-0.1
				C-880.05-2567.82-873.74-2577.21-864.46-2581.47z M-864.88-2578.17c-1.14,0.47-2.85,1.15-2.84,2.59
				c-0.55,2.64,3.79,3.75,4.99,1.53C-861.64-2575.77-863.2-2577.7-864.88-2578.17L-864.88-2578.17z"/>
		</g>
		<path id="Trazado_147" class="st102" d="M-767.93-2515.23c1.08-2.12,3.54-2.5,5.58-3.14c2.88,0.45,4.89,2.55,6.43,4.86
			c-0.34,2.37-1.15,4.65-2.37,6.71c-2.1,0.65-4.36,1.86-6.53,0.83C-768.4-2507.22-770.27-2512.09-767.93-2515.23z"/>
		<path id="Trazado_148" class="st112" d="M-775.24-2513.97c1.68,0.47,3.24,2.4,2.16,4.12c-1.21,2.22-5.54,1.11-4.99-1.53
			C-778.08-2512.82-776.37-2513.5-775.24-2513.97z"/>
		<path id="Trazado_149" class="st103" d="M-755.92-2513.51l0.21,0.42c3.01,6.24,1.4,13.42-1.59,19.34
			c-0.1,0.18-0.31,0.55-0.42,0.74c-2.15-0.22-4.27-0.43-6.42-0.51c3-4.09,6.02-8.34,7.07-13.4l-1.23,0.13
			C-757.06-2508.86-756.26-2511.14-755.92-2513.51z"/>
		<path id="Trazado_150" class="st113" d="M-780.78-2507.21c1.39-1.15,3.66,0.56,2.77,2.2c-2.49,3.55-5.06,7.08-6.5,11.23
			c-0.93,0.94-2.51,1.68-3.53,0.43c0.01-0.71,0.02-2.14,0.03-2.85C-786.22-2500.18-784.43-2504.58-780.78-2507.21z"/>
		<path id="Trazado_151" class="st114" d="M-789.12-2493.49c0.36-0.9,0.73-1.8,1.1-2.71c-0.01,0.71-0.02,2.14-0.03,2.85
			c1.03,1.25,2.6,0.51,3.53-0.43c6.61,0.53,13.24,0.08,19.86,0.23c-4.53,4.72-10.81,8.31-17.52,7.98c-3.45-0.11-6.22-2.34-8.97-4.13
			l0.06,1.18c-0.31-1.68-0.47-3.39-0.65-5.08C-791.08-2493.58-789.77-2493.52-789.12-2493.49z"/>
		<g id="Grupo_18" transform="translate(0 89.6)">
			<g id="Grupo_17">
				<path id="Trazado_152" class="st115" d="M-757.71-2582.62L-757.71-2582.62c0.25-0.45,0.73-0.72,1.24-0.69
					c3.09,0.12,6.45-0.28,9.12,1.55c3.74,2.53,4.01,8.37,1.01,11.59c-14.07,17.67-28.04,35.4-42.1,53.07
					c-4.53,5.36-8.29,11.32-11.18,17.72c-0.05,0.12-0.13,0.23-0.22,0.33c-3.7,4.06-4.74,9.66-6.05,14.81
					c-2.45,9.93-1.58,20.21-1.73,30.33c0.07,8.23-0.13,16.47,0.05,24.71c-0.09,3.1,2.04,6.33,5.2,6.9c2.95,0.46,5.96,0.4,8.94,0.68
					c2.29,0.2,4.57,0.19,6.86,0.17c0.74-0.01,1.34,0.58,1.35,1.32c0,0.39-0.16,0.76-0.46,1.02c-1.31,1.15-2.81,2.07-4.43,2.71
					c-10.24,4.04-21.36,4.62-32.19,5.69c-0.03,0-0.06,0.01-0.1,0.01c-6.88,0.18-13.77,0.29-20.66,0.14c-0.34,0-0.66-0.14-0.91-0.37
					c-1.26-1.28-2.29-2.77-3.06-4.39c-0.18-0.36-0.18-0.78-0.01-1.15c0.91-1.95,1.91-4.15,4.19-4.7c3.09-0.56,6.25-0.17,9.37-0.24
					c5.68-0.07,11.35-4.67,11.24-10.59c0.08-7.98-0.06-15.98-0.02-23.96c-0.03-9.04,0.07-18.07-0.1-27.1
					c-0.76-11.2-4.96-21.9-12.02-30.63c-14.99-18.87-29.96-37.75-44.92-56.65c-1.97-2.33-2.85-5.74-1.28-8.53
					c1.28-3.23,4.93-4.5,8.16-4.36c26.48,0.03,52.97,0.03,79.47,0.02c0.69,0,1.26,0.52,1.33,1.2c0.13,1.3,0.29,2.6,0.52,3.88
					c0.38,1.72,1.09,3.35,2.09,4.8c0.28,0.47,0.26,1.06-0.07,1.49c-6.28,8.38-12.48,16.83-18.83,25.15
					c-0.26,0.33-0.65,0.53-1.07,0.52c-12.37-0.1-24.75-0.1-37.13-0.01c-0.74,0.01-1.34,0.61-1.33,1.35c0,0.31,0.11,0.6,0.31,0.84
					c0.57,0.69,1.15,1.38,1.74,2.05c8.47,10,16.91,20.01,25.34,30.04c1.83,2.27,4.44,4.24,7.54,3.83c3.56,0.21,5.94-2.78,7.98-5.25
					c7.91-9.89,16.02-19.62,23.94-29.5l0.99-1.21c0.47-0.57,0.39-1.41-0.18-1.88c-0.23-0.19-0.53-0.3-0.83-0.31
					c-4.86-0.06-9.73,0-14.59-0.03c-0.74,0-1.33-0.61-1.33-1.34c0-0.29,0.1-0.56,0.27-0.79c4.87-6.53,9.7-13.09,14.62-19.59
					c0.27-0.35,0.7-0.55,1.14-0.53C-770.9-2568.08-762.42-2574.68-757.71-2582.62z M-846.36-2564.52c-2.04,1.32-2.63,4.05-1.31,6.09
					c0,0,0,0,0,0c1.71,2.9,6.64,2.31,7.69-0.87C-838.31-2562.81-843.26-2567.19-846.36-2564.52z M-826.29-2559.83
					c-3.45,3.09,3.67,7.58,4.95,3.21C-819.67-2559.69-824.23-2562.57-826.29-2559.83z"/>
			</g>
		</g>
		<path id="Trazado_153" class="st116" d="M-764.65-2493.55l0.52,0.02c2.15,0.09,4.27,0.29,6.42,0.51
			c-4.82,8.14-13.61,14.87-23.49,14.11c-2.71-0.8-5.21-2.18-7.33-4.04c-1.21-1.67-2.08-3.56-2.56-5.56l-0.06-1.18
			c2.75,1.78,5.52,4.02,8.97,4.13C-775.46-2485.24-769.18-2488.83-764.65-2493.55z"/>
		<path id="Trazado_154" class="st117" d="M-846.36-2474.92c3.09-2.67,8.05,1.71,6.38,5.22c-1.05,3.18-5.98,3.77-7.69,0.87
			C-848.99-2470.87-848.4-2473.6-846.36-2474.92C-846.36-2474.92-846.36-2474.92-846.36-2474.92z"/>
		<path id="Trazado_155" class="st118" d="M-826.29-2470.23c2.06-2.73,6.62,0.14,4.95,3.21
			C-822.62-2462.65-829.74-2467.14-826.29-2470.23z"/>
		<g id="Grupo_19" transform="translate(32.494 126.672)">
			<path id="Trazado_156" class="st89" d="M-881.38-2583.21c13.53-0.13,27.05-0.14,40.57-0.01c-1.75,2.12-3.27,4.42-4.53,6.86
				c0.19,3.7,5.39,5.4,7.72,2.62c2.65-3.02,4.82-6.42,7.29-9.58c6.66,0.08,13.33-0.06,19.99,0.1c-0.92,1.12-1.83,2.22-2.75,3.34
				c-1.88,0.95-3.55,2.27-4.91,3.87c-6.37,6.93-13.4,13.21-19.94,19.96c-1.91,1.98-4.21,3.97-7.14,3.9
				c-2.93,0.28-5.43-1.52-7.39-3.47c-6.85-6.79-14.05-13.23-20.79-20.14c-1.3-1.39-2.88-2.5-4.64-3.24
				C-879.08-2580.37-880.24-2581.78-881.38-2583.21z M-861.85-2579.04c-2.52,1.54-2.51,5.73,0.13,7.12
				c2.89,2.22,7.47-1.05,6.61-4.49C-855.84-2579.13-859.48-2581.08-861.85-2579.04L-861.85-2579.04z M-852.15-2567.48
				c-2.62,2.54,1.62,6.96,4.15,4.24C-844.74-2565.67-849.51-2570.59-852.15-2567.48L-852.15-2567.48z"/>
		</g>
		<path id="Trazado_157" class="st119" d="M-785.5-2449.32c1.36-1.61,3.03-2.93,4.91-3.87c-7.93,9.87-16.03,19.6-23.94,29.5
			c-2.04,2.47-4.42,5.46-7.98,5.25c-3.1,0.42-5.7-1.56-7.54-3.83c-8.4-10.04-16.85-20.06-25.34-30.04c1.76,0.74,3.34,1.85,4.64,3.24
			c6.74,6.91,13.94,13.36,20.79,20.14c1.96,1.96,4.45,3.76,7.39,3.47c2.92,0.07,5.23-1.92,7.14-3.9
			C-798.89-2436.11-791.87-2442.39-785.5-2449.32z"/>
		<path id="Trazado_158" class="st120" d="M-829.36-2452.37c2.37-2.04,6.01-0.1,6.74,2.63c0.86,3.44-3.72,6.71-6.61,4.49
			C-831.86-2446.64-831.87-2450.83-829.36-2452.37z"/>
		<path id="Trazado_159" class="st121" d="M-819.65-2440.8c2.64-3.11,7.4,1.8,4.15,4.24
			C-818.03-2433.85-822.27-2438.26-819.65-2440.8z"/>
		<path id="Trazado_160" class="st122" d="M-805.89-2394.64c1.33-5.22,2.37-10.89,6.19-14.96c-1.41,6.17-3.24,12.33-3.1,18.73
			c-0.02,15.82-0.04,25.18-0.01,40.99c-0.1,5.46,4.08,16.81,9.39,17.86c-2.98-0.28-5.99-0.22-8.94-0.68c-3.16-0.57-5.29-3.8-5.2-6.9
			c-0.18-8.24,0.02-16.48-0.05-24.71C-807.47-2374.43-808.34-2384.71-805.89-2394.64z"/>
		<path id="Trazado_161" class="st122" d="M-783.25-2331.84c2.78,0.29,5.44,2.5,5.23,5.51c0.29,2.53-1.98,4.04-3.65,5.51
			c-13.57-0.27-27.13,0.2-40.69-0.27c10.85-1.07,21.99-1.65,32.24-5.7C-787.47-2327.93-785.12-2329.66-783.25-2331.84z"/>
		<circle id="Elipse_2" class="st115" cx="-842.47" cy="-2326.25" r="5.31"/>
		<path id="Trazado_162" class="st34" d="M-783.25-2331.84c-0.92,1.03-1.93,1.97-3.01,2.82c-1.01,0.62-1.19-2.82-1.19-2.82H-783.25z
			"/>
		<path id="Trazado_163" class="st34" d="M-808.98-2456.55l0.67,0.01l0.49-0.64L-808.98-2456.55z"/>
		<path id="Trazado_164" class="st115" d="M-796-2459.09l-1.83,2.45h2.96L-796-2459.09z"/>
		<path id="Rectángulo_31" class="st1" d="M-816.26-2366.35L-816.26-2366.35c1.54,0,2.79,1.25,2.79,2.8v23.12
			c0,1.54-1.25,2.79-2.79,2.79l0,0c-1.54,0-2.8-1.25-2.8-2.79v-23.12C-819.05-2365.1-817.8-2366.35-816.26-2366.35z"/>
		<path id="Rectángulo_32" class="st1" d="M-859.58-2489.57h51.55c1.56,0,2.83,1.27,2.83,2.83l0,0c0,1.56-1.27,2.83-2.83,2.83
			h-51.55c-1.56,0-2.83-1.27-2.83-2.83l0,0C-862.41-2488.31-861.14-2489.57-859.58-2489.57z"/>
	</g>
</g>
</svg>
