<svg xmlns="http://www.w3.org/2000/svg" xmlns:xlink="http://www.w3.org/1999/xlink" width="156" height="133" viewBox="0 0 156 133">
  <defs>
    <filter id="Rectangle_21" x="0" y="0" width="156" height="133" filterUnits="userSpaceOnUse">
      <feOffset dx="2" dy="2" input="SourceAlpha"/>
      <feGaussianBlur stdDeviation="3" result="blur"/>
      <feFlood flood-opacity="0.161"/>
      <feComposite operator="in" in2="blur"/>
      <feComposite in="SourceGraphic"/>
    </filter>
  </defs>
  <g transform="matrix(1, 0, 0, 1, 0, 0)" filter="url(#Rectangle_21)">
    <rect id="Rectangle_21-2" data-name="Rectangle 21" width="138" height="115" rx="15" transform="translate(7 7)" fill="#fba982"/>
  </g>
  <path id="Path_84" data-name="Path 84" d="M-460.277,2061.152c9.667,0,17.5-8.912,17.5-19.906,0-7.68-5.386-19.906-5.386-19.906h-24.235a42.74,42.74,0,0,0-5.386,19.906C-477.78,2052.24-469.944,2061.152-460.277,2061.152Zm0,0v23.887m0,0h-14m14,0h14" transform="translate(-298.189 -2023.307) rotate(-22)" fill="none" stroke="#fff" stroke-linecap="round" stroke-width="5" opacity="0.14"/>
  <text id="Listado_de_tragos." data-name="Listado de tragos." transform="translate(21 90)" fill="#fff" font-size="11" font-family="Roboto-Medium, Roboto" font-weight="500" letter-spacing="0.02em" opacity="0.69"><tspan x="0" y="12">Listado de tragos.</tspan></text>
  <path id="Path_85" data-name="Path 85" d="M-316.5,2087.5l6,6-6,6h0" transform="translate(434.5 -2055.5)" fill="none" stroke="#fff" stroke-linecap="round" stroke-width="3" opacity="0.9"/>
  <text id="Tragos" transform="translate(23 24)" fill="#fff" font-size="20" font-family="Roboto-Medium, Roboto" font-weight="500" letter-spacing="0.02em"><tspan x="0" y="21">Tragos</tspan></text>
</svg>