<svg xmlns="http://www.w3.org/2000/svg" xmlns:xlink="http://www.w3.org/1999/xlink" width="88" height="88" viewBox="0 0 88 88">
  <defs>
    <filter id="Ellipse_20" x="0" y="0" width="88" height="88" filterUnits="userSpaceOnUse">
      <feOffset dy="3" input="SourceAlpha"/>
      <feGaussianBlur stdDeviation="3" result="blur"/>
      <feFlood flood-opacity="0.161"/>
      <feComposite operator="in" in2="blur"/>
      <feComposite in="SourceGraphic"/>
    </filter>
  </defs>
  <g id="Component_12_2" data-name="Component 12 – 2" transform="translate(9 6)">
    <g transform="matrix(1, 0, 0, 1, -9, -6)" filter="url(#Ellipse_20)">
      <circle id="Ellipse_20-2" data-name="Ellipse 20" cx="35" cy="35" r="35" transform="translate(9 6)" fill="#fba982"/>
    </g>
    <g id="Group_91" data-name="Group 91" transform="translate(-128.609 -494.261)">
      <path id="Path_220" data-name="Path 220" d="M-330.454,1697.728h-19.594a4.9,4.9,0,0,0-4.87,4.928,4.9,4.9,0,0,0,1.6,3.6v15.969a4.9,4.9,0,0,0,4.9,4.9h16.328a4.9,4.9,0,0,0,4.9-4.9v-15.969a4.9,4.9,0,0,0,.33-6.919A4.9,4.9,0,0,0-330.454,1697.728Zm-4.9,16.54a1.421,1.421,0,0,1-1.421,1.421h-6.956a1.421,1.421,0,0,1-1.42-1.421v-.424a1.42,1.42,0,0,1,1.42-1.421h6.956a1.42,1.42,0,0,1,1.421,1.421Zm4.9-10.009h-19.594a1.633,1.633,0,0,1-1.633-1.633,1.633,1.633,0,0,1,1.633-1.633h19.594a1.633,1.633,0,0,1,1.633,1.633A1.633,1.633,0,0,1-330.454,1704.259Z" transform="translate(504.193 -1183.023)" fill="#fff"/>
    </g>
  </g>
</svg>