<?xml version="1.0" encoding="utf-8"?>
<!-- Generator: Adobe Illustrator 23.0.0, SVG Export Plug-In . SVG Version: 6.00 Build 0)  -->
<svg version="1.1" id="Layer_1" xmlns="http://www.w3.org/2000/svg" xmlns:xlink="http://www.w3.org/1999/xlink" x="0px" y="0px"
	 viewBox="0 0 360 321.43" style="enable-background:new 0 0 360 321.43;" xml:space="preserve">
<style type="text/css">
	.st0{fill:#FFFFFF;}
	.st1{fill:#6149C4;}
	.st2{fill:#FF925E;}
	.st3{fill:none;stroke:#5F2367;stroke-width:0.9772;stroke-miterlimit:10;}
	.st4{fill:#FFBD51;}
	.st5{fill:#F78D3B;}
	.st6{fill:#D0262E;}
	.st7{fill:#A80D1E;}
	.st8{fill:#FA5C37;}
	.st9{fill:#FF8A77;}
	.st10{fill:#FFACAC;}
	.st11{fill:#F78D3A;}
	.st12{fill:#CAE0FF;}
	.st13{fill:#FC8D7C;}
	.st14{fill:#FFE3FF;}
	.st15{fill:#FF4167;}
	.st16{fill:#EE092F;}
	.st17{fill:#316991;}
	.st18{fill:#2D1851;}
	.st19{fill:#FFBE51;}
	.st20{fill:#FA9035;}
	.st21{fill:#7ECCF2;}
	.st22{fill:#752029;}
	.st23{fill:#470F1F;}
	.st24{fill:#A03A3A;}
	.st25{fill:#7ECBF2;}
	.st26{fill:#203F65;}
	.st27{fill:#326991;}
	.st28{fill:#F95353;}
	.st29{fill:none;}
	.st30{fill:#FF986E;}
	.st31{fill:#D16145;}
	.st32{fill:#B0452C;}
	.st33{fill:#3D2D96;}
	.st34{fill:#EEEEFF;}
	.st35{fill:#851C1A;}
	.st36{fill:#5C050B;}
	.st37{fill:#CE391F;}
	.st38{fill:#8479C9;}
	.st39{fill:#FFD77E;}
	.st40{fill:#FF5A42;}
	.st41{fill:#FFC3B6;}
	.st42{fill:#E2E2F2;}
	.st43{fill:#FFEEFF;}
	.st44{fill:#FDB642;}
	.st45{fill:#DB3F14;}
	.st46{fill:#FF0344;}
	.st47{fill:#D6033B;}
	.st48{fill:#DA3D13;}
	.st49{fill:#FD7829;}
	.st50{fill:#DB3C13;}
	.st51{fill:#9E3A27;}
	.st52{fill:#FA8B71;}
	.st53{fill:#841B19;}
	.st54{fill:#DA3E13;}
	.st55{fill:#851B1A;}
	.st56{fill:#9D3927;}
	.st57{fill:#FF8644;}
	.st58{fill:#9E3926;}
	.st59{fill:#2A227C;}
	.st60{fill:#56A2C0;}
	.st61{fill:#FFE6FC;}
	.st62{fill:#82110F;}
	.st63{fill:#356C84;}
	.st64{fill:#801003;}
	.st65{fill:#D32921;}
	.st66{fill:#24596B;}
	.st67{fill:#ED6658;}
	.st68{fill:#9C1C13;}
	.st69{fill:#BF3B2C;}
	.st70{fill:#E1D1E8;}
	.st71{fill:#D43B0C;}
	.st72{fill:#D43C0C;}
	.st73{fill:#FF692B;}
	.st74{fill:#E35F4C;}
	.st75{fill:#FF7A73;}
	.st76{fill:#FF8960;}
	.st77{fill:#FFC9CD;}
	.st78{fill:#9B1C13;}
	.st79{fill:#2A546A;}
	.st80{fill:#FEC9CD;}
	.st81{fill:#C9ADC2;}
	.st82{fill:#CCAFD3;}
	.st83{fill:#EDCDEC;}
	.st84{fill:#795D7E;}
	.st85{fill:#E9D1E6;}
	.st86{fill:#FA3F3A;}
	.st87{fill:url(#);}
	.st88{fill:#FBA982;}
	.st89{fill:#FFD084;}
	.st90{fill:none;stroke:#FFFFFF;stroke-width:1.5;stroke-linecap:round;stroke-linejoin:round;}
	.st91{fill:none;stroke:#FFFFFF;stroke-width:3;stroke-linecap:round;stroke-linejoin:round;}
	.st92{fill:none;stroke:#A2A2A3;stroke-width:3;stroke-linecap:round;}
	.st93{fill:none;stroke:#A2A2A3;stroke-width:5;stroke-linecap:round;stroke-linejoin:round;}
	.st94{fill:none;stroke:#A2A2A3;stroke-width:4.5;stroke-linecap:round;stroke-linejoin:round;}
	.st95{fill:#A2A2A3;}
	.st96{fill:#907CE5;}
	.st97{fill:none;stroke:#000000;stroke-miterlimit:10;}
	.st98{fill:none;stroke:#FFFFFF;stroke-width:3;stroke-linecap:round;}
	.st99{font-family:'Roboto-Medium';}
	.st100{font-size:25px;}
	.st101{fill:#230428;}
	.st102{fill:#748A91;}
	.st103{fill:#F0C918;}
	.st104{fill:#3A2B23;}
	.st105{fill:#CC9B04;}
	.st106{fill:#4F666C;}
	.st107{fill:#50676D;}
	.st108{fill:#CB9B04;}
	.st109{fill:#BE6D46;}
	.st110{fill:#FFBE9E;}
	.st111{fill:#9B8698;}
	.st112{fill:#BAAAB9;}
	.st113{fill:#B9A9B8;}
	.st114{fill:#FFE886;}
	.st115{fill:#FFE884;}
	.st116{fill:#FFD445;}
	.st117{fill:#DFDBF3;}
	.st118{fill:#E6B125;}
	.st119{fill:#FFBC53;}
	.st120{fill:#FFBB52;}
	.st121{fill:#F19536;}
	.st122{fill:#FEE8F4;}
	.st123{fill:#FFE8F4;}
	.st124{fill:#B6B6CC;}
</style>
<g>
	<text transform="matrix(1 0 0 1 148.2009 58)" class="st0 st99 st100">Menú</text>
	<rect id="Rectángulo_26" x="0" class="st96" width="360" height="248.59"/>
	<rect id="Rectángulo_27" x="248.13" y="87.05" class="st1" width="111.87" height="10.66"/>
	<rect id="Rectángulo_28" x="0" y="240.59" class="st1" width="360" height="80.84"/>
	<path id="Trazado_88" class="st1" d="M153.23,59.25c5.72-1.27,11.54-1.99,17.39-2.15c-1.24,0.73-0.2,1.15,0.09,2.98
		c-0.14,8.91,0.11,17.82-0.09,26.73c5.17,0.1,10.47,0.78,15.56-0.24c0.29-9.64,0.2-19.31-0.03-28.96c1.04-0.18,2.08-0.36,3.14-0.5
		c7.23,0.21,14.41,1.21,21.42,3c-2.01,2.39,0.04,6,0.04,8.9c0.13,5.98-0.03,11.96,0.1,17.94c15.43,0.13,30.86-0.03,46.29,0.09
		c3.02,0.03,12.11,0,15.23,0c-0.79,0.96-0.98,1.24-2.19,2.86c-1.91,2.58-3.81,5.17-5.7,7.76c-41.91,0.06-83.82-0.02-125.73,0.04
		c-2.02-0.06-4.35-0.14-5.78-1.78c-2.54-2.82-1.14-8.14,2.83-8.7c5.81-0.59,11.67,0.06,17.5-0.32
		C153.31,77.69,153.36,68.47,153.23,59.25z"/>
	<path id="Trazado_89" class="st1" d="M67.73,116.29l0.46,0.05c2.89,0.48,5.82,0.64,8.75,0.47c1.38-0.06,3.2,0.44,3.45,2.02
		c0.33,3.14,0.09,6.32,0.15,9.48c0.23,2.3-1.68,4.11-1.5,6.4c0.08,4.31-0.08,8.63,0.05,12.93c0.01,2.13,1.58,3.93,3.69,4.24
		c2.64,0.46,5.53,0.92,7.41,3.03c2.41,2.23,2.54,5.71,2.47,8.76c-0.16,4.53,0.55,9.35-1.62,13.53c-5.31,10.45-6.27,22.58-2.68,33.73
		c1.19,3.88,3.84,7.27,4.16,11.41c0.3,3.85,0.01,7.71,0.12,11.57c0.1,2.57-0.11,5.14-0.61,7.67c3.63,0.05,7.25,0.03,10.88,0.03
		c-0.5,1.57-0.88,3.16-1.28,4.75c-1.4-0.09-2.8,0.07-4.15,0.46c-0.55,6.25-1.04,13.34,3.12,18.57c2.77,3.64,6.79,6.13,11.28,6.98
		c-2.69,0.01-5.37,0.02-8.05,0.01c-5.04-0.01-10.09-0.01-15.14,0c-14.31-0.01-28.62-0.01-42.93,0c-7.26-9.27-12.93-19.68-16.77-30.8
		c6.48,0,12.25,0,18.21-0.05c11.81,0.11,23.62,0.03,35.43-0.03c1.1-5.7,0.34-11.53,0.55-17.28c0.24-4.95-2.96-9.01-4.37-13.53
		c-2.91-9.14-2.78-18.99,0.38-28.05c1.23-3.77,3.76-7.16,3.93-11.23c0.12-3.65,0.13-7.31,0.01-10.95c-0.17-3.8-2.82-7.03-6.51-7.93
		c-1.84-0.57-4.14-0.19-5.56-1.7c-1.78-1.67-1.41-4.29-1.46-6.49c0.16-3.94-0.26-7.91,0.3-11.83c1.68-3.1,0.97-6.69,1.1-10.05
		c-0.1-1.48,0.17-3.1-0.48-4.48C69.61,117.4,68.68,116.82,67.73,116.29z"/>
	<path id="Trazado_90" class="st1" d="M320.78,242.22c-0.36-18.02,0.16-36.05-0.23-54.06c0.05-3.45-3.38-4.95-6.04-6.11
		c-0.24-5.37,0.04-10.73-0.08-16.1c-0.12-1.21-0.01-2.56-0.68-3.64c-1.41-1.5-3.77-1.59-5.29-0.19c-0.91,1.29-0.74,2.99-0.84,4.5
		c0.01,5.13,0.08,10.27,0.04,15.4c-3.37,0.67-7.36,2.73-7.09,6.74c-0.1,17.83-0.04,35.66-0.01,53.5c-2.23,0.03-4.45,0.02-6.67-0.05
		c-0.04-10.44,0.11-20.88-0.05-31.3c0.12-3.2-2.62-5.15-5.03-6.65c-0.24-3.91,0.35-7.88-0.34-11.75c-0.56-1.45-2.19-2.16-3.63-1.6
		c-0.75,0.29-1.34,0.89-1.62,1.64c-0.69,3.87-0.07,7.83-0.35,11.74c-1.96,1.01-4.33,1.86-5.31,4.01c-0.53,1.76-0.75,3.61-0.64,5.45
		c0.11,9.49,0.03,18.98,0.09,28.46c-4.05,0.14-8.09,0.06-12.14,0.05c0.84,3.73,0.6,7.36,0.35,11.14c-0.31,4.73-0.39,9.49-0.64,14.22
		c-0.01,0.18-0.05,0.35-0.13,0.51c0.66,0,1.31,0,1.97,0c2.09,0.22,4.09,1.88,3.93,4.14c0.21,1.9-1.49,3.04-2.74,4.14
		c1.25,0,2.51-0.01,3.76-0.02c14.36,0.01,28.72-0.1,43.08,0.06c7.98-10.31,14.2-21.88,18.38-34.23
		C328.82,242.23,324.79,242.26,320.78,242.22z"/>
	<path id="Trazado_91" class="st101" d="M60.04,117.2c2.44-0.97,5.31,0.37,7.69-0.91c0.95,0.53,1.88,1.11,2.78,1.73
		c0.65,1.38,0.38,3,0.48,4.48c-0.14,3.36,0.57,6.95-1.1,10.05c-3.27,0.03-6.54,0.03-9.8-0.02c-1.64-2.53-0.86-5.7-1.47-8.51
		c0.11-0.18,0.32-0.55,0.43-0.73C59.2,121.27,58.33,118.76,60.04,117.2z"/>
	<g id="Grupo_13" transform="translate(928.222 2715.843)">
		<path id="Trazado_92" class="st102" d="M-868.14-2583.31c3.26,0.04,6.53,0.04,9.8,0.02c-0.56,3.92-0.14,7.89-0.3,11.83
			c0.05,2.2-0.32,4.82,1.46,6.49c1.42,1.51,3.72,1.13,5.56,1.7c3.69,0.9,6.35,4.13,6.51,7.93c0.12,3.65,0.1,7.31-0.01,10.95
			c-0.18,4.07-2.7,7.46-3.93,11.23c-3.16,9.06-3.29,18.91-0.38,28.05c1.41,4.52,4.61,8.57,4.37,13.53
			c-0.21,5.75,0.55,11.59-0.55,17.28c-11.81,0.06-23.62,0.14-35.43,0.03c-0.81-5.51-0.26-11.09-0.43-16.63
			c-0.42-5.71,3.74-10.19,5.02-15.5c2.85-10.79,1.93-22.75-3.38-32.66c-2.24-4-1.53-8.68-1.66-13.05c-0.01-2.67-0.2-5.66,1.66-7.84
			c1.74-2.64,4.91-3.53,7.88-3.86c2.26-0.2,3.97-2.12,3.91-4.38C-867.92-2573.23-867.85-2578.28-868.14-2583.31z M-867.89-2552.52
			c-1.84,0.35-1.66,3.85,0.43,3.65c2.82,0.18,5.66,0.18,8.48-0.01c1.94,0.16,2.29-3.25,0.44-3.64
			C-861.66-2552.78-864.78-2552.78-867.89-2552.52z M-873.65-2545.36c-2.26,0.37-1.76,4.05,0.49,3.92c6.2,0.1,12.4-0.01,18.59,0.04
			c1.54,0.26,3.55-1.39,2.58-2.97c-0.4-1.42-2.11-0.93-3.2-1.08C-861.35-2545.33-867.52-2545.59-873.65-2545.36L-873.65-2545.36z
			 M-868.55-2530.05c-1.2,0.52-1.35,1.92-1.31,3.07c0.06,12.02,0.01,24.05,0.04,36.07c-0.2,1.19,0.58,2.32,1.77,2.55
			c2.99,0.29,6.01,0.32,9.01,0.08c1.27,0.03,2.33-0.98,2.36-2.26c0-0.11,0-0.22-0.02-0.33c0.03-12.03-0.03-24.08,0.02-36.12
			c0.09-1.21-0.21-2.98-1.7-3.13C-861.78-2530.43-865.18-2530.41-868.55-2530.05L-868.55-2530.05z"/>
	</g>
	<path id="Trazado_93" class="st103" d="M129.9,231.04c1.69-4.68,5.38-8.98,10.47-9.9c-1.33,1.26-3.02,2.94-2.13,4.96
		c0.87,2.97,5.45,3.24,6.7,0.44c1-1.61-0.12-3.31-0.81-4.78c0.83,0.57,1.62,1.18,2.38,1.84c-0.04,3.54,0.8,8.25-2.81,10.39
		c-4.56,2.59-10.05,1.26-15.03,1.64C129.05,234.08,129.41,232.54,129.9,231.04z"/>
	<path id="Trazado_94" class="st103" d="M149.49,228.77c3.43-3.82,8.38-6.9,13.72-6.11c-1.45,0.58-3.28,1.15-3.6,2.91
		c-1.01,2.94,2.63,5.84,5.27,4.14c2.39-1.17,2.05-4.18,0.81-6.08c1.05,0.83,1.97,1.81,2.75,2.9c-0.36,1.75-0.86,3.47-1.49,5.14
		c-0.86,1.92-2.81,2.97-4.55,3.97c-1.84-0.01-3.69,0.07-5.52,0.16c-2.29-0.19-4.59-0.23-6.88-0.27
		C150.04,233.26,149.88,230.99,149.49,228.77z"/>
	<path id="Trazado_95" class="st104" d="M140.37,221.13c1.26,0.14,2.52,0.35,3.76,0.61c0.69,1.47,1.81,3.17,0.81,4.78
		c-1.25,2.8-5.83,2.52-6.7-0.44C137.35,224.08,139.03,222.39,140.37,221.13z"/>
	<path id="Trazado_96" class="st104" d="M159.61,225.57c0.32-1.76,2.15-2.33,3.6-2.91c0.83,0.3,1.66,0.63,2.48,0.98
		c1.24,1.9,1.58,4.91-0.81,6.08C162.24,231.4,158.6,228.51,159.61,225.57z"/>
	<path id="Trazado_97" class="st105" d="M168.43,226.53c0.62,1.43,1.02,2.95,1.19,4.5c-0.11,1.54-0.36,3.07-0.61,4.6l-0.33,0.01
		c-2.1,0.06-4.19,0.01-6.29-0.02c1.74-0.99,3.69-2.05,4.55-3.97C167.57,229.99,168.07,228.28,168.43,226.53z"/>
	<path id="Trazado_98" class="st106" d="M60.33,163.32c3.11-0.26,6.24-0.26,9.35,0.01c1.85,0.39,1.5,3.8-0.44,3.64
		c-2.82,0.19-5.65,0.19-8.48,0.01C58.67,167.17,58.48,163.67,60.33,163.32z"/>
	<path id="Trazado_99" class="st106" d="M54.57,170.48c6.14-0.23,12.31,0.03,18.46-0.09c1.09,0.16,2.8-0.34,3.2,1.08
		c0.97,1.58-1.04,3.23-2.58,2.97c-6.2-0.06-12.4,0.05-18.59-0.04C52.81,174.53,52.31,170.85,54.57,170.48z"/>
	<path id="Trazado_100" class="st107" d="M59.67,185.79c3.37-0.36,6.78-0.38,10.15-0.07c1.49,0.15,1.79,1.92,1.7,3.13
		c-0.05,12.04,0.01,24.08-0.02,36.12c0.16,1.27-0.74,2.42-2.01,2.57c-0.11,0.01-0.22,0.02-0.33,0.02c-3,0.24-6.01,0.21-9.01-0.08
		c-1.18-0.23-1.97-1.36-1.77-2.55c-0.03-12.02,0.02-24.05-0.04-36.07C58.31,187.71,58.47,186.31,59.67,185.79z"/>
	<path id="Trazado_101" class="st108" d="M146.51,223.59c1.33,1.51,2.34,3.27,2.98,5.18c0.39,2.23,0.55,4.49,0.5,6.76
		c2.3,0.04,4.59,0.08,6.88,0.27h-0.04c-6.61-0.25-13.23,0.02-19.84-0.09c-1.58-0.01-3.15-0.01-4.72-0.02
		c-1.06-0.01-2.11-0.04-3.17-0.06l-0.43-0.01c4.98-0.38,10.47,0.95,15.03-1.64C147.31,231.83,146.47,227.12,146.51,223.59z"/>
	<path id="Trazado_102" class="st88" d="M124.67,236.06c1.3-0.38,2.65-0.54,4-0.45l0.43,0.01c-0.21,1.19-1.16,2.61-0.26,3.73
		c0.78,1.03,2.25,1.23,3.28,0.45c0.42-0.32,0.72-0.77,0.85-1.27c-0.13-0.97-0.37-1.92-0.71-2.84c1.57,0.01,3.15,0.01,4.72,0.02
		c-0.3,1.4-1.19,3.42,0.5,4.29c3.76,0.66,7.63,0.13,11.43,0.28c2.71-0.12,5.53,0.4,8.17-0.37c1.7-1.02,0.7-2.97-0.25-4.11h0.04
		c1.84-0.09,3.68-0.16,5.52-0.16c2.09,0.03,4.19,0.07,6.29,0.02c-0.63,0.08-1.25,0.18-1.87,0.29c0.46,6.5-2.05,13.5-7.82,16.98
		c-5.76,3.76-12.9,2.26-19.36,2.59c-4.05,0.19-8.09-0.34-11.96-1.56C123.67,248.91,124.15,242.08,124.67,236.06z"/>
	<path id="Trazado_103" class="st109" d="M168.68,235.65l0.33-0.01c0.92,0.19,2.89-0.29,3.01,1.07c0.5,5.68,0.58,11.87-2.68,16.85
		c-2.04-0.11-4.09-0.06-6.12,0.16c-1.64,0.39-2.27,2.09-2.92,3.44c0.57,1.31,1.4,2.49,2.43,3.48c-4.16,0.13-8.33,0.02-12.49,0.06
		c-3.9-0.02-7.8,0.02-11.7-0.02c-4.33-0.82-8.2-3.22-10.86-6.73c3.86,1.22,7.91,1.75,11.96,1.56c6.46-0.33,13.59,1.17,19.36-2.59
		c5.77-3.49,8.28-10.49,7.82-16.98C167.43,235.83,168.05,235.73,168.68,235.65z"/>
	<path id="Trazado_104" class="st110" d="M129.1,235.62c1.06,0.02,2.11,0.05,3.17,0.06c0.34,0.92,0.58,1.87,0.71,2.84
		c-0.33,1.25-1.61,2-2.86,1.67c-0.51-0.13-0.95-0.43-1.27-0.85C127.95,238.23,128.89,236.81,129.1,235.62z"/>
	<path id="Trazado_105" class="st110" d="M136.99,235.7c6.61,0.1,13.23-0.16,19.84,0.09c0.95,1.15,1.95,3.1,0.25,4.11
		c-2.64,0.77-5.45,0.25-8.17,0.37c-3.8-0.16-7.67,0.38-11.43-0.28C135.81,239.12,136.69,237.1,136.99,235.7z"/>
	<path id="Rectángulo_29" class="st1" d="M158.98,18.59h5.97c3.13,0,5.67,2.54,5.67,5.67v56.96c0,3.13-2.54,5.67-5.67,5.67h-5.97
		c-3.13,0-5.67-2.54-5.67-5.67V24.26C153.31,21.13,155.85,18.59,158.98,18.59z"/>
	<path id="Rectángulo_30" class="st1" d="M193.55,5.89h9.8c4.07,0,7.36,3.3,7.36,7.36v65.96c0,4.07-3.3,7.36-7.36,7.36h-9.8
		c-4.07,0-7.36-3.3-7.36-7.36V13.25C186.18,9.18,189.48,5.89,193.55,5.89z"/>
	<path id="Trazado_106" class="st109" d="M169.34,253.56c0,0-3.02,5.67-6.61,7.08l-3.31-1.7v-4.52l6.59-2.48L169.34,253.56z"/>
	<path id="Trazado_108" class="st33" d="M226.55,238.37c-0.06,0.21-0.11,0.41-0.17,0.62C226.44,238.78,226.5,238.58,226.55,238.37z"
		/>
	<path id="Trazado_109" class="st33" d="M226.27,239.43c-0.05,0.21-0.11,0.42-0.16,0.62C226.17,239.84,226.22,239.63,226.27,239.43z
		"/>
	<path id="Trazado_110" class="st33" d="M226,240.48c-0.06,0.23-0.11,0.47-0.17,0.7C225.89,240.95,225.95,240.71,226,240.48z"/>
	<path id="Trazado_111" class="st33" d="M225.71,241.66c-0.08,0.31-0.15,0.61-0.23,0.92C225.56,242.27,225.64,241.96,225.71,241.66z
		"/>
	<path id="Trazado_117" class="st33" d="M226.68,237.91c0.05-0.19,0.11-0.39,0.16-0.58C226.79,237.52,226.73,237.72,226.68,237.91z"
		/>
	<path id="Trazado_118" class="st33" d="M226.99,236.86c0.06-0.19,0.11-0.39,0.18-0.58C227.1,236.48,227.05,236.67,226.99,236.86z"
		/>
	<path id="Trazado_119" class="st33" d="M227.31,235.84c0.06-0.19,0.13-0.39,0.2-0.58C227.44,235.45,227.38,235.65,227.31,235.84z"
		/>
	<path id="Trazado_120" class="st33" d="M227.67,234.81c0.07-0.19,0.14-0.38,0.21-0.56C227.81,234.43,227.74,234.62,227.67,234.81z"
		/>
	<path id="Trazado_121" class="st33" d="M228.06,233.79c0.07-0.18,0.15-0.36,0.22-0.54C228.21,233.43,228.14,233.61,228.06,233.79z"
		/>
	<path id="Trazado_122" class="st33" d="M228.5,232.79c0.08-0.18,0.16-0.35,0.24-0.52C228.65,232.44,228.57,232.62,228.5,232.79z"/>
	<path id="Trazado_123" class="st33" d="M230.67,229.08c0.11-0.15,0.22-0.3,0.34-0.45C230.9,228.78,230.78,228.93,230.67,229.08z"/>
	<path id="Trazado_124" class="st33" d="M228.96,231.82c0.09-0.17,0.17-0.34,0.26-0.5C229.14,231.48,229.05,231.66,228.96,231.82z"
		/>
	<path id="Trazado_125" class="st33" d="M229.48,230.88c0.09-0.16,0.19-0.33,0.29-0.49C229.67,230.55,229.57,230.72,229.48,230.88z"
		/>
	<path id="Trazado_126" class="st33" d="M230.05,229.96c0.1-0.16,0.2-0.31,0.31-0.47C230.25,229.65,230.15,229.81,230.05,229.96z"/>
</g>
</svg>
