<?xml version="1.0" encoding="utf-8"?>
<!-- Generator: Adobe Illustrator 23.0.0, SVG Export Plug-In . SVG Version: 6.00 Build 0)  -->
<svg version="1.1" id="Capa_1" xmlns="http://www.w3.org/2000/svg" xmlns:xlink="http://www.w3.org/1999/xlink" x="0px" y="0px"
	 viewBox="0 0 30 30" style="enable-background:new 0 0 30 30;" xml:space="preserve">
<style type="text/css">
	.st0{fill:#FFFFFF;}
</style>
<path class="st0" d="M0,0v30h30V0H0z M24.78,23.69c0,1.16-0.9,2.11-2.05,2.17h-4.47v-8.7c0-0.6-0.49-1.09-1.09-1.09h-4.35
	c-0.6,0-1.09,0.49-1.09,1.09v8.7H7.27c-1.15-0.06-2.06-1.02-2.05-2.17v-9.11C5.21,14,5.44,13.44,5.85,13.03l8.38-8.58
	c0,0,0,0,0.01-0.01c0.43-0.42,1.11-0.42,1.54,0.01l8.38,8.57c0.41,0.42,0.63,0.98,0.63,1.57V23.69z"/>
</svg>