<?xml version="1.0" encoding="utf-8"?>
<!-- Generator: Adobe Illustrator 23.0.0, SVG Export Plug-In . SVG Version: 6.00 Build 0)  -->
<svg version="1.1" id="Capa_1" xmlns="http://www.w3.org/2000/svg" xmlns:xlink="http://www.w3.org/1999/xlink" x="0px" y="0px"
	 viewBox="0 0 360 234.8" style="enable-background:new 0 0 360 234.8;" xml:space="preserve">
<style type="text/css">
	.st0{fill:#8F7CE5;}
	.st1{fill:none;stroke:#938DE2;stroke-width:0.7193;stroke-miterlimit:10;}
	.st2{fill:#B2B1E5;}
	.st3{fill:#BEBEE5;}
	.st4{fill:#9F95E5;}
	.st5{fill:none;stroke:#9C91E8;stroke-width:0.6352;stroke-miterlimit:10;}
	.st6{fill:#A6A6DD;}
	.st7{fill:none;stroke:#C0C0E2;stroke-width:0.6352;stroke-miterlimit:10;}
	.st8{fill:#BABAE2;}
	.st9{fill:#9C91E8;}
	.st10{display:none;}
	.st11{display:inline;fill:#6149C4;}
	.st12{display:inline;fill:#8F7CE5;}
	.st13{display:inline;fill:#DFDBF3;stroke:#DFDBF3;stroke-width:0.63;stroke-miterlimit:10;}
	.st14{display:inline;}
	.st15{fill:#FFD084;}
	.st16{fill:#FBA982;}
	.st17{fill:#FFFFFF;stroke:#FFFFFF;stroke-width:0.449;stroke-miterlimit:10;}
	.st18{fill:#FFFFFF;stroke:#FFFFFF;stroke-width:0.547;stroke-miterlimit:10;}
	.st19{fill:#6149C4;stroke:#6149C4;stroke-width:0.63;stroke-miterlimit:10;}
	.st20{fill:#FFFFFF;stroke:#FFFFFF;stroke-width:0.519;stroke-miterlimit:10;}
	.st21{fill:#FFFFFF;stroke:#FFFFFF;stroke-width:0.63;stroke-miterlimit:10;}
	.st22{display:inline;fill:#9F95E5;stroke:#9F95E5;stroke-width:9.600000e-02;stroke-miterlimit:10;}
	.st23{display:inline;fill:#8F7CE5;stroke:#8F7CE5;stroke-width:9.600000e-02;stroke-miterlimit:10;}
	.st24{display:inline;fill:#CEC4F6;stroke:#CEC4F6;stroke-width:9.600000e-02;stroke-miterlimit:10;}
</style>
<rect id="Rectángulo_553" class="st0" width="360" height="234.8"/>
<path id="Trazado_311" class="st1" d="M321.6,117.6c0,0,29.1-19.6,31.9,0c0,0,3,11.6-17.9,29.5c0,0-14.3,11.5-6.3,15.7
	c3.3,1.1,6.9,0.9,10-0.6c5.6-2.4,13.7-1.7,10.9,9.5s-9.8,26.3-55.3,36.6S233,173.1,233,173.1l41.7-22.9
	C274.7,150.3,307,126.6,321.6,117.6z"/>
<path id="Trazado_312" class="st2" d="M312.3,128c0,0,25.7-17.3,28.1,0c0,0,2.6,10.3-15.8,26c0,0-12.6,10.1-5.5,13.9
	c2.9,1,6,0.8,8.8-0.5c5-2.1,12.1-1.5,9.6,8.4s-7.7,33.7-48.8,32.3c-25.2-0.9-39.2,2.3-47.8-4.3c-12.6-9.6-6.8-26.8-6.8-26.8
	l36.8-20.2C271,156.8,299.5,135.9,312.3,128z"/>
<path id="Trazado_313" class="st3" d="M284.8,174.6c0,0,16.6,5.4,28.9,1s7.7,7.8,7.7,7.8c-8.1,12.1-22.1,18.9-36.6,17.9
	c-24.9-1.6-24.9-6.2-24.9-6.2s-0.5-16.5,11.7-19.4S284.8,174.6,284.8,174.6z"/>
<path id="Trazado_314" class="st4" d="M247.8,203c-1.7,0.7-3.5,1.2-5.3,1.5c-3.5,0.6-6.9,0.9-10.3,1.3c-22.1,2.1-94.5,8-123-2.1
	c-33.8-12-67.3-38.5-53.7-53.4c0,0,5-6.8,30,3c17,6.7,19.8-2,19.6-9.2c-0.2-3.5-0.9-6.9-2.3-10.1c-5.4-12.8-26.1-69.7,41.8-62.3
	c0,0,41,3.7,66.4,33.2c16.3,18.9,37.2,1.2,37.2,1.2s46.1-35.9,57.4-5.2c8.8,23.8-10.3,54.4-18.9,68.3c-10.4,16-25,26.6-30.7,30.2
	c-0.9,0.6-1.8,1-2.8,1.4L247.8,203z"/>
<path id="Trazado_315" class="st5" d="M224.5,187.1c0,0-93.3,17.3-127.1,5.3s-67.3-38.5-53.7-53.4c0,0,5-6.8,30,3
	c26.7,10.5,18.3-16.8,18.3-16.8s-35.7-73.2,40.6-64.9c0,0,41,3.7,66.4,33.2c16.3,18.9,37.2,1.2,37.2,1.2s46.1-35.9,57.4-5.2
	s-22,78-22,78L224.5,187.1z"/>
<path id="Trazado_316" class="st6" d="M196.9,125.1c0,0-61.9-49.2-73.4-15.1s32.2,70.3,32.2,70.3s29.1,30.7,52.9,17.6
	c10.9-6,14.6-15.1,15.3-23.3c0.7-8.6-1.7-17.2-6.7-24.3C211.1,141.5,204.3,133,196.9,125.1z"/>
<path id="Trazado_317" class="st7" d="M207.9,187.2c0,0-34.7,11.8-65.6-43.9c0,0-20.8-35.4,12.2-28.9s48.6,35.1,48.6,35.1
	C215.8,169.9,218.7,181.7,207.9,187.2z"/>
<path id="Trazado_318" class="st7" d="M209,117.6c0,0-39.3-27.1-56.5-30.7"/>
<path id="Trazado_319" class="st6" d="M121.9,172.8c0,0-26.3-13.3-29.9-4.7s13.7,20.6,13.7,20.6s30.3,17.9,35.4,10.1
	c1.4-2.1,2.1-4.7,1.9-7.3c-0.4-4.4-2.9-8.3-6.7-10.4L121.9,172.8z"/>
<path id="Trazado_320" class="st7" d="M142.1,197.2c0,0-39.3-27.1-56.5-30.7"/>
<path id="Trazado_321" class="st8" d="M80,165.4c-1.8-1.5-3.9-2.5-6.2-2.8c-0.9-0.2-1.8,0-2.4,0.6c-0.4,0.8-0.3,1.7,0.4,2.3
	c0.7,0.5,1.5,0.8,2.3,0.9C76.1,166.6,78.2,166.3,80,165.4"/>
<path id="Trazado_322" class="st8" d="M147.5,83.9c-1.8-1.5-3.9-2.5-6.2-2.8c-0.9-0.2-1.8,0-2.4,0.7c-0.4,0.8-0.3,1.7,0.4,2.3
	c0.7,0.5,1.5,0.8,2.3,0.9C143.6,85.2,145.6,84.8,147.5,83.9"/>
<path id="Trazado_323" class="st8" d="M84,162.7c-0.7-1-1.2-2-1.4-3.2c-0.2-0.7-0.2-1.4-0.1-2.1c0.2-0.7,0.8-1.2,1.6-1.2
	c0.7,0.1,1.3,0.7,1.4,1.4c0.1,0.7,0.1,1.4-0.2,2.1c-0.3,1-0.6,2-1,3"/>
<ellipse id="Elipse_29" class="st9" cx="71.9" cy="125.9" rx="2.4" ry="3.2"/>
<ellipse id="Elipse_30" transform="matrix(0.7297 -0.6838 0.6838 0.7297 -15.0163 272.5479)" class="st9" cx="337.2" cy="155.3" rx="3" ry="2.3"/>
<ellipse id="Elipse_31" class="st9" cx="227.5" cy="70.9" rx="2.9" ry="3.8"/>
<ellipse id="Elipse_32" transform="matrix(0.4899 -0.8718 0.8718 0.4899 70.1481 336.029)" class="st9" cx="322.2" cy="108.1" rx="5" ry="3.8"/>
<g id="Grupo_126" transform="translate(-175.327 -36.733)" class="st10">
	<path id="Trazado_324" class="st11" d="M451,200.6c20.1-23.8,5.4-72.2,5.4-72.2C419.8,118.1,379,128,379,128s-14,52.8,10.3,75.3
		c5.1,5.6,11.2,10.2,18,13.6c2,1,3.3,2.9,3.6,5.1l-5.7,29.7c0.2,1.4,0.1,6.3-1.2,6.9l-10.9,8.3c-0.8,0.4-1.2,1.4-0.8,2.2
		c0.3,0.5,0.7,0.9,1.3,0.9c15.7,1.9,31.7,1.9,47.4,0c0.9-0.1,1.6-0.9,1.5-1.9c-0.1-0.6-0.4-1.1-0.9-1.3l-19.4-9.5
		c-1.3-0.6-2-2-1.8-3.5l4.5-32.4c0.3-2.2,1.6-4.1,3.6-5c4.7-2.5,9.2-5.4,13.4-8.6C445.4,206.1,448.4,203.5,451,200.6L451,200.6
		L451,200.6z"/>
	<path id="Trazado_325" class="st12" d="M453.8,233.2c1.8,0.6,3.6,0.5,5.4-0.2c4.1-1.4,7.5-4.4,9.3-8.4c0.7-1.4,1-3,0.6-4.6
		c-6.3,2.7-11.5,7.2-15.1,12.9"/>
	<path id="Trazado_326" class="st12" d="M363.2,212.9c-2-0.6-3.8-2-5-3.8c-3-4.1-4.1-9.3-3.1-14.3c0.3-1.8,1.1-3.5,2.5-4.8
		c4.1,6.8,6.1,14.6,5.7,22.6"/>
	<path id="Trazado_327" class="st13" d="M366.5,127.7c0,0,40.7-10,77.3,0.3c0,0,25.8,84.5-37.1,85.1S366.5,127.7,366.5,127.7z"/>
	<g id="Grupo_120" class="st14">
		<path id="Trazado_328" class="st15" d="M371.2,129.9c-2.3-1.4-1.8-1-3.8-3.7c-0.5-0.7-0.6-2.1,0.3-2.3c0.3,0,0.6,0.1,0.8,0.2
			c0.9,0.6,1.4,1.7,2.3,2.4s2.3,0.9,2.8-0.1c0.1-0.4,0.2-0.8,0.1-1.2c-0.4-3.8-3.5-7.1-3.2-10.9c0.2-1.5,0.7-2.9,1.5-4.2
			c1-1.7,2.4-3.3,4.2-3.7c1.6-0.2,3.3,0.1,4.7,0.9c4.6,2.3,8.3,6.2,11.4,10.5c3.1,4.3,5.6,8.9,8.6,13.2c4.2,6.1,9.3,11.5,14.3,16.8
			c1.5,1.5,3,3.1,5,3.7c1.7,0.4,3.4,0.3,5-0.5c2.5-1.1,4.5-3.1,5.7-5.6c0.9-2,1.4-4.4,2.8-6c1.9-2,7-0.3,7-0.3l1.2,6.4
			c3.5,21.7,5,63-34.3,63.3c-53.4,0.5-36.3-77.6-36.3-77.6L371.2,129.9z"/>
		<path id="Trazado_329" class="st16" d="M429.7,201.9c-8.1,1.2-16.4,0.3-23.2-4.2c-3.1-2.2-6-4.6-8.7-7.4
			c-6.3-6.1-12.5-12.6-16.8-20.3c-7.1-12.7-8.5-28.1-6.2-42.5l-3.2,1.8c0,0-19,77.3,32.8,78.8C413.3,208.5,422.1,206.3,429.7,201.9z
			"/>
		<path id="Trazado_330" class="st17" d="M357.4,113.4c-1.7-1.4-3-3.2-3.7-5.3c-0.4-0.8-0.3-1.7,0.2-2.4c0.6-0.5,1.5-0.6,2.2,0
			c0.6,0.5,1,1.2,1.2,2C357.8,109.6,357.8,111.5,357.4,113.4"/>
		<path id="Trazado_331" class="st17" d="M355.6,117.6c-1-0.4-2.1-0.7-3.2-0.8c-0.7-0.1-1.4,0-2,0.3c-0.6,0.3-1,1-0.9,1.7
			c0.2,0.7,0.9,1.1,1.5,1.1c0.7,0,1.3-0.2,1.9-0.5c0.9-0.4,1.8-0.9,2.6-1.5"/>
	</g>
	<path id="Trazado_332" class="st13" d="M429,266.6l-19.4-9.5c-1.3-0.6-2-2-1.8-3.5l4.5-32.4c0.3-2.2,1.6-4.1,3.6-5
		c6.2-3.1,16.2-10.2,22.5-16.1c0,0-31.9,24.3-64.8-1c0,0,6.9,10.3,21,17.4c2,1,3.3,2.9,3.6,5.1l3.7,31.9c0.2,1.4-0.6,2.8-1.9,3.4
		l-19.6,9.5c-0.8,0.4-1.2,1.4-0.8,2.2c0.3,0.5,0.7,0.9,1.3,0.9c15.7,1.9,31.7,1.9,47.4,0c0.9-0.1,1.6-0.9,1.5-1.9
		C429.9,267.3,429.5,266.8,429,266.6z"/>
	<g id="Grupo_122" class="st14">
		<g id="Grupo_121">
			<path id="Rectángulo_554" class="st18" d="M417.5,173.3h14.2c2.4,0,4.3,1.9,4.3,4.3v14.2c0,2.4-1.9,4.3-4.3,4.3h-14.2
				c-2.4,0-4.3-1.9-4.3-4.3v-14.2C413.2,175.3,415.1,173.3,417.5,173.3z"/>
			<path id="Trazado_333" class="st19" d="M436.1,191.9c0,2.4-1.9,4.3-4.3,4.3l0,0h-14.2c-2.4,0-4.3-1.9-4.3-4.3v-14.3
				c0-2.4,1.9-4.3,4.3-4.3C417.5,173.3,413.4,196.7,436.1,191.9z"/>
		</g>
		<path id="Rectángulo_555" class="st20" d="M394,183.6h13.5c2.3,0,4.1,1.8,4.1,4.1v13.5c0,2.3-1.8,4.1-4.1,4.1H394
			c-2.3,0-4.1-1.8-4.1-4.1v-13.5C389.9,185.4,391.8,183.6,394,183.6z"/>
		<path id="Trazado_334" class="st19" d="M411.7,201.4c0,2.3-1.9,4.1-4.1,4.1H394c-2.3,0-4.1-1.9-4.1-4.1v-13.6
			c0-2.3,1.9-4.1,4.1-4.1l0,0C394,183.6,393.3,205,411.7,201.4z"/>
	</g>
	<g id="Grupo_123" class="st14">
		<circle id="Elipse_33" class="st21" cx="388" cy="168.7" r="1.6"/>
		<path id="Trazado_336" class="st21" d="M381.6,158.9c0,1-0.8,1.8-1.8,1.8s-1.8-0.8-1.8-1.8c0-1,0.8-1.8,1.8-1.8
			C380.8,157.1,381.6,157.9,381.6,158.9L381.6,158.9z"/>
		<path id="Trazado_337" class="st21" d="M380.1,176.5c0,0.8-0.7,1.5-1.5,1.5s-1.5-0.7-1.5-1.5c0-0.8,0.7-1.5,1.5-1.5
			S380.1,175.7,380.1,176.5L380.1,176.5z"/>
		<path id="Trazado_338" class="st21" d="M383.1,146.3c0,0.6-0.5,1-1,1s-1-0.4-1-1c0-0.6,0.5-1,1-1S383.1,145.8,383.1,146.3
			L383.1,146.3z"/>
		<path id="Trazado_339" class="st21" d="M374,165.9c0,0.4-0.3,0.6-0.6,0.6s-0.6-0.3-0.6-0.6s0.3-0.6,0.6-0.6l0,0
			C373.7,165.3,374,165.5,374,165.9z"/>
		<circle id="Elipse_34" class="st21" cx="388.9" cy="192.1" r="1.6"/>
		<path id="Trazado_340" class="st21" d="M385.3,134.8c0,0.4-0.3,0.7-0.7,0.7s-0.7-0.3-0.7-0.7s0.3-0.7,0.7-0.7l0,0
			C385,134,385.3,134.4,385.3,134.8z"/>
		<path id="Trazado_341" class="st21" d="M398.6,178.2c0,0.7-0.6,1.3-1.3,1.3c-0.7,0-1.3-0.6-1.3-1.3c0-0.7,0.6-1.3,1.3-1.3l0,0
			C398,176.9,398.6,177.5,398.6,178.2z"/>
		<path id="Trazado_342" class="st21" d="M397.3,154.1c0,0.6-0.5,1-1,1s-1-0.4-1-1s0.5-1,1-1l0,0
			C396.8,153.1,397.3,153.5,397.3,154.1z"/>
	</g>
	<path id="Trazado_343" class="st22" d="M442,117c-11.6,7.3-18.4,20.6-30.3,27.5c0,0,10.2-3.3,13-8.7C427.5,130.4,442,117,442,117z"
		/>
	<path id="Trazado_344" class="st23" d="M414.5,142.6c1.5-4.1,1.1-8.8,2.8-12.8c0.1-0.2,0.3-0.5,0.5-0.4c0.1,0.1,0.2,0.2,0.2,0.3
		c0.3,1.6,0.3,3.3-0.1,4.9c-0.3,2-0.6,4-1,6"/>
	<path id="Trazado_345" class="st22" d="M418.3,139.6c0.9-3.2,1.4-6.6,2.3-9.8c0.8-3.3,2.2-6.4,4.2-9.1c0.5-0.7,1.1-1.2,1.9-1.4
		c-0.1,0.7-0.4,1.3-0.7,1.9c-2.8,5.1-5.6,10.5-5.6,16.4"/>
	<path id="Trazado_346" class="st23" d="M429.9,127.5c1.5-4.6,1.9-9.7,4.6-13.6c0.4-0.6,0.9-1.1,1.5-1.5c0.2-0.2,0.5-0.3,0.7-0.1
		c0.1,0.2,0.2,0.4,0.1,0.7c-0.7,3.8-3.3,7-3.7,10.8"/>
	<path id="Trazado_347" class="st24" d="M432.1,125.3c0.6-3,1.3-6.2,3.3-8.5c0.1-0.2,0.3-0.3,0.5-0.4s0.5,0,0.6,0.2
		c0.1,0.2,0.1,0.4,0,0.6c-0.6,1.9-1.3,3.9-1.9,5.8"/>
	<path id="Trazado_348" class="st24" d="M430.3,128.7c2.5-1.5,5.2-2.8,7.9-3.8c0.3-0.1,0.8-0.1,0.7,0.2c0,0.1-0.1,0.2-0.1,0.2
		c-2.8,3.1-7.3,3.8-10.6,6.2c0.8-1,1.5-2,2.3-3"/>
	<path id="Trazado_349" class="st22" d="M427.9,131.8c4.3-1.9,8.5-4.5,13.3-4.8c0.4,0.5-0.2,1.2-0.8,1.5c-4.5,3-10,4-15,6.1l2.6-3"
		/>
	<path id="Trazado_350" class="st22" d="M441.6,116.9c1.4-1.9,2.5-3.9,3.5-6.1c0.6-1,0.7-2.2,0.4-3.3c-0.7,0.4-1.2,0.9-1.6,1.5
		c-2,2.8-3,6-4.1,9.3l1.8-1.7"/>
	<path id="Trazado_351" class="st24" d="M441.5,117l2.7-3.3c1-1.3,2.2-2.5,3.6-3.5c0.1-0.1,0.3-0.2,0.5-0.2c0.2,0,0.4,0.1,0.4,0.3
		c0,0.1-0.1,0.3-0.1,0.4c-1.8,2.5-4.1,4.5-6.7,6.1"/>
	<path id="Trazado_352" class="st23" d="M441.8,117.2c2.5-1,5.2-1.8,7.9-2.2c0.4-0.1,0.9,0,1.2,0.2c0.1,0.1,0.2,0.3,0.1,0.5
		c-0.1,0.1-0.2,0.2-0.4,0.2c-2.1,0.7-4.3,1-6.6,1c-0.7-0.1-1.4,0-2.1,0.2"/>
	<path id="Trazado_353" class="st24" d="M440.9,118.3c2.6,0.1,5.2,0.1,7.8-0.2c1-0.3,2.1-0.2,3.1,0.2c-0.7,0.7-1.5,1.1-2.5,1.2
		c-1,0.1-1.9,0.1-2.9,0.1c-2.9,0-5.8,0.3-8.7,1.1c1.2-0.7,2.3-1.5,3.3-2.4"/>
	<path id="Trazado_354" class="st23" d="M421.7,139.6c0.9-0.3,1.8-0.5,2.8-0.6c0.9-0.1,1.8-0.5,2.6-1c0.1-0.1,0.1-0.1,0.1-0.2
		c0-0.2-0.2-0.3-0.4-0.3c-0.9-0.1-1.9-0.1-2.8-0.1c-0.1,0-0.2,0-0.4,0.1c-0.1,0.1-0.2,0.2-0.3,0.3l-1.4,1.7"/>
</g>
</svg>