<?xml version="1.0" encoding="utf-8"?>
<svg version="1.1" id="Layer_1" xmlns="http://www.w3.org/2000/svg" xmlns:xlink="http://www.w3.org/1999/xlink" x="0px" y="0px"
	 viewBox="0 0 360 204.67" style="enable-background:new 0 0 360 204.67;" xml:space="preserve">
<style type="text/css">
	.st0{fill:#907CE5;}
	.st1{fill:#FFFFFF;}
	.st2{fill:#6149C4;}
	.st3{fill:#FF925E;}
	.st4{fill:none;stroke:#5F2367;stroke-width:0.9772;stroke-miterlimit:10;}
	.st5{fill:#FFBD51;}
	.st6{fill:#F78D3B;}
	.st7{fill:#D0262E;}
	.st8{fill:#A80D1E;}
	.st9{fill:#FA5C37;}
	.st10{fill:#FF8A77;}
	.st11{fill:#FFACAC;}
	.st12{fill:#F78D3A;}
	.st13{fill:#CAE0FF;}
	.st14{fill:#FC8D7C;}
	.st15{fill:#FFE3FF;}
	.st16{fill:#FF4167;}
	.st17{fill:#EE092F;}
	.st18{fill:#316991;}
	.st19{fill:#2D1851;}
	.st20{fill:#FFBE51;}
	.st21{fill:#FA9035;}
	.st22{fill:#7ECCF2;}
	.st23{fill:#752029;}
	.st24{fill:#470F1F;}
	.st25{fill:#A03A3A;}
	.st26{fill:#7ECBF2;}
	.st27{fill:#203F65;}
	.st28{fill:#326991;}
	.st29{fill:#F95353;}
	.st30{fill:none;}
	.st31{fill:#FF986E;}
	.st32{fill:#D16145;}
	.st33{fill:#B0452C;}
	.st34{fill:#3D2D96;}
	.st35{fill:#EEEEFF;}
	.st36{fill:#851C1A;}
	.st37{fill:#5C050B;}
	.st38{fill:#CE391F;}
	.st39{fill:#8479C9;}
	.st40{fill:#FFD77E;}
	.st41{fill:#FF5A42;}
	.st42{fill:#FFC3B6;}
	.st43{fill:#E2E2F2;}
	.st44{fill:#FFEEFF;}
	.st45{fill:#FDB642;}
	.st46{fill:#DB3F14;}
	.st47{fill:#FF0344;}
	.st48{fill:#D6033B;}
	.st49{fill:#DA3D13;}
	.st50{fill:#FD7829;}
	.st51{fill:#DB3C13;}
	.st52{fill:#9E3A27;}
	.st53{fill:#FA8B71;}
	.st54{fill:#841B19;}
	.st55{fill:#DA3E13;}
	.st56{fill:#851B1A;}
	.st57{fill:#9D3927;}
	.st58{fill:#FF8644;}
	.st59{fill:#9E3926;}
	.st60{fill:#2A227C;}
	.st61{fill:#56A2C0;}
	.st62{fill:#FFE6FC;}
	.st63{fill:#82110F;}
	.st64{fill:#356C84;}
	.st65{fill:#801003;}
	.st66{fill:#D32921;}
	.st67{fill:#24596B;}
	.st68{fill:#ED6658;}
	.st69{fill:#9C1C13;}
	.st70{fill:#BF3B2C;}
	.st71{fill:#E1D1E8;}
	.st72{fill:#D43B0C;}
	.st73{fill:#D43C0C;}
	.st74{fill:#FF692B;}
	.st75{fill:#E35F4C;}
	.st76{fill:#FF7A73;}
	.st77{fill:#FF8960;}
	.st78{fill:#FFC9CD;}
	.st79{fill:#9B1C13;}
	.st80{fill:#2A546A;}
	.st81{fill:#FEC9CD;}
	.st82{fill:#C9ADC2;}
	.st83{fill:#CCAFD3;}
	.st84{fill:#EDCDEC;}
	.st85{fill:#795D7E;}
	.st86{fill:#E9D1E6;}
	.st87{fill:#FA3F3A;}
	.st88{fill:url(#);}
	.st89{fill:#FBA982;}
	.st90{fill:#FFD084;}
	.st91{fill:none;stroke:#FFFFFF;stroke-width:1.5;stroke-linecap:round;stroke-linejoin:round;}
	.st92{fill:none;stroke:#FFFFFF;stroke-width:3;stroke-linecap:round;stroke-linejoin:round;}
	.st93{fill:none;stroke:#A2A2A3;stroke-width:3;stroke-linecap:round;}
	.st94{fill:none;stroke:#A2A2A3;stroke-width:5;stroke-linecap:round;stroke-linejoin:round;}
	.st95{fill:none;stroke:#A2A2A3;stroke-width:4.5;stroke-linecap:round;stroke-linejoin:round;}
	.st96{fill:#A2A2A3;}
	.st97{fill:none;stroke:#000000;stroke-miterlimit:10;}
	.st98{fill:none;stroke:#FFFFFF;stroke-width:3;stroke-linecap:round;}
	.st99{fill:#230428;}
	.st100{fill:#748A91;}
	.st101{fill:#F0C918;}
	.st102{fill:#3A2B23;}
	.st103{fill:#CC9B04;}
	.st104{fill:#4F666C;}
	.st105{fill:#50676D;}
	.st106{fill:#CB9B04;}
	.st107{fill:#BE6D46;}
	.st108{fill:#FFBE9E;}
	.st109{fill:#B2B1E5;}
	.st110{fill:#9B8698;}
	.st111{fill:#BAAAB9;}
	.st112{fill:#B9A9B8;}
	.st113{fill:#FFE886;}
	.st114{fill:#FFE884;}
	.st115{fill:#FFD445;}
	.st116{fill:#DFDBF3;}
	.st117{fill:#E6B125;}
	.st118{fill:#FFBC53;}
	.st119{fill:#FFBB52;}
	.st120{fill:#F19536;}
	.st121{fill:#FEE8F4;}
	.st122{fill:#FFE8F4;}
	.st123{fill:#B6B6CC;}
	.st124{fill:#FFE9DE;}
	.st125{fill:#9F95E5;}
	.st126{fill:#D7D3F4;}
	.st127{fill:#CEC4F6;}
	.st128{fill:#78C9E9;}
	.st129{fill:#D5F3FF;}
	.st130{fill:#3D9EC1;}
	.st131{fill:#F7D9AD;}
	.st132{fill:#FFCF83;}
	.st133{fill:#FBA983;}
	.st134{fill:none;stroke:url(#SVGID_2_);stroke-width:1.1864;stroke-linecap:round;stroke-linejoin:round;stroke-miterlimit:10;}
	.st135{fill:none;stroke:url(#SVGID_3_);stroke-width:1.1864;stroke-linecap:round;stroke-linejoin:round;stroke-miterlimit:10;}
	.st136{fill:#007853;}
	.st137{fill:url(#SVGID_4_);}
	.st138{fill:url(#SVGID_5_);}
	.st139{fill:url(#SVGID_6_);}
	.st140{fill:url(#SVGID_7_);}
	.st141{fill:url(#SVGID_8_);}
	.st142{fill:url(#SVGID_9_);}
	.st143{opacity:0.7;fill:#005C3D;}
	.st144{opacity:0.4;fill:url(#SVGID_10_);}
	.st145{fill:url(#SVGID_11_);}
	.st146{fill:#F7EDF2;}
	.st147{fill:url(#SVGID_12_);}
	.st148{fill:url(#SVGID_13_);}
	.st149{fill:#FD1F61;}
	.st150{fill:#E4F993;}
	.st151{fill:#FF1F51;}
	.st152{fill:url(#SVGID_14_);}
	.st153{fill:url(#SVGID_15_);}
	.st154{fill:url(#SVGID_16_);}
	.st155{fill:none;stroke:url(#SVGID_17_);stroke-width:0.3955;stroke-miterlimit:10;}
	.st156{fill:url(#SVGID_18_);}
	.st157{fill:url(#SVGID_19_);}
	.st158{fill:url(#SVGID_20_);}
	.st159{fill:url(#SVGID_21_);}
	.st160{fill:url(#SVGID_22_);}
	.st161{fill:url(#SVGID_23_);}
	.st162{fill:url(#SVGID_24_);}
	.st163{fill:url(#SVGID_25_);}
	.st164{fill:url(#SVGID_26_);}
	.st165{fill:url(#SVGID_27_);}
	.st166{fill:url(#SVGID_28_);}
	.st167{fill:url(#SVGID_29_);}
	.st168{fill:url(#SVGID_30_);}
	.st169{fill:url(#SVGID_31_);}
	.st170{fill:url(#SVGID_32_);}
	.st171{fill:url(#SVGID_33_);}
	.st172{fill:url(#SVGID_34_);}
	.st173{fill:url(#SVGID_35_);}
	.st174{fill:url(#SVGID_36_);}
	.st175{fill:url(#SVGID_37_);}
	.st176{fill:url(#SVGID_38_);}
	.st177{fill:url(#SVGID_39_);}
	.st178{fill:url(#SVGID_40_);}
	.st179{fill:url(#SVGID_41_);}
	.st180{fill:url(#SVGID_42_);}
	.st181{fill:url(#SVGID_43_);}
	.st182{fill:url(#SVGID_44_);}
	.st183{fill:url(#SVGID_45_);}
	.st184{fill:url(#SVGID_46_);}
	.st185{fill:url(#SVGID_47_);}
	.st186{opacity:0.5;fill:url(#SVGID_48_);}
	.st187{fill:url(#SVGID_49_);}
	.st188{opacity:0.5;fill:url(#SVGID_50_);}
	.st189{opacity:0.5;}
	.st190{fill:url(#SVGID_51_);}
	.st191{opacity:0.5;fill:url(#SVGID_52_);}
	.st192{fill:#F3003B;}
	.st193{fill:url(#SVGID_53_);}
	.st194{fill:url(#SVGID_54_);}
	.st195{fill:url(#SVGID_55_);}
	.st196{fill:url(#SVGID_56_);}
	.st197{fill:url(#SVGID_57_);}
	.st198{fill:url(#SVGID_58_);}
	.st199{fill:url(#SVGID_59_);}
	.st200{fill:url(#SVGID_60_);}
	.st201{fill:url(#SVGID_61_);}
	.st202{fill:url(#SVGID_62_);}
	.st203{fill:#E2EADE;}
	.st204{fill:#64B94E;}
	.st205{fill:#EF545A;}
	.st206{fill:#3B7237;}
	.st207{fill:#339A46;}
	.st208{fill:#FAF8D3;}
	.st209{fill:#9BCA3B;}
	.st210{opacity:0.63;fill:#FFFFFF;}
	.st211{opacity:0.63;clip-path:url(#SVGID_63_);}
	.st212{fill-rule:evenodd;clip-rule:evenodd;fill:#FFFFFF;}
	.st213{opacity:0.4;clip-path:url(#SVGID_65_);}
	.st214{opacity:0.63;clip-path:url(#SVGID_67_);}
	.st215{opacity:0.63;clip-path:url(#SVGID_69_);}
	.st216{opacity:0.63;clip-path:url(#SVGID_71_);}
	.st217{opacity:0.29;fill:#C4DD8B;}
	.st218{opacity:0.6;fill:#FFFFFF;}
	.st219{opacity:0.6;}
	.st220{opacity:0.61;}
	.st221{fill:#EBE6DE;}
	.st222{fill:url(#SVGID_72_);}
	.st223{opacity:0.63;clip-path:url(#SVGID_74_);}
	.st224{opacity:0.4;clip-path:url(#SVGID_76_);}
	.st225{opacity:0.63;clip-path:url(#SVGID_78_);}
	.st226{opacity:0.63;clip-path:url(#SVGID_80_);}
	.st227{opacity:0.63;clip-path:url(#SVGID_82_);}
	.st228{fill:#D69E6E;}
	.st229{fill:#CF3D51;}
	.st230{fill:#DF424E;}
	.st231{opacity:0.49;}
	.st232{fill:#F7941D;}
	.st233{opacity:0.48;}
	.st234{opacity:0.31;fill:#EBE6DE;}
	.st235{opacity:0.53;fill:#EBE6DE;}
	.st236{opacity:0.36;}
	.st237{fill:#8F7CE5;}
	.st238{fill:#DFDBF3;stroke:#DFDBF3;stroke-width:0.5225;stroke-miterlimit:10;}
	.st239{fill:#FFFFFF;stroke:#FFFFFF;stroke-width:0.4534;stroke-miterlimit:10;}
	.st240{fill:#222221;stroke:#222221;stroke-width:0.5225;stroke-miterlimit:10;}
	.st241{fill:#FFFFFF;stroke:#FFFFFF;stroke-width:0.4301;stroke-miterlimit:10;}
	.st242{opacity:0.14;fill:#EAEDF4;stroke:#FFFFFF;stroke-width:0.5225;stroke-miterlimit:10;}
	.st243{fill:#FFFFFF;stroke:#FFFFFF;stroke-width:0.5225;stroke-miterlimit:10;}
	.st244{display:none;}
	.st245{display:inline;}
	.st246{display:inline;fill:#8F7CE5;}
	.st247{fill:#428AB8;}
	.st248{fill:#112949;}
	.st249{display:inline;fill:#8F7CE5;stroke:#8F7CE5;stroke-width:0.0793;stroke-miterlimit:10;}
	.st250{display:inline;fill:#275A96;stroke:#275A96;stroke-width:0.0763;stroke-miterlimit:10;}
	.st251{fill:none;stroke:#938DE2;stroke-width:0.681;stroke-miterlimit:10;}
	.st252{fill:none;stroke:#9C91E8;stroke-width:0.6011;stroke-miterlimit:10;}
	.st253{fill:#A6A6DD;}
	.st254{fill:none;stroke:#C0C0E2;stroke-width:0.6011;stroke-miterlimit:10;}
	.st255{fill:#BEBEE5;}
	.st256{fill:#BABAE2;}
	.st257{fill:#9C91E8;}
	.st258{display:inline;fill:#6149C4;}
	.st259{display:inline;fill:#DFDBF3;stroke:#DFDBF3;stroke-width:0.6302;stroke-miterlimit:10;}
	.st260{fill:#FFFFFF;stroke:#FFFFFF;stroke-width:0.5469;stroke-miterlimit:10;}
	.st261{fill:#6149C4;stroke:#6149C4;stroke-width:0.63;stroke-miterlimit:10;}
	.st262{fill:#FFFFFF;stroke:#FFFFFF;stroke-width:0.5188;stroke-miterlimit:10;}
	.st263{opacity:0.14;fill:#EAEDF4;stroke:#FFFFFF;stroke-width:0.6302;stroke-miterlimit:10;}
	.st264{fill:#FFFFFF;stroke:#FFFFFF;stroke-width:0.6302;stroke-miterlimit:10;}
	.st265{display:inline;fill:#8F7CE5;stroke:#8F7CE5;stroke-width:0.0956;stroke-miterlimit:10;}
	.st266{display:inline;fill:#275A96;stroke:#275A96;stroke-width:0.092;stroke-miterlimit:10;}
</style>
<g>
	<rect y="0.02" class="st237" width="360" height="204.65"/>
	<path class="st251" d="M314.21,68.96c0,0,27.6-18.56,30.23,0c0,0,2.8,10.99-17,27.88c0,0-13.56,10.82-5.96,14.86
		c0,0,4.12,1.76,9.46-0.53c5.35-2.29,12.97-1.58,10.34,8.97c-2.63,10.55-9.29,24.89-52.4,34.57s-58.64-33.25-58.64-33.25
		l39.53-21.64C269.78,99.84,300.45,77.5,314.21,68.96z"/>
	<path class="st109" d="M305.43,78.76c0,0,24.37-16.38,26.69,0c0,0,2.48,9.7-15.01,24.61c0,0-11.97,9.55-5.26,13.12
		c0,0,3.64,1.55,8.35-0.47c4.72-2.02,11.45-1.4,9.13,7.92c-2.32,9.32-7.28,31.88-46.26,30.51c-23.92-0.84-37.17,2.14-45.3-4.02
		c-11.96-9.07-6.46-25.32-6.46-25.32l34.9-19.1C266.21,106.01,293.28,86.29,305.43,78.76z"/>
	<path class="st125" d="M235.63,151.68c0,0-90.77,9.95-122.79-1.36C80.83,139,49.06,113.98,61.92,99.83c0,0,4.7-6.47,28.49,2.83
		c25.27,9.88,17.39-15.88,17.39-15.88s-33.86-69.12,38.53-61.29c0,0,38.89,3.48,62.98,31.33c15.46,17.88,35.29,1.16,35.29,1.16
		s43.7-33.95,54.45-4.93s-20.84,73.69-20.84,73.69L235.63,151.68z"/>
	<path class="st252" d="M222.15,134.6c0,0-88.49,16.32-120.5,5c-32.02-11.32-63.78-36.34-50.92-50.48c0,0,4.7-6.47,28.49,2.83
		c25.27,9.88,17.39-15.88,17.39-15.88S62.75,6.94,135.14,14.77c0,0,38.89,3.48,62.98,31.33c15.46,17.88,35.29,1.16,35.29,1.16
		s43.7-33.95,54.45-4.93s-20.84,73.69-20.84,73.69L222.15,134.6z"/>
	<path class="st253" d="M196.02,76.07c0,0-58.71-46.46-69.65-14.26s30.57,66.41,30.57,66.41s27.57,29.01,50.21,16.65
		c10.38-5.67,13.8-14.31,14.46-22.01c0.7-8.13-1.68-16.23-6.36-22.91C211.01,93.89,203.89,84.29,196.02,76.07z"/>
	<path class="st254" d="M206.37,134.7c0,0-32.87,11.12-62.2-41.52c0,0-19.76-33.43,11.55-27.28s46.12,33.15,46.12,33.15
		L206.37,134.7z"/>
	<path class="st254" d="M207.47,69.01c0,0-37.28-25.56-53.6-29.04"/>
	<path class="st255" d="M279.37,122.86c0,0,15.78,5.06,27.38,0.95c11.6-4.11,7.31,7.34,7.31,7.34s-11.04,18.42-34.69,16.9
		s-23.6-5.82-23.6-5.82s-0.47-15.56,11.13-18.28C278.49,121.22,279.37,122.86,279.37,122.86z"/>
	<path class="st253" d="M124.84,121.17c0,0-24.93-12.61-28.33-4.44c-3.4,8.16,13.03,19.46,13.03,19.46s28.77,16.91,33.55,9.56
		c1.54-2.36,1.94-4.74,1.78-6.89c-0.31-4.13-2.8-7.78-6.38-9.84L124.84,121.17z"/>
	<path class="st254" d="M144.03,144.22c0,0-37.28-25.56-53.6-29.04"/>
	<g>
		<path class="st256" d="M85.11,114.16c-1.65-1.44-3.72-2.38-5.89-2.66c-0.82-0.11-1.8-0.06-2.29,0.62
			c-0.47,0.65-0.22,1.62,0.37,2.17c0.59,0.54,1.41,0.74,2.2,0.83c1.92,0.21,3.89-0.15,5.62-1.01"/>
	</g>
	<g>
		<path class="st256" d="M149.11,37.18c-1.65-1.44-3.72-2.38-5.89-2.66c-0.82-0.11-1.8-0.06-2.29,0.62
			c-0.47,0.65-0.22,1.62,0.37,2.17c0.59,0.54,1.41,0.74,2.2,0.83c1.92,0.21,3.89-0.15,5.62-1.01"/>
	</g>
	<g>
		<path class="st256" d="M88.96,111.62c-0.63-0.91-1.1-1.93-1.38-3c-0.17-0.66-0.26-1.37-0.05-2.01c0.22-0.64,0.83-1.19,1.5-1.15
			c0.67,0.04,1.21,0.66,1.36,1.32c0.16,0.66,0.02,1.35-0.15,2.01c-0.26,0.97-0.58,1.93-0.98,2.86"/>
	</g>
	<ellipse class="st257" cx="77.44" cy="76.86" rx="2.25" ry="2.98"/>
	
		<ellipse transform="matrix(0.7343 -0.6788 0.6788 0.7343 16.7088 251.4298)" class="st257" cx="329.57" cy="104.37" rx="2.97" ry="2.25"/>
	<ellipse class="st257" cx="225" cy="24.87" rx="2.72" ry="3.61"/>
	
		<ellipse transform="matrix(0.495 -0.8689 0.8689 0.495 106.8831 303.8491)" class="st257" cx="314.83" cy="59.98" rx="4.75" ry="3.59"/>
</g>
<g class="st244">
	<path class="st258" d="M277,133.29c20.15-23.76,5.38-72.23,5.38-72.23c-36.57-10.25-77.3-0.28-77.3-0.28s-13.95,52.75,10.29,75.3
		c3.3,3.65,9.25,9.24,17.95,13.61c1.98,1,3.32,2.95,3.58,5.15l-5.72,29.68c0.16,1.41,0.12,6.3-1.16,6.92l-10.85,8.27
		c-1.49,0.72-1.13,2.95,0.52,3.15c8.62,1.08,26.67,2.59,47.4-0.02c1.65-0.21,2.03-2.42,0.54-3.15l-19.37-9.48
		c-1.29-0.63-2.04-2.03-1.84-3.46l4.54-32.41c0.3-2.17,1.65-4.06,3.61-5.03c3.67-1.81,8.65-5.03,13.41-8.58
		c3.57-2.02,6.53-4.53,8.98-7.41c0.02-0.02,0.05-0.05,0.08-0.07C277.04,133.25,277.03,133.27,277,133.29z"/>
	<g class="st245">
		<path class="st237" d="M277.84,142.18c1.7,0.67,3.63,0.41,5.36-0.17c4.07-1.36,7.52-4.49,9.27-8.41c0.64-1.44,1.07-3.07,0.65-4.6
			c-6.2,2.65-11.57,7.23-15.14,12.95"/>
	</g>
	<g class="st245">
		<path class="st237" d="M179.95,118.58c-2.07-0.51-3.73-2.06-4.98-3.78c-2.96-4.05-4.13-9.35-3.14-14.27
			c0.36-1.81,1.06-3.65,2.49-4.81c4.12,6.71,6.13,14.7,5.68,22.56"/>
	</g>
	<path class="st259" d="M192.54,60.41c0,0,40.73-9.97,77.3,0.28c0,0,25.77,84.5-37.13,85.06C169.82,146.3,192.54,60.41,192.54,60.41
		z"/>
	<g class="st245">
		<g>
			<path class="st90" d="M197.2,62.63c-2.34-1.43-1.82-0.98-3.79-3.72c-0.51-0.71-0.58-2.09,0.25-2.26c0.28-0.06,0.56,0.06,0.8,0.22
				c0.91,0.6,1.44,1.67,2.26,2.4c0.83,0.72,2.32,0.89,2.78-0.13c0.16-0.35,0.15-0.76,0.11-1.15c-0.41-3.83-3.48-7.1-3.19-10.94
				c0.11-1.5,0.74-2.91,1.5-4.19c1-1.68,2.37-3.29,4.2-3.73c1.57-0.37,3.21,0.19,4.66,0.92c4.59,2.29,8.27,6.22,11.35,10.49
				c3.08,4.26,5.65,8.91,8.65,13.23c4.23,6.08,9.28,11.47,14.31,16.83c1.44,1.54,2.98,3.14,4.96,3.73c1.63,0.49,3.41,0.22,4.98-0.46
				c2.46-1.05,4.53-3.09,5.69-5.61c0.94-2.03,1.35-4.41,2.83-6.04c1.85-2.03,6.95-0.33,6.95-0.33l1.19,6.36
				c3.53,21.7,5.05,62.97-34.3,63.33c-53.4,0.5-36.33-77.62-36.33-77.62L197.2,62.63z"/>
		</g>
		<g>
			<path class="st89" d="M255.76,134.62c-8.08,1.18-16.4,0.3-23.22-4.2c-3.18-2.1-5.98-4.72-8.72-7.37
				c-6.34-6.14-12.51-12.61-16.81-20.32c-7.1-12.74-8.54-28.09-6.2-42.49l-3.16,1.81c0,0-19.04,77.27,32.84,78.75
				C230.49,140.81,243.53,141.98,255.76,134.62z"/>
		</g>
		<g>
			<path class="st1" d="M183.41,46.12c-1.71-1.36-3.01-3.23-3.69-5.3c-0.26-0.79-0.39-1.76,0.19-2.36c0.55-0.58,1.55-0.51,2.19-0.03
				c0.64,0.48,0.99,1.25,1.22,2.01c0.55,1.85,0.57,3.85,0.05,5.71"/>
			<g>
				<path class="st1" d="M184.21,45.33c-0.9-0.74-1.69-1.56-2.32-2.54c-0.5-0.79-1.3-1.99-1.23-2.94c0.08-1.18,0.98-0.42,1.35,0.26
					c0.26,0.49,0.38,1.12,0.48,1.66c0.25,1.37,0.14,2.75-0.2,4.09c-0.36,1.4,1.81,2,2.16,0.6c0.58-2.29,0.62-4.82-0.31-7.03
					c-0.69-1.63-2.36-3.07-4.21-2.28c-4.21,1.79,0.77,8.18,2.7,9.78C183.72,47.83,185.32,46.25,184.21,45.33L184.21,45.33z"/>
			</g>
		</g>
		<g>
			<path class="st1" d="M181.62,50.38c-1-0.46-2.09-0.73-3.19-0.8c-0.68-0.05-1.39-0.01-1.98,0.32c-0.59,0.33-1.02,1.03-0.85,1.69
				c0.17,0.66,0.87,1.07,1.54,1.1c0.68,0.03,1.33-0.23,1.94-0.52c0.91-0.43,1.78-0.93,2.62-1.48"/>
			<g>
				<path class="st1" d="M182.19,49.41c-1.54-0.66-3.28-1.16-4.98-0.91c-1.44,0.22-2.86,1.31-2.75,2.91c0.1,1.48,1.47,2.4,2.88,2.38
					c1.74-0.02,3.52-1.23,4.92-2.15c1.2-0.79,0.08-2.73-1.13-1.94c-0.66,0.43-3.57,2.52-4.23,1.68c-0.58-0.73,1.32-0.72,1.79-0.67
					c0.81,0.09,1.62,0.31,2.36,0.62C182.37,51.91,183.52,49.97,182.19,49.41L182.19,49.41z"/>
			</g>
		</g>
	</g>
	<path class="st259" d="M255.08,199.33l-19.37-9.48c-1.29-0.63-2.04-2.03-1.84-3.46l4.54-32.41c0.3-2.17,1.65-4.06,3.61-5.03
		c6.21-3.07,16.19-10.16,22.46-16.06c0,0-31.88,24.31-64.76-0.99c0,0,6.88,10.32,21.04,17.43c1.98,1,3.32,2.95,3.58,5.15l3.74,31.95
		c0.16,1.41-0.58,2.76-1.85,3.38l-19.61,9.53c-1.49,0.72-1.13,2.95,0.52,3.15c8.62,1.08,26.67,2.59,47.4-0.02
		C256.2,202.27,256.58,200.06,255.08,199.33z"/>
	<g class="st245">
		<g>
			<path class="st260" d="M257.82,128.99h-14.24c-2.4,0-4.34-1.94-4.34-4.34v-14.24c0-2.4,1.94-4.34,4.34-4.34h14.24
				c2.4,0,4.34,1.94,4.34,4.34v14.24C262.16,127.05,260.22,128.99,257.82,128.99z"/>
			<path class="st261" d="M262.16,124.66c0,2.4-1.94,4.34-4.34,4.34h-14.24c-2.4,0-4.34-1.94-4.34-4.34v-14.24
				c0-2.4,1.94-4.34,4.34-4.34C243.58,106.07,239.39,129.4,262.16,124.66z"/>
		</g>
		<path class="st262" d="M233.59,138.06h-13.51c-2.27,0-4.11-1.84-4.11-4.11v-13.51c0-2.27,1.84-4.11,4.11-4.11h13.51
			c2.27,0,4.11,1.84,4.11,4.11v13.51C237.7,136.22,235.86,138.06,233.59,138.06z"/>
		<path class="st261" d="M237.78,134.11c0,2.29-1.85,4.14-4.14,4.14h-13.6c-2.29,0-4.14-1.85-4.14-4.14v-13.6
			c0-2.29,1.85-4.14,4.14-4.14C220.04,116.38,219.3,137.78,237.78,134.11z"/>
	</g>
	<path class="st263" d="M192.54,60.41c0,0,40.73-9.97,77.3,0.28c0,0,25.77,84.5-37.13,85.06C169.82,146.3,192.54,60.41,192.54,60.41
		z"/>
	<g class="st245">
		<circle class="st264" cx="214.01" cy="101.41" r="1.57"/>
		<path class="st264" d="M207.64,91.62c0,0.97-0.79,1.75-1.75,1.75c-0.97,0-1.75-0.79-1.75-1.75c0-0.97,0.79-1.75,1.75-1.75
			C206.86,89.86,207.64,90.65,207.64,91.62z"/>
		<path class="st264" d="M206.16,109.26c0,0.82-0.66,1.48-1.48,1.48s-1.48-0.66-1.48-1.48c0-0.82,0.66-1.48,1.48-1.48
			S206.16,108.44,206.16,109.26z"/>
		<path class="st264" d="M209.12,79.06c0,0.56-0.45,1.02-1.02,1.02c-0.56,0-1.02-0.45-1.02-1.02c0-0.56,0.45-1.02,1.02-1.02
			C208.67,78.04,209.12,78.5,209.12,79.06z"/>
		<path class="st264" d="M200.07,98.64c0,0.36-0.29,0.65-0.65,0.65c-0.36,0-0.65-0.29-0.65-0.65c0-0.36,0.29-0.65,0.65-0.65
			C199.78,97.99,200.07,98.28,200.07,98.64z"/>
		<circle class="st264" cx="214.94" cy="124.87" r="1.57"/>
		<path class="st264" d="M211.34,67.52c0,0.41-0.33,0.74-0.74,0.74c-0.41,0-0.74-0.33-0.74-0.74c0-0.41,0.33-0.74,0.74-0.74
			C211.01,66.78,211.34,67.11,211.34,67.52z"/>
		<path class="st264" d="M224.62,110.9c0,0.71-0.58,1.29-1.29,1.29c-0.71,0-1.29-0.58-1.29-1.29c0-0.71,0.58-1.29,1.29-1.29
			C224.04,109.61,224.62,110.19,224.62,110.9z"/>
		<path class="st264" d="M223.34,86.82c0,0.56-0.45,1.02-1.02,1.02c-0.56,0-1.02-0.45-1.02-1.02c0-0.56,0.45-1.02,1.02-1.02
			C222.89,85.8,223.34,86.26,223.34,86.82z"/>
	</g>
	<g class="st245">
		<path class="st125" d="M268.01,49.76c-11.6,7.25-18.43,20.62-30.26,27.48c0,0,10.23-3.33,13.02-8.7
			C253.56,63.16,268.01,49.76,268.01,49.76z"/>
		<g>
			<path class="st125" d="M267.89,49.55c-11.55,7.55-18.43,20.28-30.26,27.48c-0.22,0.14-0.08,0.53,0.18,0.44
				c2.77-0.93,5.52-2.19,7.97-3.77c3.45-2.23,4.95-5.14,7.4-8.25c4.43-5.62,9.76-10.65,15-15.52c0.23-0.21-0.11-0.55-0.34-0.34
				c-3.42,3.18-6.76,6.46-9.97,9.85c-4.28,4.51-7.54,10.87-12.82,14.16c-2.1,1.31-4.71,2.83-7.15,3.34
				c2.99-0.62,6.47-4.11,8.92-6.48c7.12-6.88,12.91-15,21.3-20.49C268.39,49.8,268.15,49.38,267.89,49.55z"/>
		</g>
	</g>
	<g class="st245">
		<path class="st237" d="M240.58,75.38c1.51-4.11,1.15-8.75,2.8-12.8c0.1-0.24,0.32-0.52,0.55-0.41c0.11,0.06,0.16,0.19,0.19,0.32
			c0.41,1.58,0.16,3.25-0.1,4.87c-0.32,1.99-0.65,3.98-0.98,5.97"/>
		<g>
			<path class="st237" d="M240.81,75.44c1.1-3.3,1.2-6.76,1.98-10.13c0.18-0.78,0.01-2.14,0.9-1.35c0.83,0.73,0.25,2.35,0.1,3.33
				c-0.3,2-0.65,3.98-0.98,5.97c-0.05,0.3,0.41,0.43,0.46,0.13c0.38-2.32,0.85-4.65,1.13-6.98c0.16-1.34,0.47-3.13-0.27-4.37
				c-0.06-0.1-0.16-0.13-0.27-0.11c-1.36,0.29-1.52,3.09-1.73,4.17c-0.6,3.09-0.78,6.2-1.79,9.21
				C240.25,75.61,240.71,75.74,240.81,75.44L240.81,75.44z"/>
		</g>
	</g>
	<g class="st245">
		<path class="st125" d="M244.35,72.34c0.87-3.24,1.41-6.56,2.28-9.8c0.87-3.24,2.11-6.44,4.19-9.07c0.51-0.64,1.12-1.28,1.92-1.43
			c-0.06,0.67-0.39,1.29-0.71,1.88c-2.77,5.12-5.61,10.52-5.66,16.35"/>
		<g>
			<path class="st125" d="M244.58,72.4c0.53-2.07,3.62-19.9,7.24-18.6c-0.37-0.13-3.6,7.24-3.88,7.97c-1.07,2.77-1.67,5.54-1.81,8.5
				c-0.01,0.31,0.46,0.31,0.48,0c0.2-4.21,1.44-7.88,3.25-11.67c1.03-2.14,2.49-4.19,3.1-6.5c0.06-0.21-0.17-0.36-0.35-0.27
				c-6.36,3.17-6.99,14.51-8.5,20.44C244.04,72.57,244.5,72.7,244.58,72.4L244.58,72.4z"/>
		</g>
	</g>
	<g class="st245">
		<path class="st237" d="M255.92,60.22c1.51-4.57,1.85-9.67,4.63-13.6c0.4-0.57,0.86-1.12,1.45-1.51c0.22-0.15,0.53-0.26,0.73-0.09
			c0.18,0.15,0.16,0.43,0.12,0.66c-0.68,3.77-3.28,7.04-3.7,10.85"/>
		<g>
			<path class="st237" d="M256.15,60.29c1.35-4.33,1.76-9.3,4.35-13.14c0.32-0.52,0.69-0.99,1.13-1.42c0.86,0.42,1.03,1,0.52,1.75
				c-0.02,1.15-0.99,2.46-1.44,3.51c-0.78,1.8-1.47,3.55-1.78,5.5c-0.05,0.3,0.41,0.43,0.46,0.13c0.57-3.64,3.18-6.77,3.59-10.39
				c0.08-0.71,0.34-1.5-0.67-1.49c-1.47,0.01-2.99,3.42-3.39,4.32c-1.59,3.53-2.08,7.44-3.23,11.12
				C255.6,60.45,256.06,60.58,256.15,60.29L256.15,60.29z"/>
		</g>
	</g>
	<g class="st245">
		<path class="st127" d="M258.15,58.02c0.59-3.02,1.26-6.21,3.33-8.49c0.16-0.17,0.33-0.34,0.55-0.42c0.22-0.07,0.5-0.02,0.62,0.18
			c0.11,0.19,0.05,0.43-0.02,0.64c-0.63,1.93-1.25,3.87-1.88,5.8"/>
		<g>
			<path class="st127" d="M258.38,58.08c0.48-2.42,0.97-4.94,2.28-7.06c0.3-0.48,1.02-2.06,1.73-1.16c0.13,0.17-0.57,1.76-0.63,1.93
				c-0.42,1.29-0.84,2.58-1.25,3.87c-0.1,0.29,0.37,0.42,0.46,0.13c0.25-0.77,3.3-7.5,0.96-6.9c-1.15,0.29-2.07,2.48-2.47,3.41
				c-0.78,1.8-1.17,3.74-1.55,5.66C257.86,58.26,258.32,58.39,258.38,58.08L258.38,58.08z"/>
		</g>
	</g>
	<g class="st245">
		<path class="st127" d="M256.38,61.48c2.51-1.49,5.16-2.76,7.91-3.76c0.29-0.11,0.77-0.08,0.74,0.23
			c-0.01,0.09-0.08,0.17-0.14,0.24c-2.78,3.05-7.31,3.76-10.6,6.24c0.77-0.99,1.55-1.97,2.32-2.96"/>
		<g>
			<path class="st127" d="M256.51,61.68c1.61-0.94,3.25-1.81,4.95-2.56c0.71-0.32,1.43-0.61,2.15-0.89
				c0.69-0.51,0.92-0.43,0.68,0.23c-0.07,0.56-1.64,1.28-2.15,1.59c-2.59,1.54-5.5,2.41-7.97,4.17c0.1,0.13,0.19,0.25,0.29,0.38
				c0.77-0.99,1.55-1.97,2.32-2.96c0.19-0.24-0.15-0.58-0.34-0.34c-0.77,0.99-1.55,1.97-2.32,2.96c-0.15,0.19,0.05,0.55,0.29,0.38
				c2.05-1.46,4.38-2.32,6.62-3.44c0.79-0.4,4.2-1.99,4.22-3.15c0.03-1.87-8.26,2.81-8.99,3.23C256,61.43,256.24,61.84,256.51,61.68
				L256.51,61.68z"/>
		</g>
	</g>
	<g class="st245">
		<path class="st125" d="M253.94,64.58c4.34-1.9,8.55-4.48,13.27-4.82c0.36,0.52-0.22,1.18-0.75,1.53c-4.53,2.96-10.01,4.01-15,6.12
			c0.86-1.01,1.72-2.01,2.59-3.02"/>
		<g>
			<path class="st125" d="M254.06,64.78c2.64-1.19,5.22-2.59,7.96-3.57c0.3-0.11,2.82-1.12,3.11-0.91c1.86,1.31-1.95,2.51-2.57,2.78
				c-2.31,1.02-4.71,1.77-7.1,2.59c-0.21,0.07-2.9,1.26-3.06,1.11c-0.09-0.08,1.48-1.82,1.81-2.21c0.2-0.23-0.14-0.57-0.34-0.34
				c-0.86,1.01-1.72,2.01-2.59,3.02c-0.14,0.16-0.01,0.5,0.23,0.4c3.7-1.51,7.6-2.52,11.26-4.13c1.47-0.65,4.99-1.69,4.66-3.82
				c-0.01-0.09-0.14-0.19-0.23-0.18c-4.86,0.53-9.01,2.88-13.39,4.85C253.54,64.5,253.78,64.91,254.06,64.78L254.06,64.78z"/>
		</g>
	</g>
	<g class="st245">
		<path class="st125" d="M267.62,49.63c1.36-1.89,2.52-3.93,3.46-6.06c0.47-1.06,0.87-2.3,0.38-3.35c-0.68,0.31-1.18,0.91-1.62,1.52
			c-1.98,2.75-3.04,6.05-4.07,9.28c0.6-0.56,1.19-1.12,1.79-1.68"/>
		<g>
			<path class="st125" d="M267.83,49.75c1.71-2.44,4.82-6.42,3.86-9.6c-0.04-0.15-0.22-0.22-0.35-0.14
				c-3.4,2.02-4.68,7.44-5.79,10.94c-0.08,0.24,0.23,0.39,0.4,0.23c0.6-0.56,1.19-1.12,1.79-1.68c0.22-0.21-0.11-0.55-0.34-0.34
				c-0.6,0.56-1.19,1.12-1.79,1.68c0.13,0.08,0.27,0.16,0.4,0.23c0.98-3.07,1.96-6.26,3.84-8.92c0.84-1.2,1.42-1.46,1.38,0.35
				c-0.02,0.86-0.78,1.91-1.18,2.69c-0.77,1.51-1.65,2.93-2.63,4.31C267.24,49.76,267.65,50,267.83,49.75L267.83,49.75z"/>
		</g>
	</g>
	<g class="st245">
		<path class="st127" d="M267.49,49.71c0.9-1.09,1.8-2.17,2.69-3.26c1.07-1.29,2.16-2.61,3.6-3.46c0.16-0.1,0.33-0.19,0.52-0.19
			c0.19,0,0.39,0.13,0.4,0.31c0.01,0.14-0.07,0.26-0.15,0.37c-1.78,2.46-4.08,4.54-6.71,6.06"/>
		<g>
			<path class="st127" d="M267.66,49.88c1-1.2,1.98-2.42,2.99-3.61c0.44-0.53,0.89-1.05,1.37-1.54c0.39-0.4,1.35-1.52,1.89-1.53
				c0.95-0.02-0.42,1.29-0.71,1.62c-0.47,0.54-0.97,1.06-1.49,1.55c-1.21,1.14-2.55,2.12-3.97,2.97c-0.26,0.16-0.02,0.57,0.24,0.41
				c1.81-1.08,3.47-2.36,4.92-3.89c0.42-0.44,2.63-2.32,1.87-3.12c-1.42-1.49-6.75,5.98-7.43,6.8
				C267.13,49.78,267.46,50.12,267.66,49.88L267.66,49.88z"/>
		</g>
	</g>
	<g class="st245">
		<path class="st237" d="M267.86,49.92c2.57-0.92,5.16-1.84,7.87-2.22c0.42-0.06,0.91-0.09,1.22,0.2c0.14,0.13,0.23,0.35,0.14,0.52
			c-0.07,0.13-0.23,0.19-0.38,0.24c-2.11,0.7-4.34,1.03-6.57,0.98c-0.7-0.02-1.44-0.07-2.09,0.21"/>
		<g>
			<path class="st237" d="M267.93,50.16c1.39-0.5,2.79-1,4.21-1.41c0.76-0.22,1.53-0.43,2.31-0.58c0.5-0.1,2.6-0.77,1.56,0.47
				c-0.19,0.23-1.66,0.41-1.95,0.46c-0.85,0.16-1.72,0.25-2.59,0.29c-1.18,0.05-2.34-0.11-3.49,0.23c-0.29,0.09-0.17,0.55,0.13,0.46
				c1.09-0.33,9.66,0.03,9.22-1.99c-0.47-2.17-8.4,1.2-9.54,1.6C267.51,49.8,267.64,50.26,267.93,50.16L267.93,50.16z"/>
		</g>
	</g>
	<g class="st245">
		<path class="st127" d="M266.89,51.05c2.61,0.07,5.24,0.14,7.83-0.19c1.05-0.13,2.18-0.32,3.11,0.18
			c-0.63,0.72-1.57,1.09-2.51,1.25c-0.94,0.15-1.9,0.1-2.85,0.09c-2.92-0.04-5.84,0.32-8.66,1.06c1.19-0.69,2.3-1.51,3.3-2.45"/>
		<g>
			<path class="st127" d="M266.89,51.29c2.29,0.06,4.58,0.12,6.86-0.08c0.31-0.03,4.07-0.75,2.22,0.7
				c-0.76,0.59-3.02,0.23-3.97,0.24c-1.97,0.01-3.93,0.19-5.87,0.54c-0.48,0.08-0.96,0.18-1.43,0.29c-0.17,0.47,0.04,0.4,0.63-0.22
				c0.62-0.56,1.34-1.04,1.96-1.6c0.23-0.21-0.11-0.54-0.34-0.34c-1.02,0.91-2.09,1.7-3.25,2.41c-0.23,0.14-0.08,0.5,0.18,0.44
				c3.19-0.78,6.29-0.98,9.55-1.03c1.76-0.03,3.23-0.2,4.57-1.42c0.14-0.13,0.05-0.34-0.11-0.4c-1.55-0.55-3.03-0.17-4.64-0.05
				c-2.12,0.16-4.25,0.1-6.37,0.04C266.58,50.81,266.58,51.29,266.89,51.29L266.89,51.29z"/>
		</g>
	</g>
	<g class="st245">
		<path class="st237" d="M247.72,72.33c0.88-0.33,1.83-0.42,2.75-0.59c0.92-0.17,1.86-0.43,2.59-1.02c0.07-0.06,0.14-0.12,0.15-0.21
			c0.02-0.19-0.23-0.28-0.43-0.29c-0.94-0.07-1.89-0.08-2.84-0.05c-0.12,0-0.25,0.01-0.36,0.06c-0.12,0.06-0.2,0.16-0.28,0.26
			c-0.46,0.56-0.92,1.12-1.38,1.68"/>
		<g>
			<path class="st237" d="M247.78,72.56c0.57-0.19,6.44-0.98,5.58-2.33c-0.13-0.2-0.38-0.21-0.58-0.25
				c-0.74-0.17-1.67-0.08-2.43-0.06c-1.34,0.04-1.79,1.1-2.6,2.08c-0.19,0.24,0.14,0.58,0.34,0.34c0.66-0.8,1.17-1.76,2.26-1.94
				c0.38-0.07,0.83-0.01,1.22,0c0.27,0.01,0.54,0.02,0.81,0.03c0.34,0.17,0.39,0.29,0.13,0.38c-0.18,0.44-1.87,0.66-2.3,0.73
				c-0.87,0.15-1.71,0.28-2.55,0.55C247.36,72.2,247.49,72.66,247.78,72.56L247.78,72.56z"/>
		</g>
	</g>
	<g>
		<g class="st245">
			<path class="st127" d="M225.42,201.79c-10.48,0.8-21.2-2.36-29.58-8.71c-5.32-4.03-9.81-9.58-11.07-16.13
				c-0.34-1.77-0.44-3.6-0.04-5.36c1.12-4.96,6.16-8.37,11.24-8.78c5.07-0.41,10.06,1.66,14.29,4.49
				c5.56,3.71,10.22,8.85,13.03,14.91c2.82,6.06,3.73,13.05,2.2,19.56c-0.08-0.39-0.16-0.77-0.24-1.16"/>
		</g>
		<path class="st246" d="M188.02,184.23c0,0,33.57,14.06,33-5.63c0,0,8.18,10.9,4.47,23.17
			C225.49,201.77,200.4,205.04,188.02,184.23z"/>
		<g class="st245">
			<path class="st237" d="M183.56,157.82c-2.37,0.82-4.42,2.51-5.68,4.68c-0.25,0.43-0.44,1.06-0.05,1.37
				c0.24,0.19,0.59,0.15,0.89,0.08c3.13-0.71,5.67-2.91,8.07-5.03c-0.94-0.45-1.95-0.77-2.98-0.94"/>
			<g>
				<path class="st237" d="M183.5,157.59c-1.82,0.69-3.43,1.73-4.7,3.21c-0.55,0.64-2.05,2.26-1.18,3.18
					c0.75,0.8,2.73-0.28,3.46-0.62c2.2-1.04,4.07-2.68,5.88-4.28c0.11-0.09,0.09-0.31-0.05-0.38c-0.99-0.44-1.97-0.76-3.03-0.97
					c-0.3-0.06-0.43,0.4-0.13,0.46c0.44,0.09,2.36,0.3,2.42,0.94c0.01,0.12-1.28,1.1-1.38,1.18c-1.22,1-2.51,1.95-3.95,2.62
					c-0.52,0.25-1.05,0.45-1.61,0.61c-0.39-0.31-0.77-0.63-1.16-0.94c-0.12-0.45,1.33-1.81,1.6-2.07c1.12-1.13,2.46-1.94,3.94-2.5
					C183.91,157.94,183.79,157.48,183.5,157.59L183.5,157.59z"/>
			</g>
		</g>
		<g class="st245">
			<path class="st247" d="M185.03,158.43c-1.32,0.73-2.59,1.53-3.82,2.4"/>
			<g>
				<path class="st248" d="M184.86,158.13c-1.31,0.74-2.59,1.54-3.82,2.4c-0.37,0.26-0.02,0.86,0.35,0.6
					c1.24-0.86,2.51-1.66,3.82-2.4C185.6,158.52,185.25,157.91,184.86,158.13L184.86,158.13z"/>
			</g>
		</g>
		<g class="st245">
			<path class="st237" d="M191.63,160.76c-1.02-1.44-1.95-2.94-2.79-4.49c-0.57-1.05-1.11-2.3-0.63-3.39
				c0.08-0.17,0.19-0.35,0.36-0.43c0.39-0.2,0.83,0.15,1.12,0.48c2.63,2.96,4.54,6.48,6.26,10.05c-1.52-0.6-3-1.31-4.42-2.12"/>
			<g>
				<path class="st237" d="M191.84,160.63c-1-1.44-2-2.92-2.79-4.49c-0.91-1.07-0.75-2.09,0.47-3.05c0.33,0.37,0.65,0.75,0.95,1.14
					c0.68,0.86,1.3,1.75,1.89,2.67c0.94,1.46,1.77,2.98,2.56,4.53c0.65,1.27,0.38,1.01-0.78,0.5c-0.85-0.37-1.67-0.84-2.49-1.29
					c-0.27-0.15-0.51,0.26-0.24,0.41c1.45,0.81,2.94,1.52,4.47,2.15c0.21,0.09,0.35-0.19,0.27-0.35c-1.2-2.45-2.45-4.87-4-7.12
					c-0.62-0.91-1.98-3.51-3.2-3.56c-3.59-0.16,2,8.05,2.46,8.71C191.6,161.13,192.02,160.89,191.84,160.63L191.84,160.63z"/>
			</g>
		</g>
		<g class="st245">
			<path class="st247" d="M193.53,161.72c-0.95-1.52-1.82-3.09-2.61-4.7"/>
			<g>
				<path class="st248" d="M193.84,161.54c-0.95-1.52-1.81-3.09-2.61-4.7c-0.2-0.4-0.8-0.05-0.6,0.35c0.79,1.61,1.66,3.18,2.61,4.7
					C193.47,162.28,194.07,161.92,193.84,161.54L193.84,161.54z"/>
			</g>
		</g>
		<g class="st245">
			<path class="st237" d="M172.86,158.33c-2.32-1.07-4.4-2.64-6.06-4.58c-0.37-0.43-0.73-0.89-0.97-1.4
				c-0.07-0.14-0.13-0.29-0.1-0.44c0.07-0.33,0.5-0.42,0.84-0.4c0.96,0.06,1.87,0.45,2.68,0.96c0.81,0.5,1.53,1.13,2.26,1.75
				c1.29,1.11,2.57,2.22,3.86,3.32c-0.71,0.32-1.43,0.65-2.14,0.97"/>
			<g>
				<path class="st237" d="M172.98,158.12c-1.52-0.74-2.94-1.62-4.22-2.73c-0.64-0.56-1.25-1.16-1.8-1.81
					c-0.73-0.49-0.87-1.1-0.4-1.83c0.55,0.03,1.07,0.17,1.56,0.42c1.77,0.72,3.16,2.17,4.59,3.4c0.29,0.25,1.92,1.33,1.93,1.66
					c0.01,0.65-0.94,0.8-1.54,1.07c-0.28,0.13-0.04,0.54,0.24,0.41c0.71-0.32,1.43-0.65,2.14-0.97c0.14-0.06,0.16-0.28,0.05-0.38
					c-1.98-1.71-3.92-3.74-6.16-5.11c-0.74-0.45-2.81-1.59-3.64-0.78c-0.85,0.83,0.81,2.36,1.32,2.91c1.61,1.75,3.55,3.1,5.69,4.14
					C173.01,158.67,173.26,158.25,172.98,158.12L172.98,158.12z"/>
			</g>
		</g>
		<g class="st245">
			<path class="st247" d="M174.05,157.91c-2.04-0.93-3.87-2.28-5.36-3.95"/>
			<g>
				<path class="st248" d="M174.22,157.61c-2.02-0.95-3.79-2.25-5.29-3.9c-0.3-0.33-0.8,0.16-0.49,0.49
					c1.54,1.69,3.36,3.04,5.43,4.01C174.27,158.4,174.63,157.8,174.22,157.61L174.22,157.61z"/>
			</g>
		</g>
		<g class="st245">
			<g>
				<path class="st248" d="M198.7,164.53c-1.49,0.02-2.98,0.05-4.46,0.07c-0.45,0.01-0.45,0.71,0,0.7c1.49-0.02,2.98-0.05,4.46-0.07
					C199.15,165.22,199.15,164.52,198.7,164.53L198.7,164.53z"/>
			</g>
		</g>
		<g class="st245">
			<path class="st237" d="M194.17,165.01c-0.36-0.36-0.79-0.66-1.25-0.87c-0.37-0.17-0.78-0.3-1.19-0.23
				c-0.4,0.07-0.79,0.37-0.85,0.78c-0.04,0.26,0.06,0.52,0.21,0.73c0.26,0.37,0.68,0.62,1.13,0.68c0.84,0.11,1.61-0.45,2.26-1"/>
			<g>
				<path class="st237" d="M194.33,164.84c-0.65-0.62-1.64-1.33-2.6-1.18c-0.62,0.1-1.16,0.61-1.08,1.27
					c0.09,0.73,0.81,1.28,1.5,1.38c0.96,0.14,1.8-0.48,2.49-1.07c0.24-0.2-0.1-0.54-0.34-0.34c-0.78,0.66-2.05,1.48-2.93,0.47
					c-0.38-0.44-0.22-1.01,0.34-1.2c0.37-0.13,0.74,0,1.08,0.16c0.45,0.2,0.84,0.5,1.2,0.84
					C194.22,165.39,194.56,165.05,194.33,164.84L194.33,164.84z"/>
			</g>
		</g>
		<g class="st245">
			<g>
				<path class="st248" d="M188.65,159.09c-1.27-1.28-2.41-2.67-3.42-4.17c-0.25-0.37-0.86-0.02-0.6,0.35
					c1.04,1.55,2.22,2.99,3.53,4.31C188.47,159.9,188.97,159.41,188.65,159.09L188.65,159.09z"/>
			</g>
		</g>
		<g class="st245">
			<path class="st237" d="M184.84,154.99c-0.81-0.26-1.5-0.84-1.9-1.59c-0.23-0.44-0.33-1.07,0.07-1.37
				c0.24-0.18,0.59-0.17,0.86-0.03c0.27,0.14,0.46,0.38,0.62,0.64c0.37,0.62,0.53,1.36,0.45,2.08"/>
			<g>
				<path class="st237" d="M184.91,154.76c-0.81-0.29-1.95-1.11-1.93-2.1c0.01-0.57,0.67-0.59,1.01-0.29
					c0.24,0.21,0.41,0.57,0.52,0.86c0.18,0.48,0.23,0.98,0.19,1.48c-0.02,0.31,0.45,0.31,0.48,0c0.07-0.88-0.14-1.86-0.73-2.55
					c-0.41-0.48-1.22-0.77-1.71-0.21c-0.43,0.49-0.21,1.23,0.09,1.72c0.44,0.74,1.15,1.26,1.95,1.54
					C185.07,155.32,185.2,154.86,184.91,154.76L184.91,154.76z"/>
			</g>
		</g>
		<g class="st245">
			<g>
				<path class="st248" d="M173.81,158.65c10.86-3.35,23.35,4.85,31.83,11.45c8.32,6.48,9.81,16.15,8.2,26.13
					c-0.07,0.44,0.6,0.63,0.67,0.19c1.63-10.13,0.23-19.94-8.13-26.62c-3.68-2.95-7.91-5.6-12.1-7.7
					c-7.04-3.52-12.75-6.56-20.67-4.12C173.19,158.11,173.38,158.78,173.81,158.65L173.81,158.65z"/>
			</g>
		</g>
		<g class="st245">
			<path class="st125" d="M212.8,199.58c0.55-3.39-0.31-6.91-1.98-9.91c-1.67-3-4.1-5.52-6.76-7.69c-2.05-1.67-4.3-3.18-6.85-3.85
				c-2.55-0.67-5.46-0.4-7.54,1.23c-2.08,1.63-3.05,4.41-2.9,7.05c0.16,2.64,1.31,5.13,2.84,7.29c4.08,5.77,16.17,5.97,23.24,6.04"
				/>
		</g>
		<g class="st245">
			<g>
				<path class="st248" d="M211.67,197.65c-9.02-5.17-18.38-9.6-28.08-13.31c-0.42-0.16-0.6,0.51-0.19,0.67
					c9.65,3.69,18.95,8.1,27.92,13.24C211.71,198.48,212.06,197.87,211.67,197.65L211.67,197.65z"/>
			</g>
		</g>
		<g class="st245">
			<g>
				<path class="st248" d="M187.18,185.66c-1.11-1.58-2.13-3.21-3.05-4.9c-0.21-0.4-0.82-0.04-0.6,0.35
					c0.92,1.69,1.94,3.33,3.05,4.9C186.83,186.38,187.44,186.03,187.18,185.66L187.18,185.66z"/>
			</g>
		</g>
		<g class="st245">
			<path class="st237" d="M180.79,179.46c-0.95-1.36-1.8-2.8-2.54-4.28c-0.22-0.44-0.43-0.89-0.47-1.38
				c-0.04-0.49,0.14-1.02,0.55-1.29c0.16-0.1,0.36-0.16,0.55-0.12c0.32,0.07,0.52,0.38,0.68,0.66c1.25,2.16,2.5,4.32,3.75,6.47
				c-0.85,0.16-1.71,0.2-2.57,0.13"/>
			<g>
				<path class="st237" d="M180.99,179.34c-0.56-0.82-1.1-1.66-1.6-2.53c-0.25-0.43-0.49-0.87-0.71-1.31
					c-0.22-0.42-0.42-0.85-0.58-1.29c0.64-1.23,1.11-1.49,1.41-0.79c0.69,0.6,1.27,2.19,1.73,2.99c0.62,1.08,1.25,2.16,1.87,3.24
					c0.05-0.12,0.1-0.23,0.14-0.35c-0.85,0.13-1.65,0.17-2.51,0.12c-0.31-0.02-0.31,0.46,0,0.48c0.89,0.05,1.75,0,2.63-0.14
					c0.16-0.02,0.21-0.23,0.14-0.35c-1.15-1.99-2.29-3.99-3.46-5.98c-0.38-0.65-0.82-1.57-1.72-1.18c-2.55,1.11,1.46,6.2,2.23,7.33
					C180.75,179.84,181.17,179.6,180.99,179.34L180.99,179.34z"/>
			</g>
		</g>
		<g class="st245">
			<path class="st247" d="M181.93,179.6c-0.8-1.25-1.56-2.54-2.28-3.84"/>
			<g>
				<path class="st248" d="M182.23,179.42c-0.8-1.26-1.56-2.54-2.28-3.84c-0.22-0.39-0.82-0.04-0.6,0.35
					c0.72,1.3,1.48,2.58,2.28,3.84C181.86,180.15,182.47,179.8,182.23,179.42L182.23,179.42z"/>
			</g>
		</g>
		<g class="st245">
			<path class="st237" d="M177.4,179.29c-0.4-0.02-0.81-0.05-1.21-0.07c-1.56-0.09-3.27-0.13-4.49,0.83
				c-0.23,0.18-0.45,0.48-0.32,0.75c0.11,0.21,0.38,0.26,0.61,0.29c2.01,0.2,4.06,0.11,6.05-0.28c0.06-0.01,0.13-0.03,0.16-0.08
				c0.04-0.06,0-0.14-0.04-0.2c-0.25-0.4-0.56-0.76-0.91-1.07"/>
			<g>
				<path class="st237" d="M177.4,179.05c-1.47-0.08-3.03-0.29-4.47,0.13c-0.59,0.17-2.07,0.73-1.79,1.62
					c0.25,0.79,1.79,0.61,2.37,0.62c1.38,0.04,3.54,0.18,4.81-0.49c0.1-0.05,0.13-0.17,0.11-0.27c-0.11-0.56-0.63-1-1.02-1.38
					c-0.22-0.21-0.56,0.12-0.34,0.34c0.3,0.14,0.42,0.37,0.37,0.68c0.17,0.54-0.13,0.7-0.9,0.49c-0.5,0.06-1.01,0.1-1.51,0.12
					c-0.42,0.02-0.84,0.02-1.27,0.02c-0.67-0.01-1.16,0.18-1.43-0.49c-0.29-0.74,0.34-0.72,0.93-0.87c0.53-0.13,1.09-0.16,1.63-0.17
					c0.84-0.01,1.67,0.06,2.51,0.11C177.71,179.55,177.71,179.07,177.4,179.05L177.4,179.05z"/>
			</g>
		</g>
		<g class="st245">
			<path class="st247" d="M177.59,179.83c-0.92,0.17-1.86,0.22-2.79,0.16"/>
			<g>
				<path class="st248" d="M177.49,179.5c-0.89,0.16-1.79,0.2-2.69,0.15c-0.45-0.03-0.45,0.67,0,0.7c0.97,0.06,1.92,0,2.88-0.17
					C178.12,180.09,177.93,179.42,177.49,179.5L177.49,179.5z"/>
			</g>
		</g>
		<path class="st265" d="M182.77,182.91c0,0.52-0.42,0.94-0.94,0.94s-0.94-0.42-0.94-0.94c0-0.52,0.42-0.94,0.94-0.94
			S182.77,182.4,182.77,182.91z"/>
	</g>
	<g>
		<g class="st245">
			<path class="st127" d="M241.98,200.61c10.46-0.96,20.52-5.86,27.71-13.51c4.57-4.86,8.08-11.08,8.24-17.75
				c0.04-1.8-0.17-3.62-0.85-5.29c-1.93-4.71-7.47-7.23-12.54-6.79s-9.64,3.31-13.34,6.81c-4.86,4.59-8.6,10.42-10.37,16.87
				c-1.77,6.45-1.51,13.49,1.08,19.65c0.02-0.39,0.03-0.79,0.05-1.18"/>
		</g>
		<path class="st246" d="M260.87,158.16c0,0-18.38,27.56-10.31,32.44c8.06,4.88,12.75,2.44,12.75,2.44s-19.31,9.94-22.13,9
			C238.37,201.1,235.93,166.97,260.87,158.16z"/>
		<g class="st245">
			<path class="st125" d="M255.57,202.15c-0.34-3.42,0.74-6.88,2.59-9.77c1.85-2.89,4.44-5.25,7.23-7.26
				c2.15-1.54,4.49-2.91,7.08-3.42c2.59-0.51,5.48-0.06,7.45,1.69c1.98,1.75,2.77,4.59,2.45,7.22c-0.32,2.62-1.63,5.04-3.29,7.1
				c-4.43,5.5-16.51,4.95-23.57,4.59"/>
		</g>
		<g class="st245">
			<g>
				<path class="st248" d="M255.9,201.94c11.32-4.83,21.09-10.53,25.05-22.85c0.14-0.43-0.54-0.61-0.67-0.19
					c-3.89,12.11-13.69,17.72-24.73,22.43C255.13,201.51,255.49,202.11,255.9,201.94L255.9,201.94z"/>
			</g>
		</g>
		<g class="st245">
			<g>
				<path class="st248" d="M277.96,185.75c1.54-1.33,3.38-2.12,5.41-2.3c0.44-0.04,0.45-0.74,0-0.7c-2.22,0.2-4.22,1.05-5.91,2.51
					C277.12,185.55,277.62,186.04,277.96,185.75L277.96,185.75z"/>
			</g>
		</g>
		<g class="st245">
			<path class="st237" d="M283.21,177.78c1.32-1.01,2.56-2.12,3.72-3.31c0.34-0.35,0.68-0.72,0.87-1.17
				c0.18-0.45,0.18-1.02-0.13-1.39c-0.12-0.15-0.3-0.27-0.49-0.28c-0.33-0.03-0.61,0.2-0.85,0.42c-1.85,1.67-3.7,3.35-5.54,5.02
				c0.76,0.41,1.57,0.71,2.41,0.9"/>
			<g>
				<path class="st237" d="M283.38,177.95c1.05-0.82,6.48-4.47,4.34-6.31c-0.8-0.69-1.59,0.25-2.17,0.77
					c-1.65,1.5-3.3,2.99-4.95,4.49c-0.11,0.1-0.09,0.31,0.05,0.38c0.8,0.4,1.59,0.7,2.47,0.93c0.3,0.08,0.43-0.38,0.13-0.46
					c-0.82-0.21-1.59-0.5-2.35-0.88c0.02,0.13,0.03,0.25,0.05,0.38c0.92-0.84,1.85-1.67,2.77-2.51c0.76-0.69,1.67-1.93,2.57-2.33
					c0.47-0.55,0.85-0.18,1.13,1.11c-0.19,0.29-0.42,0.56-0.66,0.8c-0.34,0.37-0.7,0.71-1.07,1.05c-0.85,0.8-1.74,1.54-2.65,2.26
					C282.8,177.8,283.14,178.14,283.38,177.95L283.38,177.95z"/>
			</g>
		</g>
		<g class="st245">
			<path class="st247" d="M282.09,177.56c1.15-0.95,2.26-1.94,3.34-2.96"/>
			<g>
				<path class="st248" d="M282.33,177.81c1.14-0.95,2.26-1.94,3.34-2.96c0.33-0.31-0.17-0.8-0.49-0.49
					c-1.08,1.02-2.19,2.01-3.34,2.96C281.49,177.6,281.99,178.1,282.33,177.81L282.33,177.81z"/>
			</g>
		</g>
		<g class="st245">
			<path class="st237" d="M286.49,178.64c0.39,0.1,0.78,0.2,1.18,0.3c1.51,0.39,3.15,0.87,4.02,2.16c0.16,0.24,0.29,0.6,0.08,0.81
				c-0.17,0.17-0.44,0.14-0.67,0.09c-1.98-0.42-3.9-1.13-5.67-2.11c-0.05-0.03-0.11-0.07-0.12-0.13c-0.01-0.07,0.05-0.13,0.1-0.18
				c0.36-0.3,0.76-0.55,1.2-0.74"/>
			<g>
				<path class="st237" d="M286.42,178.87c0.86,0.22,1.74,0.41,2.58,0.71c0.43,0.15,0.87,0.33,1.26,0.56
					c0.29,0.16,0.55,0.36,0.79,0.59c0.56,0.34,0.57,0.57,0.03,0.71c-0.71,0.5-2.3-0.31-3.07-0.61c-0.38-0.15-1.31-0.4-1.66-0.72
					c-0.48-0.07-0.57-0.32-0.28-0.74c0.2-0.12,0.41-0.23,0.62-0.32c0.28-0.13,0.04-0.54-0.24-0.41c-0.49,0.23-1.11,0.51-1.38,1
					c-0.05,0.09-0.04,0.21,0.04,0.29c0.92,0.93,2.87,1.45,4.1,1.82c0.63,0.2,2.56,1.07,2.87,0c0.22-0.76-0.9-1.6-1.43-1.93
					c-1.23-0.78-2.72-1.05-4.11-1.41C286.25,178.34,286.13,178.8,286.42,178.87L286.42,178.87z"/>
			</g>
		</g>
		<g class="st245">
			<path class="st247" d="M286.15,179.11c0.82,0.44,1.7,0.78,2.61,1"/>
			<g>
				<path class="st248" d="M285.97,179.41c0.86,0.45,1.75,0.8,2.69,1.03c0.44,0.11,0.62-0.56,0.19-0.67
					c-0.88-0.22-1.72-0.54-2.52-0.96C285.93,178.6,285.57,179.2,285.97,179.41L285.97,179.41z"/>
			</g>
		</g>
		<path class="st266" d="M279.81,177.94c0,0.47-0.38,0.84-0.84,0.84c-0.47,0-0.84-0.38-0.84-0.84c0-0.47,0.38-0.84,0.84-0.84
			C279.43,177.1,279.81,177.48,279.81,177.94z"/>
		<g class="st245">
			<path class="st237" d="M273.47,157.55c2.5,0.22,4.9,1.37,6.65,3.16c0.35,0.36,0.68,0.92,0.38,1.32
				c-0.19,0.25-0.54,0.29-0.85,0.29c-3.21,0.07-6.21-1.45-9.05-2.92c0.8-0.67,1.7-1.22,2.66-1.64"/>
			<g>
				<path class="st237" d="M273.47,157.79c1.64,0.2,3.18,0.68,4.58,1.56c0.49,0.31,1.76,0.93,1.9,1.53c0.44,1.87-1.71,1.16-2.6,0.98
					c-1.56-0.3-3.03-0.91-4.46-1.59c-0.31-0.15-0.63-0.3-0.94-0.46c-0.64-0.07-0.78-0.28-0.42-0.64c0.19-0.63,1.32-0.97,1.85-1.22
					c0.28-0.13,0.04-0.54-0.24-0.41c-0.98,0.46-1.86,1.01-2.71,1.68c-0.12,0.09-0.08,0.31,0.05,0.38c2.05,1.06,4.15,2.15,6.41,2.65
					c0.82,0.18,3.25,0.86,3.83-0.14c0.61-1.06-0.98-2.14-1.65-2.64c-1.65-1.24-3.55-1.92-5.59-2.16
					C273.17,157.28,273.17,157.76,273.47,157.79L273.47,157.79z"/>
			</g>
		</g>
		<g class="st245">
			<path class="st247" d="M272.2,158.51c1.45,0.39,2.89,0.86,4.29,1.4"/>
			<g>
				<path class="st248" d="M272.1,158.84c1.45,0.4,2.88,0.86,4.29,1.4c0.42,0.16,0.6-0.51,0.19-0.67c-1.41-0.54-2.84-1-4.29-1.4
					C271.85,158.05,271.67,158.72,272.1,158.84L272.1,158.84z"/>
			</g>
		</g>
		<g class="st245">
			<path class="st237" d="M266.35,162.36c0.64-1.64,1.18-3.33,1.62-5.03c0.3-1.15,0.52-2.5-0.21-3.44
				c-0.12-0.15-0.26-0.29-0.45-0.33c-0.43-0.1-0.77,0.35-0.97,0.74c-1.83,3.51-2.83,7.39-3.64,11.27c1.33-0.95,2.59-2,3.77-3.13"/>
			<g>
				<path class="st237" d="M266.59,162.42c0.42-1.11,3.76-8.82,0.66-9.1c-1.34-0.12-2.02,2.75-2.36,3.61
					c-1.1,2.77-1.8,5.66-2.42,8.57c-0.04,0.18,0.17,0.4,0.35,0.27c1.34-0.98,2.6-2.03,3.82-3.17c0.23-0.21-0.11-0.55-0.34-0.34
					c-0.59,0.55-1.18,1.14-1.83,1.63c-0.4,0.39-0.85,0.69-1.36,0.9c0.06-0.28,0.12-0.55,0.18-0.83c-0.12-1.5,1-3.94,1.47-5.32
					c0.36-1.05,0.76-2.08,1.23-3.09c0.17-0.39,0.36-0.77,0.56-1.14c1.16,0.7,1.58,1.54,1.28,2.49c-0.09,1.71-1.11,3.81-1.7,5.39
					C266.02,162.58,266.48,162.71,266.59,162.42L266.59,162.42z"/>
			</g>
		</g>
		<g class="st245">
			<path class="st247" d="M264.75,163.75c0.55-1.7,1.02-3.44,1.39-5.19"/>
			<g>
				<path class="st248" d="M265.08,163.85c0.55-1.71,1.01-3.44,1.39-5.19c0.09-0.44-0.58-0.63-0.67-0.19
					c-0.38,1.75-0.84,3.48-1.39,5.19C264.27,164.09,264.95,164.27,265.08,163.85L265.08,163.85z"/>
			</g>
		</g>
		<g class="st245">
			<path class="st237" d="M283.98,155.44c1.99-1.6,3.62-3.63,4.77-5.91c0.26-0.51,0.49-1.04,0.6-1.59c0.03-0.15,0.05-0.31-0.01-0.45
				c-0.15-0.31-0.59-0.29-0.91-0.18c-0.91,0.29-1.7,0.89-2.37,1.58c-0.66,0.69-1.21,1.47-1.76,2.25c-0.98,1.39-1.96,2.77-2.93,4.16
				c0.77,0.14,1.54,0.28,2.31,0.42"/>
			<g>
				<path class="st237" d="M284.15,155.61c0.92-0.76,7.38-7.44,5.05-8.55c-1.13-0.54-2.86,1.16-3.51,1.86
					c-1.72,1.88-3.08,4.17-4.54,6.24c-0.08,0.12,0,0.32,0.14,0.35c0.77,0.14,1.54,0.28,2.31,0.42c0.3,0.06,0.43-0.41,0.13-0.46
					c-0.53-0.1-1.65-0.07-1.8-0.59c-0.1-0.32,1.39-1.97,1.65-2.34c1.07-1.52,2.1-3.35,3.69-4.4c0.24-0.16,0.97-0.69,1.22-0.62
					c0.8,0.24,0.24,1.48,0.05,1.88c-0.32,0.65-0.7,1.29-1.1,1.89c-1.01,1.51-2.24,2.82-3.63,3.97
					C283.57,155.47,283.91,155.81,284.15,155.61L284.15,155.61z"/>
			</g>
		</g>
		<g class="st245">
			<path class="st247" d="M282.73,155.33c1.75-1.39,3.2-3.15,4.24-5.14"/>
			<g>
				<path class="st248" d="M282.97,155.58c1.77-1.44,3.22-3.19,4.29-5.21c0.21-0.4-0.39-0.75-0.6-0.35
					c-1.05,1.97-2.46,3.66-4.19,5.07C282.13,155.37,282.63,155.86,282.97,155.58L282.97,155.58z"/>
			</g>
		</g>
		<g class="st245">
			<g>
				<path class="st248" d="M260.6,168.41c1.45-0.34,2.9-0.68,4.35-1.01c0.44-0.1,0.25-0.78-0.19-0.67c-1.45,0.34-2.9,0.68-4.35,1.01
					C259.97,167.84,260.16,168.52,260.6,168.41L260.6,168.41z"/>
			</g>
		</g>
		<g class="st245">
			<path class="st237" d="M264.93,167.1c0.26-0.44,0.6-0.83,1-1.15c0.32-0.26,0.69-0.48,1.09-0.51c0.41-0.03,0.86,0.17,1.01,0.55
				c0.1,0.24,0.07,0.52-0.03,0.76c-0.16,0.42-0.51,0.77-0.93,0.93c-0.79,0.31-1.68-0.04-2.44-0.43"/>
			<g>
				<path class="st237" d="M265.14,167.22c0.26-0.41,0.57-0.79,0.96-1.1c0.49-0.39,1.89-0.85,1.73,0.37
					c-0.08,0.66-0.82,1.06-1.42,1.06c-0.58,0-1.14-0.26-1.65-0.51c-0.28-0.13-0.52,0.28-0.24,0.41c0.81,0.4,1.78,0.8,2.68,0.43
					c0.66-0.28,1.25-1.02,1.11-1.78c-0.13-0.71-0.91-1.02-1.55-0.87c-0.88,0.21-1.57,1.02-2.03,1.74
					C264.56,167.24,264.97,167.48,265.14,167.22L265.14,167.22z"/>
			</g>
		</g>
		<g class="st245">
			<g>
				<path class="st248" d="M269.45,160.38c0.95-1.61,1.74-3.29,2.38-5.04c0.15-0.42-0.52-0.61-0.67-0.19
					c-0.62,1.7-1.39,3.32-2.31,4.88C268.62,160.41,269.22,160.76,269.45,160.38L269.45,160.38z"/>
			</g>
		</g>
		<g class="st245">
			<path class="st237" d="M271.54,155.11c0.72-0.45,1.25-1.18,1.46-2c0.12-0.48,0.06-1.12-0.4-1.31c-0.28-0.12-0.61-0.02-0.84,0.18
				c-0.23,0.2-0.36,0.49-0.44,0.77c-0.21,0.69-0.18,1.45,0.07,2.13"/>
			<g>
				<path class="st237" d="M271.66,155.32c0.71-0.47,1.26-1.14,1.51-1.96c0.18-0.57,0.2-1.39-0.39-1.73
					c-0.62-0.36-1.27,0.1-1.55,0.66c-0.41,0.81-0.36,1.81-0.09,2.65c0.1,0.29,0.56,0.17,0.46-0.13c-0.15-0.46-0.23-0.94-0.18-1.43
					c0.03-0.28,0.09-0.6,0.22-0.86c0.22-0.45,0.92-0.81,1.14-0.06c0.26,0.92-0.68,1.99-1.37,2.44
					C271.17,155.08,271.4,155.49,271.66,155.32L271.66,155.32z"/>
			</g>
		</g>
		<g class="st245">
			<g>
				<path class="st248" d="M283.14,155.29c-6.07-0.33-10.08,1.67-14.63,5.38c-4.56,3.73-9.23,7.48-12.53,12.44
					c-4.87,7.32-7.27,16.84-0.99,24.02c0.3,0.34,0.79-0.16,0.49-0.49c-6.31-7.22-3.38-16.98,1.69-24.03
					c5.71-7.95,15.78-17.16,25.97-16.62C283.59,156.01,283.59,155.31,283.14,155.29L283.14,155.29z"/>
			</g>
		</g>
	</g>
</g>
</svg>
