<svg xmlns="http://www.w3.org/2000/svg" xmlns:xlink="http://www.w3.org/1999/xlink" width="31.457" height="65.921" viewBox="0 0 31.457 65.921">
  <defs>
    <clipPath id="clip-path">
      <path id="Path_188" data-name="Path 188" d="M-67.877-887.8v35.484a1.294,1.294,0,0,1-1.255,1.329H-88.961a1.294,1.294,0,0,1-1.255-1.329v-37.716h0a6.668,6.668,0,0,1,.177-1.44c.857.7,2.542,1.581,5.6,1.581,5.084,0,6.086-2.434,6.086-2.434s1.79,4.726,8.234,4.726A11.456,11.456,0,0,0-67.877-887.8Z" transform="translate(90.216 892.324)" fill="none"/>
    </clipPath>
  </defs>
  <g id="Group_62" data-name="Group 62" transform="translate(112.448 990.845)">
    <g id="Group_40" data-name="Group 40" transform="translate(-112.448 -990.845)">
      <path id="Path_182" data-name="Path 182" d="M-71.962-957.992c-.06-4.294-4.141-7.888-9.639-8.887v-3.953h.907v-3.723h0a1.284,1.284,0,0,0-1.456-1.289H-87.28a1.284,1.284,0,0,0-1.456,1.289h.024v3.723h.907v3.953c-5.5,1-9.579,4.593-9.639,8.887h0v40.669a1.432,1.432,0,0,0,1.432,1.432H-73.39a1.432,1.432,0,0,0,1.432-1.432v-40.669Z" transform="translate(100.431 978.828)" fill="#fff"/>
      <path id="Path_183" data-name="Path 183" d="M-85.407-924.924h-22.626a4.42,4.42,0,0,1-4.415-4.415v-40.669c0-.073,0-.144.008-.215.152-4.8,3.831-9,9.291-10.879a2.97,2.97,0,0,1-.564-1.745V-986.2q-.017-.131-.022-.266a4.311,4.311,0,0,1,1.179-3.074,4.375,4.375,0,0,1,3.258-1.309h5.131a4.375,4.375,0,0,1,3.258,1.309,4.311,4.311,0,0,1,1.181,2.978v3.709a2.97,2.97,0,0,1-.564,1.745c5.461,1.884,9.14,6.079,9.291,10.882q.007.105.008.213v40.669A4.42,4.42,0,0,1-85.407-924.924Zm-21.074-5.967h19.523v-38.977q0-.049,0-.1c-.038-2.722-3.062-5.243-7.19-5.994A2.983,2.983,0,0,1-96.6-978.9v-3.953a2.97,2.97,0,0,1,.652-1.862q-.065-.081-.124-.167h-1.294q-.059.086-.124.167a2.971,2.971,0,0,1,.652,1.862v3.953a2.983,2.983,0,0,1-2.45,2.935c-4.128.751-7.152,3.272-7.19,5.994,0,.034,0,.068,0,.1Z" transform="translate(112.448 990.845)" fill="#fff"/>
    </g>
    <g id="Group_41" data-name="Group 41" transform="translate(-109.601 -979.174)">
      <path id="Path_184" data-name="Path 184" d="M-72.65-923c-.071-5.07-5.747-9.165-12.742-9.165S-98.062-928.07-98.133-923h0v40.669A1.432,1.432,0,0,0-96.7-880.9h22.626a1.432,1.432,0,0,0,1.432-1.432V-923Z" transform="translate(98.136 932.164)" fill="#0d2400"/>
    </g>
    <g id="Group_42" data-name="Group 42" transform="translate(-99.959 -987.002)">
      <rect id="Rectangle_403" data-name="Rectangle 403" width="6.205" height="10.883" transform="translate(0 0)" fill="#0d2400"/>
    </g>
    <g id="Group_43" data-name="Group 43" transform="translate(-100.866 -986.573)">
      <rect id="Rectangle_404" data-name="Rectangle 404" width="8.019" height="3.723" transform="translate(0)" fill="#26753e"/>
    </g>
    <g id="Group_44" data-name="Group 44" transform="translate(-100.89 -987.861)">
      <path id="Path_185" data-name="Path 185" d="M-47.749-975.844H-52.88a1.284,1.284,0,0,0-1.456,1.289h8.043A1.284,1.284,0,0,0-47.749-975.844Z" transform="translate(54.336 975.844)" fill="#cebb81"/>
    </g>
    <g id="Group_47" data-name="Group 47" transform="translate(-108.026 -971.25)">
      <g id="Group_46" data-name="Group 46" transform="translate(0 0)">
        <g id="Group_45" data-name="Group 45" clip-path="url(#clip-path)">
          <path id="Path_186" data-name="Path 186" d="M-90.216-684.484h0Z" transform="translate(90.216 725.821)" fill="#0d2400"/>
          <rect id="Rectangle_405" data-name="Rectangle 405" width="22.339" height="1.216" transform="translate(0 40.122)" fill="#0d2400"/>
          <rect id="Rectangle_406" data-name="Rectangle 406" width="22.339" height="1.216" transform="translate(0 38.906)" fill="#0d2501"/>
          <rect id="Rectangle_407" data-name="Rectangle 407" width="22.339" height="1.216" transform="translate(0 37.69)" fill="#0d2601"/>
          <rect id="Rectangle_408" data-name="Rectangle 408" width="22.339" height="1.216" transform="translate(0 36.474)" fill="#0d2702"/>
          <rect id="Rectangle_409" data-name="Rectangle 409" width="22.339" height="1.216" transform="translate(0 35.258)" fill="#0d2802"/>
          <rect id="Rectangle_410" data-name="Rectangle 410" width="22.339" height="1.216" transform="translate(0 34.043)" fill="#0d2903"/>
          <rect id="Rectangle_411" data-name="Rectangle 411" width="22.339" height="1.216" transform="translate(0 32.827)" fill="#0e2a03"/>
          <rect id="Rectangle_412" data-name="Rectangle 412" width="22.339" height="1.216" transform="translate(0 31.611)" fill="#0e2b04"/>
          <rect id="Rectangle_413" data-name="Rectangle 413" width="22.339" height="1.216" transform="translate(0 30.395)" fill="#0e2c05"/>
          <rect id="Rectangle_414" data-name="Rectangle 414" width="22.339" height="1.216" transform="translate(0 29.179)" fill="#0e2d05"/>
          <rect id="Rectangle_415" data-name="Rectangle 415" width="22.339" height="1.216" transform="translate(0 27.964)" fill="#0e2e06"/>
          <rect id="Rectangle_416" data-name="Rectangle 416" width="22.339" height="1.216" transform="translate(0 26.748)" fill="#0e2f06"/>
          <rect id="Rectangle_417" data-name="Rectangle 417" width="22.339" height="1.216" transform="translate(0 25.532)" fill="#0e3007"/>
          <rect id="Rectangle_418" data-name="Rectangle 418" width="22.339" height="1.216" transform="translate(0 24.316)" fill="#0e3107"/>
          <rect id="Rectangle_419" data-name="Rectangle 419" width="22.339" height="1.216" transform="translate(0 23.1)" fill="#0e3208"/>
          <rect id="Rectangle_420" data-name="Rectangle 420" width="22.339" height="1.216" transform="translate(0 21.884)" fill="#0e3309"/>
          <rect id="Rectangle_421" data-name="Rectangle 421" width="22.339" height="1.216" transform="translate(0 20.669)" fill="#0e3409"/>
          <rect id="Rectangle_422" data-name="Rectangle 422" width="22.339" height="1.216" transform="translate(0 19.453)" fill="#0f360a"/>
          <rect id="Rectangle_423" data-name="Rectangle 423" width="22.339" height="1.216" transform="translate(0 18.237)" fill="#0f370a"/>
          <rect id="Rectangle_424" data-name="Rectangle 424" width="22.339" height="1.216" transform="translate(0 17.021)" fill="#0f380b"/>
          <rect id="Rectangle_425" data-name="Rectangle 425" width="22.339" height="1.216" transform="translate(0 15.805)" fill="#0f390c"/>
          <rect id="Rectangle_426" data-name="Rectangle 426" width="22.339" height="1.216" transform="translate(0 14.59)" fill="#0f3a0c"/>
          <rect id="Rectangle_427" data-name="Rectangle 427" width="22.339" height="1.216" transform="translate(0 13.374)" fill="#0f3b0d"/>
          <rect id="Rectangle_428" data-name="Rectangle 428" width="22.339" height="1.216" transform="translate(0 12.158)" fill="#0f3c0d"/>
          <rect id="Rectangle_429" data-name="Rectangle 429" width="22.339" height="1.216" transform="translate(0 10.942)" fill="#0f3d0e"/>
          <rect id="Rectangle_430" data-name="Rectangle 430" width="22.339" height="1.216" transform="translate(0 9.726)" fill="#0f3e0e"/>
          <rect id="Rectangle_431" data-name="Rectangle 431" width="22.339" height="1.216" transform="translate(0 8.511)" fill="#0f3f0f"/>
          <rect id="Rectangle_432" data-name="Rectangle 432" width="22.339" height="1.216" transform="translate(0 7.295)" fill="#0f4010"/>
          <rect id="Rectangle_433" data-name="Rectangle 433" width="22.339" height="1.216" transform="translate(0 6.079)" fill="#104110"/>
          <rect id="Rectangle_434" data-name="Rectangle 434" width="22.339" height="1.216" transform="translate(0 4.863)" fill="#104211"/>
          <rect id="Rectangle_435" data-name="Rectangle 435" width="22.339" height="1.216" transform="translate(0 3.647)" fill="#104311"/>
          <rect id="Rectangle_436" data-name="Rectangle 436" width="22.339" height="1.216" transform="translate(0 2.432)" fill="#104412"/>
          <rect id="Rectangle_437" data-name="Rectangle 437" width="22.339" height="1.216" transform="translate(0 1.216)" fill="#104512"/>
          <rect id="Rectangle_438" data-name="Rectangle 438" width="22.339" height="1.216" transform="translate(0 0)" fill="#104613"/>
          <path id="Path_187" data-name="Path 187" d="M-67.877-892.324h0Z" transform="translate(90.216 892.324)" fill="#104613"/>
        </g>
      </g>
    </g>
    <g id="Group_48" data-name="Group 48" transform="translate(-106.95 -977.455)">
      <path id="Path_189" data-name="Path 189" d="M-67.745-921.648a9.481,9.481,0,0,0-6.275,4.33s-2-2.291-6.372-2.291a9.3,9.3,0,0,0-4.413,1c1.792-2.9,5.637-4.911,10.094-4.911A13.354,13.354,0,0,1-67.745-921.648Z" transform="translate(84.806 923.524)" fill="#0d2400"/>
    </g>
    <g id="Group_49" data-name="Group 49" transform="translate(-107.847 -971.957)">
      <path id="Path_190" data-name="Path 190" d="M-77.633-895.172s-1,2.434-6.086,2.434c-3.055,0-4.74-.879-5.6-1.581,1.623-.4,1.372.31,0,0a8.361,8.361,0,0,1,5.543-1.56C-79.405-895.879-77.633-895.172-77.633-895.172Z" transform="translate(89.316 895.879)" fill="#11330b"/>
    </g>
    <g id="Group_50" data-name="Group 50" transform="translate(-96.164 -975.58)">
      <path id="Path_191" data-name="Path 191" d="M-20.1-907.471v2.232a11.457,11.457,0,0,1-2.243.2c-6.444,0-8.234-4.726-8.234-4.726a9.481,9.481,0,0,1,6.275-4.33,8.065,8.065,0,0,1,4.2,6.623Z" transform="translate(30.576 914.094)" fill="#095111"/>
    </g>
    <g id="Group_51" data-name="Group 51" transform="translate(-106.207 -967.217)">
      <path id="Path_192" data-name="Path 192" d="M-81.068-864.049v23.38a1.9,1.9,0,0,0,1.895,1.895h15a2.079,2.079,0,0,0,2.079-2.079v-22.14a10.3,10.3,0,0,0-.466-3.092c-.746-2.369-2.6-5.959-6.98-5.959h-3.153a8.738,8.738,0,0,0-5.787,2.124A7.512,7.512,0,0,0-81.068-864.049Z" transform="translate(81.068 872.044)" fill="#fff"/>
    </g>
    <g id="Group_52" data-name="Group 52" transform="translate(-104.002 -962.785)">
      <path id="Path_193" data-name="Path 193" d="M-69.981-843.627v19.4h14.564v-18.59a7.9,7.9,0,0,0-.358-2.374c-.572-1.818-1.995-4.574-5.358-4.574h-2.42a6.707,6.707,0,0,0-4.442,1.63A5.766,5.766,0,0,0-69.981-843.627Z" transform="translate(69.981 849.764)" fill="#26753e"/>
    </g>
    <g id="Group_53" data-name="Group 53" transform="translate(-101.92 -960.749)">
      <path id="Path_194" data-name="Path 194" d="M-59.513-834.362v16.318h10.4v-15.637a7.741,7.741,0,0,0-.255-2c-.409-1.529-1.424-3.847-3.826-3.847h-1.728a4.386,4.386,0,0,0-3.172,1.371A5.248,5.248,0,0,0-59.513-834.362Z" transform="translate(59.513 839.524)" fill="#fff"/>
    </g>
    <g id="Group_54" data-name="Group 54" transform="translate(-104.002 -951.393)">
      <rect id="Rectangle_439" data-name="Rectangle 439" width="14.564" height="4.01" rx="2.005" transform="translate(0 0)" fill="#ed4924"/>
    </g>
    <g id="Group_55" data-name="Group 55" transform="translate(-99.775 -958.505)">
      <circle id="Ellipse_5" data-name="Ellipse 5" cx="3.055" cy="3.055" r="3.055" transform="translate(0 0)" fill="#cebb81"/>
    </g>
    <g id="Group_56" data-name="Group 56" transform="translate(-100.083 -945.999)">
      <rect id="Rectangle_440" data-name="Rectangle 440" width="6.727" height="1.718" rx="0.859" transform="translate(0)"/>
    </g>
    <g id="Group_57" data-name="Group 57" transform="translate(-100.083 -942.896)">
      <rect id="Rectangle_441" data-name="Rectangle 441" width="6.727" height="1.718" rx="0.859" transform="translate(0 0)" fill="#ed4924"/>
    </g>
    <g id="Group_58" data-name="Group 58" transform="translate(-106.207 -977.903)" opacity="0.1">
      <rect id="Rectangle_442" data-name="Rectangle 442" width="2.905" height="50.902" transform="translate(0 0)" fill="#fff"/>
    </g>
    <g id="Group_59" data-name="Group 59" transform="translate(-101.92 -979.938)" opacity="0.1">
      <rect id="Rectangle_443" data-name="Rectangle 443" width="1.435" height="52.507" transform="translate(0 0)" fill="#fff"/>
    </g>
    <g id="Group_60" data-name="Group 60" transform="translate(-98.42 -987.862)" opacity="0.1">
      <rect id="Rectangle_444" data-name="Rectangle 444" width="1.7" height="8.757" transform="translate(0)" fill="#fff"/>
    </g>
    <g id="Group_61" data-name="Group 61" transform="translate(-89.889 -978.315)" opacity="0.1">
      <path id="Path_195" data-name="Path 195" d="M3.63-876.531H.974v-51.314l2.657.859Z" transform="translate(-0.974 927.844)" fill="#fff"/>
    </g>
  </g>
</svg>