<svg xmlns="http://www.w3.org/2000/svg" width="22.5" height="21.523" viewBox="0 0 22.5 21.523">
  <g id="Group_95" data-name="Group 95" transform="translate(991.763 1521.17)">
    <path id="Path_224" data-name="Path 224" d="M-974.354-1499.647a1.274,1.274,0,0,1-.6-.147l-5.563-2.925-5.563,2.925a1.283,1.283,0,0,1-1.351-.1,1.284,1.284,0,0,1-.51-1.255l1.063-6.194-4.5-4.387a1.283,1.283,0,0,1-.324-1.315,1.283,1.283,0,0,1,1.036-.873l6.22-.9,2.781-5.635a1.282,1.282,0,0,1,1.15-.716,1.282,1.282,0,0,1,1.15.716l2.781,5.635,6.22.9a1.284,1.284,0,0,1,1.036.873,1.283,1.283,0,0,1-.325,1.315l-4.5,4.387,1.063,6.194a1.282,1.282,0,0,1-.511,1.255A1.281,1.281,0,0,1-974.354-1499.647Zm-6.16-5.8a1.286,1.286,0,0,1,.6.147l3.859,2.029-.737-4.3a1.282,1.282,0,0,1,.369-1.135l3.122-3.043-4.315-.627a1.282,1.282,0,0,1-.966-.7l-1.929-3.909-1.929,3.909a1.282,1.282,0,0,1-.966.7l-4.315.627,3.122,3.043a1.283,1.283,0,0,1,.369,1.135l-.737,4.3,3.859-2.029A1.282,1.282,0,0,1-980.513-1505.451Z" transform="translate(0 0)" fill="#fff"/>
  </g>
</svg>