<?xml version="1.0" encoding="utf-8"?>
<!-- Generator: Adobe Illustrator 23.0.0, SVG Export Plug-In . SVG Version: 6.00 Build 0)  -->
<svg version="1.1" id="Capa_1" xmlns="http://www.w3.org/2000/svg" xmlns:xlink="http://www.w3.org/1999/xlink" x="0px" y="0px"
	 viewBox="0 0 30 30" style="enable-background:new 0 0 30 30;" xml:space="preserve">
<style type="text/css">
	.st0{fill:#FFFFFF;}
</style>
<g>
	<path class="st0" d="M17.26,15h-4.52c-0.51,0-0.92,0.41-0.92,0.92v0.28c0,0.51,0.41,0.92,0.92,0.92h4.52
		c0.51,0,0.92-0.41,0.92-0.92v-0.28C18.18,15.41,17.77,15,17.26,15z"/>
	<path class="st0" d="M21.36,7.57H8.64c-0.59,0-1.06,0.47-1.06,1.06c0,0.59,0.47,1.06,1.06,1.06h12.73c0.59,0,1.06-0.47,1.06-1.06
		C22.43,8.05,21.95,7.57,21.36,7.57z"/>
	<path class="st0" d="M0,0v30h30V0H0z M23.49,10.99v10.37c0,1.76-1.42,3.18-3.18,3.18H9.7c-1.76,0-3.18-1.42-3.18-3.18V10.99
		c-0.66-0.6-1.04-1.45-1.04-2.34C5.46,6.9,6.88,5.46,8.64,5.45h12.73c0.89,0.01,1.74,0.38,2.34,1.04
		C24.88,7.8,24.79,9.81,23.49,10.99z"/>
</g>
</svg>