<?xml version="1.0" encoding="utf-8"?>
<!-- Generator: Adobe Illustrator 23.0.0, SVG Export Plug-In . SVG Version: 6.00 Build 0)  -->
<svg version="1.1" id="Capa_1" xmlns="http://www.w3.org/2000/svg" xmlns:xlink="http://www.w3.org/1999/xlink" x="0px" y="0px"
	 viewBox="0 0 30 30" style="enable-background:new 0 0 30 30;" xml:space="preserve">
<style type="text/css">
	.st0{fill:#FFFFFF;}
</style>
<g>
	<path class="st0" d="M0,0v30h30V0H0z M19.75,23.16c0.73,0,1.33,0.59,1.33,1.33c0,0.73-0.59,1.33-1.33,1.33h-9.49
		c-0.73,0-1.33-0.59-1.33-1.33c0-0.73,0.59-1.33,1.33-1.33h3.42v-4.58c-3.37-0.63-5.93-3.59-5.93-7.14c0-3.65,1.98-6.56,2.06-6.69
		c0.25-0.36,0.66-0.58,1.1-0.58h8.22c0.5,0,0.96,0.28,1.19,0.73c0.2,0.4,1.97,4,1.97,6.53c0,3.55-2.56,6.51-5.93,7.14v4.58H19.75z"
		/>
	<path class="st0" d="M18.74,7.2V6.96c0-0.54-0.44-0.99-0.99-0.99h-5.52c-0.54,0-0.99,0.44-0.99,0.99V7.2
		c0,0.54,0.44,0.99,0.99,0.99h5.52C18.3,8.19,18.74,7.75,18.74,7.2z"/>
</g>
</svg>