<?xml version="1.0" encoding="utf-8"?>
<!-- Generator: Adobe Illustrator 23.0.0, SVG Export Plug-In . SVG Version: 6.00 Build 0)  -->
<svg version="1.1" id="Capa_1" xmlns="http://www.w3.org/2000/svg" xmlns:xlink="http://www.w3.org/1999/xlink" x="0px" y="0px"
	 viewBox="0 0 30 30" style="enable-background:new 0 0 30 30;" xml:space="preserve">
<style type="text/css">
	.st0{fill:#FFFFFF;}
</style>
<path class="st0" d="M0,0v30h30V0H0z M26.05,13.5l-4.7,4.56l1.14,6.42c0.08,0.44-0.09,0.88-0.46,1.14
	c-0.21,0.14-0.46,0.22-0.71,0.21c-0.18,0-0.36-0.04-0.52-0.13l-5.82-3.05l-5.82,3.05c-0.56,0.29-1.25,0.08-1.54-0.48
	c-0.12-0.22-0.16-0.48-0.11-0.73l1.14-6.42l-4.7-4.56c-0.3-0.3-0.41-0.74-0.29-1.14c0.13-0.41,0.49-0.71,0.92-0.78l6.5-0.95
	l2.86-5.85c0.27-0.57,0.96-0.8,1.52-0.53c0.23,0.11,0.42,0.3,0.53,0.53l2.9,5.84l6.5,0.95c0.43,0.06,0.79,0.36,0.92,0.78
	C26.46,12.77,26.35,13.21,26.05,13.5z"/>
</svg>