<svg xmlns="http://www.w3.org/2000/svg" xmlns:xlink="http://www.w3.org/1999/xlink" width="21.817" height="65.885" viewBox="0 0 21.817 65.885">
  <defs>
    <clipPath id="clip-path">
      <path id="Path_200" data-name="Path 200" d="M1098.44-545.856a4.768,4.768,0,0,1,3.057-.869c2.08,0,4.206,2.067,5.759,3.62s3.951,2.244,6.967-.362v35.2s-.145,1.146-1.146,1.146h-13.491a1.123,1.123,0,0,1-1.146-1.146Z" transform="translate(-1098.44 546.725)" fill="none"/>
    </clipPath>
    <clipPath id="clip-path-2">
      <path id="Path_203" data-name="Path 203" d="M1114.223-538a5.165,5.165,0,0,0-3.837-1.882,5.1,5.1,0,0,0-3.752,1.63s-2.45,3.728-5.322,3.728-2.872-1.834-2.872-1.834V-502.8a1.154,1.154,0,0,0,1.146,1.146h13.491s1.146-.1,1.146-1.146Z" transform="translate(-1098.44 539.885)" fill="none"/>
    </clipPath>
  </defs>
  <g id="Group_81" data-name="Group 81" transform="translate(-1083.44 662.404)">
    <g id="Group_63" data-name="Group 63" transform="translate(1083.44 -662.404)">
      <path id="Path_196" data-name="Path 196" d="M1110.722-634.287a1.2,1.2,0,0,1-.425-.512,1.5,1.5,0,0,0-.616-.637,1.136,1.136,0,0,1-.531-.967v-6.513h.364v-2.872a1.491,1.491,0,0,0-1.674-1.617h-3.016a1.491,1.491,0,0,0-1.674,1.617v2.872h.364v6.513a1.136,1.136,0,0,1-.531.967,1.492,1.492,0,0,0-.615.637,1.2,1.2,0,0,1-.426.512c-.972.7-3.5,2.775-3.5,5.465V-588.7a1.146,1.146,0,0,0,1.146,1.146h13.491a1.146,1.146,0,0,0,1.146-1.146v-40.122C1114.223-631.512,1111.693-633.589,1110.722-634.287Z" transform="translate(-1095.423 650.421)" fill="#a3a3a3"/>
      <path id="Path_197" data-name="Path 197" d="M1101.094-596.519H1087.6a4.168,4.168,0,0,1-4.163-4.163V-640.8c0-3.772,2.875-6.483,4.429-7.672a4.174,4.174,0,0,1,.644-.809v-2.6h-.364v-5.811a4.6,4.6,0,0,1,1.161-3.25,4.6,4.6,0,0,1,3.531-1.461h3.016a4.6,4.6,0,0,1,3.531,1.461,4.594,4.594,0,0,1,1.161,3.25v5.811h-.364v2.6a4.165,4.165,0,0,1,.644.808c1.554,1.189,4.43,3.9,4.43,7.672v40.122A4.168,4.168,0,0,1,1101.094-596.519Zm-11.62-6.033h9.75V-640.8c0-.969-1.128-2.212-2.245-3.015h0a4.309,4.309,0,0,1-1.156-1.229,4.11,4.11,0,0,1-1.474-2.056,4.111,4.111,0,0,1-1.474,2.056,4.317,4.317,0,0,1-1.156,1.229c-1.117.8-2.245,2.047-2.245,3.015Zm3.708-43.1,0,.007Zm1.346-12.4v0Zm-.358,0v0Z" transform="translate(-1083.44 662.404)" fill="#fff"/>
    </g>
    <g id="Group_64" data-name="Group 64" transform="translate(1086.457 -656.443)">
      <path id="Path_198" data-name="Path 198" d="M1110.3-623.1a1.5,1.5,0,0,0-.616-.637,1.136,1.136,0,0,1-.531-.967v-6.911a1.146,1.146,0,0,0-1.146-1.146h-3.344a1.147,1.147,0,0,0-1.146,1.146v6.911a1.135,1.135,0,0,1-.531.967,1.493,1.493,0,0,0-.615.637,1.2,1.2,0,0,1-.426.512c-.972.7-3.5,2.775-3.5,5.466V-577a1.146,1.146,0,0,0,1.146,1.146h13.491a1.146,1.146,0,0,0,1.146-1.146v-40.122c0-2.691-2.53-4.767-3.5-5.466A1.2,1.2,0,0,1,1110.3-623.1Z" transform="translate(-1098.44 632.765)" fill="#aaa"/>
    </g>
    <g id="Group_65" data-name="Group 65" transform="translate(1092.538 -654.898)">
      <rect id="Rectangle_445" data-name="Rectangle 445" width="3.62" height="6.83" transform="translate(0 0)" fill="#bababa"/>
    </g>
    <g id="Group_68" data-name="Group 68" transform="translate(1086.457 -639.139)" opacity="0.59">
      <g id="Group_67" data-name="Group 67" transform="translate(0 0)">
        <g id="Group_66" data-name="Group 66" clip-path="url(#clip-path)">
          <rect id="Rectangle_446" data-name="Rectangle 446" width="15.783" transform="translate(0 39.603)" fill="#b6b6b6"/>
          <rect id="Rectangle_447" data-name="Rectangle 447" width="15.783" height="1.65" transform="translate(0 37.953)" fill="#b6b6b6"/>
          <rect id="Rectangle_448" data-name="Rectangle 448" width="15.783" height="1.65" transform="translate(0 36.303)" fill="#b7b7b7"/>
          <rect id="Rectangle_449" data-name="Rectangle 449" width="15.783" height="1.65" transform="translate(0 34.653)" fill="#b8b8b8"/>
          <rect id="Rectangle_450" data-name="Rectangle 450" width="15.783" height="1.65" transform="translate(0 33.003)" fill="#b9b9b9"/>
          <rect id="Rectangle_451" data-name="Rectangle 451" width="15.783" height="1.65" transform="translate(0 31.353)" fill="#bababa"/>
          <rect id="Rectangle_452" data-name="Rectangle 452" width="15.783" height="1.65" transform="translate(0 29.703)" fill="#bbb"/>
          <rect id="Rectangle_453" data-name="Rectangle 453" width="15.783" height="1.65" transform="translate(0 28.052)" fill="#bcbcbc"/>
          <rect id="Rectangle_454" data-name="Rectangle 454" width="15.783" height="1.65" transform="translate(0 26.402)" fill="#bdbdbd"/>
          <rect id="Rectangle_455" data-name="Rectangle 455" width="15.783" height="1.65" transform="translate(0 24.752)" fill="#bebebe"/>
          <rect id="Rectangle_456" data-name="Rectangle 456" width="15.783" height="1.65" transform="translate(0 23.102)" fill="#bfbfbf"/>
          <rect id="Rectangle_457" data-name="Rectangle 457" width="15.783" height="1.65" transform="translate(0 21.452)" fill="silver"/>
          <rect id="Rectangle_458" data-name="Rectangle 458" width="15.783" height="1.65" transform="translate(0 19.802)" fill="#c1c1c1"/>
          <rect id="Rectangle_459" data-name="Rectangle 459" width="15.783" height="1.65" transform="translate(0 18.152)" fill="#c3c3c3"/>
          <rect id="Rectangle_460" data-name="Rectangle 460" width="15.783" height="1.65" transform="translate(0 16.501)" fill="#c4c4c4"/>
          <rect id="Rectangle_461" data-name="Rectangle 461" width="15.783" height="1.65" transform="translate(0 14.851)" fill="#c5c5c5"/>
          <rect id="Rectangle_462" data-name="Rectangle 462" width="15.783" height="1.65" transform="translate(0 13.201)" fill="#c6c6c6"/>
          <rect id="Rectangle_463" data-name="Rectangle 463" width="15.783" height="1.65" transform="translate(0 11.551)" fill="#c7c7c7"/>
          <rect id="Rectangle_464" data-name="Rectangle 464" width="15.783" height="1.65" transform="translate(0 9.901)" fill="#c8c8c8"/>
          <rect id="Rectangle_465" data-name="Rectangle 465" width="15.783" height="1.65" transform="translate(0 8.251)" fill="#c9c9c9"/>
          <rect id="Rectangle_466" data-name="Rectangle 466" width="15.783" height="1.65" transform="translate(0 6.601)" fill="#cacaca"/>
          <rect id="Rectangle_467" data-name="Rectangle 467" width="15.783" height="1.65" transform="translate(0 4.951)" fill="#cbcbcb"/>
          <rect id="Rectangle_468" data-name="Rectangle 468" width="15.783" height="1.65" transform="translate(0 3.3)" fill="#ccc"/>
          <rect id="Rectangle_469" data-name="Rectangle 469" width="15.783" height="1.65" transform="translate(0 1.65)" fill="#cdcdcd"/>
          <rect id="Rectangle_470" data-name="Rectangle 470" width="15.783" height="1.65" transform="translate(0 0)" fill="#cecece"/>
          <path id="Path_199" data-name="Path 199" d="M1114.223-546.725h0Z" transform="translate(-1098.44 546.725)" fill="#cecece"/>
        </g>
      </g>
    </g>
    <g id="Group_71" data-name="Group 71" transform="translate(1086.457 -637.764)" opacity="0.6">
      <g id="Group_70" data-name="Group 70" transform="translate(0 0)">
        <g id="Group_69" data-name="Group 69" clip-path="url(#clip-path-2)">
          <path id="Path_201" data-name="Path 201" d="M1098.44-349.8h0Z" transform="translate(-1098.44 388.032)" fill="#b6b6b6"/>
          <rect id="Rectangle_471" data-name="Rectangle 471" width="15.783" height="1.593" transform="translate(0 36.635)" fill="#b6b6b6"/>
          <rect id="Rectangle_472" data-name="Rectangle 472" width="15.783" height="1.593" transform="translate(0 35.042)" fill="#b7b7b7"/>
          <rect id="Rectangle_473" data-name="Rectangle 473" width="15.783" height="1.593" transform="translate(0 33.449)" fill="#b8b8b8"/>
          <rect id="Rectangle_474" data-name="Rectangle 474" width="15.783" height="1.593" transform="translate(0 31.857)" fill="#b9b9b9"/>
          <rect id="Rectangle_475" data-name="Rectangle 475" width="15.783" height="1.593" transform="translate(0 30.264)" fill="#bababa"/>
          <rect id="Rectangle_476" data-name="Rectangle 476" width="15.783" height="1.593" transform="translate(0 28.671)" fill="#bbb"/>
          <rect id="Rectangle_477" data-name="Rectangle 477" width="15.783" height="1.593" transform="translate(0 27.078)" fill="#bcbcbc"/>
          <rect id="Rectangle_478" data-name="Rectangle 478" width="15.783" height="1.593" transform="translate(0 25.485)" fill="#bdbdbd"/>
          <rect id="Rectangle_479" data-name="Rectangle 479" width="15.783" height="1.593" transform="translate(0 23.892)" fill="#bebebe"/>
          <rect id="Rectangle_480" data-name="Rectangle 480" width="15.783" height="1.593" transform="translate(0 22.3)" fill="#bfbfbf"/>
          <rect id="Rectangle_481" data-name="Rectangle 481" width="15.783" height="1.593" transform="translate(0 20.707)" fill="silver"/>
          <rect id="Rectangle_482" data-name="Rectangle 482" width="15.783" height="1.593" transform="translate(0 19.114)" fill="#c1c1c1"/>
          <rect id="Rectangle_483" data-name="Rectangle 483" width="15.783" height="1.593" transform="translate(0 17.521)" fill="#c3c3c3"/>
          <rect id="Rectangle_484" data-name="Rectangle 484" width="15.783" height="1.593" transform="translate(0 15.928)" fill="#c4c4c4"/>
          <rect id="Rectangle_485" data-name="Rectangle 485" width="15.783" height="1.593" transform="translate(0 14.336)" fill="#c5c5c5"/>
          <rect id="Rectangle_486" data-name="Rectangle 486" width="15.783" height="1.593" transform="translate(0 12.743)" fill="#c6c6c6"/>
          <rect id="Rectangle_487" data-name="Rectangle 487" width="15.783" height="1.593" transform="translate(0 11.15)" fill="#c7c7c7"/>
          <rect id="Rectangle_488" data-name="Rectangle 488" width="15.783" height="1.593" transform="translate(0 9.557)" fill="#c8c8c8"/>
          <rect id="Rectangle_489" data-name="Rectangle 489" width="15.783" height="1.593" transform="translate(0 7.964)" fill="#c9c9c9"/>
          <rect id="Rectangle_490" data-name="Rectangle 490" width="15.783" height="1.593" transform="translate(0 6.371)" fill="#cacaca"/>
          <rect id="Rectangle_491" data-name="Rectangle 491" width="15.783" height="1.593" transform="translate(0 4.779)" fill="#cbcbcb"/>
          <rect id="Rectangle_492" data-name="Rectangle 492" width="15.783" height="1.593" transform="translate(0 3.186)" fill="#ccc"/>
          <rect id="Rectangle_493" data-name="Rectangle 493" width="15.783" height="1.593" transform="translate(0 1.593)" fill="#cdcdcd"/>
          <rect id="Rectangle_494" data-name="Rectangle 494" width="15.783" height="1.593" transform="translate(0 0)" fill="#cecece"/>
          <path id="Path_202" data-name="Path 202" d="M1114.223-539.885h0Z" transform="translate(-1098.44 539.885)" fill="#cecece"/>
        </g>
      </g>
    </g>
    <g id="Group_73" data-name="Group 73" transform="translate(1086.457 -656.443)" opacity="0.29">
      <g id="Group_72" data-name="Group 72" transform="translate(0 0)">
        <path id="Path_204" data-name="Path 204" d="M1108-631.76a.141.141,0,0,1,.141.141v6.911a2.128,2.128,0,0,0,1.005,1.82.871.871,0,0,1,.222.177,2.208,2.208,0,0,0,.764.934c.723.52,3.083,2.391,3.083,4.649V-577a.141.141,0,0,1-.141.141h-13.491a.141.141,0,0,1-.141-.141v-40.122c0-2.258,2.36-4.129,3.083-4.649a2.209,2.209,0,0,0,.764-.934.867.867,0,0,1,.221-.177,2.128,2.128,0,0,0,1.005-1.82v-6.911a.141.141,0,0,1,.141-.141H1108m0-1.005h-3.344a1.147,1.147,0,0,0-1.146,1.146v6.911a1.135,1.135,0,0,1-.531.967,1.493,1.493,0,0,0-.615.637,1.2,1.2,0,0,1-.426.512c-.972.7-3.5,2.775-3.5,5.466V-577a1.146,1.146,0,0,0,1.146,1.146h13.491a1.146,1.146,0,0,0,1.146-1.146v-40.122c0-2.691-2.53-4.767-3.5-5.466a1.2,1.2,0,0,1-.425-.512,1.5,1.5,0,0,0-.616-.637,1.136,1.136,0,0,1-.531-.967v-6.911a1.146,1.146,0,0,0-1.146-1.146Z" transform="translate(-1098.44 632.765)" fill="#f4f1ef"/>
      </g>
    </g>
    <g id="Group_74" data-name="Group 74" transform="translate(1086.457 -638.271)">
      <path id="Path_205" data-name="Path 205" d="M1098.44-542.405" transform="translate(-1098.44 542.405)" fill="#aaa"/>
    </g>
    <g id="Group_75" data-name="Group 75" transform="translate(1091.163 -659.387)">
      <path id="Path_206" data-name="Path 206" d="M1126.534-647.4h-3.016a1.491,1.491,0,0,0-1.674,1.617v2.872h6.365v-2.872A1.492,1.492,0,0,0,1126.534-647.4Z" transform="translate(-1121.84 647.404)" fill="#a3a3a3"/>
    </g>
    <g id="Group_76" data-name="Group 76" transform="translate(1090.324 -633.058)">
      <rect id="Rectangle_495" data-name="Rectangle 495" width="7.168" height="1.665" rx="0.833" transform="translate(0 0)" fill="#558dd8"/>
    </g>
    <g id="Group_77" data-name="Group 77" transform="translate(1091.084 -629.462)">
      <rect id="Rectangle_496" data-name="Rectangle 496" width="5.647" height="1.472" rx="0.736" transform="translate(0)" fill="#558dd8"/>
    </g>
    <g id="Group_78" data-name="Group 78" transform="translate(1091.084 -605.473)">
      <rect id="Rectangle_497" data-name="Rectangle 497" width="5.991" height="1.448" rx="0.724" transform="translate(0)"/>
    </g>
    <g id="Group_79" data-name="Group 79" transform="translate(1093.166 -659.387)" opacity="0.05">
      <rect id="Rectangle_498" data-name="Rectangle 498" width="1.484" height="11.319" transform="translate(0)"/>
    </g>
    <g id="Group_80" data-name="Group 80" transform="translate(1092.514 -648.334)" opacity="0.05">
      <rect id="Rectangle_499" data-name="Rectangle 499" width="2.896" height="48.798" transform="translate(0)"/>
    </g>
  </g>
</svg>